<?xml version="1.0" encoding="utf-8"?>
<!-- Generator: Adobe Illustrator 23.0.6, SVG Export Plug-In . SVG Version: 6.00 Build 0)  -->
<svg version="1.1" id="icons" xmlns="http://www.w3.org/2000/svg" xmlns:xlink="http://www.w3.org/1999/xlink" x="0px" y="0px"
	 viewBox="0 0 154 154" style="enable-background:new 0 0 154 154;" xml:space="preserve">
<style type="text/css">
	.st0{fill:#FFFFFF;}
</style>
<g>
	<g>
		<path class="st0" d="M123,154H21c-0.6,0-1-0.4-1-1s0.4-1,1-1h102c0.6,0,1,0.4,1,1S123.6,154,123,154z"/>
	</g>
	<g>
		<path class="st0" d="M151,146H3c-1.7,0-3-1.3-3-3s1.3-3,3-3h5V97c0-1.4,0-1.4,7-7.5c1.9-1.7,4.4-3.9,7.7-6.7
			c0.9-0.8,2.1-1,3.2-0.5c1.1,0.5,1.8,1.5,1.8,2.7l0,5.4c1.4-1.3,2.7-2.4,3.7-3.3c6-5.3,6.4-5.7,8.2-4.8c1.8,0.8,1.8,2,1.8,6.7
			c0,0.4,0,0.9,0,1.4l8.7-7.6c0.9-0.8,2.1-1,3.2-0.5c1.1,0.5,1.8,1.6,1.8,2.7l0,5.4l8.7-7.6c0.9-0.8,2.1-1,3.2-0.5
			c1.1,0.5,1.8,1.6,1.8,2.7l0,5.4l8.7-7.6c0.9-0.8,2.1-1,3.2-0.5c1.8,0.8,1.8,2,1.8,6.7c0,0.4,0,0.9,0,1.4c1.4-1.3,2.6-2.3,3.7-3.3
			c6-5.4,6.4-5.7,8.2-4.8l0.1,0c1.8,0.8,1.8,0.8,1.7,13.3c0,3.2,0,7.2,0,12.3h30V56H74.3L76,80.9c0,0.6-0.4,1-0.9,1.1
			c-0.5,0-1-0.4-1.1-0.9L72.1,54H128v56H94v-1c0-5.6,0-10,0-13.3c0-7.5,0.1-10.9-0.3-11.4c0,0-0.1-0.1-0.2-0.1l-0.1-0.1
			c-0.6-0.3-0.7-0.3-6.1,4.5c-1.4,1.3-3.2,2.8-5.4,4.7l-1.7,1.5l0-2.2c0-1.4,0-2.6,0-3.7c0-4.5,0-4.6-0.6-4.8
			c-0.4-0.2-0.8-0.1-1.1,0.2l-12,10.5l0-9.8c0-0.4-0.2-0.8-0.6-0.9c-0.4-0.2-0.8-0.1-1.1,0.2L53,94.8l0-9.8c0-0.4-0.2-0.8-0.6-0.9
			c-0.4-0.2-0.8-0.1-1.1,0.2l-12,10.5l0-2.2c0-1.4,0-2.6,0-3.6c0-4.5,0-4.6-0.6-4.8c-0.6-0.3-0.7-0.3-6.1,4.5
			c-1.4,1.3-3.2,2.8-5.4,4.7l-1.7,1.5l0-9.8c0-0.6-0.4-0.8-0.6-0.9c-0.1-0.1-0.6-0.2-1.1,0.2c-3.2,2.8-5.7,5-7.7,6.7
			c-4.2,3.7-6.2,5.4-6.3,5.8c0,0,0,0.1,0,0.2l0,45.1H3c-0.6,0-1,0.4-1,1s0.4,1,1,1h148c0.6,0,1-0.4,1-1s-0.4-1-1-1h-13v-31
			c0-0.6-0.4-1-1-1h-7V53c0-0.6-0.4-1-1-1H72l-2-29.1c0-0.5-0.5-0.9-1-0.9H57c-0.6,0-1,0.4-1,1v58.1c0,0.6-0.4,1-1,1s-1-0.4-1-1V23
			c0-1.7,1.3-3,3-3h12c1.6,0,2.9,1.2,3,2.8L73.9,50H129c1.7,0,3,1.3,3,3v55h5c1.7,0,3,1.3,3,3v29h11c1.7,0,3,1.3,3,3
			S152.7,146,151,146z M136,142H94v-30h42V142z M96,140h38v-26H96V140z"/>
	</g>
	<g>
		<path class="st0" d="M29,82.1c-0.6,0-1-0.4-1-1V23c0-1.7,1.3-3,3-3h12c1.6,0,2.9,1.2,3,2.8l4,58.1c0,0.6-0.4,1-0.9,1.1
			c-0.6,0-1-0.4-1.1-0.9l-4-58.1c0-0.5-0.5-0.9-1-0.9H31c-0.6,0-1,0.4-1,1v58.1C30,81.7,29.6,82.1,29,82.1z"/>
	</g>
	<g>
		<path class="st0" d="M115,38H93c-0.6,0-1-0.4-1-1s0.4-1,1-1h22c1.7,0,3-1.3,3-3s-1.3-3-3-3l-0.3,0c-8.6,0-10.7,0-11.3,0
			c-0.1,0-0.3,0-0.4,0H91c-6.1,0-11-4.9-11-11S84.9,8,91,8h32c0.6,0,1,0.4,1,1s-0.4,1-1,1H91c-5,0-9,4-9,9s4,9,9,9h12
			c0.1,0,0.1,0,0.2,0l0.2,0l0.2,0c0.1,0,1.3,0,11.1,0l0.3,0c2.8,0,5,2.2,5,5S117.8,38,115,38z"/>
	</g>
	<g>
		<path class="st0" d="M105,106c-1.7,0-3-1.3-3-3V61c0-1.7,1.3-3,3-3s3,1.3,3,3v42C108,104.7,106.7,106,105,106z M105,60
			c-0.6,0-1,0.4-1,1v42c0,0.6,0.4,1,1,1s1-0.4,1-1V61C106,60.4,105.6,60,105,60z"/>
	</g>
	<g>
		<path class="st0" d="M93,74c-1.7,0-3-1.3-3-3V61c0-0.9,0.3-1.7,1-2.2c0.5-0.5,1.3-0.7,2-0.7c1.5,0,3,1,3,3v10
			C96,72.7,94.7,74,93,74z M93,60c-0.2,0-1,0-1,1v10c0,0.6,0.4,1,1,1s1-0.4,1-1V61C94,60.1,93.2,60,93,60z"/>
	</g>
	<g>
		<path class="st0" d="M117,106c-1.7,0-3-1.3-3-3V61c0-3.9,6-3.9,6,0v42C120,104.7,118.7,106,117,106z M117,60c-0.2,0-1,0-1,1v42
			c0,0.6,0.4,1,1,1s1-0.4,1-1V61C118,60.1,117.2,60,117,60z"/>
	</g>
	<g>
		<path class="st0" d="M41,18H27c-5,0-9-4-9-9s4-9,9-9h42c0.6,0,1,0.4,1,1s-0.4,1-1,1H27c-3.9,0-7,3.1-7,7s3.1,7,7,7h14
			c0.6,0,1,0.4,1,1S41.6,18,41,18z"/>
	</g>
</g>
<g>
	<path class="st0" d="M127.9,10h-1.4c-0.6,0-1-0.4-1-1s0.4-1,1-1h1.4c0.6,0,1,0.4,1,1S128.4,10,127.9,10z"/>
</g>
<g>
	<path class="st0" d="M127.9,154h-1.4c-0.6,0-1-0.4-1-1s0.4-1,1-1h1.4c0.6,0,1,0.4,1,1S128.4,154,127.9,154z"/>
</g>
<g>
	<path class="st0" d="M125,132h-19.8c-0.6,0-1-0.4-1-1s0.4-1,1-1H125c0.6,0,1,0.4,1,1S125.5,132,125,132z"/>
</g>
<g>
	<path class="st0" d="M125,124h-19.8c-0.6,0-1-0.4-1-1s0.4-1,1-1H125c0.6,0,1,0.4,1,1S125.5,124,125,124z"/>
</g>
<g>
	<path class="st0" d="M31,132H19c-0.6,0-1-0.4-1-1s0.4-1,1-1h12c0.6,0,1,0.4,1,1S31.6,132,31,132z"/>
</g>
<g>
	<path class="st0" d="M49,132H37c-0.6,0-1-0.4-1-1s0.4-1,1-1h12c0.6,0,1,0.4,1,1S49.6,132,49,132z"/>
</g>
<g>
	<path class="st0" d="M67,132H55c-0.6,0-1-0.4-1-1s0.4-1,1-1h12c0.6,0,1,0.4,1,1S67.6,132,67,132z"/>
</g>
<g>
	<path class="st0" d="M85.1,132h-12c-0.6,0-1-0.4-1-1s0.4-1,1-1h12c0.6,0,1,0.4,1,1S85.6,132,85.1,132z"/>
</g>
<g>
	<path class="st0" d="M31,120H19c-0.6,0-1-0.4-1-1s0.4-1,1-1h12c0.6,0,1,0.4,1,1S31.6,120,31,120z"/>
</g>
<g>
	<path class="st0" d="M49,120H37c-0.6,0-1-0.4-1-1s0.4-1,1-1h12c0.6,0,1,0.4,1,1S49.6,120,49,120z"/>
</g>
<g>
	<path class="st0" d="M67,120H55c-0.6,0-1-0.4-1-1s0.4-1,1-1h12c0.6,0,1,0.4,1,1S67.6,120,67,120z"/>
</g>
<g>
	<path class="st0" d="M85.1,120h-12c-0.6,0-1-0.4-1-1s0.4-1,1-1h12c0.6,0,1,0.4,1,1S85.6,120,85.1,120z"/>
</g>
<g>
	<path class="st0" d="M31,108H19c-0.6,0-1-0.4-1-1s0.4-1,1-1h12c0.6,0,1,0.4,1,1S31.6,108,31,108z"/>
</g>
<g>
	<path class="st0" d="M49,108H37c-0.6,0-1-0.4-1-1s0.4-1,1-1h12c0.6,0,1,0.4,1,1S49.6,108,49,108z"/>
</g>
<g>
	<path class="st0" d="M67,108H55c-0.6,0-1-0.4-1-1s0.4-1,1-1h12c0.6,0,1,0.4,1,1S67.6,108,67,108z"/>
</g>
<g>
	<path class="st0" d="M85.1,108h-12c-0.6,0-1-0.4-1-1s0.4-1,1-1h12c0.6,0,1,0.4,1,1S85.6,108,85.1,108z"/>
</g>
</svg>
