<?xml version="1.0" encoding="utf-8"?>
<!-- Generator: Adobe Illustrator 23.0.6, SVG Export Plug-In . SVG Version: 6.00 Build 0)  -->
<svg version="1.1" id="Layer_1" xmlns="http://www.w3.org/2000/svg" xmlns:xlink="http://www.w3.org/1999/xlink" x="0px" y="0px"
	 viewBox="0 0 24 20" style="enable-background:new 0 0 24 20;" xml:space="preserve">
<style type="text/css">
	.st0{fill-rule:evenodd;clip-rule:evenodd;}
</style>
<path class="st0" d="M12,11c-2,0-12-8.1-12-8.1V2c0-1.1,0.9-2,2-2h20c1.1,0,2,0.9,2,2l0,1C24,3,14.1,11,12,11z M12,13.8
	c2.1,0,12-7.8,12-7.8l0,12c0,1.1-0.9,2-2,2H2c-1.1,0-2-0.9-2-2L0,6C0,6,10.1,13.8,12,13.8z"/>
</svg>
