<?xml version="1.0" encoding="utf-8"?>
<!-- Generator: Adobe Illustrator 23.1.0, SVG Export Plug-In . SVG Version: 6.00 Build 0)  -->
<svg version="1.1" id="Capa_1" xmlns="http://www.w3.org/2000/svg" xmlns:xlink="http://www.w3.org/1999/xlink" x="0px" y="0px"
	 viewBox="0 0 112.2 112.2" style="enable-background:new 0 0 112.2 112.2;" xml:space="preserve">
<style type="text/css">
	.st0{fill:#DC4E41;}
	.st1{fill:#FFFFFF;}
</style>
<g>
	<g>
		<circle id="XMLID_30_" class="st0" cx="56.1" cy="56.1" r="56.1"/>
	</g>
	<g>
		<path class="st0" d="M19.5,58.6c-0.2,9.7,6.4,18.9,15.6,21.9c8.6,2.9,19.2,0.7,24.9-6.6c4.2-5.2,5.1-12.1,4.7-18.5
			c-7.4-0.1-14.8,0-22.1,0c0,2.6,0,5.2,0,7.9c4.4,0.1,8.8,0.1,13.3,0.2c-1.1,3.8-3.7,7.4-7.5,8.8c-7.4,3.3-16.9-1-19.3-8.8
			c-2.8-7.5,1.8-16.5,9.4-18.7c4.7-1.7,9.6,0.2,13.7,2.7c2.1-1.9,4-4,5.9-6.1c-4.6-3.9-10.5-6.2-16.6-5.7
			C29.5,35.7,19.1,46.7,19.5,58.6z"/>
		<path class="st0" d="M79.1,48.7c0,2.2,0,4.4-0.1,6.6c-2.2,0-4.4,0-6.6,0c0,2.2,0,4.4,0,6.6c2.2,0,4.4,0,6.6,0c0,2.2,0,4.4,0,6.6
			c2.2,0,4.4,0,6.6,0c0-2.2,0-4.4,0-6.6c2.2,0,4.4,0,6.6,0c0-2.2,0-4.4,0-6.6c-2.2,0-4.4,0-6.6,0c0-2.2,0-4.4,0-6.6
			C83.5,48.7,81.3,48.7,79.1,48.7z"/>
		<g>
			<path class="st1" d="M19.5,58.6c-0.5-11.9,10-22.9,21.9-23.1c6.1-0.5,12,1.8,16.6,5.7c-1.9,2.1-3.8,4.1-5.9,6.1
				c-4.1-2.5-8.9-4.3-13.7-2.7c-7.6,2.2-12.3,11.2-9.4,18.7c2.3,7.8,11.8,12.1,19.3,8.8c3.9-1.4,6.4-4.9,7.5-8.8
				c-4.4-0.1-8.8,0-13.3-0.2c0-2.6,0-5.2,0-7.9c7.4,0,14.7,0,22.1,0c0.5,6.4-0.5,13.3-4.7,18.5c-5.7,7.4-16.3,9.5-24.9,6.6
				C26,77.5,19.3,68.3,19.5,58.6z"/>
			<path class="st1" d="M79.1,48.7c2.2,0,4.4,0,6.6,0c0,2.2,0,4.4,0,6.6c2.2,0,4.4,0,6.6,0c0,2.2,0,4.4,0,6.6c-2.2,0-4.4,0-6.6,0
				c0,2.2,0,4.4,0,6.6c-2.2,0-4.4,0-6.6,0c0-2.2,0-4.4,0-6.6c-2.2,0-4.4,0-6.6,0c0-2.2,0-4.4,0-6.6c2.2,0,4.4,0,6.6,0
				C79.1,53.1,79.1,50.9,79.1,48.7z"/>
		</g>
	</g>
</g>
</svg>
