<?xml version="1.0" encoding="utf-8"?>
<!-- Generator: Adobe Illustrator 23.1.0, SVG Export Plug-In . SVG Version: 6.00 Build 0)  -->
<svg version="1.1" id="Layer_1" xmlns="http://www.w3.org/2000/svg" xmlns:xlink="http://www.w3.org/1999/xlink" x="0px" y="0px"
	 viewBox="0 0 30.7 30.7" style="enable-background:new 0 0 30.7 30.7;" xml:space="preserve">
<style type="text/css">
	.st0{fill:url(#SVGID_1_);}
	.st1{fill:#FFFFFF;}
</style>
<g id="Icons">
	<g id="Icons_8_">
		<g>
			
				<linearGradient id="SVGID_1_" gradientUnits="userSpaceOnUse" x1="15.3438" y1="750.6266" x2="15.3438" y2="715.4636" gradientTransform="matrix(1 0 0 1 0 -718)">
				<stop  offset="9.694000e-02" style="stop-color:#FFD879"/>
				<stop  offset="0.1539" style="stop-color:#FCCB76"/>
				<stop  offset="0.2583" style="stop-color:#F5AA6C"/>
				<stop  offset="0.3976" style="stop-color:#E9755E"/>
				<stop  offset="0.449" style="stop-color:#E45F58"/>
				<stop  offset="0.6786" style="stop-color:#D22A9C"/>
				<stop  offset="1" style="stop-color:#6968DF"/>
			</linearGradient>
			<circle class="st0" cx="15.3" cy="15.3" r="15.3"/>
			<g>
				<path class="st1" d="M15.3,19.1c-2,0-3.7-1.7-3.7-3.7s1.7-3.7,3.7-3.7c2,0,3.7,1.7,3.7,3.7S17.4,19.1,15.3,19.1z M15.3,12.6
					c-1.5,0-2.7,1.2-2.7,2.7s1.2,2.7,2.7,2.7c1.5,0,2.7-1.2,2.7-2.7S16.8,12.6,15.3,12.6z"/>
			</g>
			<circle class="st1" cx="19.6" cy="11.2" r="0.5"/>
			<g>
				<path class="st1" d="M18.5,22.6h-6.4c-2.2,0-4.1-1.8-4.1-4.1v-6.4c0-2.2,1.8-4.1,4.1-4.1h6.4c2.2,0,4.1,1.8,4.1,4.1v6.4
					C22.6,20.8,20.8,22.6,18.5,22.6z M12.1,9.1c-1.7,0-3.1,1.4-3.1,3.1v6.4c0,1.7,1.4,3.1,3.1,3.1h6.4c1.7,0,3.1-1.4,3.1-3.1v-6.4
					c0-1.7-1.4-3.1-3.1-3.1H12.1z"/>
			</g>
		</g>
	</g>
</g>
</svg>
