<?xml version="1.0" encoding="utf-8"?>
<!-- Generator: Adobe Illustrator 23.0.6, SVG Export Plug-In . SVG Version: 6.00 Build 0)  -->
<svg version="1.1" id="Calque_1" xmlns="http://www.w3.org/2000/svg" xmlns:xlink="http://www.w3.org/1999/xlink" x="0px" y="0px"
	 viewBox="0 0 51.3 51.3" style="enable-background:new 0 0 51.3 51.3;" xml:space="preserve">
<style type="text/css">
	.st0{fill:#29166F;}
</style>
<g>
	<g>
		<path class="st0" d="M25.6,51.3C11.5,51.3,0,39.8,0,25.6S11.5,0,25.6,0s25.6,11.5,25.6,25.6S39.8,51.3,25.6,51.3z M25.6,1.3
			C12.2,1.3,1.3,12.2,1.3,25.6S12.2,50,25.6,50S50,39.1,50,25.6S39.1,1.3,25.6,1.3z"/>
	</g>
	<g>
		<g>
			<path class="st0" d="M25.6,32.6c-2.2,0-3.9-1.8-3.9-3.9c0-2.2,1.8-3.9,3.9-3.9s3.9,1.8,3.9,3.9C29.6,30.8,27.8,32.6,25.6,32.6z
				 M25.6,26c-1.5,0-2.7,1.2-2.7,2.7s1.2,2.7,2.7,2.7c1.5,0,2.7-1.2,2.7-2.7S27.1,26,25.6,26z"/>
		</g>
		<g>
			<path class="st0" d="M38.9,29.3c-0.3,0-0.6-0.3-0.6-0.6c0-2.2-0.6-4.4-1.7-6.3c-0.2-0.3-0.1-0.7,0.2-0.9c0.3-0.2,0.7-0.1,0.9,0.2
				c1.2,2.1,1.9,4.5,1.9,6.9C39.5,29,39.2,29.3,38.9,29.3z"/>
		</g>
		<g>
			<path class="st0" d="M12.4,29.3c-0.3,0-0.6-0.3-0.6-0.6c0-7.6,6.2-13.9,13.9-13.9c2.4,0,4.8,0.6,6.9,1.9c0.3,0.2,0.4,0.6,0.2,0.9
				c-0.2,0.3-0.6,0.4-0.9,0.2c-1.9-1.1-4.1-1.7-6.3-1.7c-7,0-12.6,5.7-12.6,12.6C13,29,12.7,29.3,12.4,29.3z"/>
		</g>
		<g>
			<path class="st0" d="M21.2,33.7c-0.2,0-0.3-0.1-0.4-0.2c-0.2-0.2-0.2-0.6,0-0.9l2.2-2.2c0.2-0.2,0.6-0.2,0.9,0s0.2,0.6,0,0.9
				l-2.2,2.2C21.5,33.6,21.4,33.7,21.2,33.7z"/>
		</g>
		<g>
			<path class="st0" d="M27.8,27.1c-0.2,0-0.3-0.1-0.4-0.2c-0.2-0.2-0.2-0.6,0-0.9l8.8-8.8c0.2-0.2,0.6-0.2,0.9,0s0.2,0.6,0,0.9
				l-8.8,8.8C28.2,27,28,27.1,27.8,27.1z"/>
		</g>
	</g>
</g>
</svg>
