<?xml version="1.0" encoding="utf-8"?>
<!-- Generator: Adobe Illustrator 23.0.6, SVG Export Plug-In . SVG Version: 6.00 Build 0)  -->
<svg version="1.1" id="Calque_1" xmlns="http://www.w3.org/2000/svg" xmlns:xlink="http://www.w3.org/1999/xlink" x="0px" y="0px"
	 viewBox="0 0 51.3 51.3" style="enable-background:new 0 0 51.3 51.3;" xml:space="preserve">
<style type="text/css">
	.st0{fill:#29166F;}
</style>
<g>
	<g>
		<path class="st0" d="M25.6,51.3C11.5,51.3,0,39.8,0,25.6S11.5,0,25.6,0s25.6,11.5,25.6,25.6S39.8,51.3,25.6,51.3z M25.6,1.3
			C12.2,1.3,1.3,12.2,1.3,25.6S12.2,50,25.6,50S50,39.1,50,25.6S39.1,1.3,25.6,1.3z"/>
	</g>
	<g>
		<path class="st0" d="M15.3,29.6c-1.6,0-2.9-0.5-3.8-1.6c-0.9-1-1.4-2.4-1.4-4.2c0-1.1,0.2-2.1,0.6-3c0.4-0.9,1.1-1.6,1.9-2.1
			c0.8-0.5,1.8-0.7,2.8-0.7c1.1,0,2,0.2,2.9,0.6c0.3,0.1,0.4,0.5,0.3,0.8c-0.1,0.3-0.5,0.4-0.8,0.3c-0.7-0.3-1.5-0.5-2.4-0.5
			c-0.8,0-1.6,0.2-2.2,0.6c-0.6,0.4-1.1,0.9-1.4,1.5c-0.3,0.7-0.5,1.5-0.5,2.4c0,1.5,0.4,2.6,1.1,3.4c0.7,0.8,1.6,1.2,2.9,1.2
			c0.9,0,1.7-0.1,2.3-0.3c0.3-0.1,0.7,0.1,0.8,0.4c0.1,0.3-0.1,0.7-0.4,0.8C17.2,29.4,16.3,29.6,15.3,29.6z"/>
	</g>
	<g>
		<path class="st0" d="M22.2,34.2c-0.7,0-1.3-0.1-1.8-0.4c-0.3-0.2-0.4-0.5-0.3-0.8c0.2-0.3,0.5-0.4,0.8-0.3
			c0.4,0.2,0.8,0.3,1.3,0.3c0.5,0,1-0.1,1.2-0.3c0.1-0.1,0.3-0.3,0.3-0.8c0-0.3-0.1-0.4-0.2-0.5c-0.1-0.1-0.4-0.2-0.7-0.3L22.3,31
			v-1.1l0.5-0.1c0.2,0,0.4-0.1,0.6-0.3c0.1-0.1,0.2-0.3,0.2-0.5c0-0.4-0.1-0.5-0.2-0.6c-0.3-0.3-1-0.3-1.6-0.1
			c-0.2,0.1-0.5,0.2-0.6,0.3c-0.3,0.2-0.7,0.2-0.9-0.1c-0.2-0.3-0.2-0.7,0.1-0.9c0.3-0.2,0.6-0.4,1-0.6c0.4-0.1,0.8-0.2,1.2-0.2
			c0.7,0,1.2,0.2,1.7,0.5c0.3,0.3,0.7,0.7,0.7,1.6c0,0.5-0.2,1-0.5,1.3c0,0,0.1,0.1,0.1,0.1c0.4,0.4,0.6,0.8,0.6,1.4
			c0,0.7-0.3,1.3-0.8,1.8C23.7,34,23,34.2,22.2,34.2z"/>
	</g>
	<g>
		<path class="st0" d="M34.4,29.4c-0.3,0-0.6-0.3-0.6-0.6v-4.4h-6v4.4c0,0.3-0.3,0.6-0.6,0.6s-0.6-0.3-0.6-0.6v-10
			c0-0.3,0.3-0.6,0.6-0.6s0.6,0.3,0.6,0.6v4.4h6v-4.4c0-0.3,0.3-0.6,0.6-0.6s0.6,0.3,0.6,0.6v10C35,29.1,34.7,29.4,34.4,29.4z"/>
	</g>
	<g>
		<path class="st0" d="M38.3,34.2c-0.7,0-1.3-0.2-1.8-0.6c-0.5-0.4-0.7-1-0.7-1.7c0-0.5,0.2-0.9,0.5-1.3c0.1-0.1,0.2-0.2,0.3-0.3
			c-0.1-0.1-0.1-0.1-0.2-0.2c-0.3-0.3-0.4-0.7-0.4-1.2c0-0.4,0.1-0.8,0.3-1.1c0.2-0.3,0.5-0.6,0.9-0.7c0.3-0.2,0.7-0.2,1.1-0.2
			c0.6,0,1.2,0.2,1.6,0.5c0.4,0.4,0.7,0.9,0.7,1.5c0,0.4-0.1,0.8-0.4,1.2c-0.1,0.1-0.1,0.1-0.2,0.2c0.1,0.1,0.3,0.2,0.4,0.3
			c0.3,0.4,0.5,0.8,0.5,1.3c0,0.7-0.3,1.2-0.7,1.6C39.6,34,39,34.2,38.3,34.2z M38.3,30.8L38.1,31c-0.4,0.1-0.6,0.3-0.8,0.5
			c-0.1,0.2-0.2,0.3-0.2,0.5c0,0.4,0.1,0.6,0.3,0.7c0.2,0.2,0.5,0.3,0.9,0.3c0.4,0,0.7-0.1,1-0.3c0.2-0.2,0.3-0.4,0.3-0.7
			c0-0.2-0.1-0.4-0.2-0.5c-0.1-0.1-0.3-0.3-0.8-0.5L38.3,30.8z M38.3,28.1c-0.2,0-0.4,0-0.6,0.1c-0.1,0.1-0.3,0.2-0.3,0.3
			c-0.1,0.1-0.1,0.2-0.1,0.4c0,0.2,0,0.3,0.1,0.4c0.1,0.1,0.2,0.3,0.7,0.5l0.2,0.1l0.2-0.1c0.4-0.2,0.6-0.4,0.7-0.5
			c0.1-0.1,0.1-0.2,0.1-0.4c0-0.3-0.1-0.5-0.2-0.5C38.9,28.2,38.7,28.1,38.3,28.1z"/>
	</g>
</g>
</svg>
