<?xml version="1.0" encoding="utf-8"?>
<!-- Generator: Adobe Illustrator 23.0.6, SVG Export Plug-In . SVG Version: 6.00 Build 0)  -->
<svg version="1.1" id="Calque_1" xmlns="http://www.w3.org/2000/svg" xmlns:xlink="http://www.w3.org/1999/xlink" x="0px" y="0px"
	 viewBox="0 0 51.3 51.3" style="enable-background:new 0 0 51.3 51.3;" xml:space="preserve">
<style type="text/css">
	.st0{fill:#29166F;}
</style>
<g>
	<path class="st0" d="M25.6,51.3C11.5,51.3,0,39.8,0,25.6S11.5,0,25.6,0s25.6,11.5,25.6,25.6S39.8,51.3,25.6,51.3z M25.6,1.3
		C12.2,1.3,1.3,12.2,1.3,25.6S12.2,50,25.6,50S50,39.1,50,25.6S39.1,1.3,25.6,1.3z"/>
</g>
<g>
	<g>
		<path class="st0" d="M22.4,21.4c-0.2,0-0.4-0.1-0.5-0.3l-3.7-6.5l4.9,1.6c0.3,0.1,0.5,0.5,0.4,0.8c-0.1,0.3-0.5,0.5-0.8,0.4
			l-1.8-0.6l2.1,3.7c0.2,0.3,0.1,0.7-0.2,0.9C22.6,21.3,22.5,21.4,22.4,21.4z"/>
	</g>
	<g>
		<path class="st0" d="M25.2,20.9c-0.3,0-0.6-0.3-0.6-0.6s0.3-0.6,0.6-0.6l2.4,0l2-2.2l-2.8,0.9l-1.1-2.7l-0.8,2.9
			c-0.1,0.3-0.4,0.5-0.8,0.4c-0.3-0.1-0.5-0.4-0.4-0.8l1.9-6.3l2,5l6-2l-5.4,6.1L25.2,20.9C25.2,20.9,25.2,20.9,25.2,20.9z"/>
	</g>
	<g>
		<path class="st0" d="M17.9,32.3c-0.3,0-0.6-0.3-0.6-0.6v-4.6c0-3.1,1.9-5.8,4.8-6.9c0.3-0.1,0.7,0,0.8,0.4s0,0.7-0.4,0.8
			c-2.5,0.9-4,3.2-4,5.8v4.6C18.6,32,18.3,32.3,17.9,32.3z"/>
	</g>
	<g>
		<path class="st0" d="M34.4,38.2H16.9l-0.2-0.3c-1-1.8,0.7-4.3,0.7-4.4c0.2-0.3,0.6-0.4,0.9-0.2c0.3,0.2,0.4,0.6,0.2,0.9
			c-0.3,0.5-1,1.8-0.8,2.8h15.9c0.2-1-0.5-2.4-0.8-2.8L32.7,34v-6.9c0-3.5-2.8-6.2-6.4-6.2c-0.3,0-0.6-0.3-0.6-0.6s0.3-0.6,0.6-0.6
			c4.3,0,7.6,3.3,7.6,7.4v6.6c0.4,0.6,1.5,2.7,0.6,4.3L34.4,38.2z"/>
	</g>
</g>
</svg>
