<?xml version="1.0" encoding="utf-8"?>
<!-- Generator: Adobe Illustrator 23.0.6, SVG Export Plug-In . SVG Version: 6.00 Build 0)  -->
<svg version="1.1" id="Calque_1" xmlns="http://www.w3.org/2000/svg" xmlns:xlink="http://www.w3.org/1999/xlink" x="0px" y="0px"
	 viewBox="0 0 51.3 51.3" style="enable-background:new 0 0 51.3 51.3;" xml:space="preserve">
<style type="text/css">
	.st0{fill:#29166F;}
</style>
<g>
	<g>
		<path class="st0" d="M25.6,51.3C11.5,51.3,0,39.8,0,25.6S11.5,0,25.6,0s25.6,11.5,25.6,25.6S39.8,51.3,25.6,51.3z M25.6,1.3
			C12.2,1.3,1.3,12.2,1.3,25.6S12.2,50,25.6,50S50,39.1,50,25.6S39.1,1.3,25.6,1.3z"/>
	</g>
	<g>
		<g>
			<g>
				<g>
					<g>
						<path class="st0" d="M19.6,28.4c-0.3,0-0.6-0.3-0.6-0.6v-12c0-0.3,0.3-0.6,0.6-0.6s0.6,0.3,0.6,0.6v12
							C20.2,28.1,19.9,28.4,19.6,28.4z"/>
					</g>
					<g>
						<path class="st0" d="M22.6,28.4c-0.3,0-0.6-0.3-0.6-0.6v-12c0-0.3,0.3-0.6,0.6-0.6s0.6,0.3,0.6,0.6v12
							C23.2,28.1,23,28.4,22.6,28.4z"/>
					</g>
					<g>
						<path class="st0" d="M22.6,21.1h-3c-0.3,0-0.6-0.3-0.6-0.6s0.3-0.6,0.6-0.6h3c0.3,0,0.6,0.3,0.6,0.6S23,21.1,22.6,21.1z"/>
					</g>
					<g>
						<path class="st0" d="M22.6,23.5h-3c-0.3,0-0.6-0.3-0.6-0.6s0.3-0.6,0.6-0.6h3c0.3,0,0.6,0.3,0.6,0.6S23,23.5,22.6,23.5z"/>
					</g>
					<g>
						<path class="st0" d="M22.6,25.9h-3c-0.3,0-0.6-0.3-0.6-0.6s0.3-0.6,0.6-0.6h3c0.3,0,0.6,0.3,0.6,0.6S23,25.9,22.6,25.9z"/>
					</g>
				</g>
				<g>
					<path class="st0" d="M32.3,16.3h-4.8c-0.3,0-0.6-0.3-0.6-0.6s0.3-0.6,0.6-0.6h4.8c0.3,0,0.6,0.3,0.6,0.6S32.6,16.3,32.3,16.3z"
						/>
				</g>
				<g>
					<path class="st0" d="M34.2,30.2H17.1c-1,0-1.9-0.5-2.5-1.3c-1.1-1.5-1.7-3.3-1.7-5.1c0-1.8,0.6-3.6,1.7-5.1
						c0.6-0.8,1.5-1.3,2.5-1.3h1.3c0.3,0,0.5,0.2,0.6,0.5c0.1-0.3,0.3-0.5,0.6-0.5h14.6c1,0,1.9,0.5,2.5,1.3
						c1.1,1.5,1.7,3.3,1.7,5.1c0,1.8-0.6,3.6-1.7,5.1C36,29.7,35.1,30.2,34.2,30.2z M17.1,18.7c-0.6,0-1.1,0.3-1.4,0.7
						c-0.9,1.3-1.4,2.8-1.4,4.4c0,1.6,0.5,3.1,1.4,4.4c0.3,0.5,0.9,0.7,1.4,0.7h17.1c0.6,0,1.1-0.3,1.4-0.7c0.9-1.3,1.4-2.8,1.4-4.4
						c0-1.6-0.5-3.1-1.4-4.4c-0.3-0.5-0.9-0.7-1.4-0.7H19.6c-0.3,0-0.5-0.2-0.6-0.5c-0.1,0.3-0.3,0.5-0.6,0.5H17.1z"/>
				</g>
			</g>
			<g>
				<g>
					<path class="st0" d="M11.8,33.2c-0.3,0-0.6-0.3-0.6-0.6v-3.6c0-0.3,0.3-0.6,0.6-0.6s0.6,0.3,0.6,0.6v3.6
						C12.4,32.9,12.1,33.2,11.8,33.2z"/>
				</g>
				<g>
					<path class="st0" d="M32.3,36.2c-1.7,0-3-1.4-3-3c0-0.3,0-0.5,0.1-0.8c0.1-0.3,0.4-0.5,0.8-0.5c0.3,0.1,0.5,0.4,0.5,0.8
						c0,0.1-0.1,0.3-0.1,0.4c0,1,0.8,1.8,1.8,1.8s1.8-0.8,1.8-1.8c0-0.2,0-0.3-0.1-0.4c-0.1-0.3,0.1-0.7,0.4-0.8
						c0.3-0.1,0.7,0.1,0.8,0.4c0.1,0.2,0.1,0.5,0.1,0.8C35.3,34.8,33.9,36.2,32.3,36.2z"/>
				</g>
				<g>
					<path class="st0" d="M19,36.2c-1.7,0-3-1.4-3-3c0-0.3,0-0.5,0.1-0.8c0.1-0.3,0.4-0.5,0.8-0.4c0.3,0.1,0.5,0.4,0.4,0.8
						c0,0.1-0.1,0.3-0.1,0.4c0,1,0.8,1.8,1.8,1.8s1.8-0.8,1.8-1.8c0-0.2,0-0.3-0.1-0.4c-0.1-0.3,0.1-0.7,0.4-0.8
						c0.3-0.1,0.7,0.1,0.8,0.4c0.1,0.2,0.1,0.5,0.1,0.8C22,34.8,20.7,36.2,19,36.2z"/>
				</g>
				<g>
					<path class="st0" d="M39.5,31.4h-2.4c-0.3,0-0.6-0.3-0.6-0.6s0.3-0.6,0.6-0.6h2.4c0.3,0,0.6,0.3,0.6,0.6S39.8,31.4,39.5,31.4z"
						/>
				</g>
				<g>
					<path class="st0" d="M14.2,31.4h-2.4c-0.3,0-0.6-0.3-0.6-0.6s0.3-0.6,0.6-0.6h2.4c0.3,0,0.6,0.3,0.6,0.6S14.5,31.4,14.2,31.4z"
						/>
				</g>
				<g>
					<path class="st0" d="M37.7,33.2H13.6v-4.3h24.1V33.2z M14.8,31.9h21.6v-1.8H14.8V31.9z"/>
				</g>
				<g>
					<path class="st0" d="M39.5,33.2c-0.3,0-0.6-0.3-0.6-0.6v-3.6c0-0.3,0.3-0.6,0.6-0.6s0.6,0.3,0.6,0.6v3.6
						C40.1,32.9,39.8,33.2,39.5,33.2z"/>
				</g>
			</g>
		</g>
	</g>
</g>
</svg>
