<svg width="162" height="179" viewBox="0 0 162 179" fill="none" xmlns="http://www.w3.org/2000/svg">
<g clip-path="url(#clip0)">
<path d="M89.5 44.7H80.9V46.1H89.5V44.7Z" fill="#382E86"/>
<path d="M71 59.5H69.6V179.2H71V59.5Z" fill="#A6A5D1"/>
<path d="M92.3 59.5H90.9V179.2H92.3V59.5Z" fill="#A6A5D1"/>
<path d="M48.6 59.5H47.2V179.2H48.6V59.5Z" fill="#A6A5D1"/>
<path d="M113.6 59.5H112.2V179.2H113.6V59.5Z" fill="#A6A5D1"/>
<path d="M79.6 59.5H78.2V179.2H79.6V59.5Z" fill="#A6A5D1"/>
<path d="M100.9 59.5H99.5V179.2H100.9V59.5Z" fill="#A6A5D1"/>
<path d="M58.3 59.5H56.9V179.2H58.3V59.5Z" fill="#A6A5D1"/>
<path d="M123.3 59.5H121.9V179.2H123.3V59.5Z" fill="#A6A5D1"/>
<path d="M88.3 46.1H82.2V53.4H88.3V46.1Z" fill="#D7D5E8"/>
<path d="M89.5 50.7H80.9V179.2H89.5V50.7Z" fill="#A6A5D1"/>
<path d="M89.5 59.5H80.9V64.9H89.5V59.5Z" fill="#382E86"/>
<path d="M91.5 91.3H79V118.8H91.5V91.3Z" fill="#D7D5E8"/>
<path d="M91.5 91.3H79V105H91.5V91.3Z" fill="#5E519C"/>
<path d="M91.5 135.5H79V149H91.5V135.5Z" fill="#5E519C"/>
<path d="M89.5 52.7H80.9V54.1H89.5V52.7Z" fill="#382E86"/>
<path d="M87.2 48.8H89.2H89.5V49.1V53.1C89.5 53.3 89.4 53.4 89.2 53.4C89 53.4 88.9 53.3 88.9 53.1V49.3H87.4V53.1C87.4 53.3 87.3 53.4 87.1 53.4C86.9 53.4 86.8 53.3 86.8 53.1V49.3H85.3V53.1C85.3 53.3 85.2 53.4 85 53.4C84.8 53.4 84.7 53.3 84.7 53.1V49.3H83.2V53.1C83.2 53.3 83.1 53.4 82.9 53.4C82.7 53.4 82.6 53.3 82.6 53.1V49.3H81.1V53.1C81.1 53.3 81 53.4 80.8 53.4C80.6 53.4 80.5 53.3 80.5 53.1V49.1V48.8H80.8H82.8H84.8H87.2Z" fill="#382E86"/>
<path d="M120.3 179.8H118.8V88.2C118.8 86.7 117.6 85.5 116.1 85.5H110.9V84H116.1C118.4 84 120.3 85.9 120.3 88.2V179.8Z" fill="#5E519C"/>
<path d="M51.6 179.8H50.1V88.2C50.1 85.9 52 84 54.3 84H59.5V85.5H54.3C52.8 85.5 51.6 86.7 51.6 88.2V179.8Z" fill="#5E519C"/>
<path d="M113.3 81.3H110.9V88.1H113.3V81.3Z" fill="#382E86"/>
<path d="M59.6 81.3H57.2V88.1H59.6V81.3Z" fill="#382E86"/>
<path d="M67 46.1H60.9V53.4H67V46.1Z" fill="#D7D5E8"/>
<path d="M68.2 50.7H59.6V179.2H68.2V50.7Z" fill="#A6A5D1"/>
<path d="M68.2 59.5H59.6V64.9H68.2V59.5Z" fill="#382E86"/>
<path d="M70.2 91.3H57.7V118.8H70.2V91.3Z" fill="#D7D5E8"/>
<path d="M70.2 91.3H57.7V105H70.2V91.3Z" fill="#5E519C"/>
<path d="M70.2 135.5H57.7V163H70.2V135.5Z" fill="#D7D5E8"/>
<path d="M70.2 135.5H57.7V149H70.2V135.5Z" fill="#5E519C"/>
<path d="M68.2 44.7H59.6V46.1H68.2V44.7Z" fill="#382E86"/>
<path d="M68.2 52.7H59.6V54.1H68.2V52.7Z" fill="#382E86"/>
<path d="M65.9 48.8H67.9H68.2V49.1V53.1C68.2 53.3 68.1 53.4 67.9 53.4C67.7 53.4 67.6 53.3 67.6 53.1V49.3H66.1V53.1C66.1 53.3 66 53.4 65.8 53.4C65.6 53.4 65.5 53.3 65.5 53.1V49.3H64V53.1C64 53.3 63.9 53.4 63.7 53.4C63.5 53.4 63.4 53.3 63.4 53.1V49.3H61.9V53.1C61.9 53.3 61.8 53.4 61.6 53.4C61.4 53.4 61.3 53.3 61.3 53.1V49.3H59.8V53.1C59.8 53.3 59.7 53.4 59.5 53.4C59.3 53.4 59.2 53.3 59.2 53.1V49.1V48.8H59.5H61.5H63.5H65.9Z" fill="#382E86"/>
<path d="M109.6 46.1H103.5V53.4H109.6V46.1Z" fill="#D7D5E8"/>
<path d="M110.8 50.7H102.2V179.2H110.8V50.7Z" fill="#A6A5D1"/>
<path d="M110.8 59.5H102.2V64.9H110.8V59.5Z" fill="#382E86"/>
<path d="M112.8 91.3H100.3V118.8H112.8V91.3Z" fill="#D7D5E8"/>
<path d="M112.8 91.3H100.3V105H112.8V91.3Z" fill="#5E519C"/>
<path d="M112.8 135.5H100.3V163H112.8V135.5Z" fill="#D7D5E8"/>
<path d="M112.8 135.5H100.3V149H112.8V135.5Z" fill="#5E519C"/>
<path d="M110.8 44.7H102.2V46.1H110.8V44.7Z" fill="#382E86"/>
<path d="M110.8 52.7H102.2V54.1H110.8V52.7Z" fill="#382E86"/>
<path d="M108.5 48.8H110.5H110.8V49.1V53.1C110.8 53.3 110.7 53.4 110.5 53.4C110.3 53.4 110.2 53.3 110.2 53.1V49.3H108.8V53.1C108.8 53.3 108.7 53.4 108.5 53.4C108.3 53.4 108.2 53.3 108.2 53.1V49.3H106.8V53.1C106.8 53.3 106.7 53.4 106.5 53.4C106.3 53.4 106.2 53.3 106.2 53.1V49.3H104.8V53.1C104.8 53.3 104.7 53.4 104.5 53.4C104.3 53.4 104.2 53.3 104.2 53.1V49.3H102.8V53.1C102.8 53.3 102.7 53.4 102.5 53.4C102.3 53.4 102.2 53.3 102.2 53.1V49.1V48.8H102.5H104.5H106.5H108.5Z" fill="#382E86"/>
<path d="M115.9 118.3H115.3V109.7H97.8V118.3H97.2V109.2H115.9V118.3Z" fill="#382E86"/>
<path d="M115.4 118.2L106.5 109.8L97.6 118.2L97.2 117.8L106.3 109.3C106.4 109.2 106.6 109.2 106.7 109.3L115.8 117.8L115.4 118.2Z" fill="#382E86"/>
<path d="M115.9 127.1H115.3V118.5H97.8V127.1H97.2V118H115.9V127.1Z" fill="#382E86"/>
<path d="M115.4 127L106.5 118.6L97.6 127L97.2 126.6L106.3 118.1C106.4 118 106.6 118 106.7 118.1L115.8 126.6L115.4 127Z" fill="#382E86"/>
<path d="M115.9 135.9H115.3V127.4H97.8V135.9H97.2V126.8H115.9V135.9Z" fill="#382E86"/>
<path d="M115.4 135.8L106.5 127.4L97.6 135.8L97.2 135.4L106.3 126.9C106.4 126.8 106.6 126.8 106.7 126.9L115.8 135.4L115.4 135.8Z" fill="#382E86"/>
<path d="M115.9 144.8H115.3V136.2H97.8V144.8H97.2V135.6H115.9V144.8Z" fill="#382E86"/>
<path d="M115.4 144.7L106.5 136.3L97.6 144.7L97.2 144.3L106.3 135.8C106.4 135.7 106.6 135.7 106.7 135.8L115.8 144.3L115.4 144.7Z" fill="#382E86"/>
<path d="M115.9 153.6H115.3V145H97.8V153.6H97.2V144.5H115.9V153.6Z" fill="#382E86"/>
<path d="M115.4 153.5L106.5 145.1L97.6 153.5L97.2 153.1L106.3 144.6C106.4 144.5 106.6 144.5 106.7 144.6L115.8 153.1L115.4 153.5Z" fill="#382E86"/>
<path d="M115.9 162.4H115.3V153.9H97.8V162.4H97.2V153.3H115.9V162.4Z" fill="#382E86"/>
<path d="M115.4 162.3L106.5 153.9L97.6 162.3L97.2 161.9L106.3 153.4C106.4 153.3 106.6 153.3 106.7 153.4L115.8 161.9L115.4 162.3Z" fill="#382E86"/>
<path d="M115.9 171.2H115.3V162.7H97.8V171.2H97.2V162.1H115.9V171.2Z" fill="#382E86"/>
<path d="M115.4 171.2L106.5 162.8L97.6 171.2L97.2 170.8L106.3 162.3C106.4 162.2 106.6 162.2 106.7 162.3L115.8 170.8L115.4 171.2Z" fill="#382E86"/>
<path d="M115.9 180.1H115.3V171.5H97.8V180.1H97.2V171H115.9V180.1Z" fill="#382E86"/>
<path d="M115.4 180L106.5 171.6L97.6 180L97.2 179.6L106.3 171.1C106.4 171 106.6 171 106.7 171.1L115.8 179.6L115.4 180Z" fill="#382E86"/>
<path d="M73.3 118.3H72.7V109.7H55.2V118.3H54.6V109.2H73.3V118.3Z" fill="#382E86"/>
<path d="M55.1 118.2L54.7 117.8L63.8 109.3C63.9 109.2 64.1 109.2 64.2 109.3L73.3 117.8L72.9 118.2L64 109.8L55.1 118.2Z" fill="#382E86"/>
<path d="M73.3 127.1H72.7V118.5H55.2V127.1H54.6V118H73.3V127.1Z" fill="#382E86"/>
<path d="M55.1 127L54.7 126.6L63.8 118.1C63.9 118 64.1 118 64.2 118.1L73.3 126.6L72.9 127L64 118.6L55.1 127Z" fill="#382E86"/>
<path d="M73.3 135.9H72.7V127.4H55.2V135.9H54.6V126.8H73.3V135.9Z" fill="#382E86"/>
<path d="M55.1 135.8L54.7 135.4L63.8 126.9C63.9 126.8 64.1 126.8 64.2 126.9L73.3 135.4L72.9 135.8L64 127.4L55.1 135.8Z" fill="#382E86"/>
<path d="M73.3 144.8H72.7V136.2H55.2V144.8H54.6V135.6H73.3V144.8Z" fill="#382E86"/>
<path d="M55.1 144.7L54.7 144.3L63.8 135.8C63.9 135.7 64.1 135.7 64.2 135.8L73.3 144.3L72.9 144.7L64 136.3L55.1 144.7Z" fill="#382E86"/>
<path d="M73.3 153.6H72.7V145H55.2V153.6H54.6V144.5H73.3V153.6Z" fill="#382E86"/>
<path d="M55.1 153.5L54.7 153.1L63.8 144.6C63.9 144.5 64.1 144.5 64.2 144.6L73.3 153.1L72.9 153.5L64 145.1L55.1 153.5Z" fill="#382E86"/>
<path d="M73.3 162.4H72.7V153.9H55.2V162.4H54.6V153.3H73.3V162.4Z" fill="#382E86"/>
<path d="M55.1 162.3L54.7 161.9L63.8 153.4C63.9 153.3 64.1 153.3 64.2 153.4L73.3 161.9L72.9 162.3L64 153.9L55.1 162.3Z" fill="#382E86"/>
<path d="M73.3 171.2H72.7V162.7H55.2V171.2H54.6V162.1H73.3V171.2Z" fill="#382E86"/>
<path d="M55.1 171.2L54.7 170.8L63.8 162.3C63.9 162.2 64.1 162.2 64.2 162.3L73.3 170.8L72.9 171.2L64 162.8L55.1 171.2Z" fill="#382E86"/>
<path d="M73.3 180.1H72.7V171.5H55.2V180.1H54.6V171H73.3V180.1Z" fill="#382E86"/>
<path d="M55.1 180L54.7 179.6L63.8 171.1C63.9 171 64.1 171 64.2 171.1L73.3 179.6L72.9 180L64 171.6L55.1 180Z" fill="#382E86"/>
<path d="M124.9 118.3H124.4V109.7H106.8V118.3H106.3V109.2H124.9V118.3Z" fill="#A6A5D1"/>
<path d="M106.7 118.2L106.3 117.8L115.4 109.3C115.5 109.2 115.7 109.2 115.8 109.3L124.9 117.8L124.5 118.2L115.6 109.8L106.7 118.2Z" fill="#A6A5D1"/>
<path d="M124.9 127.1H124.4V118.5H106.8V127.1H106.3V118H124.9V127.1Z" fill="#A6A5D1"/>
<path d="M106.7 127L106.3 126.6L115.4 118.1C115.5 118 115.7 118 115.8 118.1L124.9 126.6L124.5 127L115.6 118.6L106.7 127Z" fill="#A6A5D1"/>
<path d="M124.9 135.9H124.4V127.4H106.8V135.9H106.3V126.8H124.9V135.9Z" fill="#A6A5D1"/>
<path d="M106.7 135.8L106.3 135.4L115.4 126.9C115.5 126.8 115.7 126.8 115.8 126.9L124.9 135.4L124.5 135.8L115.6 127.4L106.7 135.8Z" fill="#A6A5D1"/>
<path d="M124.9 144.8H124.4V136.2H106.8V144.8H106.3V135.6H124.9V144.8Z" fill="#A6A5D1"/>
<path d="M106.7 144.7L106.3 144.3L115.4 135.8C115.5 135.7 115.7 135.7 115.8 135.8L124.9 144.3L124.5 144.7L115.6 136.3L106.7 144.7Z" fill="#A6A5D1"/>
<path d="M124.9 153.6H124.4V145H106.8V153.6H106.3V144.5H124.9V153.6Z" fill="#A6A5D1"/>
<path d="M106.7 153.5L106.3 153.1L115.4 144.6C115.5 144.5 115.7 144.5 115.8 144.6L124.9 153.1L124.5 153.5L115.6 145.1L106.7 153.5Z" fill="#A6A5D1"/>
<path d="M124.9 162.4H124.4V153.9H106.8V162.4H106.3V153.3H124.9V162.4Z" fill="#A6A5D1"/>
<path d="M106.7 162.3L106.3 161.9L115.4 153.4C115.5 153.3 115.7 153.3 115.8 153.4L124.9 161.9L124.5 162.3L115.6 153.9L106.7 162.3Z" fill="#A6A5D1"/>
<path d="M124.9 171.2H124.4V162.7H106.8V171.2H106.3V162.1H124.9V171.2Z" fill="#A6A5D1"/>
<path d="M106.7 171.2L106.3 170.8L115.4 162.3C115.5 162.2 115.7 162.2 115.8 162.3L124.9 170.8L124.5 171.2L115.6 162.8L106.7 171.2Z" fill="#A6A5D1"/>
<path d="M124.9 180.1H124.4V171.5H106.8V180.1H106.3V171H124.9V180.1Z" fill="#A6A5D1"/>
<path d="M106.7 180L106.3 179.6L115.4 171.1C115.5 171 115.7 171 115.8 171.1L124.9 179.6L124.5 180L115.6 171.6L106.7 180Z" fill="#A6A5D1"/>
<path d="M64.2 118.3H63.6V109.7H46.1V118.3H45.5V109.2H64.2V118.3Z" fill="#A6A5D1"/>
<path d="M63.7 118.2L54.8 109.8L45.9 118.2L45.5 117.8L54.6 109.3C54.7 109.2 54.9 109.2 55 109.3L64.1 117.8L63.7 118.2Z" fill="#A6A5D1"/>
<path d="M64.2 127.1H63.6V118.5H46.1V127.1H45.5V118H64.2V127.1Z" fill="#A6A5D1"/>
<path d="M63.7 127L54.8 118.6L45.9 127L45.5 126.6L54.6 118.1C54.7 118 54.9 118 55 118.1L64.1 126.6L63.7 127Z" fill="#A6A5D1"/>
<path d="M64.2 135.9H63.6V127.4H46.1V135.9H45.5V126.8H64.2V135.9Z" fill="#A6A5D1"/>
<path d="M63.7 135.8L54.8 127.4L45.9 135.8L45.5 135.4L54.6 126.9C54.7 126.8 54.9 126.8 55 126.9L64.1 135.4L63.7 135.8Z" fill="#A6A5D1"/>
<path d="M64.2 144.8H63.6V136.2H46.1V144.8H45.5V135.6H64.2V144.8Z" fill="#A6A5D1"/>
<path d="M63.7 144.7L54.8 136.3L45.9 144.7L45.5 144.3L54.6 135.8C54.7 135.7 54.9 135.7 55 135.8L64.1 144.3L63.7 144.7Z" fill="#A6A5D1"/>
<path d="M64.2 153.6H63.6V145H46.1V153.6H45.5V144.5H64.2V153.6Z" fill="#A6A5D1"/>
<path d="M63.7 153.5L54.8 145.1L45.9 153.5L45.5 153.1L54.6 144.6C54.7 144.5 54.9 144.5 55 144.6L64.1 153.1L63.7 153.5Z" fill="#A6A5D1"/>
<path d="M64.2 162.4H63.6V153.9H46.1V162.4H45.5V153.3H64.2V162.4Z" fill="#A6A5D1"/>
<path d="M63.7 162.3L54.8 153.9L45.9 162.3L45.5 161.9L54.6 153.4C54.7 153.3 54.9 153.3 55 153.4L64.1 161.9L63.7 162.3Z" fill="#A6A5D1"/>
<path d="M64.2 171.2H63.6V162.7H46.1V171.2H45.5V162.1H64.2V171.2Z" fill="#A6A5D1"/>
<path d="M63.7 171.2L54.8 162.8L45.9 171.2L45.5 170.8L54.6 162.3C54.7 162.2 54.9 162.2 55 162.3L64.1 170.8L63.7 171.2Z" fill="#A6A5D1"/>
<path d="M64.2 180.1H63.6V171.5H46.1V180.1H45.5V171H64.2V180.1Z" fill="#A6A5D1"/>
<path d="M63.7 180L54.8 171.6L45.9 180L45.5 179.6L54.6 171.1C54.7 171 54.9 171 55 171.1L64.1 179.6L63.7 180Z" fill="#A6A5D1"/>
<path d="M28.4 74.3H27.8V65.2H37.2V65.7H28.4V74.3Z" fill="#A6A5D1"/>
<path d="M37.0119 65.3025L27.9194 73.88L28.3311 74.3164L37.4236 65.7389L37.0119 65.3025Z" fill="#A6A5D1"/>
<path d="M28.4 83.1H27.8V74H37.2V74.6H28.4V83.1Z" fill="#A6A5D1"/>
<path d="M37.0171 74.0916L27.9246 82.6691L28.3363 83.1055L37.4288 74.528L37.0171 74.0916Z" fill="#A6A5D1"/>
<path d="M28.4 92H27.8V82.8H37.2V83.4H28.4V92Z" fill="#A6A5D1"/>
<path d="M37.022 82.8812L27.9295 91.4587L28.3412 91.8951L37.4337 83.3176L37.022 82.8812Z" fill="#A6A5D1"/>
<path d="M28.4 100.8H27.8V91.7H37.2V92.2H28.4V100.8Z" fill="#A6A5D1"/>
<path d="M37.0103 91.8062L27.9178 100.384L28.3295 100.82L37.422 92.2426L37.0103 91.8062Z" fill="#A6A5D1"/>
<path d="M28.4 109.6H27.8V100.5H37.2V101.1H28.4V109.6Z" fill="#A6A5D1"/>
<path d="M37.0154 100.595L27.9229 109.173L28.3346 109.609L37.4271 101.032L37.0154 100.595Z" fill="#A6A5D1"/>
<path d="M28.4 118.4H27.8V109.3H37.2V109.9H28.4V118.4Z" fill="#A6A5D1"/>
<path d="M37.0205 109.385L27.928 117.962L28.3397 118.399L37.4322 109.821L37.0205 109.385Z" fill="#A6A5D1"/>
<path d="M28.4 127.3H27.8V118.2H37.2V118.7H28.4V127.3Z" fill="#A6A5D1"/>
<path d="M36.9567 118.101L27.8642 126.679L28.2759 127.115L37.3684 118.538L36.9567 118.101Z" fill="#A6A5D1"/>
<path d="M28.4 136.1H27.8V127H37.2V127.6H28.4V136.1Z" fill="#A6A5D1"/>
<path d="M37.0137 127.099L27.9212 135.676L28.3329 136.113L37.4254 127.535L37.0137 127.099Z" fill="#A6A5D1"/>
<path d="M37.5 74.3H36.9V65.7H28.1V65.2H37.5V74.3Z" fill="#A6A5D1"/>
<path d="M28.3424 65.1705L27.9305 65.6068L37.0205 74.1868L37.4324 73.7505L28.3424 65.1705Z" fill="#A6A5D1"/>
<path d="M37.5 83.1H36.9V74.6H28.1V74H37.5V83.1Z" fill="#A6A5D1"/>
<path d="M28.3487 73.9578L27.9369 74.3941L37.0269 82.9741L37.4387 82.5378L28.3487 73.9578Z" fill="#A6A5D1"/>
<path d="M37.5 92H36.9V83.4H28.1V82.8H37.5V92Z" fill="#A6A5D1"/>
<path d="M28.3625 82.8148L27.9507 83.2511L37.0407 91.8311L37.4525 91.3948L28.3625 82.8148Z" fill="#A6A5D1"/>
<path d="M37.5 100.8H36.9V92.2H28.1V91.7H37.5V100.8Z" fill="#A6A5D1"/>
<path d="M28.3401 91.6728L27.9282 92.1091L37.0182 100.689L37.4301 100.253L28.3401 91.6728Z" fill="#A6A5D1"/>
<path d="M37.5 109.6H36.9V101.1H28.1V100.5H37.5V109.6Z" fill="#A6A5D1"/>
<path d="M28.3459 100.46L27.934 100.897L37.024 109.477L37.4359 109.04L28.3459 100.46Z" fill="#A6A5D1"/>
<path d="M37.5 118.4H36.9V109.9H28.1V109.3H37.5V118.4Z" fill="#A6A5D1"/>
<path d="M28.3635 109.328L27.9516 109.765L37.0416 118.346L37.4535 117.909L28.3635 109.328Z" fill="#A6A5D1"/>
<path d="M37.5 127.3H36.9V118.7H28.1V118.2H37.5V127.3Z" fill="#A6A5D1"/>
<path d="M28.339 118.179L27.9271 118.615L37.0171 127.195L37.429 126.759L28.339 118.179Z" fill="#A6A5D1"/>
<path d="M37.5 136.1H36.9V127.6H28.1V127H37.5V136.1Z" fill="#A6A5D1"/>
<path d="M28.344 126.963L27.9321 127.399L37.0221 135.979L37.434 135.543L28.344 126.963Z" fill="#A6A5D1"/>
<path d="M28.4 144.9H27.8V135.8H37.2V136.4H28.4V144.9Z" fill="#A6A5D1"/>
<path d="M37.0186 135.888L27.9261 144.466L28.3378 144.902L37.4303 136.325L37.0186 135.888Z" fill="#A6A5D1"/>
<path d="M28.4 153.8H27.8V144.7H37.2V145.2H28.4V153.8Z" fill="#A6A5D1"/>
<path d="M36.9552 144.605L27.8627 153.182L28.2744 153.619L37.3669 145.041L36.9552 144.605Z" fill="#A6A5D1"/>
<path d="M28.4 162.6H27.8V153.5H37.2V154H28.4V162.6Z" fill="#A6A5D1"/>
<path d="M37.0118 153.603L27.9193 162.181L28.331 162.617L37.4235 154.04L37.0118 153.603Z" fill="#A6A5D1"/>
<path d="M28.4 171.4H27.8V162.3H37.2V162.9H28.4V171.4Z" fill="#A6A5D1"/>
<path d="M37.0171 162.392L27.9246 170.969L28.3363 171.406L37.4288 162.828L37.0171 162.392Z" fill="#A6A5D1"/>
<path d="M28.4 180.3H27.8V171.1H37.2V171.7H28.4V180.3Z" fill="#A6A5D1"/>
<path d="M37.0221 171.181L27.9296 179.759L28.3414 180.195L37.4339 171.618L37.0221 171.181Z" fill="#A6A5D1"/>
<path d="M37.5 144.9H36.9V136.4H28.1V135.8H37.5V144.9Z" fill="#A6A5D1"/>
<path d="M28.3594 135.823L27.9476 136.259L37.0376 144.839L37.4494 144.403L28.3594 135.823Z" fill="#A6A5D1"/>
<path d="M37.5 153.8H36.9V145.2H28.1V144.7H37.5V153.8Z" fill="#A6A5D1"/>
<path d="M28.4126 144.766L28.0007 145.202L37.0907 153.783L37.5026 153.347L28.4126 144.766Z" fill="#A6A5D1"/>
<path d="M37.5 162.6H36.9V154H28.1V153.5H37.5V162.6Z" fill="#A6A5D1"/>
<path d="M28.3424 153.469L27.9306 153.905L37.0206 162.485L37.4324 162.049L28.3424 153.469Z" fill="#A6A5D1"/>
<path d="M37.5 171.4H36.9V162.9H28.1V162.3H37.5V171.4Z" fill="#A6A5D1"/>
<path d="M28.347 162.251L27.9352 162.688L37.0252 171.268L37.437 170.831L28.347 162.251Z" fill="#A6A5D1"/>
<path d="M37.5 180.3H36.9V171.7H28.1V171.1H37.5V180.3Z" fill="#A6A5D1"/>
<path d="M28.3629 171.112L27.9511 171.549L37.0411 180.129L37.4529 179.692L28.3629 171.112Z" fill="#A6A5D1"/>
<path d="M133.6 74.3H133V65.2H142.3V65.7H133.6V74.3Z" fill="#A6A5D1"/>
<path d="M142.226 65.3089L133.133 73.8864L133.545 74.3229L142.638 65.7454L142.226 65.3089Z" fill="#A6A5D1"/>
<path d="M133.6 83.1H133V74H142.3V74.6H133.6V83.1Z" fill="#A6A5D1"/>
<path d="M142.162 74.0252L133.07 82.6027L133.482 83.0391L142.574 74.4616L142.162 74.0252Z" fill="#A6A5D1"/>
<path d="M133.6 92H133V82.8H142.3V83.4H133.6V92Z" fill="#A6A5D1"/>
<path d="M142.167 82.8147L133.075 91.3922L133.487 91.8287L142.579 83.2512L142.167 82.8147Z" fill="#A6A5D1"/>
<path d="M133.6 100.8H133V91.7H142.3V92.2H133.6V100.8Z" fill="#A6A5D1"/>
<path d="M142.224 91.8124L133.132 100.39L133.543 100.826L142.636 92.2488L142.224 91.8124Z" fill="#A6A5D1"/>
<path d="M133.6 109.6H133V100.5H142.3V101.1H133.6V109.6Z" fill="#A6A5D1"/>
<path d="M142.229 100.602L133.137 109.179L133.548 109.616L142.641 101.038L142.229 100.602Z" fill="#A6A5D1"/>
<path d="M133.6 118.4H133V109.3H142.3V109.9H133.6V118.4Z" fill="#A6A5D1"/>
<path d="M142.166 109.318L133.073 117.896L133.485 118.332L142.577 109.755L142.166 109.318Z" fill="#A6A5D1"/>
<path d="M133.6 127.3H133V118.2H142.3V118.7H133.6V127.3Z" fill="#A6A5D1"/>
<path d="M142.171 118.108L133.078 126.685L133.49 127.122L142.582 118.544L142.171 118.108Z" fill="#A6A5D1"/>
<path d="M133.6 136.1H133V127H142.3V127.6H133.6V136.1Z" fill="#A6A5D1"/>
<path d="M142.228 127.105L133.135 135.683L133.547 136.119L142.639 127.542L142.228 127.105Z" fill="#A6A5D1"/>
<path d="M142.6 74.3H142.1V65.7H133.3V65.2H142.6V74.3Z" fill="#A6A5D1"/>
<path d="M133.483 65.2282L133.071 65.6645L142.161 74.2445L142.573 73.8082L133.483 65.2282Z" fill="#A6A5D1"/>
<path d="M142.6 83.1H142.1V74.6H133.3V74H142.6V83.1Z" fill="#A6A5D1"/>
<path d="M133.42 73.9468L133.008 74.3831L142.098 82.9631L142.51 82.5268L133.42 73.9468Z" fill="#A6A5D1"/>
<path d="M142.6 92H142.1V83.4H133.3V82.8H142.6V92Z" fill="#A6A5D1"/>
<path d="M133.476 82.9469L133.064 83.3832L142.154 91.9632L142.566 91.5269L133.476 82.9469Z" fill="#A6A5D1"/>
<path d="M142.6 100.8H142.1V92.2H133.3V91.7H142.6V100.8Z" fill="#A6A5D1"/>
<path d="M133.479 91.7307L133.067 92.167L142.157 100.747L142.569 100.311L133.479 91.7307Z" fill="#A6A5D1"/>
<path d="M142.6 109.6H142.1V101.1H133.3V100.5H142.6V109.6Z" fill="#A6A5D1"/>
<path d="M133.487 100.518L133.075 100.954L142.165 109.534L142.577 109.098L133.487 100.518Z" fill="#A6A5D1"/>
<path d="M142.6 118.4H142.1V109.9H133.3V109.3H142.6V118.4Z" fill="#A6A5D1"/>
<path d="M133.557 109.347L133.145 109.784L142.235 118.365L142.647 117.929L133.557 109.347Z" fill="#A6A5D1"/>
<path d="M142.6 127.3H142.1V118.7H133.3V118.2H142.6V127.3Z" fill="#A6A5D1"/>
<path d="M133.48 118.237L133.068 118.673L142.158 127.253L142.57 126.817L133.48 118.237Z" fill="#A6A5D1"/>
<path d="M142.6 136.1H142.1V127.6H133.3V127H142.6V136.1Z" fill="#A6A5D1"/>
<path d="M133.484 127.021L133.072 127.457L142.162 136.037L142.574 135.601L133.484 127.021Z" fill="#A6A5D1"/>
<path d="M133.6 144.9H133V135.8H142.3V136.4H133.6V144.9Z" fill="#A6A5D1"/>
<path d="M142.164 135.822L133.072 144.399L133.483 144.836L142.576 136.258L142.164 135.822Z" fill="#A6A5D1"/>
<path d="M133.6 153.8H133V144.7H142.3V145.2H133.6V153.8Z" fill="#A6A5D1"/>
<path d="M142.169 144.611L133.077 153.188L133.488 153.625L142.581 145.047L142.169 144.611Z" fill="#A6A5D1"/>
<path d="M133.6 162.6H133V153.5H142.3V154H133.6V162.6Z" fill="#A6A5D1"/>
<path d="M142.226 153.61L133.133 162.187L133.545 162.624L142.637 154.046L142.226 153.61Z" fill="#A6A5D1"/>
<path d="M133.6 171.4H133V162.3H142.3V162.9H133.6V171.4Z" fill="#A6A5D1"/>
<path d="M142.162 162.325L133.07 170.903L133.482 171.339L142.574 162.762L142.162 162.325Z" fill="#A6A5D1"/>
<path d="M133.6 180.3H133V171.1H142.3V171.7H133.6V180.3Z" fill="#A6A5D1"/>
<path d="M142.168 171.115L133.075 179.692L133.487 180.129L142.579 171.551L142.168 171.115Z" fill="#A6A5D1"/>
<path d="M142.6 144.9H142.1V136.4H133.3V135.8H142.6V144.9Z" fill="#A6A5D1"/>
<path d="M133.543 135.841L133.132 136.277L142.222 144.857L142.633 144.421L133.543 135.841Z" fill="#A6A5D1"/>
<path d="M142.6 153.8H142.1V145.2H133.3V144.7H142.6V153.8Z" fill="#A6A5D1"/>
<path d="M133.491 144.756L133.079 145.192L142.169 153.773L142.581 153.337L133.491 144.756Z" fill="#A6A5D1"/>
<path d="M142.6 162.6H142.1V154H133.3V153.5H142.6V162.6Z" fill="#A6A5D1"/>
<path d="M133.483 153.527L133.071 153.963L142.161 162.543L142.573 162.107L133.483 153.527Z" fill="#A6A5D1"/>
<path d="M142.6 171.4H142.1V162.9H133.3V162.3H142.6V171.4Z" fill="#A6A5D1"/>
<path d="M133.486 162.309L133.074 162.745L142.164 171.325L142.576 170.889L133.486 162.309Z" fill="#A6A5D1"/>
<path d="M142.6 180.3H142.1V171.7H133.3V171.1H142.6V180.3Z" fill="#A6A5D1"/>
<path d="M133.477 171.244L133.065 171.681L142.155 180.261L142.567 179.824L133.477 171.244Z" fill="#A6A5D1"/>
<path d="M92 113.8H91.3V77.9C91.3 77.1 91 76.4 90.5 75.9C90 75.4 89.3 75.1 88.5 75.1C86.9 75.1 85.7 76.4 85.7 77.9V88.2H85V77.9C85 75.9 86.6 74.4 88.5 74.4C89.4 74.4 90.3 74.8 91 75.4C91.7 76.1 92 77 92 77.9V113.8Z" fill="#5E519C"/>
<path d="M79.2 113.8H78.5V77.9C78.5 77 78.9 76.1 79.5 75.4C80.2 74.7 81.1 74.4 82 74.4C83.9 74.4 85.5 76 85.5 77.9V88.2H84.8V77.9C84.8 76.3 83.5 75.1 82 75.1C81.2 75.1 80.5 75.4 80 75.9C79.5 76.4 79.2 77.1 79.2 77.9V113.8Z" fill="#5E519C"/>
<path d="M98.3 95.6H72.1V154.7H98.3V95.6Z" fill="#382E86"/>
<path d="M44.6 46.1H38.5V53.4H44.6V46.1Z" fill="#D7D5E8"/>
<path d="M45.8 50.7H37.2V179.2H45.8V50.7Z" fill="#A6A5D1"/>
<path d="M45.8 59.5H37.2V64.9H45.8V59.5Z" fill="#382E86"/>
<path d="M47.7 91.3H35.2V118.8H47.7V91.3Z" fill="#D7D5E8"/>
<path d="M47.7 91.3H35.2V105H47.7V91.3Z" fill="#5E519C"/>
<path d="M47.7 135.5H35.2V163H47.7V135.5Z" fill="#D7D5E8"/>
<path d="M47.7 135.5H35.2V149H47.7V135.5Z" fill="#5E519C"/>
<path d="M45.8 44.7H37.2V46.1H45.8V44.7Z" fill="#382E86"/>
<path d="M45.8 52.7H37.2V54.1H45.8V52.7Z" fill="#382E86"/>
<path d="M43.5 48.8H45.5H45.8V49.1V53.1C45.8 53.3 45.7 53.4 45.5 53.4C45.3 53.4 45.2 53.3 45.2 53.1V49.3H43.8V53.1C43.8 53.3 43.7 53.4 43.5 53.4C43.3 53.4 43.2 53.3 43.2 53.1V49.3H41.8V53.1C41.8 53.3 41.7 53.4 41.5 53.4C41.3 53.4 41.2 53.3 41.2 53.1V49.3H39.8V53.1C39.8 53.3 39.7 53.4 39.5 53.4C39.3 53.4 39.2 53.3 39.2 53.1V49.3H37.7V53.1C37.7 53.3 37.6 53.4 37.4 53.4C37.2 53.4 37.1 53.3 37.1 53.1V49.1V48.8H37.4H39.4H41.4H43.5Z" fill="#382E86"/>
<path d="M132 46.1H125.9V53.4H132V46.1Z" fill="#D7D5E8"/>
<path d="M133.2 50.7H124.6V179.2H133.2V50.7Z" fill="#A6A5D1"/>
<path d="M133.2 59.5H124.6V64.9H133.2V59.5Z" fill="#382E86"/>
<path d="M135.2 91.3H122.7V118.8H135.2V91.3Z" fill="#D7D5E8"/>
<path d="M135.2 91.3H122.7V105H135.2V91.3Z" fill="#5E519C"/>
<path d="M135.2 135.5H122.7V163H135.2V135.5Z" fill="#D7D5E8"/>
<path d="M135.2 135.5H122.7V149H135.2V135.5Z" fill="#5E519C"/>
<path d="M133.2 44.7H124.6V46.1H133.2V44.7Z" fill="#382E86"/>
<path d="M133.2 52.7H124.6V54.1H133.2V52.7Z" fill="#382E86"/>
<path d="M131 48.8H133H133.3V49.1V53.1C133.3 53.3 133.2 53.4 133 53.4C132.8 53.4 132.7 53.3 132.7 53.1V49.3H131.2V53.1C131.2 53.3 131.1 53.4 130.9 53.4C130.7 53.4 130.6 53.3 130.6 53.1V49.3H129.1V53.1C129.1 53.3 129 53.4 128.8 53.4C128.6 53.4 128.5 53.3 128.5 53.1V49.3H127V53.1C127 53.3 126.9 53.4 126.7 53.4C126.5 53.4 126.4 53.3 126.4 53.1V49.3H124.9V53.1C124.9 53.3 124.8 53.4 124.6 53.4C124.4 53.4 124.3 53.3 124.3 53.1V49.1V48.8H124.6H126.6H128.6H131Z" fill="#382E86"/>
<path d="M85.2 172.4H44.9C42.6 172.4 40.7 170.5 40.7 168.2V163H42.2V168.2C42.2 169.7 43.4 170.9 44.9 170.9H85.2V172.4V172.4Z" fill="#5E519C"/>
<path d="M125.5 172.4H85.2V170.9H125.5C127 170.9 128.2 169.7 128.2 168.2V163H129.7V168.2C129.7 170.5 127.8 172.4 125.5 172.4Z" fill="#5E519C"/>
<path d="M28.1 147.6H16.1V179.8H28.1V147.6Z" fill="#A6A5D1"/>
<path d="M154.3 147.6H142.3V179.8H154.3V147.6Z" fill="#A6A5D1"/>
<path d="M19.4 175.4C19.3 175.4 19.2 175.3 19.2 175.2V140.8C19.2 140.7 19.3 140.6 19.4 140.6C19.5 140.6 19.6 140.7 19.6 140.8V175.2C19.6 175.3 19.5 175.4 19.4 175.4Z" fill="#5E519C"/>
<path d="M22.1 175.4C22 175.4 21.9 175.3 21.9 175.2V140.8C21.9 140.7 22 140.6 22.1 140.6C22.2 140.6 22.3 140.7 22.3 140.8V175.2C22.4 175.3 22.3 175.4 22.1 175.4Z" fill="#5E519C"/>
<path d="M24.9 175.4C24.8 175.4 24.7 175.3 24.7 175.2V140.8C24.7 140.7 24.8 140.6 24.9 140.6C25 140.6 25.1 140.7 25.1 140.8V175.2C25.1 175.3 25 175.4 24.9 175.4Z" fill="#5E519C"/>
<path d="M145.6 175.4C145.5 175.4 145.4 175.3 145.4 175.2V140.8C145.4 140.7 145.5 140.6 145.6 140.6C145.7 140.6 145.8 140.7 145.8 140.8V175.2C145.8 175.3 145.7 175.4 145.6 175.4Z" fill="#5E519C"/>
<path d="M148.3 175.4C148.2 175.4 148.1 175.3 148.1 175.2V140.8C148.1 140.7 148.2 140.6 148.3 140.6C148.4 140.6 148.5 140.7 148.5 140.8V175.2C148.6 175.3 148.5 175.4 148.3 175.4Z" fill="#5E519C"/>
<path d="M151.1 175.4C151 175.4 150.9 175.3 150.9 175.2V140.8C150.9 140.7 151 140.6 151.1 140.6C151.2 140.6 151.3 140.7 151.3 140.8V175.2C151.3 175.3 151.2 175.4 151.1 175.4Z" fill="#5E519C"/>
<path fill-rule="evenodd" clip-rule="evenodd" d="M72.1 154.7H98.3C85.1 167.9 85.3 167.9 72.1 154.7Z" fill="#5E519C"/>
<path d="M85.9 179.2H84.5V124.9C84.5 123.6 83.4 122.5 82.1 122.5H72.4C70.3 122.5 68.6 120.8 68.6 118.7V90.7C68.6 89.8 69 88.9 69.6 88.2C70.3 87.5 71.2 87.2 72.1 87.2C74 87.2 75.6 88.8 75.6 90.7V95.2H74.2V90.7C74.2 89.5 73.3 88.6 72.1 88.6C71.5 88.6 71 88.8 70.6 89.2C70.2 89.6 70 90.1 70 90.7V118.8C70 120.1 71.1 121.2 72.4 121.2H82.1C84.2 121.2 85.9 122.9 85.9 125V179.2Z" fill="#A6A5D1"/>
<path d="M85.9 172.4H84.5V125C84.5 122.9 86.2 121.2 88.3 121.2H98C99.3 121.2 100.4 120.1 100.4 118.8V90.7C100.4 90.1 100.2 89.6 99.8 89.2C99.4 88.8 98.9 88.6 98.3 88.6C97.1 88.6 96.2 89.5 96.2 90.7V95.2H94.8V90.7C94.8 88.8 96.4 87.2 98.3 87.2C99.2 87.2 100.1 87.6 100.8 88.2C101.5 88.8 101.8 89.8 101.8 90.7V118.8C101.8 120.9 100.1 122.6 98 122.6H88.3C87 122.6 85.9 123.7 85.9 125V172.4Z" fill="#A6A5D1"/>
<path fill-rule="evenodd" clip-rule="evenodd" d="M72.1 95.6H98.3L85.2 89.7L72.1 95.6Z" fill="#5E519C"/>
<path d="M88.6 88.2H82.1V91.3H88.6V88.2Z" fill="#382E86"/>
<path d="M80.9 108.7H72.2V110.1H80.9V108.7Z" fill="#A6A5D1"/>
<path d="M78.5 104.8H80.5H80.8V105.1V109.2C80.8 109.4 80.7 109.5 80.5 109.5C80.3 109.5 80.2 109.4 80.2 109.2V105.4H78.8V109.2C78.8 109.4 78.7 109.5 78.5 109.5C78.3 109.5 78.2 109.4 78.2 109.2V105.4H76.8V109.2C76.8 109.4 76.7 109.5 76.5 109.5C76.3 109.5 76.2 109.4 76.2 109.2V105.4H74.8V109.2C74.8 109.4 74.7 109.5 74.5 109.5C74.3 109.5 74.2 109.4 74.2 109.2V105.4H72.7V109.2C72.7 109.4 72.6 109.5 72.4 109.5C72.2 109.5 72.1 109.4 72.1 109.2V105.1V104.8H72.4H74.4H76.4H78.5Z" fill="#A6A5D1"/>
<path d="M89.6 108.7H80.9V110.1H89.6V108.7Z" fill="#A6A5D1"/>
<path d="M87.3 104.8H89.3H89.6V105.1V109.2C89.6 109.4 89.5 109.5 89.3 109.5C89.1 109.5 89 109.4 89 109.2V105.4H87.5V109.2C87.5 109.4 87.4 109.5 87.2 109.5C87 109.5 86.9 109.4 86.9 109.2V105.4H85.4V109.2C85.4 109.4 85.3 109.5 85.1 109.5C84.9 109.5 84.8 109.4 84.8 109.2V105.4H83.3V109.2C83.3 109.4 83.2 109.5 83 109.5C82.8 109.5 82.7 109.4 82.7 109.2V105.4H81.2V109.2C81.2 109.4 81.1 109.5 80.9 109.5C80.7 109.5 80.6 109.4 80.6 109.2V105.1V104.8H80.9H82.9H84.9H87.3Z" fill="#A6A5D1"/>
<path d="M98.3 108.7H89.6V110.1H98.3V108.7Z" fill="#A6A5D1"/>
<path d="M96 104.8H98H98.3V105.1V109.2C98.3 109.4 98.2 109.5 98 109.5C97.8 109.5 97.7 109.4 97.7 109.2V105.4H96.2V109.2C96.2 109.4 96.1 109.5 95.9 109.5C95.7 109.5 95.6 109.4 95.6 109.2V105.4H94.1V109.2C94.1 109.4 94 109.5 93.8 109.5C93.6 109.5 93.5 109.4 93.5 109.2V105.4H92V109.2C92 109.4 91.9 109.5 91.7 109.5C91.5 109.5 91.4 109.4 91.4 109.2V105.4H89.9V109.2C89.9 109.4 89.8 109.5 89.6 109.5C89.4 109.5 89.3 109.4 89.3 109.2V105.1V104.8H89.6H91.6H93.6H96Z" fill="#A6A5D1"/>
<path d="M8.7 12.9H0V33.2H8.7V12.9Z" fill="#E1171D"/>
<path d="M21.7129 20H20.6055V14.498H17.7886V20H16.6812V13.6016H21.7129V20ZM24.1694 17.6226V20H23.0576V13.6016H25.5054C26.2202 13.6016 26.7871 13.7876 27.2061 14.1597C27.6279 14.5317 27.8389 15.0239 27.8389 15.6362C27.8389 16.2632 27.6323 16.751 27.2192 17.0996C26.8091 17.4482 26.2334 17.6226 25.4922 17.6226H24.1694ZM24.1694 16.7305H25.5054C25.9009 16.7305 26.2026 16.6382 26.4106 16.4536C26.6187 16.2661 26.7227 15.9966 26.7227 15.645C26.7227 15.2993 26.6172 15.0239 26.4062 14.8188C26.1953 14.6108 25.9053 14.5039 25.5361 14.498H24.1694V16.7305ZM33.9209 16.9678C33.9209 17.5947 33.8125 18.1455 33.5957 18.6201C33.3789 19.0918 33.0684 19.4551 32.6641 19.71C32.2627 19.9619 31.7998 20.0879 31.2754 20.0879C30.7568 20.0879 30.2939 19.9619 29.8867 19.71C29.4824 19.4551 29.1689 19.0933 28.9463 18.6245C28.7266 18.1558 28.6152 17.6152 28.6123 17.0029V16.6426C28.6123 16.0186 28.7222 15.4678 28.9419 14.9902C29.1646 14.5127 29.4766 14.1479 29.8779 13.896C30.2822 13.6411 30.7451 13.5137 31.2666 13.5137C31.7881 13.5137 32.2495 13.6396 32.6509 13.8916C33.0552 14.1406 33.3672 14.501 33.5869 14.9727C33.8066 15.4414 33.918 15.9878 33.9209 16.6118V16.9678ZM32.8091 16.6338C32.8091 15.9248 32.6743 15.3813 32.4048 15.0034C32.1382 14.6255 31.7588 14.4365 31.2666 14.4365C30.7861 14.4365 30.4097 14.6255 30.1372 15.0034C29.8677 15.3784 29.73 15.9102 29.7241 16.5986V16.9678C29.7241 17.6709 29.8604 18.2144 30.1328 18.5981C30.4082 18.9819 30.7891 19.1738 31.2754 19.1738C31.7676 19.1738 32.1455 18.9863 32.4092 18.6113C32.6758 18.2363 32.8091 17.6885 32.8091 16.9678V16.6338ZM40.0908 20H38.9834V14.498H36.1665V20H35.0591V13.6016H40.0908V20ZM45.3555 13.6016H46.4673V20H45.3555V15.4429L42.5474 20H41.4355V13.6016H42.5474V18.1631L45.3555 13.6016ZM52.9097 13.6016V20H51.8022V14.498H49.8423L49.728 16.9722C49.6841 17.7456 49.5889 18.3462 49.4424 18.7739C49.2988 19.1987 49.0894 19.5093 48.814 19.7056C48.5386 19.9019 48.1694 20 47.7065 20H47.4253V19.1123L47.6011 19.0991C47.856 19.0757 48.0522 18.9863 48.1899 18.8311C48.3306 18.6758 48.436 18.4414 48.5063 18.1279C48.5796 17.8115 48.6309 17.3472 48.6602 16.7349L48.7832 13.6016H52.9097ZM57.9897 17.1436H55.3618V19.1123H58.4336V20H54.25V13.6016H58.4028V14.498H55.3618V16.2646H57.9897V17.1436ZM64.4189 20H63.3115V17.1567H60.4507V20H59.3389V13.6016H60.4507V16.2646H63.3115V13.6016H64.4189V20ZM71.7183 21.5732H70.6636V20H66.4492V21.5732H65.377L65.3418 19.1123H65.856C66.1108 18.8662 66.3145 18.5088 66.4668 18.04C66.6191 17.5684 66.7173 17.0352 66.7612 16.4404L66.9282 13.6016H70.9624V19.1123H71.7754L71.7183 21.5732ZM67.1128 19.1123H69.855V14.498H67.9873L67.8818 16.2998C67.8027 17.5039 67.5464 18.4414 67.1128 19.1123ZM73.7837 20H72.6763V13.6016H73.7837V20ZM82.4541 20H81.3467V14.498H78.5298V20H77.4224V13.6016H82.4541V20ZM88.9053 16.9678C88.9053 17.5947 88.7969 18.1455 88.5801 18.6201C88.3633 19.0918 88.0527 19.4551 87.6484 19.71C87.2471 19.9619 86.7842 20.0879 86.2598 20.0879C85.7412 20.0879 85.2783 19.9619 84.8711 19.71C84.4668 19.4551 84.1533 19.0933 83.9307 18.6245C83.7109 18.1558 83.5996 17.6152 83.5967 17.0029V16.6426C83.5967 16.0186 83.7065 15.4678 83.9263 14.9902C84.1489 14.5127 84.4609 14.1479 84.8623 13.896C85.2666 13.6411 85.7295 13.5137 86.251 13.5137C86.7725 13.5137 87.2339 13.6396 87.6353 13.8916C88.0396 14.1406 88.3516 14.501 88.5713 14.9727C88.791 15.4414 88.9023 15.9878 88.9053 16.6118V16.9678ZM87.7935 16.6338C87.7935 15.9248 87.6587 15.3813 87.3892 15.0034C87.1226 14.6255 86.7432 14.4365 86.251 14.4365C85.7705 14.4365 85.394 14.6255 85.1216 15.0034C84.8521 15.3784 84.7144 15.9102 84.7085 16.5986V16.9678C84.7085 17.6709 84.8447 18.2144 85.1172 18.5981C85.3926 18.9819 85.7734 19.1738 86.2598 19.1738C86.752 19.1738 87.1299 18.9863 87.3936 18.6113C87.6602 18.2363 87.7935 17.6885 87.7935 16.9678V16.6338ZM94.9038 13.6016V20H93.7964V14.498H91.8364L91.7222 16.9722C91.6782 17.7456 91.583 18.3462 91.4365 18.7739C91.293 19.1987 91.0835 19.5093 90.8081 19.7056C90.5327 19.9019 90.1636 20 89.7007 20H89.4194V19.1123L89.5952 19.0991C89.8501 19.0757 90.0464 18.9863 90.1841 18.8311C90.3247 18.6758 90.4302 18.4414 90.5005 18.1279C90.5737 17.8115 90.625 17.3472 90.6543 16.7349L90.7773 13.6016H94.9038ZM100.164 13.6016H101.276V20H100.164V15.4429L97.356 20H96.2441V13.6016H97.356V18.1631L100.164 13.6016ZM104.049 13.6016L105.895 18.5059L107.736 13.6016H109.173V20H108.065V17.8906L108.175 15.0693L106.286 20H105.49L103.605 15.0737L103.715 17.8906V20H102.607V13.6016H104.049ZM114.231 17.1436H111.603V19.1123H114.675V20H110.491V13.6016H114.644V14.498H111.603V16.2646H114.231V17.1436ZM116.692 17.6226V20H115.58V13.6016H118.028C118.743 13.6016 119.31 13.7876 119.729 14.1597C120.15 14.5317 120.361 15.0239 120.361 15.6362C120.361 16.2632 120.155 16.751 119.742 17.0996C119.332 17.4482 118.756 17.6226 118.015 17.6226H116.692ZM116.692 16.7305H118.028C118.423 16.7305 118.725 16.6382 118.933 16.4536C119.141 16.2661 119.245 15.9966 119.245 15.645C119.245 15.2993 119.14 15.0239 118.929 14.8188C118.718 14.6108 118.428 14.5039 118.059 14.498H116.692V16.7305ZM125.727 13.6016V20H124.62V14.498H122.66L122.545 16.9722C122.501 17.7456 122.406 18.3462 122.26 18.7739C122.116 19.1987 121.907 19.5093 121.631 19.7056C121.356 19.9019 120.987 20 120.524 20H120.243V19.1123L120.418 19.0991C120.673 19.0757 120.87 18.9863 121.007 18.8311C121.148 18.6758 121.253 18.4414 121.324 18.1279C121.397 17.8115 121.448 17.3472 121.478 16.7349L121.601 13.6016H125.727ZM130.807 17.1436H128.179V19.1123H131.251V20H127.067V13.6016H131.22V14.498H128.179V16.2646H130.807V17.1436ZM134.459 16.9458L135.742 13.6016H136.977L134.749 18.9102L134.547 19.3101C134.254 19.8315 133.779 20.0923 133.123 20.0923L132.666 20.0659L132.675 19.187C132.745 19.1987 132.87 19.2046 133.048 19.2046C133.365 19.2046 133.587 19.0698 133.716 18.8003L133.945 18.2598L131.756 13.6016H132.969L134.459 16.9458ZM18.5444 28.2578H17.7886V31H16.6812V24.6016H17.7886V27.291H18.3994L20.2803 24.6016H21.6426L19.4453 27.6646L21.8359 31H20.5L18.5444 28.2578ZM22.1831 32.5732H21.1152V30.2046H22.1831V32.5732ZM28.1377 27.9678C28.1377 28.5947 28.0293 29.1455 27.8125 29.6201C27.5957 30.0918 27.2852 30.4551 26.8809 30.71C26.4795 30.9619 26.0166 31.0879 25.4922 31.0879C24.9736 31.0879 24.5107 30.9619 24.1035 30.71C23.6992 30.4551 23.3857 30.0933 23.1631 29.6245C22.9434 29.1558 22.832 28.6152 22.8291 28.0029V27.6426C22.8291 27.0186 22.939 26.4678 23.1587 25.9902C23.3813 25.5127 23.6934 25.1479 24.0947 24.896C24.499 24.6411 24.9619 24.5137 25.4834 24.5137C26.0049 24.5137 26.4663 24.6396 26.8677 24.8916C27.272 25.1406 27.584 25.501 27.8037 25.9727C28.0234 26.4414 28.1348 26.9878 28.1377 27.6118V27.9678ZM27.0259 27.6338C27.0259 26.9248 26.8911 26.3813 26.6216 26.0034C26.355 25.6255 25.9756 25.4365 25.4834 25.4365C25.0029 25.4365 24.6265 25.6255 24.354 26.0034C24.0845 26.3784 23.9468 26.9102 23.9409 27.5986V27.9678C23.9409 28.6709 24.0771 29.2144 24.3496 29.5981C24.625 29.9819 25.0059 30.1738 25.4922 30.1738C25.9844 30.1738 26.3623 29.9863 26.626 29.6113C26.8926 29.2363 27.0259 28.6885 27.0259 27.9678V27.6338ZM34.3252 31H33.2178V28.1567H30.3569V31H29.2451V24.6016H30.3569V27.2646H33.2178V24.6016H34.3252V31ZM41.6245 32.5732H40.5698V31H36.3555V32.5732H35.2832L35.248 30.1123H35.7622C36.0171 29.8662 36.2207 29.5088 36.373 29.04C36.5254 28.5684 36.6235 28.0352 36.6675 27.4404L36.8345 24.6016H40.8687V30.1123H41.6816L41.6245 32.5732ZM37.019 30.1123H39.7612V25.498H37.8936L37.7881 27.2998C37.709 28.5039 37.4526 29.4414 37.019 30.1123ZM43.6592 27.0493H44.9688C45.4375 27.0493 45.8462 27.1299 46.1948 27.291C46.5435 27.4521 46.8086 27.6807 46.9902 27.9766C47.1719 28.2725 47.2627 28.6152 47.2627 29.0049C47.2627 29.6025 47.0591 30.083 46.6519 30.4463C46.2476 30.8096 45.6953 30.9941 44.9951 31H42.5474V24.6016H43.6592V27.0493ZM49.0029 31H47.8955V24.6016H49.0029V31ZM43.6592 27.9414V30.1123H44.9644C45.3394 30.1123 45.6309 30.0112 45.8389 29.8091C46.0498 29.604 46.1553 29.333 46.1553 28.9961C46.1553 28.6738 46.0527 28.4189 45.8477 28.2314C45.6426 28.0439 45.3584 27.9473 44.9951 27.9414H43.6592ZM51.4771 28.6226V31H50.3652V24.6016H52.813C53.5278 24.6016 54.0947 24.7876 54.5137 25.1597C54.9355 25.5317 55.1465 26.0239 55.1465 26.6362C55.1465 27.2632 54.9399 27.751 54.5269 28.0996C54.1167 28.4482 53.541 28.6226 52.7998 28.6226H51.4771ZM51.4771 27.7305H52.813C53.2085 27.7305 53.5103 27.6382 53.7183 27.4536C53.9263 27.2661 54.0303 26.9966 54.0303 26.645C54.0303 26.2993 53.9248 26.0239 53.7139 25.8188C53.5029 25.6108 53.2129 25.5039 52.8438 25.498H51.4771V27.7305ZM58.3413 28.0513H57.2603V31H56.1528V28.0513H55.4014V27.3042H56.1528V24.6016H60.2134V25.498H57.2603V27.3042H58.3413V28.0513ZM62.2832 27.0493H63.5928C64.0615 27.0493 64.4702 27.1299 64.8188 27.291C65.1675 27.4521 65.4326 27.6807 65.6143 27.9766C65.7959 28.2725 65.8867 28.6152 65.8867 29.0049C65.8867 29.6025 65.6831 30.083 65.2759 30.4463C64.8716 30.8096 64.3193 30.9941 63.6191 31H61.1714V24.6016H62.2832V27.0493ZM67.627 31H66.5195V24.6016H67.627V31ZM62.2832 27.9414V30.1123H63.5884C63.9634 30.1123 64.2549 30.0112 64.4629 29.8091C64.6738 29.604 64.7793 29.333 64.7793 28.9961C64.7793 28.6738 64.6768 28.4189 64.4717 28.2314C64.2666 28.0439 63.9824 27.9473 63.6191 27.9414H62.2832ZM73.8716 28.917C73.8071 29.5996 73.5552 30.1328 73.1157 30.5166C72.6763 30.8975 72.0918 31.0879 71.3623 31.0879C70.8525 31.0879 70.4028 30.9678 70.0132 30.7275C69.6265 30.4844 69.3276 30.1401 69.1167 29.6948C68.9058 29.2495 68.7959 28.7324 68.7871 28.1436V27.5459C68.7871 26.9424 68.894 26.4106 69.1079 25.9507C69.3218 25.4907 69.6279 25.1362 70.0264 24.8872C70.4277 24.6382 70.8906 24.5137 71.415 24.5137C72.1211 24.5137 72.6895 24.7056 73.1201 25.0894C73.5508 25.4731 73.8013 26.0151 73.8716 26.7153H72.7642C72.7114 26.2554 72.5767 25.9243 72.3599 25.7222C72.146 25.5171 71.8311 25.4146 71.415 25.4146C70.9316 25.4146 70.5596 25.5918 70.2988 25.9463C70.041 26.2979 69.9092 26.8149 69.9033 27.4976V28.0645C69.9033 28.7559 70.0264 29.2832 70.2725 29.6465C70.5215 30.0098 70.8848 30.1914 71.3623 30.1914C71.7988 30.1914 72.127 30.0933 72.3467 29.897C72.5664 29.7007 72.7056 29.374 72.7642 28.917H73.8716ZM76.0117 27.0493H77.3213C77.79 27.0493 78.1987 27.1299 78.5474 27.291C78.896 27.4521 79.1611 27.6807 79.3428 27.9766C79.5244 28.2725 79.6152 28.6152 79.6152 29.0049C79.6152 29.6025 79.4116 30.083 79.0044 30.4463C78.6001 30.8096 78.0479 30.9941 77.3477 31H74.8999V24.6016H76.0117V27.0493ZM81.3555 31H80.248V24.6016H81.3555V31ZM76.0117 27.9414V30.1123H77.3169C77.6919 30.1123 77.9834 30.0112 78.1914 29.8091C78.4023 29.604 78.5078 29.333 78.5078 28.9961C78.5078 28.6738 78.4053 28.4189 78.2002 28.2314C77.9951 28.0439 77.7109 27.9473 77.3477 27.9414H76.0117Z" fill="#3D2777"/>
</g>
<defs>
<clipPath id="clip0">
<rect width="161.5" height="179" fill="white"/>
</clipPath>
</defs>
</svg>
