<svg width="165" height="120" viewBox="0 0 165 120" fill="none" xmlns="http://www.w3.org/2000/svg">
<g clip-path="url(#clip0)">
<path fill-rule="evenodd" clip-rule="evenodd" d="M84.6 35.1H79.2V39.5L84.6 44.2V35.1Z" fill="#006EFF"/>
<path d="M97.1 35.1H94.6V46H97.1V35.1Z" fill="#006EFF"/>
<path d="M98.8 46.8H75.9V48H98.8V46.8Z" fill="#006EFF"/>
<path d="M80 39.4H74.1V51.1H80V39.4Z" fill="#696C6D"/>
<path fill-rule="evenodd" clip-rule="evenodd" d="M95.2 32.2L114.1 47.5H35.1L16.1 32.2H95.2Z" fill="#00508C"/>
<path fill-rule="evenodd" clip-rule="evenodd" d="M88.5 48.4L70.4 33.7C70.2 33.6 70.2 33.3 70.3 33.1C70.4 32.9 70.7 32.9 70.9 33L89.1 47.7C89.3 47.8 89.3 48.1 89.2 48.3C89 48.5 88.7 48.5 88.5 48.4Z" fill="#006EFF"/>
<path fill-rule="evenodd" clip-rule="evenodd" d="M92.5 48.4L74.3 33.7C74.1 33.6 74.1 33.3 74.2 33.1C74.3 32.9 74.6 32.9 74.8 33L93 47.7C93.2 47.8 93.2 48.1 93.1 48.3C92.9 48.5 92.6 48.5 92.5 48.4Z" fill="#006EFF"/>
<path fill-rule="evenodd" clip-rule="evenodd" d="M96.4 48.4L78.2 33.7C78 33.6 78 33.3 78.1 33.1C78.2 32.9 78.5 32.9 78.7 33L96.9 47.7C97.1 47.8 97.1 48.1 97 48.3C96.8 48.5 96.6 48.5 96.4 48.4Z" fill="#006EFF"/>
<path fill-rule="evenodd" clip-rule="evenodd" d="M100.3 48.4L82.1 33.7C81.9 33.6 81.9 33.3 82 33.1C82.1 32.9 82.4 32.9 82.6 33L100.8 47.8C101 47.9 101 48.2 100.9 48.4C100.8 48.5 100.5 48.5 100.3 48.4Z" fill="#006EFF"/>
<path fill-rule="evenodd" clip-rule="evenodd" d="M104.3 48.4L86.1 33.7C85.9 33.6 85.9 33.3 86 33.1C86.1 32.9 86.4 32.9 86.6 33L104.8 47.8C105 47.9 105 48.2 104.9 48.4C104.7 48.5 104.4 48.5 104.3 48.4Z" fill="#006EFF"/>
<path fill-rule="evenodd" clip-rule="evenodd" d="M108.2 48.4L90 33.7C89.8 33.6 89.8 33.3 89.9 33.1C90 32.9 90.3 32.9 90.5 33L108.7 47.7C108.9 47.8 108.9 48.1 108.8 48.3C108.6 48.5 108.4 48.5 108.2 48.4Z" fill="#006EFF"/>
<path fill-rule="evenodd" clip-rule="evenodd" d="M112.1 48.4L93.9 33.7C93.7 33.6 93.7 33.3 93.8 33.1C93.9 32.9 94.2 32.9 94.4 33L112.6 47.7C112.8 47.8 112.8 48.1 112.7 48.3C112.6 48.5 112.3 48.5 112.1 48.4Z" fill="#006EFF"/>
<path fill-rule="evenodd" clip-rule="evenodd" d="M64.9 48.4L46.7 33.7C46.5 33.6 46.5 33.3 46.6 33.1C46.7 32.9 47 32.9 47.2 33L65.4 47.7C65.6 47.8 65.6 48.1 65.5 48.3C65.3 48.5 65.1 48.5 64.9 48.4Z" fill="#006EFF"/>
<path fill-rule="evenodd" clip-rule="evenodd" d="M64.9 45.2L50.6 33.7C50.4 33.6 50.4 33.3 50.5 33.1C50.6 32.9 50.9 32.9 51.1 33L65.3 44.5C65.5 44.6 65.5 44.9 65.4 45.1C65.3 45.3 65 45.3 64.9 45.2Z" fill="#006EFF"/>
<path fill-rule="evenodd" clip-rule="evenodd" d="M67.6 44.2L54.6 33.7C54.4 33.6 54.4 33.3 54.5 33.1C54.6 32.9 54.9 32.9 55.1 33L68.1 43.5C68.3 43.6 68.3 43.9 68.2 44.1C68 44.3 67.7 44.4 67.6 44.2Z" fill="#006EFF"/>
<path fill-rule="evenodd" clip-rule="evenodd" d="M69.4 42.5L58.5 33.7C58.3 33.6 58.3 33.3 58.4 33.1C58.5 32.9 58.8 32.9 59 33L69.9 41.8C70.1 41.9 70.1 42.2 70 42.4C69.8 42.6 69.5 42.6 69.4 42.5Z" fill="#006EFF"/>
<path fill-rule="evenodd" clip-rule="evenodd" d="M69.4 39.3L62.4 33.7C62.2 33.6 62.2 33.3 62.3 33.1C62.4 32.9 62.7 32.9 62.9 33L69.9 38.6C70.1 38.7 70.1 39 70 39.2C69.8 39.4 69.5 39.4 69.4 39.3Z" fill="#006EFF"/>
<path fill-rule="evenodd" clip-rule="evenodd" d="M70.5 37L66.3 33.6C66.1 33.5 66.1 33.2 66.2 33C66.3 32.8 66.6 32.8 66.8 32.9L71 36.3C71.2 36.4 71.2 36.7 71.1 36.9C70.9 37.1 70.7 37.2 70.5 37Z" fill="#3C494F"/>
<path fill-rule="evenodd" clip-rule="evenodd" d="M40.7 48.4L22.5 33.7C22.3 33.6 22.3 33.3 22.4 33.1C22.5 32.9 22.8 32.9 23 33L41.2 47.7C41.4 47.8 41.4 48.1 41.3 48.3C41.1 48.5 40.9 48.5 40.7 48.4Z" fill="#006EFF"/>
<path fill-rule="evenodd" clip-rule="evenodd" d="M40.7 45.2L26.5 33.7C26.3 33.6 26.3 33.3 26.4 33.1C26.5 32.9 26.8 32.9 27 33L41.2 44.5C41.4 44.6 41.4 44.9 41.3 45.1C41.1 45.3 40.9 45.3 40.7 45.2Z" fill="#006EFF"/>
<path fill-rule="evenodd" clip-rule="evenodd" d="M43.4 44.2L30.4 33.7C30.2 33.6 30.2 33.3 30.3 33.1C30.4 32.9 30.7 32.9 30.9 33L43.9 43.5C44.1 43.6 44.1 43.9 44 44.1C43.8 44.3 43.6 44.4 43.4 44.2Z" fill="#006EFF"/>
<path fill-rule="evenodd" clip-rule="evenodd" d="M45.2 42.5L34.3 33.7C34.1 33.6 34.1 33.3 34.2 33.1C34.3 32.9 34.6 32.9 34.8 33L45.7 41.8C45.9 41.9 45.9 42.2 45.8 42.4C45.6 42.6 45.4 42.6 45.2 42.5Z" fill="#006EFF"/>
<path fill-rule="evenodd" clip-rule="evenodd" d="M45.2 39.3L38.2 33.7C38 33.6 38 33.3 38.1 33.1C38.2 32.9 38.5 32.9 38.7 33L45.7 38.6C45.9 38.7 45.9 39 45.8 39.2C45.6 39.4 45.4 39.4 45.2 39.3Z" fill="#006EFF"/>
<path fill-rule="evenodd" clip-rule="evenodd" d="M46.3 37L42.1 33.6C41.9 33.5 41.9 33.2 42 33C42.1 32.8 42.4 32.8 42.6 32.9L46.8 36.3C47 36.4 47 36.7 46.9 36.9C46.7 37.1 46.5 37.2 46.3 37Z" fill="#006EFF"/>
<path d="M114.1 47.5H82.9V119.8H114.1V47.5Z" fill="#006EFF"/>
<path fill-rule="evenodd" clip-rule="evenodd" d="M67.1 32.2L86 47.5H82.9L63.9 32.2H67.1Z" fill="#006EFF"/>
<path fill-rule="evenodd" clip-rule="evenodd" d="M43.2 32.2L62.1 47.5H59L40 32.2H43.2Z" fill="#006EFF"/>
<path fill-rule="evenodd" clip-rule="evenodd" d="M19.3 32.2L38.2 47.5H35.1L16.1 32.2H19.3Z" fill="#006EFF"/>
<path fill-rule="evenodd" clip-rule="evenodd" d="M63.9 32.2L59 47.5L40 32.2L35.1 47.5L16.1 32.2V121.5H82.9V47.5L63.9 32.2Z" fill="#006EFF"/>
<path d="M82.8 50.8H16.1V53.2H82.8V50.8Z" fill="#8A86BB"/>
<path d="M114.1 50.8H82.9V53.2H114.1V50.8Z" fill="#006EFF"/>
<path d="M108.9 77.5H88.2V119.8H108.9V77.5Z" fill="#8680B4"/>
<path d="M108.9 77.5H88.2V79.6H108.9V77.5Z" fill="#006EFF"/>
<path fill-rule="evenodd" clip-rule="evenodd" d="M109 77.5L107.1 79.6V119.8H109V77.5Z" fill="#006EFF"/>
<path fill-rule="evenodd" clip-rule="evenodd" d="M101.9 111.6V112.3H88.2H88.1V111.6H85.7V112.3H72V111.6H69.7V113.2L70.4 113.8H103.5L104.3 113.2V111.6H101.9Z" fill="#00508C"/>
<path fill-rule="evenodd" clip-rule="evenodd" d="M99.2 111.7V114.1L97.7 115C97.5 115.1 97.5 115.3 97.6 115.5C97.7 115.7 97.9 115.7 98.1 115.6L100.5 114.2V111.7H99.2Z" fill="#006EFF"/>
<path fill-rule="evenodd" clip-rule="evenodd" d="M90.5 111.7V114.1L89 115C88.8 115.1 88.8 115.3 88.9 115.5C89 115.7 89.2 115.7 89.4 115.6L91.8 114.2V111.7H90.5V111.7Z" fill="#006EFF"/>
<path fill-rule="evenodd" clip-rule="evenodd" d="M81.9 111.7V114.1L80.4 115C80.2 115.1 80.2 115.3 80.3 115.5C80.4 115.7 80.6 115.7 80.8 115.6L83.2 114.2V111.7H81.9Z" fill="#006EFF"/>
<path fill-rule="evenodd" clip-rule="evenodd" d="M137.4 112.2C137.4 111.9 137.2 111.7 136.9 111.7H132.4C132.1 111.7 131.9 111.9 131.9 112.2H137.4Z" fill="#006EFF"/>
<path fill-rule="evenodd" clip-rule="evenodd" d="M130.6 110.6C130.4 110.7 130.2 110.9 130.2 111.1H137.4V110.7C137.4 110.4 137.2 110.2 136.9 110.2H133.1C133 110.2 131.2 110.5 130.6 110.6Z" fill="#00508C"/>
<path fill-rule="evenodd" clip-rule="evenodd" d="M133.1 111.1C133.1 111.4 133.3 111.6 133.6 111.6H135.2C135.5 111.6 135.7 111.4 135.7 111.1H133.1Z" fill="#00508C"/>
<path d="M124.5 113H122.8V113.8H124.5V113Z" fill="#00508C"/>
<path d="M150.2 112.2H125.5V116.6H150.2V112.2Z" fill="#00508C"/>
<path fill-rule="evenodd" clip-rule="evenodd" d="M162.8 113.9H158.2V113.1H163.5L162.8 113.9Z" fill="#00508C"/>
<path fill-rule="evenodd" clip-rule="evenodd" d="M158.8 116.3L154.4 116.5H150.1V113.1L148.9 112.1V110.8H158.8V116.3Z" fill="#00508C"/>
<path fill-rule="evenodd" clip-rule="evenodd" d="M143.1 112.2H134.1C133.5 112.2 133.1 112.7 133.1 113.2V116.4C133.1 117 133.6 117.4 134.1 117.4H143.1C143.7 117.4 144.1 116.9 144.1 116.4V113.2C144.1 112.6 143.7 112.2 143.1 112.2Z" fill="#006EFF"/>
<path d="M134.9 111.9H134.4V117.6H134.9V111.9Z" fill="#006EFF"/>
<path d="M138.8 111.9H138.3V117.6H138.8V111.9Z" fill="#006EFF"/>
<path d="M142.8 111.9H142.3V117.6H142.8V111.9Z" fill="#006EFF"/>
<path fill-rule="evenodd" clip-rule="evenodd" d="M122.8 112.1V113.8C123.1 113.8 123.3 113.6 123.3 113.3V112.6C123.3 112.3 123.1 112.1 122.8 112.1Z" fill="#006EFF"/>
<path fill-rule="evenodd" clip-rule="evenodd" d="M116.4 117.4H119.5C119.5 117 119.2 116.7 118.8 116.7H117.1C116.7 116.8 116.4 117.1 116.4 117.4Z" fill="#006EFF"/>
<path fill-rule="evenodd" clip-rule="evenodd" d="M156.3 119.3C154.5 120.3 152.2 119.7 151.2 117.9C150.2 116.1 150.8 113.8 152.6 112.8C154.4 111.8 156.7 112.4 157.7 114.2C158.7 115.9 158.1 118.3 156.3 119.3Z" fill="#006EFF"/>
<path fill-rule="evenodd" clip-rule="evenodd" d="M154.4 114.1C154.1 114.1 153.7 114.2 153.4 114.4C152.5 114.9 152.1 116.1 152.7 117.1C153.1 117.7 153.7 118.1 154.4 118.1C154.7 118.1 155.1 118 155.4 117.8C156.3 117.3 156.7 116.1 156.1 115.1C155.8 114.4 155.1 114.1 154.4 114.1ZM154.4 119C153.4 119 152.4 118.5 151.9 117.5C151.1 116.1 151.6 114.3 153 113.5C153.5 113.2 154 113.1 154.5 113.1C155.5 113.1 156.5 113.6 157 114.6C157.8 116 157.3 117.8 155.9 118.6C155.4 118.8 154.9 119 154.4 119Z" fill="#00508C"/>
<path fill-rule="evenodd" clip-rule="evenodd" d="M156.1 115.1C155.6 114.2 154.4 113.9 153.5 114.4C152.6 114.9 152.3 116.1 152.8 117C153.3 117.9 154.5 118.2 155.4 117.7C156.3 117.1 156.6 116 156.1 115.1Z" fill="#006EFF"/>
<path fill-rule="evenodd" clip-rule="evenodd" d="M155.4 115.5C155.1 115 154.4 114.8 153.9 115.1C153.4 115.4 153.2 116.1 153.5 116.6C153.8 117.1 154.5 117.3 155 117C155.5 116.7 155.7 116 155.4 115.5Z" fill="#006EFF"/>
<path fill-rule="evenodd" clip-rule="evenodd" d="M153.8 114.9C154.1 114.7 154.3 114.4 154.2 114.2C154 114.2 153.7 114.3 153.5 114.4C153.3 114.5 153.1 114.7 152.9 114.9C153.1 115.1 153.5 115.1 153.8 114.9Z" fill="#00508C"/>
<path fill-rule="evenodd" clip-rule="evenodd" d="M155.1 117.2C154.8 117.4 154.6 117.7 154.7 117.9C154.9 117.9 155.2 117.8 155.4 117.7C155.6 117.6 155.8 117.4 156 117.2C155.7 117 155.4 117 155.1 117.2Z" fill="#00508C"/>
<path fill-rule="evenodd" clip-rule="evenodd" d="M155.6 114.5C155.4 114.7 155.4 115 155.6 115.4C155.8 115.7 156.1 115.9 156.3 115.8C156.3 115.6 156.2 115.3 156.1 115.1C155.9 114.9 155.7 114.7 155.6 114.5Z" fill="#00508C"/>
<path fill-rule="evenodd" clip-rule="evenodd" d="M153.3 116.7C153.1 116.4 152.8 116.2 152.6 116.3C152.6 116.5 152.7 116.8 152.8 117C152.9 117.2 153.1 117.4 153.3 117.6C153.5 117.3 153.5 117 153.3 116.7Z" fill="#00508C"/>
<path fill-rule="evenodd" clip-rule="evenodd" d="M155.6 118C154.5 118.6 153.2 118.3 152.5 117.2C151.9 116.1 152.2 114.8 153.3 114.1C154.4 113.5 155.7 113.8 156.4 114.9C157 116 156.6 117.4 155.6 118ZM153.5 114.4C152.6 114.9 152.3 116 152.8 116.9C153.3 117.8 154.4 118.1 155.3 117.6C156.2 117.1 156.5 116 156 115.1C155.5 114.2 154.4 113.9 153.5 114.4Z" fill="#006EFF"/>
<path fill-rule="evenodd" clip-rule="evenodd" d="M128.8 112.4C126.8 111.9 124.7 113.1 124.2 115.1C123.7 117.1 124.9 119.2 126.9 119.7C128.9 120.2 131 119 131.5 117C132 115 130.8 112.9 128.8 112.4Z" fill="#006EFF"/>
<path fill-rule="evenodd" clip-rule="evenodd" d="M127.8 114.1C126.9 114.1 126.2 114.7 125.9 115.5C125.6 116.5 126.2 117.6 127.3 117.9C127.5 117.9 127.6 118 127.8 118C128.7 118 129.4 117.4 129.7 116.6C130 115.6 129.4 114.5 128.3 114.2C128.1 114.1 128 114.1 127.8 114.1ZM127.8 119C127.5 119 127.3 119 127 118.9C125.4 118.5 124.5 116.9 124.9 115.3C125.2 114 126.4 113.1 127.7 113.1C128 113.1 128.2 113.1 128.5 113.2C130.1 113.6 131 115.2 130.6 116.8C130.3 118.1 129.1 119 127.8 119Z" fill="#00508C"/>
<path fill-rule="evenodd" clip-rule="evenodd" d="M127.8 117.9C127.6 117.9 127.5 117.9 127.3 117.8C126.3 117.5 125.7 116.5 126 115.5C126.2 114.7 127 114.1 127.8 114.1C128 114.1 128.1 114.1 128.3 114.2C129.3 114.5 129.9 115.5 129.6 116.5C129.4 117.4 128.6 117.9 127.8 117.9Z" fill="#006EFF"/>
<path fill-rule="evenodd" clip-rule="evenodd" d="M128.1 115C127.5 114.8 126.9 115.2 126.7 115.8C126.5 116.4 126.9 117 127.5 117.2C128.1 117.4 128.7 117 128.9 116.4C129 115.7 128.7 115.1 128.1 115Z" fill="#006EFF"/>
<path fill-rule="evenodd" clip-rule="evenodd" d="M127.5 114.2C127.5 114.5 127.8 114.7 128.1 114.8C128.4 114.9 128.8 114.8 128.9 114.6C128.7 114.4 128.5 114.3 128.2 114.3C128 114.2 127.8 114.1 127.5 114.2Z" fill="#00508C"/>
<path fill-rule="evenodd" clip-rule="evenodd" d="M127.5 117.3C127.2 117.2 126.8 117.3 126.7 117.5C126.9 117.7 127.1 117.8 127.4 117.8C127.7 117.9 127.9 117.9 128.2 117.8C128 117.6 127.8 117.4 127.5 117.3Z" fill="#00508C"/>
<path fill-rule="evenodd" clip-rule="evenodd" d="M129.6 115.8C129.3 115.8 129.1 116.1 129 116.4C128.9 116.7 129 117.1 129.2 117.2C129.4 117 129.5 116.8 129.5 116.5C129.7 116.3 129.7 116 129.6 115.8Z" fill="#00508C"/>
<path fill-rule="evenodd" clip-rule="evenodd" d="M126.3 114.9C126.1 115.1 126 115.3 126 115.6C125.9 115.9 125.9 116.1 126 116.4C126.3 116.4 126.5 116.1 126.6 115.8C126.6 115.4 126.5 115 126.3 114.9Z" fill="#00508C"/>
<path fill-rule="evenodd" clip-rule="evenodd" d="M128.4 113.9C127.2 113.6 126 114.3 125.7 115.5C125.4 116.7 126.1 117.9 127.3 118.2C128.5 118.5 129.7 117.8 130 116.6C130.3 115.4 129.6 114.2 128.4 113.9ZM127.3 117.8C126.3 117.5 125.7 116.5 126 115.5C126.3 114.5 127.3 113.9 128.3 114.2C129.3 114.5 129.9 115.5 129.6 116.5C129.3 117.5 128.3 118.1 127.3 117.8Z" fill="#006EFF"/>
<path fill-rule="evenodd" clip-rule="evenodd" d="M162.8 113.9H158.7V117.5H162.8C163.2 117.5 163.5 117.2 163.5 116.8V114.7C163.5 114.2 163.2 113.9 162.8 113.9Z" fill="#006EFF"/>
<path fill-rule="evenodd" clip-rule="evenodd" d="M163.5 110.2V107.3L162.2 99.3L163 98.8L162.6 96.1C162.5 95.3 161.8 94.6 161 94.6L152.5 94.2L147.9 93C147.1 92.8 146.5 93.3 146.5 94V110.6H154.4C156.1 110.6 157.5 111.7 158.5 112.9H163.5C163.8 112.9 164 112.7 164 112.4V110.5C164 110.4 163.8 110.2 163.5 110.2Z" fill="#00508C"/>
<path fill-rule="evenodd" clip-rule="evenodd" d="M160.7 104.5L160.1 100.7C160 100.1 159.5 99.7 158.9 99.7H156.2C155.6 99.7 155.1 100.2 155.1 100.8V103.7C155.1 104.3 155.6 104.8 156.2 104.9L159.7 105.4C160 105.4 160.3 105.4 160.5 105.2C160.6 105.1 160.7 104.8 160.7 104.5Z" fill="#006EFF"/>
<path fill-rule="evenodd" clip-rule="evenodd" d="M162.5 100.6L162.4 99.9L162.5 100.6Z" fill="#5B9AAD"/>
<path fill-rule="evenodd" clip-rule="evenodd" d="M156.3 104.9H156.2C155.6 104.8 155.1 104.3 155.1 103.7C155.1 104.3 155.6 104.8 156.2 104.9H156.3Z" fill="#F5A071"/>
<path fill-rule="evenodd" clip-rule="evenodd" d="M157.9 105.2L157 105.1L157.9 105.2Z" fill="#F5A071"/>
<path fill-rule="evenodd" clip-rule="evenodd" d="M159.8 105.5C159.7 105.5 159.7 105.5 159.6 105.5L158.3 105.3L159.6 105.5C159.7 105.5 159.8 105.5 159.8 105.5C160 105.5 160.2 105.4 160.4 105.3C160.6 105.2 160.6 104.9 160.6 104.7C160.6 104.9 160.5 105.1 160.4 105.3C160.3 105.4 160.1 105.5 159.8 105.5Z" fill="#F5A071"/>
<path fill-rule="evenodd" clip-rule="evenodd" d="M161.6 115.1H159.6C159.5 114.7 159.4 114.3 159.2 113.9H162.1V114.7C162 114.9 161.8 115.1 161.6 115.1Z" fill="#006EFF"/>
<path fill-rule="evenodd" clip-rule="evenodd" d="M161.6 117H159.6V116C159.6 115.9 159.6 115.7 159.6 115.6H161.6C161.8 115.6 162 115.8 162 116V116.5C162 116.8 161.8 117 161.6 117Z" fill="#006EFF"/>
<path fill-rule="evenodd" clip-rule="evenodd" d="M162 116.6H158.8C158.8 116.8 159 117 159.2 117H161.5C161.8 117 162 116.8 162 116.6Z" fill="#006EFF"/>
<path d="M154.2 110.8H148.9V111.6H154.2V110.8Z" fill="#00508C"/>
<path fill-rule="evenodd" clip-rule="evenodd" d="M160.9 99.9H163.3L163.1 98.8H160.7L160.9 99.9Z" fill="#006EFF"/>
<path fill-rule="evenodd" clip-rule="evenodd" d="M163 116.4H163.5V114.7H163C162.7 114.7 162.5 114.9 162.5 115.2V115.9C162.5 116.2 162.8 116.4 163 116.4Z" fill="#006EFF"/>
<path fill-rule="evenodd" clip-rule="evenodd" d="M159.6 117.5H158.6V116C158.6 113.7 156.7 111.8 154.4 111.8C152.1 111.8 150.2 113.7 150.2 116V117.5H149.2V116C149.2 113.1 151.5 110.8 154.4 110.8C157.3 110.8 159.6 113.1 159.6 116V117.5Z" fill="#006EFF"/>
<path fill-rule="evenodd" clip-rule="evenodd" d="M159.2 117V116C159.2 113.4 157.1 111.3 154.5 111.3C151.9 111.3 149.8 113.4 149.8 116V117H149.3V117.5H150.2V116C150.2 113.7 152.1 111.8 154.4 111.8C156.7 111.8 158.6 113.7 158.6 116V117.5H159.6V117H159.2Z" fill="#006EFF"/>
<path fill-rule="evenodd" clip-rule="evenodd" d="M148.8 116C148.8 114.5 149.4 113.2 150.3 112.2H145.7C145.1 112.2 144.7 112.7 144.7 113.2V116.4C144.7 117 145.2 117.4 145.7 117.4H148.8V116Z" fill="#006EFF"/>
<path fill-rule="evenodd" clip-rule="evenodd" d="M148.4 113.2C148.3 113 148.1 112.9 147.8 112.9H146.1C145.7 112.9 145.4 113.2 145.4 113.6V116C145.4 116.4 145.7 116.7 146.1 116.7H147.4C147.8 116.7 148.1 116.4 148.1 116C148.1 115.3 148.2 114.5 148.5 113.8C148.5 113.6 148.5 113.4 148.4 113.2Z" fill="#006EFF"/>
<path fill-rule="evenodd" clip-rule="evenodd" d="M150.3 99.3C149.8 99.3 149.4 99.7 149.4 100.2V108.7V110.3H154.3V99.3H150.3ZM154.7 99.3V110.3C156.4 110.4 158 111.2 159 112.6H161.6V107.3L160.3 99.2L154.7 99.3ZM163.5 113.1H158.8C157.9 111.7 156.4 110.8 154.6 110.8H149V108.7V100.2C149 99.4 149.6 98.8 150.4 98.8C155.7 98.8 149.7 98.8 160.8 98.8L161 99.9L162.2 107.3V112.6H164.2C164.2 112.6 164.2 112.7 164.1 112.8C163.8 113.1 163.6 113.1 163.5 113.1Z" fill="#8680B4"/>
<path fill-rule="evenodd" clip-rule="evenodd" d="M154.5 110.8C154.5 110.8 154.4 110.8 154.5 110.8C154.4 110.8 154.5 110.8 154.5 110.8ZM154.6 110.8C154.6 110.8 154.5 110.8 154.6 110.8C154.5 110.8 154.6 110.8 154.6 110.8ZM158.8 113.1C157.9 111.7 156.4 110.8 154.6 110.8C156.3 110.8 157.9 111.7 158.8 113.1Z" fill="#232021"/>
<path fill-rule="evenodd" clip-rule="evenodd" d="M152.7 104.4C152.6 104.4 152.6 104.4 152.5 104.4L150.8 104.1C150.2 104 149.7 103.5 149.7 102.9V100.8C149.7 100.2 150.2 99.7 150.8 99.7H152.7C153.3 99.7 153.7 100.1 153.7 100.7V103.4C153.7 103.7 153.6 103.9 153.3 104.1C153.2 104.3 152.9 104.4 152.7 104.4Z" fill="#006EFF"/>
<path fill-rule="evenodd" clip-rule="evenodd" d="M156.4 108.8C156.5 108.8 156.6 108.9 156.6 109V109.7C156.6 109.8 156.5 109.9 156.4 109.9H155.4C155.3 109.9 155.2 109.8 155.2 109.7V109C155.2 108.9 155.3 108.8 155.4 108.8H156.4Z" fill="#006EFF"/>
<path d="M156.5 109.4H155.1V109.9H156.5V109.4Z" fill="#006EFF"/>
<path fill-rule="evenodd" clip-rule="evenodd" d="M157.1 108.8C157.2 108.8 157.3 108.9 157.3 109C157.3 109.1 157.2 109.2 157.1 109.2C157 109.2 156.9 109.1 156.9 109C156.9 108.9 156.9 108.8 157.1 108.8Z" fill="#006EFF"/>
<path fill-rule="evenodd" clip-rule="evenodd" d="M162.6 113.1C162.9 113.1 163.1 112.9 163.1 112.6V110.7C163.1 110.4 162.9 110.2 162.6 110.2V113.1Z" fill="#006EFF"/>
<path fill-rule="evenodd" clip-rule="evenodd" d="M124 116C124 113.9 125.7 112.2 127.8 112.2C129.9 112.2 131.6 113.9 131.6 116V117.4H132.5V116C132.5 113.4 130.4 111.3 127.8 111.3C125.2 111.3 123.1 113.4 123.1 116V117.4H124V116Z" fill="#006EFF"/>
<path fill-rule="evenodd" clip-rule="evenodd" d="M124 116C124 113.9 125.7 112.2 127.8 112.2C129.9 112.2 131.6 113.9 131.6 116V117H132.1V116C132.1 113.7 130.2 111.8 127.9 111.8C125.6 111.8 123.7 113.7 123.7 116V117H124.2V116H124Z" fill="#00508C"/>
<path fill-rule="evenodd" clip-rule="evenodd" d="M99.3 115.1C99.8 117.1 98.6 119.2 96.6 119.7C94.6 120.2 92.5 119 92 117C91.5 115 92.7 112.9 94.7 112.4C96.6 111.9 98.7 113.1 99.3 115.1Z" fill="#006EFF"/>
<path fill-rule="evenodd" clip-rule="evenodd" d="M95.6 114.5C95.5 114.5 95.3 114.5 95.2 114.6C94.4 114.8 93.9 115.7 94.1 116.5C94.3 117.2 94.9 117.7 95.6 117.7C95.7 117.7 95.9 117.7 96 117.6C96.8 117.4 97.3 116.5 97.1 115.7C96.9 114.9 96.3 114.5 95.6 114.5ZM95.6 118.6C94.4 118.6 93.4 117.8 93.1 116.7C92.7 115.3 93.6 113.9 94.9 113.5C95.1 113.4 95.4 113.4 95.6 113.4C96.7 113.4 97.8 114.2 98.1 115.3C98.5 116.7 97.6 118.1 96.3 118.5C96.1 118.6 95.8 118.6 95.6 118.6Z" fill="#00508C"/>
<path fill-rule="evenodd" clip-rule="evenodd" d="M97.7 115.5C98 116.7 97.3 117.9 96.2 118.2C95 118.5 93.8 117.8 93.5 116.7C93.2 115.5 93.9 114.3 95 114C96.2 113.6 97.4 114.3 97.7 115.5ZM94.3 116.4C94.5 117.1 95.2 117.5 95.9 117.3C96.6 117.1 97 116.4 96.8 115.7C96.6 115 95.9 114.6 95.2 114.8C94.6 115 94.2 115.7 94.3 116.4Z" fill="#006EFF"/>
<path fill-rule="evenodd" clip-rule="evenodd" d="M95.2 114.4C94.3 114.6 93.8 115.6 94 116.5C94.2 117.4 95.2 117.9 96.1 117.7C97 117.5 97.5 116.5 97.3 115.6C97 114.7 96.1 114.2 95.2 114.4Z" fill="#006EFF"/>
<path fill-rule="evenodd" clip-rule="evenodd" d="M95.3 115C94.7 115.2 94.4 115.8 94.5 116.4C94.7 117 95.3 117.3 95.9 117.2C96.5 117 96.8 116.4 96.7 115.8C96.5 115.2 95.9 114.8 95.3 115Z" fill="#006EFF"/>
<path fill-rule="evenodd" clip-rule="evenodd" d="M94.5 116.3C94.4 116 94.2 115.8 94 115.8C94 116 94 116.2 94 116.5C94.1 116.7 94.2 116.9 94.3 117.1C94.5 116.9 94.6 116.6 94.5 116.3Z" fill="#00508C"/>
<path fill-rule="evenodd" clip-rule="evenodd" d="M96.7 115.7C96.8 116 97 116.2 97.2 116.2C97.2 116 97.2 115.8 97.2 115.5C97.1 115.3 97 115.1 96.9 114.9C96.7 115.1 96.7 115.4 96.7 115.7Z" fill="#00508C"/>
<path fill-rule="evenodd" clip-rule="evenodd" d="M94.6 114.7C94.7 114.9 95 115 95.3 114.9C95.6 114.8 95.8 114.6 95.8 114.4C95.6 114.4 95.4 114.4 95.1 114.4C95 114.5 94.8 114.6 94.6 114.7Z" fill="#00508C"/>
<path fill-rule="evenodd" clip-rule="evenodd" d="M95.9 117.2C95.6 117.3 95.4 117.5 95.4 117.7C95.6 117.7 95.8 117.7 96.1 117.7C96.3 117.6 96.5 117.5 96.7 117.4C96.5 117.2 96.2 117.1 95.9 117.2Z" fill="#00508C"/>
<path fill-rule="evenodd" clip-rule="evenodd" d="M80.2 119.3C78.4 120.3 76.1 119.7 75.1 117.9C74.1 116.1 74.7 113.8 76.5 112.8C78.3 111.8 80.6 112.4 81.6 114.2C82.6 116 82 118.3 80.2 119.3Z" fill="#006EFF"/>
<path fill-rule="evenodd" clip-rule="evenodd" d="M78.3 114.5C78 114.5 77.8 114.6 77.5 114.7C76.8 115.1 76.5 116.1 76.9 116.8C77.2 117.3 77.7 117.6 78.3 117.6C78.6 117.6 78.8 117.5 79.1 117.4C79.8 117 80.1 116 79.7 115.3C79.4 114.8 78.9 114.5 78.3 114.5ZM78.3 118.6C77.4 118.6 76.5 118.1 76 117.3C75.3 116.1 75.7 114.5 77 113.7C77.4 113.5 77.9 113.4 78.3 113.4C79.2 113.4 80.1 113.9 80.6 114.7C81.3 115.9 80.9 117.5 79.6 118.3C79.2 118.5 78.8 118.6 78.3 118.6Z" fill="#00508C"/>
<path fill-rule="evenodd" clip-rule="evenodd" d="M79.4 117.9C78.4 118.5 77 118.1 76.4 117.1C75.8 116.1 76.2 114.7 77.2 114.1C78.2 113.5 79.6 113.9 80.2 114.9C80.8 116 80.5 117.3 79.4 117.9ZM77.7 114.9C77.1 115.3 76.9 116.1 77.2 116.7C77.6 117.3 78.4 117.5 79 117.2C79.6 116.8 79.8 116 79.5 115.4C79.1 114.8 78.3 114.5 77.7 114.9Z" fill="#006EFF"/>
<path fill-rule="evenodd" clip-rule="evenodd" d="M79.8 115.2C79.3 114.4 78.3 114.1 77.5 114.6C76.7 115.1 76.4 116.1 76.9 116.9C77.4 117.7 78.4 118 79.2 117.5C80 117 80.2 116 79.8 115.2Z" fill="#006EFF"/>
<path fill-rule="evenodd" clip-rule="evenodd" d="M79.3 115.5C79 115 78.3 114.8 77.8 115.1C77.3 115.4 77.1 116.1 77.4 116.6C77.7 117.1 78.4 117.3 78.9 117C79.4 116.7 79.6 116 79.3 115.5Z" fill="#006EFF"/>
<path fill-rule="evenodd" clip-rule="evenodd" d="M77.7 115C78 114.8 78.1 114.6 78.1 114.3C77.9 114.3 77.7 114.4 77.5 114.5C77.3 114.6 77.1 114.8 77 115C77.2 115.2 77.5 115.2 77.7 115Z" fill="#00508C"/>
<path fill-rule="evenodd" clip-rule="evenodd" d="M78.9 117C78.6 117.2 78.5 117.4 78.5 117.7C78.7 117.7 78.9 117.6 79.1 117.5C79.3 117.4 79.5 117.2 79.6 117C79.5 116.9 79.2 116.9 78.9 117Z" fill="#00508C"/>
<path fill-rule="evenodd" clip-rule="evenodd" d="M79.3 114.7C79.2 114.9 79.1 115.2 79.3 115.5C79.5 115.8 79.7 115.9 80 115.9C80 115.7 79.9 115.5 79.8 115.3C79.7 115 79.5 114.8 79.3 114.7Z" fill="#00508C"/>
<path fill-rule="evenodd" clip-rule="evenodd" d="M77.3 116.6C77.1 116.3 76.9 116.2 76.6 116.2C76.6 116.4 76.7 116.6 76.8 116.8C76.9 117 77.1 117.2 77.3 117.3C77.5 117.2 77.5 116.9 77.3 116.6Z" fill="#00508C"/>
<path fill-rule="evenodd" clip-rule="evenodd" d="M86 119.7C84 119.2 82.8 117.1 83.3 115.1C83.8 113.1 85.9 111.9 87.9 112.4C89.9 112.9 91.1 115 90.6 117C90.1 119 88 120.2 86 119.7Z" fill="#006EFF"/>
<path fill-rule="evenodd" clip-rule="evenodd" d="M87 114.5C86.3 114.5 85.7 115 85.5 115.7C85.3 116.5 85.8 117.4 86.6 117.6C86.7 117.6 86.9 117.7 87 117.7C87.7 117.7 88.3 117.2 88.5 116.5C88.7 115.7 88.2 114.8 87.4 114.6C87.2 114.5 87.1 114.5 87 114.5ZM87 118.6C86.8 118.6 86.6 118.6 86.3 118.5C84.9 118.1 84.1 116.7 84.5 115.3C84.8 114.1 85.9 113.4 87 113.4C87.2 113.4 87.4 113.4 87.7 113.5C89.1 113.9 89.9 115.3 89.5 116.7C89.2 117.9 88.1 118.6 87 118.6Z" fill="#00508C"/>
<path fill-rule="evenodd" clip-rule="evenodd" d="M86.4 118.2C85.2 117.9 84.5 116.7 84.9 115.5C85.2 114.3 86.4 113.6 87.6 114C88.8 114.3 89.5 115.5 89.1 116.7C88.8 117.8 87.6 118.5 86.4 118.2ZM87.3 114.8C86.6 114.6 85.9 115 85.7 115.7C85.5 116.4 85.9 117.1 86.6 117.3C87.3 117.5 88 117.1 88.2 116.4C88.4 115.7 88 115 87.3 114.8Z" fill="#006EFF"/>
<path fill-rule="evenodd" clip-rule="evenodd" d="M88.6 116.5C88.8 115.6 88.3 114.7 87.4 114.4C86.5 114.2 85.6 114.7 85.3 115.6C85.1 116.5 85.6 117.4 86.5 117.7C87.4 117.9 88.3 117.4 88.6 116.5Z" fill="#006EFF"/>
<path fill-rule="evenodd" clip-rule="evenodd" d="M88 116.3C88.2 115.7 87.8 115.1 87.2 114.9C86.6 114.7 86 115.1 85.8 115.7C85.6 116.3 86 116.9 86.6 117.1C87.3 117.3 87.9 116.9 88 116.3Z" fill="#006EFF"/>
<path fill-rule="evenodd" clip-rule="evenodd" d="M87.3 114.9C87.6 115 87.9 114.9 88 114.7C87.8 114.6 87.6 114.5 87.4 114.4C87.2 114.3 86.9 114.3 86.7 114.4C86.7 114.6 87 114.8 87.3 114.9Z" fill="#00508C"/>
<path fill-rule="evenodd" clip-rule="evenodd" d="M86.7 117.2C86.4 117.1 86.1 117.2 86 117.4C86.2 117.5 86.4 117.6 86.6 117.7C86.8 117.8 87.1 117.8 87.3 117.7C87.2 117.5 87 117.2 86.7 117.2Z" fill="#00508C"/>
<path fill-rule="evenodd" clip-rule="evenodd" d="M88.6 115.8C88.4 115.8 88.1 116 88.1 116.3C88 116.6 88.1 116.9 88.3 117C88.4 116.8 88.5 116.6 88.6 116.4C88.6 116.2 88.7 116 88.6 115.8Z" fill="#00508C"/>
<path fill-rule="evenodd" clip-rule="evenodd" d="M85.8 115.7C85.9 115.4 85.8 115.1 85.6 115C85.5 115.2 85.4 115.4 85.3 115.6C85.2 115.8 85.2 116.1 85.3 116.3C85.5 116.3 85.8 116 85.8 115.7Z" fill="#00508C"/>
<path fill-rule="evenodd" clip-rule="evenodd" d="M67 111.9H119.2L123 108.8H67V111.9Z" fill="#00508C"/>
<path fill-rule="evenodd" clip-rule="evenodd" d="M66.6 113.4V111.3C66.3 111.3 66.1 111.5 66.1 111.8V112.9C66.1 113.1 66.4 113.4 66.6 113.4Z" fill="#006EFF"/>
<path fill-rule="evenodd" clip-rule="evenodd" d="M64.4 108.7V107.5C64.1 107.5 63.9 107.7 63.9 108V108.2C63.9 108.5 64.2 108.7 64.4 108.7Z" fill="#006EFF"/>
<path fill-rule="evenodd" clip-rule="evenodd" d="M143.1 91C143.1 90.8 142.9 90.7 142.8 90.7C142.6 90.7 142.5 90.9 142.5 91V91.3H143.2L143.1 91Z" fill="#006EFF"/>
<path fill-rule="evenodd" clip-rule="evenodd" d="M143.1 91.1H142.4C142.3 91.2 142.2 91.4 142.2 91.6V92.2H143.4V91.6C143.3 91.4 143.2 91.2 143.1 91.1Z" fill="#006EFF"/>
<path fill-rule="evenodd" clip-rule="evenodd" d="M66.1 91C66.1 90.8 65.9 90.7 65.8 90.7C65.7 90.7 65.5 90.9 65.5 91V91.3H66.2L66.1 91Z" fill="#006EFF"/>
<path fill-rule="evenodd" clip-rule="evenodd" d="M66.1 91.1H65.4C65.3 91.2 65.2 91.4 65.2 91.6V92.2H66.4V91.6C66.3 91.4 66.2 91.2 66.1 91.1Z" fill="#006EFF"/>
<path d="M67.3 110.5H66.6V113.7H67.3V110.5Z" fill="#00508C"/>
<path fill-rule="evenodd" clip-rule="evenodd" d="M143.4 91.4H64.5V110.6H144.8V92.8C144.7 92 144.1 91.4 143.4 91.4Z" fill="#00508C"/>
<path d="M139.8 91.9H139.3V108.6H139.8V91.9Z" fill="#"/>
<path d="M134.9 91.9H134.4V108.6H134.9V91.9Z" fill="#"/>
<path d="M129.9 91.9H129.4V108.6H129.9V91.9Z" fill="#"/>
<path d="M124.9 91.9H124.4V108.6H124.9V91.9Z" fill="#"/>
<path d="M120 91.9H119.5V108.6H120V91.9Z" fill="#"/>
<path d="M115 91.9H114.5V108.6H115V91.9Z" fill="#"/>
<path d="M110.1 91.9H109.6V108.6H110.1V91.9Z" fill="#"/>
<path d="M105.1 91.9H104.6V108.6H105.1V91.9Z" fill="#"/>
<path d="M100.1 91.9H99.6V108.6H100.1V91.9Z" fill="#"/>
<path d="M95.2 91.9H94.7V108.6H95.2V91.9Z" fill="#"/>
<path d="M90.2 91.9H89.7V108.6H90.2V91.9Z" fill="#"/>
<path d="M85.3 91.9H84.8V108.6H85.3V91.9Z" fill="#"/>
<path d="M80.3 91.9H79.8V108.6H80.3V91.9Z" fill="#"/>
<path d="M75.3 91.9H74.8V108.6H75.3V91.9Z" fill="#"/>
<path d="M70.4 91.9H69.9V108.6H70.4V91.9Z" fill="#"/>
<path fill-rule="evenodd" clip-rule="evenodd" d="M143.4 91.9C143.9 91.9 144.3 92.3 144.3 92.8V108.6H65.3V91.9H143.4ZM143.4 91.4H64.5V110.6H144.8V92.8C144.7 92 144.1 91.4 143.4 91.4Z" fill="#006EFF"/>
<path fill-rule="evenodd" clip-rule="evenodd" d="M118.5 114.5V116.1C118.5 116.5 118.2 116.7 117.9 116.7C117.5 116.7 117.3 116.4 117.3 116.1V114.5H118.5Z" fill="#006EFF"/>
<path fill-rule="evenodd" clip-rule="evenodd" d="M118.2 116.2C118.2 116.1 118.1 115.9 117.9 115.9C117.8 115.9 117.6 116 117.6 116.2C117.6 116.3 117.7 116.5 117.9 116.5C118 116.4 118.2 116.3 118.2 116.2Z" fill="#006EFF"/>
<path d="M118.6 110.6H117.3V115.5H118.6V110.6Z" fill="#00508C"/>
<path d="M104.4 110.6H103.5V115.5H104.4V110.6Z" fill="#00508C"/>
<path d="M104.4 110.6H103.5V111.4H104.4V110.6Z" fill="#00508C"/>
<path d="M104.4 113H103.5V113.6H104.4V113Z" fill="#00508C"/>
<path d="M115.5 110.6H114.6V115.5H115.5V110.6Z" fill="#00508C"/>
<path d="M115.5 110.6H114.6V111.4H115.5V110.6Z" fill="#00508C"/>
<path d="M115.5 113H114.6V113.6H115.5V113Z" fill="#00508C"/>
<path fill-rule="evenodd" clip-rule="evenodd" d="M73.9 116.4V116.1C73.9 114.6 74.7 113.2 76 112.4C76.6 112 77.4 111.8 78.1 111.8C78.1 111.8 95.3 111.8 95.4 111.8C97.3 111.8 99 113.1 99.5 114.9C99.6 115.3 99.6 115.6 99.6 116V116.3H100.1V116C100.1 115.6 100 115.2 99.9 114.8C99.3 112.7 97.5 111.3 95.3 111.3H78C77.2 111.3 76.3 111.5 75.6 111.9C74.1 112.7 73.2 114.3 73.2 116V116.3L73.9 116.4Z" fill="#00508C"/>
<path fill-rule="evenodd" clip-rule="evenodd" d="M116.9 113.2V115.4H102.2V113.2H116.9ZM117.9 112.2H101.1V116.4H117.9V112.2Z" fill="#00508C"/>
<path d="M32.2 65.5H26.2V71.4H32.2V65.5Z" fill="#00508C"/>
<path d="M40.9 65.5H34.9V71.4H40.9V65.5Z" fill="#00508C"/>
<path d="M49.5 65.5H43.5V71.4H49.5V65.5Z" fill="#00508C"/>
<path d="M8.7 1.5H0V21.8H8.7V1.5Z" fill="#0041CD"/>
<path d="M22.5347 10.5732H21.48V9H17.2656V10.5732H16.1934L16.1582 8.1123H16.6724C16.9272 7.86621 17.1309 7.50879 17.2832 7.04004C17.4355 6.56836 17.5337 6.03516 17.5776 5.44043L17.7446 2.60156H21.7788V8.1123H22.5918L22.5347 10.5732ZM17.9292 8.1123H20.6714V3.49805H18.8037L18.6982 5.2998C18.6191 6.50391 18.3628 7.44141 17.9292 8.1123ZM27.0786 7.51025H24.6001L24.0815 9H22.9258L25.3428 2.60156H26.3403L28.7617 9H27.6016L27.0786 7.51025ZM24.9121 6.61377H26.7666L25.8394 3.95947L24.9121 6.61377ZM33.4111 2.60156H34.5229V9H33.4111V4.44287L30.603 9H29.4912V2.60156H30.603V7.16309L33.4111 2.60156ZM33.4463 0.971191C33.4463 1.34033 33.3174 1.63916 33.0596 1.86768C32.8018 2.09619 32.4575 2.21045 32.0269 2.21045C31.5962 2.21045 31.252 2.09619 30.9941 1.86768C30.7363 1.63916 30.6074 1.34033 30.6074 0.971191H31.4072C31.4072 1.16455 31.4614 1.31543 31.5698 1.42383C31.6812 1.5293 31.8335 1.58203 32.0269 1.58203C32.2202 1.58203 32.3711 1.5293 32.4795 1.42383C32.5879 1.31543 32.6421 1.16455 32.6421 0.971191H33.4463ZM36.9971 5.04932H38.3066C38.7754 5.04932 39.1841 5.12988 39.5327 5.29102C39.8813 5.45215 40.1465 5.68066 40.3281 5.97656C40.5098 6.27246 40.6006 6.61523 40.6006 7.00488C40.6006 7.60254 40.397 8.08301 39.9897 8.44629C39.5854 8.80957 39.0332 8.99414 38.333 9H35.8853V2.60156H36.9971V5.04932ZM42.3408 9H41.2334V2.60156H42.3408V9ZM36.9971 5.94141V8.1123H38.3022C38.6772 8.1123 38.9688 8.01123 39.1768 7.80908C39.3877 7.604 39.4932 7.33301 39.4932 6.99609C39.4932 6.67383 39.3906 6.41895 39.1855 6.23145C38.9805 6.04395 38.6963 5.94727 38.333 5.94141H36.9971ZM48.7832 9H47.6758V6.15674H44.8149V9H43.7031V2.60156H44.8149V5.26465H47.6758V2.60156H48.7832V9ZM57.4185 5.96777C57.4185 6.59473 57.3101 7.14551 57.0933 7.62012C56.8765 8.0918 56.5659 8.45508 56.1616 8.70996C55.7603 8.96191 55.2974 9.08789 54.7729 9.08789C54.2573 9.08789 53.7988 8.96338 53.3975 8.71436C52.9961 8.46533 52.6826 8.10938 52.457 7.64648C52.2344 7.18359 52.1187 6.65186 52.1099 6.05127V5.64258C52.1099 5.01855 52.2197 4.46924 52.4395 3.99463C52.6592 3.52002 52.9712 3.15527 53.3755 2.90039C53.7798 2.64258 54.2427 2.51367 54.7642 2.51367C55.2856 2.51367 55.7471 2.63965 56.1484 2.8916C56.5527 3.14063 56.8647 3.50098 57.0845 3.97266C57.3042 4.44141 57.4155 4.98779 57.4185 5.61182V5.96777ZM54.7642 3.43652C54.2954 3.43652 53.9277 3.6123 53.6611 3.96387C53.3945 4.31543 53.2495 4.80908 53.2261 5.44482H56.3022C56.2788 4.80322 56.1353 4.30811 55.8716 3.95947C55.6079 3.61084 55.2388 3.43652 54.7642 3.43652ZM54.7729 8.17383C55.2388 8.17383 55.6021 8.00684 55.8628 7.67285C56.1265 7.33594 56.2729 6.84229 56.3022 6.19189H53.2261C53.2554 6.82764 53.4048 7.31689 53.6743 7.65967C53.9438 8.00244 54.3101 8.17383 54.7729 8.17383ZM63.584 9H62.4766V6.15674H59.6157V9H58.5039V2.60156H59.6157V5.26465H62.4766V2.60156H63.584V9ZM66.0757 9H64.9683V2.60156H66.0757V9ZM68.8838 2.60156L70.7295 7.50586L72.5708 2.60156H74.0078V9H72.9004V6.89062L73.0103 4.06934L71.1206 9H70.3252L68.4399 4.07373L68.5498 6.89062V9H67.4424V2.60156H68.8838ZM81.3071 10.5732H80.2524V9H76.0381V10.5732H74.9658L74.9307 8.1123H75.4448C75.6997 7.86621 75.9033 7.50879 76.0557 7.04004C76.208 6.56836 76.3062 6.03516 76.3501 5.44043L76.5171 2.60156H80.5513V8.1123H81.3643L81.3071 10.5732ZM76.7017 8.1123H79.4438V3.49805H77.5762L77.4707 5.2998C77.3916 6.50391 77.1353 7.44141 76.7017 8.1123ZM85.939 6.14355H83.311V8.1123H86.3828V9H82.1992V2.60156H86.3521V3.49805H83.311V5.26465H85.939V6.14355ZM88.3999 6.62256V9H87.2881V2.60156H89.7358C90.4507 2.60156 91.0176 2.7876 91.4365 3.15967C91.8584 3.53174 92.0693 4.02393 92.0693 4.63623C92.0693 5.26318 91.8628 5.75098 91.4497 6.09961C91.0396 6.44824 90.4639 6.62256 89.7227 6.62256H88.3999ZM88.3999 5.73047H89.7358C90.1313 5.73047 90.4331 5.63818 90.6411 5.45361C90.8491 5.26611 90.9531 4.99658 90.9531 4.64502C90.9531 4.29932 90.8477 4.02393 90.6367 3.81885C90.4258 3.61084 90.1357 3.50391 89.7666 3.49805H88.3999V5.73047ZM18.5444 17.2578H17.7886V20H16.6812V13.6016H17.7886V16.291H18.3994L20.2803 13.6016H21.6426L19.4453 16.6646L21.8359 20H20.5L18.5444 17.2578ZM22.1831 21.5732H21.1152V19.2046H22.1831V21.5732ZM28.1377 16.9678C28.1377 17.5947 28.0293 18.1455 27.8125 18.6201C27.5957 19.0918 27.2852 19.4551 26.8809 19.71C26.4795 19.9619 26.0166 20.0879 25.4922 20.0879C24.9736 20.0879 24.5107 19.9619 24.1035 19.71C23.6992 19.4551 23.3857 19.0933 23.1631 18.6245C22.9434 18.1558 22.832 17.6152 22.8291 17.0029V16.6426C22.8291 16.0186 22.939 15.4678 23.1587 14.9902C23.3813 14.5127 23.6934 14.1479 24.0947 13.896C24.499 13.6411 24.9619 13.5137 25.4834 13.5137C26.0049 13.5137 26.4663 13.6396 26.8677 13.8916C27.272 14.1406 27.584 14.501 27.8037 14.9727C28.0234 15.4414 28.1348 15.9878 28.1377 16.6118V16.9678ZM27.0259 16.6338C27.0259 15.9248 26.8911 15.3813 26.6216 15.0034C26.355 14.6255 25.9756 14.4365 25.4834 14.4365C25.0029 14.4365 24.6265 14.6255 24.354 15.0034C24.0845 15.3784 23.9468 15.9102 23.9409 16.5986V16.9678C23.9409 17.6709 24.0771 18.2144 24.3496 18.5981C24.625 18.9819 25.0059 19.1738 25.4922 19.1738C25.9844 19.1738 26.3623 18.9863 26.626 18.6113C26.8926 18.2363 27.0259 17.6885 27.0259 16.9678V16.6338ZM33.165 13.6016H34.2769V20H33.165V15.4429L30.3569 20H29.2451V13.6016H30.3569V18.1631L33.165 13.6016ZM33.2002 11.9712C33.2002 12.3403 33.0713 12.6392 32.8135 12.8677C32.5557 13.0962 32.2114 13.2104 31.7808 13.2104C31.3501 13.2104 31.0059 13.0962 30.748 12.8677C30.4902 12.6392 30.3613 12.3403 30.3613 11.9712H31.1611C31.1611 12.1646 31.2153 12.3154 31.3237 12.4238C31.4351 12.5293 31.5874 12.582 31.7808 12.582C31.9741 12.582 32.125 12.5293 32.2334 12.4238C32.3418 12.3154 32.396 12.1646 32.396 11.9712H33.2002ZM37.0498 13.6016L38.8955 18.5059L40.7368 13.6016H42.1738V20H41.0664V17.8906L41.1763 15.0693L39.2866 20H38.4912L36.606 15.0737L36.7158 17.8906V20H35.6084V13.6016H37.0498ZM47.1528 18.5103H44.6743L44.1558 20H43L45.417 13.6016H46.4146L48.8359 20H47.6758L47.1528 18.5103ZM44.9863 17.6138H46.8408L45.9136 14.9595L44.9863 17.6138ZM54.3511 17.917C54.2866 18.5996 54.0347 19.1328 53.5952 19.5166C53.1558 19.8975 52.5713 20.0879 51.8418 20.0879C51.332 20.0879 50.8823 19.9678 50.4927 19.7275C50.106 19.4844 49.8071 19.1401 49.5962 18.6948C49.3853 18.2495 49.2754 17.7324 49.2666 17.1436V16.5459C49.2666 15.9424 49.3735 15.4106 49.5874 14.9507C49.8013 14.4907 50.1074 14.1362 50.5059 13.8872C50.9072 13.6382 51.3701 13.5137 51.8945 13.5137C52.6006 13.5137 53.1689 13.7056 53.5996 14.0894C54.0303 14.4731 54.2808 15.0151 54.3511 15.7153H53.2437C53.1909 15.2554 53.0562 14.9243 52.8394 14.7222C52.6255 14.5171 52.3105 14.4146 51.8945 14.4146C51.4111 14.4146 51.0391 14.5918 50.7783 14.9463C50.5205 15.2979 50.3887 15.8149 50.3828 16.4976V17.0645C50.3828 17.7559 50.5059 18.2832 50.752 18.6465C51.001 19.0098 51.3643 19.1914 51.8418 19.1914C52.2783 19.1914 52.6064 19.0933 52.8262 18.897C53.0459 18.7007 53.1851 18.374 53.2437 17.917H54.3511ZM56.4912 16.0493H57.8008C58.2695 16.0493 58.6782 16.1299 59.0269 16.291C59.3755 16.4521 59.6406 16.6807 59.8223 16.9766C60.0039 17.2725 60.0947 17.6152 60.0947 18.0049C60.0947 18.6025 59.8911 19.083 59.4839 19.4463C59.0796 19.8096 58.5273 19.9941 57.8271 20H55.3794V13.6016H56.4912V16.0493ZM61.835 20H60.7275V13.6016H61.835V20ZM56.4912 16.9414V19.1123H57.7964C58.1714 19.1123 58.4629 19.0112 58.6709 18.8091C58.8818 18.604 58.9873 18.333 58.9873 17.9961C58.9873 17.6738 58.8848 17.4189 58.6797 17.2314C58.4746 17.0439 58.1904 16.9473 57.8271 16.9414H56.4912Z" fill="#00508C"/>
</g>
<defs>
<clipPath id="clip0">
<rect width="164.2" height="119.8" fill="white"/>
</clipPath>
</defs>
</svg>
