<svg width="146" height="186" viewBox="0 0 146 186" fill="none" xmlns="http://www.w3.org/2000/svg">
<g clip-path="url(#clip0)">
<path d="M50 160H135.4C138.2 160 140.7 158.9 142.5 157C144.3 155.2 145.5 152.7 145.5 149.9C145.5 135.4 145.5 27.1 145.5 12.7V7.70005L143.3 6.50005L141.1 5.30005L139 6.40005L136.8 7.60005V12.6C136.8 27.1 136.7 135.3 136.7 149.8C136.7 150.2 136.5 150.6 136.3 150.8C136.1 151 135.7 151.2 135.3 151.2H50L52.2 156L50 160Z" fill="#006EFF"/>
<path d="M30.3 146.5H28.9V78.3C28.9 76.7 30.2 75.5 31.7 75.5V76.9C30.9 76.9 30.3 77.5 30.3 78.3V146.5V146.5Z" fill="#006EFF"/>
<path d="M59.0001 85.1H57.6001V78.3C57.6001 77.5 57.0001 76.9 56.2001 76.9H31.7001V75.5H56.1001C57.7001 75.5 58.9001 76.8 58.9001 78.3V85.1H59.0001Z" fill="#006EFF"/>
<path d="M25.4 147.4H24V124.9C24 123.3 25.3 122.1 26.8 122.1H51.2V123.5H26.8C26 123.5 25.4 124.1 25.4 124.9V147.4V147.4Z" fill="#006EFF"/>
<path d="M20.4 147.4H19V124.9C19 123.3 20.3 122.1 21.8 122.1H46.2V123.5H21.8C21 123.5 20.4 124.1 20.4 124.9V147.4V147.4Z" fill="#006EFF"/>
<path d="M35.2001 147.4H33.8V124.9C33.8 123.3 35.1 122.1 36.6 122.1H61V123.5H36.6C35.8 123.5 35.2001 124.1 35.2001 124.9V147.4Z" fill="#006EFF"/>
<path fill-rule="evenodd" clip-rule="evenodd" d="M49.9001 79.7H66.6001C68.7001 79.7 70.4001 81.4 70.4001 83.5V115.4C70.4001 117.5 68.7001 119.2 66.6001 119.2H49.9001C47.8001 119.2 46.1001 117.5 46.1001 115.4V83.6C46.1001 81.5 47.8001 79.7 49.9001 79.7Z" fill="#006EFF"/>
<path fill-rule="evenodd" clip-rule="evenodd" d="M45.2001 85.1H71.3001C74.6001 85.1 77.3001 87.8 77.3001 91.1V141C77.3001 144.3 74.6001 147 71.3001 147H45.2001C41.9001 147 39.2001 144.3 39.2001 141V91C39.3001 87.8 41.9001 85.1 45.2001 85.1Z" fill="#00508C"/>
<path fill-rule="evenodd" clip-rule="evenodd" d="M39.4 165.6H88.8V146.5H64.7H39.4V165.6Z" fill="#006EFF"/>
<path d="M53.1001 144.4C52.5001 144.4 52.1001 143.9 52.1001 143.4V141.2C52.1001 137.9 54.8001 135.2 58.0001 135.2H68.2001C68.8001 135.2 69.2001 135.7 69.2001 136.2C69.2001 136.7 68.7001 137.2 68.2001 137.2H58.0001C55.9001 137.2 54.1001 138.9 54.1001 141.1V143.3C54.2001 143.9 53.7001 144.4 53.1001 144.4Z" fill="#006EFF"/>
<path d="M57.3 142.3H48.8V146.5H57.3V142.3Z" fill="#006EFF"/>
<path fill-rule="evenodd" clip-rule="evenodd" d="M80.7001 119.8L88.8001 131.4V146.8H80.7001V119.8Z" fill="#006EFF"/>
<path d="M39.4001 146.5H15.3V165.6H39.4001V146.5Z" fill="#006EFF"/>
<path d="M64.6001 98.5H58.2001V99.5H64.6001V98.5Z" fill="#006EFF"/>
<path d="M62.9001 95.6H64.4001H64.6001V95.8V98.8C64.6001 98.9 64.5001 99 64.4001 99C64.3001 99 64.2001 98.9 64.2001 98.8V96H63.1001V98.8C63.1001 98.9 63.0001 99 62.9001 99C62.8001 99 62.7001 98.9 62.7001 98.8V96H61.6001V98.8C61.6001 98.9 61.5001 99 61.4001 99C61.3001 99 61.2001 98.9 61.2001 98.8V96H60.1001V98.8C60.1001 98.9 60.0001 99 59.9001 99C59.8001 99 59.7001 98.9 59.7001 98.8V96H58.6001V98.8C58.6001 98.9 58.5001 99 58.4001 99C58.3001 99 58.2001 98.9 58.2001 98.8V95.8V95.6H58.4001H59.9001H61.4001H62.9001Z" fill="#006EFF"/>
<path d="M71.0001 98.5H64.6001V99.5H71.0001V98.5Z" fill="#006EFF"/>
<path d="M69.2001 95.6H70.7001H70.9001V95.8V98.8C70.9001 98.9 70.8001 99 70.7001 99C70.6001 99 70.5001 98.9 70.5001 98.8V96H69.4001V98.8C69.4001 98.9 69.3001 99 69.2001 99C69.1001 99 69.0001 98.9 69.0001 98.8V96H68.0001V98.8C68.0001 98.9 67.9001 99 67.8001 99C67.7001 99 67.6001 98.9 67.6001 98.8V96H66.5001V98.8C66.5001 98.9 66.4001 99 66.3001 99C66.2001 99 66.1001 98.9 66.1001 98.8V96H65.0001V98.8C65.0001 98.9 64.9001 99 64.8001 99C64.7001 99 64.6001 98.9 64.6001 98.8V95.8V95.6H64.8001H66.3001H67.8001H69.2001Z" fill="#006EFF"/>
<path d="M77.3 98.5H70.9V99.5H77.3V98.5Z" fill="#006EFF"/>
<path d="M75.6 95.6H77.1H77.3V95.8V98.8C77.3 98.9 77.2 99 77.1 99C77 99 76.9 98.9 76.9 98.8V96H75.8V98.8C75.8 98.9 75.7 99 75.6 99C75.5 99 75.4 98.9 75.4 98.8V96H74.3V98.8C74.3 98.9 74.2 99 74.1 99C74 99 73.9 98.9 73.9 98.8V96H72.8V98.8C72.8 98.9 72.7 99 72.6 99C72.5 99 72.4 98.9 72.4 98.8V96H71.3V98.8C71.3 98.9 71.2 99 71.1 99C71 99 70.9 98.9 70.9 98.8V95.8V95.6H71.1H72.6H74.1H75.6Z" fill="#006EFF"/>
<path d="M45.7001 98.5H39.3V99.5H45.7001V98.5Z" fill="#006EFF"/>
<path d="M43.9001 95.6H45.4001H45.6001V95.8V98.8C45.6001 98.9 45.5001 99 45.4001 99C45.3001 99 45.2001 98.9 45.2001 98.8V96H44.1001V98.8C44.1001 98.9 44.0001 99 43.9001 99C43.8001 99 43.7001 98.9 43.7001 98.8V96H42.6001V98.8C42.6001 98.9 42.5001 99 42.4001 99C42.3001 99 42.2001 98.9 42.2001 98.8V96H41.1001V98.8C41.1001 98.9 41.0001 99 40.9001 99C40.8001 99 40.7001 98.9 40.7001 98.8V96H39.6001V98.8C39.6001 98.9 39.5001 99 39.4001 99C39.3001 99 39.2001 98.9 39.2001 98.8V95.8V95.6H39.4001H40.9001H42.4001H43.9001Z" fill="#006EFF"/>
<path d="M52.0001 98.5H45.6001V99.5H52.0001V98.5Z" fill="#006EFF"/>
<path d="M50.3001 95.6H51.8001H52.0001V95.8V98.8C52.0001 98.9 51.9001 99 51.8001 99C51.7001 99 51.6001 98.9 51.6001 98.8V96H50.5001V98.8C50.5001 98.9 50.4001 99 50.3001 99C50.2001 99 50.1001 98.9 50.1001 98.8V96H49.0001V98.8C49.0001 98.9 48.9001 99 48.8001 99C48.7001 99 48.6001 98.9 48.6001 98.8V96H47.5001V98.8C47.5001 98.9 47.4001 99 47.3001 99C47.2001 99 47.1001 98.9 47.1001 98.8V96H46.0001V98.8C46.0001 98.9 45.9001 99 45.8001 99C45.7001 99 45.6001 98.9 45.6001 98.8V95.8V95.6H45.8001H47.3001H48.8001H50.3001Z" fill="#006EFF"/>
<path d="M58.4 98.5H52V99.5H58.4V98.5Z" fill="#006EFF"/>
<path d="M56.7 95.6H58.2H58.4V95.8V98.8C58.4 98.9 58.3 99 58.2 99C58.1 99 58 98.9 58 98.8V96H56.9V98.8C56.9 98.9 56.8 99 56.7 99C56.6 99 56.5 98.9 56.5 98.8V96H55.4V98.8C55.4 98.9 55.3 99 55.2 99C55.1 99 55 98.9 55 98.8V96H53.9V98.8C53.9 98.9 53.8 99 53.7 99C53.6 99 53.5 98.9 53.5 98.8V96H52.4V98.8C52.4 98.9 52.3 99 52.2 99C52.1 99 52 98.9 52 98.8V95.8V95.6H52.2H53.7H55.2H56.7Z" fill="#006EFF"/>
<path d="M64.6001 111.1H58.2001V112.1H64.6001V111.1Z" fill="#006EFF"/>
<path d="M62.9001 108.2H64.4001H64.6001V108.4V111.4C64.6001 111.5 64.5001 111.6 64.4001 111.6C64.3001 111.6 64.2001 111.5 64.2001 111.4V108.6H63.1001V111.4C63.1001 111.5 63.0001 111.6 62.9001 111.6C62.8001 111.6 62.7001 111.5 62.7001 111.4V108.6H61.6001V111.4C61.6001 111.5 61.5001 111.6 61.4001 111.6C61.3001 111.6 61.2001 111.5 61.2001 111.4V108.6H60.1001V111.4C60.1001 111.5 60.0001 111.6 59.9001 111.6C59.8001 111.6 59.7001 111.5 59.7001 111.4V108.6H58.6001V111.4C58.6001 111.5 58.5001 111.6 58.4001 111.6C58.3001 111.6 58.2001 111.5 58.2001 111.4V108.4V108.2H58.4001H59.9001H61.4001H62.9001Z" fill="#006EFF"/>
<path d="M71.0001 111.1H64.6001V112.1H71.0001V111.1Z" fill="#006EFF"/>
<path d="M69.2001 108.2H70.7001H70.9001V108.4V111.4C70.9001 111.5 70.8001 111.6 70.7001 111.6C70.6001 111.6 70.5001 111.5 70.5001 111.4V108.6H69.4001V111.4C69.4001 111.5 69.3001 111.6 69.2001 111.6C69.1001 111.6 69.0001 111.5 69.0001 111.4V108.6H68.0001V111.4C68.0001 111.5 67.9001 111.6 67.8001 111.6C67.7001 111.6 67.6001 111.5 67.6001 111.4V108.6H66.5001V111.4C66.5001 111.5 66.4001 111.6 66.3001 111.6C66.2001 111.6 66.1001 111.5 66.1001 111.4V108.6H65.0001V111.4C65.0001 111.5 64.9001 111.6 64.8001 111.6C64.7001 111.6 64.6001 111.5 64.6001 111.4V108.4V108.2H64.8001H66.3001H67.8001H69.2001Z" fill="#006EFF"/>
<path d="M77.3 111.1H70.9V112.1H77.3V111.1Z" fill="#006EFF"/>
<path d="M75.6 108.2H77.1H77.3V108.4V111.4C77.3 111.5 77.2 111.6 77.1 111.6C77 111.6 76.9 111.5 76.9 111.4V108.6H75.8V111.4C75.8 111.5 75.7 111.6 75.6 111.6C75.5 111.6 75.4 111.5 75.4 111.4V108.6H74.3V111.4C74.3 111.5 74.2 111.6 74.1 111.6C74 111.6 73.9 111.5 73.9 111.4V108.6H72.8V111.4C72.8 111.5 72.7 111.6 72.6 111.6C72.5 111.6 72.4 111.5 72.4 111.4V108.6H71.3V111.4C71.3 111.5 71.2 111.6 71.1 111.6C71 111.6 70.9 111.5 70.9 111.4V108.4V108.2H71.1H72.6H74.1H75.6Z" fill="#006EFF"/>
<path d="M45.7001 111.1H39.3V112.1H45.7001V111.1Z" fill="#006EFF"/>
<path d="M43.9001 108.2H45.4001H45.6001V108.4V111.4C45.6001 111.5 45.5001 111.6 45.4001 111.6C45.3001 111.6 45.2001 111.5 45.2001 111.4V108.6H44.1001V111.4C44.1001 111.5 44.0001 111.6 43.9001 111.6C43.8001 111.6 43.7001 111.5 43.7001 111.4V108.6H42.6001V111.4C42.6001 111.5 42.5001 111.6 42.4001 111.6C42.3001 111.6 42.2001 111.5 42.2001 111.4V108.6H41.1001V111.4C41.1001 111.5 41.0001 111.6 40.9001 111.6C40.8001 111.6 40.7001 111.5 40.7001 111.4V108.6H39.6001V111.4C39.6001 111.5 39.5001 111.6 39.4001 111.6C39.3001 111.6 39.2001 111.5 39.2001 111.4V108.4V108.2H39.4001H40.9001H42.4001H43.9001Z" fill="#006EFF"/>
<path d="M52.0001 111.1H45.6001V112.1H52.0001V111.1Z" fill="#006EFF"/>
<path d="M50.3001 108.2H51.8001H52.0001V108.4V111.4C52.0001 111.5 51.9001 111.6 51.8001 111.6C51.7001 111.6 51.6001 111.5 51.6001 111.4V108.6H50.5001V111.4C50.5001 111.5 50.4001 111.6 50.3001 111.6C50.2001 111.6 50.1001 111.5 50.1001 111.4V108.6H49.0001V111.4C49.0001 111.5 48.9001 111.6 48.8001 111.6C48.7001 111.6 48.6001 111.5 48.6001 111.4V108.6H47.5001V111.4C47.5001 111.5 47.4001 111.6 47.3001 111.6C47.2001 111.6 47.1001 111.5 47.1001 111.4V108.6H46.0001V111.4C46.0001 111.5 45.9001 111.6 45.8001 111.6C45.7001 111.6 45.6001 111.5 45.6001 111.4V108.4V108.2H45.8001H47.3001H48.8001H50.3001Z" fill="#006EFF"/>
<path d="M58.4 111.1H52V112.1H58.4V111.1Z" fill="#006EFF"/>
<path d="M56.7 108.2H58.2H58.4V108.4V111.4C58.4 111.5 58.3 111.6 58.2 111.6C58.1 111.6 58 111.5 58 111.4V108.6H56.9V111.4C56.9 111.5 56.8 111.6 56.7 111.6C56.6 111.6 56.5 111.5 56.5 111.4V108.6H55.4V111.4C55.4 111.5 55.3 111.6 55.2 111.6C55.1 111.6 55 111.5 55 111.4V108.6H53.9V111.4C53.9 111.5 53.8 111.6 53.7 111.6C53.6 111.6 53.5 111.5 53.5 111.4V108.6H52.4V111.4C52.4 111.5 52.3 111.6 52.2 111.6C52.1 111.6 52 111.5 52 111.4V108.4V108.2H52.2H53.7H55.2H56.7Z" fill="#006EFF"/>
<path d="M64.6001 123.6H58.2001V124.6H64.6001V123.6Z" fill="#006EFF"/>
<path d="M62.9001 120.7H64.4001H64.6001V120.9V123.9C64.6001 124 64.5001 124.1 64.4001 124.1C64.3001 124.1 64.2001 124 64.2001 123.9V121.1H63.1001V123.9C63.1001 124 63.0001 124.1 62.9001 124.1C62.8001 124.1 62.7001 124 62.7001 123.9V121.1H61.6001V123.9C61.6001 124 61.5001 124.1 61.4001 124.1C61.3001 124.1 61.2001 124 61.2001 123.9V121.1H60.1001V123.9C60.1001 124 60.0001 124.1 59.9001 124.1C59.8001 124.1 59.7001 124 59.7001 123.9V121.1H58.6001V123.9C58.6001 124 58.5001 124.1 58.4001 124.1C58.3001 124.1 58.2001 124 58.2001 123.9V120.9V120.7H58.4001H59.9001H61.4001H62.9001Z" fill="#006EFF"/>
<path d="M71.0001 123.6H64.6001V124.6H71.0001V123.6Z" fill="#006EFF"/>
<path d="M69.2001 120.7H70.7001H70.9001V120.9V123.9C70.9001 124 70.8001 124.1 70.7001 124.1C70.6001 124.1 70.5001 124 70.5001 123.9V121.1H69.4001V123.9C69.4001 124 69.3001 124.1 69.2001 124.1C69.1001 124.1 69.0001 124 69.0001 123.9V121.1H68.0001V123.9C68.0001 124 67.9001 124.1 67.8001 124.1C67.7001 124.1 67.6001 124 67.6001 123.9V121.1H66.5001V123.9C66.5001 124 66.4001 124.1 66.3001 124.1C66.2001 124.1 66.1001 124 66.1001 123.9V121.1H65.0001V123.9C65.0001 124 64.9001 124.1 64.8001 124.1C64.7001 124.1 64.6001 124 64.6001 123.9V120.9V120.7H64.8001H66.3001H67.8001H69.2001Z" fill="#006EFF"/>
<path d="M77.3 123.6H70.9V124.6H77.3V123.6Z" fill="#006EFF"/>
<path d="M75.6 120.7H77.1H77.3V120.9V123.9C77.3 124 77.2 124.1 77.1 124.1C77 124.1 76.9 124 76.9 123.9V121.1H75.8V123.9C75.8 124 75.7 124.1 75.6 124.1C75.5 124.1 75.4 124 75.4 123.9V121.1H74.3V123.9C74.3 124 74.2 124.1 74.1 124.1C74 124.1 73.9 124 73.9 123.9V121.1H72.8V123.9C72.8 124 72.7 124.1 72.6 124.1C72.5 124.1 72.4 124 72.4 123.9V121.1H71.3V123.9C71.3 124 71.2 124.1 71.1 124.1C71 124.1 70.9 124 70.9 123.9V120.9V120.7H71.1H72.6H74.1H75.6Z" fill="#006EFF"/>
<path d="M45.7001 123.6H39.3V124.6H45.7001V123.6Z" fill="#006EFF"/>
<path d="M43.9001 120.7H45.4001H45.6001V120.9V123.9C45.6001 124 45.5001 124.1 45.4001 124.1C45.3001 124.1 45.2001 124 45.2001 123.9V121.1H44.1001V123.9C44.1001 124 44.0001 124.1 43.9001 124.1C43.8001 124.1 43.7001 124 43.7001 123.9V121.1H42.6001V123.9C42.6001 124 42.5001 124.1 42.4001 124.1C42.3001 124.1 42.2001 124 42.2001 123.9V121.1H41.1001V123.9C41.1001 124 41.0001 124.1 40.9001 124.1C40.8001 124.1 40.7001 124 40.7001 123.9V121.1H39.6001V123.9C39.6001 124 39.5001 124.1 39.4001 124.1C39.3001 124.1 39.2001 124 39.2001 123.9V120.9V120.7H39.4001H40.9001H42.4001H43.9001Z" fill="#006EFF"/>
<path d="M52.0001 123.6H45.6001V124.6H52.0001V123.6Z" fill="#006EFF"/>
<path d="M50.3001 120.7H51.8001H52.0001V120.9V123.9C52.0001 124 51.9001 124.1 51.8001 124.1C51.7001 124.1 51.6001 124 51.6001 123.9V121.1H50.5001V123.9C50.5001 124 50.4001 124.1 50.3001 124.1C50.2001 124.1 50.1001 124 50.1001 123.9V121.1H49.0001V123.9C49.0001 124 48.9001 124.1 48.8001 124.1C48.7001 124.1 48.6001 124 48.6001 123.9V121.1H47.5001V123.9C47.5001 124 47.4001 124.1 47.3001 124.1C47.2001 124.1 47.1001 124 47.1001 123.9V121.1H46.0001V123.9C46.0001 124 45.9001 124.1 45.8001 124.1C45.7001 124.1 45.6001 124 45.6001 123.9V120.9V120.7H45.8001H47.3001H48.8001H50.3001Z" fill="#006EFF"/>
<path d="M58.4 123.6H52V124.6H58.4V123.6Z" fill="#006EFF"/>
<path d="M56.7 120.7H58.2H58.4V120.9V123.9C58.4 124 58.3 124.1 58.2 124.1C58.1 124.1 58 124 58 123.9V121.1H56.9V123.9C56.9 124 56.8 124.1 56.7 124.1C56.6 124.1 56.5 124 56.5 123.9V121.1H55.4V123.9C55.4 124 55.3 124.1 55.2 124.1C55.1 124.1 55 124 55 123.9V121.1H53.9V123.9C53.9 124 53.8 124.1 53.7 124.1C53.6 124.1 53.5 124 53.5 123.9V121.1H52.4V123.9C52.4 124 52.3 124.1 52.2 124.1C52.1 124.1 52 124 52 123.9V120.9V120.7H52.2H53.7H55.2H56.7Z" fill="#006EFF"/>
<path fill-rule="evenodd" clip-rule="evenodd" d="M52.1 85.1V93.9H46.1V85.1H45.3V93.9V94.8V100.3V101.2V106.7V107.6V113.1V114V119.5V120.4V125.9V126.8V132.3V133.2V138.7V139.6V145.1V146V151.7V152.6H46.1H52.1H52.9001V151.7V146V145.1V139.6V138.7V133V132.1V126.6V125.7V120.2V119.3V113.8V113V107.5V106.6V101.1V100.2V94.7V93.8V85H52.1V85.1ZM52.1 151.4H46.1V145.7H52.1V151.4ZM52.1 144.8H46.1V139.3H52.1V144.8ZM52.1 138.5H46.1V133H52.1V138.5ZM52.1 132.1H46.1V126.6H52.1V132.1ZM52.1 125.7H46.1V120.2H52.1V125.7ZM52.1 119.3H46.1V113.8H52.1V119.3ZM52.1 113H46.1V107.5H52.1V113ZM52.1 106.6H46.1V101.1H52.1V106.6ZM52.1 100.2H46.1V94.7H52.1V100.2Z" fill="#006EFF"/>
<path d="M80.8 119.8H68.3V146.5H80.8V119.8Z" fill="#006EFF"/>
<path d="M25.0001 154.9H22.6001V157.3H25.0001V154.9Z" fill="#006EFF"/>
<path d="M28.5001 154.9H26.1001V157.3H28.5001V154.9Z" fill="#006EFF"/>
<path d="M32.1001 154.9H29.7001V157.3H32.1001V154.9Z" fill="#006EFF"/>
<path d="M145.5 7.5V9.9V31H136.8V9.9V7.5L139 6.2L141.2 5L143.3 6.2L145.5 7.5Z" fill="#006EFF"/>
<path fill-rule="evenodd" clip-rule="evenodd" d="M136.8 5V2.5L139 1.2L141.2 0L143.3 1.2L145.5 2.5V5L143.3 3.7L141.2 2.5L139 3.7L136.8 5Z" fill="#006EFF"/>
<path d="M24.3354 175H23.3101V170.023H24.3354V175ZM29.3359 175H28.3105L26.3145 171.726V175H25.2891V170.023H26.3145L28.314 173.305V170.023H29.3359V175ZM30.2314 175V170.023H31.7627C32.2002 170.023 32.591 170.123 32.9351 170.321C33.2814 170.517 33.5514 170.797 33.7451 171.162C33.9388 171.524 34.0356 171.936 34.0356 172.399V172.628C34.0356 173.09 33.9399 173.502 33.7485 173.862C33.5594 174.222 33.2917 174.501 32.9453 174.699C32.599 174.897 32.2082 174.998 31.7729 175H30.2314ZM31.2568 170.854V174.176H31.7524C32.1535 174.176 32.46 174.045 32.6719 173.783C32.8838 173.521 32.992 173.146 32.9966 172.659V172.396C32.9966 171.89 32.8918 171.507 32.6821 171.247C32.4725 170.985 32.166 170.854 31.7627 170.854H31.2568ZM38.5508 170.023V173.301C38.5508 173.846 38.3799 174.277 38.0381 174.593C37.6986 174.91 37.2337 175.068 36.6436 175.068C36.0625 175.068 35.6011 174.915 35.2593 174.607C34.9175 174.299 34.7432 173.877 34.7363 173.339V170.023H35.7617V173.308C35.7617 173.634 35.8392 173.872 35.9941 174.022C36.1514 174.171 36.3678 174.245 36.6436 174.245C37.2201 174.245 37.5129 173.942 37.522 173.335V170.023H38.5508ZM41.9722 173.694C41.9722 173.501 41.9038 173.353 41.7671 173.25C41.6304 173.145 41.3843 173.036 41.0288 172.922C40.6733 172.806 40.3919 172.692 40.1846 172.58C39.6195 172.275 39.3369 171.863 39.3369 171.346C39.3369 171.077 39.4121 170.838 39.5625 170.628C39.7152 170.417 39.9328 170.251 40.2153 170.133C40.5002 170.014 40.8192 169.955 41.1724 169.955C41.5278 169.955 41.8446 170.02 42.1226 170.15C42.4006 170.278 42.6159 170.459 42.7686 170.693C42.9235 170.928 43.001 171.195 43.001 171.493H41.9756C41.9756 171.265 41.9038 171.089 41.7603 170.963C41.6167 170.836 41.415 170.772 41.1553 170.772C40.9046 170.772 40.7098 170.826 40.5708 170.933C40.4318 171.037 40.3623 171.176 40.3623 171.35C40.3623 171.511 40.4432 171.647 40.605 171.756C40.769 171.866 41.0094 171.968 41.3262 172.064C41.9095 172.239 42.3345 172.457 42.6011 172.717C42.8677 172.977 43.001 173.3 43.001 173.688C43.001 174.118 42.8381 174.457 42.5122 174.703C42.1864 174.946 41.7477 175.068 41.1963 175.068C40.8135 175.068 40.4648 174.999 40.1504 174.86C39.8359 174.719 39.5955 174.526 39.4292 174.282C39.2651 174.038 39.1831 173.756 39.1831 173.435H40.2119C40.2119 173.984 40.54 174.258 41.1963 174.258C41.4401 174.258 41.6304 174.209 41.7671 174.111C41.9038 174.011 41.9722 173.872 41.9722 173.694ZM47.4443 170.854H45.9199V175H44.8945V170.854H43.3906V170.023H47.4443V170.854ZM49.8745 173.178H49.0576V175H48.0322V170.023H49.8813C50.4692 170.023 50.9227 170.154 51.2417 170.417C51.5607 170.679 51.7202 171.049 51.7202 171.527C51.7202 171.867 51.6462 172.151 51.498 172.378C51.3522 172.604 51.13 172.784 50.8315 172.918L51.9082 174.952V175H50.8076L49.8745 173.178ZM49.0576 172.348H49.8848C50.1423 172.348 50.3416 172.283 50.4829 172.153C50.6242 172.021 50.6948 171.84 50.6948 171.609C50.6948 171.375 50.6276 171.19 50.4932 171.056C50.361 170.921 50.1571 170.854 49.8813 170.854H49.0576V172.348ZM53.5933 175H52.5679V170.023H53.5933V175ZM57.418 173.975H55.6201L55.2783 175H54.188L56.0405 170.023H56.9907L58.8535 175H57.7632L57.418 173.975ZM55.897 173.144H57.1411L56.5156 171.281L55.897 173.144ZM60.3438 174.176H62.521V175H59.3184V170.023H60.3438V174.176ZM68.793 174.371C68.6084 174.592 68.3475 174.764 68.0103 174.887C67.673 175.008 67.2993 175.068 66.8892 175.068C66.4585 175.068 66.0802 174.975 65.7544 174.788C65.4308 174.599 65.1802 174.326 65.0024 173.968C64.827 173.61 64.737 173.19 64.7324 172.707V172.368C64.7324 171.871 64.8156 171.442 64.9819 171.08C65.1506 170.715 65.3921 170.437 65.7065 170.246C66.0233 170.052 66.3936 169.955 66.8174 169.955C67.4076 169.955 67.869 170.096 68.2017 170.379C68.5343 170.659 68.7314 171.068 68.793 171.606H67.7949C67.7493 171.321 67.6479 171.113 67.4907 170.98C67.3358 170.848 67.1216 170.782 66.8481 170.782C66.4995 170.782 66.234 170.913 66.0518 171.175C65.8695 171.437 65.7772 171.827 65.7749 172.344V172.662C65.7749 173.184 65.874 173.578 66.0723 173.845C66.2705 174.111 66.561 174.245 66.9438 174.245C67.3289 174.245 67.6035 174.163 67.7676 173.999V173.141H66.8345V172.385H68.793V174.371ZM72.4365 173.975H70.6387L70.2969 175H69.2065L71.0591 170.023H72.0093L73.8721 175H72.7817L72.4365 173.975ZM70.9155 173.144H72.1597L71.5342 171.281L70.9155 173.144ZM76.9175 173.694C76.9175 173.501 76.8491 173.353 76.7124 173.25C76.5757 173.145 76.3296 173.036 75.9741 172.922C75.6187 172.806 75.3372 172.692 75.1299 172.58C74.5648 172.275 74.2822 171.863 74.2822 171.346C74.2822 171.077 74.3574 170.838 74.5078 170.628C74.6605 170.417 74.8781 170.251 75.1606 170.133C75.4455 170.014 75.7645 169.955 76.1177 169.955C76.4731 169.955 76.7899 170.02 77.0679 170.15C77.3459 170.278 77.5612 170.459 77.7139 170.693C77.8688 170.928 77.9463 171.195 77.9463 171.493H76.9209C76.9209 171.265 76.8491 171.089 76.7056 170.963C76.562 170.836 76.3604 170.772 76.1006 170.772C75.8499 170.772 75.6551 170.826 75.5161 170.933C75.3771 171.037 75.3076 171.176 75.3076 171.35C75.3076 171.511 75.3885 171.647 75.5503 171.756C75.7144 171.866 75.9548 171.968 76.2715 172.064C76.8548 172.239 77.2798 172.457 77.5464 172.717C77.813 172.977 77.9463 173.3 77.9463 173.688C77.9463 174.118 77.7834 174.457 77.4575 174.703C77.1317 174.946 76.693 175.068 76.1416 175.068C75.7588 175.068 75.4102 174.999 75.0957 174.86C74.7812 174.719 74.5409 174.526 74.3745 174.282C74.2104 174.038 74.1284 173.756 74.1284 173.435H75.1572C75.1572 173.984 75.4854 174.258 76.1416 174.258C76.3854 174.258 76.5757 174.209 76.7124 174.111C76.8491 174.011 76.9175 173.872 76.9175 173.694ZM21.3789 181.247V183H20.3535V178.023H22.2949C22.6686 178.023 22.9967 178.092 23.2793 178.229C23.5641 178.365 23.7829 178.56 23.9355 178.813C24.0882 179.064 24.1646 179.35 24.1646 179.671C24.1646 180.159 23.9971 180.544 23.6621 180.826C23.3294 181.106 22.868 181.247 22.2778 181.247H21.3789ZM21.3789 180.416H22.2949C22.5661 180.416 22.7723 180.352 22.9136 180.225C23.0571 180.097 23.1289 179.915 23.1289 179.678C23.1289 179.434 23.0571 179.237 22.9136 179.086C22.77 178.936 22.5718 178.859 22.3188 178.854H21.3789V180.416ZM26.7144 181.178H25.8975V183H24.8721V178.023H26.7212C27.3091 178.023 27.7625 178.154 28.0815 178.417C28.4006 178.679 28.5601 179.049 28.5601 179.527C28.5601 179.867 28.486 180.151 28.3379 180.378C28.1921 180.604 27.9699 180.784 27.6714 180.918L28.748 182.952V183H27.6475L26.7144 181.178ZM25.8975 180.348H26.7246C26.9821 180.348 27.1815 180.283 27.3228 180.153C27.464 180.021 27.5347 179.84 27.5347 179.609C27.5347 179.375 27.4674 179.19 27.333 179.056C27.2008 178.921 26.9969 178.854 26.7212 178.854H25.8975V180.348ZM33.4307 180.625C33.4307 181.114 33.3441 181.544 33.1709 181.913C32.9977 182.282 32.7493 182.567 32.4258 182.768C32.1045 182.968 31.7354 183.068 31.3184 183.068C30.9059 183.068 30.5379 182.969 30.2144 182.771C29.8908 182.573 29.6401 182.29 29.4624 181.923C29.2847 181.554 29.1947 181.13 29.1924 180.652V180.406C29.1924 179.916 29.2801 179.485 29.4556 179.114C29.6333 178.74 29.8828 178.454 30.2041 178.256C30.5277 178.055 30.8968 177.955 31.3115 177.955C31.7262 177.955 32.0942 178.055 32.4155 178.256C32.7391 178.454 32.9886 178.74 33.1641 179.114C33.3418 179.485 33.4307 179.915 33.4307 180.402V180.625ZM32.3916 180.399C32.3916 179.877 32.2982 179.481 32.1113 179.209C31.9245 178.938 31.6579 178.803 31.3115 178.803C30.9674 178.803 30.702 178.937 30.5151 179.206C30.3283 179.473 30.2337 179.865 30.2314 180.382V180.625C30.2314 181.133 30.3249 181.527 30.5117 181.807C30.6986 182.087 30.9674 182.228 31.3184 182.228C31.6624 182.228 31.9268 182.093 32.1113 181.824C32.2959 181.553 32.3893 181.159 32.3916 180.642V180.399ZM34.1758 183V178.023H35.707C36.1445 178.023 36.5353 178.123 36.8794 178.321C37.2257 178.517 37.4958 178.797 37.6895 179.162C37.8831 179.524 37.98 179.936 37.98 180.399V180.628C37.98 181.09 37.8843 181.502 37.6929 181.862C37.5037 182.222 37.236 182.501 36.8896 182.699C36.5433 182.897 36.1525 182.998 35.7173 183H34.1758ZM35.2012 178.854V182.176H35.6968C36.0978 182.176 36.4043 182.045 36.6162 181.783C36.8281 181.521 36.9364 181.146 36.9409 180.659V180.396C36.9409 179.89 36.8361 179.507 36.6265 179.247C36.4168 178.985 36.1104 178.854 35.707 178.854H35.2012ZM42.4951 178.023V181.301C42.4951 181.846 42.3242 182.277 41.9824 182.593C41.6429 182.91 41.1781 183.068 40.5879 183.068C40.0068 183.068 39.5454 182.915 39.2036 182.607C38.8618 182.299 38.6875 181.877 38.6807 181.339V178.023H39.7061V181.308C39.7061 181.634 39.7835 181.872 39.9385 182.022C40.0957 182.171 40.3122 182.245 40.5879 182.245C41.1644 182.245 41.4572 181.942 41.4663 181.335V178.023H42.4951ZM47.2427 181.342C47.2039 181.878 47.0057 182.299 46.6479 182.607C46.2925 182.915 45.8231 183.068 45.2397 183.068C44.6017 183.068 44.0993 182.854 43.7324 182.426C43.3678 181.995 43.1855 181.405 43.1855 180.655V180.351C43.1855 179.873 43.2699 179.451 43.4385 179.086C43.6071 178.722 43.8475 178.443 44.1597 178.249C44.4741 178.053 44.8387 177.955 45.2534 177.955C45.8276 177.955 46.2902 178.109 46.6411 178.417C46.992 178.724 47.1948 179.156 47.2495 179.712H46.2241C46.1991 179.391 46.109 179.158 45.9541 179.015C45.8014 178.869 45.5679 178.796 45.2534 178.796C44.9116 178.796 44.6553 178.919 44.4844 179.165C44.3158 179.409 44.2292 179.788 44.2246 180.303V180.679C44.2246 181.217 44.3055 181.61 44.4673 181.858C44.6313 182.107 44.8888 182.231 45.2397 182.231C45.5565 182.231 45.7923 182.159 45.9473 182.016C46.1045 181.87 46.1945 181.645 46.2173 181.342H47.2427ZM51.5596 178.854H50.0352V183H49.0098V178.854H47.5059V178.023H51.5596V178.854ZM53.2378 183H52.2124V178.023H53.2378V183ZM58.2793 180.625C58.2793 181.114 58.1927 181.544 58.0195 181.913C57.8464 182.282 57.598 182.567 57.2744 182.768C56.9531 182.968 56.584 183.068 56.167 183.068C55.7546 183.068 55.3866 182.969 55.063 182.771C54.7394 182.573 54.4888 182.29 54.311 181.923C54.1333 181.554 54.0433 181.13 54.041 180.652V180.406C54.041 179.916 54.1287 179.485 54.3042 179.114C54.4819 178.74 54.7314 178.454 55.0527 178.256C55.3763 178.055 55.7454 177.955 56.1602 177.955C56.5749 177.955 56.9429 178.055 57.2642 178.256C57.5877 178.454 57.8372 178.74 58.0127 179.114C58.1904 179.485 58.2793 179.915 58.2793 180.402V180.625ZM57.2402 180.399C57.2402 179.877 57.1468 179.481 56.96 179.209C56.7731 178.938 56.5065 178.803 56.1602 178.803C55.8161 178.803 55.5506 178.937 55.3638 179.206C55.1769 179.473 55.0824 179.865 55.0801 180.382V180.625C55.0801 181.133 55.1735 181.527 55.3604 181.807C55.5472 182.087 55.8161 182.228 56.167 182.228C56.5111 182.228 56.7754 182.093 56.96 181.824C57.1445 181.553 57.238 181.159 57.2402 180.642V180.399ZM63.0713 183H62.0459L60.0498 179.726V183H59.0244V178.023H60.0498L62.0493 181.305V178.023H63.0713V183ZM69.4766 178.023V181.301C69.4766 181.846 69.3057 182.277 68.9639 182.593C68.6243 182.91 68.1595 183.068 67.5693 183.068C66.9883 183.068 66.5269 182.915 66.1851 182.607C65.8433 182.299 65.6689 181.877 65.6621 181.339V178.023H66.6875V181.308C66.6875 181.634 66.765 181.872 66.9199 182.022C67.0771 182.171 67.2936 182.245 67.5693 182.245C68.1458 182.245 68.4386 181.942 68.4478 181.335V178.023H69.4766ZM74.3643 183H73.3389L71.3428 179.726V183H70.3174V178.023H71.3428L73.3423 181.305V178.023H74.3643V183ZM76.3501 183H75.3247V178.023H76.3501V183ZM80.9473 178.854H79.4229V183H78.3975V178.854H76.8936V178.023H80.9473V178.854Z" fill="#00508C"/>
</g>
<defs>
<clipPath id="clip0">
<rect width="145.5" height="186" fill="white"/>
</clipPath>
</defs>
</svg>
