<svg width="207" height="197" viewBox="0 0 207 197" fill="none" xmlns="http://www.w3.org/2000/svg">
<g clip-path="url(#clip0)">
<path d="M0.1 11.6V9.09998L2.3 7.89998L4.4 6.59998L6.6 7.79998L8.8 8.99998V11.6L6.5 10.3L4.4 9.09998L2.2 10.3L0.1 11.6ZM95.5 53.8H21.3H10.1C7.3 53.8 4.8 52.7 3 50.8C1.2 49 0 46.5 0 43.7V37.6V16.6V14.1H0.1L2.3 12.9L4.4 11.6L6.6 12.8L8.8 14V16.5V25.2C8.8 32.7 8.8 31.6 8.8 43.7C8.8 44.1 9 44.5 9.2 44.7C9.4 44.9 9.8 45.1 10.2 45.1H21.3H95.6H106.7C109.5 45.1 112 46.2 113.8 48.1C115.6 49.9 116.8 52.4 116.8 55.2V105.7H108.2C108.2 96.5 108.1 68 108.1 55.2C108.1 54.8 107.9 54.4 107.7 54.2C107.5 54 107.1 53.8 106.7 53.8C106.7 53.8 95.5 53.8 95.5 53.8Z" fill="#006EFF"/>
<path d="M198 11.6V9.09998L200.1 7.79998L202.3 6.59998L204.4 7.79998L206.6 9.09998V11.6L204.4 10.3L202.3 9.09998L200.1 10.3L198 11.6Z" fill="#006EFF"/>
<path d="M180.8 53.8H196.5C199.3 53.8 201.8 52.7 203.6 50.8C205.4 49 206.6 46.5 206.6 43.7V37.6V37.3V36.9V36.5V36.1V35.7V35.4V35.1V34.8V34.5V34.2V33.9V33.6V33.3V33V32.7V32.6V32.4V32.2V32V31.8V31.6V31.4V31.2V31V30.8V30.6V30.4V30.1V29.8V29.5V29.2V28.9V28.6V28.3V28V27.7V27.4V27V26.6V26.2V25.6V25.2V24.8V24.3V23.8V23.3V22.8V22.3V21.7V21.1V20.5V19.9V19.2V16.5V14.3V14.1L204.4 12.9L202.3 11.6L200.1 12.8L198 14.1H197.9V16.6V37.6C197.9 39.2 197.9 41.2 197.9 43.7C197.9 44.1 197.7 44.5 197.5 44.7C197.3 44.9 196.9 45.1 196.5 45.1H180.8H169C166.2 45.1 163.7 46.2 161.9 48.1C160.1 49.9 158.9 52.4 158.9 55.2V105.7H167.5C167.5 96.5 167.6 68 167.6 55.2C167.6 54.8 167.8 54.4 168 54.2C168.2 54 168.6 53.8 169 53.8C169 53.8 180.8 53.8 180.8 53.8Z" fill="#006EFF"/>
<path fill-rule="evenodd" clip-rule="evenodd" d="M133.2 -25.1L137.6 -20L141.8 -25.1V59.1V69.8L139.7 72.4L137.5 75.2L135.4 72.4L133.2 69.8V59.1V-25.1Z" fill="#006EFF"/>
<path fill-rule="evenodd" clip-rule="evenodd" d="M113.2 172.2H161.8V153.1H138.1H113.2V172.2Z" fill="#006EFF"/>
<path d="M113.2 153.1H103.8V172.2H113.2V153.1Z" fill="#006EFF"/>
<path d="M171.9 153.1H161.8V172.2H171.9V153.1Z" fill="#006EFF"/>
<path d="M116.6 93.7H108.3V111.9H116.6V93.7Z" fill="#D7D5E8"/>
<path d="M142 93.7H133.7V111.9H142V93.7Z" fill="#D7D5E8"/>
<path d="M116.6 93.7H108.3V102.8H116.6V93.7Z" fill="#006EFF"/>
<path d="M142 93.7H133.7V102.8H142V93.7Z" fill="#006EFF"/>
<path d="M116.6 123H108.3V132H116.6V123Z" fill="#006EFF"/>
<path d="M142 123H133.7V132H142V123Z" fill="#006EFF"/>
<path d="M113.2 91.7H111.8V84.9C111.8 83.3 113.1 82.1 114.6 82.1V83.5C113.8 83.5 113.2 84.1 113.2 84.9V91.7V91.7Z" fill="#D7D5E8"/>
<path d="M138.6 91.7H137.2V84.9C137.2 84.1 136.6 83.5 135.8 83.5H114.6V82.1H135.8C137.4 82.1 138.6 83.4 138.6 84.9V91.7Z" fill="#D7D5E8"/>
<path fill-rule="evenodd" clip-rule="evenodd" d="M121.1 96.6V135.8C121.1 140.6 117.2 144.5 112.4 144.5C107.6 144.5 103.7 140.6 103.7 135.8V96.6H121.1Z" fill="#00508C"/>
<path fill-rule="evenodd" clip-rule="evenodd" d="M146.5 96.6V135.8C146.5 140.6 142.6 144.5 137.8 144.5C133 144.5 129.1 140.6 129.1 135.8V96.6H146.5Z" fill="#00508C"/>
<path fill-rule="evenodd" clip-rule="evenodd" d="M103.8 96.6H121.1L112.5 92.7L103.8 96.6Z" fill="#006EFF"/>
<path fill-rule="evenodd" clip-rule="evenodd" d="M129.2 96.6H146.5L137.8 92.7L129.2 96.6Z" fill="#006EFF"/>
<path d="M114.6 91.7H110.3V93.7H114.6V91.7Z" fill="#00508C"/>
<path d="M140 91.7H135.7V93.7H140V91.7Z" fill="#00508C"/>
<path d="M109.6 105.2H103.8V106.1H109.6V105.2Z" fill="#006EFF"/>
<path d="M108 102.6H109.4H109.6V102.8V105.5C109.6 105.6 109.5 105.7 109.4 105.7C109.3 105.7 109.2 105.6 109.2 105.5V103H108.2V105.5C108.2 105.6 108.1 105.7 108 105.7C107.9 105.7 107.8 105.6 107.8 105.5V103H106.8V105.5C106.8 105.6 106.7 105.7 106.6 105.7C106.5 105.7 106.4 105.6 106.4 105.5V103H105.4V105.5C105.4 105.6 105.3 105.7 105.2 105.7C105.1 105.7 105 105.6 105 105.5V103H104V105.5C104 105.6 103.9 105.7 103.8 105.7C103.7 105.7 103.6 105.6 103.6 105.5V102.8V102.6H103.8H105.1H106.4H108Z" fill="#006EFF"/>
<path d="M115.4 105.2H109.6V106.1H115.4V105.2Z" fill="#006EFF"/>
<path d="M113.8 102.6H115.2H115.4V102.8V105.5C115.4 105.6 115.3 105.7 115.2 105.7C115.1 105.7 115 105.6 115 105.5V103H114V105.5C114 105.6 113.9 105.7 113.8 105.7C113.7 105.7 113.6 105.6 113.6 105.5V103H112.6V105.5C112.6 105.6 112.5 105.7 112.4 105.7C112.3 105.7 112.2 105.6 112.2 105.5V103H111.2V105.5C111.2 105.6 111.1 105.7 111 105.7C110.9 105.7 110.8 105.6 110.8 105.5V103H109.8V105.5C109.8 105.6 109.7 105.7 109.6 105.7C109.5 105.7 109.4 105.6 109.4 105.5V102.8V102.6H109.6H110.9H112.2H113.8Z" fill="#006EFF"/>
<path d="M121.1 105.2H115.3V106.1H121.1V105.2Z" fill="#006EFF"/>
<path d="M119.6 102.6H121H121.2V102.8V105.5C121.2 105.6 121.1 105.7 121 105.7C120.9 105.7 120.8 105.6 120.8 105.5V103H119.8V105.5C119.8 105.6 119.7 105.7 119.6 105.7C119.5 105.7 119.4 105.6 119.4 105.5V103H118.4V105.5C118.4 105.6 118.3 105.7 118.2 105.7C118.1 105.7 118 105.6 118 105.5V103H117V105.5C117 105.6 116.9 105.7 116.8 105.7C116.7 105.7 116.6 105.6 116.6 105.5V103H115.6V105.5C115.6 105.6 115.5 105.7 115.4 105.7C115.3 105.7 115.2 105.6 115.2 105.5V102.8V102.6H115.4H116.7H118H119.6Z" fill="#006EFF"/>
<path d="M135 105.2H129.2V106.1H135V105.2Z" fill="#006EFF"/>
<path d="M133.4 102.6H134.8H135V102.8V105.5C135 105.6 134.9 105.7 134.8 105.7C134.7 105.7 134.6 105.6 134.6 105.5V103H133.6V105.5C133.6 105.6 133.5 105.7 133.4 105.7C133.3 105.7 133.2 105.6 133.2 105.5V103H132.2V105.5C132.2 105.6 132.1 105.7 132 105.7C131.9 105.7 131.8 105.6 131.8 105.5V103H130.8V105.5C130.8 105.6 130.7 105.7 130.6 105.7C130.5 105.7 130.4 105.6 130.4 105.5V103H129.4V105.5C129.4 105.6 129.3 105.7 129.2 105.7C129.1 105.7 129 105.6 129 105.5V102.8V102.6H129.2H130.5H131.8H133.4Z" fill="#006EFF"/>
<path d="M140.8 105.2H135V106.1H140.8V105.2Z" fill="#006EFF"/>
<path d="M139.2 102.6H140.6H140.8V102.8V105.5C140.8 105.6 140.7 105.7 140.6 105.7C140.5 105.7 140.4 105.6 140.4 105.5V103H139.4V105.5C139.4 105.6 139.3 105.7 139.2 105.7C139.1 105.7 139 105.6 139 105.5V103H138V105.5C138 105.6 137.9 105.7 137.8 105.7C137.7 105.7 137.6 105.6 137.6 105.5V103H136.6V105.5C136.6 105.6 136.5 105.7 136.4 105.7C136.3 105.7 136.2 105.6 136.2 105.5V103H135.2V105.5C135.2 105.6 135.1 105.7 135 105.7C134.9 105.7 134.8 105.6 134.8 105.5V102.8V102.6H135H136.3H137.6H139.2Z" fill="#006EFF"/>
<path d="M146.5 105.2H140.7V106.1H146.5V105.2Z" fill="#006EFF"/>
<path d="M145 102.6H146.4H146.6V102.8V105.5C146.6 105.6 146.5 105.7 146.4 105.7C146.3 105.7 146.2 105.6 146.2 105.5V103H145.2V105.5C145.2 105.6 145.1 105.7 145 105.7C144.9 105.7 144.8 105.6 144.8 105.5V103H143.8V105.5C143.8 105.6 143.7 105.7 143.6 105.7C143.5 105.7 143.4 105.6 143.4 105.5V103H142.4V105.5C142.4 105.6 142.3 105.7 142.2 105.7C142.1 105.7 142 105.6 142 105.5V103H141V105.5C141 105.6 140.9 105.7 140.8 105.7C140.7 105.7 140.6 105.6 140.6 105.5V102.8V102.6H140.8H142.1H143.4H145Z" fill="#006EFF"/>
<path d="M109.6 132.6H103.8V133.5H109.6V132.6Z" fill="#006EFF"/>
<path d="M108 130H109.4H109.6V130.2V132.9C109.6 133 109.5 133.1 109.4 133.1C109.3 133.1 109.2 133 109.2 132.9V130.4H108.2V132.9C108.2 133 108.1 133.1 108 133.1C107.9 133.1 107.8 133 107.8 132.9V130.4H106.8V132.9C106.8 133 106.7 133.1 106.6 133.1C106.5 133.1 106.4 133 106.4 132.9V130.4H105.4V132.9C105.4 133 105.3 133.1 105.2 133.1C105.1 133.1 105 133 105 132.9V130.4H104V132.9C104 133 103.9 133.1 103.8 133.1C103.7 133.1 103.6 133 103.6 132.9V130.2V130H103.8H105.1H106.4H108Z" fill="#006EFF"/>
<path d="M115.4 132.6H109.6V133.5H115.4V132.6Z" fill="#006EFF"/>
<path d="M113.8 130H115.2H115.4V130.2V132.9C115.4 133 115.3 133.1 115.2 133.1C115.1 133.1 115 133 115 132.9V130.4H114V132.9C114 133 113.9 133.1 113.8 133.1C113.7 133.1 113.6 133 113.6 132.9V130.4H112.6V132.9C112.6 133 112.5 133.1 112.4 133.1C112.3 133.1 112.2 133 112.2 132.9V130.4H111.2V132.9C111.2 133 111.1 133.1 111 133.1C110.9 133.1 110.8 133 110.8 132.9V130.4H109.8V132.9C109.8 133 109.7 133.1 109.6 133.1C109.5 133.1 109.4 133 109.4 132.9V130.2V130H109.6H110.9H112.2H113.8Z" fill="#006EFF"/>
<path d="M121.1 132.6H115.3V133.5H121.1V132.6Z" fill="#006EFF"/>
<path d="M119.6 130H121H121.2V130.2V132.9C121.2 133 121.1 133.1 121 133.1C120.9 133.1 120.8 133 120.8 132.9V130.4H119.8V132.9C119.8 133 119.7 133.1 119.6 133.1C119.5 133.1 119.4 133 119.4 132.9V130.4H118.4V132.9C118.4 133 118.3 133.1 118.2 133.1C118.1 133.1 118 133 118 132.9V130.4H117V132.9C117 133 116.9 133.1 116.8 133.1C116.7 133.1 116.6 133 116.6 132.9V130.4H115.6V132.9C115.6 133 115.5 133.1 115.4 133.1C115.3 133.1 115.2 133 115.2 132.9V130.2V130H115.4H116.7H118H119.6Z" fill="#006EFF"/>
<path d="M135 132.6H129.2V133.5H135V132.6Z" fill="#006EFF"/>
<path d="M133.4 130H134.8H135V130.2V132.9C135 133 134.9 133.1 134.8 133.1C134.7 133.1 134.6 133 134.6 132.9V130.4H133.6V132.9C133.6 133 133.5 133.1 133.4 133.1C133.3 133.1 133.2 133 133.2 132.9V130.4H132.2V132.9C132.2 133 132.1 133.1 132 133.1C131.9 133.1 131.8 133 131.8 132.9V130.4H130.8V132.9C130.8 133 130.7 133.1 130.6 133.1C130.5 133.1 130.4 133 130.4 132.9V130.4H129.4V132.9C129.4 133 129.3 133.1 129.2 133.1C129.1 133.1 129 133 129 132.9V130.2V130H129.2H130.5H131.8H133.4Z" fill="#006EFF"/>
<path d="M140.8 132.6H135V133.5H140.8V132.6Z" fill="#006EFF"/>
<path d="M139.2 130H140.6H140.8V130.2V132.9C140.8 133 140.7 133.1 140.6 133.1C140.5 133.1 140.4 133 140.4 132.9V130.4H139.4V132.9C139.4 133 139.3 133.1 139.2 133.1C139.1 133.1 139 133 139 132.9V130.4H138V132.9C138 133 137.9 133.1 137.8 133.1C137.7 133.1 137.6 133 137.6 132.9V130.4H136.6V132.9C136.6 133 136.5 133.1 136.4 133.1C136.3 133.1 136.2 133 136.2 132.9V130.4H135.2V132.9C135.2 133 135.1 133.1 135 133.1C134.9 133.1 134.8 133 134.8 132.9V130.2V130H135H136.3H137.6H139.2Z" fill="#006EFF"/>
<path d="M146.5 132.6H140.7V133.5H146.5V132.6Z" fill="#006EFF"/>
<path d="M145 130H146.4H146.6V130.2V132.9C146.6 133 146.5 133.1 146.4 133.1C146.3 133.1 146.2 133 146.2 132.9V130.4H145.2V132.9C145.2 133 145.1 133.1 145 133.1C144.9 133.1 144.8 133 144.8 132.9V130.4H143.8V132.9C143.8 133 143.7 133.1 143.6 133.1C143.5 133.1 143.4 133 143.4 132.9V130.4H142.4V132.9C142.4 133 142.3 133.1 142.2 133.1C142.1 133.1 142 133 142 132.9V130.4H141V132.9C141 133 140.9 133.1 140.8 133.1C140.7 133.1 140.6 133 140.6 132.9V130.2V130H140.8H142.1H143.4H145Z" fill="#006EFF"/>
<path d="M105.1 133H103.8V153.2H105.1V133Z" fill="#006EFF"/>
<path d="M130.5 133H129.2V153.2H130.5V133Z" fill="#006EFF"/>
<path d="M121.1 133H119.8V153.2H121.1V133Z" fill="#006EFF"/>
<path d="M146.5 133H145.2V153.2H146.5V133Z" fill="#006EFF"/>
<path d="M113.1 133H111.8V153.2H113.1V133Z" fill="#006EFF"/>
<path d="M138.5 133H137.2V153.2H138.5V133Z" fill="#006EFF"/>
<path d="M142 93.7H133.7V111.9H142V93.7Z" fill="#D7D5E8"/>
<path d="M167.4 93.7H159.1V111.9H167.4V93.7Z" fill="#D7D5E8"/>
<path d="M142 93.7H133.7V102.8H142V93.7Z" fill="#006EFF"/>
<path d="M167.4 93.7H159.1V102.8H167.4V93.7Z" fill="#006EFF"/>
<path d="M142 123H133.7V132H142V123Z" fill="#006EFF"/>
<path d="M167.4 123H159.1V132H167.4V123Z" fill="#006EFF"/>
<path d="M138.6 91.7H137.2V84.9C137.2 83.3 138.5 82.1 140 82.1V83.5C139.2 83.5 138.6 84.1 138.6 84.9V91.7Z" fill="#D7D5E8"/>
<path d="M164 91.7H162.6V84.9C162.6 84.1 162 83.5 161.2 83.5H140V82.1H161.2C162.8 82.1 164 83.4 164 84.9V91.7Z" fill="#D7D5E8"/>
<path fill-rule="evenodd" clip-rule="evenodd" d="M146.5 96.6V135.8C146.5 140.6 142.6 144.5 137.8 144.5C133 144.5 129.1 140.6 129.1 135.8V96.6H146.5Z" fill="#00508C"/>
<path fill-rule="evenodd" clip-rule="evenodd" d="M171.9 96.6V135.8C171.9 140.6 168 144.5 163.2 144.5C158.4 144.5 154.5 140.6 154.5 135.8V96.6H171.9Z" fill="#00508C"/>
<path fill-rule="evenodd" clip-rule="evenodd" d="M129.2 96.6H146.5L137.8 92.7L129.2 96.6Z" fill="#006EFF"/>
<path fill-rule="evenodd" clip-rule="evenodd" d="M154.6 96.6H171.9L163.2 92.7L154.6 96.6Z" fill="#006EFF"/>
<path d="M140 91.7H135.7V93.7H140V91.7Z" fill="#00508C"/>
<path d="M165.4 91.7H161.1V93.7H165.4V91.7Z" fill="#00508C"/>
<path d="M135 105.2H129.2V106.1H135V105.2Z" fill="#006EFF"/>
<path d="M133.4 102.6H134.8H135V102.8V105.5C135 105.6 134.9 105.7 134.8 105.7C134.7 105.7 134.6 105.6 134.6 105.5V103H133.6V105.5C133.6 105.6 133.5 105.7 133.4 105.7C133.3 105.7 133.2 105.6 133.2 105.5V103H132.2V105.5C132.2 105.6 132.1 105.7 132 105.7C131.9 105.7 131.8 105.6 131.8 105.5V103H130.8V105.5C130.8 105.6 130.7 105.7 130.6 105.7C130.5 105.7 130.4 105.6 130.4 105.5V103H129.4V105.5C129.4 105.6 129.3 105.7 129.2 105.7C129.1 105.7 129 105.6 129 105.5V102.8V102.6H129.2H130.5H131.8H133.4Z" fill="#006EFF"/>
<path d="M140.8 105.2H135V106.1H140.8V105.2Z" fill="#006EFF"/>
<path d="M139.2 102.6H140.6H140.8V102.8V105.5C140.8 105.6 140.7 105.7 140.6 105.7C140.5 105.7 140.4 105.6 140.4 105.5V103H139.4V105.5C139.4 105.6 139.3 105.7 139.2 105.7C139.1 105.7 139 105.6 139 105.5V103H138V105.5C138 105.6 137.9 105.7 137.8 105.7C137.7 105.7 137.6 105.6 137.6 105.5V103H136.6V105.5C136.6 105.6 136.5 105.7 136.4 105.7C136.3 105.7 136.2 105.6 136.2 105.5V103H135.2V105.5C135.2 105.6 135.1 105.7 135 105.7C134.9 105.7 134.8 105.6 134.8 105.5V102.8V102.6H135H136.3H137.6H139.2Z" fill="#006EFF"/>
<path d="M146.5 105.2H140.7V106.1H146.5V105.2Z" fill="#006EFF"/>
<path d="M145 102.6H146.4H146.6V102.8V105.5C146.6 105.6 146.5 105.7 146.4 105.7C146.3 105.7 146.2 105.6 146.2 105.5V103H145.2V105.5C145.2 105.6 145.1 105.7 145 105.7C144.9 105.7 144.8 105.6 144.8 105.5V103H143.8V105.5C143.8 105.6 143.7 105.7 143.6 105.7C143.5 105.7 143.4 105.6 143.4 105.5V103H142.4V105.5C142.4 105.6 142.3 105.7 142.2 105.7C142.1 105.7 142 105.6 142 105.5V103H141V105.5C141 105.6 140.9 105.7 140.8 105.7C140.7 105.7 140.6 105.6 140.6 105.5V102.8V102.6H140.8H142.1H143.4H145Z" fill="#006EFF"/>
<path d="M160.4 105.2H154.6V106.1H160.4V105.2Z" fill="#006EFF"/>
<path d="M158.8 102.6H160.2H160.4V102.8V105.5C160.4 105.6 160.3 105.7 160.2 105.7C160.1 105.7 160 105.6 160 105.5V103H159V105.5C159 105.6 158.9 105.7 158.8 105.7C158.7 105.7 158.6 105.6 158.6 105.5V103H157.6V105.5C157.6 105.6 157.5 105.7 157.4 105.7C157.3 105.7 157.2 105.6 157.2 105.5V103H156.2V105.5C156.2 105.6 156.1 105.7 156 105.7C155.9 105.7 155.8 105.6 155.8 105.5V103H154.8V105.5C154.8 105.6 154.7 105.7 154.6 105.7C154.5 105.7 154.4 105.6 154.4 105.5V102.8V102.6H154.6H155.9H157.2H158.8Z" fill="#006EFF"/>
<path d="M166.1 105.2H160.3V106.1H166.1V105.2Z" fill="#006EFF"/>
<path d="M164.6 102.6H166H166.2V102.8V105.5C166.2 105.6 166.1 105.7 166 105.7C165.9 105.7 165.8 105.6 165.8 105.5V103H164.8V105.5C164.8 105.6 164.7 105.7 164.6 105.7C164.5 105.7 164.4 105.6 164.4 105.5V103H163.4V105.5C163.4 105.6 163.3 105.7 163.2 105.7C163.1 105.7 163 105.6 163 105.5V103H162V105.5C162 105.6 161.9 105.7 161.8 105.7C161.7 105.7 161.6 105.6 161.6 105.5V103H160.6V105.5C160.6 105.6 160.5 105.7 160.4 105.7C160.3 105.7 160.2 105.6 160.2 105.5V102.8V102.6H160.4H161.7H163H164.6Z" fill="#006EFF"/>
<path d="M171.9 105.2H166.1V106.1H171.9V105.2Z" fill="#006EFF"/>
<path d="M170.4 102.6H171.8H172V102.8V105.5C172 105.6 171.9 105.7 171.8 105.7C171.7 105.7 171.6 105.6 171.6 105.5V103H170.6V105.5C170.6 105.6 170.5 105.7 170.4 105.7C170.3 105.7 170.2 105.6 170.2 105.5V103H169.2V105.5C169.2 105.6 169.1 105.7 169 105.7C168.9 105.7 168.8 105.6 168.8 105.5V103H167.8V105.5C167.8 105.6 167.7 105.7 167.6 105.7C167.5 105.7 167.4 105.6 167.4 105.5V103H166.4V105.5C166.4 105.6 166.3 105.7 166.2 105.7C166.1 105.7 166 105.6 166 105.5V102.8V102.6H166.2H167.5H168.8H170.4Z" fill="#006EFF"/>
<path d="M135 132.6H129.2V133.5H135V132.6Z" fill="#006EFF"/>
<path d="M133.4 130H134.8H135V130.2V132.9C135 133 134.9 133.1 134.8 133.1C134.7 133.1 134.6 133 134.6 132.9V130.4H133.6V132.9C133.6 133 133.5 133.1 133.4 133.1C133.3 133.1 133.2 133 133.2 132.9V130.4H132.2V132.9C132.2 133 132.1 133.1 132 133.1C131.9 133.1 131.8 133 131.8 132.9V130.4H130.8V132.9C130.8 133 130.7 133.1 130.6 133.1C130.5 133.1 130.4 133 130.4 132.9V130.4H129.4V132.9C129.4 133 129.3 133.1 129.2 133.1C129.1 133.1 129 133 129 132.9V130.2V130H129.2H130.5H131.8H133.4Z" fill="#006EFF"/>
<path d="M140.8 132.6H135V133.5H140.8V132.6Z" fill="#006EFF"/>
<path d="M139.2 130H140.6H140.8V130.2V132.9C140.8 133 140.7 133.1 140.6 133.1C140.5 133.1 140.4 133 140.4 132.9V130.4H139.4V132.9C139.4 133 139.3 133.1 139.2 133.1C139.1 133.1 139 133 139 132.9V130.4H138V132.9C138 133 137.9 133.1 137.8 133.1C137.7 133.1 137.6 133 137.6 132.9V130.4H136.6V132.9C136.6 133 136.5 133.1 136.4 133.1C136.3 133.1 136.2 133 136.2 132.9V130.4H135.2V132.9C135.2 133 135.1 133.1 135 133.1C134.9 133.1 134.8 133 134.8 132.9V130.2V130H135H136.3H137.6H139.2Z" fill="#006EFF"/>
<path d="M146.5 132.6H140.7V133.5H146.5V132.6Z" fill="#006EFF"/>
<path d="M145 130H146.4H146.6V130.2V132.9C146.6 133 146.5 133.1 146.4 133.1C146.3 133.1 146.2 133 146.2 132.9V130.4H145.2V132.9C145.2 133 145.1 133.1 145 133.1C144.9 133.1 144.8 133 144.8 132.9V130.4H143.8V132.9C143.8 133 143.7 133.1 143.6 133.1C143.5 133.1 143.4 133 143.4 132.9V130.4H142.4V132.9C142.4 133 142.3 133.1 142.2 133.1C142.1 133.1 142 133 142 132.9V130.4H141V132.9C141 133 140.9 133.1 140.8 133.1C140.7 133.1 140.6 133 140.6 132.9V130.2V130H140.8H142.1H143.4H145Z" fill="#006EFF"/>
<path d="M160.4 132.6H154.6V133.5H160.4V132.6Z" fill="#006EFF"/>
<path d="M158.8 130H160.2H160.4V130.2V132.9C160.4 133 160.3 133.1 160.2 133.1C160.1 133.1 160 133 160 132.9V130.4H159V132.9C159 133 158.9 133.1 158.8 133.1C158.7 133.1 158.6 133 158.6 132.9V130.4H157.6V132.9C157.6 133 157.5 133.1 157.4 133.1C157.3 133.1 157.2 133 157.2 132.9V130.4H156.2V132.9C156.2 133 156.1 133.1 156 133.1C155.9 133.1 155.8 133 155.8 132.9V130.4H154.8V132.9C154.8 133 154.7 133.1 154.6 133.1C154.5 133.1 154.4 133 154.4 132.9V130.2V130H154.6H155.9H157.2H158.8Z" fill="#006EFF"/>
<path d="M166.1 132.6H160.3V133.5H166.1V132.6Z" fill="#006EFF"/>
<path d="M164.6 130H166H166.2V130.2V132.9C166.2 133 166.1 133.1 166 133.1C165.9 133.1 165.8 133 165.8 132.9V130.4H164.8V132.9C164.8 133 164.7 133.1 164.6 133.1C164.5 133.1 164.4 133 164.4 132.9V130.4H163.4V132.9C163.4 133 163.3 133.1 163.2 133.1C163.1 133.1 163 133 163 132.9V130.4H162V132.9C162 133 161.9 133.1 161.8 133.1C161.7 133.1 161.6 133 161.6 132.9V130.4H160.6V132.9C160.6 133 160.5 133.1 160.4 133.1C160.3 133.1 160.2 133 160.2 132.9V130.2V130H160.4H161.7H163H164.6Z" fill="#006EFF"/>
<path d="M171.9 132.6H166.1V133.5H171.9V132.6Z" fill="#006EFF"/>
<path d="M170.4 130H171.8H172V130.2V132.9C172 133 171.9 133.1 171.8 133.1C171.7 133.1 171.6 133 171.6 132.9V130.4H170.6V132.9C170.6 133 170.5 133.1 170.4 133.1C170.3 133.1 170.2 133 170.2 132.9V130.4H169.2V132.9C169.2 133 169.1 133.1 169 133.1C168.9 133.1 168.8 133 168.8 132.9V130.4H167.8V132.9C167.8 133 167.7 133.1 167.6 133.1C167.5 133.1 167.4 133 167.4 132.9V130.4H166.4V132.9C166.4 133 166.3 133.1 166.2 133.1C166.1 133.1 166 133 166 132.9V130.2V130H166.2H167.5H168.8H170.4Z" fill="#006EFF"/>
<path d="M130.5 133H129.2V153.2H130.5V133Z" fill="#006EFF"/>
<path d="M155.9 133H154.6V153.2H155.9V133Z" fill="#006EFF"/>
<path d="M146.5 133H145.2V153.2H146.5V133Z" fill="#006EFF"/>
<path d="M171.9 133H170.6V153.2H171.9V133Z" fill="#006EFF"/>
<path d="M138.5 133H137.2V153.2H138.5V133Z" fill="#006EFF"/>
<path d="M163.9 133H162.6V153.2H163.9V133Z" fill="#006EFF"/>
<path d="M135.2 161.5H132.8V163.9H135.2V161.5Z" fill="#006EFF"/>
<path d="M138.7 161.5H136.3V163.9H138.7V161.5Z" fill="#006EFF"/>
<path d="M142.2 161.5H139.8V163.9H142.2V161.5Z" fill="#006EFF"/>
</g>
<path d="M99.0117 180.148C98.9544 180.755 98.7305 181.229 98.3398 181.57C97.9492 181.909 97.4297 182.078 96.7812 182.078C96.3281 182.078 95.9284 181.971 95.582 181.758C95.2383 181.542 94.9727 181.236 94.7852 180.84C94.5977 180.444 94.5 179.984 94.4922 179.461V178.93C94.4922 178.393 94.5872 177.921 94.7773 177.512C94.9674 177.103 95.2396 176.788 95.5938 176.566C95.9505 176.345 96.362 176.234 96.8281 176.234C97.4557 176.234 97.9609 176.405 98.3438 176.746C98.7266 177.087 98.9492 177.569 99.0117 178.191H98.0273C97.9805 177.783 97.8607 177.488 97.668 177.309C97.4779 177.126 97.1979 177.035 96.8281 177.035C96.3984 177.035 96.0677 177.193 95.8359 177.508C95.6068 177.82 95.4896 178.28 95.4844 178.887V179.391C95.4844 180.005 95.5938 180.474 95.8125 180.797C96.0339 181.12 96.3568 181.281 96.7812 181.281C97.1693 181.281 97.4609 181.194 97.6562 181.02C97.8516 180.845 97.9753 180.555 98.0273 180.148H99.0117ZM101.945 179.285L103.086 176.312H104.184L102.203 181.031L102.023 181.387C101.763 181.85 101.341 182.082 100.758 182.082L100.352 182.059L100.359 181.277C100.422 181.288 100.533 181.293 100.691 181.293C100.973 181.293 101.171 181.173 101.285 180.934L101.488 180.453L99.543 176.312H100.621L101.945 179.285ZM112.16 183.398H111.223V182H107.477V183.398H106.523L106.492 181.211H106.949C107.176 180.992 107.357 180.674 107.492 180.258C107.628 179.839 107.715 179.365 107.754 178.836L107.902 176.312H111.488V181.211H112.211L112.16 183.398ZM108.066 181.211H110.504V177.109H108.844L108.75 178.711C108.68 179.781 108.452 180.615 108.066 181.211ZM116.199 180.676H113.996L113.535 182H112.508L114.656 176.312H115.543L117.695 182H116.664L116.199 180.676ZM114.273 179.879H115.922L115.098 177.52L114.273 179.879ZM121.148 182V179.875H120.047L118.949 182H117.891L119.16 179.582C118.499 179.27 118.168 178.758 118.168 178.047C118.168 177.503 118.346 177.079 118.703 176.777C119.062 176.473 119.562 176.318 120.203 176.312H122.137V182H121.148ZM119.152 178.09C119.152 178.41 119.242 178.66 119.422 178.84C119.602 179.02 119.871 179.109 120.23 179.109H121.148V177.109H120.23C119.866 177.109 119.595 177.197 119.418 177.371C119.241 177.546 119.152 177.785 119.152 178.09ZM124.301 179.887V182H123.312V176.312H125.488C126.124 176.312 126.628 176.478 127 176.809C127.375 177.139 127.562 177.577 127.562 178.121C127.562 178.678 127.379 179.112 127.012 179.422C126.647 179.732 126.135 179.887 125.477 179.887H124.301ZM124.301 179.094H125.488C125.84 179.094 126.108 179.012 126.293 178.848C126.478 178.681 126.57 178.441 126.57 178.129C126.57 177.822 126.477 177.577 126.289 177.395C126.102 177.21 125.844 177.115 125.516 177.109H124.301V179.094ZM132.332 176.312V182H131.348V177.109H129.605L129.504 179.309C129.465 179.996 129.38 180.53 129.25 180.91C129.122 181.288 128.936 181.564 128.691 181.738C128.447 181.913 128.118 182 127.707 182H127.457V181.211L127.613 181.199C127.84 181.178 128.014 181.099 128.137 180.961C128.262 180.823 128.355 180.615 128.418 180.336C128.483 180.055 128.529 179.642 128.555 179.098L128.664 176.312H132.332ZM136.777 180.676H134.574L134.113 182H133.086L135.234 176.312H136.121L138.273 182H137.242L136.777 180.676ZM134.852 179.879H136.5L135.676 177.52L134.852 179.879ZM140.969 179.285L142.109 176.312H143.207L141.227 181.031L141.047 181.387C140.786 181.85 140.365 182.082 139.781 182.082L139.375 182.059L139.383 181.277C139.445 181.288 139.556 181.293 139.715 181.293C139.996 181.293 140.194 181.173 140.309 180.934L140.512 180.453L138.566 176.312H139.645L140.969 179.285ZM150.371 179.547H149.734V182H148.75V179.547H148.086L146.691 182H145.461L147.293 178.973L145.582 176.312H146.777L148.137 178.688H148.75V176.312H149.734V178.688H150.32L151.668 176.312H152.859L151.164 178.965L152.98 182H151.754L150.371 179.547ZM155.348 176.234C156.181 176.234 156.835 176.477 157.309 176.961C157.785 177.445 158.023 178.117 158.023 178.977V179.395C158.023 179.897 157.919 180.355 157.711 180.77C157.503 181.184 157.212 181.507 156.84 181.738C156.47 181.967 156.065 182.081 155.625 182.078C154.865 182.078 154.273 181.849 153.852 181.391C153.432 180.932 153.223 180.275 153.223 179.418V178.883H157.035C157.022 178.299 156.87 177.852 156.578 177.539C156.289 177.227 155.879 177.07 155.348 177.07C154.913 177.07 154.499 177.138 154.105 177.273L153.902 177.348L153.711 176.574L153.816 176.523C154.249 176.331 154.759 176.234 155.348 176.234ZM155.625 181.25C156.016 181.25 156.335 181.108 156.582 180.824C156.829 180.54 156.977 180.152 157.023 179.66H154.207V179.781C154.207 180.263 154.328 180.629 154.57 180.879C154.812 181.126 155.164 181.25 155.625 181.25ZM163.531 182H162.547V179.473H160.004V182H159.016V176.312H160.004V178.68H162.547V176.312H163.531V182ZM168.027 179.461H165.691V181.211H168.422V182H164.703V176.312H168.395V177.109H165.691V178.68H168.027V179.461ZM175.559 180.148C175.501 180.755 175.277 181.229 174.887 181.57C174.496 181.909 173.977 182.078 173.328 182.078C172.875 182.078 172.475 181.971 172.129 181.758C171.785 181.542 171.52 181.236 171.332 180.84C171.145 180.444 171.047 179.984 171.039 179.461V178.93C171.039 178.393 171.134 177.921 171.324 177.512C171.514 177.103 171.786 176.788 172.141 176.566C172.497 176.345 172.909 176.234 173.375 176.234C174.003 176.234 174.508 176.405 174.891 176.746C175.273 177.087 175.496 177.569 175.559 178.191H174.574C174.527 177.783 174.408 177.488 174.215 177.309C174.025 177.126 173.745 177.035 173.375 177.035C172.945 177.035 172.615 177.193 172.383 177.508C172.154 177.82 172.036 178.28 172.031 178.887V179.391C172.031 180.005 172.141 180.474 172.359 180.797C172.581 181.12 172.904 181.281 173.328 181.281C173.716 181.281 174.008 181.194 174.203 181.02C174.398 180.845 174.522 180.555 174.574 180.148H175.559ZM178.492 179.285L179.633 176.312H180.73L178.75 181.031L178.57 181.387C178.31 181.85 177.888 182.082 177.305 182.082L176.898 182.059L176.906 181.277C176.969 181.288 177.079 181.293 177.238 181.293C177.52 181.293 177.717 181.173 177.832 180.934L178.035 180.453L176.09 176.312H177.168L178.492 179.285ZM109.336 186.109H107.562V191H106.582V186.109H104.824V185.312H109.336V186.109ZM112.801 189.676H110.598L110.137 191H109.109L111.258 185.312H112.145L114.297 191H113.266L112.801 189.676ZM110.875 188.879H112.523L111.699 186.52L110.875 188.879ZM117.789 186.863C117.789 186.608 117.693 186.405 117.5 186.254C117.307 186.103 117.046 186.027 116.715 186.027C116.431 186.027 116.194 186.103 116.004 186.254C115.814 186.402 115.719 186.595 115.719 186.832H114.734C114.734 186.522 114.82 186.246 114.992 186.004C115.164 185.762 115.402 185.574 115.707 185.441C116.012 185.306 116.348 185.238 116.715 185.238C117.366 185.238 117.871 185.38 118.23 185.664C118.592 185.948 118.773 186.345 118.773 186.855C118.773 187.113 118.695 187.35 118.539 187.566C118.383 187.783 118.164 187.953 117.883 188.078C118.201 188.188 118.443 188.354 118.609 188.578C118.779 188.799 118.863 189.076 118.863 189.406C118.863 189.917 118.668 190.323 118.277 190.625C117.887 190.924 117.366 191.074 116.715 191.074C116.314 191.074 115.951 191.003 115.625 190.859C115.302 190.716 115.059 190.521 114.895 190.273C114.733 190.026 114.652 189.742 114.652 189.422H115.637C115.637 189.667 115.738 189.874 115.941 190.043C116.145 190.21 116.402 190.293 116.715 190.293C117.064 190.293 117.344 190.211 117.555 190.047C117.768 189.883 117.875 189.669 117.875 189.406C117.875 189.086 117.781 188.854 117.594 188.711C117.409 188.565 117.137 188.492 116.777 188.492H116.109V187.711H116.742C117.44 187.711 117.789 187.428 117.789 186.863ZM122.965 189.676H120.762L120.301 191H119.273L121.422 185.312H122.309L124.461 191H123.43L122.965 189.676ZM121.039 188.879H122.688L121.863 186.52L121.039 188.879ZM129.652 185.312V191H128.668V186.109H126.926L126.824 188.309C126.785 188.996 126.701 189.53 126.57 189.91C126.443 190.288 126.257 190.564 126.012 190.738C125.767 190.913 125.439 191 125.027 191H124.777V190.211L124.934 190.199C125.16 190.178 125.335 190.099 125.457 189.961C125.582 189.823 125.676 189.615 125.738 189.336C125.803 189.055 125.849 188.642 125.875 188.098L125.984 185.312H129.652ZM134.098 189.676H131.895L131.434 191H130.406L132.555 185.312H133.441L135.594 191H134.562L134.098 189.676ZM132.172 188.879H133.82L132.996 186.52L132.172 188.879ZM138.289 188.285L139.43 185.312H140.527L138.547 190.031L138.367 190.387C138.107 190.85 137.685 191.082 137.102 191.082L136.695 191.059L136.703 190.277C136.766 190.288 136.876 190.293 137.035 190.293C137.316 190.293 137.514 190.173 137.629 189.934L137.832 189.453L135.887 185.312H136.965L138.289 188.285ZM146.867 186.109H144.246V187.488H145.41C145.827 187.488 146.19 187.56 146.5 187.703C146.81 187.846 147.046 188.049 147.207 188.312C147.368 188.576 147.449 188.88 147.449 189.227C147.449 189.758 147.268 190.185 146.906 190.508C146.547 190.831 146.056 190.995 145.434 191H143.258V185.312H146.867V186.109ZM144.246 188.281V190.211H145.406C145.74 190.211 145.999 190.121 146.184 189.941C146.371 189.759 146.465 189.518 146.465 189.219C146.465 188.932 146.374 188.706 146.191 188.539C146.009 188.372 145.757 188.286 145.434 188.281H144.246ZM152.777 185.312V191H151.793V186.109H150.051L149.949 188.309C149.91 188.996 149.826 189.53 149.695 189.91C149.568 190.288 149.382 190.564 149.137 190.738C148.892 190.913 148.564 191 148.152 191H147.902V190.211L148.059 190.199C148.285 190.178 148.46 190.099 148.582 189.961C148.707 189.823 148.801 189.615 148.863 189.336C148.928 189.055 148.974 188.642 149 188.098L149.109 185.312H152.777ZM158.508 188.305C158.508 188.862 158.411 189.352 158.219 189.773C158.026 190.193 157.75 190.516 157.391 190.742C157.034 190.966 156.622 191.078 156.156 191.078C155.695 191.078 155.284 190.966 154.922 190.742C154.562 190.516 154.284 190.194 154.086 189.777C153.891 189.361 153.792 188.88 153.789 188.336V188.016C153.789 187.461 153.887 186.971 154.082 186.547C154.28 186.122 154.557 185.798 154.914 185.574C155.273 185.348 155.685 185.234 156.148 185.234C156.612 185.234 157.022 185.346 157.379 185.57C157.738 185.792 158.016 186.112 158.211 186.531C158.406 186.948 158.505 187.434 158.508 187.988V188.305ZM157.52 188.008C157.52 187.378 157.4 186.895 157.16 186.559C156.923 186.223 156.586 186.055 156.148 186.055C155.721 186.055 155.387 186.223 155.145 186.559C154.905 186.892 154.783 187.365 154.777 187.977V188.305C154.777 188.93 154.898 189.413 155.141 189.754C155.385 190.095 155.724 190.266 156.156 190.266C156.594 190.266 156.93 190.099 157.164 189.766C157.401 189.432 157.52 188.945 157.52 188.305V188.008ZM163.129 186.109H160.504V191H159.52V185.312H163.129V186.109ZM164.969 187.488H166.133C166.549 187.488 166.913 187.56 167.223 187.703C167.533 187.846 167.768 188.049 167.93 188.312C168.091 188.576 168.172 188.88 168.172 189.227C168.172 189.758 167.991 190.185 167.629 190.508C167.27 190.831 166.779 190.995 166.156 191H163.98V185.312H164.969V187.488ZM169.719 191H168.734V185.312H169.719V191ZM164.969 188.281V190.211H166.129C166.462 190.211 166.721 190.121 166.906 189.941C167.094 189.759 167.188 189.518 167.188 189.219C167.188 188.932 167.096 188.706 166.914 188.539C166.732 188.372 166.479 188.286 166.156 188.281H164.969Z" fill="#00508C"/>
<defs>
<clipPath id="clip0">
<rect width="206.6" height="194.1" fill="white"/>
</clipPath>
</defs>
</svg>
