<?xml version="1.0" encoding="utf-8"?>
<!-- Generator: Adobe Illustrator 24.0.1, SVG Export Plug-In . SVG Version: 6.00 Build 0)  -->
<svg version="1.1" id="Layer_1" xmlns="http://www.w3.org/2000/svg" xmlns:xlink="http://www.w3.org/1999/xlink" x="0px" y="0px"
	 viewBox="0 0 161.5 179" style="enable-background:new 0 0 161.5 179;" xml:space="preserve">
<style type="text/css">
	.st0{fill-rule:evenodd;clip-rule:evenodd;fill:#382E86;}
	.st1{fill-rule:evenodd;clip-rule:evenodd;fill:#A6A5D1;}
	.st2{fill-rule:evenodd;clip-rule:evenodd;fill:#D7D5E8;}
	.st3{fill-rule:evenodd;clip-rule:evenodd;fill:#5E519C;}
	.st4{fill:#382E86;}
	.st5{fill:#5E519C;}
	.st6{fill:#A6A5D1;}
	.st7{fill-rule:evenodd;clip-rule:evenodd;fill:#E1171D;}
	.st8{fill:#3D2777;}
</style>
<g>
	<rect x="80.9" y="44.7" class="st0" width="8.6" height="1.4"/>
</g>
<g>
	<rect x="69.6" y="59.5" class="st1" width="1.4" height="119.7"/>
</g>
<g>
	<rect x="90.9" y="59.5" class="st1" width="1.4" height="119.7"/>
</g>
<g>
	<rect x="47.2" y="59.5" class="st1" width="1.4" height="119.7"/>
</g>
<g>
	<rect x="112.2" y="59.5" class="st1" width="1.4" height="119.7"/>
</g>
<g>
	<rect x="78.2" y="59.5" class="st1" width="1.4" height="119.7"/>
</g>
<g>
	<rect x="99.5" y="59.5" class="st1" width="1.4" height="119.7"/>
</g>
<g>
	<rect x="56.9" y="59.5" class="st1" width="1.4" height="119.7"/>
</g>
<g>
	<rect x="121.9" y="59.5" class="st1" width="1.4" height="119.7"/>
</g>
<g>
	<rect x="82.2" y="46.1" class="st2" width="6.1" height="7.3"/>
</g>
<g>
	<rect x="80.9" y="50.7" class="st1" width="8.6" height="128.5"/>
</g>
<g>
	<rect x="80.9" y="59.5" class="st0" width="8.6" height="5.4"/>
</g>
<g>
	<rect x="79" y="91.3" class="st2" width="12.5" height="27.5"/>
</g>
<g>
	<rect x="79" y="91.3" class="st3" width="12.5" height="13.7"/>
</g>
<g>
	<rect x="79" y="135.5" class="st3" width="12.5" height="13.5"/>
</g>
<g>
	<rect x="80.9" y="52.7" class="st0" width="8.6" height="1.4"/>
</g>
<g>
	<path class="st4" d="M87.2,48.8L87.2,48.8L87.2,48.8h2h0.3v0.3v4c0,0.2-0.1,0.3-0.3,0.3c-0.2,0-0.3-0.1-0.3-0.3v-3.8h-1.5v3.8
		c0,0.2-0.1,0.3-0.3,0.3c-0.2,0-0.3-0.1-0.3-0.3v-3.8h-1.5v3.8c0,0.2-0.1,0.3-0.3,0.3c-0.2,0-0.3-0.1-0.3-0.3v-3.8h-1.5v3.8
		c0,0.2-0.1,0.3-0.3,0.3c-0.2,0-0.3-0.1-0.3-0.3v-3.8h-1.5v3.8c0,0.2-0.1,0.3-0.3,0.3c-0.2,0-0.3-0.1-0.3-0.3v-4v-0.3h0.3h2l0,0l0,0
		h2l0,0l0,0H87.2z"/>
</g>
<g>
	<path class="st5" d="M120.3,179.8h-1.5V88.2c0-1.5-1.2-2.7-2.7-2.7h-5.2V84h5.2c2.3,0,4.2,1.9,4.2,4.2V179.8z"/>
</g>
<g>
	<path class="st5" d="M51.6,179.8h-1.5V88.2c0-2.3,1.9-4.2,4.2-4.2h5.2v1.5h-5.2c-1.5,0-2.7,1.2-2.7,2.7V179.8z"/>
</g>
<g>
	<rect x="110.9" y="81.3" class="st0" width="2.4" height="6.8"/>
</g>
<g>
	<rect x="57.2" y="81.3" class="st0" width="2.4" height="6.8"/>
</g>
<g>
	<rect x="60.9" y="46.1" class="st2" width="6.1" height="7.3"/>
</g>
<g>
	<rect x="59.6" y="50.7" class="st1" width="8.6" height="128.5"/>
</g>
<g>
	<rect x="59.6" y="59.5" class="st0" width="8.6" height="5.4"/>
</g>
<g>
	<rect x="57.7" y="91.3" class="st2" width="12.5" height="27.5"/>
</g>
<g>
	<rect x="57.7" y="91.3" class="st3" width="12.5" height="13.7"/>
</g>
<g>
	<rect x="57.7" y="135.5" class="st2" width="12.5" height="27.5"/>
</g>
<g>
	<rect x="57.7" y="135.5" class="st3" width="12.5" height="13.5"/>
</g>
<g>
	<rect x="59.6" y="44.7" class="st0" width="8.6" height="1.4"/>
</g>
<g>
	<rect x="59.6" y="52.7" class="st0" width="8.6" height="1.4"/>
</g>
<g>
	<path class="st4" d="M65.9,48.8L65.9,48.8L65.9,48.8h2h0.3v0.3v4c0,0.2-0.1,0.3-0.3,0.3c-0.2,0-0.3-0.1-0.3-0.3v-3.8h-1.5v3.8
		c0,0.2-0.1,0.3-0.3,0.3c-0.2,0-0.3-0.1-0.3-0.3v-3.8H64v3.8c0,0.2-0.1,0.3-0.3,0.3s-0.3-0.1-0.3-0.3v-3.8h-1.5v3.8
		c0,0.2-0.1,0.3-0.3,0.3s-0.3-0.1-0.3-0.3v-3.8h-1.5v3.8c0,0.2-0.1,0.3-0.3,0.3s-0.3-0.1-0.3-0.3v-4v-0.3h0.3h2l0,0l0,0h2l0,0l0,0
		H65.9z"/>
</g>
<g>
	<rect x="103.5" y="46.1" class="st2" width="6.1" height="7.3"/>
</g>
<g>
	<rect x="102.2" y="50.7" class="st1" width="8.6" height="128.5"/>
</g>
<g>
	<rect x="102.2" y="59.5" class="st0" width="8.6" height="5.4"/>
</g>
<g>
	<rect x="100.3" y="91.3" class="st2" width="12.5" height="27.5"/>
</g>
<g>
	<rect x="100.3" y="91.3" class="st3" width="12.5" height="13.7"/>
</g>
<g>
	<rect x="100.3" y="135.5" class="st2" width="12.5" height="27.5"/>
</g>
<g>
	<rect x="100.3" y="135.5" class="st3" width="12.5" height="13.5"/>
</g>
<g>
	<rect x="102.2" y="44.7" class="st0" width="8.6" height="1.4"/>
</g>
<g>
	<rect x="102.2" y="52.7" class="st0" width="8.6" height="1.4"/>
</g>
<g>
	<path class="st4" d="M108.5,48.8L108.5,48.8L108.5,48.8h2h0.3v0.3v4c0,0.2-0.1,0.3-0.3,0.3c-0.2,0-0.3-0.1-0.3-0.3v-3.8h-1.4v3.8
		c0,0.2-0.1,0.3-0.3,0.3c-0.2,0-0.3-0.1-0.3-0.3v-3.8h-1.4v3.8c0,0.2-0.1,0.3-0.3,0.3c-0.2,0-0.3-0.1-0.3-0.3v-3.8h-1.4v3.8
		c0,0.2-0.1,0.3-0.3,0.3c-0.2,0-0.3-0.1-0.3-0.3v-3.8h-1.4v3.8c0,0.2-0.1,0.3-0.3,0.3c-0.2,0-0.3-0.1-0.3-0.3v-4v-0.3h0.3h2l0,0l0,0
		h2l0,0l0,0H108.5z"/>
</g>
<g>
	<polygon class="st4" points="115.9,118.3 115.3,118.3 115.3,109.7 97.8,109.7 97.8,118.3 97.2,118.3 97.2,109.2 115.9,109.2 	"/>
</g>
<g>
	<path class="st4" d="M115.4,118.2l-8.9-8.4l-8.9,8.4l-0.4-0.4l9.1-8.5c0.1-0.1,0.3-0.1,0.4,0l9.1,8.5L115.4,118.2z"/>
</g>
<g>
	<polygon class="st4" points="115.9,127.1 115.3,127.1 115.3,118.5 97.8,118.5 97.8,127.1 97.2,127.1 97.2,118 115.9,118 	"/>
</g>
<g>
	<path class="st4" d="M115.4,127l-8.9-8.4l-8.9,8.4l-0.4-0.4l9.1-8.5c0.1-0.1,0.3-0.1,0.4,0l9.1,8.5L115.4,127z"/>
</g>
<g>
	<polygon class="st4" points="115.9,135.9 115.3,135.9 115.3,127.4 97.8,127.4 97.8,135.9 97.2,135.9 97.2,126.8 115.9,126.8 	"/>
</g>
<g>
	<path class="st4" d="M115.4,135.8l-8.9-8.4l-8.9,8.4l-0.4-0.4l9.1-8.5c0.1-0.1,0.3-0.1,0.4,0l9.1,8.5L115.4,135.8z"/>
</g>
<g>
	<polygon class="st4" points="115.9,144.8 115.3,144.8 115.3,136.2 97.8,136.2 97.8,144.8 97.2,144.8 97.2,135.6 115.9,135.6 	"/>
</g>
<g>
	<path class="st4" d="M115.4,144.7l-8.9-8.4l-8.9,8.4l-0.4-0.4l9.1-8.5c0.1-0.1,0.3-0.1,0.4,0l9.1,8.5L115.4,144.7z"/>
</g>
<g>
	<polygon class="st4" points="115.9,153.6 115.3,153.6 115.3,145 97.8,145 97.8,153.6 97.2,153.6 97.2,144.5 115.9,144.5 	"/>
</g>
<g>
	<path class="st4" d="M115.4,153.5l-8.9-8.4l-8.9,8.4l-0.4-0.4l9.1-8.5c0.1-0.1,0.3-0.1,0.4,0l9.1,8.5L115.4,153.5z"/>
</g>
<g>
	<polygon class="st4" points="115.9,162.4 115.3,162.4 115.3,153.9 97.8,153.9 97.8,162.4 97.2,162.4 97.2,153.3 115.9,153.3 	"/>
</g>
<g>
	<path class="st4" d="M115.4,162.3l-8.9-8.4l-8.9,8.4l-0.4-0.4l9.1-8.5c0.1-0.1,0.3-0.1,0.4,0l9.1,8.5L115.4,162.3z"/>
</g>
<g>
	<polygon class="st4" points="115.9,171.2 115.3,171.2 115.3,162.7 97.8,162.7 97.8,171.2 97.2,171.2 97.2,162.1 115.9,162.1 	"/>
</g>
<g>
	<path class="st4" d="M115.4,171.2l-8.9-8.4l-8.9,8.4l-0.4-0.4l9.1-8.5c0.1-0.1,0.3-0.1,0.4,0l9.1,8.5L115.4,171.2z"/>
</g>
<g>
	<polygon class="st4" points="115.9,180.1 115.3,180.1 115.3,171.5 97.8,171.5 97.8,180.1 97.2,180.1 97.2,171 115.9,171 	"/>
</g>
<g>
	<path class="st4" d="M115.4,180l-8.9-8.4l-8.9,8.4l-0.4-0.4l9.1-8.5c0.1-0.1,0.3-0.1,0.4,0l9.1,8.5L115.4,180z"/>
</g>
<g>
	<polygon class="st4" points="73.3,118.3 72.7,118.3 72.7,109.7 55.2,109.7 55.2,118.3 54.6,118.3 54.6,109.2 73.3,109.2 	"/>
</g>
<g>
	<path class="st4" d="M55.1,118.2l-0.4-0.4l9.1-8.5c0.1-0.1,0.3-0.1,0.4,0l9.1,8.5l-0.4,0.4l-8.9-8.4L55.1,118.2z"/>
</g>
<g>
	<polygon class="st4" points="73.3,127.1 72.7,127.1 72.7,118.5 55.2,118.5 55.2,127.1 54.6,127.1 54.6,118 73.3,118 	"/>
</g>
<g>
	<path class="st4" d="M55.1,127l-0.4-0.4l9.1-8.5c0.1-0.1,0.3-0.1,0.4,0l9.1,8.5l-0.4,0.4l-8.9-8.4L55.1,127z"/>
</g>
<g>
	<polygon class="st4" points="73.3,135.9 72.7,135.9 72.7,127.4 55.2,127.4 55.2,135.9 54.6,135.9 54.6,126.8 73.3,126.8 	"/>
</g>
<g>
	<path class="st4" d="M55.1,135.8l-0.4-0.4l9.1-8.5c0.1-0.1,0.3-0.1,0.4,0l9.1,8.5l-0.4,0.4l-8.9-8.4L55.1,135.8z"/>
</g>
<g>
	<polygon class="st4" points="73.3,144.8 72.7,144.8 72.7,136.2 55.2,136.2 55.2,144.8 54.6,144.8 54.6,135.6 73.3,135.6 	"/>
</g>
<g>
	<path class="st4" d="M55.1,144.7l-0.4-0.4l9.1-8.5c0.1-0.1,0.3-0.1,0.4,0l9.1,8.5l-0.4,0.4l-8.9-8.4L55.1,144.7z"/>
</g>
<g>
	<polygon class="st4" points="73.3,153.6 72.7,153.6 72.7,145 55.2,145 55.2,153.6 54.6,153.6 54.6,144.5 73.3,144.5 	"/>
</g>
<g>
	<path class="st4" d="M55.1,153.5l-0.4-0.4l9.1-8.5c0.1-0.1,0.3-0.1,0.4,0l9.1,8.5l-0.4,0.4l-8.9-8.4L55.1,153.5z"/>
</g>
<g>
	<polygon class="st4" points="73.3,162.4 72.7,162.4 72.7,153.9 55.2,153.9 55.2,162.4 54.6,162.4 54.6,153.3 73.3,153.3 	"/>
</g>
<g>
	<path class="st4" d="M55.1,162.3l-0.4-0.4l9.1-8.5c0.1-0.1,0.3-0.1,0.4,0l9.1,8.5l-0.4,0.4l-8.9-8.4L55.1,162.3z"/>
</g>
<g>
	<polygon class="st4" points="73.3,171.2 72.7,171.2 72.7,162.7 55.2,162.7 55.2,171.2 54.6,171.2 54.6,162.1 73.3,162.1 	"/>
</g>
<g>
	<path class="st4" d="M55.1,171.2l-0.4-0.4l9.1-8.5c0.1-0.1,0.3-0.1,0.4,0l9.1,8.5l-0.4,0.4l-8.9-8.4L55.1,171.2z"/>
</g>
<g>
	<polygon class="st4" points="73.3,180.1 72.7,180.1 72.7,171.5 55.2,171.5 55.2,180.1 54.6,180.1 54.6,171 73.3,171 	"/>
</g>
<g>
	<path class="st4" d="M55.1,180l-0.4-0.4l9.1-8.5c0.1-0.1,0.3-0.1,0.4,0l9.1,8.5l-0.4,0.4l-8.9-8.4L55.1,180z"/>
</g>
<g>
	<polygon class="st6" points="124.9,118.3 124.4,118.3 124.4,109.7 106.8,109.7 106.8,118.3 106.3,118.3 106.3,109.2 124.9,109.2 	
		"/>
</g>
<g>
	<path class="st6" d="M106.7,118.2l-0.4-0.4l9.1-8.5c0.1-0.1,0.3-0.1,0.4,0l9.1,8.5l-0.4,0.4l-8.9-8.4L106.7,118.2z"/>
</g>
<g>
	<polygon class="st6" points="124.9,127.1 124.4,127.1 124.4,118.5 106.8,118.5 106.8,127.1 106.3,127.1 106.3,118 124.9,118 	"/>
</g>
<g>
	<path class="st6" d="M106.7,127l-0.4-0.4l9.1-8.5c0.1-0.1,0.3-0.1,0.4,0l9.1,8.5l-0.4,0.4l-8.9-8.4L106.7,127z"/>
</g>
<g>
	<polygon class="st6" points="124.9,135.9 124.4,135.9 124.4,127.4 106.8,127.4 106.8,135.9 106.3,135.9 106.3,126.8 124.9,126.8 	
		"/>
</g>
<g>
	<path class="st6" d="M106.7,135.8l-0.4-0.4l9.1-8.5c0.1-0.1,0.3-0.1,0.4,0l9.1,8.5l-0.4,0.4l-8.9-8.4L106.7,135.8z"/>
</g>
<g>
	<polygon class="st6" points="124.9,144.8 124.4,144.8 124.4,136.2 106.8,136.2 106.8,144.8 106.3,144.8 106.3,135.6 124.9,135.6 	
		"/>
</g>
<g>
	<path class="st6" d="M106.7,144.7l-0.4-0.4l9.1-8.5c0.1-0.1,0.3-0.1,0.4,0l9.1,8.5l-0.4,0.4l-8.9-8.4L106.7,144.7z"/>
</g>
<g>
	<polygon class="st6" points="124.9,153.6 124.4,153.6 124.4,145 106.8,145 106.8,153.6 106.3,153.6 106.3,144.5 124.9,144.5 	"/>
</g>
<g>
	<path class="st6" d="M106.7,153.5l-0.4-0.4l9.1-8.5c0.1-0.1,0.3-0.1,0.4,0l9.1,8.5l-0.4,0.4l-8.9-8.4L106.7,153.5z"/>
</g>
<g>
	<polygon class="st6" points="124.9,162.4 124.4,162.4 124.4,153.9 106.8,153.9 106.8,162.4 106.3,162.4 106.3,153.3 124.9,153.3 	
		"/>
</g>
<g>
	<path class="st6" d="M106.7,162.3l-0.4-0.4l9.1-8.5c0.1-0.1,0.3-0.1,0.4,0l9.1,8.5l-0.4,0.4l-8.9-8.4L106.7,162.3z"/>
</g>
<g>
	<polygon class="st6" points="124.9,171.2 124.4,171.2 124.4,162.7 106.8,162.7 106.8,171.2 106.3,171.2 106.3,162.1 124.9,162.1 	
		"/>
</g>
<g>
	<path class="st6" d="M106.7,171.2l-0.4-0.4l9.1-8.5c0.1-0.1,0.3-0.1,0.4,0l9.1,8.5l-0.4,0.4l-8.9-8.4L106.7,171.2z"/>
</g>
<g>
	<polygon class="st6" points="124.9,180.1 124.4,180.1 124.4,171.5 106.8,171.5 106.8,180.1 106.3,180.1 106.3,171 124.9,171 	"/>
</g>
<g>
	<path class="st6" d="M106.7,180l-0.4-0.4l9.1-8.5c0.1-0.1,0.3-0.1,0.4,0l9.1,8.5l-0.4,0.4l-8.9-8.4L106.7,180z"/>
</g>
<g>
	<polygon class="st6" points="64.2,118.3 63.6,118.3 63.6,109.7 46.1,109.7 46.1,118.3 45.5,118.3 45.5,109.2 64.2,109.2 	"/>
</g>
<g>
	<path class="st6" d="M63.7,118.2l-8.9-8.4l-8.9,8.4l-0.4-0.4l9.1-8.5c0.1-0.1,0.3-0.1,0.4,0l9.1,8.5L63.7,118.2z"/>
</g>
<g>
	<polygon class="st6" points="64.2,127.1 63.6,127.1 63.6,118.5 46.1,118.5 46.1,127.1 45.5,127.1 45.5,118 64.2,118 	"/>
</g>
<g>
	<path class="st6" d="M63.7,127l-8.9-8.4l-8.9,8.4l-0.4-0.4l9.1-8.5c0.1-0.1,0.3-0.1,0.4,0l9.1,8.5L63.7,127z"/>
</g>
<g>
	<polygon class="st6" points="64.2,135.9 63.6,135.9 63.6,127.4 46.1,127.4 46.1,135.9 45.5,135.9 45.5,126.8 64.2,126.8 	"/>
</g>
<g>
	<path class="st6" d="M63.7,135.8l-8.9-8.4l-8.9,8.4l-0.4-0.4l9.1-8.5c0.1-0.1,0.3-0.1,0.4,0l9.1,8.5L63.7,135.8z"/>
</g>
<g>
	<polygon class="st6" points="64.2,144.8 63.6,144.8 63.6,136.2 46.1,136.2 46.1,144.8 45.5,144.8 45.5,135.6 64.2,135.6 	"/>
</g>
<g>
	<path class="st6" d="M63.7,144.7l-8.9-8.4l-8.9,8.4l-0.4-0.4l9.1-8.5c0.1-0.1,0.3-0.1,0.4,0l9.1,8.5L63.7,144.7z"/>
</g>
<g>
	<polygon class="st6" points="64.2,153.6 63.6,153.6 63.6,145 46.1,145 46.1,153.6 45.5,153.6 45.5,144.5 64.2,144.5 	"/>
</g>
<g>
	<path class="st6" d="M63.7,153.5l-8.9-8.4l-8.9,8.4l-0.4-0.4l9.1-8.5c0.1-0.1,0.3-0.1,0.4,0l9.1,8.5L63.7,153.5z"/>
</g>
<g>
	<polygon class="st6" points="64.2,162.4 63.6,162.4 63.6,153.9 46.1,153.9 46.1,162.4 45.5,162.4 45.5,153.3 64.2,153.3 	"/>
</g>
<g>
	<path class="st6" d="M63.7,162.3l-8.9-8.4l-8.9,8.4l-0.4-0.4l9.1-8.5c0.1-0.1,0.3-0.1,0.4,0l9.1,8.5L63.7,162.3z"/>
</g>
<g>
	<polygon class="st6" points="64.2,171.2 63.6,171.2 63.6,162.7 46.1,162.7 46.1,171.2 45.5,171.2 45.5,162.1 64.2,162.1 	"/>
</g>
<g>
	<path class="st6" d="M63.7,171.2l-8.9-8.4l-8.9,8.4l-0.4-0.4l9.1-8.5c0.1-0.1,0.3-0.1,0.4,0l9.1,8.5L63.7,171.2z"/>
</g>
<g>
	<polygon class="st6" points="64.2,180.1 63.6,180.1 63.6,171.5 46.1,171.5 46.1,180.1 45.5,180.1 45.5,171 64.2,171 	"/>
</g>
<g>
	<path class="st6" d="M63.7,180l-8.9-8.4l-8.9,8.4l-0.4-0.4l9.1-8.5c0.1-0.1,0.3-0.1,0.4,0l9.1,8.5L63.7,180z"/>
</g>
<g>
	<polygon class="st6" points="28.4,74.3 27.8,74.3 27.8,65.2 37.2,65.2 37.2,65.7 28.4,65.7 	"/>
</g>
<g>
	
		<rect x="26.4" y="69.5" transform="matrix(0.7274 -0.6862 0.6862 0.7274 -38.9749 41.4414)" class="st6" width="12.5" height="0.6"/>
</g>
<g>
	<polygon class="st6" points="28.4,83.1 27.8,83.1 27.8,74 37.2,74 37.2,74.6 28.4,74.6 	"/>
</g>
<g>
	
		<rect x="26.4" y="78.3" transform="matrix(0.7274 -0.6862 0.6862 0.7274 -45.0082 43.8293)" class="st6" width="12.5" height="0.6"/>
</g>
<g>
	<polygon class="st6" points="28.4,92 27.8,92 27.8,82.8 37.2,82.8 37.2,83.4 28.4,83.4 	"/>
</g>
<g>
	
		<rect x="26.4" y="87.1" transform="matrix(0.7274 -0.6862 0.6862 0.7274 -51.0419 46.2178)" class="st6" width="12.5" height="0.6"/>
</g>
<g>
	<polygon class="st6" points="28.4,100.8 27.8,100.8 27.8,91.7 37.2,91.7 37.2,92.2 28.4,92.2 	"/>
</g>
<g>
	<rect x="26.4" y="96" transform="matrix(0.7274 -0.6862 0.6862 0.7274 -57.1608 48.6689)" class="st6" width="12.5" height="0.6"/>
</g>
<g>
	<polygon class="st6" points="28.4,109.6 27.8,109.6 27.8,100.5 37.2,100.5 37.2,101.1 28.4,101.1 	"/>
</g>
<g>
	
		<rect x="26.4" y="104.8" transform="matrix(0.7274 -0.6862 0.6862 0.7274 -63.1943 51.0571)" class="st6" width="12.5" height="0.6"/>
</g>
<g>
	<polygon class="st6" points="28.4,118.4 27.8,118.4 27.8,109.3 37.2,109.3 37.2,109.9 28.4,109.9 	"/>
</g>
<g>
	
		<rect x="26.4" y="113.6" transform="matrix(0.7274 -0.6862 0.6862 0.7274 -69.2277 53.4451)" class="st6" width="12.5" height="0.6"/>
</g>
<g>
	<polygon class="st6" points="28.4,127.3 27.8,127.3 27.8,118.2 37.2,118.2 37.2,118.7 28.4,118.7 	"/>
</g>
<g>
	
		<rect x="26.4" y="122.3" transform="matrix(0.7274 -0.6862 0.6862 0.7274 -75.2614 55.8334)" class="st6" width="12.5" height="0.6"/>
</g>
<g>
	<polygon class="st6" points="28.4,136.1 27.8,136.1 27.8,127 37.2,127 37.2,127.6 28.4,127.6 	"/>
</g>
<g>
	
		<rect x="26.4" y="131.3" transform="matrix(0.7274 -0.6862 0.6862 0.7274 -81.3802 58.2845)" class="st6" width="12.5" height="0.6"/>
</g>
<g>
	<polygon class="st6" points="37.5,74.3 36.9,74.3 36.9,65.7 28.1,65.7 28.1,65.2 37.5,65.2 	"/>
</g>
<g>
	
		<rect x="32.4" y="63.4" transform="matrix(0.6864 -0.7272 0.7272 0.6864 -40.4133 45.6503)" class="st6" width="0.6" height="12.5"/>
</g>
<g>
	<polygon class="st6" points="37.5,83.1 36.9,83.1 36.9,74.6 28.1,74.6 28.1,74 37.5,74 	"/>
</g>
<g>
	
		<rect x="32.4" y="72.2" transform="matrix(0.6864 -0.7272 0.7272 0.6864 -46.8063 48.3973)" class="st6" width="0.6" height="12.5"/>
</g>
<g>
	<polygon class="st6" points="37.5,92 36.9,92 36.9,83.4 28.1,83.4 28.1,82.8 37.5,82.8 	"/>
</g>
<g>
	
		<rect x="32.4" y="81.1" transform="matrix(0.6864 -0.7272 0.7272 0.6864 -53.2646 51.1453)" class="st6" width="0.6" height="12.5"/>
</g>
<g>
	<polygon class="st6" points="37.5,100.8 36.9,100.8 36.9,92.2 28.1,92.2 28.1,91.7 37.5,91.7 	"/>
</g>
<g>
	
		<rect x="32.4" y="89.9" transform="matrix(0.6864 -0.7272 0.7272 0.6864 -59.6864 53.963)" class="st6" width="0.6" height="12.5"/>
</g>
<g>
	<polygon class="st6" points="37.5,109.6 36.9,109.6 36.9,101.1 28.1,101.1 28.1,100.5 37.5,100.5 	"/>
</g>
<g>
	<rect x="32.4" y="98.7" transform="matrix(0.6864 -0.7272 0.7272 0.6864 -66.08 56.7103)" class="st6" width="0.6" height="12.5"/>
</g>
<g>
	<polygon class="st6" points="37.5,118.4 36.9,118.4 36.9,109.9 28.1,109.9 28.1,109.3 37.5,109.3 	"/>
</g>
<g>
	
		<rect x="32.4" y="107.6" transform="matrix(0.6865 -0.7272 0.7272 0.6865 -72.5377 59.4584)" class="st6" width="0.6" height="12.5"/>
</g>
<g>
	<polygon class="st6" points="37.5,127.3 36.9,127.3 36.9,118.7 28.1,118.7 28.1,118.2 37.5,118.2 	"/>
</g>
<g>
	
		<rect x="32.4" y="116.4" transform="matrix(0.6864 -0.7272 0.7272 0.6864 -78.9583 62.2797)" class="st6" width="0.6" height="12.5"/>
</g>
<g>
	<polygon class="st6" points="37.5,136.1 36.9,136.1 36.9,127.6 28.1,127.6 28.1,127 37.5,127 	"/>
</g>
<g>
	
		<rect x="32.4" y="125.2" transform="matrix(0.6864 -0.7272 0.7272 0.6864 -85.3527 65.0233)" class="st6" width="0.6" height="12.5"/>
</g>
<g>
	<polygon class="st6" points="28.4,144.9 27.8,144.9 27.8,135.8 37.2,135.8 37.2,136.4 28.4,136.4 	"/>
</g>
<g>
	
		<rect x="26.4" y="140.1" transform="matrix(0.7274 -0.6862 0.6862 0.7274 -87.4139 60.6729)" class="st6" width="12.5" height="0.6"/>
</g>
<g>
	<polygon class="st6" points="28.4,153.8 27.8,153.8 27.8,144.7 37.2,144.7 37.2,145.2 28.4,145.2 	"/>
</g>
<g>
	
		<rect x="26.4" y="148.8" transform="matrix(0.7274 -0.6862 0.6862 0.7274 -93.4472 63.0607)" class="st6" width="12.5" height="0.6"/>
</g>
<g>
	<polygon class="st6" points="28.4,162.6 27.8,162.6 27.8,153.5 37.2,153.5 37.2,154 28.4,154 	"/>
</g>
<g>
	
		<rect x="26.4" y="157.8" transform="matrix(0.7274 -0.6862 0.6862 0.7274 -99.5665 65.5128)" class="st6" width="12.5" height="0.6"/>
</g>
<g>
	<polygon class="st6" points="28.4,171.4 27.8,171.4 27.8,162.3 37.2,162.3 37.2,162.9 28.4,162.9 	"/>
</g>
<g>
	
		<rect x="26.4" y="166.6" transform="matrix(0.7274 -0.6862 0.6862 0.7274 -105.5997 67.9002)" class="st6" width="12.5" height="0.6"/>
</g>
<g>
	<polygon class="st6" points="28.4,180.3 27.8,180.3 27.8,171.1 37.2,171.1 37.2,171.7 28.4,171.7 	"/>
</g>
<g>
	
		<rect x="26.4" y="175.4" transform="matrix(0.7274 -0.6862 0.6862 0.7274 -111.6332 70.2884)" class="st6" width="12.5" height="0.6"/>
</g>
<g>
	<polygon class="st6" points="37.5,144.9 36.9,144.9 36.9,136.4 28.1,136.4 28.1,135.8 37.5,135.8 	"/>
</g>
<g>
	
		<rect x="32.4" y="134.1" transform="matrix(0.6864 -0.7272 0.7272 0.6864 -91.8093 67.7739)" class="st6" width="0.6" height="12.5"/>
</g>
<g>
	<polygon class="st6" points="37.5,153.8 36.9,153.8 36.9,145.2 28.1,145.2 28.1,144.7 37.5,144.7 	"/>
</g>
<g>
	
		<rect x="32.4" y="143" transform="matrix(0.6865 -0.7272 0.7272 0.6865 -98.2315 70.5937)" class="st6" width="0.6" height="12.5"/>
</g>
<g>
	<polygon class="st6" points="37.5,162.6 36.9,162.6 36.9,154 28.1,154 28.1,153.5 37.5,153.5 	"/>
</g>
<g>
	
		<rect x="32.4" y="151.7" transform="matrix(0.6864 -0.7272 0.7272 0.6864 -104.625 73.3396)" class="st6" width="0.6" height="12.5"/>
</g>
<g>
	<polygon class="st6" points="37.5,171.4 36.9,171.4 36.9,162.9 28.1,162.9 28.1,162.3 37.5,162.3 	"/>
</g>
<g>
	
		<rect x="32.4" y="160.5" transform="matrix(0.6864 -0.7272 0.7272 0.6864 -111.0198 76.0817)" class="st6" width="0.6" height="12.5"/>
</g>
<g>
	<polygon class="st6" points="37.5,180.3 36.9,180.3 36.9,171.7 28.1,171.7 28.1,171.1 37.5,171.1 	"/>
</g>
<g>
	
		<rect x="32.4" y="169.4" transform="matrix(0.6864 -0.7272 0.7272 0.6864 -117.4759 78.8338)" class="st6" width="0.6" height="12.5"/>
</g>
<g>
	<polygon class="st6" points="133.6,74.3 133,74.3 133,65.2 142.3,65.2 142.3,65.7 133.6,65.7 	"/>
</g>
<g>
	
		<rect x="131.6" y="69.5" transform="matrix(0.7274 -0.6862 0.6862 0.7274 -10.2834 113.636)" class="st6" width="12.5" height="0.6"/>
</g>
<g>
	<polygon class="st6" points="133.6,83.1 133,83.1 133,74 142.3,74 142.3,74.6 133.6,74.6 	"/>
</g>
<g>
	
		<rect x="131.6" y="78.2" transform="matrix(0.7274 -0.6862 0.6862 0.7274 -16.3168 116.0239)" class="st6" width="12.5" height="0.6"/>
</g>
<g>
	<polygon class="st6" points="133.6,92 133,92 133,82.8 142.3,82.8 142.3,83.4 133.6,83.4 	"/>
</g>
<g>
	
		<rect x="131.6" y="87" transform="matrix(0.7274 -0.6862 0.6862 0.7274 -22.3504 118.4123)" class="st6" width="12.5" height="0.6"/>
</g>
<g>
	<polygon class="st6" points="133.6,100.8 133,100.8 133,91.7 142.3,91.7 142.3,92.2 133.6,92.2 	"/>
</g>
<g>
	
		<rect x="131.6" y="96" transform="matrix(0.7274 -0.6862 0.6862 0.7274 -28.4693 120.8634)" class="st6" width="12.5" height="0.6"/>
</g>
<g>
	<polygon class="st6" points="133.6,109.6 133,109.6 133,100.5 142.3,100.5 142.3,101.1 133.6,101.1 	"/>
</g>
<g>
	
		<rect x="131.6" y="104.8" transform="matrix(0.7274 -0.6862 0.6862 0.7274 -34.5029 123.2517)" class="st6" width="12.5" height="0.6"/>
</g>
<g>
	<polygon class="st6" points="133.6,118.4 133,118.4 133,109.3 142.3,109.3 142.3,109.9 133.6,109.9 	"/>
</g>
<g>
	
		<rect x="131.6" y="113.5" transform="matrix(0.7274 -0.6862 0.6862 0.7274 -40.5363 125.6396)" class="st6" width="12.5" height="0.6"/>
</g>
<g>
	<polygon class="st6" points="133.6,127.3 133,127.3 133,118.2 142.3,118.2 142.3,118.7 133.6,118.7 	"/>
</g>
<g>
	
		<rect x="131.6" y="122.3" transform="matrix(0.7274 -0.6862 0.6862 0.7274 -46.5699 128.028)" class="st6" width="12.5" height="0.6"/>
</g>
<g>
	<polygon class="st6" points="133.6,136.1 133,136.1 133,127 142.3,127 142.3,127.6 133.6,127.6 	"/>
</g>
<g>
	
		<rect x="131.6" y="131.3" transform="matrix(0.7274 -0.6862 0.6862 0.7274 -52.6887 130.4791)" class="st6" width="12.5" height="0.6"/>
</g>
<g>
	<polygon class="st6" points="142.6,74.3 142.1,74.3 142.1,65.7 133.3,65.7 133.3,65.2 142.6,65.2 	"/>
</g>
<g>
	
		<rect x="137.5" y="63.5" transform="matrix(0.6864 -0.7272 0.7272 0.6864 -7.4858 122.0681)" class="st6" width="0.6" height="12.5"/>
</g>
<g>
	<polygon class="st6" points="142.6,83.1 142.1,83.1 142.1,74.6 133.3,74.6 133.3,74 142.6,74 	"/>
</g>
<g>
	
		<rect x="137.5" y="72.2" transform="matrix(0.6864 -0.7272 0.7272 0.6864 -13.876 124.815)" class="st6" width="0.6" height="12.5"/>
</g>
<g>
	<polygon class="st6" points="142.6,92 142.1,92 142.1,83.4 133.3,83.4 133.3,82.8 142.6,82.8 	"/>
</g>
<g>
	
		<rect x="137.5" y="81.2" transform="matrix(0.6864 -0.7272 0.7272 0.6864 -20.3642 127.6375)" class="st6" width="0.6" height="12.5"/>
</g>
<g>
	<polygon class="st6" points="142.6,100.8 142.1,100.8 142.1,92.2 133.3,92.2 133.3,91.7 142.6,91.7 	"/>
</g>
<g>
	
		<rect x="137.5" y="90" transform="matrix(0.6864 -0.7272 0.7272 0.6864 -26.7608 130.381)" class="st6" width="0.6" height="12.5"/>
</g>
<g>
	<polygon class="st6" points="142.6,109.6 142.1,109.6 142.1,101.1 133.3,101.1 133.3,100.5 142.6,100.5 	"/>
</g>
<g>
	
		<rect x="137.5" y="98.8" transform="matrix(0.6864 -0.7272 0.7272 0.6864 -33.1524 133.128)" class="st6" width="0.6" height="12.5"/>
</g>
<g>
	<polygon class="st6" points="142.6,118.4 142.1,118.4 142.1,109.9 133.3,109.9 133.3,109.3 142.6,109.3 	"/>
</g>
<g>
	
		<rect x="137.6" y="107.6" transform="matrix(0.6865 -0.7272 0.7272 0.6865 -39.5639 135.9789)" class="st6" width="0.6" height="12.5"/>
</g>
<g>
	<polygon class="st6" points="142.6,127.3 142.1,127.3 142.1,118.7 133.3,118.7 133.3,118.2 142.6,118.2 	"/>
</g>
<g>
	
		<rect x="137.5" y="116.5" transform="matrix(0.6864 -0.7272 0.7272 0.6864 -46.0308 138.6974)" class="st6" width="0.6" height="12.5"/>
</g>
<g>
	<polygon class="st6" points="142.6,136.1 142.1,136.1 142.1,127.6 133.3,127.6 133.3,127 142.6,127 	"/>
</g>
<g>
	
		<rect x="137.5" y="125.3" transform="matrix(0.6864 -0.7272 0.7272 0.6864 -52.4262 141.4412)" class="st6" width="0.6" height="12.5"/>
</g>
<g>
	<polygon class="st6" points="133.6,144.9 133,144.9 133,135.8 142.3,135.8 142.3,136.4 133.6,136.4 	"/>
</g>
<g>
	
		<rect x="131.6" y="140" transform="matrix(0.7274 -0.6862 0.6862 0.7274 -58.7223 132.8674)" class="st6" width="12.5" height="0.6"/>
</g>
<g>
	<polygon class="st6" points="133.6,153.8 133,153.8 133,144.7 142.3,144.7 142.3,145.2 133.6,145.2 	"/>
</g>
<g>
	
		<rect x="131.6" y="148.8" transform="matrix(0.7274 -0.6862 0.6862 0.7274 -64.7558 135.2553)" class="st6" width="12.5" height="0.6"/>
</g>
<g>
	<polygon class="st6" points="133.6,162.6 133,162.6 133,153.5 142.3,153.5 142.3,154 133.6,154 	"/>
</g>
<g>
	
		<rect x="131.6" y="157.8" transform="matrix(0.7274 -0.6862 0.6862 0.7274 -70.875 137.7074)" class="st6" width="12.5" height="0.6"/>
</g>
<g>
	<polygon class="st6" points="133.6,171.4 133,171.4 133,162.3 142.3,162.3 142.3,162.9 133.6,162.9 	"/>
</g>
<g>
	
		<rect x="131.6" y="166.5" transform="matrix(0.7274 -0.6862 0.6862 0.7274 -76.9082 140.0947)" class="st6" width="12.5" height="0.6"/>
</g>
<g>
	<polygon class="st6" points="133.6,180.3 133,180.3 133,171.1 142.3,171.1 142.3,171.7 133.6,171.7 	"/>
</g>
<g>
	
		<rect x="131.6" y="175.3" transform="matrix(0.7274 -0.6862 0.6862 0.7274 -82.9417 142.483)" class="st6" width="12.5" height="0.6"/>
</g>
<g>
	<polygon class="st6" points="142.6,144.9 142.1,144.9 142.1,136.4 133.3,136.4 133.3,135.8 142.6,135.8 	"/>
</g>
<g>
	
		<rect x="137.6" y="134.1" transform="matrix(0.6864 -0.7272 0.7272 0.6864 -58.8345 144.2933)" class="st6" width="0.6" height="12.5"/>
</g>
<g>
	<polygon class="st6" points="142.6,153.8 142.1,153.8 142.1,145.2 133.3,145.2 133.3,144.7 142.6,144.7 	"/>
</g>
<g>
	
		<rect x="137.5" y="143" transform="matrix(0.6865 -0.7272 0.7272 0.6865 -65.3041 147.0126)" class="st6" width="0.6" height="12.5"/>
</g>
<g>
	<polygon class="st6" points="142.6,162.6 142.1,162.6 142.1,154 133.3,154 133.3,153.5 142.6,153.5 	"/>
</g>
<g>
	
		<rect x="137.5" y="151.8" transform="matrix(0.6864 -0.7272 0.7272 0.6864 -71.6975 149.7574)" class="st6" width="0.6" height="12.5"/>
</g>
<g>
	<polygon class="st6" points="142.6,171.4 142.1,171.4 142.1,162.9 133.3,162.9 133.3,162.3 142.6,162.3 	"/>
</g>
<g>
	
		<rect x="137.5" y="160.6" transform="matrix(0.6864 -0.7272 0.7272 0.6864 -78.0943 152.4995)" class="st6" width="0.6" height="12.5"/>
</g>
<g>
	<polygon class="st6" points="142.6,180.3 142.1,180.3 142.1,171.7 133.3,171.7 133.3,171.1 142.6,171.1 	"/>
</g>
<g>
	
		<rect x="137.5" y="169.5" transform="matrix(0.6864 -0.7272 0.7272 0.6864 -84.5755 155.3259)" class="st6" width="0.6" height="12.5"/>
</g>
<g>
	<path class="st5" d="M92,113.8h-0.7V77.9c0-0.8-0.3-1.5-0.8-2s-1.2-0.8-2-0.8l0,0c-1.6,0-2.8,1.3-2.8,2.8v10.3H85V77.9
		c0-2,1.6-3.5,3.5-3.5l0,0c0.9,0,1.8,0.4,2.5,1c0.7,0.7,1,1.6,1,2.5V113.8z"/>
</g>
<g>
	<path class="st5" d="M79.2,113.8h-0.7V77.9c0-0.9,0.4-1.8,1-2.5c0.7-0.7,1.6-1,2.5-1l0,0c1.9,0,3.5,1.6,3.5,3.5v10.3h-0.7V77.9
		c0-1.6-1.3-2.8-2.8-2.8l0,0c-0.8,0-1.5,0.3-2,0.8s-0.8,1.2-0.8,2V113.8z"/>
</g>
<g>
	<rect x="72.1" y="95.6" class="st0" width="26.2" height="59.1"/>
</g>
<g>
	<rect x="38.5" y="46.1" class="st2" width="6.1" height="7.3"/>
</g>
<g>
	<rect x="37.2" y="50.7" class="st1" width="8.6" height="128.5"/>
</g>
<g>
	<rect x="37.2" y="59.5" class="st0" width="8.6" height="5.4"/>
</g>
<g>
	<rect x="35.2" y="91.3" class="st2" width="12.5" height="27.5"/>
</g>
<g>
	<rect x="35.2" y="91.3" class="st3" width="12.5" height="13.7"/>
</g>
<g>
	<rect x="35.2" y="135.5" class="st2" width="12.5" height="27.5"/>
</g>
<g>
	<rect x="35.2" y="135.5" class="st3" width="12.5" height="13.5"/>
</g>
<g>
	<rect x="37.2" y="44.7" class="st0" width="8.6" height="1.4"/>
</g>
<g>
	<rect x="37.2" y="52.7" class="st0" width="8.6" height="1.4"/>
</g>
<g>
	<path class="st4" d="M43.5,48.8L43.5,48.8L43.5,48.8h2h0.3v0.3v4c0,0.2-0.1,0.3-0.3,0.3s-0.3-0.1-0.3-0.3v-3.8h-1.4v3.8
		c0,0.2-0.1,0.3-0.3,0.3s-0.3-0.1-0.3-0.3v-3.8h-1.4v3.8c0,0.2-0.1,0.3-0.3,0.3s-0.3-0.1-0.3-0.3v-3.8h-1.4v3.8
		c0,0.2-0.1,0.3-0.3,0.3s-0.3-0.1-0.3-0.3v-3.8h-1.5v3.8c0,0.2-0.1,0.3-0.3,0.3s-0.3-0.1-0.3-0.3v-4v-0.3h0.3h2l0,0l0,0h2l0,0l0,0
		H43.5z"/>
</g>
<g>
	<rect x="125.9" y="46.1" class="st2" width="6.1" height="7.3"/>
</g>
<g>
	<rect x="124.6" y="50.7" class="st1" width="8.6" height="128.5"/>
</g>
<g>
	<rect x="124.6" y="59.5" class="st0" width="8.6" height="5.4"/>
</g>
<g>
	<rect x="122.7" y="91.3" class="st2" width="12.5" height="27.5"/>
</g>
<g>
	<rect x="122.7" y="91.3" class="st3" width="12.5" height="13.7"/>
</g>
<g>
	<rect x="122.7" y="135.5" class="st2" width="12.5" height="27.5"/>
</g>
<g>
	<rect x="122.7" y="135.5" class="st3" width="12.5" height="13.5"/>
</g>
<g>
	<rect x="124.6" y="44.7" class="st0" width="8.6" height="1.4"/>
</g>
<g>
	<rect x="124.6" y="52.7" class="st0" width="8.6" height="1.4"/>
</g>
<g>
	<path class="st4" d="M131,48.8L131,48.8L131,48.8h2h0.3v0.3v4c0,0.2-0.1,0.3-0.3,0.3s-0.3-0.1-0.3-0.3v-3.8h-1.5v3.8
		c0,0.2-0.1,0.3-0.3,0.3s-0.3-0.1-0.3-0.3v-3.8h-1.5v3.8c0,0.2-0.1,0.3-0.3,0.3s-0.3-0.1-0.3-0.3v-3.8H127v3.8
		c0,0.2-0.1,0.3-0.3,0.3s-0.3-0.1-0.3-0.3v-3.8h-1.5v3.8c0,0.2-0.1,0.3-0.3,0.3s-0.3-0.1-0.3-0.3v-4v-0.3h0.3h2l0,0l0,0h2l0,0l0,0
		H131z"/>
</g>
<g>
	<path class="st5" d="M85.2,172.4H44.9c-2.3,0-4.2-1.9-4.2-4.2V163h1.5v5.2c0,1.5,1.2,2.7,2.7,2.7h40.3V172.4z"/>
</g>
<g>
	<path class="st5" d="M125.5,172.4H85.2v-1.5h40.3c1.5,0,2.7-1.2,2.7-2.7V163h1.5v5.2C129.7,170.5,127.8,172.4,125.5,172.4z"/>
</g>
<g>
	<rect x="16.1" y="147.6" class="st1" width="12" height="32.2"/>
</g>
<g>
	<rect x="142.3" y="147.6" class="st1" width="12" height="32.2"/>
</g>
<g>
	<path class="st5" d="M19.4,175.4c-0.1,0-0.2-0.1-0.2-0.2v-34.4c0-0.1,0.1-0.2,0.2-0.2s0.2,0.1,0.2,0.2v34.4
		C19.6,175.3,19.5,175.4,19.4,175.4z"/>
</g>
<g>
	<path class="st5" d="M22.1,175.4c-0.1,0-0.2-0.1-0.2-0.2v-34.4c0-0.1,0.1-0.2,0.2-0.2s0.2,0.1,0.2,0.2v34.4
		C22.4,175.3,22.3,175.4,22.1,175.4z"/>
</g>
<g>
	<path class="st5" d="M24.9,175.4c-0.1,0-0.2-0.1-0.2-0.2v-34.4c0-0.1,0.1-0.2,0.2-0.2s0.2,0.1,0.2,0.2v34.4
		C25.1,175.3,25,175.4,24.9,175.4z"/>
</g>
<g>
	<path class="st5" d="M145.6,175.4c-0.1,0-0.2-0.1-0.2-0.2v-34.4c0-0.1,0.1-0.2,0.2-0.2s0.2,0.1,0.2,0.2v34.4
		C145.8,175.3,145.7,175.4,145.6,175.4z"/>
</g>
<g>
	<path class="st5" d="M148.3,175.4c-0.1,0-0.2-0.1-0.2-0.2v-34.4c0-0.1,0.1-0.2,0.2-0.2s0.2,0.1,0.2,0.2v34.4
		C148.6,175.3,148.5,175.4,148.3,175.4z"/>
</g>
<g>
	<path class="st5" d="M151.1,175.4c-0.1,0-0.2-0.1-0.2-0.2v-34.4c0-0.1,0.1-0.2,0.2-0.2s0.2,0.1,0.2,0.2v34.4
		C151.3,175.3,151.2,175.4,151.1,175.4z"/>
</g>
<g>
	<path class="st3" d="M72.1,154.7h26.2C85.1,167.9,85.3,167.9,72.1,154.7"/>
</g>
<g>
	<path class="st6" d="M85.9,179.2h-1.4v-54.3c0-1.3-1.1-2.4-2.4-2.4h-9.7c-2.1,0-3.8-1.7-3.8-3.8v-28c0-0.9,0.4-1.8,1-2.5
		c0.7-0.7,1.6-1,2.5-1l0,0c1.9,0,3.5,1.6,3.5,3.5v4.5h-1.4v-4.5c0-1.2-0.9-2.1-2.1-2.1l0,0c-0.6,0-1.1,0.2-1.5,0.6S70,90.1,70,90.7
		v28.1c0,1.3,1.1,2.4,2.4,2.4h9.7c2.1,0,3.8,1.7,3.8,3.8V179.2z"/>
</g>
<g>
	<path class="st6" d="M85.9,172.4h-1.4V125c0-2.1,1.7-3.8,3.8-3.8H98c1.3,0,2.4-1.1,2.4-2.4V90.7c0-0.6-0.2-1.1-0.6-1.5
		s-0.9-0.6-1.5-0.6c-1.2,0-2.1,0.9-2.1,2.1v4.5h-1.4v-4.5c0-1.9,1.6-3.5,3.5-3.5l0,0c0.9,0,1.8,0.4,2.5,1s1,1.6,1,2.5v28.1
		c0,2.1-1.7,3.8-3.8,3.8h-9.7c-1.3,0-2.4,1.1-2.4,2.4V172.4z"/>
</g>
<g>
	<polygon class="st3" points="72.1,95.6 98.3,95.6 85.2,89.7 	"/>
</g>
<g>
	<rect x="82.1" y="88.2" class="st0" width="6.5" height="3.1"/>
</g>
<g>
	<rect x="72.2" y="108.7" class="st1" width="8.7" height="1.4"/>
</g>
<g>
	<path class="st6" d="M78.5,104.8L78.5,104.8L78.5,104.8h2h0.3v0.3v4.1c0,0.2-0.1,0.3-0.3,0.3c-0.2,0-0.3-0.1-0.3-0.3v-3.8h-1.4v3.8
		c0,0.2-0.1,0.3-0.3,0.3c-0.2,0-0.3-0.1-0.3-0.3v-3.8h-1.4v3.8c0,0.2-0.1,0.3-0.3,0.3c-0.2,0-0.3-0.1-0.3-0.3v-3.8h-1.4v3.8
		c0,0.2-0.1,0.3-0.3,0.3c-0.2,0-0.3-0.1-0.3-0.3v-3.8h-1.5v3.8c0,0.2-0.1,0.3-0.3,0.3c-0.2,0-0.3-0.1-0.3-0.3v-4.1v-0.3h0.3h2l0,0
		l0,0h2l0,0l0,0H78.5z"/>
</g>
<g>
	<rect x="80.9" y="108.7" class="st1" width="8.7" height="1.4"/>
</g>
<g>
	<path class="st6" d="M87.3,104.8L87.3,104.8L87.3,104.8h2h0.3v0.3v4.1c0,0.2-0.1,0.3-0.3,0.3c-0.2,0-0.3-0.1-0.3-0.3v-3.8h-1.5v3.8
		c0,0.2-0.1,0.3-0.3,0.3c-0.2,0-0.3-0.1-0.3-0.3v-3.8h-1.5v3.8c0,0.2-0.1,0.3-0.3,0.3c-0.2,0-0.3-0.1-0.3-0.3v-3.8h-1.5v3.8
		c0,0.2-0.1,0.3-0.3,0.3c-0.2,0-0.3-0.1-0.3-0.3v-3.8h-1.5v3.8c0,0.2-0.1,0.3-0.3,0.3c-0.2,0-0.3-0.1-0.3-0.3v-4.1v-0.3h0.3h2l0,0
		l0,0h2l0,0l0,0H87.3z"/>
</g>
<g>
	<rect x="89.6" y="108.7" class="st1" width="8.7" height="1.4"/>
</g>
<g>
	<path class="st6" d="M96,104.8L96,104.8L96,104.8h2h0.3v0.3v4.1c0,0.2-0.1,0.3-0.3,0.3c-0.2,0-0.3-0.1-0.3-0.3v-3.8h-1.5v3.8
		c0,0.2-0.1,0.3-0.3,0.3c-0.2,0-0.3-0.1-0.3-0.3v-3.8h-1.5v3.8c0,0.2-0.1,0.3-0.3,0.3c-0.2,0-0.3-0.1-0.3-0.3v-3.8H92v3.8
		c0,0.2-0.1,0.3-0.3,0.3c-0.2,0-0.3-0.1-0.3-0.3v-3.8h-1.5v3.8c0,0.2-0.1,0.3-0.3,0.3c-0.2,0-0.3-0.1-0.3-0.3v-4.1v-0.3h0.3h2l0,0
		l0,0h2l0,0l0,0H96z"/>
</g>
<g>
	<rect y="12.9" class="st7" width="8.7" height="20.3"/>
</g>
<g>
	<path class="st8" d="M22,13.5L20,18c-0.2,0.6-0.5,1-0.7,1.2c-0.2,0.2-0.5,0.4-0.8,0.6c-0.3,0.1-0.7,0.2-1.1,0.2s-0.7,0-1-0.1v-1.2
		c0.3,0.1,0.6,0.2,1,0.2c0.2,0,0.4-0.1,0.6-0.2c0.1-0.1,0.3-0.3,0.4-0.6l-2.2-4.6h1.4l1.6,3.6l0,0l0.1-0.2l1.3-3.4
		C20.6,13.5,22,13.5,22,13.5z"/>
	<path class="st8" d="M25.6,14.5c-0.5,0-0.9,0.2-1.2,0.6C24.1,15.5,24,16,24,16.7c0,1.4,0.5,2.1,1.6,2.1c0.5,0,1-0.1,1.6-0.3v1.1
		c-0.5,0.2-1.1,0.3-1.8,0.3c-0.9,0-1.6-0.3-2.1-0.9c-0.5-0.6-0.7-1.4-0.7-2.4c0-0.7,0.1-1.3,0.4-1.8c0.2-0.5,0.6-0.9,1-1.2
		c0.5-0.3,1-0.4,1.6-0.4s1.3,0.2,1.9,0.5L27,14.9c-0.2-0.1-0.5-0.2-0.7-0.3C26.1,14.5,25.8,14.5,25.6,14.5z"/>
	<path class="st8" d="M31,19.9h-1.4v-5.3h-1.7v-1.1h4.9v1.1h-1.7L31,19.9L31,19.9z"/>
	<path class="st8" d="M37.7,19.9l-0.5-1.5h-2.3l-0.5,1.5h-1.5l2.3-6.5h1.7l2.3,6.5H37.7z M36.9,17.2c-0.4-1.4-0.7-2.2-0.7-2.4
		c-0.1-0.2-0.1-0.3-0.1-0.4c-0.1,0.4-0.4,1.3-0.8,2.8H36.9z"/>
	<path class="st8" d="M45.2,19.9h-1.4v-2.8h-2.5v2.8h-1.4v-6.4h1.4V16h2.5v-2.5h1.4V19.9z"/>
	<path class="st8" d="M52.7,16.7c0,1.1-0.3,1.9-0.8,2.5s-1.3,0.9-2.3,0.9s-1.7-0.3-2.3-0.9c-0.6-0.6-0.8-1.4-0.8-2.5
		s0.3-1.9,0.8-2.4s1.3-0.8,2.3-0.8s1.7,0.3,2.3,0.9C52.4,14.8,52.7,15.6,52.7,16.7z M48,16.7c0,0.7,0.1,1.3,0.4,1.6
		c0.3,0.3,0.7,0.5,1.2,0.5c1.1,0,1.6-0.7,1.6-2.2c0-1.4-0.5-2.2-1.6-2.2c-0.5,0-1,0.2-1.2,0.5C48.1,15.4,48,16,48,16.7z"/>
	<path class="st8" d="M54,13.5h2c0.9,0,1.6,0.1,2,0.4c0.4,0.3,0.6,0.7,0.6,1.2c0,0.4-0.1,0.7-0.3,0.9s-0.4,0.4-0.7,0.4l0,0
		c0.4,0.1,0.7,0.3,0.9,0.5c0.2,0.2,0.3,0.6,0.3,1c0,0.6-0.2,1-0.6,1.4c-0.4,0.3-1,0.5-1.7,0.5h-2.4L54,13.5L54,13.5z M55.4,16h0.8
		c0.4,0,0.6-0.1,0.8-0.2s0.2-0.3,0.2-0.6c0-0.2-0.1-0.4-0.3-0.5c-0.2-0.1-0.5-0.2-0.9-0.2h-0.7V16C55.3,16,55.4,16,55.4,16z
		 M55.4,17.1v1.7h0.9c0.4,0,0.7-0.1,0.8-0.2c0.2-0.1,0.3-0.4,0.3-0.7c0-0.5-0.4-0.8-1.1-0.8H55.4z"/>
	<path class="st8" d="M65.3,19.9h-1.5l-2.3-3.3v3.3h-1.4v-6.4h1.4v3.1l2.3-3.1h1.4l-2.4,3.1L65.3,19.9z"/>
	<path class="st8" d="M70,19.9l-0.5-1.5h-2.3l-0.4,1.5h-1.5l2.3-6.5h1.7l2.2,6.5H70z M69.2,17.2c-0.4-1.4-0.6-2.1-0.7-2.3
		s-0.1-0.3-0.1-0.4c-0.1,0.4-0.4,1.3-0.8,2.8L69.2,17.2L69.2,17.2z"/>
	<path class="st8" d="M79.7,19.9h-1.4v-5.3h-2.4v5.3h-1.4v-6.4h5.1v6.4H79.7z"/>
	<path class="st8" d="M87.2,16.7c0,1.1-0.3,1.9-0.8,2.5s-1.3,0.9-2.3,0.9s-1.7-0.3-2.3-0.9c-0.6-0.6-0.8-1.4-0.8-2.5
		s0.3-1.9,0.8-2.4s1.3-0.8,2.3-0.8s1.7,0.3,2.3,0.9C86.9,14.8,87.2,15.6,87.2,16.7z M82.5,16.7c0,0.7,0.1,1.3,0.4,1.6
		c0.3,0.3,0.7,0.5,1.2,0.5c1.1,0,1.6-0.7,1.6-2.2c0-1.4-0.5-2.2-1.6-2.2c-0.5,0-1,0.2-1.2,0.5C82.6,15.4,82.5,16,82.5,16.7z"/>
	<path class="st8" d="M93.6,19.9h-1.4v-5.3h-1.6l-0.1,0.6c-0.2,1.5-0.3,2.5-0.5,3.2c-0.2,0.7-0.3,1-0.6,1.3
		c-0.3,0.3-0.6,0.4-1.1,0.4c-0.2,0-0.5,0-0.7-0.1v-1.2c0.3,0,0.5,0.1,0.7,0.1s0.3-0.1,0.4-0.2c0.1-0.1,0.1-0.5,0.2-0.8
		c0.1-0.4,0.2-1,0.3-1.9c0.1-0.9,0.2-1.7,0.3-2.5h4.1C93.6,13.5,93.6,19.9,93.6,19.9z"/>
	<path class="st8" d="M95.2,13.5h1.2v3.1v0.8v0.9l0,0l3-4.9h1.6v6.5h-1.2v-3.1c0-0.4,0-1,0.1-1.8l0,0l-3,4.9h-1.6L95.2,13.5
		L95.2,13.5z"/>
	<path class="st8" d="M105.3,19.9l-1.5-5l0,0c0,1,0,1.7,0,2v3h-1.2v-6.4h1.9l1.5,4.9l0,0l1.6-4.9h1.9v6.4h-1.3v-3c0-0.1,0-0.3,0-0.5
		c0-0.2,0-0.7,0.1-1.5l0,0l-1.7,5H105.3z"/>
	<path class="st8" d="M114.8,19.9h-3.7v-6.4h3.7v1.1h-2.3V16h2.2v1.1h-2.2v1.7h2.3V19.9z"/>
	<path class="st8" d="M120.6,15.5c0,0.7-0.2,1.2-0.6,1.6s-1,0.5-1.8,0.5h-0.6v2.3h-1.4v-6.4h2.1c0.8,0,1.4,0.2,1.8,0.5
		C120.4,14.3,120.6,14.8,120.6,15.5z M117.5,16.5h0.4c0.4,0,0.7-0.1,0.9-0.2s0.3-0.4,0.3-0.7c0-0.3-0.1-0.6-0.3-0.7
		c-0.2-0.1-0.4-0.2-0.8-0.2h-0.6L117.5,16.5L117.5,16.5z"/>
	<path class="st8" d="M121.8,13.5h1.2v3.1v0.8v0.9l0,0l3-4.9h1.6v6.5h-1.2v-3.1c0-0.4,0-1,0.1-1.8l0,0l-3,4.9h-1.7V13.5z"/>
	<path class="st8" d="M133.6,15c0,0.4-0.1,0.8-0.4,1c-0.3,0.3-0.7,0.4-1.2,0.5l0,0c0.6,0.1,1,0.2,1.4,0.5c0.3,0.3,0.5,0.6,0.5,1
		c0,0.6-0.2,1.1-0.7,1.4c-0.5,0.3-1.1,0.5-2,0.5s-1.7-0.1-2.3-0.3v-1.1c0.3,0.1,0.6,0.2,1,0.3s0.7,0.1,1,0.1c1.1,0,1.6-0.3,1.6-0.9
		c0-0.3-0.2-0.5-0.5-0.7c-0.3-0.2-0.9-0.2-1.5-0.2h-0.7V16h0.5c0.7,0,1.2-0.1,1.5-0.2s0.5-0.3,0.5-0.6c0-0.2-0.1-0.4-0.3-0.5
		c-0.2-0.1-0.5-0.2-0.9-0.2c-0.6,0-1.2,0.2-1.7,0.5l-0.6-0.9c0.4-0.2,0.8-0.4,1.2-0.5c0.4-0.1,0.9-0.2,1.4-0.2
		c0.7,0,1.3,0.1,1.7,0.4C133.4,14.1,133.6,14.5,133.6,15z"/>
	<path class="st8" d="M139,19.9l-0.5-1.5h-2.3l-0.5,1.5h-1.5l2.3-6.5h1.7l2.3,6.5H139z M138.2,17.2c-0.4-1.4-0.7-2.2-0.7-2.4
		c-0.1-0.2-0.1-0.3-0.1-0.4c-0.1,0.4-0.4,1.3-0.8,2.8H138.2z"/>
	<path class="st8" d="M146.3,18.8h1v3H146v-1.9h-4.7v-6.4h1.4v5.3h2.4v-5.3h1.4v5.3H146.3z"/>
	<path class="st8" d="M148.3,13.5h1.2v3.1v0.8v0.9l0,0l3-4.9h1.6v6.5h-1.3v-3.1c0-0.4,0-1,0.1-1.8l0,0l-3,4.9h-1.6V13.5z"/>
	<path class="st8" d="M155.7,13.5h1.2v3.1v0.8v0.9l0,0l3-4.9h1.6v6.5h-1.2v-3.1c0-0.4,0-1,0.1-1.8l0,0l-3,4.9h-1.6v-6.4H155.7z"/>
	<path class="st8" d="M22,32.9h-1.4v-5.3h-2.4v5.3h-1.4v-6.4h5.1L22,32.9L22,32.9z"/>
	<path class="st8" d="M28.1,28.5c0,0.7-0.2,1.2-0.6,1.6s-1,0.5-1.8,0.5h-0.6v2.3h-1.4v-6.4h2.1c0.8,0,1.4,0.2,1.8,0.5
		C27.9,27.3,28.1,27.8,28.1,28.5z M25,29.5h0.4c0.4,0,0.7-0.1,0.9-0.2s0.3-0.4,0.3-0.7c0-0.3-0.1-0.6-0.3-0.7
		c-0.2-0.1-0.4-0.2-0.8-0.2h-0.6L25,29.5L25,29.5z"/>
	<path class="st8" d="M35.1,29.7c0,1.1-0.3,1.9-0.8,2.5c-0.5,0.6-1.3,0.9-2.3,0.9s-1.7-0.3-2.3-0.9c-0.6-0.6-0.8-1.4-0.8-2.5
		s0.3-1.9,0.8-2.4s1.3-0.8,2.3-0.8s1.7,0.3,2.3,0.9C34.9,27.8,35.1,28.6,35.1,29.7z M30.5,29.7c0,0.7,0.1,1.3,0.4,1.6
		s0.7,0.5,1.2,0.5c1.1,0,1.6-0.7,1.6-2.2c0-1.4-0.5-2.2-1.6-2.2c-0.5,0-1,0.2-1.2,0.5C30.6,28.4,30.5,29,30.5,29.7z"/>
	<path class="st8" d="M41.6,32.9h-1.4v-5.3h-2.4v5.3h-1.4v-6.4h5.1v6.4H41.6z"/>
	<path class="st8" d="M43.2,26.5h1.2v3.1v0.8v0.9l0,0l3-4.9H49v6.5h-1.2v-3.1c0-0.4,0-1,0.1-1.8l0,0l-3.1,4.9h-1.6V26.5z"/>
	<path class="st8" d="M55.7,32.9h-1.4v-5.3h-1.6l-0.1,0.6c-0.2,1.5-0.3,2.5-0.5,3.2c-0.2,0.7-0.3,1-0.6,1.3s-0.6,0.4-1.1,0.4
		c-0.2,0-0.5,0-0.7-0.1v-1.1C49.9,32,50,32,50.2,32s0.3-0.1,0.4-0.2s0.2-0.4,0.3-0.8s0.2-1,0.3-1.9s0.2-1.7,0.3-2.5h4.1L55.7,32.9
		L55.7,32.9z"/>
	<path class="st8" d="M61,32.9h-3.7v-6.4H61v1.1h-2.3V29h2.1v1.1h-2.2v1.7h2.3L61,32.9L61,32.9z"/>
	<path class="st8" d="M67.6,32.9h-1.4v-2.8h-2.5v2.8h-1.4v-6.4h1.4V29h2.5v-2.5h1.4V32.9z"/>
	<path class="st8" d="M73.1,32.9l-0.5-1.5h-2.3l-0.4,1.5h-1.5l2.3-6.5h1.7l2.3,6.5H73.1z M72.3,30.2c-0.4-1.4-0.7-2.2-0.7-2.4
		c-0.1-0.2-0.1-0.3-0.1-0.4c-0.1,0.4-0.4,1.3-0.8,2.8H72.3z"/>
</g>
</svg>
