<?xml version="1.0" encoding="utf-8"?>
<!-- Generator: Adobe Illustrator 24.0.1, SVG Export Plug-In . SVG Version: 6.00 Build 0)  -->
<svg version="1.1" id="Layer_1" xmlns="http://www.w3.org/2000/svg" xmlns:xlink="http://www.w3.org/1999/xlink" x="0px" y="0px"
	 viewBox="0 0 206.6 194.1" style="enable-background:new 0 0 206.6 194.1;" xml:space="preserve">
<style type="text/css">
	.st0{fill:#006EFF;}
	.st1{fill-rule:evenodd;clip-rule:evenodd;fill:#006EFF;}
	.st2{fill-rule:evenodd;clip-rule:evenodd;fill:#006EFF;}
	.st3{fill-rule:evenodd;clip-rule:evenodd;fill:#D7D5E8;}
	.st4{fill:#D7D5E8;}
	.st5{fill-rule:evenodd;clip-rule:evenodd;fill:#00508C;}
	.st6{fill:#00508C;}
</style>
<path class="st0" d="M0.1,11.6V9.1l2.2-1.2l2.1-1.3l2.2,1.2L8.8,9v2.6l-2.3-1.3L4.4,9.1l-2.2,1.2L0.1,11.6z M95.5,53.8H21.3H10.1
	c-2.8,0-5.3-1.1-7.1-3c-1.8-1.8-3-4.3-3-7.1v-6.1l0,0v-21v-2.5l0,0h0.1l0,0l2.2-1.2l2.1-1.3l2.2,1.2L8.8,14v2.5v8.7
	c0,7.5,0,6.4,0,18.5c0,0.4,0.2,0.8,0.4,1s0.6,0.4,1,0.4h11.1h74.3h11.1c2.8,0,5.3,1.1,7.1,3c1.8,1.8,3,4.3,3,7.1v50.5h-8.6
	c0-9.2-0.1-37.7-0.1-50.5c0-0.4-0.2-0.8-0.4-1c-0.2-0.2-0.6-0.4-1-0.4C106.7,53.8,95.5,53.8,95.5,53.8z"/>
<polygon class="st0" points="198,11.6 198,9.1 200.1,7.8 202.3,6.6 204.4,7.8 206.6,9.1 206.6,11.6 204.4,10.3 202.3,9.1 
	200.1,10.3 "/>
<path class="st0" d="M180.8,53.8h15.7c2.8,0,5.3-1.1,7.1-3c1.8-1.8,3-4.3,3-7.1v-6.1v-0.3v-0.4v-0.4v-0.4v-0.4v-0.3v-0.3v-0.3v-0.3
	v-0.3v-0.3v-0.3v-0.3V33v-0.3v-0.1v-0.2v-0.2V32v-0.2v-0.2v-0.2v-0.2V31v-0.2v-0.2v-0.2v-0.3v-0.3v-0.3v-0.3v-0.3v-0.3v-0.3V28v-0.3
	v-0.3V27v-0.4v-0.4v-0.6v-0.4v-0.4v-0.5v-0.5v-0.5v-0.5v-0.5v-0.6v-0.6v-0.6v-0.6v-0.7v-2.7v-2.2v-0.2l-2.2-1.2l-2.1-1.3l-2.2,1.2
	l-2.1,1.3l0,0h-0.1l0,0v2.5v21l0,0c0,1.6,0,3.6,0,6.1c0,0.4-0.2,0.8-0.4,1s-0.6,0.4-1,0.4h-15.7H169c-2.8,0-5.3,1.1-7.1,3
	c-1.8,1.8-3,4.3-3,7.1v50.5h8.6c0-9.2,0.1-37.7,0.1-50.5c0-0.4,0.2-0.8,0.4-1s0.6-0.4,1-0.4C169,53.8,180.8,53.8,180.8,53.8z"/>
<polygon class="st1" points="133.2,-25.1 137.6,-20 141.8,-25.1 141.8,59.1 141.8,69.8 139.7,72.4 137.5,75.2 135.4,72.4 
	133.2,69.8 133.2,59.1 "/>
<polygon class="st1" points="113.2,172.2 161.8,172.2 161.8,153.1 138.1,153.1 113.2,153.1 "/>
<rect x="103.8" y="153.1" class="st2" width="9.4" height="19.1"/>
<rect x="161.8" y="153.1" class="st2" width="10.1" height="19.1"/>
<rect x="108.3" y="93.7" class="st3" width="8.3" height="18.2"/>
<rect x="133.7" y="93.7" class="st3" width="8.3" height="18.2"/>
<rect x="108.3" y="93.7" class="st2" width="8.3" height="9.1"/>
<rect x="133.7" y="93.7" class="st2" width="8.3" height="9.1"/>
<rect x="108.3" y="123" class="st2" width="8.3" height="9"/>
<rect x="133.7" y="123" class="st2" width="8.3" height="9"/>
<path class="st4" d="M113.2,91.7h-1.4v-6.8c0-1.6,1.3-2.8,2.8-2.8v1.4c-0.8,0-1.4,0.6-1.4,1.4V91.7z"/>
<path class="st4" d="M138.6,91.7h-1.4v-6.8c0-0.8-0.6-1.4-1.4-1.4h-21.2v-1.4h21.2c1.6,0,2.8,1.3,2.8,2.8L138.6,91.7L138.6,91.7z"/>
<path class="st5" d="M121.1,96.6v39.2c0,4.8-3.9,8.7-8.7,8.7c-4.8,0-8.7-3.9-8.7-8.7V96.6H121.1z"/>
<path class="st5" d="M146.5,96.6v39.2c0,4.8-3.9,8.7-8.7,8.7s-8.7-3.9-8.7-8.7V96.6H146.5z"/>
<polygon class="st2" points="103.8,96.6 121.1,96.6 112.5,92.7 "/>
<polygon class="st2" points="129.2,96.6 146.5,96.6 137.8,92.7 "/>
<rect x="110.3" y="91.7" class="st5" width="4.3" height="2"/>
<rect x="135.7" y="91.7" class="st5" width="4.3" height="2"/>
<rect x="103.8" y="105.2" class="st1" width="5.8" height="0.9"/>
<path class="st0" d="M108,102.6L108,102.6L108,102.6h1.4h0.2v0.2v2.7c0,0.1-0.1,0.2-0.2,0.2s-0.2-0.1-0.2-0.2V103h-1v2.5
	c0,0.1-0.1,0.2-0.2,0.2s-0.2-0.1-0.2-0.2V103h-1v2.5c0,0.1-0.1,0.2-0.2,0.2s-0.2-0.1-0.2-0.2V103h-1v2.5c0,0.1-0.1,0.2-0.2,0.2
	s-0.2-0.1-0.2-0.2V103h-1v2.5c0,0.1-0.1,0.2-0.2,0.2s-0.2-0.1-0.2-0.2v-2.7v-0.2h0.2h1.3l0,0l0,0h1.3l0,0l0,0H108z"/>
<rect x="109.6" y="105.2" class="st1" width="5.8" height="0.9"/>
<path class="st0" d="M113.8,102.6L113.8,102.6L113.8,102.6h1.4h0.2v0.2v2.7c0,0.1-0.1,0.2-0.2,0.2s-0.2-0.1-0.2-0.2V103h-1v2.5
	c0,0.1-0.1,0.2-0.2,0.2s-0.2-0.1-0.2-0.2V103h-1v2.5c0,0.1-0.1,0.2-0.2,0.2s-0.2-0.1-0.2-0.2V103h-1v2.5c0,0.1-0.1,0.2-0.2,0.2
	s-0.2-0.1-0.2-0.2V103h-1v2.5c0,0.1-0.1,0.2-0.2,0.2s-0.2-0.1-0.2-0.2v-2.7v-0.2h0.2h1.3l0,0l0,0h1.3l0,0l0,0H113.8z"/>
<rect x="115.3" y="105.2" class="st1" width="5.8" height="0.9"/>
<path class="st0" d="M119.6,102.6L119.6,102.6L119.6,102.6h1.4h0.2v0.2v2.7c0,0.1-0.1,0.2-0.2,0.2s-0.2-0.1-0.2-0.2V103h-1v2.5
	c0,0.1-0.1,0.2-0.2,0.2s-0.2-0.1-0.2-0.2V103h-1v2.5c0,0.1-0.1,0.2-0.2,0.2s-0.2-0.1-0.2-0.2V103h-1v2.5c0,0.1-0.1,0.2-0.2,0.2
	s-0.2-0.1-0.2-0.2V103h-1v2.5c0,0.1-0.1,0.2-0.2,0.2s-0.2-0.1-0.2-0.2v-2.7v-0.2h0.2h1.3l0,0l0,0h1.3l0,0l0,0H119.6z"/>
<rect x="129.2" y="105.2" class="st1" width="5.8" height="0.9"/>
<path class="st0" d="M133.4,102.6L133.4,102.6L133.4,102.6h1.4h0.2v0.2v2.7c0,0.1-0.1,0.2-0.2,0.2c-0.1,0-0.2-0.1-0.2-0.2V103h-1
	v2.5c0,0.1-0.1,0.2-0.2,0.2c-0.1,0-0.2-0.1-0.2-0.2V103h-1v2.5c0,0.1-0.1,0.2-0.2,0.2s-0.2-0.1-0.2-0.2V103h-1v2.5
	c0,0.1-0.1,0.2-0.2,0.2c-0.1,0-0.2-0.1-0.2-0.2V103h-1v2.5c0,0.1-0.1,0.2-0.2,0.2c-0.1,0-0.2-0.1-0.2-0.2v-2.7v-0.2h0.2h1.3l0,0l0,0
	h1.3l0,0l0,0H133.4z"/>
<rect x="135" y="105.2" class="st1" width="5.8" height="0.9"/>
<path class="st0" d="M139.2,102.6L139.2,102.6L139.2,102.6h1.4h0.2v0.2v2.7c0,0.1-0.1,0.2-0.2,0.2c-0.1,0-0.2-0.1-0.2-0.2V103h-1
	v2.5c0,0.1-0.1,0.2-0.2,0.2c-0.1,0-0.2-0.1-0.2-0.2V103h-1v2.5c0,0.1-0.1,0.2-0.2,0.2c-0.1,0-0.2-0.1-0.2-0.2V103h-1v2.5
	c0,0.1-0.1,0.2-0.2,0.2c-0.1,0-0.2-0.1-0.2-0.2V103h-1v2.5c0,0.1-0.1,0.2-0.2,0.2c-0.1,0-0.2-0.1-0.2-0.2v-2.7v-0.2h0.2h1.3l0,0l0,0
	h1.3l0,0l0,0H139.2z"/>
<rect x="140.7" y="105.2" class="st1" width="5.8" height="0.9"/>
<path class="st0" d="M145,102.6L145,102.6L145,102.6h1.4h0.2v0.2v2.7c0,0.1-0.1,0.2-0.2,0.2c-0.1,0-0.2-0.1-0.2-0.2V103h-1v2.5
	c0,0.1-0.1,0.2-0.2,0.2c-0.1,0-0.2-0.1-0.2-0.2V103h-1v2.5c0,0.1-0.1,0.2-0.2,0.2c-0.1,0-0.2-0.1-0.2-0.2V103h-1v2.5
	c0,0.1-0.1,0.2-0.2,0.2c-0.1,0-0.2-0.1-0.2-0.2V103h-1v2.5c0,0.1-0.1,0.2-0.2,0.2c-0.1,0-0.2-0.1-0.2-0.2v-2.7v-0.2h0.2h1.3l0,0l0,0
	h1.3l0,0l0,0H145z"/>
<rect x="103.8" y="132.6" class="st1" width="5.8" height="0.9"/>
<path class="st0" d="M108,130L108,130L108,130h1.4h0.2v0.2v2.7c0,0.1-0.1,0.2-0.2,0.2s-0.2-0.1-0.2-0.2v-2.5h-1v2.5
	c0,0.1-0.1,0.2-0.2,0.2s-0.2-0.1-0.2-0.2v-2.5h-1v2.5c0,0.1-0.1,0.2-0.2,0.2s-0.2-0.1-0.2-0.2v-2.5h-1v2.5c0,0.1-0.1,0.2-0.2,0.2
	s-0.2-0.1-0.2-0.2v-2.5h-1v2.5c0,0.1-0.1,0.2-0.2,0.2s-0.2-0.1-0.2-0.2v-2.7V130h0.2h1.3l0,0l0,0h1.3l0,0l0,0H108z"/>
<rect x="109.6" y="132.6" class="st1" width="5.8" height="0.9"/>
<path class="st0" d="M113.8,130L113.8,130L113.8,130h1.4h0.2v0.2v2.7c0,0.1-0.1,0.2-0.2,0.2s-0.2-0.1-0.2-0.2v-2.5h-1v2.5
	c0,0.1-0.1,0.2-0.2,0.2s-0.2-0.1-0.2-0.2v-2.5h-1v2.5c0,0.1-0.1,0.2-0.2,0.2s-0.2-0.1-0.2-0.2v-2.5h-1v2.5c0,0.1-0.1,0.2-0.2,0.2
	s-0.2-0.1-0.2-0.2v-2.5h-1v2.5c0,0.1-0.1,0.2-0.2,0.2s-0.2-0.1-0.2-0.2v-2.7V130h0.2h1.3l0,0l0,0h1.3l0,0l0,0H113.8z"/>
<rect x="115.3" y="132.6" class="st1" width="5.8" height="0.9"/>
<path class="st0" d="M119.6,130L119.6,130L119.6,130h1.4h0.2v0.2v2.7c0,0.1-0.1,0.2-0.2,0.2s-0.2-0.1-0.2-0.2v-2.5h-1v2.5
	c0,0.1-0.1,0.2-0.2,0.2s-0.2-0.1-0.2-0.2v-2.5h-1v2.5c0,0.1-0.1,0.2-0.2,0.2s-0.2-0.1-0.2-0.2v-2.5h-1v2.5c0,0.1-0.1,0.2-0.2,0.2
	s-0.2-0.1-0.2-0.2v-2.5h-1v2.5c0,0.1-0.1,0.2-0.2,0.2s-0.2-0.1-0.2-0.2v-2.7V130h0.2h1.3l0,0l0,0h1.3l0,0l0,0H119.6z"/>
<rect x="129.2" y="132.6" class="st1" width="5.8" height="0.9"/>
<path class="st0" d="M133.4,130L133.4,130L133.4,130h1.4h0.2v0.2v2.7c0,0.1-0.1,0.2-0.2,0.2c-0.1,0-0.2-0.1-0.2-0.2v-2.5h-1v2.5
	c0,0.1-0.1,0.2-0.2,0.2c-0.1,0-0.2-0.1-0.2-0.2v-2.5h-1v2.5c0,0.1-0.1,0.2-0.2,0.2s-0.2-0.1-0.2-0.2v-2.5h-1v2.5
	c0,0.1-0.1,0.2-0.2,0.2c-0.1,0-0.2-0.1-0.2-0.2v-2.5h-1v2.5c0,0.1-0.1,0.2-0.2,0.2c-0.1,0-0.2-0.1-0.2-0.2v-2.7V130h0.2h1.3l0,0l0,0
	h1.3l0,0l0,0H133.4z"/>
<rect x="135" y="132.6" class="st1" width="5.8" height="0.9"/>
<path class="st0" d="M139.2,130L139.2,130L139.2,130h1.4h0.2v0.2v2.7c0,0.1-0.1,0.2-0.2,0.2c-0.1,0-0.2-0.1-0.2-0.2v-2.5h-1v2.5
	c0,0.1-0.1,0.2-0.2,0.2c-0.1,0-0.2-0.1-0.2-0.2v-2.5h-1v2.5c0,0.1-0.1,0.2-0.2,0.2c-0.1,0-0.2-0.1-0.2-0.2v-2.5h-1v2.5
	c0,0.1-0.1,0.2-0.2,0.2c-0.1,0-0.2-0.1-0.2-0.2v-2.5h-1v2.5c0,0.1-0.1,0.2-0.2,0.2c-0.1,0-0.2-0.1-0.2-0.2v-2.7V130h0.2h1.3l0,0l0,0
	h1.3l0,0l0,0H139.2z"/>
<rect x="140.7" y="132.6" class="st1" width="5.8" height="0.9"/>
<path class="st0" d="M145,130L145,130L145,130h1.4h0.2v0.2v2.7c0,0.1-0.1,0.2-0.2,0.2c-0.1,0-0.2-0.1-0.2-0.2v-2.5h-1v2.5
	c0,0.1-0.1,0.2-0.2,0.2c-0.1,0-0.2-0.1-0.2-0.2v-2.5h-1v2.5c0,0.1-0.1,0.2-0.2,0.2c-0.1,0-0.2-0.1-0.2-0.2v-2.5h-1v2.5
	c0,0.1-0.1,0.2-0.2,0.2c-0.1,0-0.2-0.1-0.2-0.2v-2.5h-1v2.5c0,0.1-0.1,0.2-0.2,0.2c-0.1,0-0.2-0.1-0.2-0.2v-2.7V130h0.2h1.3l0,0l0,0
	h1.3l0,0l0,0H145z"/>
<rect x="103.8" y="133" class="st1" width="1.3" height="20.2"/>
<rect x="129.2" y="133" class="st1" width="1.3" height="20.2"/>
<rect x="119.8" y="133" class="st1" width="1.3" height="20.2"/>
<rect x="145.2" y="133" class="st1" width="1.3" height="20.2"/>
<rect x="111.8" y="133" class="st1" width="1.3" height="20.2"/>
<rect x="137.2" y="133" class="st1" width="1.3" height="20.2"/>
<rect x="133.7" y="93.7" class="st3" width="8.3" height="18.2"/>
<rect x="159.1" y="93.7" class="st3" width="8.3" height="18.2"/>
<rect x="133.7" y="93.7" class="st2" width="8.3" height="9.1"/>
<rect x="159.1" y="93.7" class="st2" width="8.3" height="9.1"/>
<rect x="133.7" y="123" class="st2" width="8.3" height="9"/>
<rect x="159.1" y="123" class="st2" width="8.3" height="9"/>
<path class="st4" d="M138.6,91.7h-1.4v-6.8c0-1.6,1.3-2.8,2.8-2.8v1.4c-0.8,0-1.4,0.6-1.4,1.4L138.6,91.7L138.6,91.7z"/>
<path class="st4" d="M164,91.7h-1.4v-6.8c0-0.8-0.6-1.4-1.4-1.4H140v-1.4h21.2c1.6,0,2.8,1.3,2.8,2.8V91.7z"/>
<path class="st5" d="M146.5,96.6v39.2c0,4.8-3.9,8.7-8.7,8.7s-8.7-3.9-8.7-8.7V96.6H146.5z"/>
<path class="st5" d="M171.9,96.6v39.2c0,4.8-3.9,8.7-8.7,8.7s-8.7-3.9-8.7-8.7V96.6H171.9z"/>
<polygon class="st2" points="129.2,96.6 146.5,96.6 137.8,92.7 "/>
<polygon class="st2" points="154.6,96.6 171.9,96.6 163.2,92.7 "/>
<rect x="135.7" y="91.7" class="st5" width="4.3" height="2"/>
<rect x="161.1" y="91.7" class="st5" width="4.3" height="2"/>
<rect x="129.2" y="105.2" class="st1" width="5.8" height="0.9"/>
<path class="st0" d="M133.4,102.6L133.4,102.6L133.4,102.6h1.4h0.2v0.2v2.7c0,0.1-0.1,0.2-0.2,0.2c-0.1,0-0.2-0.1-0.2-0.2V103h-1
	v2.5c0,0.1-0.1,0.2-0.2,0.2c-0.1,0-0.2-0.1-0.2-0.2V103h-1v2.5c0,0.1-0.1,0.2-0.2,0.2c-0.1,0-0.2-0.1-0.2-0.2V103h-1v2.5
	c0,0.1-0.1,0.2-0.2,0.2c-0.1,0-0.2-0.1-0.2-0.2V103h-1v2.5c0,0.1-0.1,0.2-0.2,0.2c-0.1,0-0.2-0.1-0.2-0.2v-2.7v-0.2h0.2h1.3l0,0l0,0
	h1.3l0,0l0,0H133.4z"/>
<rect x="135" y="105.2" class="st1" width="5.8" height="0.9"/>
<path class="st0" d="M139.2,102.6L139.2,102.6L139.2,102.6h1.4h0.2v0.2v2.7c0,0.1-0.1,0.2-0.2,0.2c-0.1,0-0.2-0.1-0.2-0.2V103h-1
	v2.5c0,0.1-0.1,0.2-0.2,0.2c-0.1,0-0.2-0.1-0.2-0.2V103h-1v2.5c0,0.1-0.1,0.2-0.2,0.2c-0.1,0-0.2-0.1-0.2-0.2V103h-1v2.5
	c0,0.1-0.1,0.2-0.2,0.2c-0.1,0-0.2-0.1-0.2-0.2V103h-1v2.5c0,0.1-0.1,0.2-0.2,0.2c-0.1,0-0.2-0.1-0.2-0.2v-2.7v-0.2h0.2h1.3l0,0l0,0
	h1.3l0,0l0,0H139.2z"/>
<rect x="140.7" y="105.2" class="st1" width="5.8" height="0.9"/>
<path class="st0" d="M145,102.6L145,102.6L145,102.6h1.4h0.2v0.2v2.7c0,0.1-0.1,0.2-0.2,0.2c-0.1,0-0.2-0.1-0.2-0.2V103h-1v2.5
	c0,0.1-0.1,0.2-0.2,0.2c-0.1,0-0.2-0.1-0.2-0.2V103h-1v2.5c0,0.1-0.1,0.2-0.2,0.2c-0.1,0-0.2-0.1-0.2-0.2V103h-1v2.5
	c0,0.1-0.1,0.2-0.2,0.2c-0.1,0-0.2-0.1-0.2-0.2V103h-1v2.5c0,0.1-0.1,0.2-0.2,0.2c-0.1,0-0.2-0.1-0.2-0.2v-2.7v-0.2h0.2h1.3l0,0l0,0
	h1.3l0,0l0,0H145z"/>
<rect x="154.6" y="105.2" class="st1" width="5.8" height="0.9"/>
<path class="st0" d="M158.8,102.6L158.8,102.6L158.8,102.6h1.4h0.2v0.2v2.7c0,0.1-0.1,0.2-0.2,0.2c-0.1,0-0.2-0.1-0.2-0.2V103h-1
	v2.5c0,0.1-0.1,0.2-0.2,0.2c-0.1,0-0.2-0.1-0.2-0.2V103h-1v2.5c0,0.1-0.1,0.2-0.2,0.2c-0.1,0-0.2-0.1-0.2-0.2V103h-1v2.5
	c0,0.1-0.1,0.2-0.2,0.2c-0.1,0-0.2-0.1-0.2-0.2V103h-1v2.5c0,0.1-0.1,0.2-0.2,0.2c-0.1,0-0.2-0.1-0.2-0.2v-2.7v-0.2h0.2h1.3l0,0l0,0
	h1.3l0,0l0,0H158.8z"/>
<rect x="160.3" y="105.2" class="st1" width="5.8" height="0.9"/>
<path class="st0" d="M164.6,102.6L164.6,102.6L164.6,102.6h1.4h0.2v0.2v2.7c0,0.1-0.1,0.2-0.2,0.2c-0.1,0-0.2-0.1-0.2-0.2V103h-1
	v2.5c0,0.1-0.1,0.2-0.2,0.2c-0.1,0-0.2-0.1-0.2-0.2V103h-1v2.5c0,0.1-0.1,0.2-0.2,0.2c-0.1,0-0.2-0.1-0.2-0.2V103h-1v2.5
	c0,0.1-0.1,0.2-0.2,0.2c-0.1,0-0.2-0.1-0.2-0.2V103h-1v2.5c0,0.1-0.1,0.2-0.2,0.2c-0.1,0-0.2-0.1-0.2-0.2v-2.7v-0.2h0.2h1.3l0,0l0,0
	h1.3l0,0l0,0H164.6z"/>
<rect x="166.1" y="105.2" class="st1" width="5.8" height="0.9"/>
<path class="st0" d="M170.4,102.6L170.4,102.6L170.4,102.6h1.4h0.2v0.2v2.7c0,0.1-0.1,0.2-0.2,0.2c-0.1,0-0.2-0.1-0.2-0.2V103h-1
	v2.5c0,0.1-0.1,0.2-0.2,0.2c-0.1,0-0.2-0.1-0.2-0.2V103h-1v2.5c0,0.1-0.1,0.2-0.2,0.2c-0.1,0-0.2-0.1-0.2-0.2V103h-1v2.5
	c0,0.1-0.1,0.2-0.2,0.2s-0.2-0.1-0.2-0.2V103h-1v2.5c0,0.1-0.1,0.2-0.2,0.2c-0.1,0-0.2-0.1-0.2-0.2v-2.7v-0.2h0.2h1.3l0,0l0,0h1.3
	l0,0l0,0H170.4z"/>
<rect x="129.2" y="132.6" class="st1" width="5.8" height="0.9"/>
<path class="st0" d="M133.4,130L133.4,130L133.4,130h1.4h0.2v0.2v2.7c0,0.1-0.1,0.2-0.2,0.2c-0.1,0-0.2-0.1-0.2-0.2v-2.5h-1v2.5
	c0,0.1-0.1,0.2-0.2,0.2c-0.1,0-0.2-0.1-0.2-0.2v-2.5h-1v2.5c0,0.1-0.1,0.2-0.2,0.2c-0.1,0-0.2-0.1-0.2-0.2v-2.5h-1v2.5
	c0,0.1-0.1,0.2-0.2,0.2c-0.1,0-0.2-0.1-0.2-0.2v-2.5h-1v2.5c0,0.1-0.1,0.2-0.2,0.2c-0.1,0-0.2-0.1-0.2-0.2v-2.7V130h0.2h1.3l0,0l0,0
	h1.3l0,0l0,0H133.4z"/>
<rect x="135" y="132.6" class="st1" width="5.8" height="0.9"/>
<path class="st0" d="M139.2,130L139.2,130L139.2,130h1.4h0.2v0.2v2.7c0,0.1-0.1,0.2-0.2,0.2c-0.1,0-0.2-0.1-0.2-0.2v-2.5h-1v2.5
	c0,0.1-0.1,0.2-0.2,0.2c-0.1,0-0.2-0.1-0.2-0.2v-2.5h-1v2.5c0,0.1-0.1,0.2-0.2,0.2c-0.1,0-0.2-0.1-0.2-0.2v-2.5h-1v2.5
	c0,0.1-0.1,0.2-0.2,0.2c-0.1,0-0.2-0.1-0.2-0.2v-2.5h-1v2.5c0,0.1-0.1,0.2-0.2,0.2c-0.1,0-0.2-0.1-0.2-0.2v-2.7V130h0.2h1.3l0,0l0,0
	h1.3l0,0l0,0H139.2z"/>
<rect x="140.7" y="132.6" class="st1" width="5.8" height="0.9"/>
<path class="st0" d="M145,130L145,130L145,130h1.4h0.2v0.2v2.7c0,0.1-0.1,0.2-0.2,0.2c-0.1,0-0.2-0.1-0.2-0.2v-2.5h-1v2.5
	c0,0.1-0.1,0.2-0.2,0.2c-0.1,0-0.2-0.1-0.2-0.2v-2.5h-1v2.5c0,0.1-0.1,0.2-0.2,0.2c-0.1,0-0.2-0.1-0.2-0.2v-2.5h-1v2.5
	c0,0.1-0.1,0.2-0.2,0.2c-0.1,0-0.2-0.1-0.2-0.2v-2.5h-1v2.5c0,0.1-0.1,0.2-0.2,0.2c-0.1,0-0.2-0.1-0.2-0.2v-2.7V130h0.2h1.3l0,0l0,0
	h1.3l0,0l0,0H145z"/>
<rect x="154.6" y="132.6" class="st1" width="5.8" height="0.9"/>
<path class="st0" d="M158.8,130L158.8,130L158.8,130h1.4h0.2v0.2v2.7c0,0.1-0.1,0.2-0.2,0.2c-0.1,0-0.2-0.1-0.2-0.2v-2.5h-1v2.5
	c0,0.1-0.1,0.2-0.2,0.2c-0.1,0-0.2-0.1-0.2-0.2v-2.5h-1v2.5c0,0.1-0.1,0.2-0.2,0.2c-0.1,0-0.2-0.1-0.2-0.2v-2.5h-1v2.5
	c0,0.1-0.1,0.2-0.2,0.2c-0.1,0-0.2-0.1-0.2-0.2v-2.5h-1v2.5c0,0.1-0.1,0.2-0.2,0.2c-0.1,0-0.2-0.1-0.2-0.2v-2.7V130h0.2h1.3l0,0l0,0
	h1.3l0,0l0,0H158.8z"/>
<rect x="160.3" y="132.6" class="st1" width="5.8" height="0.9"/>
<path class="st0" d="M164.6,130L164.6,130L164.6,130h1.4h0.2v0.2v2.7c0,0.1-0.1,0.2-0.2,0.2c-0.1,0-0.2-0.1-0.2-0.2v-2.5h-1v2.5
	c0,0.1-0.1,0.2-0.2,0.2c-0.1,0-0.2-0.1-0.2-0.2v-2.5h-1v2.5c0,0.1-0.1,0.2-0.2,0.2c-0.1,0-0.2-0.1-0.2-0.2v-2.5h-1v2.5
	c0,0.1-0.1,0.2-0.2,0.2c-0.1,0-0.2-0.1-0.2-0.2v-2.5h-1v2.5c0,0.1-0.1,0.2-0.2,0.2c-0.1,0-0.2-0.1-0.2-0.2v-2.7V130h0.2h1.3l0,0l0,0
	h1.3l0,0l0,0H164.6z"/>
<rect x="166.1" y="132.6" class="st1" width="5.8" height="0.9"/>
<path class="st0" d="M170.4,130L170.4,130L170.4,130h1.4h0.2v0.2v2.7c0,0.1-0.1,0.2-0.2,0.2c-0.1,0-0.2-0.1-0.2-0.2v-2.5h-1v2.5
	c0,0.1-0.1,0.2-0.2,0.2c-0.1,0-0.2-0.1-0.2-0.2v-2.5h-1v2.5c0,0.1-0.1,0.2-0.2,0.2c-0.1,0-0.2-0.1-0.2-0.2v-2.5h-1v2.5
	c0,0.1-0.1,0.2-0.2,0.2s-0.2-0.1-0.2-0.2v-2.5h-1v2.5c0,0.1-0.1,0.2-0.2,0.2c-0.1,0-0.2-0.1-0.2-0.2v-2.7V130h0.2h1.3l0,0l0,0h1.3
	l0,0l0,0H170.4z"/>
<rect x="129.2" y="133" class="st1" width="1.3" height="20.2"/>
<rect x="154.6" y="133" class="st1" width="1.3" height="20.2"/>
<rect x="145.2" y="133" class="st1" width="1.3" height="20.2"/>
<rect x="170.6" y="133" class="st1" width="1.3" height="20.2"/>
<rect x="137.2" y="133" class="st1" width="1.3" height="20.2"/>
<rect x="162.6" y="133" class="st1" width="1.3" height="20.2"/>
<rect x="132.8" y="161.5" class="st2" width="2.4" height="2.4"/>
<rect x="136.3" y="161.5" class="st2" width="2.4" height="2.4"/>
<rect x="139.8" y="161.5" class="st2" width="2.4" height="2.4"/>
<g>
	<path class="st6" d="M92.2,181.1h0.4c0.7,0,1.2,0.1,1.5,0.4c0.4,0.3,0.5,0.6,0.5,1.1c0,1-0.7,1.6-2.1,1.6H91v-5h3.2v0.9h-2.1
		L92.2,181.1L92.2,181.1z M92.2,183.3h0.4c0.4,0,0.6-0.1,0.8-0.2c0.2-0.1,0.3-0.3,0.3-0.5s-0.1-0.4-0.3-0.5
		c-0.2-0.1-0.5-0.2-0.9-0.2h-0.3V183.3z"/>
	<path class="st6" d="M99.5,184.2h-1.1v-4.1h-1.2l-0.1,0.5c-0.1,1.2-0.3,2-0.4,2.5s-0.3,0.8-0.5,1s-0.5,0.3-0.8,0.3
		c-0.2,0-0.4,0-0.5-0.1v-0.9c0.1,0,0.3,0.1,0.4,0.1s0.2-0.1,0.3-0.2c0.1-0.1,0.1-0.3,0.2-0.6s0.1-0.8,0.2-1.5s0.2-1.3,0.3-1.9h3.2
		V184.2z"/>
	<path class="st6" d="M105.3,181.7c0,0.8-0.2,1.5-0.6,1.9s-1,0.7-1.8,0.7s-1.4-0.2-1.8-0.7c-0.4-0.4-0.6-1.1-0.6-1.9
		c0-0.8,0.2-1.5,0.6-1.9s1-0.7,1.8-0.7s1.4,0.2,1.8,0.7C105.1,180.2,105.3,180.8,105.3,181.7z M101.7,181.7c0,0.6,0.1,1,0.3,1.3
		s0.5,0.4,1,0.4c0.8,0,1.3-0.6,1.3-1.7c0-1.1-0.4-1.7-1.3-1.7c-0.4,0-0.7,0.1-1,0.4C101.8,180.7,101.7,181.1,101.7,181.7z"/>
	<path class="st6" d="M110.4,184.2h-1.2l-1.8-2.5v2.5h-1.1v-5h1.1v2.4l1.8-2.4h1.1l-1.8,2.4L110.4,184.2z"/>
	<path class="st6" d="M112.9,179.2h1.6c0.7,0,1.2,0.1,1.5,0.3s0.5,0.5,0.5,1c0,0.3-0.1,0.5-0.2,0.7s-0.3,0.3-0.6,0.3l0,0
		c0.3,0.1,0.5,0.2,0.7,0.4s0.2,0.5,0.2,0.8c0,0.5-0.2,0.8-0.5,1.1s-0.8,0.4-1.3,0.4h-1.9C112.9,184.2,112.9,179.2,112.9,179.2z
		 M113.9,181.2h0.6c0.3,0,0.5,0,0.6-0.1s0.2-0.2,0.2-0.4s-0.1-0.3-0.2-0.4s-0.4-0.1-0.7-0.1h-0.6L113.9,181.2L113.9,181.2z
		 M113.9,182v1.3h0.7c0.3,0,0.5-0.1,0.6-0.2c0.1-0.1,0.2-0.3,0.2-0.5c0-0.4-0.3-0.6-0.9-0.6H113.9z"/>
	<path class="st6" d="M122.1,181.7c0,0.8-0.2,1.5-0.6,1.9s-1,0.7-1.8,0.7s-1.4-0.2-1.8-0.7c-0.4-0.4-0.6-1.1-0.6-1.9
		c0-0.8,0.2-1.5,0.6-1.9s1-0.7,1.8-0.7s1.4,0.2,1.8,0.7C121.9,180.2,122.1,180.8,122.1,181.7z M118.5,181.7c0,0.6,0.1,1,0.3,1.3
		s0.5,0.4,1,0.4c0.8,0,1.3-0.6,1.3-1.7c0-1.1-0.4-1.7-1.3-1.7c-0.4,0-0.7,0.1-1,0.4C118.6,180.7,118.5,181.1,118.5,181.7z"/>
	<path class="st6" d="M122.6,183.3h0.4c0.3-0.7,0.6-1.3,0.8-2c0.2-0.7,0.3-1.4,0.4-2.1h2.9v4.1h0.7v2.3h-1v-1.5h-3.1v1.5h-1v-2.3
		H122.6z M125,180.1c-0.1,0.5-0.2,1.1-0.4,1.7c-0.2,0.6-0.4,1.1-0.6,1.6h2v-3.2h-1V180.1z"/>
	<path class="st6" d="M133,181.7c0,0.8-0.2,1.5-0.6,1.9c-0.4,0.4-1,0.7-1.8,0.7s-1.4-0.2-1.8-0.7c-0.4-0.4-0.6-1.1-0.6-1.9
		c0-0.8,0.2-1.5,0.6-1.9s1-0.7,1.8-0.7s1.4,0.2,1.8,0.7C132.8,180.2,133,180.8,133,181.7z M129.4,181.7c0,0.6,0.1,1,0.3,1.3
		s0.5,0.4,1,0.4c0.8,0,1.3-0.6,1.3-1.7c0-1.1-0.4-1.7-1.3-1.7c-0.4,0-0.7,0.1-1,0.4C129.5,180.7,129.4,181.1,129.4,181.7z"/>
	<path class="st6" d="M138,184.2h-1v-4.1h-1.8v4.1h-1.1v-5h4L138,184.2L138,184.2z"/>
	<path class="st6" d="M143.8,181.7c0,0.8-0.2,1.5-0.6,1.9c-0.4,0.4-1,0.7-1.8,0.7s-1.4-0.2-1.8-0.7c-0.4-0.4-0.6-1.1-0.6-1.9
		c0-0.8,0.2-1.5,0.6-1.9s1-0.7,1.8-0.7s1.4,0.2,1.8,0.7C143.6,180.2,143.8,180.8,143.8,181.7z M140.2,181.7c0,0.6,0.1,1,0.3,1.3
		s0.5,0.4,0.9,0.4c0.8,0,1.3-0.6,1.3-1.7c0-1.1-0.4-1.7-1.3-1.7c-0.4,0-0.7,0.1-1,0.4C140.3,180.7,140.2,181.1,140.2,181.7z"/>
	<path class="st6" d="M144.3,183.3h0.4c0.3-0.7,0.6-1.3,0.8-2s0.3-1.4,0.4-2.1h2.9v4.1h0.7v2.3h-1v-1.5h-3.1v1.5h-1L144.3,183.3
		L144.3,183.3z M146.7,180.1c-0.1,0.5-0.2,1.1-0.4,1.7c-0.2,0.6-0.4,1.1-0.6,1.6h2v-3.2h-1V180.1z"/>
	<path class="st6" d="M153.4,179.2v0.9h-2.1v4.1h-1.1v-5H153.4z"/>
	<path class="st6" d="M158.7,181.7c0,0.8-0.2,1.5-0.6,1.9c-0.4,0.4-1,0.7-1.8,0.7s-1.4-0.2-1.8-0.7c-0.4-0.4-0.6-1.1-0.6-1.9
		c0-0.8,0.2-1.5,0.6-1.9s1-0.7,1.8-0.7s1.4,0.2,1.8,0.7C158.5,180.2,158.7,180.8,158.7,181.7z M155,181.7c0,0.6,0.1,1,0.3,1.3
		s0.5,0.4,1,0.4c0.8,0,1.3-0.6,1.3-1.7c0-1.1-0.4-1.7-1.3-1.7c-0.4,0-0.7,0.1-1,0.4C155.1,180.7,155,181.1,155,181.7z"/>
	<path class="st6" d="M161.6,184.2h-1.1v-4.1h-1.4v-0.9h3.8v0.9h-1.4L161.6,184.2L161.6,184.2z"/>
	<path class="st6" d="M168.3,181.7c0,0.8-0.2,1.5-0.6,1.9c-0.4,0.4-1,0.7-1.8,0.7s-1.4-0.2-1.8-0.7c-0.4-0.4-0.6-1.1-0.6-1.9
		c0-0.8,0.2-1.5,0.6-1.9s1-0.7,1.8-0.7s1.4,0.2,1.8,0.7C168.1,180.2,168.3,180.8,168.3,181.7z M164.6,181.7c0,0.6,0.1,1,0.3,1.3
		s0.5,0.4,1,0.4c0.8,0,1.3-0.6,1.3-1.7c0-1.1-0.4-1.7-1.3-1.7c-0.4,0-0.7,0.1-1,0.4C164.7,180.7,164.6,181.1,164.6,181.7z"/>
	<path class="st6" d="M169.3,179.2h1.6c0.7,0,1.2,0.1,1.5,0.3s0.5,0.5,0.5,1c0,0.3-0.1,0.5-0.2,0.7s-0.3,0.3-0.6,0.3l0,0
		c0.3,0.1,0.5,0.2,0.7,0.4c0.1,0.2,0.2,0.5,0.2,0.8c0,0.5-0.2,0.8-0.5,1.1s-0.8,0.4-1.3,0.4h-1.9V179.2z M170.4,181.2h0.6
		c0.3,0,0.5,0,0.6-0.1s0.2-0.2,0.2-0.4s-0.1-0.3-0.2-0.4c-0.1-0.1-0.4-0.1-0.7-0.1h-0.6L170.4,181.2L170.4,181.2z M170.4,182v1.3
		h0.7c0.3,0,0.5-0.1,0.6-0.2c0.1-0.1,0.2-0.3,0.2-0.5c0-0.4-0.3-0.6-0.9-0.6H170.4z"/>
	<path class="st6" d="M178.1,184.2h-1.2l-1.8-2.5v2.5H174v-5h1.1v2.4l1.8-2.4h1.1l-1.8,2.4L178.1,184.2z"/>
	<path class="st6" d="M178.7,179.2h1v2.4v0.6v0.7l0,0l2.3-3.8h1.3v5h-0.9v-2.4c0-0.3,0-0.8,0.1-1.4l0,0l-2.3,3.8h-1.3v-4.9
		L178.7,179.2L178.7,179.2z"/>
	<path class="st6" d="M105.7,187.6h1v2.4v0.6v0.7l0,0l2.3-3.8h1.3v5h-0.9v-2.4c0-0.3,0-0.8,0.1-1.4l0,0l-2.5,3.9h-1.3V187.6z"/>
	<path class="st6" d="M113.3,187.6h1.6c0.7,0,1.2,0.1,1.5,0.3s0.5,0.5,0.5,1c0,0.3-0.1,0.5-0.2,0.7s-0.3,0.3-0.6,0.3l0,0
		c0.3,0.1,0.5,0.2,0.7,0.4c0.1,0.2,0.2,0.5,0.2,0.8c0,0.5-0.2,0.8-0.5,1.1s-0.8,0.4-1.3,0.4h-1.9
		C113.3,192.6,113.3,187.6,113.3,187.6z M114.4,189.6h0.6c0.3,0,0.5,0,0.6-0.1s0.2-0.2,0.2-0.4s-0.1-0.3-0.2-0.4
		c-0.1-0.1-0.4-0.1-0.7-0.1h-0.6L114.4,189.6L114.4,189.6z M114.4,190.4v1.3h0.7c0.3,0,0.5-0.1,0.6-0.2c0.1-0.1,0.2-0.3,0.2-0.5
		c0-0.4-0.3-0.6-0.9-0.6H114.4z"/>
	<path class="st6" d="M122.5,190.1c0,0.8-0.2,1.5-0.6,1.9s-1,0.7-1.8,0.7s-1.4-0.2-1.8-0.7c-0.4-0.4-0.6-1.1-0.6-1.9
		c0-0.8,0.2-1.5,0.6-1.9s1-0.7,1.8-0.7s1.4,0.2,1.8,0.7C122.3,188.6,122.5,189.2,122.5,190.1z M118.9,190.1c0,0.6,0.1,1,0.3,1.3
		s0.5,0.4,0.9,0.4c0.8,0,1.3-0.6,1.3-1.7c0-1.1-0.4-1.7-1.3-1.7c-0.4,0-0.7,0.1-1,0.4C119,189.1,118.9,189.5,118.9,190.1z"/>
	<path class="st6" d="M123,191.7h0.4c0.3-0.7,0.6-1.3,0.8-2c0.2-0.7,0.3-1.4,0.4-2.1h2.9v4.1h0.7v2.3h-1v-1.4H124v1.5h-1V191.7z
		 M125.4,188.5c-0.1,0.5-0.2,1.1-0.4,1.7c-0.2,0.6-0.4,1.1-0.6,1.6h2v-3.2h-1V188.5z"/>
	<path class="st6" d="M133.4,190.1c0,0.8-0.2,1.5-0.6,1.9c-0.4,0.4-1,0.7-1.8,0.7s-1.4-0.2-1.8-0.7c-0.4-0.4-0.6-1.1-0.6-1.9
		c0-0.8,0.2-1.5,0.6-1.9s1-0.7,1.8-0.7s1.4,0.2,1.8,0.7C133.2,188.6,133.4,189.2,133.4,190.1z M129.8,190.1c0,0.6,0.1,1,0.3,1.3
		s0.5,0.4,0.9,0.4c0.8,0,1.3-0.6,1.3-1.7c0-1.1-0.4-1.7-1.3-1.7c-0.4,0-0.7,0.1-1,0.4C129.9,189.1,129.8,189.5,129.8,190.1z"/>
	<path class="st6" d="M139,190.1c0,0.8-0.2,1.5-0.6,1.9c-0.4,0.4-1,0.7-1.8,0.7s-1.4-0.2-1.8-0.7c-0.4-0.4-0.6-1.1-0.6-1.9
		c0-0.8,0.2-1.5,0.6-1.9s1-0.7,1.8-0.7s1.4,0.2,1.8,0.7C138.8,188.6,139,189.2,139,190.1z M135.4,190.1c0,0.6,0.1,1,0.3,1.3
		s0.5,0.4,0.9,0.4c0.8,0,1.3-0.6,1.3-1.7c0-1.1-0.4-1.7-1.3-1.7c-0.4,0-0.7,0.1-1,0.4C135.5,189.1,135.4,189.5,135.4,190.1z"/>
	<path class="st6" d="M143.9,192.6h-1.1v-2c-0.4,0.1-0.6,0.2-0.9,0.2s-0.5,0.1-0.7,0.1c-0.5,0-0.8-0.1-1.1-0.3s-0.4-0.6-0.4-1v-2
		h1.1v1.8c0,0.2,0.1,0.4,0.2,0.5s0.3,0.2,0.6,0.2c0.2,0,0.4,0,0.6-0.1c0.2,0,0.4-0.1,0.7-0.2v-2.2h1.1v5H143.9z"/>
	<path class="st6" d="M145.1,187.6h1v2.4v0.6v0.7l0,0l2.3-3.8h1.3v5h-0.9v-2.4c0-0.3,0-0.8,0.1-1.4l0,0l-2.3,3.8h-1.3v-4.9
		L145.1,187.6L145.1,187.6z"/>
	<path class="st6" d="M153,188.4c-0.4,0-0.7,0.2-0.9,0.5s-0.3,0.7-0.3,1.3c0,1.1,0.4,1.7,1.3,1.7c0.4,0,0.8-0.1,1.3-0.3v0.9
		c-0.4,0.2-0.9,0.3-1.4,0.3c-0.7,0-1.3-0.2-1.7-0.7c-0.4-0.4-0.6-1.1-0.6-1.9c0-0.5,0.1-1,0.3-1.4s0.5-0.7,0.8-0.9
		c0.4-0.2,0.8-0.3,1.2-0.3c0.5,0,1,0.1,1.5,0.4l-0.3,0.9c-0.2-0.1-0.4-0.2-0.6-0.2C153.4,188.4,153.2,188.4,153,188.4z"/>
	<path class="st6" d="M157.3,192.6h-1.1v-4.1h-1.4v-0.9h3.8v0.9h-1.4L157.3,192.6L157.3,192.6z"/>
	<path class="st6" d="M163.5,192.6h-1.2l-1.8-2.5v2.5h-1.1v-5h1.1v2.4l1.8-2.4h1.1l-1.8,2.4L163.5,192.6z"/>
	<path class="st6" d="M164.1,187.6h1v2.4v0.6v0.7l0,0l2.3-3.8h1.3v5h-0.9v-2.4c0-0.3,0-0.8,0.1-1.4l0,0l-2.3,3.8h-1.3v-4.9
		L164.1,187.6L164.1,187.6z"/>
</g>
</svg>
