<?xml version="1.0" encoding="utf-8"?>
<!-- Generator: Adobe Illustrator 24.0.0, SVG Export Plug-In . SVG Version: 6.00 Build 0)  -->
<svg version="1.1" id="Layer_1" xmlns="http://www.w3.org/2000/svg" xmlns:xlink="http://www.w3.org/1999/xlink" x="0px" y="0px"
	 viewBox="0 0 145.5 186" style="enable-background:new 0 0 145.5 186;" xml:space="preserve">
<style type="text/css">
	.st0{fill:#A6A5D1;}
	.st1{fill:#D7D5E8;}
	.st2{fill-rule:evenodd;clip-rule:evenodd;fill:#D7D5E8;}
	.st3{fill-rule:evenodd;clip-rule:evenodd;fill:#382E86;}
	.st4{fill-rule:evenodd;clip-rule:evenodd;fill:#5E519C;}
	.st5{fill-rule:evenodd;clip-rule:evenodd;fill:#A6A5D1;}
	.st6{fill:#5E519C;}
	.st7{fill:#3D2777;}
</style>
<g>
	<g>
		<path class="st0" d="M50,160h85.4c2.8,0,5.3-1.1,7.1-3c1.8-1.8,3-4.3,3-7.1c0-14.5,0-122.8,0-137.2v-5l-2.2-1.2l-2.2-1.2L139,6.4
			l-2.2,1.2v5c0,14.5-0.1,122.7-0.1,137.2c0,0.4-0.2,0.8-0.4,1c-0.2,0.2-0.6,0.4-1,0.4H50l2.2,4.8L50,160z"/>
	</g>
	<g>
		<path class="st1" d="M30.3,146.5h-1.4V78.3c0-1.6,1.3-2.8,2.8-2.8v1.4c-0.8,0-1.4,0.6-1.4,1.4V146.5z"/>
	</g>
	<g>
		<path class="st1" d="M59,85.1h-1.4v-6.8c0-0.8-0.6-1.4-1.4-1.4H31.7v-1.4h24.4c1.6,0,2.8,1.3,2.8,2.8V85.1z"/>
	</g>
	<g>
		<path class="st1" d="M25.4,147.4H24v-22.5c0-1.6,1.3-2.8,2.8-2.8h24.4v1.4H26.8c-0.8,0-1.4,0.6-1.4,1.4V147.4z"/>
	</g>
	<g>
		<path class="st1" d="M20.4,147.4H19v-22.5c0-1.6,1.3-2.8,2.8-2.8h24.4v1.4H21.8c-0.8,0-1.4,0.6-1.4,1.4V147.4z"/>
	</g>
	<g>
		<path class="st1" d="M35.2,147.4h-1.4v-22.5c0-1.6,1.3-2.8,2.8-2.8h24.4v1.4H36.6c-0.8,0-1.4,0.6-1.4,1.4V147.4z"/>
	</g>
	<g>
		<path class="st2" d="M49.9,79.7h16.7c2.1,0,3.8,1.7,3.8,3.8v31.9c0,2.1-1.7,3.8-3.8,3.8H49.9c-2.1,0-3.8-1.7-3.8-3.8V83.6
			C46.1,81.5,47.8,79.7,49.9,79.7"/>
	</g>
	<g>
		<path class="st3" d="M45.2,85.1h26.1c3.3,0,6,2.7,6,6V141c0,3.3-2.7,6-6,6H45.2c-3.3,0-6-2.7-6-6V91
			C39.3,87.8,41.9,85.1,45.2,85.1"/>
	</g>
	<g>
		<polygon class="st4" points="39.4,165.6 88.8,165.6 88.8,146.5 64.7,146.5 39.4,146.5 		"/>
	</g>
	<g>
		<path class="st1" d="M53.1,144.4c-0.6,0-1-0.5-1-1v-2.2c0-3.3,2.7-6,5.9-6l10.2,0c0.6,0,1,0.5,1,1s-0.5,1-1,1l-10.2,0
			c-2.1,0-3.9,1.7-3.9,3.9v2.2C54.2,143.9,53.7,144.4,53.1,144.4z"/>
	</g>
	<g>
		<rect x="48.8" y="142.3" class="st5" width="8.5" height="4.2"/>
	</g>
	<g>
		<polygon class="st4" points="80.7,119.8 88.8,131.4 88.8,146.8 80.7,146.8 		"/>
	</g>
	<g>
		<rect x="15.3" y="146.5" class="st5" width="24.1" height="19.1"/>
	</g>
	<g>
		<rect x="58.2" y="98.5" class="st4" width="6.4" height="1"/>
	</g>
	<g>
		<path class="st6" d="M62.9,95.6L62.9,95.6L62.9,95.6h1.5h0.2v0.2v3c0,0.1-0.1,0.2-0.2,0.2c-0.1,0-0.2-0.1-0.2-0.2V96h-1.1v2.8
			c0,0.1-0.1,0.2-0.2,0.2c-0.1,0-0.2-0.1-0.2-0.2V96h-1.1v2.8c0,0.1-0.1,0.2-0.2,0.2c-0.1,0-0.2-0.1-0.2-0.2V96h-1.1v2.8
			c0,0.1-0.1,0.2-0.2,0.2c-0.1,0-0.2-0.1-0.2-0.2V96h-1.1v2.8c0,0.1-0.1,0.2-0.2,0.2c-0.1,0-0.2-0.1-0.2-0.2v-3v-0.2h0.2h1.5h0h0
			h1.5h0h0H62.9z"/>
	</g>
	<g>
		<rect x="64.6" y="98.5" class="st4" width="6.4" height="1"/>
	</g>
	<g>
		<path class="st6" d="M69.2,95.6L69.2,95.6L69.2,95.6h1.5h0.2v0.2v3c0,0.1-0.1,0.2-0.2,0.2c-0.1,0-0.2-0.1-0.2-0.2V96h-1.1v2.8
			c0,0.1-0.1,0.2-0.2,0.2c-0.1,0-0.2-0.1-0.2-0.2V96H68v2.8c0,0.1-0.1,0.2-0.2,0.2c-0.1,0-0.2-0.1-0.2-0.2V96h-1.1v2.8
			c0,0.1-0.1,0.2-0.2,0.2c-0.1,0-0.2-0.1-0.2-0.2V96H65v2.8c0,0.1-0.1,0.2-0.2,0.2c-0.1,0-0.2-0.1-0.2-0.2v-3v-0.2h0.2h1.5h0h0h1.5
			h0h0H69.2z"/>
	</g>
	<g>
		<rect x="70.9" y="98.5" class="st4" width="6.4" height="1"/>
	</g>
	<g>
		<path class="st6" d="M75.6,95.6L75.6,95.6L75.6,95.6h1.5h0.2v0.2v3c0,0.1-0.1,0.2-0.2,0.2c-0.1,0-0.2-0.1-0.2-0.2V96h-1.1v2.8
			c0,0.1-0.1,0.2-0.2,0.2c-0.1,0-0.2-0.1-0.2-0.2V96h-1.1v2.8c0,0.1-0.1,0.2-0.2,0.2c-0.1,0-0.2-0.1-0.2-0.2V96h-1.1v2.8
			c0,0.1-0.1,0.2-0.2,0.2c-0.1,0-0.2-0.1-0.2-0.2V96h-1.1v2.8c0,0.1-0.1,0.2-0.2,0.2c-0.1,0-0.2-0.1-0.2-0.2v-3v-0.2h0.2h1.5h0h0
			h1.5h0h0H75.6z"/>
	</g>
	<g>
		<rect x="39.3" y="98.5" class="st4" width="6.4" height="1"/>
	</g>
	<g>
		<path class="st6" d="M43.9,95.6L43.9,95.6L43.9,95.6h1.5h0.2v0.2v3c0,0.1-0.1,0.2-0.2,0.2c-0.1,0-0.2-0.1-0.2-0.2V96h-1.1v2.8
			c0,0.1-0.1,0.2-0.2,0.2c-0.1,0-0.2-0.1-0.2-0.2V96h-1.1v2.8c0,0.1-0.1,0.2-0.2,0.2c-0.1,0-0.2-0.1-0.2-0.2V96h-1.1v2.8
			c0,0.1-0.1,0.2-0.2,0.2c-0.1,0-0.2-0.1-0.2-0.2V96h-1.1v2.8c0,0.1-0.1,0.2-0.2,0.2c-0.1,0-0.2-0.1-0.2-0.2v-3v-0.2h0.2h1.5h0h0
			h1.5h0h0H43.9z"/>
	</g>
	<g>
		<rect x="45.6" y="98.5" class="st4" width="6.4" height="1"/>
	</g>
	<g>
		<path class="st6" d="M50.3,95.6L50.3,95.6L50.3,95.6h1.5H52v0.2v3c0,0.1-0.1,0.2-0.2,0.2c-0.1,0-0.2-0.1-0.2-0.2V96h-1.1v2.8
			c0,0.1-0.1,0.2-0.2,0.2c-0.1,0-0.2-0.1-0.2-0.2V96H49v2.8c0,0.1-0.1,0.2-0.2,0.2c-0.1,0-0.2-0.1-0.2-0.2V96h-1.1v2.8
			c0,0.1-0.1,0.2-0.2,0.2c-0.1,0-0.2-0.1-0.2-0.2V96H46v2.8c0,0.1-0.1,0.2-0.2,0.2c-0.1,0-0.2-0.1-0.2-0.2v-3v-0.2h0.2h1.5h0h0h1.5
			h0h0H50.3z"/>
	</g>
	<g>
		<rect x="52" y="98.5" class="st4" width="6.4" height="1"/>
	</g>
	<g>
		<path class="st6" d="M56.7,95.6L56.7,95.6L56.7,95.6h1.5h0.2v0.2v3c0,0.1-0.1,0.2-0.2,0.2c-0.1,0-0.2-0.1-0.2-0.2V96h-1.1v2.8
			c0,0.1-0.1,0.2-0.2,0.2c-0.1,0-0.2-0.1-0.2-0.2V96h-1.1v2.8c0,0.1-0.1,0.2-0.2,0.2S55,98.9,55,98.8V96h-1.1v2.8
			c0,0.1-0.1,0.2-0.2,0.2c-0.1,0-0.2-0.1-0.2-0.2V96h-1.1v2.8c0,0.1-0.1,0.2-0.2,0.2c-0.1,0-0.2-0.1-0.2-0.2v-3v-0.2h0.2h1.5h0h0
			h1.5h0h0H56.7z"/>
	</g>
	<g>
		<rect x="58.2" y="111.1" class="st4" width="6.4" height="1"/>
	</g>
	<g>
		<path class="st6" d="M62.9,108.2L62.9,108.2L62.9,108.2h1.5h0.2v0.2v3c0,0.1-0.1,0.2-0.2,0.2c-0.1,0-0.2-0.1-0.2-0.2v-2.8h-1.1
			v2.8c0,0.1-0.1,0.2-0.2,0.2c-0.1,0-0.2-0.1-0.2-0.2v-2.8h-1.1v2.8c0,0.1-0.1,0.2-0.2,0.2c-0.1,0-0.2-0.1-0.2-0.2v-2.8h-1.1v2.8
			c0,0.1-0.1,0.2-0.2,0.2c-0.1,0-0.2-0.1-0.2-0.2v-2.8h-1.1v2.8c0,0.1-0.1,0.2-0.2,0.2c-0.1,0-0.2-0.1-0.2-0.2v-3v-0.2h0.2h1.5h0h0
			h1.5h0h0H62.9z"/>
	</g>
	<g>
		<rect x="64.6" y="111.1" class="st4" width="6.4" height="1"/>
	</g>
	<g>
		<path class="st6" d="M69.2,108.2L69.2,108.2L69.2,108.2h1.5h0.2v0.2v3c0,0.1-0.1,0.2-0.2,0.2c-0.1,0-0.2-0.1-0.2-0.2v-2.8h-1.1
			v2.8c0,0.1-0.1,0.2-0.2,0.2c-0.1,0-0.2-0.1-0.2-0.2v-2.8H68v2.8c0,0.1-0.1,0.2-0.2,0.2c-0.1,0-0.2-0.1-0.2-0.2v-2.8h-1.1v2.8
			c0,0.1-0.1,0.2-0.2,0.2c-0.1,0-0.2-0.1-0.2-0.2v-2.8H65v2.8c0,0.1-0.1,0.2-0.2,0.2c-0.1,0-0.2-0.1-0.2-0.2v-3v-0.2h0.2h1.5h0h0
			h1.5h0h0H69.2z"/>
	</g>
	<g>
		<rect x="70.9" y="111.1" class="st4" width="6.4" height="1"/>
	</g>
	<g>
		<path class="st6" d="M75.6,108.2L75.6,108.2L75.6,108.2h1.5h0.2v0.2v3c0,0.1-0.1,0.2-0.2,0.2c-0.1,0-0.2-0.1-0.2-0.2v-2.8h-1.1
			v2.8c0,0.1-0.1,0.2-0.2,0.2c-0.1,0-0.2-0.1-0.2-0.2v-2.8h-1.1v2.8c0,0.1-0.1,0.2-0.2,0.2c-0.1,0-0.2-0.1-0.2-0.2v-2.8h-1.1v2.8
			c0,0.1-0.1,0.2-0.2,0.2c-0.1,0-0.2-0.1-0.2-0.2v-2.8h-1.1v2.8c0,0.1-0.1,0.2-0.2,0.2c-0.1,0-0.2-0.1-0.2-0.2v-3v-0.2h0.2h1.5h0h0
			h1.5h0h0H75.6z"/>
	</g>
	<g>
		<rect x="39.3" y="111.1" class="st4" width="6.4" height="1"/>
	</g>
	<g>
		<path class="st6" d="M43.9,108.2L43.9,108.2L43.9,108.2h1.5h0.2v0.2v3c0,0.1-0.1,0.2-0.2,0.2c-0.1,0-0.2-0.1-0.2-0.2v-2.8h-1.1
			v2.8c0,0.1-0.1,0.2-0.2,0.2c-0.1,0-0.2-0.1-0.2-0.2v-2.8h-1.1v2.8c0,0.1-0.1,0.2-0.2,0.2c-0.1,0-0.2-0.1-0.2-0.2v-2.8h-1.1v2.8
			c0,0.1-0.1,0.2-0.2,0.2c-0.1,0-0.2-0.1-0.2-0.2v-2.8h-1.1v2.8c0,0.1-0.1,0.2-0.2,0.2c-0.1,0-0.2-0.1-0.2-0.2v-3v-0.2h0.2h1.5h0h0
			h1.5h0h0H43.9z"/>
	</g>
	<g>
		<rect x="45.6" y="111.1" class="st4" width="6.4" height="1"/>
	</g>
	<g>
		<path class="st6" d="M50.3,108.2L50.3,108.2L50.3,108.2h1.5H52v0.2v3c0,0.1-0.1,0.2-0.2,0.2c-0.1,0-0.2-0.1-0.2-0.2v-2.8h-1.1v2.8
			c0,0.1-0.1,0.2-0.2,0.2c-0.1,0-0.2-0.1-0.2-0.2v-2.8H49v2.8c0,0.1-0.1,0.2-0.2,0.2c-0.1,0-0.2-0.1-0.2-0.2v-2.8h-1.1v2.8
			c0,0.1-0.1,0.2-0.2,0.2c-0.1,0-0.2-0.1-0.2-0.2v-2.8H46v2.8c0,0.1-0.1,0.2-0.2,0.2c-0.1,0-0.2-0.1-0.2-0.2v-3v-0.2h0.2h1.5h0h0
			h1.5h0h0H50.3z"/>
	</g>
	<g>
		<rect x="52" y="111.1" class="st4" width="6.4" height="1"/>
	</g>
	<g>
		<path class="st6" d="M56.7,108.2L56.7,108.2L56.7,108.2h1.5h0.2v0.2v3c0,0.1-0.1,0.2-0.2,0.2c-0.1,0-0.2-0.1-0.2-0.2v-2.8h-1.1
			v2.8c0,0.1-0.1,0.2-0.2,0.2c-0.1,0-0.2-0.1-0.2-0.2v-2.8h-1.1v2.8c0,0.1-0.1,0.2-0.2,0.2s-0.2-0.1-0.2-0.2v-2.8h-1.1v2.8
			c0,0.1-0.1,0.2-0.2,0.2c-0.1,0-0.2-0.1-0.2-0.2v-2.8h-1.1v2.8c0,0.1-0.1,0.2-0.2,0.2c-0.1,0-0.2-0.1-0.2-0.2v-3v-0.2h0.2h1.5h0h0
			h1.5h0h0H56.7z"/>
	</g>
	<g>
		<rect x="58.2" y="123.6" class="st4" width="6.4" height="1"/>
	</g>
	<g>
		<path class="st6" d="M62.9,120.7L62.9,120.7L62.9,120.7h1.5h0.2v0.2v3c0,0.1-0.1,0.2-0.2,0.2c-0.1,0-0.2-0.1-0.2-0.2v-2.8h-1.1
			v2.8c0,0.1-0.1,0.2-0.2,0.2c-0.1,0-0.2-0.1-0.2-0.2v-2.8h-1.1v2.8c0,0.1-0.1,0.2-0.2,0.2c-0.1,0-0.2-0.1-0.2-0.2v-2.8h-1.1v2.8
			c0,0.1-0.1,0.2-0.2,0.2c-0.1,0-0.2-0.1-0.2-0.2v-2.8h-1.1v2.8c0,0.1-0.1,0.2-0.2,0.2c-0.1,0-0.2-0.1-0.2-0.2v-3v-0.2h0.2h1.5h0h0
			h1.5h0h0H62.9z"/>
	</g>
	<g>
		<rect x="64.6" y="123.6" class="st4" width="6.4" height="1"/>
	</g>
	<g>
		<path class="st6" d="M69.2,120.7L69.2,120.7L69.2,120.7h1.5h0.2v0.2v3c0,0.1-0.1,0.2-0.2,0.2c-0.1,0-0.2-0.1-0.2-0.2v-2.8h-1.1
			v2.8c0,0.1-0.1,0.2-0.2,0.2c-0.1,0-0.2-0.1-0.2-0.2v-2.8H68v2.8c0,0.1-0.1,0.2-0.2,0.2c-0.1,0-0.2-0.1-0.2-0.2v-2.8h-1.1v2.8
			c0,0.1-0.1,0.2-0.2,0.2c-0.1,0-0.2-0.1-0.2-0.2v-2.8H65v2.8c0,0.1-0.1,0.2-0.2,0.2c-0.1,0-0.2-0.1-0.2-0.2v-3v-0.2h0.2h1.5h0h0
			h1.5h0h0H69.2z"/>
	</g>
	<g>
		<rect x="70.9" y="123.6" class="st4" width="6.4" height="1"/>
	</g>
	<g>
		<path class="st6" d="M75.6,120.7L75.6,120.7L75.6,120.7h1.5h0.2v0.2v3c0,0.1-0.1,0.2-0.2,0.2c-0.1,0-0.2-0.1-0.2-0.2v-2.8h-1.1
			v2.8c0,0.1-0.1,0.2-0.2,0.2c-0.1,0-0.2-0.1-0.2-0.2v-2.8h-1.1v2.8c0,0.1-0.1,0.2-0.2,0.2c-0.1,0-0.2-0.1-0.2-0.2v-2.8h-1.1v2.8
			c0,0.1-0.1,0.2-0.2,0.2c-0.1,0-0.2-0.1-0.2-0.2v-2.8h-1.1v2.8c0,0.1-0.1,0.2-0.2,0.2c-0.1,0-0.2-0.1-0.2-0.2v-3v-0.2h0.2h1.5h0h0
			h1.5h0h0H75.6z"/>
	</g>
	<g>
		<rect x="39.3" y="123.6" class="st4" width="6.4" height="1"/>
	</g>
	<g>
		<path class="st6" d="M43.9,120.7L43.9,120.7L43.9,120.7h1.5h0.2v0.2v3c0,0.1-0.1,0.2-0.2,0.2c-0.1,0-0.2-0.1-0.2-0.2v-2.8h-1.1
			v2.8c0,0.1-0.1,0.2-0.2,0.2c-0.1,0-0.2-0.1-0.2-0.2v-2.8h-1.1v2.8c0,0.1-0.1,0.2-0.2,0.2c-0.1,0-0.2-0.1-0.2-0.2v-2.8h-1.1v2.8
			c0,0.1-0.1,0.2-0.2,0.2c-0.1,0-0.2-0.1-0.2-0.2v-2.8h-1.1v2.8c0,0.1-0.1,0.2-0.2,0.2c-0.1,0-0.2-0.1-0.2-0.2v-3v-0.2h0.2h1.5h0h0
			h1.5h0h0H43.9z"/>
	</g>
	<g>
		<rect x="45.6" y="123.6" class="st4" width="6.4" height="1"/>
	</g>
	<g>
		<path class="st6" d="M50.3,120.7L50.3,120.7L50.3,120.7h1.5H52v0.2v3c0,0.1-0.1,0.2-0.2,0.2c-0.1,0-0.2-0.1-0.2-0.2v-2.8h-1.1v2.8
			c0,0.1-0.1,0.2-0.2,0.2c-0.1,0-0.2-0.1-0.2-0.2v-2.8H49v2.8c0,0.1-0.1,0.2-0.2,0.2c-0.1,0-0.2-0.1-0.2-0.2v-2.8h-1.1v2.8
			c0,0.1-0.1,0.2-0.2,0.2c-0.1,0-0.2-0.1-0.2-0.2v-2.8H46v2.8c0,0.1-0.1,0.2-0.2,0.2c-0.1,0-0.2-0.1-0.2-0.2v-3v-0.2h0.2h1.5h0h0
			h1.5h0h0H50.3z"/>
	</g>
	<g>
		<rect x="52" y="123.6" class="st4" width="6.4" height="1"/>
	</g>
	<g>
		<path class="st6" d="M56.7,120.7L56.7,120.7L56.7,120.7h1.5h0.2v0.2v3c0,0.1-0.1,0.2-0.2,0.2c-0.1,0-0.2-0.1-0.2-0.2v-2.8h-1.1
			v2.8c0,0.1-0.1,0.2-0.2,0.2c-0.1,0-0.2-0.1-0.2-0.2v-2.8h-1.1v2.8c0,0.1-0.1,0.2-0.2,0.2S55,124,55,123.9v-2.8h-1.1v2.8
			c0,0.1-0.1,0.2-0.2,0.2c-0.1,0-0.2-0.1-0.2-0.2v-2.8h-1.1v2.8c0,0.1-0.1,0.2-0.2,0.2c-0.1,0-0.2-0.1-0.2-0.2v-3v-0.2h0.2h1.5h0h0
			h1.5h0h0H56.7z"/>
	</g>
	<g>
		<path class="st5" d="M52.1,85.1v8.8h-6v-8.8h-0.8v8.8v0.9v5.5v0.9v5.5v0.9v5.5v0.9v5.5v0.9v5.5v0.9v5.5v0.9v5.5v0.9v5.5v0.9v5.7
			v0.9h0.8h6h0.8v-0.9v-5.7v-0.9v-5.5v-0.9V133v-0.9v-5.5v-0.9v-5.5v-0.9v-5.5V113v-5.5v-0.9v-5.5v-0.9v-5.5v-0.9v-8.8H52.1z
			 M52.1,151.4h-6v-5.7h6V151.4z M52.1,144.8h-6v-5.5h6V144.8z M52.1,138.5h-6V133h6V138.5z M52.1,132.1h-6v-5.5h6V132.1z
			 M52.1,125.7h-6v-5.5h6V125.7z M52.1,119.3h-6v-5.5h6V119.3z M52.1,113h-6v-5.5h6V113z M52.1,106.6h-6v-5.5h6V106.6z M52.1,100.2
			h-6v-5.5h6V100.2z"/>
	</g>
	<g>
		<rect x="68.3" y="119.8" class="st5" width="12.5" height="26.7"/>
	</g>
	<g>
		<rect x="22.6" y="154.9" class="st4" width="2.4" height="2.4"/>
	</g>
	<g>
		<rect x="26.1" y="154.9" class="st4" width="2.4" height="2.4"/>
	</g>
	<g>
		<rect x="29.7" y="154.9" class="st4" width="2.4" height="2.4"/>
	</g>
	<g>
		<polygon class="st0" points="145.5,7.5 145.5,9.9 145.5,31 136.8,31 136.8,9.9 136.8,7.5 136.8,7.5 136.8,7.5 136.8,7.5 139,6.2 
			141.2,5 143.3,6.2 		"/>
	</g>
	<g>
		<polygon class="st5" points="136.8,5 136.8,2.5 139,1.2 141.2,0 143.3,1.2 145.5,2.5 145.5,5 143.3,3.7 141.2,2.5 139,3.7 		"/>
	</g>
	<g>
		<g>
			<path class="st7" d="M4.6,172.6L3,176.1c-0.2,0.4-0.4,0.8-0.5,1c-0.2,0.2-0.4,0.3-0.6,0.4s-0.5,0.1-0.8,0.1c-0.3,0-0.5,0-0.8-0.1
				v-0.9c0.2,0.1,0.4,0.1,0.7,0.1c0.2,0,0.3,0,0.5-0.1c0.1-0.1,0.2-0.2,0.3-0.5L0,172.6h1.1l1.2,2.8h0l0.1-0.2l1-2.6H4.6z"/>
			<path class="st7" d="M7.3,173.4c-0.4,0-0.7,0.2-0.9,0.5s-0.3,0.7-0.3,1.3c0,1.1,0.4,1.7,1.3,1.7c0.4,0,0.8-0.1,1.3-0.3v0.9
				c-0.4,0.2-0.9,0.3-1.4,0.3c-0.7,0-1.3-0.2-1.7-0.7c-0.4-0.4-0.6-1.1-0.6-1.9c0-0.5,0.1-1,0.3-1.4s0.5-0.7,0.8-0.9
				c0.4-0.2,0.8-0.3,1.2-0.3c0.5,0,1,0.1,1.5,0.4l-0.3,0.9c-0.2-0.1-0.4-0.2-0.6-0.2C7.7,173.4,7.5,173.4,7.3,173.4z"/>
			<path class="st7" d="M11.6,177.6h-1.1v-4.1H9.2v-0.9h3.8v0.9h-1.4V177.6z"/>
			<path class="st7" d="M16.8,177.6l-0.4-1.2h-1.8l-0.4,1.2h-1.1l1.8-5h1.3l1.8,5H16.8z M16.1,175.5c-0.3-1.1-0.5-1.7-0.6-1.8
				c0-0.1-0.1-0.3-0.1-0.3c-0.1,0.3-0.3,1-0.6,2.2H16.1z"/>
			<path class="st7" d="M22.6,177.6h-1.1v-2.2h-2v2.2h-1.1v-5h1.1v2h2v-2h1.1V177.6z"/>
			<path class="st7" d="M28.4,175.1c0,0.8-0.2,1.5-0.6,1.9c-0.4,0.4-1,0.7-1.8,0.7s-1.4-0.2-1.8-0.7c-0.4-0.4-0.6-1.1-0.6-1.9
				c0-0.8,0.2-1.5,0.6-1.9s1-0.7,1.8-0.7s1.4,0.2,1.8,0.7C28.2,173.6,28.4,174.2,28.4,175.1z M24.8,175.1c0,0.6,0.1,1,0.3,1.3
				s0.5,0.4,0.9,0.4c0.8,0,1.3-0.6,1.3-1.7c0-1.1-0.4-1.7-1.3-1.7c-0.4,0-0.7,0.1-1,0.4C24.9,174.1,24.8,174.5,24.8,175.1z"/>
			<path class="st7" d="M29.5,172.6H31c0.7,0,1.2,0.1,1.5,0.3c0.3,0.2,0.5,0.5,0.5,1c0,0.3-0.1,0.5-0.2,0.7
				c-0.1,0.2-0.3,0.3-0.6,0.3v0c0.3,0.1,0.5,0.2,0.7,0.4c0.1,0.2,0.2,0.5,0.2,0.8c0,0.5-0.2,0.8-0.5,1.1s-0.8,0.4-1.3,0.4h-1.9
				V172.6z M30.5,174.6h0.6c0.3,0,0.5,0,0.6-0.1c0.1-0.1,0.2-0.2,0.2-0.4c0-0.2-0.1-0.3-0.2-0.4c-0.1-0.1-0.4-0.1-0.7-0.1h-0.6
				V174.6z M30.5,175.4v1.3h0.7c0.3,0,0.5-0.1,0.6-0.2c0.1-0.1,0.2-0.3,0.2-0.5c0-0.4-0.3-0.6-0.9-0.6H30.5z"/>
			<path class="st7" d="M38.2,177.6H37l-1.8-2.5v2.5h-1.1v-5h1.1v2.4l1.8-2.4h1.1l-1.8,2.4L38.2,177.6z"/>
			<path class="st7" d="M41.9,177.6l-0.4-1.2h-1.8l-0.4,1.2h-1.1l1.8-5h1.3l1.8,5H41.9z M41.3,175.5c-0.3-1.1-0.5-1.7-0.6-1.8
				c0-0.1-0.1-0.3-0.1-0.3c-0.1,0.3-0.3,1-0.6,2.2H41.3z"/>
			<path class="st7" d="M49.5,177.6h-1.1v-4.1h-1.8v4.1h-1.1v-5h4V177.6z"/>
			<path class="st7" d="M54.2,174.1c0,0.5-0.2,0.9-0.5,1.2c-0.3,0.3-0.8,0.4-1.4,0.4h-0.5v1.8h-1.1v-5h1.6c0.6,0,1.1,0.1,1.4,0.4
				S54.2,173.6,54.2,174.1z M51.8,174.9h0.3c0.3,0,0.6-0.1,0.7-0.2s0.2-0.3,0.2-0.6c0-0.2-0.1-0.4-0.2-0.6c-0.1-0.1-0.3-0.2-0.6-0.2
				h-0.5V174.9z"/>
			<path class="st7" d="M59.6,175.1c0,0.8-0.2,1.5-0.6,1.9c-0.4,0.4-1,0.7-1.8,0.7s-1.4-0.2-1.8-0.7c-0.4-0.4-0.6-1.1-0.6-1.9
				c0-0.8,0.2-1.5,0.6-1.9s1-0.7,1.8-0.7s1.4,0.2,1.8,0.7C59.4,173.6,59.6,174.2,59.6,175.1z M56,175.1c0,0.6,0.1,1,0.3,1.3
				s0.5,0.4,0.9,0.4c0.8,0,1.3-0.6,1.3-1.7c0-1.1-0.4-1.7-1.3-1.7c-0.4,0-0.7,0.1-1,0.4C56.1,174.1,56,174.5,56,175.1z"/>
			<path class="st7" d="M60.7,172.6h1v2.4l0,0.6l0,0.7h0l2.3-3.8h1.3v5h-0.9v-2.4c0-0.3,0-0.8,0.1-1.4h0l-2.3,3.8h-1.3V172.6z"/>
			<path class="st7" d="M69.9,173.8c0,0.3-0.1,0.6-0.3,0.8c-0.2,0.2-0.5,0.3-0.9,0.4v0c0.5,0,0.8,0.2,1.1,0.4
				c0.2,0.2,0.4,0.5,0.4,0.8c0,0.5-0.2,0.8-0.6,1.1c-0.4,0.3-0.9,0.4-1.5,0.4c-0.7,0-1.3-0.1-1.8-0.3v-0.9c0.2,0.1,0.5,0.2,0.8,0.2
				c0.3,0.1,0.6,0.1,0.8,0.1c0.8,0,1.3-0.2,1.3-0.7c0-0.2-0.1-0.4-0.4-0.5c-0.3-0.1-0.7-0.2-1.2-0.2h-0.5v-0.8h0.4
				c0.5,0,0.9,0,1.2-0.2c0.2-0.1,0.4-0.3,0.4-0.5c0-0.2-0.1-0.3-0.2-0.4c-0.2-0.1-0.4-0.2-0.7-0.2c-0.5,0-0.9,0.1-1.4,0.4l-0.5-0.7
				c0.3-0.2,0.6-0.3,0.9-0.4s0.7-0.1,1.1-0.1c0.5,0,1,0.1,1.3,0.3C69.7,173.1,69.9,173.4,69.9,173.8z"/>
			<path class="st7" d="M71,172.6h1.6c0.7,0,1.2,0.1,1.5,0.3c0.3,0.2,0.5,0.5,0.5,1c0,0.3-0.1,0.5-0.2,0.7c-0.1,0.2-0.3,0.3-0.6,0.3
				v0c0.3,0.1,0.5,0.2,0.7,0.4c0.1,0.2,0.2,0.5,0.2,0.8c0,0.5-0.2,0.8-0.5,1.1s-0.8,0.4-1.3,0.4H71V172.6z M72,174.6h0.6
				c0.3,0,0.5,0,0.6-0.1c0.1-0.1,0.2-0.2,0.2-0.4c0-0.2-0.1-0.3-0.2-0.4c-0.1-0.1-0.4-0.1-0.7-0.1H72V174.6z M72,175.4v1.3h0.7
				c0.3,0,0.5-0.1,0.6-0.2c0.1-0.1,0.2-0.3,0.2-0.5c0-0.4-0.3-0.6-0.9-0.6H72z"/>
			<path class="st7" d="M80.2,175.1c0,0.8-0.2,1.5-0.6,1.9c-0.4,0.4-1,0.7-1.8,0.7s-1.4-0.2-1.8-0.7c-0.4-0.4-0.6-1.1-0.6-1.9
				c0-0.8,0.2-1.5,0.6-1.9s1-0.7,1.8-0.7s1.4,0.2,1.8,0.7C80,173.6,80.2,174.2,80.2,175.1z M76.6,175.1c0,0.6,0.1,1,0.3,1.3
				s0.5,0.4,0.9,0.4c0.8,0,1.3-0.6,1.3-1.7c0-1.1-0.4-1.7-1.3-1.7c-0.4,0-0.7,0.1-1,0.4C76.7,174.1,76.6,174.5,76.6,175.1z"/>
			<path class="st7" d="M80.6,176.7H81c0.3-0.7,0.6-1.3,0.8-2c0.2-0.7,0.3-1.4,0.4-2.1h2.9v4.1h0.7v2.3h-1v-1.5h-3.1v1.5h-1V176.7z
				 M83.1,173.5c-0.1,0.5-0.2,1.1-0.4,1.7c-0.2,0.6-0.4,1.1-0.6,1.6h2v-3.2H83.1z"/>
			<path class="st7" d="M88.7,173.4c-0.4,0-0.7,0.2-0.9,0.5s-0.3,0.7-0.3,1.3c0,1.1,0.4,1.7,1.3,1.7c0.4,0,0.8-0.1,1.3-0.3v0.9
				c-0.4,0.2-0.9,0.3-1.4,0.3c-0.7,0-1.3-0.2-1.7-0.7c-0.4-0.4-0.6-1.1-0.6-1.9c0-0.5,0.1-1,0.3-1.4s0.5-0.7,0.8-0.9
				c0.4-0.2,0.8-0.3,1.2-0.3c0.5,0,1,0.1,1.5,0.4l-0.3,0.9c-0.2-0.1-0.4-0.2-0.6-0.2C89.1,173.4,88.9,173.4,88.7,173.4z"/>
			<path class="st7" d="M93,177.6h-1.1v-4.1h-1.4v-0.9h3.8v0.9H93V177.6z"/>
			<path class="st7" d="M95.1,172.6h1.6c0.7,0,1.2,0.1,1.5,0.3c0.3,0.2,0.5,0.5,0.5,1c0,0.3-0.1,0.5-0.2,0.7
				c-0.1,0.2-0.3,0.3-0.6,0.3v0c0.3,0.1,0.5,0.2,0.7,0.4c0.1,0.2,0.2,0.5,0.2,0.8c0,0.5-0.2,0.8-0.5,1.1s-0.8,0.4-1.3,0.4h-1.9
				V172.6z M96.2,174.6h0.6c0.3,0,0.5,0,0.6-0.1c0.1-0.1,0.2-0.2,0.2-0.4c0-0.2-0.1-0.3-0.2-0.4c-0.1-0.1-0.4-0.1-0.7-0.1h-0.6
				V174.6z M96.2,175.4v1.3h0.7c0.3,0,0.5-0.1,0.6-0.2c0.1-0.1,0.2-0.3,0.2-0.5c0-0.4-0.3-0.6-0.9-0.6H96.2z"/>
			<path class="st7" d="M102.9,177.6l-0.4-1.2h-1.8l-0.4,1.2h-1.1l1.8-5h1.3l1.8,5H102.9z M102.2,175.5c-0.3-1.1-0.5-1.7-0.6-1.8
				c0-0.1-0.1-0.3-0.1-0.3c-0.1,0.3-0.3,1-0.6,2.2H102.2z"/>
			<path class="st7" d="M16.6,186h-1.1v-4.1h-1.4V181H18v0.9h-1.4V186z"/>
			<path class="st7" d="M21.6,186h-2.9v-5h2.9v0.9h-1.8v1.1h1.7v0.9h-1.7v1.3h1.8V186z"/>
			<path class="st7" d="M26.7,186h-1.2l-1.2-1.9l-1.2,1.9H22l1.7-2.6l-1.6-2.4h1.2l1.1,1.8l1.1-1.8h1.1l-1.6,2.5L26.7,186z"/>
			<path class="st7" d="M31.4,186h-1.1v-2.2h-2v2.2h-1.1v-5h1.1v2h2v-2h1.1V186z"/>
			<path class="st7" d="M32.7,181h1v2.4l0,0.6l0,0.7h0l2.3-3.8h1.3v5h-0.9v-2.4c0-0.3,0-0.8,0.1-1.4h0l-2.3,3.8h-1.3V181z"/>
			<path class="st7" d="M42.3,186h-1.1V184c-0.4,0.1-0.6,0.2-0.9,0.2s-0.5,0.1-0.7,0.1c-0.5,0-0.8-0.1-1.1-0.3
				c-0.3-0.2-0.4-0.6-0.4-1V181h1.1v1.8c0,0.2,0.1,0.4,0.2,0.5c0.1,0.1,0.3,0.2,0.6,0.2c0.2,0,0.4,0,0.6-0.1c0.2,0,0.4-0.1,0.7-0.2
				V181h1.1V186z"/>
			<path class="st7" d="M46.4,186h-2.9v-5h2.9v0.9h-1.8v1.1h1.7v0.9h-1.7v1.3h1.8V186z"/>
			<path class="st7" d="M49.6,181.8c-0.4,0-0.7,0.2-0.9,0.5s-0.3,0.7-0.3,1.3c0,1.1,0.4,1.7,1.3,1.7c0.4,0,0.8-0.1,1.3-0.3v0.9
				c-0.4,0.2-0.9,0.3-1.4,0.3c-0.7,0-1.3-0.2-1.7-0.7c-0.4-0.4-0.6-1.1-0.6-1.9c0-0.5,0.1-1,0.3-1.4s0.5-0.7,0.8-0.9
				c0.4-0.2,0.8-0.3,1.2-0.3c0.5,0,1,0.1,1.5,0.4l-0.3,0.9c-0.2-0.1-0.4-0.2-0.6-0.2C49.9,181.8,49.7,181.8,49.6,181.8z"/>
			<path class="st7" d="M56,186h-1.2l-1.8-2.5v2.5h-1.1v-5H53v2.4l1.8-2.4h1.1l-1.8,2.4L56,186z"/>
			<path class="st7" d="M56.6,181h1v2.4l0,0.6l0,0.7h0l2.3-3.8h1.3v5h-0.9v-2.4c0-0.3,0-0.8,0.1-1.4h0l-2.3,3.8h-1.3V181z"/>
			<path class="st7" d="M66.4,186h-1.2l-1.2-1.9l-1.2,1.9h-1.1l1.7-2.6l-1.6-2.4H63l1.1,1.8l1.1-1.8h1.1l-1.6,2.5L66.4,186z"/>
			<path class="st7" d="M72,181v0.9h-2.1v4.1h-1.1v-5H72z"/>
			<path class="st7" d="M75.8,186l-0.4-1.2h-1.8l-0.4,1.2h-1.1l1.8-5h1.3l1.8,5H75.8z M75.2,183.9c-0.3-1.1-0.5-1.7-0.6-1.8
				c0-0.1-0.1-0.3-0.1-0.3c-0.1,0.3-0.3,1-0.6,2.2H75.2z"/>
			<path class="st7" d="M81,182.2c0,0.3-0.1,0.6-0.3,0.8c-0.2,0.2-0.5,0.3-0.9,0.4v0c0.5,0,0.8,0.2,1.1,0.4c0.2,0.2,0.4,0.5,0.4,0.8
				c0,0.5-0.2,0.8-0.6,1.1c-0.4,0.3-0.9,0.4-1.5,0.4c-0.7,0-1.3-0.1-1.8-0.3v-0.9c0.2,0.1,0.5,0.2,0.8,0.2c0.3,0.1,0.6,0.1,0.8,0.1
				c0.8,0,1.3-0.2,1.3-0.7c0-0.2-0.1-0.4-0.4-0.5c-0.3-0.1-0.7-0.2-1.2-0.2h-0.5V183h0.4c0.5,0,0.9,0,1.2-0.2
				c0.2-0.1,0.4-0.3,0.4-0.5c0-0.2-0.1-0.3-0.2-0.4c-0.2-0.1-0.4-0.2-0.7-0.2c-0.5,0-0.9,0.1-1.4,0.4l-0.5-0.7
				c0.3-0.2,0.6-0.3,0.9-0.4s0.7-0.1,1.1-0.1c0.5,0,1,0.1,1.3,0.3C80.9,181.5,81,181.8,81,182.2z"/>
			<path class="st7" d="M86.7,183.5c0,0.8-0.2,1.5-0.6,1.9c-0.4,0.4-1,0.7-1.8,0.7s-1.4-0.2-1.8-0.7c-0.4-0.4-0.6-1.1-0.6-1.9
				c0-0.8,0.2-1.5,0.6-1.9s1-0.7,1.8-0.7s1.4,0.2,1.8,0.7C86.5,182,86.7,182.6,86.7,183.5z M83,183.5c0,0.6,0.1,1,0.3,1.3
				s0.5,0.4,0.9,0.4c0.8,0,1.3-0.6,1.3-1.7c0-1.1-0.4-1.7-1.3-1.7c-0.4,0-0.7,0.1-1,0.4C83.1,182.5,83,182.9,83,183.5z"/>
			<path class="st7" d="M87.7,181h1.6c0.7,0,1.2,0.1,1.5,0.3c0.3,0.2,0.5,0.5,0.5,1c0,0.3-0.1,0.5-0.2,0.7c-0.1,0.2-0.3,0.3-0.6,0.3
				v0c0.3,0.1,0.5,0.2,0.7,0.4c0.1,0.2,0.2,0.5,0.2,0.8c0,0.5-0.2,0.8-0.5,1.1s-0.8,0.4-1.3,0.4h-1.9V181z M88.8,183h0.6
				c0.3,0,0.5,0,0.6-0.1c0.1-0.1,0.2-0.2,0.2-0.4c0-0.2-0.1-0.3-0.2-0.4c-0.1-0.1-0.4-0.1-0.7-0.1h-0.6V183z M88.8,183.8v1.3h0.7
				c0.3,0,0.5-0.1,0.6-0.2c0.1-0.1,0.2-0.3,0.2-0.5c0-0.4-0.3-0.6-0.9-0.6H88.8z"/>
		</g>
	</g>
</g>
</svg>
