<svg width="183" height="59" viewBox="0 0 183 59" fill="none" xmlns="http://www.w3.org/2000/svg">
<g clip-path="url(#clip0)">
<path d="M8.7 0H0V20.3H8.7V0Z" fill="#E1171D"/>
<path fill-rule="evenodd" clip-rule="evenodd" d="M174.3 41.7001V43.2001C174.3 47.6001 170.7 51.1 166.4 51.1H117.6C113.2 51.1 109.7 47.5001 109.7 43.2001V41.7001C109.7 37.3001 113.3 33.8 117.6 33.8H166.4C170.7 33.8 174.3 37.4001 174.3 41.7001Z" fill="#A6A5D1"/>
<path fill-rule="evenodd" clip-rule="evenodd" d="M168.1 47.6H115.9C115.7 47.6 115.5 47.8 115.5 48V48.1C115.5 48.3 115.7 48.5 115.9 48.5H168.1C168.3 48.5 168.5 48.3 168.5 48.1V48C168.6 47.8 168.4 47.6 168.1 47.6Z" fill="#A6A5D1"/>
<path fill-rule="evenodd" clip-rule="evenodd" d="M92.5 41.7001V43.2001C92.5 47.6001 88.9 51.1 84.6 51.1H35.8C31.4 51.1 27.9 47.5001 27.9 43.2001V41.7001C27.9 37.3001 31.5 33.8 35.8 33.8H84.6C89 33.8 92.5 37.4001 92.5 41.7001Z" fill="#A6A5D1"/>
<path d="M178 51.1H105.6V52.5H178V51.1Z" fill="#A6A5D1"/>
<path d="M106.8 53.3H100.8V54.8H106.8V53.3Z" fill="#A6A5D1"/>
<path fill-rule="evenodd" clip-rule="evenodd" d="M101.1 55.4C100.9 55.4 100.9 55.3 100.9 55.2V51.7C100.9 51.6 101 51.5 101.1 51.5C101.2 51.5 101.3 51.6 101.3 51.7V55.2C101.3 55.3 101.2 55.4 101.1 55.4Z" fill="#A6A5D1"/>
<path d="M182.9 53.3H176.9V54.8H182.9V53.3Z" fill="#A6A5D1"/>
<path fill-rule="evenodd" clip-rule="evenodd" d="M182.6 55.4C182.8 55.4 182.8 55.3 182.8 55.2V51.7C182.8 51.6 182.7 51.5 182.6 51.5C182.5 51.5 182.4 51.6 182.4 51.7V55.2C182.4 55.3 182.5 55.4 182.6 55.4Z" fill="#A6A5D1"/>
<path fill-rule="evenodd" clip-rule="evenodd" d="M169.9 53.1V52.5H160V53.1H158.2V56H178V53.1H169.9Z" fill="#A6A5D1"/>
<path fill-rule="evenodd" clip-rule="evenodd" d="M166.4 57.5H163.8C162.7 57.5 161.8 56.6 161.8 55.5V55.1C161.8 54 162.7 53.1 163.8 53.1H166.4C167.5 53.1 168.4 54 168.4 55.1V55.5C168.3 56.6 167.4 57.5 166.4 57.5Z" fill="#A6A5D1"/>
<path fill-rule="evenodd" clip-rule="evenodd" d="M154.5 55.7999C154.5 54.0999 155.9 52.7 157.6 52.7C159.3 52.7 160.7 54.0999 160.7 55.7999C160.7 57.4999 159.3 58.9 157.6 58.9C156 58.9 154.5 57.4999 154.5 55.7999Z" fill="#A6A5D1"/>
<path fill-rule="evenodd" clip-rule="evenodd" d="M169.2 55.7999C169.2 54.0999 170.6 52.7 172.3 52.7C174 52.7 175.4 54.0999 175.4 55.7999C175.4 57.4999 174 58.9 172.3 58.9C170.6 58.9 169.2 57.4999 169.2 55.7999Z" fill="#A6A5D1"/>
<path fill-rule="evenodd" clip-rule="evenodd" d="M173.1 53.7L170.1 53.1C169.7 53 169.3 53 168.9 53H165H161.1C160.7 53 160.3 53 159.9 53.1L156.9 53.7C156.3 53.8 155.9 54.3 156 54.9L156.1 56.1C156.1 56.3 156.3 56.5 156.5 56.5C156.7 56.5 156.8 56.4 156.8 56.2L156.9 55.5C156.9 55.2 157.2 55.1 157.4 55L158.3 54.9C158.6 54.9 158.9 55 159.1 55.3L160.9 57.8C161.1 58.1 161.4 58.2 161.8 58.2H165H168.2C168.5 58.2 168.9 58 169.1 57.8L170.9 55.3C171.1 55 171.4 54.9 171.7 54.9L172.6 55C172.9 55 173.1 55.2 173.1 55.5L173.2 56.2C173.2 56.4 173.4 56.5 173.5 56.5C173.7 56.5 173.9 56.3 173.9 56.1L174 54.9C174.1 54.3 173.7 53.8 173.1 53.7ZM161 55.8C161 56.2 160.5 56.3 160.3 56L159.6 54.5C159.5 54.2 159.7 54 159.9 54H160.6C160.8 54 161 54.2 161 54.4V55.8V55.8ZM167.8 56.3C167.8 56.8 167.4 57.3 166.8 57.3H165H163.2C162.7 57.3 162.2 56.9 162.2 56.3V54.3C162.2 54 162.5 53.7 162.8 53.7H164.9H167C167.4 53.7 167.6 54 167.6 54.3L167.8 56.3ZM170.4 54.5L169.7 56C169.5 56.4 169 56.2 169 55.8V54.3C169 54.1 169.2 53.9 169.4 53.9H170.1C170.4 54 170.6 54.3 170.4 54.5Z" fill="#A6A5D1"/>
<path fill-rule="evenodd" clip-rule="evenodd" d="M113.7 53.1V52.5H123.7V53.1H125.4V56H105.6V53.1H113.7Z" fill="#A6A5D1"/>
<path fill-rule="evenodd" clip-rule="evenodd" d="M117.3 57.5H119.9C121 57.5 121.9 56.6 121.9 55.5V55.1C121.9 54 121 53.1 119.9 53.1H117.3C116.2 53.1 115.3 54 115.3 55.1V55.5C115.3 56.6 116.2 57.5 117.3 57.5Z" fill="#A6A5D1"/>
<path fill-rule="evenodd" clip-rule="evenodd" d="M129.1 55.7999C129.1 54.0999 127.7 52.7 126 52.7C124.3 52.7 122.9 54.0999 122.9 55.7999C122.9 57.4999 124.3 58.9 126 58.9C127.7 58.9 129.1 57.4999 129.1 55.7999Z" fill="#A6A5D1"/>
<path fill-rule="evenodd" clip-rule="evenodd" d="M114.5 55.7999C114.5 54.0999 113.1 52.7 111.4 52.7C109.7 52.7 108.3 54.0999 108.3 55.7999C108.3 57.4999 109.7 58.9 111.4 58.9C113 58.9 114.5 57.4999 114.5 55.7999Z" fill="#A6A5D1"/>
<path fill-rule="evenodd" clip-rule="evenodd" d="M109.6 54.8L109.7 56C109.7 56.2 109.9 56.4 110.1 56.4C110.3 56.4 110.4 56.3 110.4 56.1L110.5 55.4C110.5 55.1 110.8 55 111 54.9L111.9 54.8C112.2 54.8 112.5 54.9 112.7 55.2L114.5 57.7C114.7 58 115 58.1 115.4 58.1H118.6H121.8C122.1 58.1 122.5 57.9 122.7 57.7L124.5 55.2C124.7 54.9 125 54.8 125.3 54.8L126.2 54.9C126.5 54.9 126.7 55.1 126.7 55.4L126.8 56.1C126.8 56.3 127 56.4 127.1 56.4C127.3 56.4 127.5 56.2 127.5 56L127.6 54.8C127.6 54.2 127.2 53.7 126.7 53.6L123.7 53C123.3 52.9 122.9 52.9 122.5 52.9H118.6H114.7C114.3 52.9 113.9 52.9 113.5 53L110.5 53.6C109.9 53.8 109.5 54.3 109.6 54.8ZM122.6 54.4C122.6 54.2 122.8 54 123 54H123.7C124 54 124.2 54.3 124 54.5L123.3 56C123.1 56.4 122.6 56.2 122.6 55.8V54.4ZM115.8 54.4C115.8 54.1 116.1 53.8 116.4 53.8H118.5H120.6C121 53.8 121.2 54.1 121.2 54.4V56.4C121.2 56.9 120.8 57.4 120.2 57.4H118.4H116.6C116.1 57.4 115.6 57 115.6 56.4L115.8 54.4ZM113.5 54H114.2C114.4 54 114.6 54.2 114.6 54.4V55.9C114.6 56.3 114.1 56.4 113.9 56.1L113.2 54.6C113.1 54.3 113.2 54 113.5 54Z" fill="#A6A5D1"/>
<path d="M96.3 51.1H23.9V52.5H96.3V51.1Z" fill="#A6A5D1"/>
<path d="M25.1 53.3H19.1V54.8H25.1V53.3Z" fill="#A6A5D1"/>
<path fill-rule="evenodd" clip-rule="evenodd" d="M19.3 55.4C19.1 55.4 19.1 55.3 19.1 55.2V51.7C19.1 51.6 19.2 51.5 19.3 51.5C19.4 51.5 19.5 51.6 19.5 51.7V55.2C19.5 55.3 19.4 55.4 19.3 55.4Z" fill="#A6A5D1"/>
<path d="M101.1 53.3H95.1V54.8H101.1V53.3Z" fill="#A6A5D1"/>
<path fill-rule="evenodd" clip-rule="evenodd" d="M100.8 55.4C101 55.4 101 55.3 101 55.2V51.7C101 51.6 100.9 51.5 100.8 51.5C100.7 51.5 100.6 51.6 100.6 51.7V55.2C100.6 55.3 100.7 55.4 100.8 55.4Z" fill="#A6A5D1"/>
<path fill-rule="evenodd" clip-rule="evenodd" d="M88.2 53.1V52.5H78.2V53.1H76.5V56H96.2V53.1H88.2Z" fill="#A6A5D1"/>
<path fill-rule="evenodd" clip-rule="evenodd" d="M84.6 57.5H82C80.9 57.5 80 56.6 80 55.5V55.1C80 54 80.9 53.1 82 53.1H84.6C85.7 53.1 86.6 54 86.6 55.1V55.5C86.6 56.6 85.7 57.5 84.6 57.5Z" fill="#A6A5D1"/>
<path fill-rule="evenodd" clip-rule="evenodd" d="M72.8 55.7999C72.8 54.0999 74.2 52.7 75.9 52.7C77.6 52.7 79 54.0999 79 55.7999C79 57.4999 77.6 58.9 75.9 58.9C74.2 58.9 72.8 57.4999 72.8 55.7999Z" fill="#A6A5D1"/>
<path fill-rule="evenodd" clip-rule="evenodd" d="M87.4 55.7999C87.4 54.0999 88.8 52.7 90.5 52.7C92.2 52.7 93.6 54.0999 93.6 55.7999C93.6 57.4999 92.2 58.9 90.5 58.9C88.8 58.9 87.4 57.4999 87.4 55.7999Z" fill="#A6A5D1"/>
<path fill-rule="evenodd" clip-rule="evenodd" d="M91.4 53.7L88.4 53.1C88 53 87.6 53 87.2 53H83.3H79.4C79 53 78.6 53 78.2 53.1L75.2 53.7C74.6 53.8 74.2 54.3 74.3 54.9L74.4 56.1C74.4 56.3 74.6 56.5 74.8 56.5C75 56.5 75.1 56.4 75.1 56.2L75.2 55.5C75.2 55.2 75.5 55.1 75.7 55L76.6 54.9C76.9 54.9 77.2 55 77.4 55.3L79.2 57.8C79.4 58.1 79.7 58.2 80.1 58.2H83.3H86.5C86.8 58.2 87.2 58 87.4 57.8L89.2 55.3C89.4 55 89.7 54.9 90 54.9L90.9 55C91.2 55 91.4 55.2 91.4 55.5L91.5 56.2C91.5 56.4 91.7 56.5 91.8 56.5C92 56.5 92.2 56.3 92.2 56.1L92.3 54.9C92.3 54.3 91.9 53.8 91.4 53.7ZM79.3 55.8C79.3 56.2 78.8 56.3 78.6 56L77.9 54.5C77.8 54.2 78 54 78.2 54H78.9C79.1 54 79.3 54.2 79.3 54.4C79.3 54.4 79.3 55.8 79.3 55.8ZM86 56.3C86 56.8 85.6 57.3 85 57.3H83.2H81.4C80.9 57.3 80.4 56.9 80.4 56.3V54.3C80.4 54 80.7 53.7 81 53.7H83.1H85.2C85.6 53.7 85.8 54 85.8 54.3L86 56.3ZM88.7 54.5L88 56C87.8 56.4 87.3 56.2 87.3 55.8V54.3C87.3 54.1 87.5 53.9 87.7 53.9H88.4C88.6 54 88.8 54.3 88.7 54.5Z" fill="#A6A5D1"/>
<path fill-rule="evenodd" clip-rule="evenodd" d="M32 53.1V52.5H41.9V53.1H43.7V56H23.9V53.1H32Z" fill="#A6A5D1"/>
<path fill-rule="evenodd" clip-rule="evenodd" d="M35.5 57.5H38.1C39.2 57.5 40.1 56.6 40.1 55.5V55.1C40.1 54 39.2 53.1 38.1 53.1H35.5C34.4 53.1 33.5 54 33.5 55.1V55.5C33.6 56.6 34.4 57.5 35.5 57.5Z" fill="#A6A5D1"/>
<path fill-rule="evenodd" clip-rule="evenodd" d="M47.3 55.7999C47.3 54.0999 45.9 52.7 44.2 52.7C42.5 52.7 41.1 54.0999 41.1 55.7999C41.1 57.4999 42.5 58.9 44.2 58.9C45.9 58.9 47.3 57.4999 47.3 55.7999Z" fill="#A6A5D1"/>
<path fill-rule="evenodd" clip-rule="evenodd" d="M32.7 55.7999C32.7 54.0999 31.3 52.7 29.6 52.7C27.9 52.7 26.5 54.0999 26.5 55.7999C26.5 57.4999 27.9 58.9 29.6 58.9C31.3 58.9 32.7 57.4999 32.7 55.7999Z" fill="#A6A5D1"/>
<path fill-rule="evenodd" clip-rule="evenodd" d="M27.8 54.8L27.9 56C27.9 56.2 28.1 56.4 28.3 56.4C28.5 56.4 28.6 56.3 28.6 56.1L28.7001 55.4C28.7001 55.1 29.0001 55 29.2001 54.9L30.1 54.8C30.4 54.8 30.7 54.9 30.9 55.2L32.7001 57.7C32.9001 58 33.2 58.1 33.6 58.1H36.8H40C40.3 58.1 40.7001 57.9 40.9001 57.7L42.7001 55.2C42.9001 54.9 43.2 54.8 43.5 54.8L44.4001 54.9C44.7001 54.9 44.9001 55.1 44.9001 55.4L45 56.1C45 56.3 45.2 56.4 45.3 56.4C45.5 56.4 45.7001 56.2 45.7001 56L45.8 54.8C45.8 54.2 45.4001 53.7 44.9001 53.6L41.9001 53C41.6001 53 41.2 53 40.8 53H36.9001H33C32.6 53 32.2 53 31.8 53.1L28.8 53.7C28.2 53.8 27.8 54.3 27.8 54.8ZM40.9001 54.4C40.9001 54.2 41.1 54 41.3 54H42C42.3 54 42.5 54.3 42.3 54.5L41.6 56C41.4 56.4 40.9001 56.2 40.9001 55.8V54.4ZM34.1 54.4C34.1 54.1 34.4001 53.8 34.7001 53.8H36.8H38.9001C39.3001 53.8 39.5 54.1 39.5 54.4V56.4C39.5 56.9 39.1 57.4 38.5 57.4H36.7001H34.9001C34.4001 57.4 33.9001 57 33.9001 56.4L34.1 54.4ZM31.8 54H32.5C32.7 54 32.9001 54.2 32.9001 54.4V55.9C32.9001 56.3 32.4001 56.4 32.2001 56.1L31.4 54.5C31.3 54.3 31.5 54 31.8 54Z" fill="#A6A5D1"/>
<path fill-rule="evenodd" clip-rule="evenodd" d="M109.6 41.7001V43.2001C109.6 47.6001 113.2 51.1 117.5 51.1H166.3C170.7 51.1 174.2 47.5001 174.2 43.2001V41.7001C174.2 37.3001 170.6 33.8 166.3 33.8H117.5C113.1 33.8 109.6 37.4001 109.6 41.7001Z" fill="#DAD9E8"/>
<path fill-rule="evenodd" clip-rule="evenodd" d="M145 33.6H142C141.8 33.6 141.7 33.5 141.7 33.3V32.1H145.1V33.6H145Z" fill="#DAD9E8"/>
<path fill-rule="evenodd" clip-rule="evenodd" d="M145.7 32.0999H141.4C141.3 32.0999 141.2 32 141.2 31.9C141.2 31.8 141.3 31.7 141.4 31.7H145.8C145.9 31.7 146 31.8 146 31.9C146 32 145.9 32.0999 145.7 32.0999Z" fill="#DAD9E8"/>
<path fill-rule="evenodd" clip-rule="evenodd" d="M147.6 34.5H141.6C141.3 34.5 141.1 34.3 141.1 34V33.9C141.1 33.6 141.3 33.4 141.6 33.4H147.6C147.9 33.4 148.1 33.6 148.1 33.9V34C148.2 34.2 147.9 34.5 147.6 34.5Z" fill="#DAD9E8"/>
<path d="M147.7 33.7H141.5V34.0999H147.7V33.7Z" fill="#DAD9E8"/>
<path fill-rule="evenodd" clip-rule="evenodd" d="M147 33.3H146.5V31.3C146.5 31.2 146.6 31.1 146.7 31.1C146.8 31.1 146.9 31.2 146.9 31.3V33.3H147Z" fill="#DAD9E8"/>
<path fill-rule="evenodd" clip-rule="evenodd" d="M138.8 31.6V34.3H136.5V31.6H136.2V34.3V34.6V36.7V37V39.1V39.4V41.5V41.8V44V44.3V46.4V46.7V48.8V49.1V51.2V51.5V53.6V54V56.2V56.5H136.5H138.8H139.1V56.2V54V53.7V51.6V51.3V49.2V48.9V46.8V46.5V44.4V44V41.9V41.6V39.5V39.2V37V36.7V34.6V34.3V31.6C139.1 31.6 138.8 31.6 138.8 31.6ZM138.8 56.2H136.5V54H138.8V56.2ZM138.8 53.7H136.5V51.6H138.8V53.7ZM138.8 51.2H136.5V49.1H138.8V51.2ZM138.8 48.8H136.5V46.7H138.8V48.8ZM138.8 46.4H136.5V44.3H138.8V46.4ZM138.8 44H136.5V41.9H138.8V44ZM138.8 41.5H136.5V39.4H138.8V41.5ZM138.8 39.1H136.5V37H138.8V39.1ZM138.8 36.7H136.5V34.6H138.8V36.7Z" fill="#DAD9E8"/>
<path fill-rule="evenodd" clip-rule="evenodd" d="M27.8 41.7001V43.2001C27.8 47.6001 31.4001 51.1 35.7001 51.1H84.5C88.9 51.1 92.4001 47.5001 92.4001 43.2001V41.7001C92.4001 37.3001 88.8 33.8 84.5 33.8H35.8C31.4 33.8 27.8 37.4001 27.8 41.7001Z" fill="#DAD9E8"/>
<path fill-rule="evenodd" clip-rule="evenodd" d="M63.2 33.6H60.2C60 33.6 59.9 33.5 59.9 33.3V32.1H63.3L63.2 33.6Z" fill="#DAD9E8"/>
<path fill-rule="evenodd" clip-rule="evenodd" d="M64 32.0999H59.6C59.5 32.0999 59.4 32 59.4 31.9C59.4 31.8 59.5 31.7 59.6 31.7H64C64.1 31.7 64.2 31.8 64.2 31.9C64.2 32 64.1 32.0999 64 32.0999Z" fill="#DAD9E8"/>
<path fill-rule="evenodd" clip-rule="evenodd" d="M65.9 34.5H59.9C59.6 34.5 59.4 34.3 59.4 34V33.9C59.4 33.6 59.6 33.4 59.9 33.4H65.9C66.2 33.4 66.4 33.6 66.4 33.9V34C66.4 34.2 66.2 34.5 65.9 34.5Z" fill="#DAD9E8"/>
<path d="M66 33.7H59.8V34.0999H66V33.7Z" fill="#DAD9E8"/>
<path fill-rule="evenodd" clip-rule="evenodd" d="M65.3 33.3H64.8V31.3C64.8 31.2 64.9 31.1 65 31.1C65.1 31.1 65.2 31.2 65.2 31.3V33.3H65.3Z" fill="#DAD9E8"/>
<path fill-rule="evenodd" clip-rule="evenodd" d="M57.1 31.6V34.3H54.8V31.6H54.5V34.3V34.6V36.7V37V39.1V39.4V41.5V41.8V44V44.3V46.4V46.7V48.8V49.1V51.2V51.5V53.6V54V56.2V56.5H54.8H57.1H57.4V56.2V54V53.7V51.6V51.3V49.2V48.9V46.8V46.5V44.4V44V41.9V41.6V39.5V39.2V37V36.7V34.6V34.3V31.6C57.4 31.6 57.1 31.6 57.1 31.6ZM57.1 56.2H54.8V54H57.1V56.2ZM57.1 53.7H54.8V51.6H57.1V53.7ZM57.1 51.2H54.8V49.1H57.1V51.2ZM57.1 48.8H54.8V46.7H57.1V48.8ZM57.1 46.4H54.8V44.3H57.1V46.4ZM57.1 44H54.8V41.9H57.1V44ZM57.1 41.5H54.8V39.4H57.1V41.5ZM57.1 39.1H54.8V37H57.1V39.1ZM57.1 36.7H54.8V34.6H57.1V36.7Z" fill="#DAD9E8"/>
<path fill-rule="evenodd" clip-rule="evenodd" d="M164.7 41.7001V43.2001C164.7 47.6001 161.1 51.1 156.8 51.1H108C103.6 51.1 100.1 47.5001 100.1 43.2001V41.7001C100.1 37.3001 103.7 33.8 108 33.8H156.8C161.1 33.8 164.7 37.4001 164.7 41.7001Z" fill="#A6A5D1"/>
<path fill-rule="evenodd" clip-rule="evenodd" d="M158.6 47.6H106.4C106.2 47.6 106 47.8 106 48V48.1C106 48.3 106.2 48.5 106.4 48.5H158.6C158.8 48.5 159 48.3 159 48.1V48C159 47.8 158.8 47.6 158.6 47.6Z" fill="#D7D5E8"/>
<path fill-rule="evenodd" clip-rule="evenodd" d="M83 41.7001V43.2001C83 47.6001 79.4 51.1 75.1 51.1H26.2001C21.8001 51.1 18.3 47.5001 18.3 43.2001V41.7001C18.3 37.3001 21.9001 33.8 26.2001 33.8H75C79.4 33.8 83 37.4001 83 41.7001Z" fill="#A6A5D1"/>
<path d="M168.5 51.1H96.1V52.5H168.5V51.1Z" fill="#5E519C"/>
<path d="M97.3 53.3H91.3V54.8H97.3V53.3Z" fill="#5E519C"/>
<path fill-rule="evenodd" clip-rule="evenodd" d="M91.5 55.4C91.3 55.4 91.3 55.3 91.3 55.2V51.7C91.3 51.6 91.4 51.5 91.5 51.5C91.6 51.5 91.7 51.6 91.7 51.7V55.2C91.7 55.3 91.6 55.4 91.5 55.4Z" fill="#5E519C"/>
<path d="M173.3 53.3H167.3V54.8H173.3V53.3Z" fill="#5E519C"/>
<path fill-rule="evenodd" clip-rule="evenodd" d="M173 55.4C173.2 55.4 173.2 55.3 173.2 55.2V51.7C173.2 51.6 173.1 51.5 173 51.5C172.9 51.5 172.8 51.6 172.8 51.7V55.2C172.8 55.3 172.9 55.4 173 55.4Z" fill="#5E519C"/>
<path fill-rule="evenodd" clip-rule="evenodd" d="M160.4 53.1V52.5H150.4V53.1H148.7V56H168.4V53.1H160.4Z" fill="#5E519C"/>
<path fill-rule="evenodd" clip-rule="evenodd" d="M156.8 57.5H154.2C153.1 57.5 152.2 56.6 152.2 55.5V55.1C152.2 54 153.1 53.1 154.2 53.1H156.8C157.9 53.1 158.8 54 158.8 55.1V55.5C158.8 56.6 157.9 57.5 156.8 57.5Z" fill="#5E519C"/>
<path fill-rule="evenodd" clip-rule="evenodd" d="M145 55.7999C145 54.0999 146.4 52.7 148.1 52.7C149.8 52.7 151.2 54.0999 151.2 55.7999C151.2 57.4999 149.8 58.9 148.1 58.9C146.4 58.9 145 57.4999 145 55.7999Z" fill="#5E519C"/>
<path fill-rule="evenodd" clip-rule="evenodd" d="M159.6 55.7999C159.6 54.0999 161 52.7 162.7 52.7C164.4 52.7 165.8 54.0999 165.8 55.7999C165.8 57.4999 164.4 58.9 162.7 58.9C161 58.9 159.6 57.4999 159.6 55.7999Z" fill="#5E519C"/>
<path fill-rule="evenodd" clip-rule="evenodd" d="M163.6 53.7L160.6 53.1C160.2 53 159.8 53 159.4 53H155.4H151.5C151.1 53 150.7 53 150.3 53.1L147.3 53.7C146.7 53.8 146.3 54.3 146.4 54.9L146.5 56.1C146.5 56.3 146.7 56.5 146.9 56.5C147.1 56.5 147.2 56.4 147.2 56.2L147.3 55.5C147.3 55.2 147.6 55.1 147.8 55L148.7 54.9C149 54.9 149.3 55 149.5 55.3L151.3 57.8C151.5 58.1 151.8 58.2 152.2 58.2H155.4H158.6C158.9 58.2 159.3 58 159.5 57.8L161.3 55.3C161.5 55 161.8 54.9 162.1 54.9L163 55C163.3 55 163.5 55.2 163.5 55.5L163.6 56.2C163.6 56.4 163.8 56.5 163.9 56.5C164.1 56.5 164.3 56.3 164.3 56.1L164.4 54.9C164.5 54.3 164.1 53.8 163.6 53.7ZM151.5 55.8C151.5 56.2 151 56.3 150.8 56L150.1 54.5C150 54.2 150.2 54 150.4 54H151.1C151.3 54 151.5 54.2 151.5 54.4V55.8V55.8ZM158.2 56.3C158.2 56.8 157.8 57.3 157.2 57.3H155.4H153.6C153.1 57.3 152.6 56.9 152.6 56.3V54.3C152.6 54 152.9 53.7 153.2 53.7H155.3H157.4C157.8 53.7 158 54 158 54.3L158.2 56.3ZM160.9 54.5L160.2 56C160 56.4 159.5 56.2 159.5 55.8V54.3C159.5 54.1 159.7 53.9 159.9 53.9H160.6C160.8 54 161 54.3 160.9 54.5Z" fill="#5E519C"/>
<path fill-rule="evenodd" clip-rule="evenodd" d="M104.1 53.1V52.5H114.1V53.1H115.8V56H96.1V53.1H104.1Z" fill="#5E519C"/>
<path fill-rule="evenodd" clip-rule="evenodd" d="M107.7 57.5H110.3C111.4 57.5 112.3 56.6 112.3 55.5V55.1C112.3 54 111.4 53.1 110.3 53.1H107.7C106.6 53.1 105.7 54 105.7 55.1V55.5C105.7 56.6 106.6 57.5 107.7 57.5Z" fill="#5E519C"/>
<path fill-rule="evenodd" clip-rule="evenodd" d="M119.5 55.7999C119.5 54.0999 118.1 52.7 116.4 52.7C114.7 52.7 113.3 54.0999 113.3 55.7999C113.3 57.4999 114.7 58.9 116.4 58.9C118.1 58.9 119.5 57.4999 119.5 55.7999Z" fill="#5E519C"/>
<path fill-rule="evenodd" clip-rule="evenodd" d="M104.9 55.7999C104.9 54.0999 103.5 52.7 101.8 52.7C100.1 52.7 98.7 54.0999 98.7 55.7999C98.7 57.4999 100.1 58.9 101.8 58.9C103.5 58.9 104.9 57.4999 104.9 55.7999Z" fill="#5E519C"/>
<path fill-rule="evenodd" clip-rule="evenodd" d="M100 54.8L100.1 56C100.1 56.2 100.3 56.4 100.5 56.4C100.7 56.4 100.8 56.3 100.8 56.1L100.9 55.4C100.9 55.1 101.2 55 101.4 54.9L102.3 54.8C102.6 54.8 102.9 54.9 103.1 55.2L104.9 57.7C105.1 58 105.4 58.1 105.8 58.1H109H112.2C112.5 58.1 112.9 57.9 113.1 57.7L114.9 55.2C115.1 54.9 115.4 54.8 115.7 54.8L116.6 54.9C116.9 54.9 117.1 55.1 117.1 55.4L117.2 56.1C117.2 56.3 117.4 56.4 117.5 56.4C117.7 56.4 117.9 56.2 117.9 56L118 54.8C118 54.2 117.6 53.7 117.1 53.6L114.1 53C113.7 52.9 113.3 52.9 112.9 52.9H109H105.1C104.7 52.9 104.3 52.9 103.9 53L100.9 53.6C100.4 53.8 100 54.3 100 54.8ZM113 54.4C113 54.2 113.2 54 113.4 54H114.1C114.4 54 114.6 54.3 114.4 54.5L113.7 56C113.5 56.4 113 56.2 113 55.8V54.4ZM106.3 54.4C106.3 54.1 106.6 53.8 106.9 53.8H109H111.1C111.5 53.8 111.7 54.1 111.7 54.4V56.4C111.7 56.9 111.3 57.4 110.7 57.4H108.9H107.1C106.6 57.4 106.1 57 106.1 56.4L106.3 54.4ZM104 54H104.7C104.9 54 105.1 54.2 105.1 54.4V55.9C105.1 56.3 104.6 56.4 104.4 56.1L103.7 54.6C103.5 54.3 103.7 54 104 54Z" fill="#5E519C"/>
<path d="M86.7 51.1H14.3V52.5H86.7V51.1Z" fill="#5E519C"/>
<path d="M15.5 53.3H9.5V54.8H15.5V53.3Z" fill="#5E519C"/>
<path fill-rule="evenodd" clip-rule="evenodd" d="M9.79998 55.4C9.59998 55.4 9.59998 55.3 9.59998 55.2V51.7C9.59998 51.6 9.69998 51.5 9.79998 51.5C9.89998 51.5 9.99998 51.6 9.99998 51.7V55.2C9.99998 55.3 9.89998 55.4 9.79998 55.4Z" fill="#5E519C"/>
<path d="M91.5 53.3H85.5V54.8H91.5V53.3Z" fill="#5E519C"/>
<path fill-rule="evenodd" clip-rule="evenodd" d="M91.3 55.4C91.5 55.4 91.5 55.3 91.5 55.2V51.7C91.5 51.6 91.4 51.5 91.3 51.5C91.2 51.5 91.1 51.6 91.1 51.7V55.2C91.1 55.3 91.2 55.4 91.3 55.4Z" fill="#5E519C"/>
<path fill-rule="evenodd" clip-rule="evenodd" d="M78.6 53.1V52.5H68.7V53.1H66.9V56H86.7V53.1H78.6Z" fill="#5E519C"/>
<path fill-rule="evenodd" clip-rule="evenodd" d="M75.1 57.5H72.4C71.3 57.5 70.4 56.6 70.4 55.5V55.1C70.4 54 71.3 53.1 72.4 53.1H75C76.1 53.1 77 54 77 55.1V55.5C77 56.6 76.1 57.5 75.1 57.5Z" fill="#5E519C"/>
<path fill-rule="evenodd" clip-rule="evenodd" d="M63.2 55.7999C63.2 54.0999 64.6 52.7 66.3 52.7C68 52.7 69.4 54.0999 69.4 55.7999C69.4 57.4999 68 58.9 66.3 58.9C64.6 58.9 63.2 57.4999 63.2 55.7999Z" fill="#5E519C"/>
<path fill-rule="evenodd" clip-rule="evenodd" d="M77.9 55.7999C77.9 54.0999 79.3 52.7 81 52.7C82.7 52.7 84.1 54.0999 84.1 55.7999C84.1 57.4999 82.7 58.9 81 58.9C79.3 58.9 77.9 57.4999 77.9 55.7999Z" fill="#5E519C"/>
<path fill-rule="evenodd" clip-rule="evenodd" d="M81.8 53.7L78.8 53.1C78.4 53 78 53 77.6 53H73.7H69.8C69.4 53 69 53 68.6 53.1L65.6 53.7C65 53.8 64.6 54.3 64.7 54.9L64.8 56.1C64.8 56.3 65 56.5 65.2 56.5C65.4 56.5 65.5 56.4 65.5 56.2L65.6 55.5C65.6 55.2 65.9 55.1 66.1 55L67 54.9C67.3 54.9 67.6 55 67.8 55.3L69.6 57.8C69.8 58.1 70.1 58.2 70.5 58.2H73.7H76.9C77.2 58.2 77.6 58 77.8 57.8L79.6 55.3C79.8 55 80.1 54.9 80.4 54.9L81.3 55C81.6 55 81.8 55.2 81.8 55.5L81.9 56.2C81.9 56.4 82.1 56.5 82.2 56.5C82.4 56.5 82.6 56.3 82.6 56.1L82.7 54.9C82.8 54.3 82.4 53.8 81.8 53.7ZM69.7 55.8C69.7 56.2 69.2 56.3 69 56L68.3 54.5C68.2 54.2 68.4 54 68.6 54H69.3C69.5 54 69.7 54.2 69.7 54.4V55.8ZM76.5 56.3C76.5 56.8 76.1 57.3 75.5 57.3H73.7H71.9C71.4 57.3 70.9 56.9 70.9 56.3V54.3C70.9 54 71.2 53.7 71.5 53.7H73.6H75.7C76.1 53.7 76.3 54 76.3 54.3L76.5 56.3ZM79.1 54.5L78.4 56C78.2 56.4 77.7 56.2 77.7 55.8V54.3C77.7 54.1 77.9 53.9 78.1 53.9H78.8C79.1 54 79.3 54.3 79.1 54.5Z" fill="#5E519C"/>
<path fill-rule="evenodd" clip-rule="evenodd" d="M22.4 53.1V52.5H32.4001V53.1H34.1V56H14.3V53.1H22.4Z" fill="#5E519C"/>
<path fill-rule="evenodd" clip-rule="evenodd" d="M26 57.5H28.6C29.7 57.5 30.6 56.6 30.6 55.5V55.1C30.6 54 29.7 53.1 28.6 53.1H26C24.9 53.1 24 54 24 55.1V55.5C24 56.6 24.9 57.5 26 57.5Z" fill="#5E519C"/>
<path fill-rule="evenodd" clip-rule="evenodd" d="M37.8 55.7999C37.8 54.0999 36.4 52.7 34.7 52.7C33 52.7 31.6 54.0999 31.6 55.7999C31.6 57.4999 33 58.9 34.7 58.9C36.4 58.9 37.8 57.4999 37.8 55.7999Z" fill="#5E519C"/>
<path fill-rule="evenodd" clip-rule="evenodd" d="M23.1 55.7999C23.1 54.0999 21.7 52.7 20 52.7C18.3 52.7 16.9 54.0999 16.9 55.7999C16.9 57.4999 18.3 58.9 20 58.9C21.7 58.9 23.1 57.4999 23.1 55.7999Z" fill="#5E519C"/>
<path fill-rule="evenodd" clip-rule="evenodd" d="M18.3 54.8L18.4 56C18.4 56.2 18.6 56.4 18.8 56.4C19 56.4 19.1 56.3 19.1 56.1L19.2 55.4C19.2 55.1 19.5 55 19.7 54.9L20.6 54.8C20.9 54.8 21.2 54.9 21.4 55.2L23.2 57.7C23.4 58 23.7 58.1 24.1 58.1H27.3H30.5C30.8 58.1 31.2 57.9 31.4 57.7L33.2 55.2C33.4 54.9 33.7 54.8 34 54.8L34.9 54.9C35.2 54.9 35.4 55.1 35.4 55.4L35.5 56.1C35.5 56.3 35.7 56.4 35.8 56.4C36 56.4 36.2 56.2 36.2 56L36.3 54.8C36.3 54.2 35.9 53.7 35.4 53.6L32.4 53C32 53 31.6 53 31.2 53H27.3H23.4C23 53 22.6 53 22.2 53.1L19.2 53.7C18.6 53.8 18.2 54.3 18.3 54.8ZM31.3 54.4C31.3 54.2 31.5 54 31.7 54H32.4C32.7 54 32.9 54.3 32.7 54.5L32 56C31.8 56.4 31.3 56.2 31.3 55.8V54.4ZM24.5 54.4C24.5 54.1 24.8 53.8 25.1 53.8H27.2H29.3C29.7 53.8 29.9 54.1 29.9 54.4V56.4C29.9 56.9 29.5 57.4 28.9 57.4H27.1H25.3C24.8 57.4 24.3 57 24.3 56.4L24.5 54.4ZM22.2 54H22.9C23.1 54 23.3 54.2 23.3 54.4V55.9C23.3 56.3 22.8 56.4 22.6 56.1L21.9 54.6C21.7 54.3 21.9 54 22.2 54Z" fill="#5E519C"/>
<path fill-rule="evenodd" clip-rule="evenodd" d="M100 41.7001V43.2001C100 47.6001 103.6 51.1 107.9 51.1H156.7C161.1 51.1 164.6 47.5001 164.6 43.2001V41.7001C164.6 37.3001 161 33.8 156.7 33.8H107.9C103.6 33.8 100 37.4001 100 41.7001Z" fill="#BFBFDF"/>
<path fill-rule="evenodd" clip-rule="evenodd" d="M135.4 33.6H132.4C132.2 33.6 132.1 33.5 132.1 33.3V32.1H135.5V33.6H135.4Z" fill="#BFBFDF"/>
<path fill-rule="evenodd" clip-rule="evenodd" d="M136.2 32.0999H131.8C131.7 32.0999 131.6 32 131.6 31.9C131.6 31.8 131.7 31.7 131.8 31.7H136.2C136.3 31.7 136.4 31.8 136.4 31.9C136.4 32 136.3 32.0999 136.2 32.0999Z" fill="#BFBFDF"/>
<path fill-rule="evenodd" clip-rule="evenodd" d="M138.1 34.5H132.1C131.8 34.5 131.6 34.3 131.6 34V33.9C131.6 33.6 131.8 33.4 132.1 33.4H138.1C138.4 33.4 138.6 33.6 138.6 33.9V34C138.6 34.2 138.4 34.5 138.1 34.5Z" fill="#BFBFDF"/>
<path d="M138.2 33.7H132V34.0999H138.2V33.7Z" fill="#BFBFDF"/>
<path fill-rule="evenodd" clip-rule="evenodd" d="M137.5 33.3H137V31.3C137 31.2 137.1 31.1 137.2 31.1C137.3 31.1 137.4 31.2 137.4 31.3V33.3H137.5Z" fill="#BFBFDF"/>
<path fill-rule="evenodd" clip-rule="evenodd" d="M129.2 31.6V34.3H126.9V31.6H126.6V34.3V34.6V36.7V37V39.1V39.4V41.5V41.8V44V44.3V46.4V46.7V48.8V49.1V51.2V51.5V53.6V54V56.2V56.5H126.9H129.2H129.5V56.2V54V53.7V51.6V51.3V49.2V48.9V46.8V46.5V44.4V44V41.9V41.6V39.5V39.2V37V36.7V34.6V34.3V31.6C129.5 31.6 129.2 31.6 129.2 31.6ZM129.2 56.2H126.9V54H129.2V56.2ZM129.2 53.7H126.9V51.6H129.2V53.7ZM129.2 51.2H126.9V49.1H129.2V51.2ZM129.2 48.8H126.9V46.7H129.2V48.8ZM129.2 46.4H126.9V44.3H129.2V46.4ZM129.2 44H126.9V41.9H129.2V44ZM129.2 41.5H126.9V39.4H129.2V41.5ZM129.2 39.1H126.9V37H129.2V39.1ZM129.2 36.7H126.9V34.6H129.2V36.7Z" fill="#BFBFDF"/>
<path fill-rule="evenodd" clip-rule="evenodd" d="M18.3 41.7001V43.2001C18.3 47.6001 21.9001 51.1 26.2001 51.1H75C79.4 51.1 82.9001 47.5001 82.9001 43.2001V41.7001C82.9001 37.3001 79.3 33.8 75 33.8H26.2001C21.8001 33.8 18.3 37.4001 18.3 41.7001Z" fill="#BFBFDF"/>
<path fill-rule="evenodd" clip-rule="evenodd" d="M53.6 33.6H50.6C50.4 33.6 50.3 33.5 50.3 33.3V32.1H53.7001L53.6 33.6Z" fill="#BFBFDF"/>
<path fill-rule="evenodd" clip-rule="evenodd" d="M54.4001 32.0999H50C49.9 32.0999 49.8 32 49.8 31.9C49.8 31.8 49.9 31.7 50 31.7H54.4001C54.5001 31.7 54.6 31.8 54.6 31.9C54.7 32 54.6001 32.0999 54.4001 32.0999Z" fill="#BFBFDF"/>
<path fill-rule="evenodd" clip-rule="evenodd" d="M56.3 34.5H50.3C50 34.5 49.8 34.3 49.8 34V33.9C49.8 33.6 50 33.4 50.3 33.4H56.3C56.6 33.4 56.8 33.6 56.8 33.9V34C56.9 34.2 56.6 34.5 56.3 34.5Z" fill="#BFBFDF"/>
<path d="M56.4 33.7H50.2V34.0999H56.4V33.7Z" fill="#BFBFDF"/>
<path fill-rule="evenodd" clip-rule="evenodd" d="M55.7 33.3H55.2V31.3C55.2 31.2 55.3 31.1 55.4 31.1C55.5 31.1 55.5999 31.2 55.5999 31.3V33.3H55.7Z" fill="#BFBFDF"/>
<path fill-rule="evenodd" clip-rule="evenodd" d="M47.5 31.6V34.3H45.2V31.6H44.9V34.3V34.6V36.7V37V39.1V39.4V41.5V41.8V44V44.3V46.4V46.7V48.8V49.1V51.2V51.5V53.6V54V56.2V56.5H45.2H47.5H47.8V56.2V54V53.7V51.6V51.3V49.2V48.9V46.8V46.5V44.4V44V41.9V41.6V39.5V39.2V37V36.7V34.6V34.3V31.6C47.8 31.6 47.5 31.6 47.5 31.6ZM47.5 56.2H45.2V54H47.5V56.2ZM47.5 53.7H45.2V51.6H47.5V53.7ZM47.5 51.2H45.2V49.1H47.5V51.2ZM47.5 48.8H45.2V46.7H47.5V48.8ZM47.5 46.4H45.2V44.3H47.5V46.4ZM47.5 44H45.2V41.9H47.5V44ZM47.5 41.5H45.2V39.4H47.5V41.5ZM47.5 39.1H45.2V37H47.5V39.1ZM47.5 36.7H45.2V34.6H47.5V36.7Z" fill="#BFBFDF"/>
<path fill-rule="evenodd" clip-rule="evenodd" d="M155.1 41.7001V43.2001C155.1 47.6001 151.5 51.1 147.2 51.1H98.4C94 51.1 90.5 47.5001 90.5 43.2001V41.7001C90.5 37.3001 94.1 33.8 98.4 33.8H147.2C151.6 33.8 155.1 37.4001 155.1 41.7001Z" fill="#A6A5D1"/>
<path fill-rule="evenodd" clip-rule="evenodd" d="M90.5 41.7001V43.2001C90.5 47.6001 94.1 51.1 98.4 51.1H147.2C151.6 51.1 155.1 47.5001 155.1 43.2001V41.7001C155.1 37.3001 151.5 33.8 147.2 33.8H98.4C94 33.8 90.5 37.4001 90.5 41.7001Z" fill="#A6A5D1"/>
<path fill-rule="evenodd" clip-rule="evenodd" d="M149 37.3H96.8C96.6 37.3 96.4 37.1 96.4 36.9V36.8C96.4 36.6 96.6 36.4 96.8 36.4H149C149.2 36.4 149.4 36.6 149.4 36.8V36.9C149.4 37.1 149.2 37.3 149 37.3Z" fill="#D7D5E8"/>
<path fill-rule="evenodd" clip-rule="evenodd" d="M149 47.6H96.8C96.6 47.6 96.4 47.8 96.4 48V48.1C96.4 48.3 96.6 48.5 96.8 48.5H149C149.2 48.5 149.4 48.3 149.4 48.1V48C149.4 47.8 149.2 47.6 149 47.6Z" fill="#D7D5E8"/>
<path d="M158.9 51.1H86.5V52.5H158.9V51.1Z" fill="#382E86"/>
<path d="M87.7 53.3H81.7V54.8H87.7V53.3Z" fill="#382E86"/>
<path fill-rule="evenodd" clip-rule="evenodd" d="M82 55.4C81.8 55.4 81.8 55.3 81.8 55.2V51.7C81.8 51.6 81.9 51.5 82 51.5C82.1 51.5 82.2 51.6 82.2 51.7V55.2C82.2 55.3 82.1 55.4 82 55.4Z" fill="#382E86"/>
<path d="M163.7 53.3H157.7V54.8H163.7V53.3Z" fill="#382E86"/>
<path fill-rule="evenodd" clip-rule="evenodd" d="M163.5 55.4C163.7 55.4 163.7 55.3 163.7 55.2V51.7C163.7 51.6 163.6 51.5 163.5 51.5C163.4 51.5 163.3 51.6 163.3 51.7V55.2C163.2 55.3 163.3 55.4 163.5 55.4Z" fill="#382E86"/>
<path fill-rule="evenodd" clip-rule="evenodd" d="M150.8 53.1V52.5H140.8V53.1H139.1V56H158.9V53.1H150.8Z" fill="#5E519C"/>
<path fill-rule="evenodd" clip-rule="evenodd" d="M147.2 57.5H144.6C143.5 57.5 142.6 56.6 142.6 55.5V55.1C142.6 54 143.5 53.1 144.6 53.1H147.2C148.3 53.1 149.2 54 149.2 55.1V55.5C149.2 56.6 148.3 57.5 147.2 57.5Z" fill="#382E86"/>
<path fill-rule="evenodd" clip-rule="evenodd" d="M135.4 55.7999C135.4 54.0999 136.8 52.7 138.5 52.7C140.2 52.7 141.6 54.0999 141.6 55.7999C141.6 57.4999 140.2 58.9 138.5 58.9C136.8 58.9 135.4 57.4999 135.4 55.7999Z" fill="#382E86"/>
<path fill-rule="evenodd" clip-rule="evenodd" d="M150 55.7999C150 54.0999 151.4 52.7 153.1 52.7C154.8 52.7 156.2 54.0999 156.2 55.7999C156.2 57.4999 154.8 58.9 153.1 58.9C151.5 58.9 150 57.4999 150 55.7999Z" fill="#382E86"/>
<path fill-rule="evenodd" clip-rule="evenodd" d="M154 53.7L151 53.1C150.6 53 150.2 53 149.8 53H145.9H142C141.6 53 141.2 53 140.8 53.1L137.8 53.7C137.2 53.8 136.8 54.3 136.9 54.9L137 56.1C137 56.3 137.2 56.5 137.4 56.5C137.6 56.5 137.7 56.4 137.7 56.2L137.8 55.5C137.8 55.2 138.1 55.1 138.3 55L139.2 54.9C139.5 54.9 139.8 55 140 55.3L141.8 57.8C142 58.1 142.3 58.2 142.7 58.2H145.9H149.1C149.4 58.2 149.8 58 150 57.8L151.8 55.3C152 55 152.3 54.9 152.6 54.9L153.5 55C153.8 55 154 55.2 154 55.5L154.1 56.2C154.1 56.4 154.3 56.5 154.4 56.5C154.6 56.5 154.8 56.3 154.8 56.1L154.9 54.9C154.9 54.3 154.6 53.8 154 53.7ZM141.9 55.8C141.9 56.2 141.4 56.3 141.2 56L140.5 54.5C140.4 54.2 140.6 54 140.8 54H141.5C141.7 54 141.9 54.2 141.9 54.4V55.8V55.8ZM148.6 56.3C148.6 56.8 148.2 57.3 147.6 57.3H145.8H144C143.5 57.3 143 56.9 143 56.3V54.3C143 54 143.3 53.7 143.6 53.7H145.7H147.8C148.2 53.7 148.4 54 148.4 54.3L148.6 56.3ZM151.3 54.5L150.6 56C150.4 56.4 149.9 56.2 149.9 55.8V54.3C149.9 54.1 150.1 53.9 150.3 53.9H151C151.3 54 151.4 54.3 151.3 54.5Z" fill="#5E519C"/>
<path fill-rule="evenodd" clip-rule="evenodd" d="M94.6 53.1V52.5H104.5V53.1H106.3V56H86.5V53.1H94.6Z" fill="#5E519C"/>
<path fill-rule="evenodd" clip-rule="evenodd" d="M98.1 57.5H100.7C101.8 57.5 102.7 56.6 102.7 55.5V55.1C102.7 54 101.8 53.1 100.7 53.1H98.1C97 53.1 96.1 54 96.1 55.1V55.5C96.2 56.6 97.1 57.5 98.1 57.5Z" fill="#382E86"/>
<path fill-rule="evenodd" clip-rule="evenodd" d="M109.9 55.7999C109.9 54.0999 108.5 52.7 106.8 52.7C105.1 52.7 103.7 54.0999 103.7 55.7999C103.7 57.4999 105.1 58.9 106.8 58.9C108.5 58.9 109.9 57.4999 109.9 55.7999Z" fill="#382E86"/>
<path fill-rule="evenodd" clip-rule="evenodd" d="M95.3 55.7999C95.3 54.0999 93.9 52.7 92.2 52.7C90.5 52.7 89.1 54.0999 89.1 55.7999C89.1 57.4999 90.5 58.9 92.2 58.9C93.9 58.9 95.3 57.4999 95.3 55.7999Z" fill="#382E86"/>
<path fill-rule="evenodd" clip-rule="evenodd" d="M90.4 54.8L90.5 56C90.5 56.2 90.7 56.4 90.9 56.4C91.1 56.4 91.2 56.3 91.2 56.1L91.3 55.4C91.3 55.1 91.6 55 91.8 54.9L92.7 54.8C93 54.8 93.3 54.9 93.5 55.2L95.3 57.7C95.5 58 95.8 58.1 96.2 58.1H99.4H102.6C102.9 58.1 103.3 57.9 103.5 57.7L105.3 55.2C105.5 54.9 105.8 54.8 106.1 54.8L107 54.9C107.3 54.9 107.5 55.1 107.5 55.4L107.6 56.1C107.6 56.3 107.8 56.4 107.9 56.4C108.1 56.4 108.3 56.2 108.3 56L108.4 54.8C108.4 54.2 108 53.7 107.5 53.6L104.5 53C104.1 52.9 103.7 52.9 103.3 52.9H99.4H95.5C95.1 52.9 94.7 52.9 94.3 53L91.3 53.6C90.8 53.8 90.4 54.3 90.4 54.8ZM103.5 54.4C103.5 54.2 103.7 54 103.9 54H104.6C104.9 54 105.1 54.3 104.9 54.5L104.2 56C104 56.4 103.5 56.2 103.5 55.8V54.4ZM96.7 54.4C96.7 54.1 97 53.8 97.3 53.8H99.4H101.5C101.9 53.8 102.1 54.1 102.1 54.4V56.4C102.1 56.9 101.7 57.4 101.1 57.4H99.3H97.5C97 57.4 96.5 57 96.5 56.4L96.7 54.4ZM94.4 54H95.1C95.3 54 95.5 54.2 95.5 54.4V55.9C95.5 56.3 95 56.4 94.8 56.1L94.1 54.6C93.9 54.3 94.1 54 94.4 54Z" fill="#5E519C"/>
<path fill-rule="evenodd" clip-rule="evenodd" d="M125.8 33.6H122.8C122.6 33.6 122.5 33.5 122.5 33.3V32.1H125.9L125.8 33.6Z" fill="#5E519C"/>
<path fill-rule="evenodd" clip-rule="evenodd" d="M126.6 32.0999H122.2C122.1 32.0999 122 32 122 31.9C122 31.8 122.1 31.7 122.2 31.7H126.6C126.7 31.7 126.8 31.8 126.8 31.9C126.8 32 126.7 32.0999 126.6 32.0999Z" fill="#382E86"/>
<path fill-rule="evenodd" clip-rule="evenodd" d="M128.5 34.5H122.5C122.2 34.5 122 34.3 122 34V33.9C122 33.6 122.2 33.4 122.5 33.4H128.5C128.8 33.4 129 33.6 129 33.9V34C129 34.2 128.8 34.5 128.5 34.5Z" fill="#382E86"/>
<path d="M128.6 33.7H122.4V34.0999H128.6V33.7Z" fill="#5E519C"/>
<path fill-rule="evenodd" clip-rule="evenodd" d="M127.9 33.3H127.4V31.3C127.4 31.2 127.5 31.1 127.6 31.1C127.7 31.1 127.8 31.2 127.8 31.3V33.3H127.9Z" fill="#5E519C"/>
<path fill-rule="evenodd" clip-rule="evenodd" d="M119.7 31.6V34.3H117.4V31.6H117.1V34.3V34.6V36.7V37V39.1V39.4V41.5V41.8V44V44.3V46.4V46.7V48.8V49.1V51.2V51.5V53.6V54V56.2V56.5H117.4H119.7H120V56.2V54V53.7V51.6V51.3V49.2V48.9V46.8V46.5V44.4V44V41.9V41.6V39.5V39.2V37V36.7V34.6V34.3V31.6C120 31.6 119.7 31.6 119.7 31.6ZM119.7 56.2H117.4V54H119.7V56.2ZM119.7 53.7H117.4V51.6H119.7V53.7ZM119.7 51.2H117.4V49.1H119.7V51.2ZM119.7 48.8H117.4V46.7H119.7V48.8ZM119.7 46.4H117.4V44.3H119.7V46.4ZM119.7 44H117.4V41.9H119.7V44ZM119.7 41.5H117.4V39.4H119.7V41.5ZM119.7 39.1H117.4V37H119.7V39.1ZM119.7 36.7H117.4V34.6H119.7V36.7Z" fill="#382E86"/>
<path fill-rule="evenodd" clip-rule="evenodd" d="M73.4 41.7001V43.2001C73.4 47.6001 69.8 51.1 65.5 51.1H16.6C12.2 51.1 8.69995 47.5001 8.69995 43.2001V41.7001C8.69995 37.3001 12.3 33.8 16.6 33.8H65.4C69.8 33.8 73.4 37.4001 73.4 41.7001Z" fill="#A6A5D1"/>
<path fill-rule="evenodd" clip-rule="evenodd" d="M8.69995 41.7001V43.2001C8.69995 47.6001 12.3 51.1 16.6 51.1H65.4C69.8 51.1 73.3 47.5001 73.3 43.2001V41.7001C73.3 37.3001 69.7 33.8 65.4 33.8H16.6C12.3 33.8 8.69995 37.4001 8.69995 41.7001Z" fill="#A6A5D1"/>
<path fill-rule="evenodd" clip-rule="evenodd" d="M67.2 37.3H15C14.8 37.3 14.6 37.1 14.6 36.9V36.8C14.6 36.6 14.8 36.4 15 36.4H67.2C67.4 36.4 67.6 36.6 67.6 36.8V36.9C67.7 37.1 67.5 37.3 67.2 37.3Z" fill="#D7D5E8"/>
<path fill-rule="evenodd" clip-rule="evenodd" d="M67.2 47.6H15C14.8 47.6 14.6 47.8 14.6 48V48.1C14.6 48.3 14.8 48.5 15 48.5H67.2C67.4 48.5 67.6 48.3 67.6 48.1V48C67.7 47.8 67.5 47.6 67.2 47.6Z" fill="#D7D5E8"/>
<path d="M77.2 51.1H4.80005V52.5H77.2V51.1Z" fill="#382E86"/>
<path d="M6 53.3H0V54.8H6V53.3Z" fill="#382E86"/>
<path fill-rule="evenodd" clip-rule="evenodd" d="M0.2 55.4C0 55.4 0 55.3 0 55.2V51.7C0 51.6 0.1 51.5 0.2 51.5C0.3 51.5 0.4 51.6 0.4 51.7V55.2C0.4 55.3 0.3 55.4 0.2 55.4Z" fill="#382E86"/>
<path d="M82 53.3H76V54.8H82V53.3Z" fill="#382E86"/>
<path fill-rule="evenodd" clip-rule="evenodd" d="M81.7 55.4C81.9 55.4 81.9 55.3 81.9 55.2V51.7C81.9 51.6 81.8 51.5 81.7 51.5C81.6 51.5 81.5 51.6 81.5 51.7V55.2C81.5 55.3 81.6 55.4 81.7 55.4Z" fill="#382E86"/>
<path fill-rule="evenodd" clip-rule="evenodd" d="M69 53.1V52.5H59.1V53.1H57.3V56H77.1V53.1H69Z" fill="#5E519C"/>
<path fill-rule="evenodd" clip-rule="evenodd" d="M65.5 57.5H62.9C61.8 57.5 60.9 56.6 60.9 55.5V55.1C60.9 54 61.8 53.1 62.9 53.1H65.5C66.6 53.1 67.5 54 67.5 55.1V55.5C67.4 56.6 66.6 57.5 65.5 57.5Z" fill="#382E86"/>
<path fill-rule="evenodd" clip-rule="evenodd" d="M53.7 55.7999C53.7 54.0999 55.0999 52.7 56.7999 52.7C58.4999 52.7 59.9 54.0999 59.9 55.7999C59.9 57.4999 58.4999 58.9 56.7999 58.9C55.0999 58.9 53.7 57.4999 53.7 55.7999Z" fill="#382E86"/>
<path fill-rule="evenodd" clip-rule="evenodd" d="M68.3 55.7999C68.3 54.0999 69.7 52.7 71.4 52.7C73.1 52.7 74.5 54.0999 74.5 55.7999C74.5 57.4999 73.1 58.9 71.4 58.9C69.7 58.9 68.3 57.4999 68.3 55.7999Z" fill="#382E86"/>
<path fill-rule="evenodd" clip-rule="evenodd" d="M72.2 53.7L69.2 53.1C68.8 53 68.4 53 68 53H64.1H60.2C59.8 53 59.4 53 59 53.1L56 53.7C55.4 53.8 55 54.3 55.1 54.9L55.2 56.1C55.2 56.3 55.4 56.5 55.6 56.5C55.8 56.5 55.9 56.4 55.9 56.2L56 55.5C56 55.2 56.3 55.1 56.5 55L57.4 54.9C57.7 54.9 58 55 58.2 55.3L60 57.8C60.2 58.1 60.5 58.2 60.9 58.2H64.1H67.3C67.6 58.2 68 58 68.2 57.8L70 55.3C70.2 55 70.5 54.9 70.8 54.9L71.7 55C72 55 72.2 55.2 72.2 55.5L72.3 56.2C72.3 56.4 72.5 56.5 72.6 56.5C72.8 56.5 73 56.3 73 56.1L73.1 54.9C73.2 54.3 72.8 53.8 72.2 53.7ZM60.2 55.8C60.2 56.2 59.7 56.3 59.5 56L58.8 54.5C58.7 54.2 58.9 54 59.1 54H59.8C60 54 60.2 54.2 60.2 54.4C60.2 54.4 60.2 55.8 60.2 55.8ZM66.9 56.3C66.9 56.8 66.5 57.3 65.9 57.3H64.1H62.3C61.8 57.3 61.3 56.9 61.3 56.3V54.3C61.3 54 61.6 53.7 61.9 53.7H64H66.1C66.5 53.7 66.7 54 66.7 54.3L66.9 56.3ZM69.6 54.5L68.8 56C68.6 56.4 68.1 56.2 68.1 55.8V54.3C68.1 54.1 68.3 53.9 68.5 53.9H69.2C69.5 54 69.7 54.3 69.6 54.5Z" fill="#5E519C"/>
<path fill-rule="evenodd" clip-rule="evenodd" d="M12.8 53.1V52.5H22.8V53.1H24.5V56H4.80005V53.1H12.8Z" fill="#5E519C"/>
<path fill-rule="evenodd" clip-rule="evenodd" d="M16.4 57.5H19C20.1 57.5 21 56.6 21 55.5V55.1C21 54 20.1 53.1 19 53.1H16.4C15.3 53.1 14.4 54 14.4 55.1V55.5C14.4 56.6 15.3 57.5 16.4 57.5Z" fill="#382E86"/>
<path fill-rule="evenodd" clip-rule="evenodd" d="M28.2 55.7999C28.2 54.0999 26.8 52.7 25.1 52.7C23.4 52.7 22 54.0999 22 55.7999C22 57.4999 23.4 58.9 25.1 58.9C26.8 58.9 28.2 57.4999 28.2 55.7999Z" fill="#382E86"/>
<path fill-rule="evenodd" clip-rule="evenodd" d="M13.6 55.7999C13.6 54.0999 12.2 52.7 10.5 52.7C8.80002 52.7 7.40002 54.0999 7.40002 55.7999C7.40002 57.4999 8.80002 58.9 10.5 58.9C12.2 58.9 13.6 57.4999 13.6 55.7999Z" fill="#382E86"/>
<path fill-rule="evenodd" clip-rule="evenodd" d="M8.69995 54.8L8.79995 56C8.79995 56.2 8.99995 56.4 9.19995 56.4C9.39995 56.4 9.49995 56.3 9.49995 56.1L9.59995 55.4C9.59995 55.1 9.89995 55 10.1 54.9L11 54.8C11.3 54.8 11.6 54.9 11.8 55.2L13.6 57.7C13.8 58 14.1 58.1 14.5 58.1H17.7H20.9C21.2 58.1 21.6 57.9 21.8 57.7L23.6 55.2C23.8 54.9 24.1 54.8 24.4 54.8L25.2999 54.9C25.5999 54.9 25.7999 55.1 25.7999 55.4L25.9 56.1C25.9 56.3 26.1 56.4 26.2 56.4C26.4 56.4 26.6 56.2 26.6 56L26.7 54.8C26.7 54.2 26.2999 53.7 25.7999 53.6L22.8 53C22.4 53 22 53 21.6 53H17.7H13.8C13.4 53 13 53 12.6 53.1L9.59995 53.7C9.09995 53.8 8.69995 54.3 8.69995 54.8ZM21.7 54.4C21.7 54.2 21.9 54 22.1 54H22.8C23.1 54 23.3 54.3 23.1 54.5L22.4 56C22.2 56.4 21.7 56.2 21.7 55.8V54.4ZM15 54.4C15 54.1 15.3 53.8 15.6 53.8H17.7H19.8C20.2 53.8 20.4 54.1 20.4 54.4V56.4C20.4 56.9 20 57.4 19.4 57.4H17.6H15.8C15.3 57.4 14.8 57 14.8 56.4L15 54.4ZM12.6 54H13.4C13.6 54 13.8 54.2 13.8 54.4V55.9C13.8 56.3 13.3 56.4 13.1 56.1L12.4 54.6C12.2 54.3 12.4 54 12.6 54Z" fill="#5E519C"/>
<path fill-rule="evenodd" clip-rule="evenodd" d="M44.1 33.6H41.1C40.9 33.6 40.8 33.5 40.8 33.3V32.1H44.2001L44.1 33.6Z" fill="#5E519C"/>
<path fill-rule="evenodd" clip-rule="evenodd" d="M44.9001 32.0999H40.5C40.4 32.0999 40.3 32 40.3 31.9C40.3 31.8 40.4 31.7 40.5 31.7H44.9001C45.0001 31.7 45.1 31.8 45.1 31.9C45.1 32 45.0001 32.0999 44.9001 32.0999Z" fill="#382E86"/>
<path fill-rule="evenodd" clip-rule="evenodd" d="M46.8 34.5H40.8C40.5 34.5 40.3 34.3 40.3 34V33.9C40.3 33.6 40.5 33.4 40.8 33.4H46.8C47.1 33.4 47.3 33.6 47.3 33.9V34C47.3 34.2 47.1 34.5 46.8 34.5Z" fill="#382E86"/>
<path d="M46.8 33.7H40.6V34.0999H46.8V33.7Z" fill="#5E519C"/>
<path fill-rule="evenodd" clip-rule="evenodd" d="M46.1 33.3H45.6V31.3C45.6 31.2 45.7 31.1 45.8 31.1C45.9 31.1 46 31.2 46 31.3V33.3H46.1Z" fill="#5E519C"/>
<path fill-rule="evenodd" clip-rule="evenodd" d="M37.9001 31.6V34.3H35.6V31.6H35.3V34.3V34.6V36.7V37V39.1V39.4V41.5V41.8V44V44.3V46.4V46.7V48.8V49.1V51.2V51.5V53.6V54V56.2V56.5H35.6H37.9001H38.2001V56.2V54V53.7V51.6V51.3V49.2V48.9V46.8V46.5V44.4V44V41.9V41.6V39.5V39.2V37V36.7V34.6V34.3V31.6C38.2001 31.6 37.9001 31.6 37.9001 31.6ZM37.9001 56.2H35.6V54H37.9001V56.2ZM37.9001 53.7H35.6V51.6H37.9001V53.7ZM37.9001 51.2H35.6V49.1H37.9001V51.2ZM37.9001 48.8H35.6V46.7H37.9001V48.8ZM37.9001 46.4H35.6V44.3H37.9001V46.4ZM37.9001 44H35.6V41.9H37.9001V44ZM37.9001 41.5H35.6V39.4H37.9001V41.5ZM37.9001 39.1H35.6V37H37.9001V39.1ZM37.9001 36.7H35.6V34.6H37.9001V36.7Z" fill="#382E86"/>
<path d="M18.7622 4.62256V7H17.6504V0.601562H20.0981C20.813 0.601562 21.3799 0.787598 21.7988 1.15967C22.2207 1.53174 22.4316 2.02393 22.4316 2.63623C22.4316 3.26318 22.2251 3.75098 21.812 4.09961C21.4019 4.44824 20.8262 4.62256 20.085 4.62256H18.7622ZM18.7622 3.73047H20.0981C20.4937 3.73047 20.7954 3.63818 21.0034 3.45361C21.2114 3.26611 21.3154 2.99658 21.3154 2.64502C21.3154 2.29932 21.21 2.02393 20.999 1.81885C20.7881 1.61084 20.498 1.50391 20.1289 1.49805H18.7622V3.73047ZM25.7583 4.53467H24.519V7H23.4072V0.601562H25.6572C26.3955 0.601562 26.9653 0.76709 27.3667 1.09814C27.7681 1.4292 27.9688 1.9082 27.9688 2.53516C27.9688 2.96289 27.8647 3.32178 27.6567 3.61182C27.4517 3.89893 27.1646 4.12012 26.7954 4.27539L28.2324 6.94287V7H27.0415L25.7583 4.53467ZM24.519 3.64258H25.6616C26.0366 3.64258 26.3296 3.54883 26.5405 3.36133C26.7515 3.1709 26.8569 2.91162 26.8569 2.5835C26.8569 2.24072 26.7588 1.97559 26.5625 1.78809C26.3691 1.60059 26.0791 1.50391 25.6924 1.49805H24.519V3.64258ZM34.1299 3.96777C34.1299 4.59473 34.0215 5.14551 33.8047 5.62012C33.5879 6.0918 33.2773 6.45508 32.873 6.70996C32.4717 6.96191 32.0088 7.08789 31.4844 7.08789C30.9658 7.08789 30.5029 6.96191 30.0957 6.70996C29.6914 6.45508 29.3779 6.09326 29.1553 5.62451C28.9355 5.15576 28.8242 4.61523 28.8213 4.00293V3.64258C28.8213 3.01855 28.9312 2.46777 29.1509 1.99023C29.3735 1.5127 29.6855 1.14795 30.0869 0.895996C30.4912 0.641113 30.9541 0.513672 31.4756 0.513672C31.9971 0.513672 32.4585 0.639648 32.8599 0.891602C33.2642 1.14063 33.5762 1.50098 33.7959 1.97266C34.0156 2.44141 34.127 2.98779 34.1299 3.61182V3.96777ZM33.0181 3.63379C33.0181 2.9248 32.8833 2.38135 32.6138 2.00342C32.3472 1.62549 31.9678 1.43652 31.4756 1.43652C30.9951 1.43652 30.6187 1.62549 30.3462 2.00342C30.0767 2.37842 29.939 2.91016 29.9331 3.59863V3.96777C29.9331 4.6709 30.0693 5.21436 30.3418 5.59814C30.6172 5.98193 30.998 6.17383 31.4844 6.17383C31.9766 6.17383 32.3545 5.98633 32.6182 5.61133C32.8848 5.23633 33.0181 4.68848 33.0181 3.96777V3.63379ZM36.3491 4.62256V7H35.2373V0.601562H37.6851C38.3999 0.601562 38.9668 0.787598 39.3857 1.15967C39.8076 1.53174 40.0186 2.02393 40.0186 2.63623C40.0186 3.26318 39.812 3.75098 39.3989 4.09961C38.9888 4.44824 38.4131 4.62256 37.6719 4.62256H36.3491ZM36.3491 3.73047H37.6851C38.0806 3.73047 38.3823 3.63818 38.5903 3.45361C38.7983 3.26611 38.9023 2.99658 38.9023 2.64502C38.9023 2.29932 38.7969 2.02393 38.5859 1.81885C38.375 1.61084 38.085 1.50391 37.7158 1.49805H36.3491V3.73047ZM43.7935 5.51025H41.3149L40.7964 7H39.6406L42.0576 0.601562H43.0552L45.4766 7H44.3164L43.7935 5.51025ZM41.627 4.61377H43.4814L42.5542 1.95947L41.627 4.61377ZM51.2817 7H50.1699L47.3179 2.46045V7H46.2061V0.601562H47.3179L50.1787 5.15869V0.601562H51.2817V7ZM56.3354 4.14355H53.7075V6.1123H56.7793V7H52.5957V0.601562H56.7485V1.49805H53.7075V3.26465H56.3354V4.14355ZM20.9946 16.3521C20.9946 16.0708 20.895 15.854 20.6958 15.7017C20.4995 15.5493 20.1436 15.3955 19.6279 15.2402C19.1123 15.085 18.7021 14.9121 18.3975 14.7217C17.8145 14.3555 17.5229 13.8779 17.5229 13.2891C17.5229 12.7734 17.7324 12.3486 18.1514 12.0146C18.5732 11.6807 19.1196 11.5137 19.7905 11.5137C20.2358 11.5137 20.6328 11.5957 20.9814 11.7598C21.3301 11.9238 21.604 12.1582 21.8032 12.4629C22.0024 12.7646 22.1021 13.1001 22.1021 13.4692H20.9946C20.9946 13.1353 20.8892 12.8745 20.6782 12.687C20.4702 12.4966 20.1714 12.4014 19.7817 12.4014C19.4185 12.4014 19.1357 12.479 18.9336 12.6343C18.7344 12.7896 18.6348 13.0063 18.6348 13.2847C18.6348 13.519 18.7432 13.7153 18.96 13.8735C19.1768 14.0288 19.5342 14.1812 20.0322 14.3306C20.5303 14.4771 20.9302 14.6455 21.2319 14.8359C21.5337 15.0234 21.7549 15.2402 21.8955 15.4863C22.0361 15.7295 22.1064 16.0151 22.1064 16.3433C22.1064 16.8765 21.9014 17.3013 21.4912 17.6177C21.084 17.9312 20.5303 18.0879 19.8301 18.0879C19.3672 18.0879 18.9409 18.0029 18.5513 17.833C18.1646 17.6602 17.8628 17.4229 17.646 17.1211C17.4321 16.8193 17.3252 16.4678 17.3252 16.0664H18.437C18.437 16.4297 18.5571 16.7109 18.7974 16.9102C19.0376 17.1094 19.3818 17.209 19.8301 17.209C20.2168 17.209 20.5068 17.1313 20.7002 16.9761C20.8965 16.8179 20.9946 16.6099 20.9946 16.3521ZM27.7622 11.6016V15.8774C27.7622 16.5571 27.5439 17.0962 27.1074 17.4946C26.6738 17.8901 26.0952 18.0879 25.3716 18.0879C24.6392 18.0879 24.0576 17.8931 23.627 17.5034C23.1963 17.1108 22.981 16.5674 22.981 15.873V11.6016H24.0884V15.8818C24.0884 16.3096 24.1968 16.6362 24.4136 16.8618C24.6304 17.0874 24.9497 17.2002 25.3716 17.2002C26.2271 17.2002 26.6548 16.749 26.6548 15.8467V11.6016H27.7622ZM30.0649 15.6226V18H28.9531V11.6016H31.4009C32.1157 11.6016 32.6826 11.7876 33.1016 12.1597C33.5234 12.5317 33.7344 13.0239 33.7344 13.6362C33.7344 14.2632 33.5278 14.751 33.1147 15.0996C32.7046 15.4482 32.1289 15.6226 31.3877 15.6226H30.0649ZM30.0649 14.7305H31.4009C31.7964 14.7305 32.0981 14.6382 32.3062 14.4536C32.5142 14.2661 32.6182 13.9966 32.6182 13.645C32.6182 13.2993 32.5127 13.0239 32.3018 12.8188C32.0908 12.6108 31.8008 12.5039 31.4316 12.498H30.0649V14.7305ZM35.8218 15.6226V18H34.71V11.6016H37.1577C37.8726 11.6016 38.4395 11.7876 38.8584 12.1597C39.2803 12.5317 39.4912 13.0239 39.4912 13.6362C39.4912 14.2632 39.2847 14.751 38.8716 15.0996C38.4614 15.4482 37.8857 15.6226 37.1445 15.6226H35.8218ZM35.8218 14.7305H37.1577C37.5532 14.7305 37.855 14.6382 38.063 14.4536C38.271 14.2661 38.375 13.9966 38.375 13.645C38.375 13.2993 38.2695 13.0239 38.0586 12.8188C37.8477 12.6108 37.5576 12.5039 37.1885 12.498H35.8218V14.7305ZM41.5786 17.1123H44.4834V18H40.4668V11.6016H41.5786V17.1123ZM46.5093 18H45.4019V11.6016H46.5093V18ZM51.6157 15.1436H48.9878V17.1123H52.0596V18H47.876V11.6016H52.0288V12.498H48.9878V14.2646H51.6157V15.1436ZM55.3159 15.5347H54.0767V18H52.9648V11.6016H55.2148C55.9531 11.6016 56.5229 11.7671 56.9243 12.0981C57.3257 12.4292 57.5264 12.9082 57.5264 13.5352C57.5264 13.9629 57.4224 14.3218 57.2144 14.6118C57.0093 14.8989 56.7222 15.1201 56.353 15.2754L57.79 17.9429V18H56.5991L55.3159 15.5347ZM54.0767 14.6426H55.2192C55.5942 14.6426 55.8872 14.5488 56.0981 14.3613C56.3091 14.1709 56.4146 13.9116 56.4146 13.5835C56.4146 13.2407 56.3164 12.9756 56.1201 12.7881C55.9268 12.6006 55.6367 12.5039 55.25 12.498H54.0767V14.6426Z" fill="#3D2777"/>
</g>
<defs>
<clipPath id="clip0">
<rect width="182.9" height="58.9" fill="white"/>
</clipPath>
</defs>
</svg>
