<svg width="193" height="188" viewBox="0 0 193 188" fill="none" xmlns="http://www.w3.org/2000/svg">
<g clip-path="url(#clip0)">
<path d="M183.7 5V2.5L185.9 1.2L188 0L190.2 1.2L192.3 2.5V5L190.2 3.7L188 2.5L185.9 3.7L183.7 5Z" fill="#5E519C"/>
<path d="M95.5 160H10.1C7.3 160 4.8 158.9 3 157C1.2 155.2 0 152.7 0 149.9C0 135.4 0 98 0 83.5V78.5L2.2 77.3L4.3 76L6.5 77.2L8.7 78.4V83.4C8.7 97.9 8.8 135.3 8.8 149.8C8.8 150.2 9 150.6 9.2 150.8C9.4 151 9.8 151.2 10.2 151.2H95.6L93.4 156L95.5 160Z" fill="#5E519C"/>
<path d="M96.8 160H182.2C185 160 187.5 158.9 189.3 157C191.1 155.2 192.3 152.7 192.3 149.9C192.3 135.4 192.3 39.9 192.3 25.4V20.4L190.1 19.2L188 18L185.8 19.2L183.6 20.4V25.4C183.6 39.9 183.5 135.3 183.5 149.9C183.5 150.3 183.3 150.7 183.1 150.9C182.9 151.1 182.5 151.3 182.1 151.3H96.8L99 156.1L96.8 160Z" fill="#5E519C"/>
<path fill-rule="evenodd" clip-rule="evenodd" d="M0.0999756 97.2L4.49998 94.8L8.69998 97.2V12.6V7.70001L6.49998 6.40001L4.39998 5.20001L2.19998 6.40001L0.0999756 7.70001V12.6V97.2Z" fill="#5E519C"/>
<path d="M37 162.4L36.4 162.1L43.5 147.3H46.7V148H43.9L37 162.4Z" fill="#A6A5D1"/>
<path d="M34 116.5L27.1 109.5H24.2V108.8H27.4L34.5 116L34 116.5Z" fill="#5E519C"/>
<path d="M27.5 109.4L27 108.9L34.1 101.8H37.3V102.5H34.4L27.5 109.4Z" fill="#5E519C"/>
<path d="M34 102.4L27.1 95.4H24.2V94.7H27.4L34.5 101.9L34 102.4Z" fill="#5E519C"/>
<path d="M37.6 123.9H36.9V116.6H34.4L27.4 123.7H23.9V91.9H37.7L37.6 123.9ZM24.6 122.9H27.1L34.1 115.8H36.9V92.6H24.6V122.9Z" fill="#5E519C"/>
<path d="M37.1 116.5L30.2 109.5H27.3V108.8H30.4L37.6 116L37.1 116.5Z" fill="#A6A5D1"/>
<path d="M30.5 109.4L30 108.9L37.2 101.8H40.4V102.5H37.5L30.5 109.4Z" fill="#A6A5D1"/>
<path d="M37.1 102.4L30.2 95.4H27.3V94.7H30.4L37.6 101.9L37.1 102.4Z" fill="#A6A5D1"/>
<path d="M40.7 123.9H40V116.6H37.5L30.5 123.7H27V91.9H40.8L40.7 123.9ZM27.6 122.9H30.1L37.1 115.8H40V92.6H27.6V122.9Z" fill="#A6A5D1"/>
<path d="M34 147.5L27.1 140.6H24.2V139.9H27.4L34.5 147L34 147.5Z" fill="#5E519C"/>
<path d="M27.5 140.5L27 140L34.1 132.8H37.3V133.5H34.4L27.5 140.5Z" fill="#5E519C"/>
<path d="M34 133.4L27.1 126.5H24.2V125.8H27.4L34.5 132.9L34 133.4Z" fill="#5E519C"/>
<path d="M23.8 157.2V122.9H37.6V154.9H36.9V147.6H34.4L27.4 154.6L23.8 157.2ZM24.6 123.7V155.9L27 154L34.1 146.9H36.9V123.6H24.6V123.7Z" fill="#5E519C"/>
<path d="M37.1 147.5L30.2 140.6H27.3V139.9H30.4L37.6 147L37.1 147.5Z" fill="#A6A5D1"/>
<path d="M30.5 140.5L30 140L37.2 132.8H40.4V133.5H37.5L30.5 140.5Z" fill="#A6A5D1"/>
<path d="M37.1 133.4L30.2 126.5H27.3V125.8H30.4L37.6 132.9L37.1 133.4Z" fill="#A6A5D1"/>
<path d="M40.7 155H40V147.7H37.5L30.5 154.8H27V123.1H40.8L40.7 155ZM27.6 154H30.1L37.1 146.9H40V123.6H27.6V154Z" fill="#A6A5D1"/>
<path d="M27.9 158.3L27.1 157.5H24.2V156.8H27.4L28.4 157.8L27.9 158.3Z" fill="#5E519C"/>
<path d="M31 158.3L30.2 157.5H27.3V156.8H30.4L31.5 157.8L31 158.3Z" fill="#A6A5D1"/>
<path d="M50.2 116.5L43.2 109.5H40.4V108.8H43.5L50.7 116L50.2 116.5Z" fill="#5E519C"/>
<path d="M43.6 109.4L43.1 108.9L50.3 101.8H53.4V102.5H50.6L43.6 109.4Z" fill="#5E519C"/>
<path d="M50.2 102.4L43.2 95.4H40.4V94.7H43.5L50.7 101.9L50.2 102.4Z" fill="#5E519C"/>
<path d="M53.8 123.9H53.1V116.6H50.6L43.6 123.7H40V91.9H53.8V123.9ZM40.7 122.9H43.2L50.2 115.8H53V92.6H40.7V122.9Z" fill="#5E519C"/>
<path d="M53.2 116.5L46.3 109.5H43.4V108.8H46.6L53.7 116L53.2 116.5Z" fill="#A6A5D1"/>
<path d="M46.7 109.4L46.2 108.9L53.4 101.8H56.5V102.5H53.6L46.7 109.4Z" fill="#A6A5D1"/>
<path d="M53.2 102.4L46.3 95.4H43.4V94.7H46.6L53.7 101.9L53.2 102.4Z" fill="#A6A5D1"/>
<path d="M56.9 123.9H56.2V116.6H53.7L46.7 123.7H43.2V91.9H57L56.9 123.9ZM43.8 122.9H46.3L53.3 115.8H56.1V92.6H43.8V122.9Z" fill="#A6A5D1"/>
<path d="M50.2 147.5L43.2 140.6H40.4V139.9H43.5L50.7 147L50.2 147.5Z" fill="#5E519C"/>
<path d="M43.6 140.5L43.1 140L50.3 132.8H53.4V133.5H50.6L43.6 140.5Z" fill="#5E519C"/>
<path d="M50.2 133.4L43.2 126.5H40.4V125.8H43.5L50.7 132.9L50.2 133.4Z" fill="#5E519C"/>
<path d="M53.8 155H53.1V147.7H50.6L43.6 154.8H40V123.1H53.8V155ZM40.7 154H43.2L50.2 146.9H53V123.6H40.7V154Z" fill="#5E519C"/>
<path d="M53.2 147.5L46.3 140.6H43.4V139.9H46.6L53.7 147L53.2 147.5Z" fill="#A6A5D1"/>
<path d="M46.7 140.5L46.2 140L53.4 132.8H56.5V133.5H53.6L46.7 140.5Z" fill="#A6A5D1"/>
<path d="M53.2 133.4L46.3 126.5H43.4V125.8H46.6L53.7 132.9L53.2 133.4Z" fill="#A6A5D1"/>
<path d="M56.9 155H56.2V147.7H53.7L46.7 154.8H43.2V123.1H57L56.9 155ZM43.8 154H46.3L53.3 146.9H56.1V123.6H43.8V154Z" fill="#A6A5D1"/>
<path d="M44.1 158.3L43.2 157.5H40.4V156.8H43.5L44.6 157.8L44.1 158.3Z" fill="#5E519C"/>
<path d="M53.8 158.1H53.1V154.7H40.7V158.1H40V154H53.8V158.1Z" fill="#5E519C"/>
<path d="M47.2 158.3L46.3 157.5H43.4V156.8H46.6L47.7 157.8L47.2 158.3Z" fill="#A6A5D1"/>
<path d="M56.9 158.1H56.2V154.7H43.8V158.1H43.1V154H56.9V158.1Z" fill="#A6A5D1"/>
<path d="M66.3 116.5L59.4 109.5H56.5V108.8H59.7L66.8 116L66.3 116.5Z" fill="#5E519C"/>
<path d="M59.8 109.4L59.3 108.9L66.4 101.8H69.6V102.5H66.7L59.8 109.4Z" fill="#5E519C"/>
<path d="M66.3 102.4L59.4 95.4H56.5V94.7H59.7L66.8 101.9L66.3 102.4Z" fill="#5E519C"/>
<path d="M70 123.9H69.3V116.6H66.8L59.8 123.7H56.3V91.9H70V123.9ZM56.9 122.9H59.4L66.4 115.8H69.2V92.6H56.9V122.9Z" fill="#5E519C"/>
<path d="M69.4 116.5L62.5 109.5H59.6V108.8H62.8L69.9 116L69.4 116.5Z" fill="#A6A5D1"/>
<path d="M62.9 109.4L62.4 108.9L69.5 101.8H72.7V102.5H69.8L62.9 109.4Z" fill="#A6A5D1"/>
<path d="M69.4 102.4L62.5 95.4H59.6V94.7H62.8L69.9 101.9L69.4 102.4Z" fill="#A6A5D1"/>
<path d="M73 123.9H72.3V116.6H69.8L62.8 123.7H59.3V91.9H73V123.9ZM60 122.9H62.5L69.5 115.8H72.3V92.6H60V122.9Z" fill="#A6A5D1"/>
<path d="M66.3 147.5L59.4 140.6H56.5V139.9H59.7L66.8 147L66.3 147.5Z" fill="#5E519C"/>
<path d="M59.8 140.5L59.3 140L66.4 132.8H69.6V133.5H66.7L59.8 140.5Z" fill="#5E519C"/>
<path d="M66.3 133.4L59.4 126.5H56.5V125.8H59.7L66.8 132.9L66.3 133.4Z" fill="#5E519C"/>
<path d="M70 155H69.3V147.7H66.8L59.8 154.8H56.3V123.1H70V155ZM56.9 154H59.4L66.4 146.9H69.2V123.6H56.9V154Z" fill="#5E519C"/>
<path d="M69.4 147.5L62.5 140.6H59.6V139.9H62.8L69.9 147L69.4 147.5Z" fill="#A6A5D1"/>
<path d="M62.9 140.5L62.4 140L69.5 132.8H72.7V133.5H69.8L62.9 140.5Z" fill="#A6A5D1"/>
<path d="M69.4 133.4L62.5 126.5H59.6V125.8H62.8L69.9 132.9L69.4 133.4Z" fill="#A6A5D1"/>
<path d="M73 155H72.3V147.7H69.8L62.8 154.8H59.3V123.1H73V155ZM60 154H62.5L69.5 146.9H72.3V123.6H60V154Z" fill="#A6A5D1"/>
<path d="M60.2 158.3L59.4 157.5H56.5V156.8H59.7L60.7 157.8L60.2 158.3Z" fill="#5E519C"/>
<path d="M70 158.1H69.2V154.7H56.9V158.1H56.2V154H70V158.1Z" fill="#5E519C"/>
<path d="M63.3 158.3L62.5 157.5H59.6V156.8H62.8L63.8 157.8L63.3 158.3Z" fill="#A6A5D1"/>
<path d="M73 158.1H72.3V154.7H60V158.1H59.2V154H73V158.1Z" fill="#A6A5D1"/>
<path d="M111.5 165.6V121.7C111.5 117.8 108.3 114.6 104.4 114.6H91V113.2H104.4C109.1 113.2 113 117 113 121.8V165.7H111.5V165.6Z" fill="#D7D5E8"/>
<path d="M117.3 165.6V121.7C117.3 117.8 114.1 114.6 110.2 114.6H96.8V113.2H110.2C114.9 113.2 118.8 117 118.8 121.8V165.7H117.3V165.6Z" fill="#D7D5E8"/>
<path d="M123.1 165.6V121.7C123.1 117.8 119.9 114.6 116 114.6H102.6V113.2H116C120.7 113.2 124.6 117 124.6 121.8V165.7H123.1V165.6Z" fill="#D7D5E8"/>
<path d="M128.9 165.6V121.7C128.9 117.8 125.7 114.6 121.8 114.6H108.4V113.2H121.8C126.5 113.2 130.4 117 130.4 121.8V165.7H128.9V165.6Z" fill="#D7D5E8"/>
<path d="M140.5 165.6V121.7C140.5 117.8 137.3 114.6 133.4 114.6H120V113.2H133.4C138.1 113.2 142 117 142 121.8V165.7H140.5V165.6Z" fill="#D7D5E8"/>
<path d="M134.7 165.6V121.7C134.7 117.8 131.5 114.6 127.6 114.6H114.2V113.2H127.6C132.3 113.2 136.2 117 136.2 121.8V165.7H134.7V165.6Z" fill="#D7D5E8"/>
<path d="M146.3 165.6V121.7C146.3 117.8 143.1 114.6 139.2 114.6H125.8V113.2H139.2C143.9 113.2 147.8 117 147.8 121.8V165.7H146.3V165.6Z" fill="#D7D5E8"/>
<path fill-rule="evenodd" clip-rule="evenodd" d="M66.3 37.1C66.3 41.7 62.6 45.4 58 45.4C57.9 45.4 57.9 45.4 57.8 45.4C57.8 45.8 57.7 46.1 57.6 46.5V46.6C58.4 46.4 59.2 46.4 60 46.7C62.3 47.5 63.6 50 62.8 52.3C62 54.6 59.5 55.9 57.2 55.1C57 55 56.9 55 56.7 54.9C56.3 55.8 55.6 56.6 54.6 57C54.5 57.1 54.3 57.1 54.2 57.2C54.7 57.7 55.1 58.4 55.1 59.2C55.1 60.7 53.9 62 52.3 62C51 62 49.9 61.1 49.6 59.9H49.5C48 59.9 46.7 58.7 46.7 57.1C46.7 55.9 47.4 54.9 48.4 54.5C47.7 52.6 48.4 50.5 50.1 49.4C47.9 48.2 46.8 45.6 47.6 43.2C48.1 41.8 49 40.8 50.2 40.2C49.8 39.3 49.6 38.2 49.6 37.2C49.6 32.6 53.3 28.9 57.9 28.9C62.6 28.9 66.3 32.6 66.3 37.1Z" fill="#E1E1EF"/>
<path d="M55.7 63.2H48.9V126.5H55.7V63.2Z" fill="#D7D5E8"/>
<path d="M55.7 68.6H48.9V74H55.7V68.6Z" fill="#382E86"/>
<path d="M55.7 79.3H48.9V84.7H55.7V79.3Z" fill="#382E86"/>
<path d="M53.9 75.9H55.5H55.7V76.1V79.3C55.7 79.4 55.6 79.5 55.5 79.5C55.4 79.5 55.3 79.4 55.3 79.3V76.3H54.1V79.3C54.1 79.4 54 79.5 53.9 79.5C53.8 79.5 53.7 79.4 53.7 79.3V76.3H52.5V79.3C52.5 79.4 52.4 79.5 52.3 79.5C52.2 79.5 52.1 79.4 52.1 79.3V76.3H50.9V79.3C50.9 79.4 50.8 79.5 50.7 79.5C50.6 79.5 50.5 79.4 50.5 79.3V76.3H49.3V79.3C49.3 79.4 49.2 79.5 49.1 79.5C49 79.5 48.9 79.4 48.9 79.3V76.1V75.9H49.1H50.7H52.3H53.9Z" fill="#382E86"/>
<path d="M55.7 60.9H48.9V63.3H55.7V60.9Z" fill="#382E86"/>
<path d="M57.7 108.8H47V128.6H57.7V108.8Z" fill="#A6A5D1"/>
<path fill-rule="evenodd" clip-rule="evenodd" d="M47 108.8H57.7L55.8 99.8H48.8L47 108.8Z" fill="#382E86"/>
<path fill-rule="evenodd" clip-rule="evenodd" d="M92 29.1C92 35.1 87.1 40 81 40C80.9 40 80.8 40 80.8 40C80.7 40.5 80.6 41 80.5 41.5L80.4 41.7C81.4 41.5 82.5 41.5 83.6 41.8C86.7 42.8 88.3 46.1 87.3 49.2C86.3 52.3 83 53.9 79.9 52.9C79.7 52.8 79.4 52.7 79.2 52.6C78.7 53.8 77.7 54.8 76.5 55.4C76.3 55.5 76.2 55.6 76 55.6C76.7 56.3 77.2 57.2 77.2 58.3C77.2 60.3 75.5 62 73.5 62C71.8 62 70.3 60.8 69.9 59.2H69.8C67.8 59.2 66.1 57.5 66.1 55.5C66.1 54 67 52.6 68.4 52.1C67.5 49.6 68.4 46.8 70.6 45.3C67.7 43.7 66.3 40.3 67.3 37.1C67.9 35.3 69.2 33.9 70.8 33.1C70.3 31.9 70 30.5 70 29.1C70 23.1 74.9 18.2 80.9 18.2C87.1 18.1 92 23 92 29.1Z" fill="#E1E1EF"/>
<path d="M75.1 63.2H68.3V126.5H75.1V63.2Z" fill="#D7D5E8"/>
<path d="M75.1 68.6H68.3V74H75.1V68.6Z" fill="#382E86"/>
<path d="M75.1 79.3H68.3V84.7H75.1V79.3Z" fill="#382E86"/>
<path d="M73.3 75.9H74.9H75.1V76.1V79.3C75.1 79.4 75 79.5 74.9 79.5C74.8 79.5 74.7 79.4 74.7 79.3V76.3H73.5V79.3C73.5 79.4 73.4 79.5 73.3 79.5C73.2 79.5 73.1 79.4 73.1 79.3V76.3H71.9V79.3C71.9 79.4 71.8 79.5 71.7 79.5C71.6 79.5 71.5 79.4 71.5 79.3V76.3H70.3V79.3C70.3 79.4 70.2 79.5 70.1 79.5C70 79.5 69.9 79.4 69.9 79.3V76.3H68.7V79.3C68.7 79.4 68.6 79.5 68.5 79.5C68.4 79.5 68.3 79.4 68.3 79.3V76.1V75.9H68.5H70.1H71.7H73.3Z" fill="#382E86"/>
<path d="M75.1 60.9H68.3V63.3H75.1V60.9Z" fill="#382E86"/>
<path d="M77.1 108.8H66.4V128.6H77.1V108.8Z" fill="#A6A5D1"/>
<path fill-rule="evenodd" clip-rule="evenodd" d="M66.3 108.8H77L75.2 99.8H68.2L66.3 108.8Z" fill="#382E86"/>
<path fill-rule="evenodd" clip-rule="evenodd" d="M105.3 37.1C105.3 41.7 101.6 45.4 97 45.4C96.9 45.4 96.9 45.4 96.8 45.4C96.8 45.8 96.7 46.1 96.6 46.5V46.6C97.4 46.4 98.2 46.4 99 46.7C101.3 47.5 102.6 50 101.8 52.3C101 54.6 98.5 55.9 96.2 55.1C96 55 95.9 55 95.7 54.9C95.3 55.8 94.6 56.6 93.6 57C93.5 57.1 93.3 57.1 93.2 57.2C93.7 57.7 94.1 58.4 94.1 59.2C94.1 60.7 92.9 62 91.3 62C90 62 88.9 61.1 88.6 59.9H88.5C87 59.9 85.7 58.7 85.7 57.1C85.7 55.9 86.4 54.9 87.4 54.5C86.7 52.6 87.4 50.5 89.1 49.4C86.9 48.2 85.8 45.6 86.6 43.2C87.1 41.8 88 40.8 89.2 40.2C88.8 39.3 88.6 38.2 88.6 37.2C88.6 32.6 92.3 28.9 96.9 28.9C101.6 28.9 105.3 32.6 105.3 37.1Z" fill="#E1E1EF"/>
<path d="M94.7 63.2H87.9V126.5H94.7V63.2Z" fill="#D7D5E8"/>
<path d="M94.7 68.6H87.9V74H94.7V68.6Z" fill="#382E86"/>
<path d="M94.7 79.3H87.9V84.7H94.7V79.3Z" fill="#382E86"/>
<path d="M92.9 75.9H94.5H94.7V76.1V79.3C94.7 79.4 94.6 79.5 94.5 79.5C94.4 79.5 94.3 79.4 94.3 79.3V76.3H93.1V79.3C93.1 79.4 93 79.5 92.9 79.5C92.8 79.5 92.7 79.4 92.7 79.3V76.3H91.5V79.3C91.5 79.4 91.4 79.5 91.3 79.5C91.2 79.5 91.1 79.4 91.1 79.3V76.3H90V79.3C90 79.4 89.9 79.5 89.8 79.5C89.7 79.5 89.6 79.4 89.6 79.3V76.3H88.4V79.3C88.4 79.4 88.3 79.5 88.2 79.5C88.1 79.5 88 79.4 88 79.3V76.1V75.9H88.2H89.8H91.4C91.4 75.9 92.9 75.9 92.9 75.9Z" fill="#382E86"/>
<path d="M94.7 60.9H87.9V63.3H94.7V60.9Z" fill="#382E86"/>
<path d="M96.7 108.8H86V128.6H96.7V108.8Z" fill="#A6A5D1"/>
<path fill-rule="evenodd" clip-rule="evenodd" d="M86 108.8H96.7L94.9 99.8H87.9L86 108.8Z" fill="#382E86"/>
<path fill-rule="evenodd" clip-rule="evenodd" d="M51.6 165.6H105.9V119.3H79.4H51.6V165.6Z" fill="#5E519C"/>
<path d="M169.2 143.4H166.1V147.7H169.2V143.4Z" fill="#A6A5D1"/>
<path d="M163 143.4H159.9V147.7H163V143.4Z" fill="#A6A5D1"/>
<path d="M156.7 143.4H153.6V147.7H156.7V143.4Z" fill="#A6A5D1"/>
<path fill-rule="evenodd" clip-rule="evenodd" d="M105.9 165.6H148.4V146.5H127.7H105.9V165.6Z" fill="#D7D5E8"/>
<path d="M45.4 146.5H27.2V165.6H45.4V146.5Z" fill="#A6A5D1"/>
<path d="M42.1 146.5H16.4V165.6H42.1V146.5Z" fill="#A6A5D1"/>
<path d="M52.3 119.3H42.1V165.7H52.3V119.3Z" fill="#382E86"/>
<path d="M48.4 122.6H46V125H48.4V122.6Z" fill="#5E519C"/>
<path d="M48.4 126.1H46V128.5H48.4V126.1Z" fill="#5E519C"/>
<path d="M48.4 129.7H46V132.1H48.4V129.7Z" fill="#5E519C"/>
<path d="M8.7 7.5V9.9V31H0V9.9V7.5H0.1L2.2 6.2L4.4 5L6.5 6.2L8.7 7.5Z" fill="#5E519C"/>
<path d="M183.7 7.5V9.9V31H192.3V9.9V7.5L190.1 6.2L188 5L185.8 6.2L183.7 7.5Z" fill="#5E519C"/>
<path fill-rule="evenodd" clip-rule="evenodd" d="M0.0999756 5V2.5L2.19998 1.2L4.39998 0L6.49998 1.2L8.69998 2.5V5L6.49998 3.7L4.39998 2.5L2.19998 3.7L0.0999756 5Z" fill="#5E519C"/>
<path d="M174.4 146.5H148.4V165.6H174.4V146.5Z" fill="#A6A5D1"/>
<path d="M68.4385 170.854H66.2065V175H65.1812V170.023H68.4385V170.854ZM71.1831 173.975H69.3853L69.0435 175H67.9531L69.8057 170.023H70.7559L72.6187 175H71.5283L71.1831 173.975ZM69.6621 173.144H70.9062L70.2808 171.281L69.6621 173.144ZM75.5376 171.394C75.5376 171.205 75.4635 171.057 75.3154 170.95C75.1673 170.84 74.9714 170.786 74.7275 170.786C74.5088 170.786 74.3265 170.84 74.1807 170.95C74.0371 171.057 73.9653 171.197 73.9653 171.37H72.9399C72.9399 171.101 73.0151 170.86 73.1655 170.646C73.3182 170.429 73.5335 170.26 73.8115 170.14C74.0918 170.019 74.3971 169.958 74.7275 169.958C75.3018 169.958 75.7518 170.082 76.0776 170.328C76.4035 170.574 76.5664 170.922 76.5664 171.374C76.5664 171.595 76.4992 171.8 76.3647 171.989C76.2326 172.178 76.0435 172.329 75.7974 172.443C76.0708 172.539 76.2804 172.685 76.4263 172.881C76.5721 173.075 76.645 173.316 76.645 173.605C76.645 174.052 76.4696 174.408 76.1187 174.672C75.77 174.934 75.3063 175.065 74.7275 175.065C74.3652 175.065 74.0394 175.003 73.75 174.88C73.4606 174.755 73.2407 174.585 73.0903 174.371C72.9422 174.155 72.8682 173.904 72.8682 173.619H73.9004C73.9004 173.797 73.9779 173.946 74.1328 174.067C74.2878 174.185 74.486 174.245 74.7275 174.245C75.001 174.245 75.2163 174.183 75.3735 174.06C75.533 173.937 75.6128 173.781 75.6128 173.592C75.6128 173.332 75.5422 173.146 75.4009 173.035C75.2596 172.921 75.0534 172.864 74.7822 172.864H74.1704V172.061H74.8027C75.2926 172.054 75.5376 171.832 75.5376 171.394ZM79.2598 173.267H77.3354V172.471H79.2598V173.267ZM83.8638 170.854H82.3394V175H81.314V170.854H79.8101V170.023H83.8638V170.854ZM86.3179 172.375L87.2236 170.023H88.3311L86.5913 174.128L86.4512 174.398C86.1937 174.847 85.7995 175.072 85.2686 175.072L84.9097 175.058L84.8994 174.234C84.9541 174.243 85.043 174.248 85.166 174.248C85.3096 174.248 85.4246 174.223 85.5112 174.173C85.6001 174.123 85.6742 174.03 85.7334 173.896L85.8599 173.571L84.1133 170.023H85.2173L86.3179 172.375ZM89.8999 173.247V175H88.8745V170.023H90.8159C91.1896 170.023 91.5177 170.092 91.8003 170.229C92.0851 170.365 92.3039 170.56 92.4565 170.813C92.6092 171.064 92.6855 171.35 92.6855 171.671C92.6855 172.159 92.5181 172.544 92.1831 172.826C91.8504 173.106 91.389 173.247 90.7988 173.247H89.8999ZM89.8999 172.416H90.8159C91.0871 172.416 91.2933 172.352 91.4346 172.225C91.5781 172.097 91.6499 171.915 91.6499 171.678C91.6499 171.434 91.5781 171.237 91.4346 171.086C91.291 170.936 91.0928 170.859 90.8398 170.854H89.8999V172.416ZM96.6401 170.854H94.4185V171.818H95.2183C95.8039 171.818 96.2676 171.96 96.6094 172.245C96.9535 172.528 97.1255 172.909 97.1255 173.39C97.1255 173.873 96.9546 174.262 96.6128 174.556C96.2733 174.847 95.821 174.995 95.2559 175H93.3828V170.023H96.6401V170.854ZM94.4185 172.645V174.176H95.2354C95.4974 174.176 95.7059 174.104 95.8608 173.961C96.0181 173.817 96.0967 173.625 96.0967 173.383C96.0967 173.158 96.0215 172.98 95.8711 172.85C95.723 172.718 95.519 172.65 95.2593 172.645H94.4185ZM100.766 170.023H101.794V175H100.766V171.695L98.7729 175H97.7476V170.023H98.7729V173.335L100.766 170.023ZM106.733 175H105.708V172.867H103.708V175H102.683V170.023H103.708V172.04H105.708V170.023H106.733V175ZM110.503 173.975H108.706L108.364 175H107.273L109.126 170.023H110.076L111.939 175H110.849L110.503 173.975ZM108.982 173.144H110.227L109.601 171.281L108.982 173.144ZM116.512 170.023V175H115.483V170.854H114.157L114.075 172.611C114.041 173.203 113.966 173.67 113.85 174.012C113.733 174.352 113.564 174.601 113.34 174.761C113.117 174.918 112.812 174.998 112.424 175H112.158V174.176L112.329 174.159C112.586 174.125 112.77 173.977 112.879 173.715C112.991 173.451 113.061 172.981 113.091 172.307L113.176 170.023H116.512ZM118.45 171.818H119.25C119.836 171.818 120.299 171.96 120.641 172.245C120.985 172.528 121.157 172.909 121.157 173.39C121.157 173.873 120.986 174.262 120.645 174.556C120.305 174.847 119.853 174.995 119.288 175H117.418V170.023H118.45V171.818ZM122.61 175H121.584V170.023H122.61V175ZM118.45 172.645V174.176H119.267C119.529 174.176 119.738 174.104 119.893 173.961C120.05 173.817 120.128 173.625 120.128 173.383C120.128 173.158 120.053 172.98 119.903 172.85C119.755 172.718 119.551 172.65 119.291 172.645H118.45ZM125.136 172.966H124.544V175H123.519V170.023H124.544V172.016H125.013L126.229 170.023H127.48L125.946 172.378L127.641 175H126.417L125.136 172.966ZM128.048 176.22H127.06V174.299H128.048V176.22ZM61.9443 181.346C61.974 181.667 62.0685 181.898 62.228 182.04C62.3875 182.179 62.6188 182.248 62.9219 182.248C63.2568 182.248 63.5052 182.138 63.667 181.917C63.8288 181.693 63.9222 181.364 63.9473 180.929H62.375V180.098H63.9438C63.9165 179.654 63.8162 179.325 63.6431 179.11C63.4722 178.894 63.2272 178.786 62.9082 178.786C62.5983 178.786 62.3659 178.86 62.2109 179.008C62.056 179.154 61.966 179.389 61.9409 179.715H60.9155C60.9657 179.171 61.1639 178.741 61.5103 178.427C61.8589 178.112 62.3249 177.955 62.9082 177.955C63.3229 177.955 63.6864 178.053 63.9985 178.249C64.313 178.443 64.5545 178.722 64.7231 179.086C64.8918 179.449 64.9761 179.871 64.9761 180.354V180.679C64.9761 181.413 64.7926 181.995 64.4258 182.426C64.0612 182.854 63.5599 183.068 62.9219 183.068C62.334 183.068 61.8623 182.913 61.5068 182.604C61.1536 182.291 60.9577 181.872 60.9189 181.346H61.9443ZM69.6519 178.023V183H68.623V178.854H67.2969L67.2148 180.611C67.1807 181.203 67.1055 181.67 66.9893 182.012C66.873 182.352 66.7033 182.601 66.48 182.761C66.2567 182.918 65.9513 182.998 65.564 183H65.2974V182.176L65.4683 182.159C65.7257 182.125 65.9092 181.977 66.0186 181.715C66.1302 181.451 66.2008 180.981 66.2305 180.307L66.3159 178.023H69.6519ZM73.5415 180.843H71.5728V182.176H73.8833V183H70.5474V178.023H73.8765V178.854H71.5728V180.04H73.5415V180.843ZM76.1084 180.966H75.5171V183H74.4917V178.023H75.5171V180.016H75.9854L77.2021 178.023H78.4531L76.9185 180.378L78.6138 183H77.3901L76.1084 180.966ZM82.7563 178.854H81.2319V183H80.2065V178.854H78.7026V178.023H82.7563V178.854ZM84.3696 181.247V183H83.3442V178.023H85.2856C85.6593 178.023 85.9875 178.092 86.27 178.229C86.5549 178.365 86.7736 178.56 86.9263 178.813C87.0789 179.064 87.1553 179.35 87.1553 179.671C87.1553 180.159 86.9878 180.544 86.6528 180.826C86.3201 181.106 85.8587 181.247 85.2686 181.247H84.3696ZM84.3696 180.416H85.2856C85.5568 180.416 85.763 180.352 85.9043 180.225C86.0479 180.097 86.1196 179.915 86.1196 179.678C86.1196 179.434 86.0479 179.237 85.9043 179.086C85.7607 178.936 85.5625 178.859 85.3096 178.854H84.3696V180.416ZM93.5127 181.342C93.474 181.878 93.2757 182.299 92.918 182.607C92.5625 182.915 92.0931 183.068 91.5098 183.068C90.8717 183.068 90.3693 182.854 90.0024 182.426C89.6379 181.995 89.4556 181.405 89.4556 180.655V180.351C89.4556 179.873 89.5399 179.451 89.7085 179.086C89.8771 178.722 90.1175 178.443 90.4297 178.249C90.7441 178.053 91.1087 177.955 91.5234 177.955C92.0977 177.955 92.5602 178.109 92.9111 178.417C93.262 178.724 93.4648 179.156 93.5195 179.712H92.4941C92.4691 179.391 92.3791 179.158 92.2241 179.015C92.0715 178.869 91.8379 178.796 91.5234 178.796C91.1816 178.796 90.9253 178.919 90.7544 179.165C90.5858 179.409 90.4992 179.788 90.4946 180.303V180.679C90.4946 181.217 90.5755 181.61 90.7373 181.858C90.9014 182.107 91.1589 182.231 91.5098 182.231C91.8265 182.231 92.0623 182.159 92.2173 182.016C92.3745 181.87 92.4645 181.645 92.4873 181.342H93.5127ZM97.8296 178.854H96.3052V183H95.2798V178.854H93.7759V178.023H97.8296V178.854ZM100.817 181.975H99.019L98.6772 183H97.5869L99.4395 178.023H100.39L102.252 183H101.162L100.817 181.975ZM99.2959 181.144H100.54L99.9146 179.281L99.2959 181.144ZM106.768 183H105.742V180.867H103.743V183H102.717V178.023H103.743V180.04H105.742V178.023H106.768V183ZM107.622 178.023H108.647V182.176H110.64V178.023H111.669V182.176H112.349L112.281 184.2H111.324V183H107.622V178.023ZM115.962 178.023H116.991V183H115.962V179.695L113.969 183H112.944V178.023H113.969V181.335L115.962 178.023ZM120.18 183V181.206H119.346L118.447 183H117.339L118.402 180.877C117.89 180.595 117.633 180.156 117.633 179.562C117.633 179.074 117.793 178.697 118.112 178.43C118.431 178.164 118.876 178.028 119.448 178.023H121.208V183H120.18ZM118.659 179.637C118.659 179.915 118.726 180.116 118.86 180.242C118.997 180.367 119.201 180.43 119.472 180.43H120.18V178.854H119.472C118.93 178.854 118.659 179.115 118.659 179.637ZM125.963 181.342C125.924 181.878 125.726 182.299 125.368 182.607C125.013 182.915 124.543 183.068 123.96 183.068C123.322 183.068 122.819 182.854 122.453 182.426C122.088 181.995 121.906 181.405 121.906 180.655V180.351C121.906 179.873 121.99 179.451 122.159 179.086C122.327 178.722 122.568 178.443 122.88 178.249C123.194 178.053 123.559 177.955 123.974 177.955C124.548 177.955 125.01 178.109 125.361 178.417C125.712 178.724 125.915 179.156 125.97 179.712H124.944C124.919 179.391 124.829 179.158 124.674 179.015C124.522 178.869 124.288 178.796 123.974 178.796C123.632 178.796 123.375 178.919 123.205 179.165C123.036 179.409 122.949 179.788 122.945 180.303V180.679C122.945 181.217 123.026 181.61 123.188 181.858C123.352 182.107 123.609 182.231 123.96 182.231C124.277 182.231 124.513 182.159 124.667 182.016C124.825 181.87 124.915 181.645 124.938 181.342H125.963ZM127.679 179.818H128.479C129.064 179.818 129.528 179.96 129.87 180.245C130.214 180.528 130.386 180.909 130.386 181.39C130.386 181.873 130.215 182.262 129.873 182.556C129.534 182.847 129.081 182.995 128.516 183H126.646V178.023H127.679V179.818ZM131.838 183H130.813V178.023H131.838V183ZM127.679 180.645V182.176H128.496C128.758 182.176 128.966 182.104 129.121 181.961C129.278 181.817 129.357 181.625 129.357 181.383C129.357 181.158 129.282 180.98 129.131 180.85C128.983 180.718 128.779 180.65 128.52 180.645H127.679Z" fill="#3D2777"/>
</g>
<defs>
<clipPath id="clip0">
<rect width="192.3" height="187.1" fill="white"/>
</clipPath>
</defs>
</svg>
