<svg width="174" height="180" viewBox="0 0 174 180" fill="none" xmlns="http://www.w3.org/2000/svg">
<g clip-path="url(#clip0)">
<path fill-rule="evenodd" clip-rule="evenodd" d="M65.4 17.5C65.4 22.8 61.1 27.1 55.8 27.1C55.7 27.1 55.7 27.1 55.6 27.1C55.6 27.5 55.5 27.9 55.3 28.4V28.5C56.2 28.3 57.2 28.3 58.1 28.6C60.8 29.5 62.2 32.4 61.3 35.1C60.4 37.8 57.5 39.2 54.8 38.3C54.6 38.2 54.4 38.2 54.2 38.1C53.7 39.1 52.9 40 51.8 40.6C51.7 40.7 51.5 40.7 51.4 40.8C52 41.4 52.4 42.2 52.4 43.1C52.4 44.9 51 46.3 49.2 46.3C47.7 46.3 46.4 45.3 46.1 43.9H46C44.2 43.9 42.8 42.5 42.8 40.7C42.8 39.4 43.6 38.2 44.8 37.7C44 35.5 44.8 33.1 46.8 31.8C44.3 30.4 43 27.4 43.9 24.6C44.4 23 45.6 21.8 46.9 21.1C46.5 20 46.2 18.8 46.2 17.6C46.2 12.3 50.5 8 55.8 8C61.1 7.9 65.4 12.2 65.4 17.5Z" fill="#E1E1EF"/>
<path fill-rule="evenodd" clip-rule="evenodd" d="M48.2 11.5C48.2 17.9 43 23 36.7 23C36.6 23 36.5 23 36.4 23C36.3 23.5 36.2 24 36.1 24.5L36 24.7C37.1 24.4 38.2 24.5 39.4 24.8C42.6 25.9 44.4 29.4 43.3 32.6C42.2 35.8 38.7 37.6 35.5 36.5C35.3 36.4 35 36.3 34.8 36.2C34.2 37.5 33.3 38.5 31.9 39.2C31.7 39.3 31.5 39.4 31.4 39.4C32.2 40.1 32.6 41.1 32.6 42.2C32.6 44.3 30.9 46.1 28.7 46.1C26.9 46.1 25.3 44.9 24.9 43.2H24.8C22.6 43.2 20.9 41.5 20.9 39.3C20.9 37.7 21.9 36.3 23.3 35.7C22.4 33.1 23.3 30.1 25.7 28.5C22.7 26.9 21.1 23.2 22.3 19.8C22.9 17.9 24.3 16.4 26 15.6C25.5 14.3 25.2 12.9 25.2 11.4C25.1 5.2 30.3 0 36.6 0C43 0 48.2 5.2 48.2 11.5Z" fill="#E1E1EF"/>
<path d="M109.1 63V47.2C109.1 45.3 109.9 43.5 111.1 42.3C112.4 41 114.1 40.3 116 40.3H118.6C120.5 40.3 122.3 41.1 123.5 42.3C124.8 43.6 125.5 45.3 125.5 47.2V174H124.1V47.2C124.1 45.7 123.5 44.2 122.5 43.2C121.5 42.2 120.1 41.6 118.5 41.6H115.9C114.4 41.6 112.9 42.2 111.9 43.2C110.9 44.2 110.3 45.6 110.3 47.2V63H109.1Z" fill="#A6A5D1"/>
<path d="M80.6 63V47.2C80.6 45.3 81.4 43.5 82.6 42.3C83.9 41 85.6 40.3 87.5 40.3H90.1C92 40.3 93.8 41.1 95 42.3C96.3 43.6 97 45.3 97 47.2V174H95.8V47.2C95.8 45.7 95.2 44.2 94.2 43.2C93.2 42.2 91.8 41.6 90.2 41.6H87.6C86.1 41.6 84.6 42.2 83.6 43.2C82.6 44.2 82 45.6 82 47.2V63H80.6Z" fill="#A6A5D1"/>
<path d="M84.7 46H77.9V48.4H84.7V46Z" fill="#5E519C"/>
<path d="M113.1 46H106.3V48.4H113.1V46Z" fill="#5E519C"/>
<path fill-rule="evenodd" clip-rule="evenodd" d="M76.6 132V123.3H70.6V132H69.8V123.3V122.4V117V116.1V110.7V109.8V104.4V103.5V98V97.1V91.7V90.8V85.4V84.5V79.1V78.2V72.8V71.9V66.3V65.4H70.6H76.6H77.4V66.3V71.9V72.8V78.2V79.1V84.5V85.4V90.8V91.7V97.1V98V103.4V104.3V109.7V110.6V116V116.9V122.3V123.2V131.9L76.6 132ZM76.6 66.3H70.6V71.9H76.6V66.3ZM76.6 72.8H70.6V78.2H76.6V72.8ZM76.6 79.1H70.6V84.5H76.6V79.1ZM76.6 85.4H70.6V90.8H76.6V85.4ZM76.6 91.7H70.6V97.1H76.6V91.7ZM76.6 98H70.6V103.4H76.6V98ZM76.6 104.3H70.6V109.7H76.6V104.3ZM76.6 110.7H70.6V116.1H76.6V110.7ZM76.6 117H70.6V122.4H76.6V117Z" fill="#A6A5D1"/>
<path fill-rule="evenodd" clip-rule="evenodd" d="M83.2 58.5H74.4C73.9 58.5 73.4 58.1 73.4 57.5V54.1H83.2V58.5Z" fill="#A6A5D1"/>
<path fill-rule="evenodd" clip-rule="evenodd" d="M84.7 54.8H72C71.6 54.8 71.3 54.5 71.3 54.1V54C71.3 53.6 71.6 53.3 72 53.3H84.7C85.1 53.3 85.4 53.6 85.4 54V54.1C85.3 54.5 85 54.8 84.7 54.8Z" fill="#5E519C"/>
<path fill-rule="evenodd" clip-rule="evenodd" d="M90.7 60.9H73.2C72.3 60.9 71.6 60.2 71.6 59.3V59C71.6 58.1 72.3 57.5 73.2 57.5H90.7C91.6 57.5 92.3 58.2 92.3 59V59.3C92.2 60.2 91.5 60.9 90.7 60.9Z" fill="#5E519C"/>
<path d="M90.9 58.8H72.9V59.9H90.9V58.8Z" fill="#A6A5D1"/>
<path fill-rule="evenodd" clip-rule="evenodd" d="M86.1 57.5H84.6V51.7C84.6 51.3 84.9 51 85.3 51H85.4C85.8 51 86.1 51.3 86.1 51.7V57.5Z" fill="#A6A5D1"/>
<path fill-rule="evenodd" clip-rule="evenodd" d="M105.1 132V123.3H99.1V132H98.3V123.3V122.4V117V116.1V110.7V109.8V104.4V103.5V98V97.1V91.7V90.8V85.4V84.5V79.1V78.2V72.8V71.9V66.3V65.4H99.1H105.1H105.9V66.3V71.9V72.8V78.2V79.1V84.5V85.4V90.8V91.7V97.1V98V103.4V104.3V109.7V110.6V116V116.9V122.3V123.2V131.9L105.1 132ZM105.1 66.3H99.1V71.9H105.1V66.3ZM105.1 72.8H99.1V78.2H105.1V72.8ZM105.1 79.1H99.1V84.5H105.1V79.1ZM105.1 85.4H99.1V90.8H105.1V85.4ZM105.1 91.7H99.1V97.1H105.1V91.7ZM105.1 98H99.1V103.4H105.1V98ZM105.1 104.3H99.1V109.7H105.1V104.3ZM105.1 110.7H99.1V116.1H105.1V110.7ZM105.1 117H99.1V122.4H105.1V117Z" fill="#A6A5D1"/>
<path fill-rule="evenodd" clip-rule="evenodd" d="M111.7 58.5H102.9C102.4 58.5 101.9 58.1 101.9 57.5V54.1H111.7V58.5Z" fill="#A6A5D1"/>
<path fill-rule="evenodd" clip-rule="evenodd" d="M113.2 54.8H100.5C100.1 54.8 99.8 54.5 99.8 54.1V54C99.8 53.6 100.1 53.3 100.5 53.3H113.2C113.6 53.3 113.9 53.6 113.9 54V54.1C113.8 54.5 113.5 54.8 113.2 54.8Z" fill="#5E519C"/>
<path fill-rule="evenodd" clip-rule="evenodd" d="M119.2 60.9H101.7C100.8 60.9 100.1 60.2 100.1 59.3V59C100.1 58.1 100.8 57.5 101.7 57.5H119.2C120.1 57.5 120.8 58.2 120.8 59V59.3C120.7 60.2 120 60.9 119.2 60.9Z" fill="#5E519C"/>
<path d="M119.4 58.8H101.4V59.9H119.4V58.8Z" fill="#A6A5D1"/>
<path fill-rule="evenodd" clip-rule="evenodd" d="M114.6 57.5H113.1V51.7C113.1 51.3 113.4 51 113.8 51H113.9C114.3 51 114.6 51.3 114.6 51.7V57.5Z" fill="#A6A5D1"/>
<path d="M64 179.7H62.5V120.2C62.5 117.4 60.3 115.2 57.5 115.2H48.8V113.7H57.5C61.1 113.7 64 116.6 64 120.2V179.7Z" fill="#5E519C"/>
<path d="M150.4 159.6H148.9V78.3C148.9 75.5 146.7 73.3 143.9 73.3H99.1V71.8H143.9C147.5 71.8 150.4 74.7 150.4 78.3V159.6V159.6Z" fill="#A6A5D1"/>
<path d="M140.7 159.6H139.2V78.3C139.2 75.5 137 73.3 134.2 73.3H89.4V71.8H134.2C137.8 71.8 140.7 74.7 140.7 78.3V159.6Z" fill="#5E519C"/>
<path d="M70.5 179.7H69V120.2C69 117.4 66.8 115.2 64 115.2H55.3V113.7H64C67.6 113.7 70.5 116.6 70.5 120.2V179.7Z" fill="#5E519C"/>
<path d="M78.1 179.7H76.6V120.2C76.6 117.4 74.4 115.2 71.6 115.2H62.9V113.7H71.6C75.2 113.7 78.1 116.6 78.1 120.2V179.7Z" fill="#5E519C"/>
<path d="M92.3 110.2L85.4 103.2H82.5V102.5H85.7L92.8 109.7L92.3 110.2Z" fill="#5E519C"/>
<path d="M85.8 103.1L85.3 102.6L92.4 95.5H95.6V96.2H92.7L85.8 103.1Z" fill="#5E519C"/>
<path d="M92.3 96.1L85.4 89.1H82.5V88.4H85.7L92.8 95.6L92.3 96.1Z" fill="#5E519C"/>
<path d="M95.9 117.6H95.2V110.3H92.7L85.7 117.4H82.2V85.6H96L95.9 117.6ZM82.9 116.6H85.4L92.4 109.5H95.2V86.3H82.9V116.6Z" fill="#5E519C"/>
<path d="M95.4 110.2L88.5 103.2H85.6V102.5H88.8L95.9 109.7L95.4 110.2Z" fill="#A6A5D1"/>
<path d="M88.9 103.1L88.4 102.6L95.5 95.5H98.7V96.2H95.8L88.9 103.1Z" fill="#A6A5D1"/>
<path d="M95.4 96.1L88.5 89.1H85.6V88.4H88.8L95.9 95.6L95.4 96.1Z" fill="#A6A5D1"/>
<path d="M99 117.6H98.3V110.3H95.8L88.8 117.4H85.3V85.6H99.1V117.6H99ZM85.9 116.6H88.4L95.4 109.5H98.2V86.3H85.9V116.6Z" fill="#A6A5D1"/>
<path d="M92.3 141.2L85.4 134.2H82.5V133.5H85.7L92.8 140.7L92.3 141.2Z" fill="#5E519C"/>
<path d="M85.8 134.1L85.3 133.6L92.4 126.5H95.6V127.2H92.7L85.8 134.1Z" fill="#5E519C"/>
<path d="M92.3 127.1L85.4 120.1H82.5V119.4H85.7L92.8 126.6L92.3 127.1Z" fill="#5E519C"/>
<path d="M95.9 148.6H95.2V141.3H92.7L85.7 148.4H82.2V116.7H96L95.9 148.6ZM82.9 147.6H85.4L92.4 140.5H95.2V117.2H82.9V147.6Z" fill="#5E519C"/>
<path d="M95.4 141.2L88.5 134.2H85.6V133.5H88.8L95.9 140.7L95.4 141.2Z" fill="#A6A5D1"/>
<path d="M88.9 134.1L88.4 133.6L95.5 126.5H98.7V127.2H95.8L88.9 134.1Z" fill="#A6A5D1"/>
<path d="M95.4 127.1L88.5 120.1H85.6V119.4H88.8L95.9 126.6L95.4 127.1Z" fill="#A6A5D1"/>
<path d="M99 148.6H98.3V141.3H95.8L88.8 148.4H85.3V116.7H99.1V148.6H99V148.6ZM85.9 147.6H88.4L95.4 140.5H98.2V117.2H85.9V147.6Z" fill="#A6A5D1"/>
<path d="M92.3 172.2L85.4 165.3H82.5V164.5H85.7L92.8 171.7L92.3 172.2Z" fill="#5E519C"/>
<path d="M85.8 165.1L85.3 164.6L92.4 157.5H95.6V158.2H92.7L85.8 165.1Z" fill="#5E519C"/>
<path d="M92.3 158.1L85.4 151.1H82.5V150.4H85.7L92.8 157.6L92.3 158.1Z" fill="#5E519C"/>
<path d="M95.9 179.7H95.2V172.4H92.7L85.7 179.5H82.2V147.8H96L95.9 179.7ZM82.9 178.6H85.4L92.4 171.5H95.2V148.2H82.9V178.6Z" fill="#5E519C"/>
<path d="M95.4 172.2L88.5 165.3H85.6V164.5H88.8L95.9 171.7L95.4 172.2Z" fill="#A6A5D1"/>
<path d="M88.9 165.1L88.4 164.6L95.5 157.5H98.7V158.2H95.8L88.9 165.1Z" fill="#A6A5D1"/>
<path d="M95.4 158.1L88.5 151.1H85.6V150.4H88.8L95.9 157.6L95.4 158.1Z" fill="#A6A5D1"/>
<path d="M99 179.7H98.3V172.4H95.8L88.8 179.5H85.3V147.8H99.1V179.7H99ZM85.9 178.6H88.4L95.4 171.5H98.2V148.2H85.9V178.6Z" fill="#A6A5D1"/>
<path d="M108.5 110.2L101.5 103.2H98.7V102.5H101.8L109 109.7L108.5 110.2Z" fill="#5E519C"/>
<path d="M101.9 103.1L101.4 102.6L108.6 95.5H111.7V96.2H108.9L101.9 103.1Z" fill="#5E519C"/>
<path d="M108.5 96.1L101.5 89.1H98.7V88.4H101.8L109 95.6L108.5 96.1Z" fill="#5E519C"/>
<path d="M112.1 117.6H111.4V110.3H108.9L101.9 117.4H98.4V85.6H112.2V117.6H112.1ZM99 116.6H101.5L108.5 109.5H111.3V86.3H98.9L99 116.6Z" fill="#5E519C"/>
<path d="M111.6 110.2L104.6 103.2H101.8V102.5H104.9L112.1 109.7L111.6 110.2Z" fill="#A6A5D1"/>
<path d="M105 103.1L104.5 102.6L111.7 95.5H114.8V96.2H112L105 103.1Z" fill="#A6A5D1"/>
<path d="M111.6 96.1L104.6 89.1H101.8V88.4H104.9L112.1 95.6L111.6 96.1Z" fill="#A6A5D1"/>
<path d="M115.2 117.6H114.5V110.3H112L105 117.4H101.5V85.6H115.3V117.6H115.2ZM102.1 116.6H104.6L111.6 109.5H114.4V86.3H102L102.1 116.6Z" fill="#A6A5D1"/>
<path d="M108.5 141.2L101.5 134.2H98.7V133.5H101.8L109 140.7L108.5 141.2Z" fill="#5E519C"/>
<path d="M101.9 134.1L101.4 133.6L108.6 126.5H111.7V127.2H108.9L101.9 134.1Z" fill="#5E519C"/>
<path d="M108.5 127.1L101.5 120.1H98.7V119.4H101.8L109 126.6L108.5 127.1Z" fill="#5E519C"/>
<path d="M112.1 148.6H111.4V141.3H108.9L101.9 148.4H98.4V116.7H112.2V148.6H112.1V148.6ZM99 147.6H101.5L108.5 140.5H111.3V117.2H98.9L99 147.6Z" fill="#5E519C"/>
<path d="M111.6 141.2L104.6 134.2H101.8V133.5H104.9L112.1 140.7L111.6 141.2Z" fill="#A6A5D1"/>
<path d="M105 134.1L104.5 133.6L111.7 126.5H114.8V127.2H112L105 134.1Z" fill="#A6A5D1"/>
<path d="M111.6 127.1L104.6 120.1H101.8V119.4H104.9L112.1 126.6L111.6 127.1Z" fill="#A6A5D1"/>
<path d="M115.2 148.6H114.5V141.3H112L105 148.4H101.5V116.7H115.3V148.6H115.2V148.6ZM102.1 147.6H104.6L111.6 140.5H114.4V117.2H102L102.1 147.6Z" fill="#A6A5D1"/>
<path d="M108.5 172.2L101.5 165.3H98.7V164.5H101.8L109 171.7L108.5 172.2Z" fill="#5E519C"/>
<path d="M101.9 165.1L101.4 164.6L108.6 157.5H111.7V158.2H108.9L101.9 165.1Z" fill="#5E519C"/>
<path d="M108.5 158.1L101.5 151.1H98.7V150.4H101.8L109 157.6L108.5 158.1Z" fill="#5E519C"/>
<path d="M112.1 179.7H111.4V172.4H108.9L101.9 179.5H98.4V147.8H112.2V179.7H112.1ZM99 178.6H101.5L108.5 171.5H111.3V148.2H98.9L99 178.6Z" fill="#5E519C"/>
<path d="M111.6 172.2L104.6 165.3H101.8V164.5H104.9L112.1 171.7L111.6 172.2Z" fill="#A6A5D1"/>
<path d="M105 165.1L104.5 164.6L111.7 157.5H114.8V158.2H112L105 165.1Z" fill="#A6A5D1"/>
<path d="M111.6 158.1L104.6 151.1H101.8V150.4H104.9L112.1 157.6L111.6 158.1Z" fill="#A6A5D1"/>
<path d="M115.2 179.7H114.5V172.4H112L105 179.5H101.5V147.8H115.3V179.7H115.2ZM102.1 178.6H104.6L111.6 171.5H114.4V148.2H102L102.1 178.6Z" fill="#A6A5D1"/>
<path d="M124.6 110.2L117.7 103.2H114.8V102.5H118L125.1 109.7L124.6 110.2Z" fill="#5E519C"/>
<path d="M118.1 103.1L117.6 102.6L124.7 95.5H127.9V96.2H125L118.1 103.1Z" fill="#5E519C"/>
<path d="M124.6 96.1L117.7 89.1H114.8V88.4H118L125.1 95.6L124.6 96.1Z" fill="#5E519C"/>
<path d="M128.3 117.6H127.6V110.3H125.1L118.1 117.4H114.6V85.6H128.4V117.6H128.3ZM115.2 116.6H117.7L124.7 109.5H127.5V86.3H115.1L115.2 116.6C115.2 116.6 115.1 116.6 115.2 116.6Z" fill="#5E519C"/>
<path d="M127.7 110.2L120.8 103.2H117.9V102.5H121.1L128.2 109.7L127.7 110.2Z" fill="#A6A5D1"/>
<path d="M121.2 103.1L120.7 102.6L127.8 95.5H131V96.2H128.1L121.2 103.1Z" fill="#A6A5D1"/>
<path d="M127.7 96.1L120.8 89.1H117.9V88.4H121.1L128.2 95.6L127.7 96.1Z" fill="#A6A5D1"/>
<path d="M131.3 117.6H130.6V110.3H128.1L121.1 117.4H117.6V85.6H131.4V117.6H131.3ZM118.3 116.6H120.8L127.8 109.5H130.6V86.3H118.2L118.3 116.6Z" fill="#A6A5D1"/>
<path d="M124.6 141.2L117.7 134.2H114.8V133.5H118L125.1 140.7L124.6 141.2Z" fill="#5E519C"/>
<path d="M118.1 134.1L117.6 133.6L124.7 126.5H127.9V127.2H125L118.1 134.1Z" fill="#5E519C"/>
<path d="M124.6 127.1L117.7 120.1H114.8V119.4H118L125.1 126.6L124.6 127.1Z" fill="#5E519C"/>
<path d="M128.3 148.6H127.6V141.3H125.1L118.1 148.4H114.6V116.7H128.4V148.6H128.3V148.6ZM115.2 147.6H117.7L124.7 140.5H127.5V117.2H115.1L115.2 147.6Z" fill="#5E519C"/>
<path d="M127.7 141.2L120.8 134.2H117.9V133.5H121.1L128.2 140.7L127.7 141.2Z" fill="#A6A5D1"/>
<path d="M121.2 134.1L120.7 133.6L127.8 126.5H131V127.2H128.1L121.2 134.1Z" fill="#A6A5D1"/>
<path d="M127.7 127.1L120.8 120.1H117.9V119.4H121.1L128.2 126.6L127.7 127.1Z" fill="#A6A5D1"/>
<path d="M131.3 148.6H130.6V141.3H128.1L121.1 148.4H117.6V116.7H131.4V148.6H131.3V148.6ZM118.3 147.6H120.8L127.8 140.5H130.6V117.2H118.2L118.3 147.6Z" fill="#A6A5D1"/>
<path d="M124.6 172.2L117.7 165.3H114.8V164.5H118L125.1 171.7L124.6 172.2Z" fill="#5E519C"/>
<path d="M118.1 165.1L117.6 164.6L124.7 157.5H127.9V158.2H125L118.1 165.1Z" fill="#5E519C"/>
<path d="M124.6 158.1L117.7 151.1H114.8V150.4H118L125.1 157.6L124.6 158.1Z" fill="#5E519C"/>
<path d="M128.3 179.7H127.6V172.4H125.1L118.1 179.5H114.6V147.8H128.4V179.7H128.3ZM115.2 178.6H117.7L124.7 171.5H127.5V148.2H115.1L115.2 178.6Z" fill="#5E519C"/>
<path d="M127.7 172.2L120.8 165.3H117.9V164.5H121.1L128.2 171.7L127.7 172.2Z" fill="#A6A5D1"/>
<path d="M121.2 165.1L120.7 164.6L127.8 157.5H131V158.2H128.1L121.2 165.1Z" fill="#A6A5D1"/>
<path d="M127.7 158.1L120.8 151.1H117.9V150.4H121.1L128.2 157.6L127.7 158.1Z" fill="#A6A5D1"/>
<path d="M131.3 179.7H130.6V172.4H128.1L121.1 179.5H117.6V147.8H131.4V179.7H131.3ZM118.3 178.6H120.8L127.8 171.5H130.6V148.2H118.2L118.3 178.6Z" fill="#A6A5D1"/>
<path d="M30.8 48.4H24V166.6H30.8V48.4Z" fill="#A6A5D1"/>
<path d="M30.8 97.3H24V99.7H30.8V97.3Z" fill="#382E86"/>
<path d="M30.8 63.6H24V66H30.8V63.6Z" fill="#382E86"/>
<path d="M30.8 46H24V48.4H30.8V46Z" fill="#382E86"/>
<path d="M33.7 61.2H21.1V63.6H33.7V61.2Z" fill="#5E519C"/>
<path d="M52.6 48.4H45.8V166.6H52.6V48.4Z" fill="#A6A5D1"/>
<path d="M52.6 97.3H45.8V99.7H52.6V97.3Z" fill="#382E86"/>
<path d="M52.6 63.6H45.8V66H52.6V63.6Z" fill="#382E86"/>
<path d="M52.6 46H45.8V48.4H52.6V46Z" fill="#382E86"/>
<path d="M55.6 95.5C55.6 95.7 55.4 95.9 55.2 95.9C55 95.9 54.8 95.7 54.8 95.5V92.4H52.7V95.5C52.7 95.7 52.5 95.9 52.3 95.9C52.1 95.9 51.9 95.7 51.9 95.5V92.4H49.8V95.5C49.8 95.7 49.6 95.9 49.4 95.9C49.2 95.9 48.8 95.7 48.8 95.5V92.4H46.7V95.5C46.7 95.7 46.5 95.9 46.3 95.9C46.1 95.9 45.9 95.7 45.9 95.5V92.4H43.8V95.5C43.8 95.7 43.6 95.9 43.4 95.9C43.2 95.9 43 95.7 43 95.5V92V91.6H43.4H46.3H49.2H52.1H55H55.4V92V95.5H55.6Z" fill="#382E86"/>
<path d="M33.7 95.5C33.7 95.7 33.5 95.9 33.3 95.9C33.1 95.9 32.9 95.7 32.9 95.5V92.4H30.8V95.5C30.8 95.7 30.6 95.9 30.4 95.9C30.2 95.9 30 95.7 30 95.5V92.4H27.8V95.5C27.8 95.7 27.6 95.9 27.4 95.9C27.2 95.9 27 95.7 27 95.5V92.4H24.8V95.5C24.8 95.7 24.6 95.9 24.4 95.9C24.2 95.9 24 95.7 24 95.5V92.4H21.9V95.5C21.9 95.7 21.7 95.9 21.5 95.9C21.3 95.9 21.1 95.7 21.1 95.5V92V91.6H21.5H24.4H27.3H30.2H33.1H33.5V92V95.5H33.7Z" fill="#382E86"/>
<path d="M30.3 57.3H33.3H33.7V57.7V61.2C33.7 61.4 33.5 61.6 33.3 61.6C33.1 61.6 32.9 61.4 32.9 61.2V58.1H30.8V61.2C30.8 61.4 30.6 61.6 30.4 61.6C30.2 61.6 30 61.4 30 61.2V58.1H27.8V61.2C27.8 61.4 27.6 61.6 27.4 61.6C27.2 61.6 27 61.4 27 61.2V58.1H24.8V61.2C24.8 61.4 24.6 61.6 24.4 61.6C24.2 61.6 24 61.4 24 61.2V58.1H21.9V61.2C21.9 61.4 21.7 61.6 21.5 61.6C21.3 61.6 21.1 61.4 21.1 61.2V57.7V57.3H21.5H24.4H27.3H30.3V57.3Z" fill="#382E86"/>
<path d="M52.2 57.3H55.2H55.6V57.7V61.2C55.6 61.4 55.4 61.6 55.2 61.6C55 61.6 54.8 61.4 54.8 61.2V58.1H52.7V61.2C52.7 61.4 52.5 61.6 52.3 61.6C52.1 61.6 51.9 61.4 51.9 61.2V58.1H49.8V61.2C49.8 61.4 49.6 61.6 49.4 61.6C49.2 61.6 48.8 61.4 48.8 61.2V58.1H46.7V61.2C46.7 61.4 46.5 61.6 46.3 61.6C46.1 61.6 45.9 61.4 45.9 61.2V58.1H43.8V61.2C43.8 61.4 43.6 61.6 43.4 61.6C43.2 61.6 43 61.4 43 61.2V57.7V57.3H43.4H46.3H49.2H52.2V57.3Z" fill="#382E86"/>
<path d="M55.5 94.9H42.9V97.3H55.5V94.9Z" fill="#5E519C"/>
<path d="M55.5 61.2H42.9V63.6H55.5V61.2Z" fill="#5E519C"/>
<path d="M90.9 69.2H88.5V76H90.9V69.2Z" fill="#382E86"/>
<path d="M144.8 147.4H135.2V179.6H144.8V147.4Z" fill="#5E519C"/>
<path d="M144.8 147.4H135.2V179.6H144.8V147.4Z" fill="#5E519C"/>
<path fill-rule="evenodd" clip-rule="evenodd" d="M144.7 179.7H154.3V147.4H149.6H144.7V179.7Z" fill="#D7D5E8"/>
<path fill-rule="evenodd" clip-rule="evenodd" d="M39.1 176.9H16.1V153.6L35.9 147.4H61.8L39.1 176.9Z" fill="#A6A5D1"/>
<path d="M39 153.5H16.1V179.6H39V153.5Z" fill="#5E519C"/>
<path fill-rule="evenodd" clip-rule="evenodd" d="M61.8 147.4L39.1 153.6V179.7H61.8V147.4Z" fill="#D7D5E8"/>
<path d="M48.6 171.6H46.2V174H48.6V171.6Z" fill="#5E519C"/>
<path d="M52.1 171.6H49.7V174H52.1V171.6Z" fill="#5E519C"/>
<path d="M55.6 171.6H53.2V174H55.6V171.6Z" fill="#5E519C"/>
<path d="M33.7 94.9H21.1V97.3H33.7V94.9Z" fill="#5E519C"/>
<path d="M8.7 12.8H0V33.1H8.7V12.8Z" fill="#E1171D"/>
<path fill-rule="evenodd" clip-rule="evenodd" d="M88.8 54.6C88.8 50.8 85.7 47.7 81.9 47.7H80.6C76.8 47.7 73.7 50.8 73.7 54.6V179.6H88.8C88.8 179.6 88.8 54.6 88.8 54.6Z" fill="#382E86"/>
<path fill-rule="evenodd" clip-rule="evenodd" d="M117.2 54.6C117.2 50.8 114.1 47.7 110.3 47.7H109C105.2 47.7 102.1 50.8 102.1 54.6V179.6H117.2V54.6V54.6Z" fill="#382E86"/>
<path d="M22.7129 20H21.6055V14.498H18.7886V20H17.6812V13.6016H22.7129V20ZM25.1694 17.6226V20H24.0576V13.6016H26.5054C27.2202 13.6016 27.7871 13.7876 28.2061 14.1597C28.6279 14.5317 28.8389 15.0239 28.8389 15.6362C28.8389 16.2632 28.6323 16.751 28.2192 17.0996C27.8091 17.4482 27.2334 17.6226 26.4922 17.6226H25.1694ZM25.1694 16.7305H26.5054C26.9009 16.7305 27.2026 16.6382 27.4106 16.4536C27.6187 16.2661 27.7227 15.9966 27.7227 15.645C27.7227 15.2993 27.6172 15.0239 27.4062 14.8188C27.1953 14.6108 26.9053 14.5039 26.5361 14.498H25.1694V16.7305ZM34.9209 16.9678C34.9209 17.5947 34.8125 18.1455 34.5957 18.6201C34.3789 19.0918 34.0684 19.4551 33.6641 19.71C33.2627 19.9619 32.7998 20.0879 32.2754 20.0879C31.7568 20.0879 31.2939 19.9619 30.8867 19.71C30.4824 19.4551 30.1689 19.0933 29.9463 18.6245C29.7266 18.1558 29.6152 17.6152 29.6123 17.0029V16.6426C29.6123 16.0186 29.7222 15.4678 29.9419 14.9902C30.1646 14.5127 30.4766 14.1479 30.8779 13.896C31.2822 13.6411 31.7451 13.5137 32.2666 13.5137C32.7881 13.5137 33.2495 13.6396 33.6509 13.8916C34.0552 14.1406 34.3672 14.501 34.5869 14.9727C34.8066 15.4414 34.918 15.9878 34.9209 16.6118V16.9678ZM33.8091 16.6338C33.8091 15.9248 33.6743 15.3813 33.4048 15.0034C33.1382 14.6255 32.7588 14.4365 32.2666 14.4365C31.7861 14.4365 31.4097 14.6255 31.1372 15.0034C30.8677 15.3784 30.73 15.9102 30.7241 16.5986V16.9678C30.7241 17.6709 30.8604 18.2144 31.1328 18.5981C31.4082 18.9819 31.7891 19.1738 32.2754 19.1738C32.7676 19.1738 33.1455 18.9863 33.4092 18.6113C33.6758 18.2363 33.8091 17.6885 33.8091 16.9678V16.6338ZM41.0908 20H39.9834V14.498H37.1665V20H36.0591V13.6016H41.0908V20ZM46.0171 18.5103H43.5386L43.02 20H41.8643L44.2812 13.6016H45.2788L47.7002 20H46.54L46.0171 18.5103ZM43.8506 17.6138H45.7051L44.7778 14.9595L43.8506 17.6138ZM53.5098 20H52.4023V17.1567H49.5415V20H48.4297V13.6016H49.5415V16.2646H52.4023V13.6016H53.5098V20ZM60.8091 21.5732H59.7544V20H55.54V21.5732H54.4678L54.4326 19.1123H54.9468C55.2017 18.8662 55.4053 18.5088 55.5576 18.04C55.71 17.5684 55.8081 17.0352 55.8521 16.4404L56.019 13.6016H60.0532V19.1123H60.8662L60.8091 21.5732ZM56.2036 19.1123H58.9458V14.498H57.0781L56.9727 16.2998C56.8936 17.5039 56.6372 18.4414 56.2036 19.1123ZM62.8438 16.0493H64.1533C64.6221 16.0493 65.0308 16.1299 65.3794 16.291C65.728 16.4521 65.9932 16.6807 66.1748 16.9766C66.3564 17.2725 66.4473 17.6152 66.4473 18.0049C66.4473 18.6025 66.2437 19.083 65.8364 19.4463C65.4321 19.8096 64.8799 19.9941 64.1797 20H61.7319V13.6016H62.8438V16.0493ZM68.1875 20H67.0801V13.6016H68.1875V20ZM62.8438 16.9414V19.1123H64.1489C64.5239 19.1123 64.8154 19.0112 65.0234 18.8091C65.2344 18.604 65.3398 18.333 65.3398 17.9961C65.3398 17.6738 65.2373 17.4189 65.0322 17.2314C64.8271 17.0439 64.543 16.9473 64.1797 16.9414H62.8438ZM77.6753 21.5732H76.6206V20H72.4062V21.5732H71.334L71.2988 19.1123H71.813C72.0679 18.8662 72.2715 18.5088 72.4238 18.04C72.5762 17.5684 72.6743 17.0352 72.7183 16.4404L72.8853 13.6016H76.9194V19.1123H77.7324L77.6753 21.5732ZM73.0698 19.1123H75.812V14.498H73.9443L73.8389 16.2998C73.7598 17.5039 73.5034 18.4414 73.0698 19.1123ZM82.3071 17.1436H79.6792V19.1123H82.751V20H78.5674V13.6016H82.7202V14.498H79.6792V16.2646H82.3071V17.1436ZM87.7476 14.498H84.7944V20H83.687V13.6016H87.7476V14.498ZM92.5947 13.6016H93.7065V20H92.5947V15.4429L89.7866 20H88.6748V13.6016H89.7866V18.1631L92.5947 13.6016ZM101.019 21.5732H99.9644V20H95.75V21.5732H94.6777L94.6426 19.1123H95.1567C95.4116 18.8662 95.6152 18.5088 95.7676 18.04C95.9199 17.5684 96.0181 17.0352 96.062 16.4404L96.229 13.6016H100.263V19.1123H101.076L101.019 21.5732ZM96.4136 19.1123H99.1558V14.498H97.2881L97.1826 16.2998C97.1035 17.5039 96.8472 18.4414 96.4136 19.1123ZM103.023 17.6226V20H101.911V13.6016H104.359C105.074 13.6016 105.641 13.7876 106.06 14.1597C106.481 14.5317 106.692 15.0239 106.692 15.6362C106.692 16.2632 106.486 16.751 106.073 17.0996C105.663 17.4482 105.087 17.6226 104.346 17.6226H103.023ZM103.023 16.7305H104.359C104.754 16.7305 105.056 16.6382 105.264 16.4536C105.472 16.2661 105.576 15.9966 105.576 15.645C105.576 15.2993 105.471 15.0239 105.26 14.8188C105.049 14.6108 104.759 14.5039 104.39 14.498H103.023V16.7305ZM112.058 13.6016V20H110.951V14.498H108.991L108.876 16.9722C108.833 17.7456 108.737 18.3462 108.591 18.7739C108.447 19.1987 108.238 19.5093 107.962 19.7056C107.687 19.9019 107.318 20 106.855 20H106.574V19.1123L106.75 19.0991C107.004 19.0757 107.201 18.9863 107.338 18.8311C107.479 18.6758 107.584 18.4414 107.655 18.1279C107.728 17.8115 107.779 17.3472 107.809 16.7349L107.932 13.6016H112.058ZM117.138 17.1436H114.51V19.1123H117.582V20H113.398V13.6016H117.551V14.498H114.51V16.2646H117.138V17.1436ZM120.79 16.9458L122.073 13.6016H123.308L121.08 18.9102L120.878 19.3101C120.585 19.8315 120.11 20.0923 119.454 20.0923L118.997 20.0659L119.006 19.187C119.076 19.1987 119.201 19.2046 119.379 19.2046C119.696 19.2046 119.918 19.0698 120.047 18.8003L120.276 18.2598L118.087 13.6016H119.3L120.79 16.9458ZM19.5444 28.2578H18.7886V31H17.6812V24.6016H18.7886V27.291H19.3994L21.2803 24.6016H22.6426L20.4453 27.6646L22.8359 31H21.5L19.5444 28.2578ZM23.1831 32.5732H22.1152V30.2046H23.1831V32.5732ZM29.1377 27.9678C29.1377 28.5947 29.0293 29.1455 28.8125 29.6201C28.5957 30.0918 28.2852 30.4551 27.8809 30.71C27.4795 30.9619 27.0166 31.0879 26.4922 31.0879C25.9736 31.0879 25.5107 30.9619 25.1035 30.71C24.6992 30.4551 24.3857 30.0933 24.1631 29.6245C23.9434 29.1558 23.832 28.6152 23.8291 28.0029V27.6426C23.8291 27.0186 23.939 26.4678 24.1587 25.9902C24.3813 25.5127 24.6934 25.1479 25.0947 24.896C25.499 24.6411 25.9619 24.5137 26.4834 24.5137C27.0049 24.5137 27.4663 24.6396 27.8677 24.8916C28.272 25.1406 28.584 25.501 28.8037 25.9727C29.0234 26.4414 29.1348 26.9878 29.1377 27.6118V27.9678ZM28.0259 27.6338C28.0259 26.9248 27.8911 26.3813 27.6216 26.0034C27.355 25.6255 26.9756 25.4365 26.4834 25.4365C26.0029 25.4365 25.6265 25.6255 25.354 26.0034C25.0845 26.3784 24.9468 26.9102 24.9409 27.5986V27.9678C24.9409 28.6709 25.0771 29.2144 25.3496 29.5981C25.625 29.9819 26.0059 30.1738 26.4922 30.1738C26.9844 30.1738 27.3623 29.9863 27.626 29.6113C27.8926 29.2363 28.0259 28.6885 28.0259 27.9678V27.6338ZM35.3252 31H34.2178V28.1567H31.3569V31H30.2451V24.6016H31.3569V27.2646H34.2178V24.6016H35.3252V31ZM42.6245 32.5732H41.5698V31H37.3555V32.5732H36.2832L36.248 30.1123H36.7622C37.0171 29.8662 37.2207 29.5088 37.373 29.04C37.5254 28.5684 37.6235 28.0352 37.6675 27.4404L37.8345 24.6016H41.8687V30.1123H42.6816L42.6245 32.5732ZM38.019 30.1123H40.7612V25.498H38.8936L38.7881 27.2998C38.709 28.5039 38.4526 29.4414 38.019 30.1123ZM44.6592 27.0493H45.9688C46.4375 27.0493 46.8462 27.1299 47.1948 27.291C47.5435 27.4521 47.8086 27.6807 47.9902 27.9766C48.1719 28.2725 48.2627 28.6152 48.2627 29.0049C48.2627 29.6025 48.0591 30.083 47.6519 30.4463C47.2476 30.8096 46.6953 30.9941 45.9951 31H43.5474V24.6016H44.6592V27.0493ZM50.0029 31H48.8955V24.6016H50.0029V31ZM44.6592 27.9414V30.1123H45.9644C46.3394 30.1123 46.6309 30.0112 46.8389 29.8091C47.0498 29.604 47.1553 29.333 47.1553 28.9961C47.1553 28.6738 47.0527 28.4189 46.8477 28.2314C46.6426 28.0439 46.3584 27.9473 45.9951 27.9414H44.6592ZM52.4771 28.6226V31H51.3652V24.6016H53.813C54.5278 24.6016 55.0947 24.7876 55.5137 25.1597C55.9355 25.5317 56.1465 26.0239 56.1465 26.6362C56.1465 27.2632 55.9399 27.751 55.5269 28.0996C55.1167 28.4482 54.541 28.6226 53.7998 28.6226H52.4771ZM52.4771 27.7305H53.813C54.2085 27.7305 54.5103 27.6382 54.7183 27.4536C54.9263 27.2661 55.0303 26.9966 55.0303 26.645C55.0303 26.2993 54.9248 26.0239 54.7139 25.8188C54.5029 25.6108 54.2129 25.5039 53.8438 25.498H52.4771V27.7305ZM59.3413 28.0513H58.2603V31H57.1528V28.0513H56.4014V27.3042H57.1528V24.6016H61.2134V25.498H58.2603V27.3042H59.3413V28.0513ZM63.2832 27.0493H64.5928C65.0615 27.0493 65.4702 27.1299 65.8188 27.291C66.1675 27.4521 66.4326 27.6807 66.6143 27.9766C66.7959 28.2725 66.8867 28.6152 66.8867 29.0049C66.8867 29.6025 66.6831 30.083 66.2759 30.4463C65.8716 30.8096 65.3193 30.9941 64.6191 31H62.1714V24.6016H63.2832V27.0493ZM68.627 31H67.5195V24.6016H68.627V31ZM63.2832 27.9414V30.1123H64.5884C64.9634 30.1123 65.2549 30.0112 65.4629 29.8091C65.6738 29.604 65.7793 29.333 65.7793 28.9961C65.7793 28.6738 65.6768 28.4189 65.4717 28.2314C65.2666 28.0439 64.9824 27.9473 64.6191 27.9414H63.2832ZM74.8716 28.917C74.8071 29.5996 74.5552 30.1328 74.1157 30.5166C73.6763 30.8975 73.0918 31.0879 72.3623 31.0879C71.8525 31.0879 71.4028 30.9678 71.0132 30.7275C70.6265 30.4844 70.3276 30.1401 70.1167 29.6948C69.9058 29.2495 69.7959 28.7324 69.7871 28.1436V27.5459C69.7871 26.9424 69.894 26.4106 70.1079 25.9507C70.3218 25.4907 70.6279 25.1362 71.0264 24.8872C71.4277 24.6382 71.8906 24.5137 72.415 24.5137C73.1211 24.5137 73.6895 24.7056 74.1201 25.0894C74.5508 25.4731 74.8013 26.0151 74.8716 26.7153H73.7642C73.7114 26.2554 73.5767 25.9243 73.3599 25.7222C73.146 25.5171 72.8311 25.4146 72.415 25.4146C71.9316 25.4146 71.5596 25.5918 71.2988 25.9463C71.041 26.2979 70.9092 26.8149 70.9033 27.4976V28.0645C70.9033 28.7559 71.0264 29.2832 71.2725 29.6465C71.5215 30.0098 71.8848 30.1914 72.3623 30.1914C72.7988 30.1914 73.127 30.0933 73.3467 29.897C73.5664 29.7007 73.7056 29.374 73.7642 28.917H74.8716ZM77.0117 27.0493H78.3213C78.79 27.0493 79.1987 27.1299 79.5474 27.291C79.896 27.4521 80.1611 27.6807 80.3428 27.9766C80.5244 28.2725 80.6152 28.6152 80.6152 29.0049C80.6152 29.6025 80.4116 30.083 80.0044 30.4463C79.6001 30.8096 79.0479 30.9941 78.3477 31H75.8999V24.6016H77.0117V27.0493ZM82.3555 31H81.248V24.6016H82.3555V31ZM77.0117 27.9414V30.1123H78.3169C78.6919 30.1123 78.9834 30.0112 79.1914 29.8091C79.4023 29.604 79.5078 29.333 79.5078 28.9961C79.5078 28.6738 79.4053 28.4189 79.2002 28.2314C78.9951 28.0439 78.7109 27.9473 78.3477 27.9414H77.0117Z" fill="#3D2777"/>
</g>
<defs>
<clipPath id="clip0">
<rect width="173.1" height="179.5" fill="white"/>
</clipPath>
</defs>
</svg>
