<svg width="174" height="180" viewBox="0 0 174 180" fill="none" xmlns="http://www.w3.org/2000/svg">
<g clip-path="url(#clip0)">
<path fill-rule="evenodd" clip-rule="evenodd" d="M65.4 17.5C65.4 22.8 61.1 27.1 55.8 27.1C55.7 27.1 55.7 27.1 55.6 27.1C55.6 27.5 55.5 27.9 55.3 28.4V28.5C56.2 28.3 57.2 28.3 58.1 28.6C60.8 29.5 62.2 32.4 61.3 35.1C60.4 37.8 57.5 39.2 54.8 38.3C54.6 38.2 54.4 38.2 54.2 38.1C53.7 39.1 52.9 40 51.8 40.6C51.7 40.7 51.5 40.7 51.4 40.8C52 41.4 52.4 42.2 52.4 43.1C52.4 44.9 51 46.3 49.2 46.3C47.7 46.3 46.4 45.3 46.1 43.9H46C44.2 43.9 42.8 42.5 42.8 40.7C42.8 39.4 43.6 38.2 44.8 37.7C44 35.5 44.8 33.1 46.8 31.8C44.3 30.4 43 27.4 43.9 24.6C44.4 23 45.6 21.8 46.9 21.1C46.5 20 46.2 18.8 46.2 17.6C46.2 12.3 50.5 8 55.8 8C61.1 7.9 65.4 12.2 65.4 17.5Z" fill="#E1E1EF"/>
<path fill-rule="evenodd" clip-rule="evenodd" d="M48.2 11.5C48.2 17.9 43 23 36.7 23C36.6 23 36.5 23 36.4 23C36.3 23.5 36.2 24 36.1 24.5L36 24.7C37.1 24.4 38.2 24.5 39.4 24.8C42.6 25.9 44.4 29.4 43.3 32.6C42.2 35.8 38.7 37.6 35.5 36.5C35.3 36.4 35 36.3 34.8 36.2C34.2 37.5 33.3 38.5 31.9 39.2C31.7 39.3 31.5 39.4 31.4 39.4C32.2 40.1 32.6 41.1 32.6 42.2C32.6 44.3 30.9 46.1 28.7 46.1C26.9 46.1 25.3 44.9 24.9 43.2H24.8C22.6 43.2 20.9 41.5 20.9 39.3C20.9 37.7 21.9 36.3 23.3 35.7C22.4 33.1 23.3 30.1 25.7 28.5C22.7 26.9 21.1 23.2 22.3 19.8C22.9 17.9 24.3 16.4 26 15.6C25.5 14.3 25.2 12.9 25.2 11.4C25.1 5.2 30.3 0 36.6 0C43 0 48.2 5.2 48.2 11.5Z" fill="#E1E1EF"/>
<path d="M109.1 63V47.2001C109.1 45.3001 109.9 43.5 111.1 42.3C112.4 41 114.1 40.3 116 40.3H118.6C120.5 40.3 122.3 41.1 123.5 42.3C124.8 43.6 125.5 45.3001 125.5 47.2001V174H124.1V47.2001C124.1 45.7001 123.5 44.2001 122.5 43.2001C121.5 42.2001 120.1 41.6 118.5 41.6H115.9C114.4 41.6 112.9 42.2001 111.9 43.2001C110.9 44.2001 110.3 45.6001 110.3 47.2001V63H109.1Z" fill="#A6A5D1"/>
<path d="M80.6 63V47.2001C80.6 45.3001 81.4 43.5 82.6 42.3C83.9 41 85.6 40.3 87.5 40.3H90.1C92 40.3 93.8 41.1 95 42.3C96.3 43.6 97 45.3001 97 47.2001V174H95.8V47.2001C95.8 45.7001 95.2 44.2001 94.2 43.2001C93.2 42.2001 91.8 41.6 90.2 41.6H87.6C86.1 41.6 84.6 42.2001 83.6 43.2001C82.6 44.2001 82 45.6001 82 47.2001V63H80.6Z" fill="#A6A5D1"/>
<path d="M84.7 46H77.9V48.4H84.7V46Z" fill="#5E519C"/>
<path d="M113.1 46H106.3V48.4H113.1V46Z" fill="#5E519C"/>
<path fill-rule="evenodd" clip-rule="evenodd" d="M76.6 132V123.3H70.6V132H69.8V123.3V122.4V117V116.1V110.7V109.8V104.4V103.5V98V97.1V91.7V90.8V85.4V84.5V79.1V78.2V72.8V71.9V66.3V65.4H70.6H76.6H77.4V66.3V71.9V72.8V78.2V79.1V84.5V85.4V90.8V91.7V97.1V98V103.4V104.3V109.7V110.6V116V116.9V122.3V123.2V131.9L76.6 132ZM76.6 66.3H70.6V71.9H76.6V66.3ZM76.6 72.8H70.6V78.2H76.6V72.8ZM76.6 79.1H70.6V84.5H76.6V79.1ZM76.6 85.4H70.6V90.8H76.6V85.4ZM76.6 91.7H70.6V97.1H76.6V91.7ZM76.6 98H70.6V103.4H76.6V98ZM76.6 104.3H70.6V109.7H76.6V104.3ZM76.6 110.7H70.6V116.1H76.6V110.7ZM76.6 117H70.6V122.4H76.6V117Z" fill="#A6A5D1"/>
<path fill-rule="evenodd" clip-rule="evenodd" d="M83.2 58.5H74.4C73.9 58.5 73.4 58.1 73.4 57.5V54.1H83.2V58.5Z" fill="#A6A5D1"/>
<path fill-rule="evenodd" clip-rule="evenodd" d="M84.7 54.8H72C71.6 54.8 71.3 54.5 71.3 54.1V54C71.3 53.6 71.6 53.3 72 53.3H84.7C85.1 53.3 85.4 53.6 85.4 54V54.1C85.3 54.5 85 54.8 84.7 54.8Z" fill="#5E519C"/>
<path fill-rule="evenodd" clip-rule="evenodd" d="M90.7 60.9H73.2C72.3 60.9 71.6 60.2 71.6 59.3V59C71.6 58.1 72.3 57.5 73.2 57.5H90.7C91.6 57.5 92.3 58.2 92.3 59V59.3C92.2 60.2 91.5 60.9 90.7 60.9Z" fill="#5E519C"/>
<path d="M90.9 58.8H72.9V59.9001H90.9V58.8Z" fill="#A6A5D1"/>
<path fill-rule="evenodd" clip-rule="evenodd" d="M86.1 57.5H84.6V51.7C84.6 51.3 84.9 51 85.3 51H85.4C85.8 51 86.1 51.3 86.1 51.7V57.5Z" fill="#A6A5D1"/>
<path fill-rule="evenodd" clip-rule="evenodd" d="M105.1 132V123.3H99.1V132H98.3V123.3V122.4V117V116.1V110.7V109.8V104.4V103.5V98V97.1V91.7V90.8V85.4V84.5V79.1V78.2V72.8V71.9V66.3V65.4H99.1H105.1H105.9V66.3V71.9V72.8V78.2V79.1V84.5V85.4V90.8V91.7V97.1V98V103.4V104.3V109.7V110.6V116V116.9V122.3V123.2V131.9L105.1 132ZM105.1 66.3H99.1V71.9H105.1V66.3ZM105.1 72.8H99.1V78.2H105.1V72.8ZM105.1 79.1H99.1V84.5H105.1V79.1ZM105.1 85.4H99.1V90.8H105.1V85.4ZM105.1 91.7H99.1V97.1H105.1V91.7ZM105.1 98H99.1V103.4H105.1V98ZM105.1 104.3H99.1V109.7H105.1V104.3ZM105.1 110.7H99.1V116.1H105.1V110.7ZM105.1 117H99.1V122.4H105.1V117Z" fill="#A6A5D1"/>
<path fill-rule="evenodd" clip-rule="evenodd" d="M111.7 58.5H102.9C102.4 58.5 101.9 58.1 101.9 57.5V54.1H111.7V58.5Z" fill="#A6A5D1"/>
<path fill-rule="evenodd" clip-rule="evenodd" d="M113.2 54.8H100.5C100.1 54.8 99.8 54.5 99.8 54.1V54C99.8 53.6 100.1 53.3 100.5 53.3H113.2C113.6 53.3 113.9 53.6 113.9 54V54.1C113.8 54.5 113.5 54.8 113.2 54.8Z" fill="#5E519C"/>
<path fill-rule="evenodd" clip-rule="evenodd" d="M119.2 60.9H101.7C100.8 60.9 100.1 60.2 100.1 59.3V59C100.1 58.1 100.8 57.5 101.7 57.5H119.2C120.1 57.5 120.8 58.2 120.8 59V59.3C120.7 60.2 120 60.9 119.2 60.9Z" fill="#5E519C"/>
<path d="M119.4 58.8H101.4V59.9001H119.4V58.8Z" fill="#A6A5D1"/>
<path fill-rule="evenodd" clip-rule="evenodd" d="M114.6 57.5H113.1V51.7C113.1 51.3 113.4 51 113.8 51H113.9C114.3 51 114.6 51.3 114.6 51.7V57.5Z" fill="#A6A5D1"/>
<path d="M64 179.7H62.5V120.2C62.5 117.4 60.3 115.2 57.5 115.2H48.8V113.7H57.5C61.1 113.7 64 116.6 64 120.2V179.7Z" fill="#5E519C"/>
<path d="M150.4 159.6H148.9V78.3C148.9 75.5 146.7 73.3 143.9 73.3H99.1V71.8H143.9C147.5 71.8 150.4 74.7 150.4 78.3V159.6V159.6Z" fill="#A6A5D1"/>
<path d="M140.7 159.6H139.2V78.3C139.2 75.5 137 73.3 134.2 73.3H89.4V71.8H134.2C137.8 71.8 140.7 74.7 140.7 78.3V159.6Z" fill="#5E519C"/>
<path d="M70.5 179.7H69V120.2C69 117.4 66.8 115.2 64 115.2H55.3V113.7H64C67.6 113.7 70.5 116.6 70.5 120.2V179.7Z" fill="#5E519C"/>
<path d="M78.1 179.7H76.6V120.2C76.6 117.4 74.4 115.2 71.6 115.2H62.9V113.7H71.6C75.2 113.7 78.1 116.6 78.1 120.2V179.7Z" fill="#5E519C"/>
<path d="M92.3 110.2L85.4 103.2H82.5V102.5H85.7L92.8 109.7L92.3 110.2Z" fill="#5E519C"/>
<path d="M85.8 103.1L85.3 102.6L92.4 95.5H95.6V96.2H92.7L85.8 103.1Z" fill="#5E519C"/>
<path d="M92.3 96.1L85.4 89.1H82.5V88.4H85.7L92.8 95.6L92.3 96.1Z" fill="#5E519C"/>
<path d="M95.9 117.6H95.2V110.3H92.7L85.7 117.4H82.2V85.6H96L95.9 117.6ZM82.9 116.6H85.4L92.4 109.5H95.2V86.3H82.9V116.6Z" fill="#5E519C"/>
<path d="M95.4 110.2L88.5 103.2H85.6V102.5H88.8L95.9 109.7L95.4 110.2Z" fill="#A6A5D1"/>
<path d="M88.9 103.1L88.4 102.6L95.5 95.5H98.7V96.2H95.8L88.9 103.1Z" fill="#A6A5D1"/>
<path d="M95.4 96.1L88.5 89.1H85.6V88.4H88.8L95.9 95.6L95.4 96.1Z" fill="#A6A5D1"/>
<path d="M99 117.6H98.3V110.3H95.8L88.8 117.4H85.3V85.6H99.1V117.6H99ZM85.9 116.6H88.4L95.4 109.5H98.2V86.3H85.9V116.6Z" fill="#A6A5D1"/>
<path d="M92.3 141.2L85.4 134.2H82.5V133.5H85.7L92.8 140.7L92.3 141.2Z" fill="#5E519C"/>
<path d="M85.8 134.1L85.3 133.6L92.4 126.5H95.6V127.2H92.7L85.8 134.1Z" fill="#5E519C"/>
<path d="M92.3 127.1L85.4 120.1H82.5V119.4H85.7L92.8 126.6L92.3 127.1Z" fill="#5E519C"/>
<path d="M95.9 148.6H95.2V141.3H92.7L85.7 148.4H82.2V116.7H96L95.9 148.6ZM82.9 147.6H85.4L92.4 140.5H95.2V117.2H82.9V147.6Z" fill="#5E519C"/>
<path d="M95.4 141.2L88.5 134.2H85.6V133.5H88.8L95.9 140.7L95.4 141.2Z" fill="#A6A5D1"/>
<path d="M88.9 134.1L88.4 133.6L95.5 126.5H98.7V127.2H95.8L88.9 134.1Z" fill="#A6A5D1"/>
<path d="M95.4 127.1L88.5 120.1H85.6V119.4H88.8L95.9 126.6L95.4 127.1Z" fill="#A6A5D1"/>
<path d="M99 148.6H98.3V141.3H95.8L88.8 148.4H85.3V116.7H99.1V148.6H99V148.6ZM85.9 147.6H88.4L95.4 140.5H98.2V117.2H85.9V147.6Z" fill="#A6A5D1"/>
<path d="M92.3 172.2L85.4 165.3H82.5V164.5H85.7L92.8 171.7L92.3 172.2Z" fill="#5E519C"/>
<path d="M85.8 165.1L85.3 164.6L92.4 157.5H95.6V158.2H92.7L85.8 165.1Z" fill="#5E519C"/>
<path d="M92.3 158.1L85.4 151.1H82.5V150.4H85.7L92.8 157.6L92.3 158.1Z" fill="#5E519C"/>
<path d="M95.9 179.7H95.2V172.4H92.7L85.7 179.5H82.2V147.8H96L95.9 179.7ZM82.9 178.6H85.4L92.4 171.5H95.2V148.2H82.9V178.6Z" fill="#5E519C"/>
<path d="M95.4 172.2L88.5 165.3H85.6V164.5H88.8L95.9 171.7L95.4 172.2Z" fill="#A6A5D1"/>
<path d="M88.9 165.1L88.4 164.6L95.5 157.5H98.7V158.2H95.8L88.9 165.1Z" fill="#A6A5D1"/>
<path d="M95.4 158.1L88.5 151.1H85.6V150.4H88.8L95.9 157.6L95.4 158.1Z" fill="#A6A5D1"/>
<path d="M99 179.7H98.3V172.4H95.8L88.8 179.5H85.3V147.8H99.1V179.7H99ZM85.9 178.6H88.4L95.4 171.5H98.2V148.2H85.9V178.6Z" fill="#A6A5D1"/>
<path d="M108.5 110.2L101.5 103.2H98.7V102.5H101.8L109 109.7L108.5 110.2Z" fill="#5E519C"/>
<path d="M101.9 103.1L101.4 102.6L108.6 95.5H111.7V96.2H108.9L101.9 103.1Z" fill="#5E519C"/>
<path d="M108.5 96.1L101.5 89.1H98.7V88.4H101.8L109 95.6L108.5 96.1Z" fill="#5E519C"/>
<path d="M112.1 117.6H111.4V110.3H108.9L101.9 117.4H98.4V85.6H112.2V117.6H112.1ZM99 116.6H101.5L108.5 109.5H111.3V86.3H98.9L99 116.6Z" fill="#5E519C"/>
<path d="M111.6 110.2L104.6 103.2H101.8V102.5H104.9L112.1 109.7L111.6 110.2Z" fill="#A6A5D1"/>
<path d="M105 103.1L104.5 102.6L111.7 95.5H114.8V96.2H112L105 103.1Z" fill="#A6A5D1"/>
<path d="M111.6 96.1L104.6 89.1H101.8V88.4H104.9L112.1 95.6L111.6 96.1Z" fill="#A6A5D1"/>
<path d="M115.2 117.6H114.5V110.3H112L105 117.4H101.5V85.6H115.3V117.6H115.2ZM102.1 116.6H104.6L111.6 109.5H114.4V86.3H102L102.1 116.6Z" fill="#A6A5D1"/>
<path d="M108.5 141.2L101.5 134.2H98.7V133.5H101.8L109 140.7L108.5 141.2Z" fill="#5E519C"/>
<path d="M101.9 134.1L101.4 133.6L108.6 126.5H111.7V127.2H108.9L101.9 134.1Z" fill="#5E519C"/>
<path d="M108.5 127.1L101.5 120.1H98.7V119.4H101.8L109 126.6L108.5 127.1Z" fill="#5E519C"/>
<path d="M112.1 148.6H111.4V141.3H108.9L101.9 148.4H98.4V116.7H112.2V148.6H112.1V148.6ZM99 147.6H101.5L108.5 140.5H111.3V117.2H98.9L99 147.6Z" fill="#5E519C"/>
<path d="M111.6 141.2L104.6 134.2H101.8V133.5H104.9L112.1 140.7L111.6 141.2Z" fill="#A6A5D1"/>
<path d="M105 134.1L104.5 133.6L111.7 126.5H114.8V127.2H112L105 134.1Z" fill="#A6A5D1"/>
<path d="M111.6 127.1L104.6 120.1H101.8V119.4H104.9L112.1 126.6L111.6 127.1Z" fill="#A6A5D1"/>
<path d="M115.2 148.6H114.5V141.3H112L105 148.4H101.5V116.7H115.3V148.6H115.2V148.6ZM102.1 147.6H104.6L111.6 140.5H114.4V117.2H102L102.1 147.6Z" fill="#A6A5D1"/>
<path d="M108.5 172.2L101.5 165.3H98.7V164.5H101.8L109 171.7L108.5 172.2Z" fill="#5E519C"/>
<path d="M101.9 165.1L101.4 164.6L108.6 157.5H111.7V158.2H108.9L101.9 165.1Z" fill="#5E519C"/>
<path d="M108.5 158.1L101.5 151.1H98.7V150.4H101.8L109 157.6L108.5 158.1Z" fill="#5E519C"/>
<path d="M112.1 179.7H111.4V172.4H108.9L101.9 179.5H98.4V147.8H112.2V179.7H112.1ZM99 178.6H101.5L108.5 171.5H111.3V148.2H98.9L99 178.6Z" fill="#5E519C"/>
<path d="M111.6 172.2L104.6 165.3H101.8V164.5H104.9L112.1 171.7L111.6 172.2Z" fill="#A6A5D1"/>
<path d="M105 165.1L104.5 164.6L111.7 157.5H114.8V158.2H112L105 165.1Z" fill="#A6A5D1"/>
<path d="M111.6 158.1L104.6 151.1H101.8V150.4H104.9L112.1 157.6L111.6 158.1Z" fill="#A6A5D1"/>
<path d="M115.2 179.7H114.5V172.4H112L105 179.5H101.5V147.8H115.3V179.7H115.2ZM102.1 178.6H104.6L111.6 171.5H114.4V148.2H102L102.1 178.6Z" fill="#A6A5D1"/>
<path d="M124.6 110.2L117.7 103.2H114.8V102.5H118L125.1 109.7L124.6 110.2Z" fill="#5E519C"/>
<path d="M118.1 103.1L117.6 102.6L124.7 95.5H127.9V96.2H125L118.1 103.1Z" fill="#5E519C"/>
<path d="M124.6 96.1L117.7 89.1H114.8V88.4H118L125.1 95.6L124.6 96.1Z" fill="#5E519C"/>
<path d="M128.3 117.6H127.6V110.3H125.1L118.1 117.4H114.6V85.6H128.4V117.6H128.3ZM115.2 116.6H117.7L124.7 109.5H127.5V86.3H115.1L115.2 116.6C115.2 116.6 115.1 116.6 115.2 116.6Z" fill="#5E519C"/>
<path d="M127.7 110.2L120.8 103.2H117.9V102.5H121.1L128.2 109.7L127.7 110.2Z" fill="#A6A5D1"/>
<path d="M121.2 103.1L120.7 102.6L127.8 95.5H131V96.2H128.1L121.2 103.1Z" fill="#A6A5D1"/>
<path d="M127.7 96.1L120.8 89.1H117.9V88.4H121.1L128.2 95.6L127.7 96.1Z" fill="#A6A5D1"/>
<path d="M131.3 117.6H130.6V110.3H128.1L121.1 117.4H117.6V85.6H131.4V117.6H131.3ZM118.3 116.6H120.8L127.8 109.5H130.6V86.3H118.2L118.3 116.6Z" fill="#A6A5D1"/>
<path d="M124.6 141.2L117.7 134.2H114.8V133.5H118L125.1 140.7L124.6 141.2Z" fill="#5E519C"/>
<path d="M118.1 134.1L117.6 133.6L124.7 126.5H127.9V127.2H125L118.1 134.1Z" fill="#5E519C"/>
<path d="M124.6 127.1L117.7 120.1H114.8V119.4H118L125.1 126.6L124.6 127.1Z" fill="#5E519C"/>
<path d="M128.3 148.6H127.6V141.3H125.1L118.1 148.4H114.6V116.7H128.4V148.6H128.3V148.6ZM115.2 147.6H117.7L124.7 140.5H127.5V117.2H115.1L115.2 147.6Z" fill="#5E519C"/>
<path d="M127.7 141.2L120.8 134.2H117.9V133.5H121.1L128.2 140.7L127.7 141.2Z" fill="#A6A5D1"/>
<path d="M121.2 134.1L120.7 133.6L127.8 126.5H131V127.2H128.1L121.2 134.1Z" fill="#A6A5D1"/>
<path d="M127.7 127.1L120.8 120.1H117.9V119.4H121.1L128.2 126.6L127.7 127.1Z" fill="#A6A5D1"/>
<path d="M131.3 148.6H130.6V141.3H128.1L121.1 148.4H117.6V116.7H131.4V148.6H131.3V148.6ZM118.3 147.6H120.8L127.8 140.5H130.6V117.2H118.2L118.3 147.6Z" fill="#A6A5D1"/>
<path d="M124.6 172.2L117.7 165.3H114.8V164.5H118L125.1 171.7L124.6 172.2Z" fill="#5E519C"/>
<path d="M118.1 165.1L117.6 164.6L124.7 157.5H127.9V158.2H125L118.1 165.1Z" fill="#5E519C"/>
<path d="M124.6 158.1L117.7 151.1H114.8V150.4H118L125.1 157.6L124.6 158.1Z" fill="#5E519C"/>
<path d="M128.3 179.7H127.6V172.4H125.1L118.1 179.5H114.6V147.8H128.4V179.7H128.3ZM115.2 178.6H117.7L124.7 171.5H127.5V148.2H115.1L115.2 178.6Z" fill="#5E519C"/>
<path d="M127.7 172.2L120.8 165.3H117.9V164.5H121.1L128.2 171.7L127.7 172.2Z" fill="#A6A5D1"/>
<path d="M121.2 165.1L120.7 164.6L127.8 157.5H131V158.2H128.1L121.2 165.1Z" fill="#A6A5D1"/>
<path d="M127.7 158.1L120.8 151.1H117.9V150.4H121.1L128.2 157.6L127.7 158.1Z" fill="#A6A5D1"/>
<path d="M131.3 179.7H130.6V172.4H128.1L121.1 179.5H117.6V147.8H131.4V179.7H131.3ZM118.3 178.6H120.8L127.8 171.5H130.6V148.2H118.2L118.3 178.6Z" fill="#A6A5D1"/>
<path d="M30.8 48.4H24V166.6H30.8V48.4Z" fill="#A6A5D1"/>
<path d="M30.8 97.3H24V99.7H30.8V97.3Z" fill="#382E86"/>
<path d="M30.8 63.6H24V66H30.8V63.6Z" fill="#382E86"/>
<path d="M30.8 46H24V48.4H30.8V46Z" fill="#382E86"/>
<path d="M33.7 61.2H21.1V63.5999H33.7V61.2Z" fill="#5E519C"/>
<path d="M52.6 48.4H45.8V166.6H52.6V48.4Z" fill="#A6A5D1"/>
<path d="M52.6 97.3H45.8V99.7H52.6V97.3Z" fill="#382E86"/>
<path d="M52.6 63.6H45.8V66H52.6V63.6Z" fill="#382E86"/>
<path d="M52.6 46H45.8V48.4H52.6V46Z" fill="#382E86"/>
<path d="M55.6 95.5C55.6 95.7 55.4 95.9 55.2 95.9C55 95.9 54.8 95.7 54.8 95.5V92.4H52.7V95.5C52.7 95.7 52.5 95.9 52.3 95.9C52.1 95.9 51.9 95.7 51.9 95.5V92.4H49.8V95.5C49.8 95.7 49.6 95.9 49.4 95.9C49.2 95.9 48.8 95.7 48.8 95.5V92.4H46.7V95.5C46.7 95.7 46.5 95.9 46.3 95.9C46.1 95.9 45.9 95.7 45.9 95.5V92.4H43.8V95.5C43.8 95.7 43.6 95.9 43.4 95.9C43.2 95.9 43 95.7 43 95.5V92V91.6H43.4H46.3H49.2H52.1H55H55.4V92V95.5H55.6Z" fill="#382E86"/>
<path d="M33.7 95.5C33.7 95.7 33.5 95.9 33.3 95.9C33.1 95.9 32.9 95.7 32.9 95.5V92.4H30.8V95.5C30.8 95.7 30.6 95.9 30.4 95.9C30.2 95.9 30 95.7 30 95.5V92.4H27.8V95.5C27.8 95.7 27.6 95.9 27.4 95.9C27.2 95.9 27 95.7 27 95.5V92.4H24.8V95.5C24.8 95.7 24.6 95.9 24.4 95.9C24.2 95.9 24 95.7 24 95.5V92.4H21.9V95.5C21.9 95.7 21.7 95.9 21.5 95.9C21.3 95.9 21.1 95.7 21.1 95.5V92V91.6H21.5H24.4H27.3H30.2H33.1H33.5V92V95.5H33.7Z" fill="#382E86"/>
<path d="M30.3 57.3H33.3H33.7V57.7001V61.2001C33.7 61.4001 33.5 61.6 33.3 61.6C33.1 61.6 32.9 61.4001 32.9 61.2001V58.1H30.8V61.2001C30.8 61.4001 30.6 61.6 30.4 61.6C30.2 61.6 30 61.4001 30 61.2001V58.1H27.8V61.2001C27.8 61.4001 27.6 61.6 27.4 61.6C27.2 61.6 27 61.4001 27 61.2001V58.1H24.8V61.2001C24.8 61.4001 24.6 61.6 24.4 61.6C24.2 61.6 24 61.4001 24 61.2001V58.1H21.9V61.2001C21.9 61.4001 21.7 61.6 21.5 61.6C21.3 61.6 21.1 61.4001 21.1 61.2001V57.7001V57.3H21.5H24.4H27.3H30.3V57.3Z" fill="#382E86"/>
<path d="M52.2 57.3H55.2H55.6V57.7001V61.2001C55.6 61.4001 55.4 61.6 55.2 61.6C55 61.6 54.8 61.4001 54.8 61.2001V58.1H52.7V61.2001C52.7 61.4001 52.5 61.6 52.3 61.6C52.1 61.6 51.9 61.4001 51.9 61.2001V58.1H49.8V61.2001C49.8 61.4001 49.6 61.6 49.4 61.6C49.2 61.6 48.8 61.4001 48.8 61.2001V58.1H46.7V61.2001C46.7 61.4001 46.5 61.6 46.3 61.6C46.1 61.6 45.9 61.4001 45.9 61.2001V58.1H43.8V61.2001C43.8 61.4001 43.6 61.6 43.4 61.6C43.2 61.6 43 61.4001 43 61.2001V57.7001V57.3H43.4H46.3H49.2H52.2V57.3Z" fill="#382E86"/>
<path d="M55.5 94.9H42.9V97.3H55.5V94.9Z" fill="#5E519C"/>
<path d="M55.5 61.2H42.9V63.5999H55.5V61.2Z" fill="#5E519C"/>
<path d="M90.9 69.2H88.5V76H90.9V69.2Z" fill="#382E86"/>
<path d="M144.8 147.4H135.2V179.6H144.8V147.4Z" fill="#5E519C"/>
<path d="M144.8 147.4H135.2V179.6H144.8V147.4Z" fill="#5E519C"/>
<path fill-rule="evenodd" clip-rule="evenodd" d="M144.7 179.7H154.3V147.4H149.6H144.7V179.7Z" fill="#D7D5E8"/>
<path fill-rule="evenodd" clip-rule="evenodd" d="M39.1 176.9H16.1V153.6L35.9 147.4H61.8L39.1 176.9Z" fill="#A6A5D1"/>
<path d="M39 153.5H16.1V179.6H39V153.5Z" fill="#5E519C"/>
<path fill-rule="evenodd" clip-rule="evenodd" d="M61.8 147.4L39.1 153.6V179.7H61.8V147.4Z" fill="#D7D5E8"/>
<path d="M48.6 171.6H46.2V174H48.6V171.6Z" fill="#5E519C"/>
<path d="M52.1 171.6H49.7V174H52.1V171.6Z" fill="#5E519C"/>
<path d="M55.6 171.6H53.2V174H55.6V171.6Z" fill="#5E519C"/>
<path d="M33.7 94.9H21.1V97.3H33.7V94.9Z" fill="#5E519C"/>
<path d="M8.7 12.8H0V33.1H8.7V12.8Z" fill="#E1171D"/>
<path fill-rule="evenodd" clip-rule="evenodd" d="M88.8 54.5999C88.8 50.7999 85.7 47.7 81.9 47.7H80.6C76.8 47.7 73.7 50.7999 73.7 54.5999V179.6H88.8C88.8 179.6 88.8 54.5999 88.8 54.5999Z" fill="#382E86"/>
<path fill-rule="evenodd" clip-rule="evenodd" d="M117.2 54.5999C117.2 50.7999 114.1 47.7 110.3 47.7H109C105.2 47.7 102.1 50.7999 102.1 54.5999V179.6H117.2V54.5999V54.5999Z" fill="#382E86"/>
<path d="M18.7622 17.6226V20H17.6504V13.6016H20.0981C20.813 13.6016 21.3799 13.7876 21.7988 14.1597C22.2207 14.5317 22.4316 15.0239 22.4316 15.6362C22.4316 16.2632 22.2251 16.751 21.812 17.0996C21.4019 17.4482 20.8262 17.6226 20.085 17.6226H18.7622ZM18.7622 16.7305H20.0981C20.4937 16.7305 20.7954 16.6382 21.0034 16.4536C21.2114 16.2661 21.3154 15.9966 21.3154 15.645C21.3154 15.2993 21.21 15.0239 20.999 14.8188C20.7881 14.6108 20.498 14.5039 20.1289 14.498H18.7622V16.7305ZM25.7583 17.5347H24.519V20H23.4072V13.6016H25.6572C26.3955 13.6016 26.9653 13.7671 27.3667 14.0981C27.7681 14.4292 27.9688 14.9082 27.9688 15.5352C27.9688 15.9629 27.8647 16.3218 27.6567 16.6118C27.4517 16.8989 27.1646 17.1201 26.7954 17.2754L28.2324 19.9429V20H27.0415L25.7583 17.5347ZM24.519 16.6426H25.6616C26.0366 16.6426 26.3296 16.5488 26.5405 16.3613C26.7515 16.1709 26.8569 15.9116 26.8569 15.5835C26.8569 15.2407 26.7588 14.9756 26.5625 14.7881C26.3691 14.6006 26.0791 14.5039 25.6924 14.498H24.519V16.6426ZM34.1299 16.9678C34.1299 17.5947 34.0215 18.1455 33.8047 18.6201C33.5879 19.0918 33.2773 19.4551 32.873 19.71C32.4717 19.9619 32.0088 20.0879 31.4844 20.0879C30.9658 20.0879 30.5029 19.9619 30.0957 19.71C29.6914 19.4551 29.3779 19.0933 29.1553 18.6245C28.9355 18.1558 28.8242 17.6152 28.8213 17.0029V16.6426C28.8213 16.0186 28.9312 15.4678 29.1509 14.9902C29.3735 14.5127 29.6855 14.1479 30.0869 13.896C30.4912 13.6411 30.9541 13.5137 31.4756 13.5137C31.9971 13.5137 32.4585 13.6396 32.8599 13.8916C33.2642 14.1406 33.5762 14.501 33.7959 14.9727C34.0156 15.4414 34.127 15.9878 34.1299 16.6118V16.9678ZM33.0181 16.6338C33.0181 15.9248 32.8833 15.3813 32.6138 15.0034C32.3472 14.6255 31.9678 14.4365 31.4756 14.4365C30.9951 14.4365 30.6187 14.6255 30.3462 15.0034C30.0767 15.3784 29.939 15.9102 29.9331 16.5986V16.9678C29.9331 17.6709 30.0693 18.2144 30.3418 18.5981C30.6172 18.9819 30.998 19.1738 31.4844 19.1738C31.9766 19.1738 32.3545 18.9863 32.6182 18.6113C32.8848 18.2363 33.0181 17.6885 33.0181 16.9678V16.6338ZM36.3491 17.6226V20H35.2373V13.6016H37.6851C38.3999 13.6016 38.9668 13.7876 39.3857 14.1597C39.8076 14.5317 40.0186 15.0239 40.0186 15.6362C40.0186 16.2632 39.812 16.751 39.3989 17.0996C38.9888 17.4482 38.4131 17.6226 37.6719 17.6226H36.3491ZM36.3491 16.7305H37.6851C38.0806 16.7305 38.3823 16.6382 38.5903 16.4536C38.7983 16.2661 38.9023 15.9966 38.9023 15.645C38.9023 15.2993 38.7969 15.0239 38.5859 14.8188C38.375 14.6108 38.085 14.5039 37.7158 14.498H36.3491V16.7305ZM43.7935 18.5103H41.3149L40.7964 20H39.6406L42.0576 13.6016H43.0552L45.4766 20H44.3164L43.7935 18.5103ZM41.627 17.6138H43.4814L42.5542 14.9595L41.627 17.6138ZM51.2817 20H50.1699L47.3179 15.4604V20H46.2061V13.6016H47.3179L50.1787 18.1587V13.6016H51.2817V20ZM56.3354 17.1436H53.7075V19.1123H56.7793V20H52.5957V13.6016H56.7485V14.498H53.7075V16.2646H56.3354V17.1436ZM59.9258 20V13.6016H61.8154C62.3809 13.6016 62.8818 13.7275 63.3184 13.9795C63.7578 14.2314 64.0977 14.5889 64.3379 15.0518C64.5781 15.5146 64.6982 16.0449 64.6982 16.6426V16.9634C64.6982 17.5698 64.5767 18.103 64.3335 18.563C64.0933 19.0229 63.749 19.3774 63.3008 19.6265C62.8555 19.8755 62.3442 20 61.7671 20H59.9258ZM61.0376 14.498V19.1123H61.7627C62.3457 19.1123 62.7925 18.9307 63.103 18.5674C63.4165 18.2012 63.5762 17.6768 63.582 16.9941V16.6382C63.582 15.9438 63.4312 15.4136 63.1294 15.0474C62.8276 14.6812 62.3896 14.498 61.8154 14.498H61.0376ZM69.5454 17.1436H66.9175V19.1123H69.9893V20H65.8057V13.6016H69.9585V14.498H66.9175V16.2646H69.5454V17.1436ZM75.9746 20H74.8672V17.1567H72.0063V20H70.8945V13.6016H72.0063V16.2646H74.8672V13.6016H75.9746V20ZM79.2573 16.6338L80.7295 13.6016H81.96L79.8154 17.6445V20H78.6992V17.6445L76.5503 13.6016H77.7852L79.2573 16.6338ZM82.6543 20V13.6016H84.5439C85.1094 13.6016 85.6104 13.7275 86.0469 13.9795C86.4863 14.2314 86.8262 14.5889 87.0664 15.0518C87.3066 15.5146 87.4268 16.0449 87.4268 16.6426V16.9634C87.4268 17.5698 87.3052 18.103 87.062 18.563C86.8218 19.0229 86.4775 19.3774 86.0293 19.6265C85.584 19.8755 85.0728 20 84.4956 20H82.6543ZM83.7661 14.498V19.1123H84.4912C85.0742 19.1123 85.521 18.9307 85.8315 18.5674C86.145 18.2012 86.3047 17.6768 86.3105 16.9941V16.6382C86.3105 15.9438 86.1597 15.4136 85.8579 15.0474C85.5562 14.6812 85.1182 14.498 84.5439 14.498H83.7661ZM90.8853 17.5347H89.646V20H88.5342V13.6016H90.7842C91.5225 13.6016 92.0923 13.7671 92.4937 14.0981C92.895 14.4292 93.0957 14.9082 93.0957 15.5352C93.0957 15.9629 92.9917 16.3218 92.7837 16.6118C92.5786 16.8989 92.2915 17.1201 91.9224 17.2754L93.3594 19.9429V20H92.1685L90.8853 17.5347ZM89.646 16.6426H90.7886C91.1636 16.6426 91.4565 16.5488 91.6675 16.3613C91.8784 16.1709 91.9839 15.9116 91.9839 15.5835C91.9839 15.2407 91.8857 14.9756 91.6895 14.7881C91.4961 14.6006 91.2061 14.5039 90.8193 14.498H89.646V16.6426ZM99.2568 16.9678C99.2568 17.5947 99.1484 18.1455 98.9316 18.6201C98.7148 19.0918 98.4043 19.4551 98 19.71C97.5986 19.9619 97.1357 20.0879 96.6113 20.0879C96.0928 20.0879 95.6299 19.9619 95.2227 19.71C94.8184 19.4551 94.5049 19.0933 94.2822 18.6245C94.0625 18.1558 93.9512 17.6152 93.9482 17.0029V16.6426C93.9482 16.0186 94.0581 15.4678 94.2778 14.9902C94.5005 14.5127 94.8125 14.1479 95.2139 13.896C95.6182 13.6411 96.0811 13.5137 96.6025 13.5137C97.124 13.5137 97.5854 13.6396 97.9868 13.8916C98.3911 14.1406 98.7031 14.501 98.9229 14.9727C99.1426 15.4414 99.2539 15.9878 99.2568 16.6118V16.9678ZM98.145 16.6338C98.145 15.9248 98.0103 15.3813 97.7407 15.0034C97.4741 14.6255 97.0947 14.4365 96.6025 14.4365C96.1221 14.4365 95.7456 14.6255 95.4731 15.0034C95.2036 15.3784 95.0659 15.9102 95.0601 16.5986V16.9678C95.0601 17.6709 95.1963 18.2144 95.4688 18.5981C95.7441 18.9819 96.125 19.1738 96.6113 19.1738C97.1035 19.1738 97.4814 18.9863 97.7451 18.6113C98.0117 18.2363 98.145 17.6885 98.145 16.9678V16.6338ZM105.269 19.1694C105.037 19.4712 104.716 19.6997 104.306 19.855C103.896 20.0103 103.43 20.0879 102.909 20.0879C102.373 20.0879 101.898 19.9663 101.485 19.7231C101.072 19.48 100.752 19.1328 100.527 18.6816C100.304 18.2275 100.188 17.6987 100.18 17.0952V16.5942C100.18 15.6274 100.411 14.873 100.874 14.3311C101.337 13.7861 101.983 13.5137 102.812 13.5137C103.524 13.5137 104.089 13.6895 104.508 14.041C104.927 14.3926 105.179 14.8994 105.264 15.5615H104.174C104.051 14.791 103.604 14.4058 102.834 14.4058C102.336 14.4058 101.957 14.5859 101.696 14.9463C101.438 15.3037 101.305 15.8296 101.296 16.5239V17.0161C101.296 17.7075 101.441 18.2451 101.731 18.6289C102.024 19.0098 102.43 19.2002 102.948 19.2002C103.517 19.2002 103.921 19.0713 104.161 18.8135V17.561H102.843V16.7173H105.269V19.1694ZM110.23 17.1436H107.602V19.1123H110.674V20H106.49V13.6016H110.643V14.498H107.602V16.2646H110.23V17.1436ZM116.655 20H115.543L112.691 15.4604V20H111.579V13.6016H112.691L115.552 18.1587V13.6016H116.655V20ZM121.629 18.5103H119.151L118.632 20H117.477L119.894 13.6016H120.891L123.312 20H122.152L121.629 18.5103ZM119.463 17.6138H121.317L120.39 14.9595L119.463 17.6138ZM128.138 14.498H126.143V20H125.04V14.498H123.062V13.6016H128.138V14.498ZM130.155 20H129.047V13.6016H130.155V20ZM136.628 16.9678C136.628 17.5947 136.52 18.1455 136.303 18.6201C136.086 19.0918 135.775 19.4551 135.371 19.71C134.97 19.9619 134.507 20.0879 133.982 20.0879C133.464 20.0879 133.001 19.9619 132.594 19.71C132.189 19.4551 131.876 19.0933 131.653 18.6245C131.434 18.1558 131.322 17.6152 131.319 17.0029V16.6426C131.319 16.0186 131.429 15.4678 131.649 14.9902C131.872 14.5127 132.184 14.1479 132.585 13.896C132.989 13.6411 133.452 13.5137 133.974 13.5137C134.495 13.5137 134.957 13.6396 135.358 13.8916C135.762 14.1406 136.074 14.501 136.294 14.9727C136.514 15.4414 136.625 15.9878 136.628 16.6118V16.9678ZM135.516 16.6338C135.516 15.9248 135.381 15.3813 135.112 15.0034C134.845 14.6255 134.466 14.4365 133.974 14.4365C133.493 14.4365 133.117 14.6255 132.844 15.0034C132.575 15.3784 132.437 15.9102 132.431 16.5986V16.9678C132.431 17.6709 132.567 18.2144 132.84 18.5981C133.115 18.9819 133.496 19.1738 133.982 19.1738C134.475 19.1738 134.853 18.9863 135.116 18.6113C135.383 18.2363 135.516 17.6885 135.516 16.9678V16.6338ZM142.811 20H141.699L138.847 15.4604V20H137.735V13.6016H138.847L141.708 18.1587V13.6016H142.811V20ZM22.3306 24.6016V28.8774C22.3306 29.5571 22.1123 30.0962 21.6758 30.4946C21.2422 30.8901 20.6636 31.0879 19.9399 31.0879C19.2075 31.0879 18.626 30.8931 18.1953 30.5034C17.7646 30.1108 17.5493 29.5674 17.5493 28.873V24.6016H18.6567V28.8818C18.6567 29.3096 18.7651 29.6362 18.9819 29.8618C19.1987 30.0874 19.5181 30.2002 19.9399 30.2002C20.7954 30.2002 21.2231 29.749 21.2231 28.8467V24.6016H22.3306ZM28.5972 31H27.4854L24.6333 26.4604V31H23.5215V24.6016H24.6333L27.4941 29.1587V24.6016H28.5972V31ZM31.0845 31H29.9771V24.6016H31.0845V31ZM36.9424 25.498H34.9473V31H33.8442V25.498H31.8667V24.6016H36.9424V25.498Z" fill="#3D2777"/>
</g>
<defs>
<clipPath id="clip0">
<rect width="173.1" height="179.5" fill="white"/>
</clipPath>
</defs>
</svg>
