<svg width="193" height="188" viewBox="0 0 193 188" fill="none" xmlns="http://www.w3.org/2000/svg">
<g clip-path="url(#clip0)">
<path d="M183.7 5V2.5L185.9 1.2L188 0L190.2 1.2L192.3 2.5V5L190.2 3.7L188 2.5L185.9 3.7L183.7 5Z" fill="#5E519C"/>
<path d="M95.5 160H10.1C7.3 160 4.8 158.9 3 157C1.2 155.2 0 152.7 0 149.9C0 135.4 0 98 0 83.5V78.5L2.2 77.3L4.3 76L6.5 77.2L8.7 78.4V83.4C8.7 97.9 8.8 135.3 8.8 149.8C8.8 150.2 9 150.6 9.2 150.8C9.4 151 9.8 151.2 10.2 151.2H95.6L93.4 156L95.5 160Z" fill="#5E519C"/>
<path d="M96.8 160H182.2C185 160 187.5 158.9 189.3 157C191.1 155.2 192.3 152.7 192.3 149.9C192.3 135.4 192.3 39.9 192.3 25.4V20.4L190.1 19.2L188 18L185.8 19.2L183.6 20.4V25.4C183.6 39.9 183.5 135.3 183.5 149.9C183.5 150.3 183.3 150.7 183.1 150.9C182.9 151.1 182.5 151.3 182.1 151.3H96.8L99 156.1L96.8 160Z" fill="#5E519C"/>
<path fill-rule="evenodd" clip-rule="evenodd" d="M0.0999756 97.2L4.49998 94.8L8.69998 97.2V12.6V7.69995L6.49998 6.39995L4.39998 5.19995L2.19998 6.39995L0.0999756 7.69995V12.6V97.2Z" fill="#5E519C"/>
<path d="M37 162.4L36.4 162.1L43.5 147.3H46.7V148H43.9L37 162.4Z" fill="#A6A5D1"/>
<path d="M34 116.5L27.1 109.5H24.2V108.8H27.4L34.5 116L34 116.5Z" fill="#5E519C"/>
<path d="M27.5 109.4L27 108.9L34.1 101.8H37.3V102.5H34.4L27.5 109.4Z" fill="#5E519C"/>
<path d="M34 102.4L27.1 95.4H24.2V94.7H27.4L34.5 101.9L34 102.4Z" fill="#5E519C"/>
<path d="M37.6 123.9H36.9V116.6H34.4L27.4 123.7H23.9V91.9H37.7L37.6 123.9ZM24.6 122.9H27.1L34.1 115.8H36.9V92.6H24.6V122.9Z" fill="#5E519C"/>
<path d="M37.1 116.5L30.2 109.5H27.3V108.8H30.4L37.6 116L37.1 116.5Z" fill="#A6A5D1"/>
<path d="M30.5 109.4L30 108.9L37.2 101.8H40.4V102.5H37.5L30.5 109.4Z" fill="#A6A5D1"/>
<path d="M37.1 102.4L30.2 95.4H27.3V94.7H30.4L37.6 101.9L37.1 102.4Z" fill="#A6A5D1"/>
<path d="M40.7 123.9H40V116.6H37.5L30.5 123.7H27V91.9H40.8L40.7 123.9ZM27.6 122.9H30.1L37.1 115.8H40V92.6H27.6V122.9Z" fill="#A6A5D1"/>
<path d="M34 147.5L27.1 140.6H24.2V139.9H27.4L34.5 147L34 147.5Z" fill="#5E519C"/>
<path d="M27.5 140.5L27 140L34.1 132.8H37.3V133.5H34.4L27.5 140.5Z" fill="#5E519C"/>
<path d="M34 133.4L27.1 126.5H24.2V125.8H27.4L34.5 132.9L34 133.4Z" fill="#5E519C"/>
<path d="M23.8 157.2V122.9H37.6V154.9H36.9V147.6H34.4L27.4 154.6L23.8 157.2ZM24.6 123.7V155.9L27 154L34.1 146.9H36.9V123.6H24.6V123.7Z" fill="#5E519C"/>
<path d="M37.1 147.5L30.2 140.6H27.3V139.9H30.4L37.6 147L37.1 147.5Z" fill="#A6A5D1"/>
<path d="M30.5 140.5L30 140L37.2 132.8H40.4V133.5H37.5L30.5 140.5Z" fill="#A6A5D1"/>
<path d="M37.1 133.4L30.2 126.5H27.3V125.8H30.4L37.6 132.9L37.1 133.4Z" fill="#A6A5D1"/>
<path d="M40.7 155H40V147.7H37.5L30.5 154.8H27V123.1H40.8L40.7 155ZM27.6 154H30.1L37.1 146.9H40V123.6H27.6V154Z" fill="#A6A5D1"/>
<path d="M27.9 158.3L27.1 157.5H24.2V156.8H27.4L28.4 157.8L27.9 158.3Z" fill="#5E519C"/>
<path d="M31 158.3L30.2 157.5H27.3V156.8H30.4L31.5 157.8L31 158.3Z" fill="#A6A5D1"/>
<path d="M50.2 116.5L43.2 109.5H40.4V108.8H43.5L50.7 116L50.2 116.5Z" fill="#5E519C"/>
<path d="M43.6 109.4L43.1 108.9L50.3 101.8H53.4V102.5H50.6L43.6 109.4Z" fill="#5E519C"/>
<path d="M50.2 102.4L43.2 95.4H40.4V94.7H43.5L50.7 101.9L50.2 102.4Z" fill="#5E519C"/>
<path d="M53.8 123.9H53.1V116.6H50.6L43.6 123.7H40V91.9H53.8V123.9ZM40.7 122.9H43.2L50.2 115.8H53V92.6H40.7V122.9Z" fill="#5E519C"/>
<path d="M53.2 116.5L46.3 109.5H43.4V108.8H46.6L53.7 116L53.2 116.5Z" fill="#A6A5D1"/>
<path d="M46.7 109.4L46.2 108.9L53.4 101.8H56.5V102.5H53.6L46.7 109.4Z" fill="#A6A5D1"/>
<path d="M53.2 102.4L46.3 95.4H43.4V94.7H46.6L53.7 101.9L53.2 102.4Z" fill="#A6A5D1"/>
<path d="M56.9 123.9H56.2V116.6H53.7L46.7 123.7H43.2V91.9H57L56.9 123.9ZM43.8 122.9H46.3L53.3 115.8H56.1V92.6H43.8V122.9Z" fill="#A6A5D1"/>
<path d="M50.2 147.5L43.2 140.6H40.4V139.9H43.5L50.7 147L50.2 147.5Z" fill="#5E519C"/>
<path d="M43.6 140.5L43.1 140L50.3 132.8H53.4V133.5H50.6L43.6 140.5Z" fill="#5E519C"/>
<path d="M50.2 133.4L43.2 126.5H40.4V125.8H43.5L50.7 132.9L50.2 133.4Z" fill="#5E519C"/>
<path d="M53.8 155H53.1V147.7H50.6L43.6 154.8H40V123.1H53.8V155ZM40.7 154H43.2L50.2 146.9H53V123.6H40.7V154Z" fill="#5E519C"/>
<path d="M53.2 147.5L46.3 140.6H43.4V139.9H46.6L53.7 147L53.2 147.5Z" fill="#A6A5D1"/>
<path d="M46.7 140.5L46.2 140L53.4 132.8H56.5V133.5H53.6L46.7 140.5Z" fill="#A6A5D1"/>
<path d="M53.2 133.4L46.3 126.5H43.4V125.8H46.6L53.7 132.9L53.2 133.4Z" fill="#A6A5D1"/>
<path d="M56.9 155H56.2V147.7H53.7L46.7 154.8H43.2V123.1H57L56.9 155ZM43.8 154H46.3L53.3 146.9H56.1V123.6H43.8V154Z" fill="#A6A5D1"/>
<path d="M44.1 158.3L43.2 157.5H40.4V156.8H43.5L44.6 157.8L44.1 158.3Z" fill="#5E519C"/>
<path d="M53.8 158.1H53.1V154.7H40.7V158.1H40V154H53.8V158.1Z" fill="#5E519C"/>
<path d="M47.2 158.3L46.3 157.5H43.4V156.8H46.6L47.7 157.8L47.2 158.3Z" fill="#A6A5D1"/>
<path d="M56.9 158.1H56.2V154.7H43.8V158.1H43.1V154H56.9V158.1Z" fill="#A6A5D1"/>
<path d="M66.3 116.5L59.4 109.5H56.5V108.8H59.7L66.8 116L66.3 116.5Z" fill="#5E519C"/>
<path d="M59.8 109.4L59.3 108.9L66.4 101.8H69.6V102.5H66.7L59.8 109.4Z" fill="#5E519C"/>
<path d="M66.3 102.4L59.4 95.4H56.5V94.7H59.7L66.8 101.9L66.3 102.4Z" fill="#5E519C"/>
<path d="M70 123.9H69.3V116.6H66.8L59.8 123.7H56.3V91.9H70V123.9ZM56.9 122.9H59.4L66.4 115.8H69.2V92.6H56.9V122.9Z" fill="#5E519C"/>
<path d="M69.4 116.5L62.5 109.5H59.6V108.8H62.8L69.9 116L69.4 116.5Z" fill="#A6A5D1"/>
<path d="M62.9 109.4L62.4 108.9L69.5 101.8H72.7V102.5H69.8L62.9 109.4Z" fill="#A6A5D1"/>
<path d="M69.4 102.4L62.5 95.4H59.6V94.7H62.8L69.9 101.9L69.4 102.4Z" fill="#A6A5D1"/>
<path d="M73 123.9H72.3V116.6H69.8L62.8 123.7H59.3V91.9H73V123.9ZM60 122.9H62.5L69.5 115.8H72.3V92.6H60V122.9Z" fill="#A6A5D1"/>
<path d="M66.3 147.5L59.4 140.6H56.5V139.9H59.7L66.8 147L66.3 147.5Z" fill="#5E519C"/>
<path d="M59.8 140.5L59.3 140L66.4 132.8H69.6V133.5H66.7L59.8 140.5Z" fill="#5E519C"/>
<path d="M66.3 133.4L59.4 126.5H56.5V125.8H59.7L66.8 132.9L66.3 133.4Z" fill="#5E519C"/>
<path d="M70 155H69.3V147.7H66.8L59.8 154.8H56.3V123.1H70V155ZM56.9 154H59.4L66.4 146.9H69.2V123.6H56.9V154Z" fill="#5E519C"/>
<path d="M69.4 147.5L62.5 140.6H59.6V139.9H62.8L69.9 147L69.4 147.5Z" fill="#A6A5D1"/>
<path d="M62.9 140.5L62.4 140L69.5 132.8H72.7V133.5H69.8L62.9 140.5Z" fill="#A6A5D1"/>
<path d="M69.4 133.4L62.5 126.5H59.6V125.8H62.8L69.9 132.9L69.4 133.4Z" fill="#A6A5D1"/>
<path d="M73 155H72.3V147.7H69.8L62.8 154.8H59.3V123.1H73V155ZM60 154H62.5L69.5 146.9H72.3V123.6H60V154Z" fill="#A6A5D1"/>
<path d="M60.2 158.3L59.4 157.5H56.5V156.8H59.7L60.7 157.8L60.2 158.3Z" fill="#5E519C"/>
<path d="M70 158.1H69.2V154.7H56.9V158.1H56.2V154H70V158.1Z" fill="#5E519C"/>
<path d="M63.3 158.3L62.5 157.5H59.6V156.8H62.8L63.8 157.8L63.3 158.3Z" fill="#A6A5D1"/>
<path d="M73 158.1H72.3V154.7H60V158.1H59.2V154H73V158.1Z" fill="#A6A5D1"/>
<path d="M111.5 165.6V121.7C111.5 117.8 108.3 114.6 104.4 114.6H91V113.2H104.4C109.1 113.2 113 117 113 121.8V165.7H111.5V165.6Z" fill="#D7D5E8"/>
<path d="M117.3 165.6V121.7C117.3 117.8 114.1 114.6 110.2 114.6H96.8V113.2H110.2C114.9 113.2 118.8 117 118.8 121.8V165.7H117.3V165.6Z" fill="#D7D5E8"/>
<path d="M123.1 165.6V121.7C123.1 117.8 119.9 114.6 116 114.6H102.6V113.2H116C120.7 113.2 124.6 117 124.6 121.8V165.7H123.1V165.6Z" fill="#D7D5E8"/>
<path d="M128.9 165.6V121.7C128.9 117.8 125.7 114.6 121.8 114.6H108.4V113.2H121.8C126.5 113.2 130.4 117 130.4 121.8V165.7H128.9V165.6Z" fill="#D7D5E8"/>
<path d="M140.5 165.6V121.7C140.5 117.8 137.3 114.6 133.4 114.6H120V113.2H133.4C138.1 113.2 142 117 142 121.8V165.7H140.5V165.6Z" fill="#D7D5E8"/>
<path d="M134.7 165.6V121.7C134.7 117.8 131.5 114.6 127.6 114.6H114.2V113.2H127.6C132.3 113.2 136.2 117 136.2 121.8V165.7H134.7V165.6Z" fill="#D7D5E8"/>
<path d="M146.3 165.6V121.7C146.3 117.8 143.1 114.6 139.2 114.6H125.8V113.2H139.2C143.9 113.2 147.8 117 147.8 121.8V165.7H146.3V165.6Z" fill="#D7D5E8"/>
<path fill-rule="evenodd" clip-rule="evenodd" d="M66.3 37.1C66.3 41.7 62.6 45.4 58 45.4C57.9 45.4 57.9 45.4 57.8 45.4C57.8 45.8 57.7 46.1 57.6 46.5V46.6C58.4 46.4 59.2 46.4 60 46.7C62.3 47.5 63.6 50 62.8 52.3C62 54.6 59.5 55.9 57.2 55.1C57 55 56.9 55 56.7 54.9C56.3 55.8 55.6 56.6 54.6 57C54.5 57.1 54.3 57.1 54.2 57.2C54.7 57.7 55.1 58.4 55.1 59.2C55.1 60.7 53.9 62 52.3 62C51 62 49.9 61.1 49.6 59.9H49.5C48 59.9 46.7 58.7 46.7 57.1C46.7 55.9 47.4 54.9 48.4 54.5C47.7 52.6 48.4 50.5 50.1 49.4C47.9 48.2 46.8 45.6 47.6 43.2C48.1 41.8 49 40.8 50.2 40.2C49.8 39.3 49.6 38.2 49.6 37.2C49.6 32.6 53.3 28.9 57.9 28.9C62.6 28.9 66.3 32.6 66.3 37.1Z" fill="#E1E1EF"/>
<path d="M55.7 63.2H48.9V126.5H55.7V63.2Z" fill="#D7D5E8"/>
<path d="M55.7 68.6H48.9V74H55.7V68.6Z" fill="#382E86"/>
<path d="M55.7 79.3H48.9V84.7H55.7V79.3Z" fill="#382E86"/>
<path d="M53.9 75.9H55.5H55.7V76.1V79.3C55.7 79.4 55.6 79.5 55.5 79.5C55.4 79.5 55.3 79.4 55.3 79.3V76.3H54.1V79.3C54.1 79.4 54 79.5 53.9 79.5C53.8 79.5 53.7 79.4 53.7 79.3V76.3H52.5V79.3C52.5 79.4 52.4 79.5 52.3 79.5C52.2 79.5 52.1 79.4 52.1 79.3V76.3H50.9V79.3C50.9 79.4 50.8 79.5 50.7 79.5C50.6 79.5 50.5 79.4 50.5 79.3V76.3H49.3V79.3C49.3 79.4 49.2 79.5 49.1 79.5C49 79.5 48.9 79.4 48.9 79.3V76.1V75.9H49.1H50.7H52.3H53.9Z" fill="#382E86"/>
<path d="M55.7 60.9H48.9V63.3H55.7V60.9Z" fill="#382E86"/>
<path d="M57.7 108.8H47V128.6H57.7V108.8Z" fill="#A6A5D1"/>
<path fill-rule="evenodd" clip-rule="evenodd" d="M47 108.8H57.7L55.8 99.8H48.8L47 108.8Z" fill="#382E86"/>
<path fill-rule="evenodd" clip-rule="evenodd" d="M92 29.1C92 35.1 87.1 40 81 40C80.9 40 80.8 40 80.8 40C80.7 40.5 80.6 41 80.5 41.5L80.4 41.7C81.4 41.5 82.5 41.5 83.6 41.8C86.7 42.8 88.3 46.1 87.3 49.2C86.3 52.3 83 53.9 79.9 52.9C79.7 52.8 79.4 52.7 79.2 52.6C78.7 53.8 77.7 54.8 76.5 55.4C76.3 55.5 76.2 55.6 76 55.6C76.7 56.3 77.2 57.2 77.2 58.3C77.2 60.3 75.5 62 73.5 62C71.8 62 70.3 60.8 69.9 59.2H69.8C67.8 59.2 66.1 57.5 66.1 55.5C66.1 54 67 52.6 68.4 52.1C67.5 49.6 68.4 46.8 70.6 45.3C67.7 43.7 66.3 40.3 67.3 37.1C67.9 35.3 69.2 33.9 70.8 33.1C70.3 31.9 70 30.5 70 29.1C70 23.1 74.9 18.2 80.9 18.2C87.1 18.1 92 23 92 29.1Z" fill="#E1E1EF"/>
<path d="M75.1 63.2H68.3V126.5H75.1V63.2Z" fill="#D7D5E8"/>
<path d="M75.1 68.6H68.3V74H75.1V68.6Z" fill="#382E86"/>
<path d="M75.1 79.3H68.3V84.7H75.1V79.3Z" fill="#382E86"/>
<path d="M73.3 75.9H74.9H75.1V76.1V79.3C75.1 79.4 75 79.5 74.9 79.5C74.8 79.5 74.7 79.4 74.7 79.3V76.3H73.5V79.3C73.5 79.4 73.4 79.5 73.3 79.5C73.2 79.5 73.1 79.4 73.1 79.3V76.3H71.9V79.3C71.9 79.4 71.8 79.5 71.7 79.5C71.6 79.5 71.5 79.4 71.5 79.3V76.3H70.3V79.3C70.3 79.4 70.2 79.5 70.1 79.5C70 79.5 69.9 79.4 69.9 79.3V76.3H68.7V79.3C68.7 79.4 68.6 79.5 68.5 79.5C68.4 79.5 68.3 79.4 68.3 79.3V76.1V75.9H68.5H70.1H71.7H73.3Z" fill="#382E86"/>
<path d="M75.1 60.9H68.3V63.3H75.1V60.9Z" fill="#382E86"/>
<path d="M77.1 108.8H66.4V128.6H77.1V108.8Z" fill="#A6A5D1"/>
<path fill-rule="evenodd" clip-rule="evenodd" d="M66.3 108.8H77L75.2 99.8H68.2L66.3 108.8Z" fill="#382E86"/>
<path fill-rule="evenodd" clip-rule="evenodd" d="M105.3 37.1C105.3 41.7 101.6 45.4 97 45.4C96.9 45.4 96.9 45.4 96.8 45.4C96.8 45.8 96.7 46.1 96.6 46.5V46.6C97.4 46.4 98.2 46.4 99 46.7C101.3 47.5 102.6 50 101.8 52.3C101 54.6 98.5 55.9 96.2 55.1C96 55 95.9 55 95.7 54.9C95.3 55.8 94.6 56.6 93.6 57C93.5 57.1 93.3 57.1 93.2 57.2C93.7 57.7 94.1 58.4 94.1 59.2C94.1 60.7 92.9 62 91.3 62C90 62 88.9 61.1 88.6 59.9H88.5C87 59.9 85.7 58.7 85.7 57.1C85.7 55.9 86.4 54.9 87.4 54.5C86.7 52.6 87.4 50.5 89.1 49.4C86.9 48.2 85.8 45.6 86.6 43.2C87.1 41.8 88 40.8 89.2 40.2C88.8 39.3 88.6 38.2 88.6 37.2C88.6 32.6 92.3 28.9 96.9 28.9C101.6 28.9 105.3 32.6 105.3 37.1Z" fill="#E1E1EF"/>
<path d="M94.7 63.2H87.9V126.5H94.7V63.2Z" fill="#D7D5E8"/>
<path d="M94.7 68.6H87.9V74H94.7V68.6Z" fill="#382E86"/>
<path d="M94.7 79.3H87.9V84.7H94.7V79.3Z" fill="#382E86"/>
<path d="M92.9 75.9H94.5H94.7V76.1V79.3C94.7 79.4 94.6 79.5 94.5 79.5C94.4 79.5 94.3 79.4 94.3 79.3V76.3H93.1V79.3C93.1 79.4 93 79.5 92.9 79.5C92.8 79.5 92.7 79.4 92.7 79.3V76.3H91.5V79.3C91.5 79.4 91.4 79.5 91.3 79.5C91.2 79.5 91.1 79.4 91.1 79.3V76.3H90V79.3C90 79.4 89.9 79.5 89.8 79.5C89.7 79.5 89.6 79.4 89.6 79.3V76.3H88.4V79.3C88.4 79.4 88.3 79.5 88.2 79.5C88.1 79.5 88 79.4 88 79.3V76.1V75.9H88.2H89.8H91.4C91.4 75.9 92.9 75.9 92.9 75.9Z" fill="#382E86"/>
<path d="M94.7 60.9H87.9V63.3H94.7V60.9Z" fill="#382E86"/>
<path d="M96.7 108.8H86V128.6H96.7V108.8Z" fill="#A6A5D1"/>
<path fill-rule="evenodd" clip-rule="evenodd" d="M86 108.8H96.7L94.9 99.8H87.9L86 108.8Z" fill="#382E86"/>
<path fill-rule="evenodd" clip-rule="evenodd" d="M51.6 165.6H105.9V119.3H79.4H51.6V165.6Z" fill="#5E519C"/>
<path d="M169.2 143.4H166.1V147.7H169.2V143.4Z" fill="#A6A5D1"/>
<path d="M163 143.4H159.9V147.7H163V143.4Z" fill="#A6A5D1"/>
<path d="M156.7 143.4H153.6V147.7H156.7V143.4Z" fill="#A6A5D1"/>
<path fill-rule="evenodd" clip-rule="evenodd" d="M105.9 165.6H148.4V146.5H127.7H105.9V165.6Z" fill="#D7D5E8"/>
<path d="M45.4 146.5H27.2V165.6H45.4V146.5Z" fill="#A6A5D1"/>
<path d="M42.1 146.5H16.4V165.6H42.1V146.5Z" fill="#A6A5D1"/>
<path d="M52.3 119.3H42.1V165.7H52.3V119.3Z" fill="#382E86"/>
<path d="M48.4 122.6H46V125H48.4V122.6Z" fill="#5E519C"/>
<path d="M48.4 126.1H46V128.5H48.4V126.1Z" fill="#5E519C"/>
<path d="M48.4 129.7H46V132.1H48.4V129.7Z" fill="#5E519C"/>
<path d="M8.7 7.5V9.9V31H0V9.9V7.5H0.1L2.2 6.2L4.4 5L6.5 6.2L8.7 7.5Z" fill="#5E519C"/>
<path d="M183.7 7.5V9.9V31H192.3V9.9V7.5L190.1 6.2L188 5L185.8 6.2L183.7 7.5Z" fill="#5E519C"/>
<path fill-rule="evenodd" clip-rule="evenodd" d="M0.0999756 5V2.5L2.19998 1.2L4.39998 0L6.49998 1.2L8.69998 2.5V5L6.49998 3.7L4.39998 2.5L2.19998 3.7L0.0999756 5Z" fill="#5E519C"/>
<path d="M174.4 146.5H148.4V165.6H174.4V146.5Z" fill="#A6A5D1"/>
<path d="M91.8105 174.371C91.626 174.592 91.3651 174.764 91.0278 174.887C90.6906 175.008 90.3169 175.068 89.9067 175.068C89.4761 175.068 89.0978 174.975 88.772 174.788C88.4484 174.599 88.1978 174.326 88.02 173.968C87.8446 173.61 87.7546 173.19 87.75 172.707V172.368C87.75 171.871 87.8332 171.442 87.9995 171.08C88.1681 170.715 88.4097 170.437 88.7241 170.246C89.0409 170.052 89.4111 169.955 89.835 169.955C90.4251 169.955 90.8866 170.096 91.2192 170.379C91.5519 170.659 91.749 171.068 91.8105 171.606H90.8125C90.7669 171.321 90.6655 171.113 90.5083 170.98C90.3534 170.848 90.1392 170.782 89.8657 170.782C89.5171 170.782 89.2516 170.913 89.0693 171.175C88.887 171.437 88.7948 171.827 88.7925 172.344V172.662C88.7925 173.184 88.8916 173.578 89.0898 173.845C89.2881 174.111 89.5786 174.245 89.9614 174.245C90.3465 174.245 90.6211 174.163 90.7852 173.999V173.141H89.8521V172.385H91.8105V174.371ZM96.3906 170.854H94.8662V175H93.8408V170.854H92.3369V170.023H96.3906V170.854ZM98.0039 173.247V175H96.9785V170.023H98.9199C99.2936 170.023 99.6217 170.092 99.9043 170.229C100.189 170.365 100.408 170.56 100.561 170.813C100.713 171.064 100.79 171.35 100.79 171.671C100.79 172.159 100.622 172.544 100.287 172.826C99.9544 173.106 99.493 173.247 98.9028 173.247H98.0039ZM98.0039 172.416H98.9199C99.1911 172.416 99.3973 172.352 99.5386 172.225C99.6821 172.097 99.7539 171.915 99.7539 171.678C99.7539 171.434 99.6821 171.237 99.5386 171.086C99.395 170.936 99.1968 170.859 98.9438 170.854H98.0039V172.416ZM102.522 173.247V175H101.497V170.023H103.438C103.812 170.023 104.14 170.092 104.423 170.229C104.708 170.365 104.926 170.56 105.079 170.813C105.232 171.064 105.308 171.35 105.308 171.671C105.308 172.159 105.141 172.544 104.806 172.826C104.473 173.106 104.012 173.247 103.421 173.247H102.522ZM102.522 172.416H103.438C103.71 172.416 103.916 172.352 104.057 172.225C104.201 172.097 104.272 171.915 104.272 171.678C104.272 171.434 104.201 171.237 104.057 171.086C103.914 170.936 103.715 170.859 103.462 170.854H102.522V172.416Z" fill="#3D2777"/>
</g>
<defs>
<clipPath id="clip0">
<rect width="192.3" height="187.1" fill="white"/>
</clipPath>
</defs>
</svg>
