<?xml version="1.0" encoding="utf-8"?>
<!-- Generator: Adobe Illustrator 24.0.1, SVG Export Plug-In . SVG Version: 6.00 Build 0)  -->
<svg version="1.1" id="Layer_1" xmlns="http://www.w3.org/2000/svg" xmlns:xlink="http://www.w3.org/1999/xlink" x="0px" y="0px"
	 viewBox="0 0 173.1 179.5" style="enable-background:new 0 0 173.1 179.5;" xml:space="preserve">
<style type="text/css">
	.st0{fill-rule:evenodd;clip-rule:evenodd;fill:#E1E1EF;}
	.st1{fill:#006EFF;}
	.st2{fill-rule:evenodd;clip-rule:evenodd;fill:#00508C;}
	.st3{fill-rule:evenodd;clip-rule:evenodd;fill:#006EFF;}
	.st4{fill:#00508C;}
	.st5{fill-rule:evenodd;clip-rule:evenodd;fill:#00508C;}
	.st6{fill:#00508C;}
	.st7{fill-rule:evenodd;clip-rule:evenodd;fill:#006EFF;}
	.st8{fill-rule:evenodd;clip-rule:evenodd;fill:#00508C;}
	.st9{fill:#00508C;}
</style>
<g>
	<path class="st0" d="M65.4,17.5c0,5.3-4.3,9.6-9.6,9.6c-0.1,0-0.1,0-0.2,0c0,0.4-0.1,0.8-0.3,1.3v0.1c0.9-0.2,1.9-0.2,2.8,0.1
		c2.7,0.9,4.1,3.8,3.2,6.5c-0.9,2.7-3.8,4.1-6.5,3.2c-0.2-0.1-0.4-0.1-0.6-0.2c-0.5,1-1.3,1.9-2.4,2.5c-0.1,0.1-0.3,0.1-0.4,0.2
		c0.6,0.6,1,1.4,1,2.3c0,1.8-1.4,3.2-3.2,3.2c-1.5,0-2.8-1-3.1-2.4H46c-1.8,0-3.2-1.4-3.2-3.2c0-1.3,0.8-2.5,2-3
		c-0.8-2.2,0-4.6,2-5.9c-2.5-1.4-3.8-4.4-2.9-7.2c0.5-1.6,1.7-2.8,3-3.5c-0.4-1.1-0.7-2.3-0.7-3.5c0-5.3,4.3-9.6,9.6-9.6
		C61.1,7.9,65.4,12.2,65.4,17.5"/>
</g>
<g>
	<path class="st0" d="M48.2,11.5C48.2,17.9,43,23,36.7,23c-0.1,0-0.2,0-0.3,0c-0.1,0.5-0.2,1-0.3,1.5L36,24.7
		c1.1-0.3,2.2-0.2,3.4,0.1c3.2,1.1,5,4.6,3.9,7.8s-4.6,5-7.8,3.9c-0.2-0.1-0.5-0.2-0.7-0.3c-0.6,1.3-1.5,2.3-2.9,3
		c-0.2,0.1-0.4,0.2-0.5,0.2c0.8,0.7,1.2,1.7,1.2,2.8c0,2.1-1.7,3.9-3.9,3.9c-1.8,0-3.4-1.2-3.8-2.9h-0.1c-2.2,0-3.9-1.7-3.9-3.9
		c0-1.6,1-3,2.4-3.6c-0.9-2.6,0-5.6,2.4-7.2c-3-1.6-4.6-5.3-3.4-8.7c0.6-1.9,2-3.4,3.7-4.2c-0.5-1.3-0.8-2.7-0.8-4.2
		C25.1,5.2,30.3,0,36.6,0C43,0,48.2,5.2,48.2,11.5"/>
</g>
<g>
	<path class="st1" d="M109.1,63V47.2c0-1.9,0.8-3.7,2-4.9l0,0l0,0c1.3-1.3,3-2,4.9-2h2.6c1.9,0,3.7,0.8,4.9,2l0,0c1.3,1.3,2,3,2,4.9
		V174h-1.4V47.2c0-1.5-0.6-3-1.6-4l0,0c-1-1-2.4-1.6-4-1.6h-2.6c-1.5,0-3,0.6-4,1.6l0,0c-1,1-1.6,2.4-1.6,4V63H109.1z"/>
</g>
<g>
	<path class="st1" d="M80.6,63V47.2c0-1.9,0.8-3.7,2-4.9l0,0l0,0c1.3-1.3,3-2,4.9-2h2.6c1.9,0,3.7,0.8,4.9,2l0,0c1.3,1.3,2,3,2,4.9
		V174h-1.2V47.2c0-1.5-0.6-3-1.6-4l0,0c-1-1-2.4-1.6-4-1.6h-2.6c-1.5,0-3,0.6-4,1.6l0,0c-1,1-1.6,2.4-1.6,4V63H80.6z"/>
</g>
<g>
	<rect x="77.9" y="46" class="st2" width="6.8" height="2.4"/>
</g>
<g>
	<rect x="106.3" y="46" class="st2" width="6.8" height="2.4"/>
</g>
<g>
	<path class="st3" d="M76.6,132v-8.7h-6v8.7h-0.8v-8.7v-0.9V117v-0.9v-5.4v-0.9v-5.4v-0.9V98v-0.9v-5.4v-0.9v-5.4v-0.9v-5.4v-0.9
		v-5.4v-0.9v-5.6v-0.9h0.8h6h0.8v0.9v5.6v0.9v5.4v0.9v5.4v0.9v5.4v0.9v5.4V98v5.4v0.9v5.4v0.9v5.4v0.9v5.4v0.9v8.7L76.6,132
		L76.6,132z M76.6,66.3h-6v5.6h6V66.3z M76.6,72.8h-6v5.4h6V72.8z M76.6,79.1h-6v5.4h6V79.1z M76.6,85.4h-6v5.4h6V85.4z M76.6,91.7
		h-6v5.4h6V91.7z M76.6,98h-6v5.4h6V98z M76.6,104.3h-6v5.4h6V104.3z M76.6,110.7h-6v5.4h6V110.7z M76.6,117h-6v5.4h6V117z"/>
</g>
<g>
	<path class="st3" d="M83.2,58.5h-8.8c-0.5,0-1-0.4-1-1v-3.4h9.8V58.5z"/>
</g>
<g>
	<path class="st2" d="M84.7,54.8H72c-0.4,0-0.7-0.3-0.7-0.7V54c0-0.4,0.3-0.7,0.7-0.7h12.7c0.4,0,0.7,0.3,0.7,0.7v0.1
		C85.3,54.5,85,54.8,84.7,54.8"/>
</g>
<g>
	<path class="st2" d="M90.7,60.9H73.2c-0.9,0-1.6-0.7-1.6-1.6V59c0-0.9,0.7-1.5,1.6-1.5h17.5c0.9,0,1.6,0.7,1.6,1.5v0.3
		C92.2,60.2,91.5,60.9,90.7,60.9"/>
</g>
<g>
	<rect x="72.9" y="58.8" class="st3" width="18" height="1.1"/>
</g>
<g>
	<path class="st3" d="M86.1,57.5h-1.5v-5.8c0-0.4,0.3-0.7,0.7-0.7h0.1c0.4,0,0.7,0.3,0.7,0.7C86.1,51.7,86.1,57.5,86.1,57.5z"/>
</g>
<g>
	<path class="st3" d="M105.1,132v-8.7h-6v8.7h-0.8v-8.7v-0.9V117v-0.9v-5.4v-0.9v-5.4v-0.9V98v-0.9v-5.4v-0.9v-5.4v-0.9v-5.4v-0.9
		v-5.4v-0.9v-5.6v-0.9h0.8h6h0.8v0.9v5.6v0.9v5.4v0.9v5.4v0.9v5.4v0.9v5.4V98v5.4v0.9v5.4v0.9v5.4v0.9v5.4v0.9v8.7L105.1,132
		L105.1,132z M105.1,66.3h-6v5.6h6V66.3z M105.1,72.8h-6v5.4h6V72.8z M105.1,79.1h-6v5.4h6V79.1z M105.1,85.4h-6v5.4h6V85.4z
		 M105.1,91.7h-6v5.4h6V91.7z M105.1,98h-6v5.4h6V98z M105.1,104.3h-6v5.4h6V104.3z M105.1,110.7h-6v5.4h6V110.7z M105.1,117h-6v5.4
		h6V117z"/>
</g>
<g>
	<path class="st3" d="M111.7,58.5h-8.8c-0.5,0-1-0.4-1-1v-3.4h9.8V58.5z"/>
</g>
<g>
	<path class="st2" d="M113.2,54.8h-12.7c-0.4,0-0.7-0.3-0.7-0.7V54c0-0.4,0.3-0.7,0.7-0.7h12.7c0.4,0,0.7,0.3,0.7,0.7v0.1
		C113.8,54.5,113.5,54.8,113.2,54.8"/>
</g>
<g>
	<path class="st2" d="M119.2,60.9h-17.5c-0.9,0-1.6-0.7-1.6-1.6V59c0-0.9,0.7-1.5,1.6-1.5h17.5c0.9,0,1.6,0.7,1.6,1.5v0.3
		C120.7,60.2,120,60.9,119.2,60.9"/>
</g>
<g>
	<rect x="101.4" y="58.8" class="st3" width="18" height="1.1"/>
</g>
<g>
	<path class="st3" d="M114.6,57.5h-1.5v-5.8c0-0.4,0.3-0.7,0.7-0.7h0.1c0.4,0,0.7,0.3,0.7,0.7C114.6,51.7,114.6,57.5,114.6,57.5z"/>
</g>
<g>
	<path class="st4" d="M64,179.7h-1.5v-59.5c0-2.8-2.2-5-5-5h-8.7v-1.5h8.7c3.6,0,6.5,2.9,6.5,6.5V179.7z"/>
</g>
<g>
	<path class="st1" d="M150.4,159.6h-1.5V78.3c0-2.8-2.2-5-5-5H99.1v-1.5h44.8c3.6,0,6.5,2.9,6.5,6.5V159.6z"/>
</g>
<g>
	<path class="st4" d="M140.7,159.6h-1.5V78.3c0-2.8-2.2-5-5-5H89.4v-1.5h44.8c3.6,0,6.5,2.9,6.5,6.5V159.6z"/>
</g>
<g>
	<path class="st4" d="M70.5,179.7H69v-59.5c0-2.8-2.2-5-5-5h-8.7v-1.5H64c3.6,0,6.5,2.9,6.5,6.5V179.7z"/>
</g>
<g>
	<path class="st4" d="M78.1,179.7h-1.5v-59.5c0-2.8-2.2-5-5-5h-8.7v-1.5h8.7c3.6,0,6.5,2.9,6.5,6.5V179.7z"/>
</g>
<g>
	<polygon class="st4" points="92.3,110.2 85.4,103.2 82.5,103.2 82.5,102.5 85.7,102.5 92.8,109.7 	"/>
</g>
<g>
	<polygon class="st4" points="85.8,103.1 85.3,102.6 92.4,95.5 95.6,95.5 95.6,96.2 92.7,96.2 	"/>
</g>
<g>
	<polygon class="st4" points="92.3,96.1 85.4,89.1 82.5,89.1 82.5,88.4 85.7,88.4 92.8,95.6 	"/>
</g>
<g>
	<path class="st4" d="M95.9,117.6h-0.7v-7.3h-2.5l-7,7.1h-3.5V85.6H96L95.9,117.6L95.9,117.6z M82.9,116.6h2.5l7-7.1h2.8V86.3H82.9
		V116.6z"/>
</g>
<g>
	<polygon class="st1" points="95.4,110.2 88.5,103.2 85.6,103.2 85.6,102.5 88.8,102.5 95.9,109.7 	"/>
</g>
<g>
	<polygon class="st1" points="88.9,103.1 88.4,102.6 95.5,95.5 98.7,95.5 98.7,96.2 95.8,96.2 	"/>
</g>
<g>
	<polygon class="st1" points="95.4,96.1 88.5,89.1 85.6,89.1 85.6,88.4 88.8,88.4 95.9,95.6 	"/>
</g>
<g>
	<path class="st1" d="M99,117.6h-0.7v-7.3h-2.5l-7,7.1h-3.5V85.6h13.8v32H99z M85.9,116.6h2.5l7-7.1h2.8V86.3H85.9V116.6z"/>
</g>
<g>
	<polygon class="st4" points="92.3,141.2 85.4,134.2 82.5,134.2 82.5,133.5 85.7,133.5 92.8,140.7 	"/>
</g>
<g>
	<polygon class="st4" points="85.8,134.1 85.3,133.6 92.4,126.5 95.6,126.5 95.6,127.2 92.7,127.2 	"/>
</g>
<g>
	<polygon class="st4" points="92.3,127.1 85.4,120.1 82.5,120.1 82.5,119.4 85.7,119.4 92.8,126.6 	"/>
</g>
<g>
	<path class="st4" d="M95.9,148.6h-0.7v-7.3h-2.5l-7,7.1h-3.5v-31.7H96L95.9,148.6L95.9,148.6z M82.9,147.6h2.5l7-7.1h2.8v-23.3
		H82.9V147.6z"/>
</g>
<g>
	<polygon class="st1" points="95.4,141.2 88.5,134.2 85.6,134.2 85.6,133.5 88.8,133.5 95.9,140.7 	"/>
</g>
<g>
	<polygon class="st1" points="88.9,134.1 88.4,133.6 95.5,126.5 98.7,126.5 98.7,127.2 95.8,127.2 	"/>
</g>
<g>
	<polygon class="st1" points="95.4,127.1 88.5,120.1 85.6,120.1 85.6,119.4 88.8,119.4 95.9,126.6 	"/>
</g>
<g>
	<path class="st1" d="M99,148.6h-0.7v-7.3h-2.5l-7,7.1h-3.5v-31.7h13.8v31.9H99z M85.9,147.6h2.5l7-7.1h2.8v-23.3H85.9V147.6z"/>
</g>
<g>
	<polygon class="st4" points="92.3,172.2 85.4,165.3 82.5,165.3 82.5,164.5 85.7,164.5 92.8,171.7 	"/>
</g>
<g>
	<polygon class="st4" points="85.8,165.1 85.3,164.6 92.4,157.5 95.6,157.5 95.6,158.2 92.7,158.2 	"/>
</g>
<g>
	<polygon class="st4" points="92.3,158.1 85.4,151.1 82.5,151.1 82.5,150.4 85.7,150.4 92.8,157.6 	"/>
</g>
<g>
	<path class="st4" d="M95.9,179.7h-0.7v-7.3h-2.5l-7,7.1h-3.5v-31.7H96L95.9,179.7L95.9,179.7z M82.9,178.6h2.5l7-7.1h2.8v-23.3
		H82.9V178.6z"/>
</g>
<g>
	<polygon class="st1" points="95.4,172.2 88.5,165.3 85.6,165.3 85.6,164.5 88.8,164.5 95.9,171.7 	"/>
</g>
<g>
	<polygon class="st1" points="88.9,165.1 88.4,164.6 95.5,157.5 98.7,157.5 98.7,158.2 95.8,158.2 	"/>
</g>
<g>
	<polygon class="st1" points="95.4,158.1 88.5,151.1 85.6,151.1 85.6,150.4 88.8,150.4 95.9,157.6 	"/>
</g>
<g>
	<path class="st1" d="M99,179.7h-0.7v-7.3h-2.5l-7,7.1h-3.5v-31.7h13.8v31.9H99z M85.9,178.6h2.5l7-7.1h2.8v-23.3H85.9V178.6z"/>
</g>
<g>
	<polygon class="st4" points="108.5,110.2 101.5,103.2 98.7,103.2 98.7,102.5 101.8,102.5 109,109.7 	"/>
</g>
<g>
	<polygon class="st4" points="101.9,103.1 101.4,102.6 108.6,95.5 111.7,95.5 111.7,96.2 108.9,96.2 	"/>
</g>
<g>
	<polygon class="st4" points="108.5,96.1 101.5,89.1 98.7,89.1 98.7,88.4 101.8,88.4 109,95.6 	"/>
</g>
<g>
	<path class="st4" d="M112.1,117.6h-0.7v-7.3h-2.5l-7,7.1h-3.5V85.6h13.8v32H112.1z M99,116.6h2.5l7-7.1h2.8V86.3H98.9L99,116.6
		L99,116.6z"/>
</g>
<g>
	<polygon class="st1" points="111.6,110.2 104.6,103.2 101.8,103.2 101.8,102.5 104.9,102.5 112.1,109.7 	"/>
</g>
<g>
	<polygon class="st1" points="105,103.1 104.5,102.6 111.7,95.5 114.8,95.5 114.8,96.2 112,96.2 	"/>
</g>
<g>
	<polygon class="st1" points="111.6,96.1 104.6,89.1 101.8,89.1 101.8,88.4 104.9,88.4 112.1,95.6 	"/>
</g>
<g>
	<path class="st1" d="M115.2,117.6h-0.7v-7.3H112l-7,7.1h-3.5V85.6h13.8v32H115.2z M102.1,116.6h2.5l7-7.1h2.8V86.3H102L102.1,116.6
		L102.1,116.6z"/>
</g>
<g>
	<polygon class="st4" points="108.5,141.2 101.5,134.2 98.7,134.2 98.7,133.5 101.8,133.5 109,140.7 	"/>
</g>
<g>
	<polygon class="st4" points="101.9,134.1 101.4,133.6 108.6,126.5 111.7,126.5 111.7,127.2 108.9,127.2 	"/>
</g>
<g>
	<polygon class="st4" points="108.5,127.1 101.5,120.1 98.7,120.1 98.7,119.4 101.8,119.4 109,126.6 	"/>
</g>
<g>
	<path class="st4" d="M112.1,148.6h-0.7v-7.3h-2.5l-7,7.1h-3.5v-31.7h13.8v31.9H112.1z M99,147.6h2.5l7-7.1h2.8v-23.3H98.9L99,147.6
		L99,147.6z"/>
</g>
<g>
	<polygon class="st1" points="111.6,141.2 104.6,134.2 101.8,134.2 101.8,133.5 104.9,133.5 112.1,140.7 	"/>
</g>
<g>
	<polygon class="st1" points="105,134.1 104.5,133.6 111.7,126.5 114.8,126.5 114.8,127.2 112,127.2 	"/>
</g>
<g>
	<polygon class="st1" points="111.6,127.1 104.6,120.1 101.8,120.1 101.8,119.4 104.9,119.4 112.1,126.6 	"/>
</g>
<g>
	<path class="st1" d="M115.2,148.6h-0.7v-7.3H112l-7,7.1h-3.5v-31.7h13.8v31.9H115.2z M102.1,147.6h2.5l7-7.1h2.8v-23.3H102
		L102.1,147.6L102.1,147.6z"/>
</g>
<g>
	<polygon class="st4" points="108.5,172.2 101.5,165.3 98.7,165.3 98.7,164.5 101.8,164.5 109,171.7 	"/>
</g>
<g>
	<polygon class="st4" points="101.9,165.1 101.4,164.6 108.6,157.5 111.7,157.5 111.7,158.2 108.9,158.2 	"/>
</g>
<g>
	<polygon class="st4" points="108.5,158.1 101.5,151.1 98.7,151.1 98.7,150.4 101.8,150.4 109,157.6 	"/>
</g>
<g>
	<path class="st4" d="M112.1,179.7h-0.7v-7.3h-2.5l-7,7.1h-3.5v-31.7h13.8v31.9H112.1z M99,178.6h2.5l7-7.1h2.8v-23.3H98.9L99,178.6
		L99,178.6z"/>
</g>
<g>
	<polygon class="st1" points="111.6,172.2 104.6,165.3 101.8,165.3 101.8,164.5 104.9,164.5 112.1,171.7 	"/>
</g>
<g>
	<polygon class="st1" points="105,165.1 104.5,164.6 111.7,157.5 114.8,157.5 114.8,158.2 112,158.2 	"/>
</g>
<g>
	<polygon class="st1" points="111.6,158.1 104.6,151.1 101.8,151.1 101.8,150.4 104.9,150.4 112.1,157.6 	"/>
</g>
<g>
	<path class="st1" d="M115.2,179.7h-0.7v-7.3H112l-7,7.1h-3.5v-31.7h13.8v31.9H115.2z M102.1,178.6h2.5l7-7.1h2.8v-23.3H102
		L102.1,178.6L102.1,178.6z"/>
</g>
<g>
	<polygon class="st4" points="124.6,110.2 117.7,103.2 114.8,103.2 114.8,102.5 118,102.5 125.1,109.7 	"/>
</g>
<g>
	<polygon class="st4" points="118.1,103.1 117.6,102.6 124.7,95.5 127.9,95.5 127.9,96.2 125,96.2 	"/>
</g>
<g>
	<polygon class="st4" points="124.6,96.1 117.7,89.1 114.8,89.1 114.8,88.4 118,88.4 125.1,95.6 	"/>
</g>
<g>
	<path class="st4" d="M128.3,117.6h-0.7v-7.3h-2.5l-7,7.1h-3.5V85.6h13.8v32H128.3z M115.2,116.6h2.5l7-7.1h2.8V86.3h-12.4
		L115.2,116.6C115.1,116.6,115.2,116.6,115.2,116.6z"/>
</g>
<g>
	<polygon class="st1" points="127.7,110.2 120.8,103.2 117.9,103.2 117.9,102.5 121.1,102.5 128.2,109.7 	"/>
</g>
<g>
	<polygon class="st1" points="121.2,103.1 120.7,102.6 127.8,95.5 131,95.5 131,96.2 128.1,96.2 	"/>
</g>
<g>
	<polygon class="st1" points="127.7,96.1 120.8,89.1 117.9,89.1 117.9,88.4 121.1,88.4 128.2,95.6 	"/>
</g>
<g>
	<path class="st1" d="M131.3,117.6h-0.7v-7.3h-2.5l-7,7.1h-3.5V85.6h13.8v32H131.3z M118.3,116.6h2.5l7-7.1h2.8V86.3h-12.4
		L118.3,116.6L118.3,116.6z"/>
</g>
<g>
	<polygon class="st4" points="124.6,141.2 117.7,134.2 114.8,134.2 114.8,133.5 118,133.5 125.1,140.7 	"/>
</g>
<g>
	<polygon class="st4" points="118.1,134.1 117.6,133.6 124.7,126.5 127.9,126.5 127.9,127.2 125,127.2 	"/>
</g>
<g>
	<polygon class="st4" points="124.6,127.1 117.7,120.1 114.8,120.1 114.8,119.4 118,119.4 125.1,126.6 	"/>
</g>
<g>
	<path class="st4" d="M128.3,148.6h-0.7v-7.3h-2.5l-7,7.1h-3.5v-31.7h13.8v31.9H128.3z M115.2,147.6h2.5l7-7.1h2.8v-23.3h-12.4
		L115.2,147.6L115.2,147.6L115.2,147.6z"/>
</g>
<g>
	<polygon class="st1" points="127.7,141.2 120.8,134.2 117.9,134.2 117.9,133.5 121.1,133.5 128.2,140.7 	"/>
</g>
<g>
	<polygon class="st1" points="121.2,134.1 120.7,133.6 127.8,126.5 131,126.5 131,127.2 128.1,127.2 	"/>
</g>
<g>
	<polygon class="st1" points="127.7,127.1 120.8,120.1 117.9,120.1 117.9,119.4 121.1,119.4 128.2,126.6 	"/>
</g>
<g>
	<path class="st1" d="M131.3,148.6h-0.7v-7.3h-2.5l-7,7.1h-3.5v-31.7h13.8v31.9H131.3z M118.3,147.6h2.5l7-7.1h2.8v-23.3h-12.4
		L118.3,147.6L118.3,147.6z"/>
</g>
<g>
	<polygon class="st4" points="124.6,172.2 117.7,165.3 114.8,165.3 114.8,164.5 118,164.5 125.1,171.7 	"/>
</g>
<g>
	<polygon class="st4" points="118.1,165.1 117.6,164.6 124.7,157.5 127.9,157.5 127.9,158.2 125,158.2 	"/>
</g>
<g>
	<polygon class="st4" points="124.6,158.1 117.7,151.1 114.8,151.1 114.8,150.4 118,150.4 125.1,157.6 	"/>
</g>
<g>
	<path class="st4" d="M128.3,179.7h-0.7v-7.3h-2.5l-7,7.1h-3.5v-31.7h13.8v31.9H128.3z M115.2,178.6h2.5l7-7.1h2.8v-23.3h-12.4
		L115.2,178.6L115.2,178.6L115.2,178.6z"/>
</g>
<g>
	<polygon class="st1" points="127.7,172.2 120.8,165.3 117.9,165.3 117.9,164.5 121.1,164.5 128.2,171.7 	"/>
</g>
<g>
	<polygon class="st1" points="121.2,165.1 120.7,164.6 127.8,157.5 131,157.5 131,158.2 128.1,158.2 	"/>
</g>
<g>
	<polygon class="st1" points="127.7,158.1 120.8,151.1 117.9,151.1 117.9,150.4 121.1,150.4 128.2,157.6 	"/>
</g>
<g>
	<path class="st1" d="M131.3,179.7h-0.7v-7.3h-2.5l-7,7.1h-3.5v-31.7h13.8v31.9H131.3z M118.3,178.6h2.5l7-7.1h2.8v-23.3h-12.4
		L118.3,178.6L118.3,178.6z"/>
</g>
<g>
	<rect x="24" y="48.4" class="st3" width="6.8" height="118.2"/>
</g>
<g>
	<rect x="24" y="97.3" class="st5" width="6.8" height="2.4"/>
</g>
<g>
	<rect x="24" y="63.6" class="st5" width="6.8" height="2.4"/>
</g>
<g>
	<rect x="24" y="46" class="st5" width="6.8" height="2.4"/>
</g>
<g>
	<rect x="21.1" y="61.2" class="st2" width="12.6" height="2.4"/>
</g>
<g>
	<rect x="45.8" y="48.4" class="st3" width="6.8" height="118.2"/>
</g>
<g>
	<rect x="45.8" y="97.3" class="st5" width="6.8" height="2.4"/>
</g>
<g>
	<rect x="45.8" y="63.6" class="st5" width="6.8" height="2.4"/>
</g>
<g>
	<rect x="45.8" y="46" class="st5" width="6.8" height="2.4"/>
</g>
<g>
	<path class="st6" d="M55.6,95.5c0,0.2-0.2,0.4-0.4,0.4s-0.4-0.2-0.4-0.4v-3.1h-2.1v3.1c0,0.2-0.2,0.4-0.4,0.4s-0.4-0.2-0.4-0.4
		v-3.1h-2.1v3.1c0,0.2-0.2,0.4-0.4,0.4s-0.6-0.2-0.6-0.4v-3.1h-2.1v3.1c0,0.2-0.2,0.4-0.4,0.4s-0.4-0.2-0.4-0.4v-3.1h-2.1v3.1
		c0,0.2-0.2,0.4-0.4,0.4S43,95.7,43,95.5V92v-0.4h0.4h2.9l0,0l0,0h2.9l0,0l0,0h2.9l0,0l0,0H55h0.4V92v3.5H55.6z"/>
</g>
<g>
	<path class="st6" d="M33.7,95.5c0,0.2-0.2,0.4-0.4,0.4s-0.4-0.2-0.4-0.4v-3.1h-2.1v3.1c0,0.2-0.2,0.4-0.4,0.4S30,95.7,30,95.5v-3.1
		h-2.2v3.1c0,0.2-0.2,0.4-0.4,0.4S27,95.7,27,95.5v-3.1h-2.2v3.1c0,0.2-0.2,0.4-0.4,0.4c-0.2,0-0.4-0.2-0.4-0.4v-3.1h-2.1v3.1
		c0,0.2-0.2,0.4-0.4,0.4s-0.4-0.2-0.4-0.4V92v-0.4h0.4h2.9l0,0l0,0h2.9l0,0l0,0h2.9l0,0l0,0h2.9h0.4V92v3.5H33.7z"/>
</g>
<g>
	<path class="st6" d="M30.3,57.3L30.3,57.3L30.3,57.3h3h0.4v0.4v3.5c0,0.2-0.2,0.4-0.4,0.4s-0.4-0.2-0.4-0.4v-3.1h-2.1v3.1
		c0,0.2-0.2,0.4-0.4,0.4S30,61.4,30,61.2v-3.1h-2.2v3.1c0,0.2-0.2,0.4-0.4,0.4S27,61.4,27,61.2v-3.1h-2.2v3.1c0,0.2-0.2,0.4-0.4,0.4
		c-0.2,0-0.4-0.2-0.4-0.4v-3.1h-2.1v3.1c0,0.2-0.2,0.4-0.4,0.4s-0.4-0.2-0.4-0.4v-3.5v-0.4h0.4h2.9l0,0l0,0h2.9l0,0l0,0H30.3z"/>
</g>
<g>
	<path class="st6" d="M52.2,57.3L52.2,57.3L52.2,57.3h3h0.4v0.4v3.5c0,0.2-0.2,0.4-0.4,0.4s-0.4-0.2-0.4-0.4v-3.1h-2.1v3.1
		c0,0.2-0.2,0.4-0.4,0.4s-0.4-0.2-0.4-0.4v-3.1h-2.1v3.1c0,0.2-0.2,0.4-0.4,0.4s-0.6-0.2-0.6-0.4v-3.1h-2.1v3.1
		c0,0.2-0.2,0.4-0.4,0.4s-0.4-0.2-0.4-0.4v-3.1h-2.1v3.1c0,0.2-0.2,0.4-0.4,0.4S43,61.4,43,61.2v-3.5v-0.4h0.4h2.9l0,0l0,0h2.9l0,0
		l0,0H52.2z"/>
</g>
<g>
	<rect x="42.9" y="94.9" class="st2" width="12.6" height="2.4"/>
</g>
<g>
	<rect x="42.9" y="61.2" class="st2" width="12.6" height="2.4"/>
</g>
<g>
	<rect x="88.5" y="69.2" class="st5" width="2.4" height="6.8"/>
</g>
<g>
	<rect x="135.2" y="147.4" class="st2" width="9.6" height="32.2"/>
</g>
<g>
	<rect x="135.2" y="147.4" class="st2" width="9.6" height="32.2"/>
</g>
<g>
	<polygon class="st7" points="144.7,179.7 154.3,179.7 154.3,147.4 149.6,147.4 144.7,147.4 	"/>
</g>
<g>
	<polygon class="st3" points="39.1,176.9 16.1,176.9 16.1,153.6 35.9,147.4 61.8,147.4 	"/>
</g>
<g>
	<rect x="16.1" y="153.5" class="st2" width="22.9" height="26.1"/>
</g>
<g>
	<polygon class="st7" points="61.8,147.4 39.1,153.6 39.1,179.7 61.8,179.7 	"/>
</g>
<g>
	<rect x="46.2" y="171.6" class="st2" width="2.4" height="2.4"/>
</g>
<g>
	<rect x="49.7" y="171.6" class="st2" width="2.4" height="2.4"/>
</g>
<g>
	<rect x="53.2" y="171.6" class="st2" width="2.4" height="2.4"/>
</g>
<g>
	<rect x="21.1" y="94.9" class="st2" width="12.6" height="2.4"/>
</g>
<g>
	<rect y="12.8" class="st8" width="8.7" height="20.3"/>
</g>
<g>
	<path class="st9" d="M22,13.3l-2,4.5c-0.2,0.6-0.5,1-0.7,1.2s-0.5,0.4-0.8,0.6c-0.3,0.1-0.7,0.2-1.1,0.2s-0.7,0-1-0.1v-1.2
		c0.3,0.1,0.6,0.2,1,0.2c0.2,0,0.4-0.1,0.6-0.2s0.3-0.3,0.4-0.6l-2.2-4.6h1.4l1.6,3.6l0,0l0.1-0.2l1.3-3.4
		C20.6,13.3,22,13.3,22,13.3z"/>
    <path class="st9" d="M25.7,14.4c-0.5,0-0.9,0.2-1.2,0.6c-0.3,0.4-0.4,0.9-0.4,1.6c0,1.4,0.5,2.1,1.6,2.1c0.5,0,1-0.1,1.6-0.3v1.1
		c-0.5,0.2-1.1,0.3-1.8,0.3c-0.9,0-1.6-0.3-2.1-0.9s-0.7-1.4-0.7-2.4c0-0.7,0.1-1.3,0.4-1.8s0.6-0.9,1-1.2c0.5-0.3,1-0.4,1.6-0.4
		s1.3,0.2,1.9,0.5l-0.4,1.1c-0.2-0.1-0.5-0.2-0.7-0.3C26.1,14.4,25.9,14.4,25.7,14.4z"/>
    <path class="st9" d="M31.4,19.8H30v-5.3h-1.7v-1.1h4.8v1.1h-1.7C31.4,14.5,31.4,19.8,31.4,19.8z"/>
    <path class="st9" d="M37.9,19.8l-0.5-1.5h-2.3l-0.5,1.5h-1.5l2.3-6.5h1.7l2.3,6.5H37.9z M37.1,17.1c-0.4-1.4-0.7-2.2-0.7-2.4
		s-0.1-0.3-0.1-0.4c-0.1,0.4-0.4,1.3-0.8,2.8H37.1z"/>
    <path class="st9" d="M46.2,19.8h-1.4V17h-2.5v2.8h-1.4v-6.4h1.4v2.5h2.5v-2.5h1.4V19.8z"/>
    <path class="st9" d="M53.8,16.5c0,1.1-0.3,1.9-0.8,2.5s-1.3,0.9-2.3,0.9S49,19.6,48.4,19c-0.5-0.6-0.8-1.4-0.8-2.5s0.3-1.9,0.8-2.4
		c0.5-0.6,1.3-0.8,2.3-0.8s1.7,0.3,2.3,0.9C53.5,14.6,53.8,15.5,53.8,16.5z M49.1,16.5c0,0.7,0.1,1.3,0.4,1.6
		c0.3,0.4,0.7,0.5,1.2,0.5c1.1,0,1.6-0.7,1.6-2.2c0-1.4-0.5-2.2-1.6-2.2c-0.5,0-1,0.2-1.2,0.5C49.2,15.3,49.1,15.8,49.1,16.5z"/>
    <path class="st9" d="M55.9,13.3h2c0.9,0,1.6,0.1,2,0.4c0.4,0.3,0.6,0.7,0.6,1.2c0,0.4-0.1,0.7-0.3,0.9s-0.4,0.4-0.7,0.4l0,0
		c0.4,0.1,0.7,0.3,0.9,0.5s0.3,0.6,0.3,1c0,0.6-0.2,1-0.6,1.4c-0.4,0.3-1,0.5-1.7,0.5H56L55.9,13.3C56,13.3,55.9,13.3,55.9,13.3z
		 M57.3,15.9h0.8c0.4,0,0.6-0.1,0.8-0.2c0.2-0.1,0.2-0.3,0.2-0.6c0-0.2-0.1-0.4-0.3-0.5s-0.5-0.2-0.9-0.2h-0.7L57.3,15.9L57.3,15.9z
		 M57.3,17v1.7h0.9c0.4,0,0.7-0.1,0.8-0.2s0.3-0.4,0.3-0.7c0-0.5-0.4-0.8-1.1-0.8H57.3z"/>
    <path class="st9" d="M68.1,19.8h-1.5l-2.3-3.3v3.3h-1.4v-6.4h1.4v3.1l2.3-3.1H68l-2.3,3.1L68.1,19.8z"/>
    <path class="st9" d="M73.8,19.8l-0.5-1.5H71l-0.5,1.5H69l2.3-6.5H73l2.3,6.5H73.8z M73,17.1c-0.4-1.4-0.7-2.2-0.7-2.4
		s-0.1-0.3-0.1-0.4c-0.1,0.4-0.4,1.3-0.8,2.8H73z"/>
    <path class="st9" d="M79.1,18.6h0.5c0.4-0.8,0.8-1.7,1-2.5c0.2-0.8,0.4-1.8,0.5-2.7h3.7v5.3h1v3h-1.3v-1.9h-4v1.9h-1.3L79.1,18.6
		L79.1,18.6z M82.2,14.5c-0.1,0.7-0.3,1.4-0.5,2.1c-0.2,0.8-0.5,1.4-0.7,2h2.5v-4.2L82.2,14.5L82.2,14.5z"/>
    <path class="st9" d="M90.6,19.8h-3.7v-6.4h3.7v1.1h-2.3v1.4h2.2V17h-2.2v1.7h2.3V19.8z"/>
    <path class="st9" d="M95.9,13.3v1.1h-2.7v5.3h-1.4v-6.4C91.8,13.3,95.9,13.3,95.9,13.3z"/>
    <path class="st9" d="M96.9,13.3h1.2v3.1v0.8v0.9l0,0l3-4.9h1.6v6.4h-1.2v-3.1c0-0.4,0-1,0.1-1.8l0,0l-3,4.9H97L96.9,13.3L96.9,13.3
		z"/>
    <path class="st9" d="M104.1,18.6h0.5c0.4-0.8,0.8-1.7,1-2.5c0.2-0.8,0.4-1.8,0.5-2.7h3.7v5.3h0.9v3h-1.3v-1.9h-4v1.9h-1.3
		C104.1,21.7,104.1,18.6,104.1,18.6z M107.2,14.5c-0.1,0.7-0.3,1.4-0.5,2.1c-0.2,0.8-0.5,1.4-0.7,2h2.5v-4.2L107.2,14.5L107.2,14.5z
		"/>
    <path class="st9" d="M116.3,15.3c0,0.7-0.2,1.2-0.6,1.6s-1,0.5-1.8,0.5h-0.6v2.3h-1.5v-6.4h2.1c0.8,0,1.4,0.2,1.8,0.5
		C116.1,14.2,116.3,14.7,116.3,15.3z M113.2,16.4h0.4c0.4,0,0.7-0.1,0.9-0.2c0.2-0.2,0.3-0.4,0.3-0.7s-0.1-0.6-0.3-0.7
		s-0.4-0.2-0.8-0.2h-0.6L113.2,16.4L113.2,16.4z"/>
    <path class="st9" d="M117.8,13.3h1.2v3.1v0.8v0.9l0,0l3-4.9h1.6v6.4h-1.2v-3.1c0-0.4,0-1,0.1-1.8l0,0l-3,4.9h-1.7V13.3z"/>
    <path class="st9" d="M130.3,15.3c0,0.7-0.2,1.2-0.6,1.6c-0.4,0.4-1,0.5-1.8,0.5h-0.6v2.3h-1.5v-6.4h2.1c0.8,0,1.4,0.2,1.8,0.5
		C130.1,14.2,130.3,14.7,130.3,15.3z M127.2,16.4h0.4c0.4,0,0.7-0.1,0.9-0.2c0.2-0.2,0.3-0.4,0.3-0.7s-0.1-0.6-0.3-0.7
		s-0.4-0.2-0.8-0.2h-0.6L127.2,16.4L127.2,16.4z"/>
    <path class="st9" d="M137.6,16.5c0,1.1-0.3,1.9-0.8,2.5s-1.3,0.9-2.3,0.9s-1.7-0.3-2.3-0.9c-0.5-0.6-0.8-1.4-0.8-2.5
		s0.3-1.9,0.8-2.4c0.5-0.6,1.3-0.8,2.3-0.8s1.7,0.3,2.3,0.9C137.4,14.6,137.6,15.5,137.6,16.5z M133,16.5c0,0.7,0.1,1.3,0.4,1.6
		c0.3,0.4,0.7,0.5,1.2,0.5c1.1,0,1.6-0.7,1.6-2.2c0-1.4-0.5-2.2-1.6-2.2c-0.5,0-1,0.2-1.2,0.5C133.1,15.3,133,15.8,133,16.5z"/>
    <path class="st9" d="M139.8,13.3h2c0.9,0,1.6,0.1,2,0.4c0.4,0.3,0.6,0.7,0.6,1.2c0,0.4-0.1,0.7-0.3,0.9s-0.4,0.4-0.7,0.4l0,0
		c0.4,0.1,0.7,0.3,0.9,0.5s0.3,0.6,0.3,1c0,0.6-0.2,1-0.6,1.4c-0.4,0.3-1,0.5-1.7,0.5h-2.5V13.3z M141.2,15.9h0.8
		c0.4,0,0.6-0.1,0.8-0.2c0.2-0.1,0.2-0.3,0.2-0.6c0-0.2-0.1-0.4-0.3-0.5s-0.5-0.2-0.9-0.2h-0.7L141.2,15.9L141.2,15.9z M141.2,17
		v1.7h0.9c0.4,0,0.7-0.1,0.8-0.2s0.3-0.4,0.3-0.7c0-0.5-0.4-0.8-1.1-0.8H141.2z"/>
    <path class="st9" d="M150.7,19.8l-0.5-1.5h-2.3l-0.5,1.5h-1.5l2.3-6.5h1.7l2.3,6.5H150.7z M149.9,17.1c-0.4-1.4-0.7-2.2-0.7-2.4
		s-0.1-0.3-0.1-0.4c-0.1,0.4-0.4,1.3-0.8,2.8H149.9z"/>
    <path class="st9" d="M159,19.8h-1.4V17h-2.5v2.8h-1.3v-6.4h1.4v2.5h2.5v-2.5h1.4L159,19.8L159,19.8z"/>
    <path class="st9" d="M160.8,13.3h1.2v3.1v0.8v0.9l0,0l3-4.9h1.6v6.4h-1.2v-3.1c0-0.4,0-1,0.1-1.8l0,0l-3,4.9h-1.7L160.8,13.3
		L160.8,13.3z"/>
    <path class="st9" d="M170.9,17.3l-1.5,2.5h-1.5l1.8-2.8c-0.4-0.1-0.6-0.4-0.8-0.7c-0.2-0.3-0.3-0.7-0.3-1.1c0-0.6,0.2-1,0.6-1.4
		c0.4-0.3,1-0.5,1.8-0.5h2.1v6.4h-1.3v-2.5h-0.9L170.9,17.3L170.9,17.3z M171.8,14.4h-0.7c-0.4,0-0.6,0.1-0.8,0.2
		c-0.2,0.1-0.3,0.3-0.3,0.6s0.1,0.5,0.3,0.7c0.2,0.2,0.5,0.2,0.9,0.2h0.6V14.4z"/>
    <path class="st9" d="M22,32.8h-1.4v-5.3h-2.4v5.3h-1.4v-6.4h5.1L22,32.8L22,32.8z"/>
    <path class="st9" d="M28.4,28.3c0,0.7-0.2,1.2-0.6,1.6s-1,0.5-1.8,0.5h-0.6v2.3H24v-6.4h2.1c0.8,0,1.4,0.2,1.8,0.5
		C28.2,27.2,28.4,27.7,28.4,28.3z M25.3,29.4h0.5c0.4,0,0.7-0.1,0.9-0.2c0.2-0.2,0.3-0.4,0.3-0.7c0-0.3-0.1-0.6-0.3-0.7
		s-0.4-0.2-0.8-0.2h-0.6C25.3,27.6,25.3,29.4,25.3,29.4z"/>
    <path class="st9" d="M35.8,29.5c0,1.1-0.3,1.9-0.8,2.5c-0.5,0.6-1.3,0.9-2.3,0.9S31,32.6,30.4,32c-0.5-0.6-0.8-1.4-0.8-2.5
		s0.3-1.9,0.8-2.4c0.5-0.6,1.3-0.8,2.3-0.8c1,0,1.7,0.3,2.3,0.9C35.5,27.6,35.8,28.5,35.8,29.5z M31.1,29.5c0,0.7,0.1,1.3,0.4,1.6
		c0.3,0.4,0.7,0.5,1.2,0.5c1.1,0,1.6-0.7,1.6-2.2c0-1.4-0.5-2.2-1.6-2.2c-0.5,0-1,0.2-1.2,0.5C31.2,28.3,31.1,28.8,31.1,29.5z"/>
    <path class="st9" d="M43,32.8h-1.4v-5.3h-2.4v5.3h-1.4v-6.4h5.1v6.4H43z"/>
    <path class="st9" d="M48.8,32.8l-0.5-1.5H46l-0.5,1.5H44l2.3-6.5H48l2.3,6.5H48.8z M48.1,30.1c-0.4-1.4-0.7-2.2-0.7-2.4
		s-0.1-0.3-0.1-0.4c-0.1,0.4-0.4,1.3-0.8,2.8H48.1z"/>
    <path class="st9" d="M57.2,32.8h-1.4V30h-2.5v2.8h-1.4v-6.4h1.4v2.5h2.5v-2.5h1.4V32.8z"/>
    <path class="st9" d="M62.8,32.8l-0.5-1.5H60l-0.5,1.5H58l2.3-6.5H62l2.3,6.5H62.8z M62,30.1c-0.4-1.4-0.7-2.2-0.7-2.4
		s-0.1-0.3-0.1-0.4c-0.1,0.4-0.4,1.3-0.8,2.8H62z"/>
</g>
<path class="st5" d="M88.8,54.6c0-3.8-3.1-6.9-6.9-6.9h-1.3c-3.8,0-6.9,3.1-6.9,6.9v125h15.1C88.8,179.6,88.8,54.6,88.8,54.6z"/>
<path class="st5" d="M117.2,54.6c0-3.8-3.1-6.9-6.9-6.9H109c-3.8,0-6.9,3.1-6.9,6.9v125h15.1V54.6z"/>
</svg>
