<svg width="146" height="186" viewBox="0 0 146 186" fill="none" xmlns="http://www.w3.org/2000/svg">
<g clip-path="url(#clip0)">
<path d="M50 160H135.4C138.2 160 140.7 158.9 142.5 157C144.3 155.2 145.5 152.7 145.5 149.9C145.5 135.4 145.5 27.1 145.5 12.7V7.69999L143.3 6.49999L141.1 5.29999L139 6.39999L136.8 7.59999V12.6C136.8 27.1 136.7 135.3 136.7 149.8C136.7 150.2 136.5 150.6 136.3 150.8C136.1 151 135.7 151.2 135.3 151.2H50L52.2 156L50 160Z" fill="#A6A5D1"/>
<path d="M30.3 146.5H28.9V78.3C28.9 76.7 30.2 75.5 31.7 75.5V76.9C30.9 76.9 30.3 77.5 30.3 78.3V146.5V146.5Z" fill="#D7D5E8"/>
<path d="M59.0001 85.1H57.6001V78.3C57.6001 77.5 57.0001 76.9 56.2001 76.9H31.7001V75.5H56.1001C57.7001 75.5 58.9001 76.8 58.9001 78.3V85.1H59.0001Z" fill="#D7D5E8"/>
<path d="M25.4 147.4H24V124.9C24 123.3 25.3 122.1 26.8 122.1H51.2V123.5H26.8C26 123.5 25.4 124.1 25.4 124.9V147.4V147.4Z" fill="#D7D5E8"/>
<path d="M20.4 147.4H19V124.9C19 123.3 20.3 122.1 21.8 122.1H46.2V123.5H21.8C21 123.5 20.4 124.1 20.4 124.9V147.4V147.4Z" fill="#D7D5E8"/>
<path d="M35.2001 147.4H33.8V124.9C33.8 123.3 35.1 122.1 36.6 122.1H61V123.5H36.6C35.8 123.5 35.2001 124.1 35.2001 124.9V147.4Z" fill="#D7D5E8"/>
<path fill-rule="evenodd" clip-rule="evenodd" d="M49.9001 79.7H66.6001C68.7001 79.7 70.4001 81.4 70.4001 83.5V115.4C70.4001 117.5 68.7001 119.2 66.6001 119.2H49.9001C47.8001 119.2 46.1001 117.5 46.1001 115.4V83.6C46.1001 81.5 47.8001 79.7 49.9001 79.7Z" fill="#D7D5E8"/>
<path fill-rule="evenodd" clip-rule="evenodd" d="M45.2001 85.1H71.3001C74.6001 85.1 77.3001 87.8 77.3001 91.1V141C77.3001 144.3 74.6001 147 71.3001 147H45.2001C41.9001 147 39.2001 144.3 39.2001 141V91C39.3001 87.8 41.9001 85.1 45.2001 85.1Z" fill="#382E86"/>
<path fill-rule="evenodd" clip-rule="evenodd" d="M39.4 165.6H88.8V146.5H64.7H39.4V165.6Z" fill="#5E519C"/>
<path d="M53.1001 144.4C52.5001 144.4 52.1001 143.9 52.1001 143.4V141.2C52.1001 137.9 54.8001 135.2 58.0001 135.2H68.2001C68.8001 135.2 69.2001 135.7 69.2001 136.2C69.2001 136.7 68.7001 137.2 68.2001 137.2H58.0001C55.9001 137.2 54.1001 138.9 54.1001 141.1V143.3C54.2001 143.9 53.7001 144.4 53.1001 144.4Z" fill="#D7D5E8"/>
<path d="M57.3 142.3H48.8V146.5H57.3V142.3Z" fill="#A6A5D1"/>
<path fill-rule="evenodd" clip-rule="evenodd" d="M80.7001 119.8L88.8001 131.4V146.8H80.7001V119.8Z" fill="#5E519C"/>
<path d="M39.4001 146.5H15.3V165.6H39.4001V146.5Z" fill="#A6A5D1"/>
<path d="M64.6001 98.5H58.2001V99.5H64.6001V98.5Z" fill="#5E519C"/>
<path d="M62.9001 95.6H64.4001H64.6001V95.8V98.8C64.6001 98.9 64.5001 99 64.4001 99C64.3001 99 64.2001 98.9 64.2001 98.8V96H63.1001V98.8C63.1001 98.9 63.0001 99 62.9001 99C62.8001 99 62.7001 98.9 62.7001 98.8V96H61.6001V98.8C61.6001 98.9 61.5001 99 61.4001 99C61.3001 99 61.2001 98.9 61.2001 98.8V96H60.1001V98.8C60.1001 98.9 60.0001 99 59.9001 99C59.8001 99 59.7001 98.9 59.7001 98.8V96H58.6001V98.8C58.6001 98.9 58.5001 99 58.4001 99C58.3001 99 58.2001 98.9 58.2001 98.8V95.8V95.6H58.4001H59.9001H61.4001H62.9001Z" fill="#5E519C"/>
<path d="M71.0001 98.5H64.6001V99.5H71.0001V98.5Z" fill="#5E519C"/>
<path d="M69.2001 95.6H70.7001H70.9001V95.8V98.8C70.9001 98.9 70.8001 99 70.7001 99C70.6001 99 70.5001 98.9 70.5001 98.8V96H69.4001V98.8C69.4001 98.9 69.3001 99 69.2001 99C69.1001 99 69.0001 98.9 69.0001 98.8V96H68.0001V98.8C68.0001 98.9 67.9001 99 67.8001 99C67.7001 99 67.6001 98.9 67.6001 98.8V96H66.5001V98.8C66.5001 98.9 66.4001 99 66.3001 99C66.2001 99 66.1001 98.9 66.1001 98.8V96H65.0001V98.8C65.0001 98.9 64.9001 99 64.8001 99C64.7001 99 64.6001 98.9 64.6001 98.8V95.8V95.6H64.8001H66.3001H67.8001H69.2001Z" fill="#5E519C"/>
<path d="M77.3 98.5H70.9V99.5H77.3V98.5Z" fill="#5E519C"/>
<path d="M75.6 95.6H77.1H77.3V95.8V98.8C77.3 98.9 77.2 99 77.1 99C77 99 76.9 98.9 76.9 98.8V96H75.8V98.8C75.8 98.9 75.7 99 75.6 99C75.5 99 75.4 98.9 75.4 98.8V96H74.3V98.8C74.3 98.9 74.2 99 74.1 99C74 99 73.9 98.9 73.9 98.8V96H72.8V98.8C72.8 98.9 72.7 99 72.6 99C72.5 99 72.4 98.9 72.4 98.8V96H71.3V98.8C71.3 98.9 71.2 99 71.1 99C71 99 70.9 98.9 70.9 98.8V95.8V95.6H71.1H72.6H74.1H75.6Z" fill="#5E519C"/>
<path d="M45.7001 98.5H39.3V99.5H45.7001V98.5Z" fill="#5E519C"/>
<path d="M43.9001 95.6H45.4001H45.6001V95.8V98.8C45.6001 98.9 45.5001 99 45.4001 99C45.3001 99 45.2001 98.9 45.2001 98.8V96H44.1001V98.8C44.1001 98.9 44.0001 99 43.9001 99C43.8001 99 43.7001 98.9 43.7001 98.8V96H42.6001V98.8C42.6001 98.9 42.5001 99 42.4001 99C42.3001 99 42.2001 98.9 42.2001 98.8V96H41.1001V98.8C41.1001 98.9 41.0001 99 40.9001 99C40.8001 99 40.7001 98.9 40.7001 98.8V96H39.6001V98.8C39.6001 98.9 39.5001 99 39.4001 99C39.3001 99 39.2001 98.9 39.2001 98.8V95.8V95.6H39.4001H40.9001H42.4001H43.9001Z" fill="#5E519C"/>
<path d="M52.0001 98.5H45.6001V99.5H52.0001V98.5Z" fill="#5E519C"/>
<path d="M50.3001 95.6H51.8001H52.0001V95.8V98.8C52.0001 98.9 51.9001 99 51.8001 99C51.7001 99 51.6001 98.9 51.6001 98.8V96H50.5001V98.8C50.5001 98.9 50.4001 99 50.3001 99C50.2001 99 50.1001 98.9 50.1001 98.8V96H49.0001V98.8C49.0001 98.9 48.9001 99 48.8001 99C48.7001 99 48.6001 98.9 48.6001 98.8V96H47.5001V98.8C47.5001 98.9 47.4001 99 47.3001 99C47.2001 99 47.1001 98.9 47.1001 98.8V96H46.0001V98.8C46.0001 98.9 45.9001 99 45.8001 99C45.7001 99 45.6001 98.9 45.6001 98.8V95.8V95.6H45.8001H47.3001H48.8001H50.3001Z" fill="#5E519C"/>
<path d="M58.4 98.5H52V99.5H58.4V98.5Z" fill="#5E519C"/>
<path d="M56.7 95.6H58.2H58.4V95.8V98.8C58.4 98.9 58.3 99 58.2 99C58.1 99 58 98.9 58 98.8V96H56.9V98.8C56.9 98.9 56.8 99 56.7 99C56.6 99 56.5 98.9 56.5 98.8V96H55.4V98.8C55.4 98.9 55.3 99 55.2 99C55.1 99 55 98.9 55 98.8V96H53.9V98.8C53.9 98.9 53.8 99 53.7 99C53.6 99 53.5 98.9 53.5 98.8V96H52.4V98.8C52.4 98.9 52.3 99 52.2 99C52.1 99 52 98.9 52 98.8V95.8V95.6H52.2H53.7H55.2H56.7Z" fill="#5E519C"/>
<path d="M64.6001 111.1H58.2001V112.1H64.6001V111.1Z" fill="#5E519C"/>
<path d="M62.9001 108.2H64.4001H64.6001V108.4V111.4C64.6001 111.5 64.5001 111.6 64.4001 111.6C64.3001 111.6 64.2001 111.5 64.2001 111.4V108.6H63.1001V111.4C63.1001 111.5 63.0001 111.6 62.9001 111.6C62.8001 111.6 62.7001 111.5 62.7001 111.4V108.6H61.6001V111.4C61.6001 111.5 61.5001 111.6 61.4001 111.6C61.3001 111.6 61.2001 111.5 61.2001 111.4V108.6H60.1001V111.4C60.1001 111.5 60.0001 111.6 59.9001 111.6C59.8001 111.6 59.7001 111.5 59.7001 111.4V108.6H58.6001V111.4C58.6001 111.5 58.5001 111.6 58.4001 111.6C58.3001 111.6 58.2001 111.5 58.2001 111.4V108.4V108.2H58.4001H59.9001H61.4001H62.9001Z" fill="#5E519C"/>
<path d="M71.0001 111.1H64.6001V112.1H71.0001V111.1Z" fill="#5E519C"/>
<path d="M69.2001 108.2H70.7001H70.9001V108.4V111.4C70.9001 111.5 70.8001 111.6 70.7001 111.6C70.6001 111.6 70.5001 111.5 70.5001 111.4V108.6H69.4001V111.4C69.4001 111.5 69.3001 111.6 69.2001 111.6C69.1001 111.6 69.0001 111.5 69.0001 111.4V108.6H68.0001V111.4C68.0001 111.5 67.9001 111.6 67.8001 111.6C67.7001 111.6 67.6001 111.5 67.6001 111.4V108.6H66.5001V111.4C66.5001 111.5 66.4001 111.6 66.3001 111.6C66.2001 111.6 66.1001 111.5 66.1001 111.4V108.6H65.0001V111.4C65.0001 111.5 64.9001 111.6 64.8001 111.6C64.7001 111.6 64.6001 111.5 64.6001 111.4V108.4V108.2H64.8001H66.3001H67.8001H69.2001Z" fill="#5E519C"/>
<path d="M77.3 111.1H70.9V112.1H77.3V111.1Z" fill="#5E519C"/>
<path d="M75.6 108.2H77.1H77.3V108.4V111.4C77.3 111.5 77.2 111.6 77.1 111.6C77 111.6 76.9 111.5 76.9 111.4V108.6H75.8V111.4C75.8 111.5 75.7 111.6 75.6 111.6C75.5 111.6 75.4 111.5 75.4 111.4V108.6H74.3V111.4C74.3 111.5 74.2 111.6 74.1 111.6C74 111.6 73.9 111.5 73.9 111.4V108.6H72.8V111.4C72.8 111.5 72.7 111.6 72.6 111.6C72.5 111.6 72.4 111.5 72.4 111.4V108.6H71.3V111.4C71.3 111.5 71.2 111.6 71.1 111.6C71 111.6 70.9 111.5 70.9 111.4V108.4V108.2H71.1H72.6H74.1H75.6Z" fill="#5E519C"/>
<path d="M45.7001 111.1H39.3V112.1H45.7001V111.1Z" fill="#5E519C"/>
<path d="M43.9001 108.2H45.4001H45.6001V108.4V111.4C45.6001 111.5 45.5001 111.6 45.4001 111.6C45.3001 111.6 45.2001 111.5 45.2001 111.4V108.6H44.1001V111.4C44.1001 111.5 44.0001 111.6 43.9001 111.6C43.8001 111.6 43.7001 111.5 43.7001 111.4V108.6H42.6001V111.4C42.6001 111.5 42.5001 111.6 42.4001 111.6C42.3001 111.6 42.2001 111.5 42.2001 111.4V108.6H41.1001V111.4C41.1001 111.5 41.0001 111.6 40.9001 111.6C40.8001 111.6 40.7001 111.5 40.7001 111.4V108.6H39.6001V111.4C39.6001 111.5 39.5001 111.6 39.4001 111.6C39.3001 111.6 39.2001 111.5 39.2001 111.4V108.4V108.2H39.4001H40.9001H42.4001H43.9001Z" fill="#5E519C"/>
<path d="M52.0001 111.1H45.6001V112.1H52.0001V111.1Z" fill="#5E519C"/>
<path d="M50.3001 108.2H51.8001H52.0001V108.4V111.4C52.0001 111.5 51.9001 111.6 51.8001 111.6C51.7001 111.6 51.6001 111.5 51.6001 111.4V108.6H50.5001V111.4C50.5001 111.5 50.4001 111.6 50.3001 111.6C50.2001 111.6 50.1001 111.5 50.1001 111.4V108.6H49.0001V111.4C49.0001 111.5 48.9001 111.6 48.8001 111.6C48.7001 111.6 48.6001 111.5 48.6001 111.4V108.6H47.5001V111.4C47.5001 111.5 47.4001 111.6 47.3001 111.6C47.2001 111.6 47.1001 111.5 47.1001 111.4V108.6H46.0001V111.4C46.0001 111.5 45.9001 111.6 45.8001 111.6C45.7001 111.6 45.6001 111.5 45.6001 111.4V108.4V108.2H45.8001H47.3001H48.8001H50.3001Z" fill="#5E519C"/>
<path d="M58.4 111.1H52V112.1H58.4V111.1Z" fill="#5E519C"/>
<path d="M56.7 108.2H58.2H58.4V108.4V111.4C58.4 111.5 58.3 111.6 58.2 111.6C58.1 111.6 58 111.5 58 111.4V108.6H56.9V111.4C56.9 111.5 56.8 111.6 56.7 111.6C56.6 111.6 56.5 111.5 56.5 111.4V108.6H55.4V111.4C55.4 111.5 55.3 111.6 55.2 111.6C55.1 111.6 55 111.5 55 111.4V108.6H53.9V111.4C53.9 111.5 53.8 111.6 53.7 111.6C53.6 111.6 53.5 111.5 53.5 111.4V108.6H52.4V111.4C52.4 111.5 52.3 111.6 52.2 111.6C52.1 111.6 52 111.5 52 111.4V108.4V108.2H52.2H53.7H55.2H56.7Z" fill="#5E519C"/>
<path d="M64.6001 123.6H58.2001V124.6H64.6001V123.6Z" fill="#5E519C"/>
<path d="M62.9001 120.7H64.4001H64.6001V120.9V123.9C64.6001 124 64.5001 124.1 64.4001 124.1C64.3001 124.1 64.2001 124 64.2001 123.9V121.1H63.1001V123.9C63.1001 124 63.0001 124.1 62.9001 124.1C62.8001 124.1 62.7001 124 62.7001 123.9V121.1H61.6001V123.9C61.6001 124 61.5001 124.1 61.4001 124.1C61.3001 124.1 61.2001 124 61.2001 123.9V121.1H60.1001V123.9C60.1001 124 60.0001 124.1 59.9001 124.1C59.8001 124.1 59.7001 124 59.7001 123.9V121.1H58.6001V123.9C58.6001 124 58.5001 124.1 58.4001 124.1C58.3001 124.1 58.2001 124 58.2001 123.9V120.9V120.7H58.4001H59.9001H61.4001H62.9001Z" fill="#5E519C"/>
<path d="M71.0001 123.6H64.6001V124.6H71.0001V123.6Z" fill="#5E519C"/>
<path d="M69.2001 120.7H70.7001H70.9001V120.9V123.9C70.9001 124 70.8001 124.1 70.7001 124.1C70.6001 124.1 70.5001 124 70.5001 123.9V121.1H69.4001V123.9C69.4001 124 69.3001 124.1 69.2001 124.1C69.1001 124.1 69.0001 124 69.0001 123.9V121.1H68.0001V123.9C68.0001 124 67.9001 124.1 67.8001 124.1C67.7001 124.1 67.6001 124 67.6001 123.9V121.1H66.5001V123.9C66.5001 124 66.4001 124.1 66.3001 124.1C66.2001 124.1 66.1001 124 66.1001 123.9V121.1H65.0001V123.9C65.0001 124 64.9001 124.1 64.8001 124.1C64.7001 124.1 64.6001 124 64.6001 123.9V120.9V120.7H64.8001H66.3001H67.8001H69.2001Z" fill="#5E519C"/>
<path d="M77.3 123.6H70.9V124.6H77.3V123.6Z" fill="#5E519C"/>
<path d="M75.6 120.7H77.1H77.3V120.9V123.9C77.3 124 77.2 124.1 77.1 124.1C77 124.1 76.9 124 76.9 123.9V121.1H75.8V123.9C75.8 124 75.7 124.1 75.6 124.1C75.5 124.1 75.4 124 75.4 123.9V121.1H74.3V123.9C74.3 124 74.2 124.1 74.1 124.1C74 124.1 73.9 124 73.9 123.9V121.1H72.8V123.9C72.8 124 72.7 124.1 72.6 124.1C72.5 124.1 72.4 124 72.4 123.9V121.1H71.3V123.9C71.3 124 71.2 124.1 71.1 124.1C71 124.1 70.9 124 70.9 123.9V120.9V120.7H71.1H72.6H74.1H75.6Z" fill="#5E519C"/>
<path d="M45.7001 123.6H39.3V124.6H45.7001V123.6Z" fill="#5E519C"/>
<path d="M43.9001 120.7H45.4001H45.6001V120.9V123.9C45.6001 124 45.5001 124.1 45.4001 124.1C45.3001 124.1 45.2001 124 45.2001 123.9V121.1H44.1001V123.9C44.1001 124 44.0001 124.1 43.9001 124.1C43.8001 124.1 43.7001 124 43.7001 123.9V121.1H42.6001V123.9C42.6001 124 42.5001 124.1 42.4001 124.1C42.3001 124.1 42.2001 124 42.2001 123.9V121.1H41.1001V123.9C41.1001 124 41.0001 124.1 40.9001 124.1C40.8001 124.1 40.7001 124 40.7001 123.9V121.1H39.6001V123.9C39.6001 124 39.5001 124.1 39.4001 124.1C39.3001 124.1 39.2001 124 39.2001 123.9V120.9V120.7H39.4001H40.9001H42.4001H43.9001Z" fill="#5E519C"/>
<path d="M52.0001 123.6H45.6001V124.6H52.0001V123.6Z" fill="#5E519C"/>
<path d="M50.3001 120.7H51.8001H52.0001V120.9V123.9C52.0001 124 51.9001 124.1 51.8001 124.1C51.7001 124.1 51.6001 124 51.6001 123.9V121.1H50.5001V123.9C50.5001 124 50.4001 124.1 50.3001 124.1C50.2001 124.1 50.1001 124 50.1001 123.9V121.1H49.0001V123.9C49.0001 124 48.9001 124.1 48.8001 124.1C48.7001 124.1 48.6001 124 48.6001 123.9V121.1H47.5001V123.9C47.5001 124 47.4001 124.1 47.3001 124.1C47.2001 124.1 47.1001 124 47.1001 123.9V121.1H46.0001V123.9C46.0001 124 45.9001 124.1 45.8001 124.1C45.7001 124.1 45.6001 124 45.6001 123.9V120.9V120.7H45.8001H47.3001H48.8001H50.3001Z" fill="#5E519C"/>
<path d="M58.4 123.6H52V124.6H58.4V123.6Z" fill="#5E519C"/>
<path d="M56.7 120.7H58.2H58.4V120.9V123.9C58.4 124 58.3 124.1 58.2 124.1C58.1 124.1 58 124 58 123.9V121.1H56.9V123.9C56.9 124 56.8 124.1 56.7 124.1C56.6 124.1 56.5 124 56.5 123.9V121.1H55.4V123.9C55.4 124 55.3 124.1 55.2 124.1C55.1 124.1 55 124 55 123.9V121.1H53.9V123.9C53.9 124 53.8 124.1 53.7 124.1C53.6 124.1 53.5 124 53.5 123.9V121.1H52.4V123.9C52.4 124 52.3 124.1 52.2 124.1C52.1 124.1 52 124 52 123.9V120.9V120.7H52.2H53.7H55.2H56.7Z" fill="#5E519C"/>
<path fill-rule="evenodd" clip-rule="evenodd" d="M52.1 85.1V93.9H46.1V85.1H45.3V93.9V94.8V100.3V101.2V106.7V107.6V113.1V114V119.5V120.4V125.9V126.8V132.3V133.2V138.7V139.6V145.1V146V151.7V152.6H46.1H52.1H52.9001V151.7V146V145.1V139.6V138.7V133V132.1V126.6V125.7V120.2V119.3V113.8V113V107.5V106.6V101.1V100.2V94.7V93.8V85H52.1V85.1ZM52.1 151.4H46.1V145.7H52.1V151.4ZM52.1 144.8H46.1V139.3H52.1V144.8ZM52.1 138.5H46.1V133H52.1V138.5ZM52.1 132.1H46.1V126.6H52.1V132.1ZM52.1 125.7H46.1V120.2H52.1V125.7ZM52.1 119.3H46.1V113.8H52.1V119.3ZM52.1 113H46.1V107.5H52.1V113ZM52.1 106.6H46.1V101.1H52.1V106.6ZM52.1 100.2H46.1V94.7H52.1V100.2Z" fill="#A6A5D1"/>
<path d="M80.8 119.8H68.3V146.5H80.8V119.8Z" fill="#A6A5D1"/>
<path d="M25.0001 154.9H22.6001V157.3H25.0001V154.9Z" fill="#5E519C"/>
<path d="M28.5001 154.9H26.1001V157.3H28.5001V154.9Z" fill="#5E519C"/>
<path d="M32.1001 154.9H29.7001V157.3H32.1001V154.9Z" fill="#5E519C"/>
<path d="M145.5 7.5V9.9V31H136.8V9.9V7.5L139 6.2L141.2 5L143.3 6.2L145.5 7.5Z" fill="#A6A5D1"/>
<path fill-rule="evenodd" clip-rule="evenodd" d="M136.8 5V2.5L139 1.2L141.2 0L143.3 1.2L145.5 2.5V5L143.3 3.7L141.2 2.5L139 3.7L136.8 5Z" fill="#A6A5D1"/>
<path d="M11.2407 170.854H9.71631V175H8.69092V170.854H7.18701V170.023H11.2407V170.854ZM14.8228 172.843H12.854V174.176H15.1646V175H11.8286V170.023H15.1577V170.854H12.854V172.04H14.8228V172.843ZM17.5469 171.739L18.48 170.023H19.6592L18.21 172.491L19.6968 175H18.5039L17.5469 173.257L16.5898 175H15.397L16.8838 172.491L15.4346 170.023H16.6138L17.5469 171.739ZM24.2666 175H23.2412V172.867H21.2417V175H20.2163V170.023H21.2417V172.04H23.2412V170.023H24.2666V175ZM28.1494 170.023H29.1782V175H28.1494V171.695L26.1567 175H25.1313V170.023H26.1567V173.335L28.1494 170.023ZM31.6904 172.966H31.0991V175H30.0737V170.023H31.0991V172.016H31.5674L32.7842 170.023H34.0352L32.5005 172.378L34.1958 175H32.9722L31.6904 172.966ZM37.4019 173.975H35.604L35.2622 175H34.1719L36.0244 170.023H36.9746L38.8374 175H37.7471L37.4019 173.975ZM35.8809 173.144H37.125L36.4995 171.281L35.8809 173.144ZM43.4106 170.023V175H42.3818V170.854H41.0557L40.9736 172.611C40.9395 173.203 40.8643 173.67 40.748 174.012C40.6318 174.352 40.4621 174.601 40.2388 174.761C40.0155 174.918 39.7101 174.998 39.3228 175H39.0562V174.176L39.2271 174.159C39.4845 174.125 39.668 173.977 39.7773 173.715C39.889 173.451 39.9596 172.981 39.9893 172.307L40.0747 170.023H43.4106ZM45.3486 171.818H46.1484C46.734 171.818 47.1978 171.96 47.5396 172.245C47.8836 172.528 48.0557 172.909 48.0557 173.39C48.0557 173.873 47.8848 174.262 47.543 174.556C47.2035 174.847 46.7511 174.995 46.186 175H44.3164V170.023H45.3486V171.818ZM49.5083 175H48.4829V170.023H49.5083V175ZM45.3486 172.645V174.176H46.1655C46.4276 174.176 46.6361 174.104 46.791 173.961C46.9482 173.817 47.0269 173.625 47.0269 173.383C47.0269 173.158 46.9517 172.98 46.8013 172.85C46.6532 172.718 46.4492 172.65 46.1895 172.645H45.3486ZM52.0342 172.966H51.4429V175H50.4175V170.023H51.4429V172.016H51.9111L53.1279 170.023H54.3789L52.8442 172.378L54.5396 175H53.3159L52.0342 172.966ZM54.9463 176.22H53.9585V174.299H54.9463V176.22ZM60.6201 170.854H58.3882V175H57.3628V170.023H60.6201V170.854ZM63.3647 173.975H61.5669L61.2251 175H60.1348L61.9873 170.023H62.9375L64.8003 175H63.71L63.3647 173.975ZM61.8438 173.144H63.0879L62.4624 171.281L61.8438 173.144ZM67.7192 171.394C67.7192 171.205 67.6452 171.057 67.4971 170.95C67.349 170.84 67.153 170.786 66.9092 170.786C66.6904 170.786 66.5081 170.84 66.3623 170.95C66.2188 171.057 66.147 171.197 66.147 171.37H65.1216C65.1216 171.101 65.1968 170.86 65.3472 170.646C65.4998 170.429 65.7152 170.26 65.9932 170.14C66.2734 170.019 66.5788 169.958 66.9092 169.958C67.4834 169.958 67.9334 170.082 68.2593 170.328C68.5851 170.574 68.748 170.922 68.748 171.374C68.748 171.595 68.6808 171.8 68.5464 171.989C68.4142 172.178 68.2251 172.329 67.979 172.443C68.2524 172.539 68.4621 172.685 68.6079 172.881C68.7537 173.075 68.8267 173.316 68.8267 173.605C68.8267 174.052 68.6512 174.408 68.3003 174.672C67.9517 174.934 67.488 175.065 66.9092 175.065C66.5469 175.065 66.221 175.003 65.9316 174.88C65.6423 174.755 65.4224 174.585 65.272 174.371C65.1239 174.155 65.0498 173.904 65.0498 173.619H66.082C66.082 173.797 66.1595 173.946 66.3145 174.067C66.4694 174.185 66.6676 174.245 66.9092 174.245C67.1826 174.245 67.3979 174.183 67.5552 174.06C67.7147 173.937 67.7944 173.781 67.7944 173.592C67.7944 173.332 67.7238 173.146 67.5825 173.035C67.4412 172.921 67.235 172.864 66.9639 172.864H66.3521V172.061H66.9844C67.4743 172.054 67.7192 171.832 67.7192 171.394ZM75.4302 172.625C75.4302 173.114 75.3436 173.544 75.1704 173.913C74.9972 174.282 74.7489 174.567 74.4253 174.768C74.104 174.968 73.7349 175.068 73.3179 175.068C72.9054 175.068 72.5374 174.969 72.2139 174.771C71.8903 174.573 71.6396 174.29 71.4619 173.923C71.2842 173.554 71.1942 173.13 71.1919 172.652V172.406C71.1919 171.916 71.2796 171.485 71.4551 171.114C71.6328 170.74 71.8823 170.454 72.2036 170.256C72.5272 170.055 72.8963 169.955 73.311 169.955C73.7257 169.955 74.0938 170.055 74.415 170.256C74.7386 170.454 74.9881 170.74 75.1636 171.114C75.3413 171.485 75.4302 171.915 75.4302 172.402V172.625ZM73.3179 174.228C73.6414 174.228 73.8944 174.107 74.0767 173.865C74.2612 173.624 74.3649 173.273 74.3877 172.812H72.2344C72.2594 173.273 72.3643 173.624 72.5488 173.865C72.7357 174.107 72.992 174.228 73.3179 174.228ZM73.311 170.803C72.9875 170.803 72.7334 170.921 72.5488 171.158C72.3665 171.393 72.2629 171.737 72.2378 172.19H74.3877C74.3626 171.737 74.2567 171.393 74.0698 171.158C73.8853 170.921 73.6323 170.803 73.311 170.803ZM80.1982 175H79.1729V172.867H77.1733V175H76.1479V170.023H77.1733V172.04H79.1729V170.023H80.1982V175ZM85.7866 176.224H84.8398V175H81.8389V176.22H80.8682L80.8135 174.176H81.1895C81.3923 174.008 81.5483 173.76 81.6577 173.435C81.7694 173.106 81.8446 172.701 81.8833 172.218L82.0269 170.023H85.2876V174.176H85.8687L85.7866 176.224ZM82.3652 174.176H84.2622V170.854H83.001L82.9155 172.163C82.8472 173.04 82.6637 173.711 82.3652 174.176ZM87.499 175H86.4736V170.023H87.499V175ZM89.478 173.247V175H88.4526V170.023H90.394C90.7677 170.023 91.0959 170.092 91.3784 170.229C91.6632 170.365 91.882 170.56 92.0347 170.813C92.1873 171.064 92.2637 171.35 92.2637 171.671C92.2637 172.159 92.0962 172.544 91.7612 172.826C91.4285 173.106 90.9671 173.247 90.377 173.247H89.478ZM89.478 172.416H90.394C90.6652 172.416 90.8714 172.352 91.0127 172.225C91.1562 172.097 91.228 171.915 91.228 171.678C91.228 171.434 91.1562 171.237 91.0127 171.086C90.8691 170.936 90.6709 170.859 90.418 170.854H89.478V172.416ZM94.8374 172.375L95.7432 170.023H96.8506L95.1108 174.128L94.9707 174.398C94.7132 174.847 94.319 175.072 93.7881 175.072L93.4292 175.058L93.4189 174.234C93.4736 174.243 93.5625 174.248 93.6855 174.248C93.8291 174.248 93.9442 174.223 94.0308 174.173C94.1196 174.123 94.1937 174.03 94.2529 173.896L94.3794 173.571L92.6328 170.023H93.7368L94.8374 172.375ZM28.3169 180.966H27.7256V183H26.7002V178.023H27.7256V180.016H28.1938L29.4106 178.023H30.6616L29.127 180.378L30.8223 183H29.5986L28.3169 180.966ZM31.229 184.22H30.2412V182.299H31.229V184.22ZM35.874 180.625C35.874 181.114 35.7874 181.544 35.6143 181.913C35.4411 182.282 35.1927 182.567 34.8691 182.768C34.5479 182.968 34.1787 183.068 33.7617 183.068C33.3493 183.068 32.9813 182.969 32.6577 182.771C32.3341 182.573 32.0835 182.29 31.9058 181.923C31.728 181.554 31.638 181.13 31.6357 180.652V180.406C31.6357 179.916 31.7235 179.485 31.8989 179.114C32.0767 178.74 32.3262 178.454 32.6475 178.256C32.971 178.055 33.3402 177.955 33.7549 177.955C34.1696 177.955 34.5376 178.055 34.8589 178.256C35.1825 178.454 35.432 178.74 35.6074 179.114C35.7852 179.485 35.874 179.915 35.874 180.402V180.625ZM34.835 180.399C34.835 179.877 34.7415 179.481 34.5547 179.209C34.3678 178.938 34.1012 178.803 33.7549 178.803C33.4108 178.803 33.1453 178.937 32.9585 179.206C32.7716 179.473 32.6771 179.865 32.6748 180.382V180.625C32.6748 181.133 32.7682 181.527 32.9551 181.807C33.1419 182.087 33.4108 182.228 33.7617 182.228C34.1058 182.228 34.3701 182.093 34.5547 181.824C34.7393 181.553 34.8327 181.159 34.835 180.642V180.399ZM40.6694 183H39.644V180.867H37.6445V183H36.6191V178.023H37.6445V180.04H39.644V178.023H40.6694V183ZM46.2578 184.224H45.311V183H42.3101V184.22H41.3394L41.2847 182.176H41.6606C41.8634 182.008 42.0195 181.76 42.1289 181.435C42.2406 181.106 42.3158 180.701 42.3545 180.218L42.498 178.023H45.7588V182.176H46.3398L46.2578 184.224ZM42.8364 182.176H44.7334V178.854H43.4722L43.3867 180.163C43.3184 181.04 43.1349 181.711 42.8364 182.176ZM47.9224 179.818H48.7222C49.3078 179.818 49.7715 179.96 50.1133 180.245C50.4574 180.528 50.6294 180.909 50.6294 181.39C50.6294 181.873 50.4585 182.262 50.1167 182.556C49.7772 182.847 49.3249 182.995 48.7598 183H46.8901V178.023H47.9224V179.818ZM52.082 183H51.0566V178.023H52.082V183ZM47.9224 180.645V182.176H48.7393C49.0013 182.176 49.2098 182.104 49.3647 181.961C49.522 181.817 49.6006 181.625 49.6006 181.383C49.6006 181.158 49.5254 180.98 49.375 180.85C49.2269 180.718 49.0229 180.65 48.7632 180.645H47.9224ZM54.0098 181.247V183H52.9844V178.023H54.9258C55.2995 178.023 55.6276 178.092 55.9102 178.229C56.195 178.365 56.4137 178.56 56.5664 178.813C56.7191 179.064 56.7954 179.35 56.7954 179.671C56.7954 180.159 56.6279 180.544 56.293 180.826C55.9603 181.106 55.4989 181.247 54.9087 181.247H54.0098ZM54.0098 180.416H54.9258C55.1969 180.416 55.4032 180.352 55.5444 180.225C55.688 180.097 55.7598 179.915 55.7598 179.678C55.7598 179.434 55.688 179.237 55.5444 179.086C55.4009 178.936 55.2026 178.859 54.9497 178.854H54.0098V180.416ZM59.3555 180.737H58.5352V183H57.5098V180.737H56.9663V180.112H57.5098V178.023H60.7671V178.854H58.5352V180.112H59.3555V180.737ZM62.4487 179.818H63.2485C63.8341 179.818 64.2979 179.96 64.6396 180.245C64.9837 180.528 65.1558 180.909 65.1558 181.39C65.1558 181.873 64.9849 182.262 64.6431 182.556C64.3035 182.847 63.8512 182.995 63.2861 183H61.4165V178.023H62.4487V179.818ZM66.6084 183H65.583V178.023H66.6084V183ZM62.4487 180.645V182.176H63.2656C63.5277 182.176 63.7362 182.104 63.8911 181.961C64.0483 181.817 64.127 181.625 64.127 181.383C64.127 181.158 64.0518 180.98 63.9014 180.85C63.7533 180.718 63.5493 180.65 63.2896 180.645H62.4487ZM71.4175 181.342C71.3787 181.878 71.1805 182.299 70.8228 182.607C70.4673 182.915 69.9979 183.068 69.4146 183.068C68.7765 183.068 68.2741 182.854 67.9072 182.426C67.5426 181.995 67.3604 181.405 67.3604 180.655V180.351C67.3604 179.873 67.4447 179.451 67.6133 179.086C67.7819 178.722 68.0223 178.443 68.3345 178.249C68.6489 178.053 69.0135 177.955 69.4282 177.955C70.0024 177.955 70.465 178.109 70.8159 178.417C71.1668 178.724 71.3696 179.156 71.4243 179.712H70.3989C70.3739 179.391 70.2839 179.158 70.1289 179.015C69.9762 178.869 69.7427 178.796 69.4282 178.796C69.0864 178.796 68.8301 178.919 68.6592 179.165C68.4906 179.409 68.404 179.788 68.3994 180.303V180.679C68.3994 181.217 68.4803 181.61 68.6421 181.858C68.8062 182.107 69.0636 182.231 69.4146 182.231C69.7313 182.231 69.9671 182.159 70.1221 182.016C70.2793 181.87 70.3693 181.645 70.3921 181.342H71.4175ZM73.1333 179.818H73.9331C74.5187 179.818 74.9824 179.96 75.3242 180.245C75.6683 180.528 75.8403 180.909 75.8403 181.39C75.8403 181.873 75.6694 182.262 75.3276 182.556C74.9881 182.847 74.5358 182.995 73.9707 183H72.1011V178.023H73.1333V179.818ZM77.293 183H76.2676V178.023H77.293V183ZM73.1333 180.645V182.176H73.9502C74.2122 182.176 74.4207 182.104 74.5757 181.961C74.7329 181.817 74.8115 181.625 74.8115 181.383C74.8115 181.158 74.7363 180.98 74.5859 180.85C74.4378 180.718 74.2339 180.65 73.9741 180.645H73.1333Z" fill="#3D2777"/>
</g>
<defs>
<clipPath id="clip0">
<rect width="145.5" height="186" fill="white"/>
</clipPath>
</defs>
</svg>
