<?xml version="1.0" encoding="utf-8"?>
<!-- Generator: Adobe Illustrator 24.0.1, SVG Export Plug-In . SVG Version: 6.00 Build 0)  -->
<svg version="1.1" id="Layer_1" xmlns="http://www.w3.org/2000/svg" xmlns:xlink="http://www.w3.org/1999/xlink" x="0px" y="0px"
	 viewBox="0 0 182.9 58.9" style="enable-background:new 0 0 182.9 58.9;" xml:space="preserve">
<style type="text/css">
	.st0{fill-rule:evenodd;clip-rule:evenodd;fill:#0041CD;}
	.st1{fill-rule:evenodd;clip-rule:evenodd;fill:#006EFF;}
	.st2{fill-rule:evenodd;clip-rule:evenodd;fill:#DAD9E8;}
	.st3{fill-rule:evenodd;clip-rule:evenodd;fill:#D7D5E8;}
	.st4{fill-rule:evenodd;clip-rule:evenodd;fill:#006EFF;}
	.st5{fill-rule:evenodd;clip-rule:evenodd;fill:#BFBFDF;}
	.st6{fill-rule:evenodd;clip-rule:evenodd;fill:#00508C;}
	.st7{fill:#00508C;}
</style>
<g>
	<rect x="0" class="st0" width="8.7" height="20.3"/>
</g>
<g>
	<path class="st1" d="M174.3,41.7v1.5c0,4.4-3.6,7.9-7.9,7.9h-48.8c-4.4,0-7.9-3.6-7.9-7.9v-1.5c0-4.4,3.6-7.9,7.9-7.9h48.8
		C170.7,33.8,174.3,37.4,174.3,41.7"/>
</g>
<g>
	<path class="st1" d="M168.1,47.6h-52.2c-0.2,0-0.4,0.2-0.4,0.4v0.1c0,0.2,0.2,0.4,0.4,0.4h52.2c0.2,0,0.4-0.2,0.4-0.4V48
		C168.6,47.8,168.4,47.6,168.1,47.6"/>
</g>
<g>
	<path class="st1" d="M92.5,41.7v1.5c0,4.4-3.6,7.9-7.9,7.9H35.8c-4.4,0-7.9-3.6-7.9-7.9v-1.5c0-4.4,3.6-7.9,7.9-7.9h48.8
		C89,33.8,92.5,37.4,92.5,41.7"/>
</g>
<g>
	<rect x="105.6" y="51.1" class="st1" width="72.4" height="1.4"/>
</g>
<g>
	<rect x="100.8" y="53.3" class="st1" width="6" height="1.5"/>
</g>
<g>
	<path class="st1" d="M101.1,55.4L101.1,55.4c-0.2,0-0.2-0.1-0.2-0.2v-3.5c0-0.1,0.1-0.2,0.2-0.2l0,0c0.1,0,0.2,0.1,0.2,0.2v3.5
		C101.3,55.3,101.2,55.4,101.1,55.4"/>
</g>
<g>
	<rect x="176.9" y="53.3" class="st1" width="6" height="1.5"/>
</g>
<g>
	<path class="st1" d="M182.6,55.4L182.6,55.4c0.2,0,0.2-0.1,0.2-0.2v-3.5c0-0.1-0.1-0.2-0.2-0.2l0,0c-0.1,0-0.2,0.1-0.2,0.2v3.5
		C182.4,55.3,182.5,55.4,182.6,55.4"/>
</g>
<g>
	<polygon class="st1" points="169.9,53.1 169.9,52.5 160,52.5 160,53.1 158.2,53.1 158.2,56 178,56 178,53.1 	"/>
</g>
<g>
	<path class="st1" d="M166.4,57.5h-2.6c-1.1,0-2-0.9-2-2v-0.4c0-1.1,0.9-2,2-2h2.6c1.1,0,2,0.9,2,2v0.4
		C168.3,56.6,167.4,57.5,166.4,57.5"/>
</g>
<g>
	<path class="st1" d="M154.5,55.8c0-1.7,1.4-3.1,3.1-3.1s3.1,1.4,3.1,3.1c0,1.7-1.4,3.1-3.1,3.1C156,58.9,154.5,57.5,154.5,55.8"/>
</g>
<g>
	<path class="st1" d="M169.2,55.8c0-1.7,1.4-3.1,3.1-3.1c1.7,0,3.1,1.4,3.1,3.1c0,1.7-1.4,3.1-3.1,3.1
		C170.6,58.9,169.2,57.5,169.2,55.8"/>
</g>
<g>
	<path class="st1" d="M173.1,53.7l-3-0.6c-0.4-0.1-0.8-0.1-1.2-0.1H165h-3.9c-0.4,0-0.8,0-1.2,0.1l-3,0.6c-0.6,0.1-1,0.6-0.9,1.2
		l0.1,1.2c0,0.2,0.2,0.4,0.4,0.4c0.2,0,0.3-0.1,0.3-0.3l0.1-0.7c0-0.3,0.3-0.4,0.5-0.5l0.9-0.1c0.3,0,0.6,0.1,0.8,0.4l1.8,2.5
		c0.2,0.3,0.5,0.4,0.9,0.4h3.2h3.2c0.3,0,0.7-0.2,0.9-0.4l1.8-2.5c0.2-0.3,0.5-0.4,0.8-0.4l0.9,0.1c0.3,0,0.5,0.2,0.5,0.5l0.1,0.7
		c0,0.2,0.2,0.3,0.3,0.3c0.2,0,0.4-0.2,0.4-0.4l0.1-1.2C174.1,54.3,173.7,53.8,173.1,53.7 M161,55.8c0,0.4-0.5,0.5-0.7,0.2l-0.7-1.5
		c-0.1-0.3,0.1-0.5,0.3-0.5h0.7c0.2,0,0.4,0.2,0.4,0.4V55.8z M167.8,56.3c0,0.5-0.4,1-1,1H165h-1.8c-0.5,0-1-0.4-1-1v-2
		c0-0.3,0.3-0.6,0.6-0.6h2.1h2.1c0.4,0,0.6,0.3,0.6,0.6L167.8,56.3z M170.4,54.5l-0.7,1.5c-0.2,0.4-0.7,0.2-0.7-0.2v-1.5
		c0-0.2,0.2-0.4,0.4-0.4h0.7C170.4,54,170.6,54.3,170.4,54.5z"/>
</g>
<g>
	<polygon class="st1" points="113.7,53.1 113.7,52.5 123.7,52.5 123.7,53.1 125.4,53.1 125.4,56 105.6,56 105.6,53.1 	"/>
</g>
<g>
	<path class="st1" d="M117.3,57.5h2.6c1.1,0,2-0.9,2-2v-0.4c0-1.1-0.9-2-2-2h-2.6c-1.1,0-2,0.9-2,2v0.4
		C115.3,56.6,116.2,57.5,117.3,57.5"/>
</g>
<g>
	<path class="st1" d="M129.1,55.8c0-1.7-1.4-3.1-3.1-3.1c-1.7,0-3.1,1.4-3.1,3.1c0,1.7,1.4,3.1,3.1,3.1
		C127.7,58.9,129.1,57.5,129.1,55.8"/>
</g>
<g>
	<path class="st1" d="M114.5,55.8c0-1.7-1.4-3.1-3.1-3.1c-1.7,0-3.1,1.4-3.1,3.1c0,1.7,1.4,3.1,3.1,3.1
		C113,58.9,114.5,57.5,114.5,55.8"/>
</g>
<g>
	<path class="st1" d="M109.6,54.8l0.1,1.2c0,0.2,0.2,0.4,0.4,0.4s0.3-0.1,0.3-0.3l0.1-0.7c0-0.3,0.3-0.4,0.5-0.5l0.9-0.1
		c0.3,0,0.6,0.1,0.8,0.4l1.8,2.5c0.2,0.3,0.5,0.4,0.9,0.4h3.2h3.2c0.3,0,0.7-0.2,0.9-0.4l1.8-2.5c0.2-0.3,0.5-0.4,0.8-0.4l0.9,0.1
		c0.3,0,0.5,0.2,0.5,0.5l0.1,0.7c0,0.2,0.2,0.3,0.3,0.3c0.2,0,0.4-0.2,0.4-0.4l0.1-1.2c0-0.6-0.4-1.1-0.9-1.2l-3-0.6
		c-0.4-0.1-0.8-0.1-1.2-0.1h-3.9h-3.9c-0.4,0-0.8,0-1.2,0.1l-3,0.6C109.9,53.8,109.5,54.3,109.6,54.8 M122.6,54.4
		c0-0.2,0.2-0.4,0.4-0.4h0.7c0.3,0,0.5,0.3,0.3,0.5l-0.7,1.5c-0.2,0.4-0.7,0.2-0.7-0.2V54.4z M115.8,54.4c0-0.3,0.3-0.6,0.6-0.6h2.1
		h2.1c0.4,0,0.6,0.3,0.6,0.6v2c0,0.5-0.4,1-1,1h-1.8h-1.8c-0.5,0-1-0.4-1-1L115.8,54.4z M113.5,54h0.7c0.2,0,0.4,0.2,0.4,0.4v1.5
		c0,0.4-0.5,0.5-0.7,0.2l-0.7-1.5C113.1,54.3,113.2,54,113.5,54z"/>
</g>
<g>
	<rect x="23.9" y="51.1" class="st1" width="72.4" height="1.4"/>
</g>
<g>
	<rect x="19.1" y="53.3" class="st1" width="6" height="1.5"/>
</g>
<g>
	<path class="st1" d="M19.3,55.4L19.3,55.4c-0.2,0-0.2-0.1-0.2-0.2v-3.5c0-0.1,0.1-0.2,0.2-0.2l0,0c0.1,0,0.2,0.1,0.2,0.2v3.5
		C19.5,55.3,19.4,55.4,19.3,55.4"/>
</g>
<g>
	<rect x="95.1" y="53.3" class="st1" width="6" height="1.5"/>
</g>
<g>
	<path class="st1" d="M100.8,55.4L100.8,55.4c0.2,0,0.2-0.1,0.2-0.2v-3.5c0-0.1-0.1-0.2-0.2-0.2l0,0c-0.1,0-0.2,0.1-0.2,0.2v3.5
		C100.6,55.3,100.7,55.4,100.8,55.4"/>
</g>
<g>
	<polygon class="st1" points="88.2,53.1 88.2,52.5 78.2,52.5 78.2,53.1 76.5,53.1 76.5,56 96.2,56 96.2,53.1 	"/>
</g>
<g>
	<path class="st1" d="M84.6,57.5H82c-1.1,0-2-0.9-2-2v-0.4c0-1.1,0.9-2,2-2h2.6c1.1,0,2,0.9,2,2v0.4C86.6,56.6,85.7,57.5,84.6,57.5"
		/>
</g>
<g>
	<path class="st1" d="M72.8,55.8c0-1.7,1.4-3.1,3.1-3.1s3.1,1.4,3.1,3.1c0,1.7-1.4,3.1-3.1,3.1C74.2,58.9,72.8,57.5,72.8,55.8"/>
</g>
<g>
	<path class="st1" d="M87.4,55.8c0-1.7,1.4-3.1,3.1-3.1s3.1,1.4,3.1,3.1c0,1.7-1.4,3.1-3.1,3.1S87.4,57.5,87.4,55.8"/>
</g>
<g>
	<path class="st1" d="M91.4,53.7l-3-0.6C88,53,87.6,53,87.2,53h-3.9h-3.9c-0.4,0-0.8,0-1.2,0.1l-3,0.6c-0.6,0.1-1,0.6-0.9,1.2
		l0.1,1.2c0,0.2,0.2,0.4,0.4,0.4c0.2,0,0.3-0.1,0.3-0.3l0.1-0.7c0-0.3,0.3-0.4,0.5-0.5l0.9-0.1c0.3,0,0.6,0.1,0.8,0.4l1.8,2.5
		c0.2,0.3,0.5,0.4,0.9,0.4h3.2h3.2c0.3,0,0.7-0.2,0.9-0.4l1.8-2.5c0.2-0.3,0.5-0.4,0.8-0.4l0.9,0.1c0.3,0,0.5,0.2,0.5,0.5l0.1,0.7
		c0,0.2,0.2,0.3,0.3,0.3l0,0c0.2,0,0.4-0.2,0.4-0.4l0.1-1.2C92.3,54.3,91.9,53.8,91.4,53.7 M79.3,55.8c0,0.4-0.5,0.5-0.7,0.2
		l-0.7-1.5C77.8,54.2,78,54,78.2,54h0.7c0.2,0,0.4,0.2,0.4,0.4C79.3,54.4,79.3,55.8,79.3,55.8z M86,56.3c0,0.5-0.4,1-1,1h-1.8h-1.8
		c-0.5,0-1-0.4-1-1v-2c0-0.3,0.3-0.6,0.6-0.6h2.1h2.1c0.4,0,0.6,0.3,0.6,0.6L86,56.3z M88.7,54.5L88,56c-0.2,0.4-0.7,0.2-0.7-0.2
		v-1.5c0-0.2,0.2-0.4,0.4-0.4h0.7C88.6,54,88.8,54.3,88.7,54.5z"/>
</g>
<g>
	<polygon class="st1" points="32,53.1 32,52.5 41.9,52.5 41.9,53.1 43.7,53.1 43.7,56 23.9,56 23.9,53.1 	"/>
</g>
<g>
	<path class="st1" d="M35.5,57.5h2.6c1.1,0,2-0.9,2-2v-0.4c0-1.1-0.9-2-2-2h-2.6c-1.1,0-2,0.9-2,2v0.4
		C33.6,56.6,34.4,57.5,35.5,57.5"/>
</g>
<g>
	<path class="st1" d="M47.3,55.8c0-1.7-1.4-3.1-3.1-3.1c-1.7,0-3.1,1.4-3.1,3.1c0,1.7,1.4,3.1,3.1,3.1S47.3,57.5,47.3,55.8"/>
</g>
<g>
	<path class="st1" d="M32.7,55.8c0-1.7-1.4-3.1-3.1-3.1c-1.7,0-3.1,1.4-3.1,3.1c0,1.7,1.4,3.1,3.1,3.1
		C31.3,58.9,32.7,57.5,32.7,55.8"/>
</g>
<g>
	<path class="st1" d="M27.8,54.8l0.1,1.2c0,0.2,0.2,0.4,0.4,0.4s0.3-0.1,0.3-0.3l0.1-0.7c0-0.3,0.3-0.4,0.5-0.5l0.9-0.1
		c0.3,0,0.6,0.1,0.8,0.4l1.8,2.5c0.2,0.3,0.5,0.4,0.9,0.4h3.2H40c0.3,0,0.7-0.2,0.9-0.4l1.8-2.5c0.2-0.3,0.5-0.4,0.8-0.4l0.9,0.1
		c0.3,0,0.5,0.2,0.5,0.5l0.1,0.7c0,0.2,0.2,0.3,0.3,0.3c0.2,0,0.4-0.2,0.4-0.4l0.1-1.2c0-0.6-0.4-1.1-0.9-1.2l-3-0.6
		c-0.3,0-0.7,0-1.1,0h-3.9H33c-0.4,0-0.8,0-1.2,0.1l-3,0.6C28.2,53.8,27.8,54.3,27.8,54.8 M40.9,54.4c0-0.2,0.2-0.4,0.4-0.4H42
		c0.3,0,0.5,0.3,0.3,0.5L41.6,56c-0.2,0.4-0.7,0.2-0.7-0.2V54.4z M34.1,54.4c0-0.3,0.3-0.6,0.6-0.6h2.1h2.1c0.4,0,0.6,0.3,0.6,0.6v2
		c0,0.5-0.4,1-1,1h-1.8h-1.8c-0.5,0-1-0.4-1-1L34.1,54.4z M31.8,54h0.7c0.2,0,0.4,0.2,0.4,0.4v1.5c0,0.4-0.5,0.5-0.7,0.2l-0.8-1.6
		C31.3,54.3,31.5,54,31.8,54z"/>
</g>
<g>
	<path class="st2" d="M109.6,41.7v1.5c0,4.4,3.6,7.9,7.9,7.9h48.8c4.4,0,7.9-3.6,7.9-7.9v-1.5c0-4.4-3.6-7.9-7.9-7.9h-48.8
		C113.1,33.8,109.6,37.4,109.6,41.7"/>
</g>
<g>
	<path class="st2" d="M145,33.6h-3c-0.2,0-0.3-0.1-0.3-0.3v-1.2h3.4v1.5H145z"/>
</g>
<g>
	<path class="st2" d="M145.7,32.1h-4.3c-0.1,0-0.2-0.1-0.2-0.2l0,0c0-0.1,0.1-0.2,0.2-0.2h4.4c0.1,0,0.2,0.1,0.2,0.2l0,0
		C146,32,145.9,32.1,145.7,32.1"/>
</g>
<g>
	<path class="st2" d="M147.6,34.5h-6c-0.3,0-0.5-0.2-0.5-0.5v-0.1c0-0.3,0.2-0.5,0.5-0.5h6c0.3,0,0.5,0.2,0.5,0.5V34
		C148.2,34.2,147.9,34.5,147.6,34.5"/>
</g>
<g>
	<rect x="141.5" y="33.7" class="st2" width="6.2" height="0.4"/>
</g>
<g>
	<path class="st2" d="M147,33.3h-0.5v-2c0-0.1,0.1-0.2,0.2-0.2l0,0c0.1,0,0.2,0.1,0.2,0.2v2H147z"/>
</g>
<g>
	<path class="st2" d="M138.8,31.6v2.7h-2.3v-2.7h-0.3v2.7v0.3v2.1V37v2.1v0.3v2.1v0.3V44v0.3v2.1v0.3v2.1v0.3v2.1v0.3v2.1V54v2.2
		v0.3h0.3h2.3h0.3v-0.3V54v-0.3v-2.1v-0.3v-2.1v-0.3v-2.1v-0.3v-2.1V44v-2.1v-0.3v-2.1v-0.3V37v-0.3v-2.1v-0.3v-2.7
		C139.1,31.6,138.8,31.6,138.8,31.6z M138.8,56.2h-2.3V54h2.3V56.2z M138.8,53.7h-2.3v-2.1h2.3V53.7z M138.8,51.2h-2.3v-2.1h2.3
		V51.2z M138.8,48.8h-2.3v-2.1h2.3V48.8z M138.8,46.4h-2.3v-2.1h2.3V46.4z M138.8,44h-2.3v-2.1h2.3V44z M138.8,41.5h-2.3v-2.1h2.3
		V41.5z M138.8,39.1h-2.3V37h2.3V39.1z M138.8,36.7h-2.3v-2.1h2.3V36.7z"/>
</g>
<g>
	<path class="st2" d="M27.8,41.7v1.5c0,4.4,3.6,7.9,7.9,7.9h48.8c4.4,0,7.9-3.6,7.9-7.9v-1.5c0-4.4-3.6-7.9-7.9-7.9H35.8
		C31.4,33.8,27.8,37.4,27.8,41.7"/>
</g>
<g>
	<path class="st2" d="M63.2,33.6h-3c-0.2,0-0.3-0.1-0.3-0.3v-1.2h3.4L63.2,33.6L63.2,33.6z"/>
</g>
<g>
	<path class="st2" d="M64,32.1h-4.4c-0.1,0-0.2-0.1-0.2-0.2l0,0c0-0.1,0.1-0.2,0.2-0.2H64c0.1,0,0.2,0.1,0.2,0.2l0,0
		C64.2,32,64.1,32.1,64,32.1"/>
</g>
<g>
	<path class="st2" d="M65.9,34.5h-6c-0.3,0-0.5-0.2-0.5-0.5v-0.1c0-0.3,0.2-0.5,0.5-0.5h6c0.3,0,0.5,0.2,0.5,0.5V34
		C66.4,34.2,66.2,34.5,65.9,34.5"/>
</g>
<g>
	<rect x="59.8" y="33.7" class="st2" width="6.2" height="0.4"/>
</g>
<g>
	<path class="st2" d="M65.3,33.3h-0.5v-2c0-0.1,0.1-0.2,0.2-0.2l0,0c0.1,0,0.2,0.1,0.2,0.2v2H65.3z"/>
</g>
<g>
	<path class="st2" d="M57.1,31.6v2.7h-2.3v-2.7h-0.3v2.7v0.3v2.1V37v2.1v0.3v2.1v0.3V44v0.3v2.1v0.3v2.1v0.3v2.1v0.3v2.1V54v2.2v0.3
		h0.3h2.3h0.3v-0.3V54v-0.3v-2.1v-0.3v-2.1v-0.3v-2.1v-0.3v-2.1V44v-2.1v-0.3v-2.1v-0.3V37v-0.3v-2.1v-0.3v-2.7
		C57.4,31.6,57.1,31.6,57.1,31.6z M57.1,56.2h-2.3V54h2.3V56.2z M57.1,53.7h-2.3v-2.1h2.3V53.7z M57.1,51.2h-2.3v-2.1h2.3V51.2z
		 M57.1,48.8h-2.3v-2.1h2.3V48.8z M57.1,46.4h-2.3v-2.1h2.3V46.4z M57.1,44h-2.3v-2.1h2.3V44z M57.1,41.5h-2.3v-2.1h2.3V41.5z
		 M57.1,39.1h-2.3V37h2.3V39.1z M57.1,36.7h-2.3v-2.1h2.3V36.7z"/>
</g>
<g>
	<path class="st1" d="M164.7,41.7v1.5c0,4.4-3.6,7.9-7.9,7.9H108c-4.4,0-7.9-3.6-7.9-7.9v-1.5c0-4.4,3.6-7.9,7.9-7.9h48.8
		C161.1,33.8,164.7,37.4,164.7,41.7"/>
</g>
<g>
	<path class="st3" d="M158.6,47.6h-52.2c-0.2,0-0.4,0.2-0.4,0.4v0.1c0,0.2,0.2,0.4,0.4,0.4h52.2c0.2,0,0.4-0.2,0.4-0.4V48
		C159,47.8,158.8,47.6,158.6,47.6"/>
</g>
<g>
	<path class="st1" d="M83,41.7v1.5c0,4.4-3.6,7.9-7.9,7.9H26.2c-4.4,0-7.9-3.6-7.9-7.9v-1.5c0-4.4,3.6-7.9,7.9-7.9H75
		C79.4,33.8,83,37.4,83,41.7"/>
</g>
<g>
	<rect x="96.1" y="51.1" class="st4" width="72.4" height="1.4"/>
</g>
<g>
	<rect x="91.3" y="53.3" class="st4" width="6" height="1.5"/>
</g>
<g>
	<path class="st4" d="M91.5,55.4L91.5,55.4c-0.2,0-0.2-0.1-0.2-0.2v-3.5c0-0.1,0.1-0.2,0.2-0.2l0,0c0.1,0,0.2,0.1,0.2,0.2v3.5
		C91.7,55.3,91.6,55.4,91.5,55.4"/>
</g>
<g>
	<rect x="167.3" y="53.3" class="st4" width="6" height="1.5"/>
</g>
<g>
	<path class="st4" d="M173,55.4L173,55.4c0.2,0,0.2-0.1,0.2-0.2v-3.5c0-0.1-0.1-0.2-0.2-0.2l0,0c-0.1,0-0.2,0.1-0.2,0.2v3.5
		C172.8,55.3,172.9,55.4,173,55.4"/>
</g>
<g>
	<polygon class="st4" points="160.4,53.1 160.4,52.5 150.4,52.5 150.4,53.1 148.7,53.1 148.7,56 168.4,56 168.4,53.1 	"/>
</g>
<g>
	<path class="st4" d="M156.8,57.5h-2.6c-1.1,0-2-0.9-2-2v-0.4c0-1.1,0.9-2,2-2h2.6c1.1,0,2,0.9,2,2v0.4
		C158.8,56.6,157.9,57.5,156.8,57.5"/>
</g>
<g>
	<path class="st4" d="M145,55.8c0-1.7,1.4-3.1,3.1-3.1s3.1,1.4,3.1,3.1c0,1.7-1.4,3.1-3.1,3.1C146.4,58.9,145,57.5,145,55.8"/>
</g>
<g>
	<path class="st4" d="M159.6,55.8c0-1.7,1.4-3.1,3.1-3.1c1.7,0,3.1,1.4,3.1,3.1c0,1.7-1.4,3.1-3.1,3.1
		C161,58.9,159.6,57.5,159.6,55.8"/>
</g>
<g>
	<path class="st4" d="M163.6,53.7l-3-0.6c-0.4-0.1-0.8-0.1-1.2-0.1h-4h-3.9c-0.4,0-0.8,0-1.2,0.1l-3,0.6c-0.6,0.1-1,0.6-0.9,1.2
		l0.1,1.2c0,0.2,0.2,0.4,0.4,0.4c0.2,0,0.3-0.1,0.3-0.3l0.1-0.7c0-0.3,0.3-0.4,0.5-0.5l0.9-0.1c0.3,0,0.6,0.1,0.8,0.4l1.8,2.5
		c0.2,0.3,0.5,0.4,0.9,0.4h3.2h3.2c0.3,0,0.7-0.2,0.9-0.4l1.8-2.5c0.2-0.3,0.5-0.4,0.8-0.4L163,55c0.3,0,0.5,0.2,0.5,0.5l0.1,0.7
		c0,0.2,0.2,0.3,0.3,0.3c0.2,0,0.4-0.2,0.4-0.4l0.1-1.2C164.5,54.3,164.1,53.8,163.6,53.7 M151.5,55.8c0,0.4-0.5,0.5-0.7,0.2
		l-0.7-1.5c-0.1-0.3,0.1-0.5,0.3-0.5h0.7c0.2,0,0.4,0.2,0.4,0.4V55.8z M158.2,56.3c0,0.5-0.4,1-1,1h-1.8h-1.8c-0.5,0-1-0.4-1-1v-2
		c0-0.3,0.3-0.6,0.6-0.6h2.1h2.1c0.4,0,0.6,0.3,0.6,0.6L158.2,56.3z M160.9,54.5l-0.7,1.5c-0.2,0.4-0.7,0.2-0.7-0.2v-1.5
		c0-0.2,0.2-0.4,0.4-0.4h0.7C160.8,54,161,54.3,160.9,54.5z"/>
</g>
<g>
	<polygon class="st4" points="104.1,53.1 104.1,52.5 114.1,52.5 114.1,53.1 115.8,53.1 115.8,56 96.1,56 96.1,53.1 	"/>
</g>
<g>
	<path class="st4" d="M107.7,57.5h2.6c1.1,0,2-0.9,2-2v-0.4c0-1.1-0.9-2-2-2h-2.6c-1.1,0-2,0.9-2,2v0.4
		C105.7,56.6,106.6,57.5,107.7,57.5"/>
</g>
<g>
	<path class="st4" d="M119.5,55.8c0-1.7-1.4-3.1-3.1-3.1c-1.7,0-3.1,1.4-3.1,3.1c0,1.7,1.4,3.1,3.1,3.1
		C118.1,58.9,119.5,57.5,119.5,55.8"/>
</g>
<g>
	<path class="st4" d="M104.9,55.8c0-1.7-1.4-3.1-3.1-3.1s-3.1,1.4-3.1,3.1c0,1.7,1.4,3.1,3.1,3.1C103.5,58.9,104.9,57.5,104.9,55.8"
		/>
</g>
<g>
	<path class="st4" d="M100,54.8l0.1,1.2c0,0.2,0.2,0.4,0.4,0.4c0.2,0,0.3-0.1,0.3-0.3l0.1-0.7c0-0.3,0.3-0.4,0.5-0.5l0.9-0.1
		c0.3,0,0.6,0.1,0.8,0.4l1.8,2.5c0.2,0.3,0.5,0.4,0.9,0.4h3.2h3.2c0.3,0,0.7-0.2,0.9-0.4l1.8-2.5c0.2-0.3,0.5-0.4,0.8-0.4l0.9,0.1
		c0.3,0,0.5,0.2,0.5,0.5l0.1,0.7c0,0.2,0.2,0.3,0.3,0.3c0.2,0,0.4-0.2,0.4-0.4l0.1-1.2c0-0.6-0.4-1.1-0.9-1.2l-3-0.6
		c-0.4-0.1-0.8-0.1-1.2-0.1H109h-3.9c-0.4,0-0.8,0-1.2,0.1l-3,0.6C100.4,53.8,100,54.3,100,54.8 M113,54.4c0-0.2,0.2-0.4,0.4-0.4
		h0.7c0.3,0,0.5,0.3,0.3,0.5l-0.7,1.5c-0.2,0.4-0.7,0.2-0.7-0.2V54.4z M106.3,54.4c0-0.3,0.3-0.6,0.6-0.6h2.1h2.1
		c0.4,0,0.6,0.3,0.6,0.6v2c0,0.5-0.4,1-1,1h-1.8h-1.8c-0.5,0-1-0.4-1-1L106.3,54.4z M104,54h0.7c0.2,0,0.4,0.2,0.4,0.4v1.5
		c0,0.4-0.5,0.5-0.7,0.2l-0.7-1.5C103.5,54.3,103.7,54,104,54z"/>
</g>
<g>
	<rect x="14.3" y="51.1" class="st4" width="72.4" height="1.4"/>
</g>
<g>
	<rect x="9.5" y="53.3" class="st4" width="6" height="1.5"/>
</g>
<g>
	<path class="st4" d="M9.8,55.4L9.8,55.4c-0.2,0-0.2-0.1-0.2-0.2v-3.5c0-0.1,0.1-0.2,0.2-0.2l0,0c0.1,0,0.2,0.1,0.2,0.2v3.5
		C10,55.3,9.9,55.4,9.8,55.4"/>
</g>
<g>
	<rect x="85.5" y="53.3" class="st4" width="6" height="1.5"/>
</g>
<g>
	<path class="st4" d="M91.3,55.4L91.3,55.4c0.2,0,0.2-0.1,0.2-0.2v-3.5c0-0.1-0.1-0.2-0.2-0.2l0,0c-0.1,0-0.2,0.1-0.2,0.2v3.5
		C91.1,55.3,91.2,55.4,91.3,55.4"/>
</g>
<g>
	<polygon class="st4" points="78.6,53.1 78.6,52.5 68.7,52.5 68.7,53.1 66.9,53.1 66.9,56 86.7,56 86.7,53.1 	"/>
</g>
<g>
	<path class="st4" d="M75.1,57.5h-2.7c-1.1,0-2-0.9-2-2v-0.4c0-1.1,0.9-2,2-2H75c1.1,0,2,0.9,2,2v0.4C77,56.6,76.1,57.5,75.1,57.5"
		/>
</g>
<g>
	<path class="st4" d="M63.2,55.8c0-1.7,1.4-3.1,3.1-3.1s3.1,1.4,3.1,3.1c0,1.7-1.4,3.1-3.1,3.1C64.6,58.9,63.2,57.5,63.2,55.8"/>
</g>
<g>
	<path class="st4" d="M77.9,55.8c0-1.7,1.4-3.1,3.1-3.1s3.1,1.4,3.1,3.1c0,1.7-1.4,3.1-3.1,3.1C79.3,58.9,77.9,57.5,77.9,55.8"/>
</g>
<g>
	<path class="st4" d="M81.8,53.7l-3-0.6C78.4,53,78,53,77.6,53h-3.9h-3.9c-0.4,0-0.8,0-1.2,0.1l-3,0.6c-0.6,0.1-1,0.6-0.9,1.2
		l0.1,1.2c0,0.2,0.2,0.4,0.4,0.4c0.2,0,0.3-0.1,0.3-0.3l0.1-0.7c0-0.3,0.3-0.4,0.5-0.5l0.9-0.1c0.3,0,0.6,0.1,0.8,0.4l1.8,2.5
		c0.2,0.3,0.5,0.4,0.9,0.4h3.2h3.2c0.3,0,0.7-0.2,0.9-0.4l1.8-2.5c0.2-0.3,0.5-0.4,0.8-0.4l0.9,0.1c0.3,0,0.5,0.2,0.5,0.5l0.1,0.7
		c0,0.2,0.2,0.3,0.3,0.3l0,0c0.2,0,0.4-0.2,0.4-0.4l0.1-1.2C82.8,54.3,82.4,53.8,81.8,53.7 M69.7,55.8c0,0.4-0.5,0.5-0.7,0.2
		l-0.7-1.5c-0.1-0.3,0.1-0.5,0.3-0.5h0.7c0.2,0,0.4,0.2,0.4,0.4C69.7,54.4,69.7,55.8,69.7,55.8z M76.5,56.3c0,0.5-0.4,1-1,1h-1.8
		h-1.8c-0.5,0-1-0.4-1-1v-2c0-0.3,0.3-0.6,0.6-0.6h2.1h2.1c0.4,0,0.6,0.3,0.6,0.6L76.5,56.3z M79.1,54.5L78.4,56
		c-0.2,0.4-0.7,0.2-0.7-0.2v-1.5c0-0.2,0.2-0.4,0.4-0.4h0.7C79.1,54,79.3,54.3,79.1,54.5z"/>
</g>
<g>
	<polygon class="st4" points="22.4,53.1 22.4,52.5 32.4,52.5 32.4,53.1 34.1,53.1 34.1,56 14.3,56 14.3,53.1 	"/>
</g>
<g>
	<path class="st4" d="M26,57.5h2.6c1.1,0,2-0.9,2-2v-0.4c0-1.1-0.9-2-2-2H26c-1.1,0-2,0.9-2,2v0.4C24,56.6,24.9,57.5,26,57.5"/>
</g>
<g>
	<path class="st4" d="M37.8,55.8c0-1.7-1.4-3.1-3.1-3.1c-1.7,0-3.1,1.4-3.1,3.1c0,1.7,1.4,3.1,3.1,3.1
		C36.4,58.9,37.8,57.5,37.8,55.8"/>
</g>
<g>
	<path class="st4" d="M23.1,55.8c0-1.7-1.4-3.1-3.1-3.1c-1.7,0-3.1,1.4-3.1,3.1c0,1.7,1.4,3.1,3.1,3.1
		C21.7,58.9,23.1,57.5,23.1,55.8"/>
</g>
<g>
	<path class="st4" d="M18.3,54.8l0.1,1.2c0,0.2,0.2,0.4,0.4,0.4s0.3-0.1,0.3-0.3l0.1-0.7c0-0.3,0.3-0.4,0.5-0.5l0.9-0.1
		c0.3,0,0.6,0.1,0.8,0.4l1.8,2.5c0.2,0.3,0.5,0.4,0.9,0.4h3.2h3.2c0.3,0,0.7-0.2,0.9-0.4l1.8-2.5c0.2-0.3,0.5-0.4,0.8-0.4l0.9,0.1
		c0.3,0,0.5,0.2,0.5,0.5l0.1,0.7c0,0.2,0.2,0.3,0.3,0.3c0.2,0,0.4-0.2,0.4-0.4l0.1-1.2c0-0.6-0.4-1.1-0.9-1.2l-3-0.6
		c-0.4,0-0.8,0-1.2,0h-3.9h-3.9c-0.4,0-0.8,0-1.2,0.1l-3,0.6C18.6,53.8,18.2,54.3,18.3,54.8 M31.3,54.4c0-0.2,0.2-0.4,0.4-0.4h0.7
		c0.3,0,0.5,0.3,0.3,0.5L32,56c-0.2,0.4-0.7,0.2-0.7-0.2C31.3,55.8,31.3,54.4,31.3,54.4z M24.5,54.4c0-0.3,0.3-0.6,0.6-0.6h2.1h2.1
		c0.4,0,0.6,0.3,0.6,0.6v2c0,0.5-0.4,1-1,1h-1.8h-1.8c-0.5,0-1-0.4-1-1L24.5,54.4z M22.2,54h0.7c0.2,0,0.4,0.2,0.4,0.4v1.5
		c0,0.4-0.5,0.5-0.7,0.2l-0.7-1.5C21.7,54.3,21.9,54,22.2,54z"/>
</g>
<g>
	<path class="st5" d="M100,41.7v1.5c0,4.4,3.6,7.9,7.9,7.9h48.8c4.4,0,7.9-3.6,7.9-7.9v-1.5c0-4.4-3.6-7.9-7.9-7.9h-48.8
		C103.6,33.8,100,37.4,100,41.7"/>
</g>
<g>
	<path class="st5" d="M135.4,33.6h-3c-0.2,0-0.3-0.1-0.3-0.3v-1.2h3.4v1.5H135.4z"/>
</g>
<g>
	<path class="st5" d="M136.2,32.1h-4.4c-0.1,0-0.2-0.1-0.2-0.2l0,0c0-0.1,0.1-0.2,0.2-0.2h4.4c0.1,0,0.2,0.1,0.2,0.2l0,0
		C136.4,32,136.3,32.1,136.2,32.1"/>
</g>
<g>
	<path class="st5" d="M138.1,34.5h-6c-0.3,0-0.5-0.2-0.5-0.5v-0.1c0-0.3,0.2-0.5,0.5-0.5h6c0.3,0,0.5,0.2,0.5,0.5V34
		C138.6,34.2,138.4,34.5,138.1,34.5"/>
</g>
<g>
	<rect x="132" y="33.7" class="st5" width="6.2" height="0.4"/>
</g>
<g>
	<path class="st5" d="M137.5,33.3H137v-2c0-0.1,0.1-0.2,0.2-0.2l0,0c0.1,0,0.2,0.1,0.2,0.2v2H137.5z"/>
</g>
<g>
	<path class="st5" d="M129.2,31.6v2.7h-2.3v-2.7h-0.3v2.7v0.3v2.1V37v2.1v0.3v2.1v0.3V44v0.3v2.1v0.3v2.1v0.3v2.1v0.3v2.1V54v2.2
		v0.3h0.3h2.3h0.3v-0.3V54v-0.3v-2.1v-0.3v-2.1v-0.3v-2.1v-0.3v-2.1V44v-2.1v-0.3v-2.1v-0.3V37v-0.3v-2.1v-0.3v-2.7
		C129.5,31.6,129.2,31.6,129.2,31.6z M129.2,56.2h-2.3V54h2.3V56.2z M129.2,53.7h-2.3v-2.1h2.3V53.7z M129.2,51.2h-2.3v-2.1h2.3
		V51.2z M129.2,48.8h-2.3v-2.1h2.3V48.8z M129.2,46.4h-2.3v-2.1h2.3V46.4z M129.2,44h-2.3v-2.1h2.3V44z M129.2,41.5h-2.3v-2.1h2.3
		V41.5z M129.2,39.1h-2.3V37h2.3V39.1z M129.2,36.7h-2.3v-2.1h2.3V36.7z"/>
</g>
<g>
	<path class="st5" d="M18.3,41.7v1.5c0,4.4,3.6,7.9,7.9,7.9H75c4.4,0,7.9-3.6,7.9-7.9v-1.5c0-4.4-3.6-7.9-7.9-7.9H26.2
		C21.8,33.8,18.3,37.4,18.3,41.7"/>
</g>
<g>
	<path class="st5" d="M53.6,33.6h-3c-0.2,0-0.3-0.1-0.3-0.3v-1.2h3.4L53.6,33.6L53.6,33.6z"/>
</g>
<g>
	<path class="st5" d="M54.4,32.1H50c-0.1,0-0.2-0.1-0.2-0.2l0,0c0-0.1,0.1-0.2,0.2-0.2h4.4c0.1,0,0.2,0.1,0.2,0.2l0,0
		C54.7,32,54.6,32.1,54.4,32.1"/>
</g>
<g>
	<path class="st5" d="M56.3,34.5h-6c-0.3,0-0.5-0.2-0.5-0.5v-0.1c0-0.3,0.2-0.5,0.5-0.5h6c0.3,0,0.5,0.2,0.5,0.5V34
		C56.9,34.2,56.6,34.5,56.3,34.5"/>
</g>
<g>
	<rect x="50.2" y="33.7" class="st5" width="6.2" height="0.4"/>
</g>
<g>
	<path class="st5" d="M55.7,33.3h-0.5v-2c0-0.1,0.1-0.2,0.2-0.2l0,0c0.1,0,0.2,0.1,0.2,0.2v2H55.7z"/>
</g>
<g>
	<path class="st5" d="M47.5,31.6v2.7h-2.3v-2.7h-0.3v2.7v0.3v2.1V37v2.1v0.3v2.1v0.3V44v0.3v2.1v0.3v2.1v0.3v2.1v0.3v2.1V54v2.2v0.3
		h0.3h2.3h0.3v-0.3V54v-0.3v-2.1v-0.3v-2.1v-0.3v-2.1v-0.3v-2.1V44v-2.1v-0.3v-2.1v-0.3V37v-0.3v-2.1v-0.3v-2.7
		C47.8,31.6,47.5,31.6,47.5,31.6z M47.5,56.2h-2.3V54h2.3V56.2z M47.5,53.7h-2.3v-2.1h2.3V53.7z M47.5,51.2h-2.3v-2.1h2.3V51.2z
		 M47.5,48.8h-2.3v-2.1h2.3V48.8z M47.5,46.4h-2.3v-2.1h2.3V46.4z M47.5,44h-2.3v-2.1h2.3V44z M47.5,41.5h-2.3v-2.1h2.3V41.5z
		 M47.5,39.1h-2.3V37h2.3V39.1z M47.5,36.7h-2.3v-2.1h2.3V36.7z"/>
</g>
<g>
	<path class="st1" d="M155.1,41.7v1.5c0,4.4-3.6,7.9-7.9,7.9H98.4c-4.4,0-7.9-3.6-7.9-7.9v-1.5c0-4.4,3.6-7.9,7.9-7.9h48.8
		C151.6,33.8,155.1,37.4,155.1,41.7"/>
</g>
<g>
	<path class="st1" d="M90.5,41.7v1.5c0,4.4,3.6,7.9,7.9,7.9h48.8c4.4,0,7.9-3.6,7.9-7.9v-1.5c0-4.4-3.6-7.9-7.9-7.9H98.4
		C94,33.8,90.5,37.4,90.5,41.7"/>
</g>
<g>
	<path class="st3" d="M149,37.3H96.8c-0.2,0-0.4-0.2-0.4-0.4v-0.1c0-0.2,0.2-0.4,0.4-0.4H149c0.2,0,0.4,0.2,0.4,0.4v0.1
		C149.4,37.1,149.2,37.3,149,37.3"/>
</g>
<g>
	<path class="st3" d="M149,47.6H96.8c-0.2,0-0.4,0.2-0.4,0.4v0.1c0,0.2,0.2,0.4,0.4,0.4H149c0.2,0,0.4-0.2,0.4-0.4V48
		C149.4,47.8,149.2,47.6,149,47.6"/>
</g>
<g>
	<rect x="86.5" y="51.1" class="st6" width="72.4" height="1.4"/>
</g>
<g>
	<rect x="81.7" y="53.3" class="st6" width="6" height="1.5"/>
</g>
<g>
	<path class="st6" d="M82,55.4L82,55.4c-0.2,0-0.2-0.1-0.2-0.2v-3.5c0-0.1,0.1-0.2,0.2-0.2l0,0c0.1,0,0.2,0.1,0.2,0.2v3.5
		C82.2,55.3,82.1,55.4,82,55.4"/>
</g>
<g>
	<rect x="157.7" y="53.3" class="st6" width="6" height="1.5"/>
</g>
<g>
	<path class="st6" d="M163.5,55.4L163.5,55.4c0.2,0,0.2-0.1,0.2-0.2v-3.5c0-0.1-0.1-0.2-0.2-0.2l0,0c-0.1,0-0.2,0.1-0.2,0.2v3.5
		C163.2,55.3,163.3,55.4,163.5,55.4"/>
</g>
<g>
	<polygon class="st4" points="150.8,53.1 150.8,52.5 140.8,52.5 140.8,53.1 139.1,53.1 139.1,56 158.9,56 158.9,53.1 	"/>
</g>
<g>
	<path class="st6" d="M147.2,57.5h-2.6c-1.1,0-2-0.9-2-2v-0.4c0-1.1,0.9-2,2-2h2.6c1.1,0,2,0.9,2,2v0.4
		C149.2,56.6,148.3,57.5,147.2,57.5"/>
</g>
<g>
	<path class="st6" d="M135.4,55.8c0-1.7,1.4-3.1,3.1-3.1s3.1,1.4,3.1,3.1c0,1.7-1.4,3.1-3.1,3.1C136.8,58.9,135.4,57.5,135.4,55.8"
		/>
</g>
<g>
	<path class="st6" d="M150,55.8c0-1.7,1.4-3.1,3.1-3.1s3.1,1.4,3.1,3.1c0,1.7-1.4,3.1-3.1,3.1C151.5,58.9,150,57.5,150,55.8"/>
</g>
<g>
	<path class="st4" d="M154,53.7l-3-0.6c-0.4-0.1-0.8-0.1-1.2-0.1h-3.9H142c-0.4,0-0.8,0-1.2,0.1l-3,0.6c-0.6,0.1-1,0.6-0.9,1.2
		l0.1,1.2c0,0.2,0.2,0.4,0.4,0.4c0.2,0,0.3-0.1,0.3-0.3l0.1-0.7c0-0.3,0.3-0.4,0.5-0.5l0.9-0.1c0.3,0,0.6,0.1,0.8,0.4l1.8,2.5
		c0.2,0.3,0.5,0.4,0.9,0.4h3.2h3.2c0.3,0,0.7-0.2,0.9-0.4l1.8-2.5c0.2-0.3,0.5-0.4,0.8-0.4l0.9,0.1c0.3,0,0.5,0.2,0.5,0.5l0.1,0.7
		c0,0.2,0.2,0.3,0.3,0.3c0.2,0,0.4-0.2,0.4-0.4l0.1-1.2C154.9,54.3,154.6,53.8,154,53.7 M141.9,55.8c0,0.4-0.5,0.5-0.7,0.2l-0.7-1.5
		c-0.1-0.3,0.1-0.5,0.3-0.5h0.7c0.2,0,0.4,0.2,0.4,0.4V55.8z M148.6,56.3c0,0.5-0.4,1-1,1h-1.8H144c-0.5,0-1-0.4-1-1v-2
		c0-0.3,0.3-0.6,0.6-0.6h2.1h2.1c0.4,0,0.6,0.3,0.6,0.6L148.6,56.3z M151.3,54.5l-0.7,1.5c-0.2,0.4-0.7,0.2-0.7-0.2v-1.5
		c0-0.2,0.2-0.4,0.4-0.4h0.7C151.3,54,151.4,54.3,151.3,54.5z"/>
</g>
<g>
	<polygon class="st4" points="94.6,53.1 94.6,52.5 104.5,52.5 104.5,53.1 106.3,53.1 106.3,56 86.5,56 86.5,53.1 	"/>
</g>
<g>
	<path class="st6" d="M98.1,57.5h2.6c1.1,0,2-0.9,2-2v-0.4c0-1.1-0.9-2-2-2h-2.6c-1.1,0-2,0.9-2,2v0.4
		C96.2,56.6,97.1,57.5,98.1,57.5"/>
</g>
<g>
	<path class="st6" d="M109.9,55.8c0-1.7-1.4-3.1-3.1-3.1c-1.7,0-3.1,1.4-3.1,3.1c0,1.7,1.4,3.1,3.1,3.1
		C108.5,58.9,109.9,57.5,109.9,55.8"/>
</g>
<g>
	<path class="st6" d="M95.3,55.8c0-1.7-1.4-3.1-3.1-3.1s-3.1,1.4-3.1,3.1c0,1.7,1.4,3.1,3.1,3.1C93.9,58.9,95.3,57.5,95.3,55.8"/>
</g>
<g>
	<path class="st4" d="M90.4,54.8l0.1,1.2c0,0.2,0.2,0.4,0.4,0.4c0.2,0,0.3-0.1,0.3-0.3l0.1-0.7c0-0.3,0.3-0.4,0.5-0.5l0.9-0.1
		c0.3,0,0.6,0.1,0.8,0.4l1.8,2.5c0.2,0.3,0.5,0.4,0.9,0.4h3.2h3.2c0.3,0,0.7-0.2,0.9-0.4l1.8-2.5c0.2-0.3,0.5-0.4,0.8-0.4l0.9,0.1
		c0.3,0,0.5,0.2,0.5,0.5l0.1,0.7c0,0.2,0.2,0.3,0.3,0.3c0.2,0,0.4-0.2,0.4-0.4l0.1-1.2c0-0.6-0.4-1.1-0.9-1.2l-3-0.6
		c-0.4-0.1-0.8-0.1-1.2-0.1h-3.9h-3.9c-0.4,0-0.8,0-1.2,0.1l-3,0.6C90.8,53.8,90.4,54.3,90.4,54.8 M103.5,54.4
		c0-0.2,0.2-0.4,0.4-0.4h0.7c0.3,0,0.5,0.3,0.3,0.5l-0.7,1.5c-0.2,0.4-0.7,0.2-0.7-0.2C103.5,55.8,103.5,54.4,103.5,54.4z
		 M96.7,54.4c0-0.3,0.3-0.6,0.6-0.6h2.1h2.1c0.4,0,0.6,0.3,0.6,0.6v2c0,0.5-0.4,1-1,1h-1.8h-1.8c-0.5,0-1-0.4-1-1L96.7,54.4z
		 M94.4,54h0.7c0.2,0,0.4,0.2,0.4,0.4v1.5c0,0.4-0.5,0.5-0.7,0.2l-0.7-1.5C93.9,54.3,94.1,54,94.4,54z"/>
</g>
<g>
	<path class="st4" d="M125.8,33.6h-3c-0.2,0-0.3-0.1-0.3-0.3v-1.2h3.4L125.8,33.6L125.8,33.6z"/>
</g>
<g>
	<path class="st6" d="M126.6,32.1h-4.4c-0.1,0-0.2-0.1-0.2-0.2l0,0c0-0.1,0.1-0.2,0.2-0.2h4.4c0.1,0,0.2,0.1,0.2,0.2l0,0
		C126.8,32,126.7,32.1,126.6,32.1"/>
</g>
<g>
	<path class="st6" d="M128.5,34.5h-6c-0.3,0-0.5-0.2-0.5-0.5v-0.1c0-0.3,0.2-0.5,0.5-0.5h6c0.3,0,0.5,0.2,0.5,0.5V34
		C129,34.2,128.8,34.5,128.5,34.5"/>
</g>
<g>
	<rect x="122.4" y="33.7" class="st4" width="6.2" height="0.4"/>
</g>
<g>
	<path class="st4" d="M127.9,33.3h-0.5v-2c0-0.1,0.1-0.2,0.2-0.2l0,0c0.1,0,0.2,0.1,0.2,0.2v2H127.9z"/>
</g>
<g>
	<path class="st6" d="M119.7,31.6v2.7h-2.3v-2.7h-0.3v2.7v0.3v2.1V37v2.1v0.3v2.1v0.3V44v0.3v2.1v0.3v2.1v0.3v2.1v0.3v2.1V54v2.2
		v0.3h0.3h2.3h0.3v-0.3V54v-0.3v-2.1v-0.3v-2.1v-0.3v-2.1v-0.3v-2.1V44v-2.1v-0.3v-2.1v-0.3V37v-0.3v-2.1v-0.3v-2.7
		C120,31.6,119.7,31.6,119.7,31.6z M119.7,56.2h-2.3V54h2.3V56.2z M119.7,53.7h-2.3v-2.1h2.3V53.7z M119.7,51.2h-2.3v-2.1h2.3V51.2z
		 M119.7,48.8h-2.3v-2.1h2.3V48.8z M119.7,46.4h-2.3v-2.1h2.3V46.4z M119.7,44h-2.3v-2.1h2.3V44z M119.7,41.5h-2.3v-2.1h2.3V41.5z
		 M119.7,39.1h-2.3V37h2.3V39.1z M119.7,36.7h-2.3v-2.1h2.3V36.7z"/>
</g>
<g>
	<path class="st1" d="M73.4,41.7v1.5c0,4.4-3.6,7.9-7.9,7.9H16.6c-4.4,0-7.9-3.6-7.9-7.9v-1.5c0-4.4,3.6-7.9,7.9-7.9h48.8
		C69.8,33.8,73.4,37.4,73.4,41.7"/>
</g>
<g>
	<path class="st1" d="M8.7,41.7v1.5c0,4.4,3.6,7.9,7.9,7.9h48.8c4.4,0,7.9-3.6,7.9-7.9v-1.5c0-4.4-3.6-7.9-7.9-7.9H16.6
		C12.3,33.8,8.7,37.4,8.7,41.7"/>
</g>
<g>
	<path class="st3" d="M67.2,37.3H15c-0.2,0-0.4-0.2-0.4-0.4v-0.1c0-0.2,0.2-0.4,0.4-0.4h52.2c0.2,0,0.4,0.2,0.4,0.4v0.1
		C67.7,37.1,67.5,37.3,67.2,37.3"/>
</g>
<g>
	<path class="st3" d="M67.2,47.6H15c-0.2,0-0.4,0.2-0.4,0.4v0.1c0,0.2,0.2,0.4,0.4,0.4h52.2c0.2,0,0.4-0.2,0.4-0.4V48
		C67.7,47.8,67.5,47.6,67.2,47.6"/>
</g>
<g>
	<rect x="4.8" y="51.1" class="st6" width="72.4" height="1.4"/>
</g>
<g>
	<rect x="0" y="53.3" class="st6" width="6" height="1.5"/>
</g>
<g>
	<path class="st6" d="M0.2,55.4L0.2,55.4C0,55.4,0,55.3,0,55.2v-3.5c0-0.1,0.1-0.2,0.2-0.2l0,0c0.1,0,0.2,0.1,0.2,0.2v3.5
		C0.4,55.3,0.3,55.4,0.2,55.4"/>
</g>
<g>
	<rect x="76" y="53.3" class="st6" width="6" height="1.5"/>
</g>
<g>
	<path class="st6" d="M81.7,55.4L81.7,55.4c0.2,0,0.2-0.1,0.2-0.2v-3.5c0-0.1-0.1-0.2-0.2-0.2l0,0c-0.1,0-0.2,0.1-0.2,0.2v3.5
		C81.5,55.3,81.6,55.4,81.7,55.4"/>
</g>
<g>
	<polygon class="st4" points="69,53.1 69,52.5 59.1,52.5 59.1,53.1 57.3,53.1 57.3,56 77.1,56 77.1,53.1 	"/>
</g>
<g>
	<path class="st6" d="M65.5,57.5h-2.6c-1.1,0-2-0.9-2-2v-0.4c0-1.1,0.9-2,2-2h2.6c1.1,0,2,0.9,2,2v0.4
		C67.4,56.6,66.6,57.5,65.5,57.5"/>
</g>
<g>
	<path class="st6" d="M53.7,55.8c0-1.7,1.4-3.1,3.1-3.1s3.1,1.4,3.1,3.1c0,1.7-1.4,3.1-3.1,3.1C55.1,58.9,53.7,57.5,53.7,55.8"/>
</g>
<g>
	<path class="st6" d="M68.3,55.8c0-1.7,1.4-3.1,3.1-3.1s3.1,1.4,3.1,3.1c0,1.7-1.4,3.1-3.1,3.1C69.7,58.9,68.3,57.5,68.3,55.8"/>
</g>
<g>
	<path class="st4" d="M72.2,53.7l-3-0.6C68.8,53,68.4,53,68,53h-3.9h-3.9c-0.4,0-0.8,0-1.2,0.1l-3,0.6c-0.6,0.1-1,0.6-0.9,1.2
		l0.1,1.2c0,0.2,0.2,0.4,0.4,0.4c0.2,0,0.3-0.1,0.3-0.3l0.1-0.7c0-0.3,0.3-0.4,0.5-0.5l0.9-0.1c0.3,0,0.6,0.1,0.8,0.4l1.8,2.5
		c0.2,0.3,0.5,0.4,0.9,0.4h3.2h3.2c0.3,0,0.7-0.2,0.9-0.4l1.8-2.5c0.2-0.3,0.5-0.4,0.8-0.4l0.9,0.1c0.3,0,0.5,0.2,0.5,0.5l0.1,0.7
		c0,0.2,0.2,0.3,0.3,0.3l0,0c0.2,0,0.4-0.2,0.4-0.4l0.1-1.2C73.2,54.3,72.8,53.8,72.2,53.7 M60.2,55.8c0,0.4-0.5,0.5-0.7,0.2
		l-0.7-1.5c-0.1-0.3,0.1-0.5,0.3-0.5h0.7c0.2,0,0.4,0.2,0.4,0.4C60.2,54.4,60.2,55.8,60.2,55.8z M66.9,56.3c0,0.5-0.4,1-1,1h-1.8
		h-1.8c-0.5,0-1-0.4-1-1v-2c0-0.3,0.3-0.6,0.6-0.6H64h2.1c0.4,0,0.6,0.3,0.6,0.6L66.9,56.3z M69.6,54.5L68.8,56
		c-0.2,0.4-0.7,0.2-0.7-0.2v-1.5c0-0.2,0.2-0.4,0.4-0.4h0.7C69.5,54,69.7,54.3,69.6,54.5z"/>
</g>
<g>
	<polygon class="st4" points="12.8,53.1 12.8,52.5 22.8,52.5 22.8,53.1 24.5,53.1 24.5,56 4.8,56 4.8,53.1 	"/>
</g>
<g>
	<path class="st6" d="M16.4,57.5H19c1.1,0,2-0.9,2-2v-0.4c0-1.1-0.9-2-2-2h-2.6c-1.1,0-2,0.9-2,2v0.4C14.4,56.6,15.3,57.5,16.4,57.5
		"/>
</g>
<g>
	<path class="st6" d="M28.2,55.8c0-1.7-1.4-3.1-3.1-3.1c-1.7,0-3.1,1.4-3.1,3.1c0,1.7,1.4,3.1,3.1,3.1
		C26.8,58.9,28.2,57.5,28.2,55.8"/>
</g>
<g>
	<path class="st6" d="M13.6,55.8c0-1.7-1.4-3.1-3.1-3.1c-1.7,0-3.1,1.4-3.1,3.1c0,1.7,1.4,3.1,3.1,3.1
		C12.2,58.9,13.6,57.5,13.6,55.8"/>
</g>
<g>
	<path class="st4" d="M8.7,54.8L8.8,56c0,0.2,0.2,0.4,0.4,0.4c0.2,0,0.3-0.1,0.3-0.3l0.1-0.7c0-0.3,0.3-0.4,0.5-0.5l0.9-0.1
		c0.3,0,0.6,0.1,0.8,0.4l1.8,2.5c0.2,0.3,0.5,0.4,0.9,0.4h3.2h3.2c0.3,0,0.7-0.2,0.9-0.4l1.8-2.5c0.2-0.3,0.5-0.4,0.8-0.4l0.9,0.1
		c0.3,0,0.5,0.2,0.5,0.5l0.1,0.7c0,0.2,0.2,0.3,0.3,0.3c0.2,0,0.4-0.2,0.4-0.4l0.1-1.2c0-0.6-0.4-1.1-0.9-1.2l-3-0.6
		c-0.4,0-0.8,0-1.2,0h-3.9h-3.9c-0.4,0-0.8,0-1.2,0.1l-3,0.6C9.1,53.8,8.7,54.3,8.7,54.8 M21.7,54.4c0-0.2,0.2-0.4,0.4-0.4h0.7
		c0.3,0,0.5,0.3,0.3,0.5L22.4,56c-0.2,0.4-0.7,0.2-0.7-0.2V54.4z M15,54.4c0-0.3,0.3-0.6,0.6-0.6h2.1h2.1c0.4,0,0.6,0.3,0.6,0.6v2
		c0,0.5-0.4,1-1,1h-1.8h-1.8c-0.5,0-1-0.4-1-1L15,54.4z M12.6,54h0.8c0.2,0,0.4,0.2,0.4,0.4v1.5c0,0.4-0.5,0.5-0.7,0.2l-0.7-1.5
		C12.2,54.3,12.4,54,12.6,54z"/>
</g>
<g>
	<path class="st4" d="M44.1,33.6h-3c-0.2,0-0.3-0.1-0.3-0.3v-1.2h3.4L44.1,33.6L44.1,33.6z"/>
</g>
<g>
	<path class="st6" d="M44.9,32.1h-4.4c-0.1,0-0.2-0.1-0.2-0.2l0,0c0-0.1,0.1-0.2,0.2-0.2h4.4c0.1,0,0.2,0.1,0.2,0.2l0,0
		C45.1,32,45,32.1,44.9,32.1"/>
</g>
<g>
	<path class="st6" d="M46.8,34.5h-6c-0.3,0-0.5-0.2-0.5-0.5v-0.1c0-0.3,0.2-0.5,0.5-0.5h6c0.3,0,0.5,0.2,0.5,0.5V34
		C47.3,34.2,47.1,34.5,46.8,34.5"/>
</g>
<g>
	<rect x="40.6" y="33.7" class="st4" width="6.2" height="0.4"/>
</g>
<g>
	<path class="st4" d="M46.1,33.3h-0.5v-2c0-0.1,0.1-0.2,0.2-0.2l0,0c0.1,0,0.2,0.1,0.2,0.2v2H46.1z"/>
</g>
<g>
	<path class="st6" d="M37.9,31.6v2.7h-2.3v-2.7h-0.3v2.7v0.3v2.1V37v2.1v0.3v2.1v0.3V44v0.3v2.1v0.3v2.1v0.3v2.1v0.3v2.1V54v2.2v0.3
		h0.3h2.3h0.3v-0.3V54v-0.3v-2.1v-0.3v-2.1v-0.3v-2.1v-0.3v-2.1V44v-2.1v-0.3v-2.1v-0.3V37v-0.3v-2.1v-0.3v-2.7
		C38.2,31.6,37.9,31.6,37.9,31.6z M37.9,56.2h-2.3V54h2.3V56.2z M37.9,53.7h-2.3v-2.1h2.3V53.7z M37.9,51.2h-2.3v-2.1h2.3V51.2z
		 M37.9,48.8h-2.3v-2.1h2.3V48.8z M37.9,46.4h-2.3v-2.1h2.3V46.4z M37.9,44h-2.3v-2.1h2.3V44z M37.9,41.5h-2.3v-2.1h2.3V41.5z
		 M37.9,39.1h-2.3V37h2.3V39.1z M37.9,36.7h-2.3v-2.1h2.3V36.7z"/>
</g>
<g>
	<g>
		<path class="st7" d="M22,7h-1.4V1.7h-2.4V7h-1.4V0.6h5.1V7H22z"/>
		<path class="st7" d="M29.4,3.8c0,1.1-0.3,1.9-0.8,2.5c-0.5,0.5-1.2,0.8-2.2,0.8s-1.7-0.3-2.3-0.9c-0.5-0.6-0.8-1.4-0.8-2.5
			s0.3-1.9,0.8-2.4c0.6-0.5,1.3-0.8,2.3-0.8s1.7,0.3,2.3,0.9C29.2,1.9,29.4,2.7,29.4,3.8z M24.8,3.8c0,0.7,0.1,1.3,0.4,1.6
			c0.2,0.4,0.6,0.5,1.2,0.5c1.1,0,1.6-0.7,1.6-2.2c0-1.4-0.5-2.2-1.6-2.2c-0.5,0-1,0.2-1.2,0.5C24.9,2.5,24.8,3.1,24.8,3.8z"/>
		<path class="st7" d="M33.5,1.6c-0.5,0-0.9,0.2-1.2,0.6s-0.4,0.9-0.4,1.6c0,1.4,0.5,2.1,1.6,2.1c0.5,0,1-0.1,1.6-0.3v1.1
			C34.6,7,34,7.1,33.4,7.1c-0.9,0-1.6-0.3-2.1-0.9s-0.7-1.4-0.7-2.4c0-0.7,0.1-1.3,0.4-1.8s0.6-0.9,1-1.2c0.5-0.3,1-0.4,1.6-0.4
			s1.3,0.2,1.9,0.5L34.9,2c-0.2-0.1-0.5-0.2-0.7-0.3C34,1.7,33.7,1.6,33.5,1.6z"/>
		<path class="st7" d="M39,7h-1.4V1.7h-1.7V0.6h4.8v1.1H39C39,1.7,39,7,39,7z"/>
		<path class="st7" d="M45.7,7l-0.5-1.5h-2.3L42.4,7h-1.5l2.3-6.5h1.7L47.1,7H45.7z M44.9,4.3c-0.5-1.4-0.7-2.1-0.8-2.3
			S44,1.7,44,1.6c-0.1,0.4-0.4,1.3-0.8,2.8L44.9,4.3L44.9,4.3z"/>
		<path class="st7" d="M47.9,0.6h2c0.9,0,1.6,0.1,2,0.4s0.6,0.7,0.6,1.2c0,0.4-0.1,0.7-0.3,0.9c-0.2,0.2-0.4,0.4-0.7,0.4l0,0
			c0.4,0.1,0.7,0.3,0.9,0.5c0.2,0.2,0.3,0.6,0.3,1c0,0.6-0.2,1-0.6,1.4c-0.4,0.3-1,0.5-1.7,0.5H48V0.6H47.9z M49.3,3.1h0.8
			c0.4,0,0.6-0.1,0.8-0.2c0.2-0.1,0.2-0.3,0.2-0.6c0-0.2-0.1-0.4-0.3-0.5c-0.2-0.1-0.5-0.2-0.9-0.2h-0.7L49.3,3.1L49.3,3.1z
			 M49.3,4.2v1.7h0.9c0.4,0,0.7-0.1,0.8-0.2s0.3-0.4,0.3-0.7c0-0.5-0.4-0.8-1.1-0.8H49.3z"/>
		<path class="st7" d="M58.7,5.9h2V0.6h1.4v5.3h1v3h-1.3V7h-7.7V0.6h1.4v5.3h2V0.6h1.4v5.3H58.7z"/>
		<path class="st7" d="M64,0.6h1.2v3.1v0.8v0.9l0,0l3-4.9h1.6V7h-1.2V3.9c0-0.4,0-1,0.1-1.8l0,0l-3,4.9h-1.6L64,0.6L64,0.6z"/>
		<path class="st7" d="M76.6,7h-1.5l-2.3-3.3V7h-1.4V0.6h1.4v3.1l2.3-3.1h1.4l-2.3,3.1L76.6,7z"/>
		<path class="st7" d="M22,20h-1.4v-5.3h-2.4V20h-1.4v-6.4h5.1V20H22z"/>
		<path class="st7" d="M28.1,15.6c0,0.7-0.2,1.2-0.6,1.6c-0.4,0.4-1,0.5-1.8,0.5h-0.6V20h-1.4v-6.4h2.1c0.8,0,1.4,0.2,1.8,0.5
			C27.9,14.4,28.1,14.9,28.1,15.6z M25,16.6h0.4c0.4,0,0.7-0.1,0.9-0.2c0.2-0.2,0.3-0.4,0.3-0.7s-0.1-0.6-0.3-0.7s-0.4-0.2-0.8-0.2
			h-0.6L25,16.6L25,16.6z"/>
		<path class="st7" d="M35.1,16.8c0,1.1-0.3,1.9-0.8,2.5S33,20.2,32,20.2s-1.7-0.3-2.3-0.9c-0.5-0.6-0.8-1.4-0.8-2.5
			s0.3-1.9,0.8-2.4c0.5-0.6,1.3-0.8,2.3-0.8s1.7,0.3,2.3,0.9C34.8,14.9,35.1,15.7,35.1,16.8z M30.4,16.8c0,0.7,0.1,1.3,0.4,1.6
			c0.3,0.4,0.7,0.5,1.2,0.5c1.1,0,1.6-0.7,1.6-2.2c0-1.4-0.5-2.2-1.6-2.2c-0.5,0-1,0.2-1.2,0.5C30.5,15.5,30.4,16.1,30.4,16.8z"/>
		<path class="st7" d="M41.5,20h-1.4v-5.3h-2.4V20h-1.3v-6.4h5.1V20z"/>
		<path class="st7" d="M47.1,20l-0.5-1.5h-2.3L43.8,20h-1.5l2.3-6.5h1.7l2.3,6.5H47.1z M46.3,17.3c-0.4-1.4-0.7-2.2-0.7-2.4
			s-0.1-0.3-0.1-0.4c-0.1,0.4-0.4,1.3-0.8,2.8H46.3z"/>
		<path class="st7" d="M54.6,20h-1.4v-2.8h-2.5V20h-1.4v-6.4h1.4v2.5h2.5v-2.5h1.4V20z"/>
		<path class="st7" d="M60.2,20l-0.5-1.5h-2.3L56.9,20h-1.5l2.3-6.5h1.7l2.3,6.5H60.2z M59.4,17.3c-0.4-1.4-0.7-2.2-0.7-2.4
			s-0.1-0.3-0.1-0.4c-0.1,0.4-0.4,1.3-0.8,2.8H59.4z"/>
	</g>
</g>
</svg>
