<svg width="207" height="197" viewBox="0 0 207 197" fill="none" xmlns="http://www.w3.org/2000/svg">
<g clip-path="url(#clip0)">
<path d="M0.1 11.6V9.09998L2.3 7.89998L4.4 6.59998L6.6 7.79998L8.8 8.99998V11.6L6.5 10.3L4.4 9.09998L2.2 10.3L0.1 11.6ZM95.5 53.8H21.3H10.1C7.3 53.8 4.8 52.7 3 50.8C1.2 49 0 46.5 0 43.7V37.6V16.6V14.1H0.1L2.3 12.9L4.4 11.6L6.6 12.8L8.8 14V16.5V25.2C8.8 32.7 8.8 31.6 8.8 43.7C8.8 44.1 9 44.5 9.2 44.7C9.4 44.9 9.8 45.1 10.2 45.1H21.3H95.6H106.7C109.5 45.1 112 46.2 113.8 48.1C115.6 49.9 116.8 52.4 116.8 55.2V105.7H108.2C108.2 96.5 108.1 68 108.1 55.2C108.1 54.8 107.9 54.4 107.7 54.2C107.5 54 107.1 53.8 106.7 53.8C106.7 53.8 95.5 53.8 95.5 53.8Z" fill="#006EFF"/>
<path d="M198 11.6V9.09998L200.1 7.79998L202.3 6.59998L204.4 7.79998L206.6 9.09998V11.6L204.4 10.3L202.3 9.09998L200.1 10.3L198 11.6Z" fill="#006EFF"/>
<path d="M180.8 53.8H196.5C199.3 53.8 201.8 52.7 203.6 50.8C205.4 49 206.6 46.5 206.6 43.7V37.6V37.3V36.9V36.5V36.1V35.7V35.4V35.1V34.8V34.5V34.2V33.9V33.6V33.3V33V32.7V32.6V32.4V32.2V32V31.8V31.6V31.4V31.2V31V30.8V30.6V30.4V30.1V29.8V29.5V29.2V28.9V28.6V28.3V28V27.7V27.4V27V26.6V26.2V25.6V25.2V24.8V24.3V23.8V23.3V22.8V22.3V21.7V21.1V20.5V19.9V19.2V16.5V14.3V14.1L204.4 12.9L202.3 11.6L200.1 12.8L198 14.1H197.9V16.6V37.6C197.9 39.2 197.9 41.2 197.9 43.7C197.9 44.1 197.7 44.5 197.5 44.7C197.3 44.9 196.9 45.1 196.5 45.1H180.8H169C166.2 45.1 163.7 46.2 161.9 48.1C160.1 49.9 158.9 52.4 158.9 55.2V105.7H167.5C167.5 96.5 167.6 68 167.6 55.2C167.6 54.8 167.8 54.4 168 54.2C168.2 54 168.6 53.8 169 53.8C169 53.8 180.8 53.8 180.8 53.8Z" fill="#006EFF"/>
<path fill-rule="evenodd" clip-rule="evenodd" d="M133.2 -25.1L137.6 -20L141.8 -25.1V59.1V69.8L139.7 72.4L137.5 75.2L135.4 72.4L133.2 69.8V59.1V-25.1Z" fill="#006EFF"/>
<path fill-rule="evenodd" clip-rule="evenodd" d="M113.2 172.2H161.8V153.1H138.1H113.2V172.2Z" fill="#006EFF"/>
<path d="M113.2 153.1H103.8V172.2H113.2V153.1Z" fill="#006EFF"/>
<path d="M171.9 153.1H161.8V172.2H171.9V153.1Z" fill="#006EFF"/>
<path d="M116.6 93.7H108.3V111.9H116.6V93.7Z" fill="#D7D5E8"/>
<path d="M142 93.7H133.7V111.9H142V93.7Z" fill="#D7D5E8"/>
<path d="M116.6 93.7H108.3V102.8H116.6V93.7Z" fill="#006EFF"/>
<path d="M142 93.7H133.7V102.8H142V93.7Z" fill="#006EFF"/>
<path d="M116.6 123H108.3V132H116.6V123Z" fill="#006EFF"/>
<path d="M142 123H133.7V132H142V123Z" fill="#006EFF"/>
<path d="M113.2 91.7H111.8V84.9C111.8 83.3 113.1 82.1 114.6 82.1V83.5C113.8 83.5 113.2 84.1 113.2 84.9V91.7V91.7Z" fill="#D7D5E8"/>
<path d="M138.6 91.7H137.2V84.9C137.2 84.1 136.6 83.5 135.8 83.5H114.6V82.1H135.8C137.4 82.1 138.6 83.4 138.6 84.9V91.7Z" fill="#D7D5E8"/>
<path fill-rule="evenodd" clip-rule="evenodd" d="M121.1 96.6V135.8C121.1 140.6 117.2 144.5 112.4 144.5C107.6 144.5 103.7 140.6 103.7 135.8V96.6H121.1Z" fill="#00508C"/>
<path fill-rule="evenodd" clip-rule="evenodd" d="M146.5 96.6V135.8C146.5 140.6 142.6 144.5 137.8 144.5C133 144.5 129.1 140.6 129.1 135.8V96.6H146.5Z" fill="#00508C"/>
<path fill-rule="evenodd" clip-rule="evenodd" d="M103.8 96.6H121.1L112.5 92.7L103.8 96.6Z" fill="#006EFF"/>
<path fill-rule="evenodd" clip-rule="evenodd" d="M129.2 96.6H146.5L137.8 92.7L129.2 96.6Z" fill="#006EFF"/>
<path d="M114.6 91.7H110.3V93.7H114.6V91.7Z" fill="#00508C"/>
<path d="M140 91.7H135.7V93.7H140V91.7Z" fill="#00508C"/>
<path d="M109.6 105.2H103.8V106.1H109.6V105.2Z" fill="#006EFF"/>
<path d="M108 102.6H109.4H109.6V102.8V105.5C109.6 105.6 109.5 105.7 109.4 105.7C109.3 105.7 109.2 105.6 109.2 105.5V103H108.2V105.5C108.2 105.6 108.1 105.7 108 105.7C107.9 105.7 107.8 105.6 107.8 105.5V103H106.8V105.5C106.8 105.6 106.7 105.7 106.6 105.7C106.5 105.7 106.4 105.6 106.4 105.5V103H105.4V105.5C105.4 105.6 105.3 105.7 105.2 105.7C105.1 105.7 105 105.6 105 105.5V103H104V105.5C104 105.6 103.9 105.7 103.8 105.7C103.7 105.7 103.6 105.6 103.6 105.5V102.8V102.6H103.8H105.1H106.4H108Z" fill="#006EFF"/>
<path d="M115.4 105.2H109.6V106.1H115.4V105.2Z" fill="#006EFF"/>
<path d="M113.8 102.6H115.2H115.4V102.8V105.5C115.4 105.6 115.3 105.7 115.2 105.7C115.1 105.7 115 105.6 115 105.5V103H114V105.5C114 105.6 113.9 105.7 113.8 105.7C113.7 105.7 113.6 105.6 113.6 105.5V103H112.6V105.5C112.6 105.6 112.5 105.7 112.4 105.7C112.3 105.7 112.2 105.6 112.2 105.5V103H111.2V105.5C111.2 105.6 111.1 105.7 111 105.7C110.9 105.7 110.8 105.6 110.8 105.5V103H109.8V105.5C109.8 105.6 109.7 105.7 109.6 105.7C109.5 105.7 109.4 105.6 109.4 105.5V102.8V102.6H109.6H110.9H112.2H113.8Z" fill="#006EFF"/>
<path d="M121.1 105.2H115.3V106.1H121.1V105.2Z" fill="#006EFF"/>
<path d="M119.6 102.6H121H121.2V102.8V105.5C121.2 105.6 121.1 105.7 121 105.7C120.9 105.7 120.8 105.6 120.8 105.5V103H119.8V105.5C119.8 105.6 119.7 105.7 119.6 105.7C119.5 105.7 119.4 105.6 119.4 105.5V103H118.4V105.5C118.4 105.6 118.3 105.7 118.2 105.7C118.1 105.7 118 105.6 118 105.5V103H117V105.5C117 105.6 116.9 105.7 116.8 105.7C116.7 105.7 116.6 105.6 116.6 105.5V103H115.6V105.5C115.6 105.6 115.5 105.7 115.4 105.7C115.3 105.7 115.2 105.6 115.2 105.5V102.8V102.6H115.4H116.7H118H119.6Z" fill="#006EFF"/>
<path d="M135 105.2H129.2V106.1H135V105.2Z" fill="#006EFF"/>
<path d="M133.4 102.6H134.8H135V102.8V105.5C135 105.6 134.9 105.7 134.8 105.7C134.7 105.7 134.6 105.6 134.6 105.5V103H133.6V105.5C133.6 105.6 133.5 105.7 133.4 105.7C133.3 105.7 133.2 105.6 133.2 105.5V103H132.2V105.5C132.2 105.6 132.1 105.7 132 105.7C131.9 105.7 131.8 105.6 131.8 105.5V103H130.8V105.5C130.8 105.6 130.7 105.7 130.6 105.7C130.5 105.7 130.4 105.6 130.4 105.5V103H129.4V105.5C129.4 105.6 129.3 105.7 129.2 105.7C129.1 105.7 129 105.6 129 105.5V102.8V102.6H129.2H130.5H131.8H133.4Z" fill="#006EFF"/>
<path d="M140.8 105.2H135V106.1H140.8V105.2Z" fill="#006EFF"/>
<path d="M139.2 102.6H140.6H140.8V102.8V105.5C140.8 105.6 140.7 105.7 140.6 105.7C140.5 105.7 140.4 105.6 140.4 105.5V103H139.4V105.5C139.4 105.6 139.3 105.7 139.2 105.7C139.1 105.7 139 105.6 139 105.5V103H138V105.5C138 105.6 137.9 105.7 137.8 105.7C137.7 105.7 137.6 105.6 137.6 105.5V103H136.6V105.5C136.6 105.6 136.5 105.7 136.4 105.7C136.3 105.7 136.2 105.6 136.2 105.5V103H135.2V105.5C135.2 105.6 135.1 105.7 135 105.7C134.9 105.7 134.8 105.6 134.8 105.5V102.8V102.6H135H136.3H137.6H139.2Z" fill="#006EFF"/>
<path d="M146.5 105.2H140.7V106.1H146.5V105.2Z" fill="#006EFF"/>
<path d="M145 102.6H146.4H146.6V102.8V105.5C146.6 105.6 146.5 105.7 146.4 105.7C146.3 105.7 146.2 105.6 146.2 105.5V103H145.2V105.5C145.2 105.6 145.1 105.7 145 105.7C144.9 105.7 144.8 105.6 144.8 105.5V103H143.8V105.5C143.8 105.6 143.7 105.7 143.6 105.7C143.5 105.7 143.4 105.6 143.4 105.5V103H142.4V105.5C142.4 105.6 142.3 105.7 142.2 105.7C142.1 105.7 142 105.6 142 105.5V103H141V105.5C141 105.6 140.9 105.7 140.8 105.7C140.7 105.7 140.6 105.6 140.6 105.5V102.8V102.6H140.8H142.1H143.4H145Z" fill="#006EFF"/>
<path d="M109.6 132.6H103.8V133.5H109.6V132.6Z" fill="#006EFF"/>
<path d="M108 130H109.4H109.6V130.2V132.9C109.6 133 109.5 133.1 109.4 133.1C109.3 133.1 109.2 133 109.2 132.9V130.4H108.2V132.9C108.2 133 108.1 133.1 108 133.1C107.9 133.1 107.8 133 107.8 132.9V130.4H106.8V132.9C106.8 133 106.7 133.1 106.6 133.1C106.5 133.1 106.4 133 106.4 132.9V130.4H105.4V132.9C105.4 133 105.3 133.1 105.2 133.1C105.1 133.1 105 133 105 132.9V130.4H104V132.9C104 133 103.9 133.1 103.8 133.1C103.7 133.1 103.6 133 103.6 132.9V130.2V130H103.8H105.1H106.4H108Z" fill="#006EFF"/>
<path d="M115.4 132.6H109.6V133.5H115.4V132.6Z" fill="#006EFF"/>
<path d="M113.8 130H115.2H115.4V130.2V132.9C115.4 133 115.3 133.1 115.2 133.1C115.1 133.1 115 133 115 132.9V130.4H114V132.9C114 133 113.9 133.1 113.8 133.1C113.7 133.1 113.6 133 113.6 132.9V130.4H112.6V132.9C112.6 133 112.5 133.1 112.4 133.1C112.3 133.1 112.2 133 112.2 132.9V130.4H111.2V132.9C111.2 133 111.1 133.1 111 133.1C110.9 133.1 110.8 133 110.8 132.9V130.4H109.8V132.9C109.8 133 109.7 133.1 109.6 133.1C109.5 133.1 109.4 133 109.4 132.9V130.2V130H109.6H110.9H112.2H113.8Z" fill="#006EFF"/>
<path d="M121.1 132.6H115.3V133.5H121.1V132.6Z" fill="#006EFF"/>
<path d="M119.6 130H121H121.2V130.2V132.9C121.2 133 121.1 133.1 121 133.1C120.9 133.1 120.8 133 120.8 132.9V130.4H119.8V132.9C119.8 133 119.7 133.1 119.6 133.1C119.5 133.1 119.4 133 119.4 132.9V130.4H118.4V132.9C118.4 133 118.3 133.1 118.2 133.1C118.1 133.1 118 133 118 132.9V130.4H117V132.9C117 133 116.9 133.1 116.8 133.1C116.7 133.1 116.6 133 116.6 132.9V130.4H115.6V132.9C115.6 133 115.5 133.1 115.4 133.1C115.3 133.1 115.2 133 115.2 132.9V130.2V130H115.4H116.7H118H119.6Z" fill="#006EFF"/>
<path d="M135 132.6H129.2V133.5H135V132.6Z" fill="#006EFF"/>
<path d="M133.4 130H134.8H135V130.2V132.9C135 133 134.9 133.1 134.8 133.1C134.7 133.1 134.6 133 134.6 132.9V130.4H133.6V132.9C133.6 133 133.5 133.1 133.4 133.1C133.3 133.1 133.2 133 133.2 132.9V130.4H132.2V132.9C132.2 133 132.1 133.1 132 133.1C131.9 133.1 131.8 133 131.8 132.9V130.4H130.8V132.9C130.8 133 130.7 133.1 130.6 133.1C130.5 133.1 130.4 133 130.4 132.9V130.4H129.4V132.9C129.4 133 129.3 133.1 129.2 133.1C129.1 133.1 129 133 129 132.9V130.2V130H129.2H130.5H131.8H133.4Z" fill="#006EFF"/>
<path d="M140.8 132.6H135V133.5H140.8V132.6Z" fill="#006EFF"/>
<path d="M139.2 130H140.6H140.8V130.2V132.9C140.8 133 140.7 133.1 140.6 133.1C140.5 133.1 140.4 133 140.4 132.9V130.4H139.4V132.9C139.4 133 139.3 133.1 139.2 133.1C139.1 133.1 139 133 139 132.9V130.4H138V132.9C138 133 137.9 133.1 137.8 133.1C137.7 133.1 137.6 133 137.6 132.9V130.4H136.6V132.9C136.6 133 136.5 133.1 136.4 133.1C136.3 133.1 136.2 133 136.2 132.9V130.4H135.2V132.9C135.2 133 135.1 133.1 135 133.1C134.9 133.1 134.8 133 134.8 132.9V130.2V130H135H136.3H137.6H139.2Z" fill="#006EFF"/>
<path d="M146.5 132.6H140.7V133.5H146.5V132.6Z" fill="#006EFF"/>
<path d="M145 130H146.4H146.6V130.2V132.9C146.6 133 146.5 133.1 146.4 133.1C146.3 133.1 146.2 133 146.2 132.9V130.4H145.2V132.9C145.2 133 145.1 133.1 145 133.1C144.9 133.1 144.8 133 144.8 132.9V130.4H143.8V132.9C143.8 133 143.7 133.1 143.6 133.1C143.5 133.1 143.4 133 143.4 132.9V130.4H142.4V132.9C142.4 133 142.3 133.1 142.2 133.1C142.1 133.1 142 133 142 132.9V130.4H141V132.9C141 133 140.9 133.1 140.8 133.1C140.7 133.1 140.6 133 140.6 132.9V130.2V130H140.8H142.1H143.4H145Z" fill="#006EFF"/>
<path d="M105.1 133H103.8V153.2H105.1V133Z" fill="#006EFF"/>
<path d="M130.5 133H129.2V153.2H130.5V133Z" fill="#006EFF"/>
<path d="M121.1 133H119.8V153.2H121.1V133Z" fill="#006EFF"/>
<path d="M146.5 133H145.2V153.2H146.5V133Z" fill="#006EFF"/>
<path d="M113.1 133H111.8V153.2H113.1V133Z" fill="#006EFF"/>
<path d="M138.5 133H137.2V153.2H138.5V133Z" fill="#006EFF"/>
<path d="M142 93.7H133.7V111.9H142V93.7Z" fill="#D7D5E8"/>
<path d="M167.4 93.7H159.1V111.9H167.4V93.7Z" fill="#D7D5E8"/>
<path d="M142 93.7H133.7V102.8H142V93.7Z" fill="#006EFF"/>
<path d="M167.4 93.7H159.1V102.8H167.4V93.7Z" fill="#006EFF"/>
<path d="M142 123H133.7V132H142V123Z" fill="#006EFF"/>
<path d="M167.4 123H159.1V132H167.4V123Z" fill="#006EFF"/>
<path d="M138.6 91.7H137.2V84.9C137.2 83.3 138.5 82.1 140 82.1V83.5C139.2 83.5 138.6 84.1 138.6 84.9V91.7Z" fill="#D7D5E8"/>
<path d="M164 91.7H162.6V84.9C162.6 84.1 162 83.5 161.2 83.5H140V82.1H161.2C162.8 82.1 164 83.4 164 84.9V91.7Z" fill="#D7D5E8"/>
<path fill-rule="evenodd" clip-rule="evenodd" d="M146.5 96.6V135.8C146.5 140.6 142.6 144.5 137.8 144.5C133 144.5 129.1 140.6 129.1 135.8V96.6H146.5Z" fill="#00508C"/>
<path fill-rule="evenodd" clip-rule="evenodd" d="M171.9 96.6V135.8C171.9 140.6 168 144.5 163.2 144.5C158.4 144.5 154.5 140.6 154.5 135.8V96.6H171.9Z" fill="#00508C"/>
<path fill-rule="evenodd" clip-rule="evenodd" d="M129.2 96.6H146.5L137.8 92.7L129.2 96.6Z" fill="#006EFF"/>
<path fill-rule="evenodd" clip-rule="evenodd" d="M154.6 96.6H171.9L163.2 92.7L154.6 96.6Z" fill="#006EFF"/>
<path d="M140 91.7H135.7V93.7H140V91.7Z" fill="#00508C"/>
<path d="M165.4 91.7H161.1V93.7H165.4V91.7Z" fill="#00508C"/>
<path d="M135 105.2H129.2V106.1H135V105.2Z" fill="#006EFF"/>
<path d="M133.4 102.6H134.8H135V102.8V105.5C135 105.6 134.9 105.7 134.8 105.7C134.7 105.7 134.6 105.6 134.6 105.5V103H133.6V105.5C133.6 105.6 133.5 105.7 133.4 105.7C133.3 105.7 133.2 105.6 133.2 105.5V103H132.2V105.5C132.2 105.6 132.1 105.7 132 105.7C131.9 105.7 131.8 105.6 131.8 105.5V103H130.8V105.5C130.8 105.6 130.7 105.7 130.6 105.7C130.5 105.7 130.4 105.6 130.4 105.5V103H129.4V105.5C129.4 105.6 129.3 105.7 129.2 105.7C129.1 105.7 129 105.6 129 105.5V102.8V102.6H129.2H130.5H131.8H133.4Z" fill="#006EFF"/>
<path d="M140.8 105.2H135V106.1H140.8V105.2Z" fill="#006EFF"/>
<path d="M139.2 102.6H140.6H140.8V102.8V105.5C140.8 105.6 140.7 105.7 140.6 105.7C140.5 105.7 140.4 105.6 140.4 105.5V103H139.4V105.5C139.4 105.6 139.3 105.7 139.2 105.7C139.1 105.7 139 105.6 139 105.5V103H138V105.5C138 105.6 137.9 105.7 137.8 105.7C137.7 105.7 137.6 105.6 137.6 105.5V103H136.6V105.5C136.6 105.6 136.5 105.7 136.4 105.7C136.3 105.7 136.2 105.6 136.2 105.5V103H135.2V105.5C135.2 105.6 135.1 105.7 135 105.7C134.9 105.7 134.8 105.6 134.8 105.5V102.8V102.6H135H136.3H137.6H139.2Z" fill="#006EFF"/>
<path d="M146.5 105.2H140.7V106.1H146.5V105.2Z" fill="#006EFF"/>
<path d="M145 102.6H146.4H146.6V102.8V105.5C146.6 105.6 146.5 105.7 146.4 105.7C146.3 105.7 146.2 105.6 146.2 105.5V103H145.2V105.5C145.2 105.6 145.1 105.7 145 105.7C144.9 105.7 144.8 105.6 144.8 105.5V103H143.8V105.5C143.8 105.6 143.7 105.7 143.6 105.7C143.5 105.7 143.4 105.6 143.4 105.5V103H142.4V105.5C142.4 105.6 142.3 105.7 142.2 105.7C142.1 105.7 142 105.6 142 105.5V103H141V105.5C141 105.6 140.9 105.7 140.8 105.7C140.7 105.7 140.6 105.6 140.6 105.5V102.8V102.6H140.8H142.1H143.4H145Z" fill="#006EFF"/>
<path d="M160.4 105.2H154.6V106.1H160.4V105.2Z" fill="#006EFF"/>
<path d="M158.8 102.6H160.2H160.4V102.8V105.5C160.4 105.6 160.3 105.7 160.2 105.7C160.1 105.7 160 105.6 160 105.5V103H159V105.5C159 105.6 158.9 105.7 158.8 105.7C158.7 105.7 158.6 105.6 158.6 105.5V103H157.6V105.5C157.6 105.6 157.5 105.7 157.4 105.7C157.3 105.7 157.2 105.6 157.2 105.5V103H156.2V105.5C156.2 105.6 156.1 105.7 156 105.7C155.9 105.7 155.8 105.6 155.8 105.5V103H154.8V105.5C154.8 105.6 154.7 105.7 154.6 105.7C154.5 105.7 154.4 105.6 154.4 105.5V102.8V102.6H154.6H155.9H157.2H158.8Z" fill="#006EFF"/>
<path d="M166.1 105.2H160.3V106.1H166.1V105.2Z" fill="#006EFF"/>
<path d="M164.6 102.6H166H166.2V102.8V105.5C166.2 105.6 166.1 105.7 166 105.7C165.9 105.7 165.8 105.6 165.8 105.5V103H164.8V105.5C164.8 105.6 164.7 105.7 164.6 105.7C164.5 105.7 164.4 105.6 164.4 105.5V103H163.4V105.5C163.4 105.6 163.3 105.7 163.2 105.7C163.1 105.7 163 105.6 163 105.5V103H162V105.5C162 105.6 161.9 105.7 161.8 105.7C161.7 105.7 161.6 105.6 161.6 105.5V103H160.6V105.5C160.6 105.6 160.5 105.7 160.4 105.7C160.3 105.7 160.2 105.6 160.2 105.5V102.8V102.6H160.4H161.7H163H164.6Z" fill="#006EFF"/>
<path d="M171.9 105.2H166.1V106.1H171.9V105.2Z" fill="#006EFF"/>
<path d="M170.4 102.6H171.8H172V102.8V105.5C172 105.6 171.9 105.7 171.8 105.7C171.7 105.7 171.6 105.6 171.6 105.5V103H170.6V105.5C170.6 105.6 170.5 105.7 170.4 105.7C170.3 105.7 170.2 105.6 170.2 105.5V103H169.2V105.5C169.2 105.6 169.1 105.7 169 105.7C168.9 105.7 168.8 105.6 168.8 105.5V103H167.8V105.5C167.8 105.6 167.7 105.7 167.6 105.7C167.5 105.7 167.4 105.6 167.4 105.5V103H166.4V105.5C166.4 105.6 166.3 105.7 166.2 105.7C166.1 105.7 166 105.6 166 105.5V102.8V102.6H166.2H167.5H168.8H170.4Z" fill="#006EFF"/>
<path d="M135 132.6H129.2V133.5H135V132.6Z" fill="#006EFF"/>
<path d="M133.4 130H134.8H135V130.2V132.9C135 133 134.9 133.1 134.8 133.1C134.7 133.1 134.6 133 134.6 132.9V130.4H133.6V132.9C133.6 133 133.5 133.1 133.4 133.1C133.3 133.1 133.2 133 133.2 132.9V130.4H132.2V132.9C132.2 133 132.1 133.1 132 133.1C131.9 133.1 131.8 133 131.8 132.9V130.4H130.8V132.9C130.8 133 130.7 133.1 130.6 133.1C130.5 133.1 130.4 133 130.4 132.9V130.4H129.4V132.9C129.4 133 129.3 133.1 129.2 133.1C129.1 133.1 129 133 129 132.9V130.2V130H129.2H130.5H131.8H133.4Z" fill="#006EFF"/>
<path d="M140.8 132.6H135V133.5H140.8V132.6Z" fill="#006EFF"/>
<path d="M139.2 130H140.6H140.8V130.2V132.9C140.8 133 140.7 133.1 140.6 133.1C140.5 133.1 140.4 133 140.4 132.9V130.4H139.4V132.9C139.4 133 139.3 133.1 139.2 133.1C139.1 133.1 139 133 139 132.9V130.4H138V132.9C138 133 137.9 133.1 137.8 133.1C137.7 133.1 137.6 133 137.6 132.9V130.4H136.6V132.9C136.6 133 136.5 133.1 136.4 133.1C136.3 133.1 136.2 133 136.2 132.9V130.4H135.2V132.9C135.2 133 135.1 133.1 135 133.1C134.9 133.1 134.8 133 134.8 132.9V130.2V130H135H136.3H137.6H139.2Z" fill="#006EFF"/>
<path d="M146.5 132.6H140.7V133.5H146.5V132.6Z" fill="#006EFF"/>
<path d="M145 130H146.4H146.6V130.2V132.9C146.6 133 146.5 133.1 146.4 133.1C146.3 133.1 146.2 133 146.2 132.9V130.4H145.2V132.9C145.2 133 145.1 133.1 145 133.1C144.9 133.1 144.8 133 144.8 132.9V130.4H143.8V132.9C143.8 133 143.7 133.1 143.6 133.1C143.5 133.1 143.4 133 143.4 132.9V130.4H142.4V132.9C142.4 133 142.3 133.1 142.2 133.1C142.1 133.1 142 133 142 132.9V130.4H141V132.9C141 133 140.9 133.1 140.8 133.1C140.7 133.1 140.6 133 140.6 132.9V130.2V130H140.8H142.1H143.4H145Z" fill="#006EFF"/>
<path d="M160.4 132.6H154.6V133.5H160.4V132.6Z" fill="#006EFF"/>
<path d="M158.8 130H160.2H160.4V130.2V132.9C160.4 133 160.3 133.1 160.2 133.1C160.1 133.1 160 133 160 132.9V130.4H159V132.9C159 133 158.9 133.1 158.8 133.1C158.7 133.1 158.6 133 158.6 132.9V130.4H157.6V132.9C157.6 133 157.5 133.1 157.4 133.1C157.3 133.1 157.2 133 157.2 132.9V130.4H156.2V132.9C156.2 133 156.1 133.1 156 133.1C155.9 133.1 155.8 133 155.8 132.9V130.4H154.8V132.9C154.8 133 154.7 133.1 154.6 133.1C154.5 133.1 154.4 133 154.4 132.9V130.2V130H154.6H155.9H157.2H158.8Z" fill="#006EFF"/>
<path d="M166.1 132.6H160.3V133.5H166.1V132.6Z" fill="#006EFF"/>
<path d="M164.6 130H166H166.2V130.2V132.9C166.2 133 166.1 133.1 166 133.1C165.9 133.1 165.8 133 165.8 132.9V130.4H164.8V132.9C164.8 133 164.7 133.1 164.6 133.1C164.5 133.1 164.4 133 164.4 132.9V130.4H163.4V132.9C163.4 133 163.3 133.1 163.2 133.1C163.1 133.1 163 133 163 132.9V130.4H162V132.9C162 133 161.9 133.1 161.8 133.1C161.7 133.1 161.6 133 161.6 132.9V130.4H160.6V132.9C160.6 133 160.5 133.1 160.4 133.1C160.3 133.1 160.2 133 160.2 132.9V130.2V130H160.4H161.7H163H164.6Z" fill="#006EFF"/>
<path d="M171.9 132.6H166.1V133.5H171.9V132.6Z" fill="#006EFF"/>
<path d="M170.4 130H171.8H172V130.2V132.9C172 133 171.9 133.1 171.8 133.1C171.7 133.1 171.6 133 171.6 132.9V130.4H170.6V132.9C170.6 133 170.5 133.1 170.4 133.1C170.3 133.1 170.2 133 170.2 132.9V130.4H169.2V132.9C169.2 133 169.1 133.1 169 133.1C168.9 133.1 168.8 133 168.8 132.9V130.4H167.8V132.9C167.8 133 167.7 133.1 167.6 133.1C167.5 133.1 167.4 133 167.4 132.9V130.4H166.4V132.9C166.4 133 166.3 133.1 166.2 133.1C166.1 133.1 166 133 166 132.9V130.2V130H166.2H167.5H168.8H170.4Z" fill="#006EFF"/>
<path d="M130.5 133H129.2V153.2H130.5V133Z" fill="#006EFF"/>
<path d="M155.9 133H154.6V153.2H155.9V133Z" fill="#006EFF"/>
<path d="M146.5 133H145.2V153.2H146.5V133Z" fill="#006EFF"/>
<path d="M171.9 133H170.6V153.2H171.9V133Z" fill="#006EFF"/>
<path d="M138.5 133H137.2V153.2H138.5V133Z" fill="#006EFF"/>
<path d="M163.9 133H162.6V153.2H163.9V133Z" fill="#006EFF"/>
<path d="M135.2 161.5H132.8V163.9H135.2V161.5Z" fill="#006EFF"/>
<path d="M138.7 161.5H136.3V163.9H138.7V161.5Z" fill="#006EFF"/>
<path d="M142.2 161.5H139.8V163.9H142.2V161.5Z" fill="#006EFF"/>
</g>
<path d="M97.0859 179.564L97.7559 176.023H98.7778L97.6738 181H96.6416L95.8315 177.671L95.0215 181H93.9893L92.8853 176.023H93.9072L94.5806 179.558L95.4009 176.023H96.269L97.0859 179.564ZM101.994 179.975H100.196L99.8545 181H98.7642L100.617 176.023H101.567L103.43 181H102.339L101.994 179.975ZM100.473 179.144H101.717L101.092 177.281L100.473 179.144ZM107.23 176.854H105.706V181H104.681V176.854H103.177V176.023H107.23V176.854ZM110.812 178.843H108.844V180.176H111.154V181H107.818V176.023H111.147V176.854H108.844V178.04H110.812V178.843ZM113.598 179.178H112.781V181H111.756V176.023H113.605C114.193 176.023 114.646 176.154 114.965 176.417C115.284 176.679 115.444 177.049 115.444 177.527C115.444 177.867 115.37 178.151 115.222 178.378C115.076 178.604 114.854 178.784 114.555 178.918L115.632 180.952V181H114.531L113.598 179.178ZM112.781 178.348H113.608C113.866 178.348 114.065 178.283 114.207 178.153C114.348 178.021 114.418 177.84 114.418 177.609C114.418 177.375 114.351 177.19 114.217 177.056C114.085 176.921 113.881 176.854 113.605 176.854H112.781V178.348ZM121.876 179.342C121.838 179.878 121.639 180.299 121.282 180.607C120.926 180.915 120.457 181.068 119.874 181.068C119.236 181.068 118.733 180.854 118.366 180.426C118.002 179.995 117.819 179.405 117.819 178.655V178.351C117.819 177.873 117.904 177.451 118.072 177.086C118.241 176.722 118.481 176.443 118.793 176.249C119.108 176.053 119.472 175.955 119.887 175.955C120.461 175.955 120.924 176.109 121.275 176.417C121.626 176.724 121.829 177.156 121.883 177.712H120.858C120.833 177.391 120.743 177.158 120.588 177.015C120.435 176.869 120.202 176.796 119.887 176.796C119.545 176.796 119.289 176.919 119.118 177.165C118.95 177.409 118.863 177.788 118.858 178.303V178.679C118.858 179.217 118.939 179.61 119.101 179.858C119.265 180.107 119.523 180.231 119.874 180.231C120.19 180.231 120.426 180.159 120.581 180.016C120.738 179.87 120.828 179.645 120.851 179.342H121.876ZM126.638 178.625C126.638 179.114 126.551 179.544 126.378 179.913C126.205 180.282 125.956 180.567 125.633 180.768C125.312 180.968 124.942 181.068 124.525 181.068C124.113 181.068 123.745 180.969 123.421 180.771C123.098 180.573 122.847 180.29 122.669 179.923C122.492 179.554 122.402 179.13 122.399 178.652V178.406C122.399 177.916 122.487 177.485 122.663 177.114C122.84 176.74 123.09 176.454 123.411 176.256C123.735 176.055 124.104 175.955 124.519 175.955C124.933 175.955 125.301 176.055 125.623 176.256C125.946 176.454 126.196 176.74 126.371 177.114C126.549 177.485 126.638 177.915 126.638 178.402V178.625ZM125.599 178.399C125.599 177.877 125.505 177.481 125.318 177.209C125.132 176.938 124.865 176.803 124.519 176.803C124.174 176.803 123.909 176.937 123.722 177.206C123.535 177.473 123.441 177.865 123.438 178.382V178.625C123.438 179.133 123.532 179.527 123.719 179.807C123.906 180.087 124.174 180.228 124.525 180.228C124.869 180.228 125.134 180.093 125.318 179.824C125.503 179.553 125.596 179.159 125.599 178.642V178.399ZM131.43 181H130.404L128.408 177.726V181H127.383V176.023H128.408L130.408 179.305V176.023H131.43V181ZM132.325 181V176.023H133.856C134.294 176.023 134.685 176.123 135.029 176.321C135.375 176.517 135.645 176.797 135.839 177.162C136.033 177.524 136.129 177.936 136.129 178.399V178.628C136.129 179.09 136.034 179.502 135.842 179.862C135.653 180.222 135.385 180.501 135.039 180.699C134.693 180.897 134.302 180.998 133.867 181H132.325ZM133.351 176.854V180.176H133.846C134.247 180.176 134.554 180.045 134.766 179.783C134.978 179.521 135.086 179.146 135.09 178.659V178.396C135.09 177.89 134.986 177.507 134.776 177.247C134.566 176.985 134.26 176.854 133.856 176.854H133.351ZM137.968 181H136.943V176.023H137.968V181ZM142.565 176.854H141.041V181H140.016V176.854H138.512V176.023H142.565V176.854ZM144.244 181H143.218V176.023H144.244V181ZM149.285 178.625C149.285 179.114 149.199 179.544 149.025 179.913C148.852 180.282 148.604 180.567 148.28 180.768C147.959 180.968 147.59 181.068 147.173 181.068C146.76 181.068 146.392 180.969 146.069 180.771C145.745 180.573 145.495 180.29 145.317 179.923C145.139 179.554 145.049 179.13 145.047 178.652V178.406C145.047 177.916 145.135 177.485 145.31 177.114C145.488 176.74 145.737 176.454 146.059 176.256C146.382 176.055 146.751 175.955 147.166 175.955C147.581 175.955 147.949 176.055 148.27 176.256C148.594 176.454 148.843 176.74 149.019 177.114C149.196 177.485 149.285 177.915 149.285 178.402V178.625ZM148.246 178.399C148.246 177.877 148.153 177.481 147.966 177.209C147.779 176.938 147.512 176.803 147.166 176.803C146.822 176.803 146.556 176.937 146.37 177.206C146.183 177.473 146.088 177.865 146.086 178.382V178.625C146.086 179.133 146.179 179.527 146.366 179.807C146.553 180.087 146.822 180.228 147.173 180.228C147.517 180.228 147.781 180.093 147.966 179.824C148.15 179.553 148.244 179.159 148.246 178.642V178.399ZM154.077 181H153.052L151.056 177.726V181H150.03V176.023H151.056L153.055 179.305V176.023H154.077V181ZM156.063 181H155.038V176.023H156.063V181ZM161.063 181H160.038L158.042 177.726V181H157.017V176.023H158.042L160.042 179.305V176.023H161.063V181ZM165.896 180.371C165.712 180.592 165.451 180.764 165.114 180.887C164.777 181.008 164.403 181.068 163.993 181.068C163.562 181.068 163.184 180.975 162.858 180.788C162.534 180.599 162.284 180.326 162.106 179.968C161.931 179.61 161.84 179.19 161.836 178.707V178.368C161.836 177.871 161.919 177.442 162.085 177.08C162.254 176.715 162.496 176.437 162.81 176.246C163.127 176.052 163.497 175.955 163.921 175.955C164.511 175.955 164.972 176.096 165.305 176.379C165.638 176.659 165.835 177.068 165.896 177.606H164.898C164.853 177.321 164.751 177.113 164.594 176.98C164.439 176.848 164.225 176.782 163.952 176.782C163.603 176.782 163.338 176.913 163.155 177.175C162.973 177.437 162.881 177.827 162.878 178.344V178.662C162.878 179.184 162.978 179.578 163.176 179.845C163.374 180.111 163.665 180.245 164.047 180.245C164.432 180.245 164.707 180.163 164.871 179.999V179.141H163.938V178.385H165.896V180.371ZM171.283 179.975H169.485L169.144 181H168.053L169.906 176.023H170.856L172.719 181H171.628L171.283 179.975ZM169.762 179.144H171.006L170.381 177.281L169.762 179.144ZM177.23 181H176.205L174.209 177.726V181H173.184V176.023H174.209L176.208 179.305V176.023H177.23V181ZM178.126 181V176.023H179.657C180.095 176.023 180.486 176.123 180.83 176.321C181.176 176.517 181.446 176.797 181.64 177.162C181.833 177.524 181.93 177.936 181.93 178.399V178.628C181.93 179.09 181.834 179.502 181.643 179.862C181.454 180.222 181.186 180.501 180.84 180.699C180.493 180.897 180.103 180.998 179.667 181H178.126ZM179.151 176.854V180.176H179.647C180.048 180.176 180.354 180.045 180.566 179.783C180.778 179.521 180.887 179.146 180.891 178.659V178.396C180.891 177.89 180.786 177.507 180.577 177.247C180.367 176.985 180.061 176.854 179.657 176.854H179.151ZM106.909 187.247V189H105.884V184.023H107.825C108.199 184.023 108.527 184.092 108.81 184.229C109.094 184.365 109.313 184.56 109.466 184.813C109.618 185.064 109.695 185.35 109.695 185.671C109.695 186.159 109.527 186.544 109.192 186.826C108.86 187.106 108.398 187.247 107.808 187.247H106.909ZM106.909 186.416H107.825C108.096 186.416 108.303 186.352 108.444 186.225C108.587 186.097 108.659 185.915 108.659 185.678C108.659 185.434 108.587 185.237 108.444 185.086C108.3 184.936 108.102 184.859 107.849 184.854H106.909V186.416ZM114.169 184.023V187.301C114.169 187.846 113.998 188.277 113.656 188.593C113.317 188.91 112.852 189.068 112.262 189.068C111.681 189.068 111.219 188.915 110.877 188.607C110.536 188.299 110.361 187.877 110.354 187.339V184.023H111.38V187.308C111.38 187.634 111.457 187.872 111.612 188.022C111.77 188.171 111.986 188.245 112.262 188.245C112.838 188.245 113.131 187.942 113.14 187.335V184.023H114.169ZM116.852 187.178H116.035V189H115.01V184.023H116.859C117.447 184.023 117.9 184.154 118.219 184.417C118.538 184.679 118.698 185.049 118.698 185.527C118.698 185.867 118.624 186.151 118.476 186.378C118.33 186.604 118.108 186.784 117.809 186.918L118.886 188.952V189H117.785L116.852 187.178ZM116.035 186.348H116.862C117.12 186.348 117.319 186.283 117.46 186.153C117.602 186.021 117.672 185.84 117.672 185.609C117.672 185.375 117.605 185.19 117.471 185.056C117.339 184.921 117.135 184.854 116.859 184.854H116.035V186.348ZM120.571 189H119.545V184.023H120.571V189ZM124.519 186.966H122.55V189H121.524V184.023H124.765V184.854H122.55V186.139H124.519V186.966ZM126.45 189H125.424V184.023H126.45V189ZM131.31 187.342C131.271 187.878 131.073 188.299 130.715 188.607C130.36 188.915 129.89 189.068 129.307 189.068C128.669 189.068 128.167 188.854 127.8 188.426C127.435 187.995 127.253 187.405 127.253 186.655V186.351C127.253 185.873 127.337 185.451 127.506 185.086C127.674 184.722 127.915 184.443 128.227 184.249C128.542 184.053 128.906 183.955 129.321 183.955C129.895 183.955 130.358 184.109 130.708 184.417C131.059 184.724 131.262 185.156 131.317 185.712H130.292C130.266 185.391 130.176 185.158 130.021 185.015C129.869 184.869 129.635 184.796 129.321 184.796C128.979 184.796 128.723 184.919 128.552 185.165C128.383 185.409 128.297 185.788 128.292 186.303V186.679C128.292 187.217 128.373 187.61 128.535 187.858C128.699 188.107 128.956 188.231 129.307 188.231C129.624 188.231 129.86 188.159 130.015 188.016C130.172 187.87 130.262 187.645 130.285 187.342H131.31ZM134.793 187.975H132.995L132.653 189H131.563L133.416 184.023H134.366L136.229 189H135.138L134.793 187.975ZM133.272 187.144H134.516L133.891 185.281L133.272 187.144ZM140.029 184.854H138.505V189H137.479V184.854H135.976V184.023H140.029V184.854ZM141.708 189H140.682V184.023H141.708V189ZM146.749 186.625C146.749 187.114 146.662 187.544 146.489 187.913C146.316 188.282 146.068 188.567 145.744 188.768C145.423 188.968 145.054 189.068 144.637 189.068C144.224 189.068 143.856 188.969 143.533 188.771C143.209 188.573 142.958 188.29 142.781 187.923C142.603 187.554 142.513 187.13 142.511 186.652V186.406C142.511 185.916 142.598 185.485 142.774 185.114C142.952 184.74 143.201 184.454 143.522 184.256C143.846 184.055 144.215 183.955 144.63 183.955C145.045 183.955 145.413 184.055 145.734 184.256C146.057 184.454 146.307 184.74 146.482 185.114C146.66 185.485 146.749 185.915 146.749 186.402V186.625ZM145.71 186.399C145.71 185.877 145.617 185.481 145.43 185.209C145.243 184.938 144.976 184.803 144.63 184.803C144.286 184.803 144.02 184.937 143.833 185.206C143.647 185.473 143.552 185.865 143.55 186.382V186.625C143.55 187.133 143.643 187.527 143.83 187.807C144.017 188.087 144.286 188.228 144.637 188.228C144.981 188.228 145.245 188.093 145.43 187.824C145.614 187.553 145.708 187.159 145.71 186.642V186.399ZM151.541 189H150.516L148.52 185.726V189H147.494V184.023H148.52L150.519 187.305V184.023H151.541V189ZM157.946 184.023V187.301C157.946 187.846 157.775 188.277 157.434 188.593C157.094 188.91 156.629 189.068 156.039 189.068C155.458 189.068 154.997 188.915 154.655 188.607C154.313 188.299 154.139 187.877 154.132 187.339V184.023H155.157V187.308C155.157 187.634 155.235 187.872 155.39 188.022C155.547 188.171 155.763 188.245 156.039 188.245C156.616 188.245 156.908 187.942 156.917 187.335V184.023H157.946ZM162.834 189H161.809L159.812 185.726V189H158.787V184.023H159.812L161.812 187.305V184.023H162.834V189ZM164.82 189H163.794V184.023H164.82V189ZM169.417 184.854H167.893V189H166.867V184.854H165.363V184.023H169.417V184.854Z" fill="#00508C"/>
<defs>
<clipPath id="clip0">
<rect width="206.6" height="194.1" fill="white"/>
</clipPath>
</defs>
</svg>
