<?xml version="1.0" encoding="utf-8"?>
<!-- Generator: Adobe Illustrator 24.0.0, SVG Export Plug-In . SVG Version: 6.00 Build 0)  -->
<svg version="1.1" id="Layer_1" xmlns="http://www.w3.org/2000/svg" xmlns:xlink="http://www.w3.org/1999/xlink" x="0px" y="0px"
	 viewBox="0 0 192.3 187.1" style="enable-background:new 0 0 192.3 187.1;" xml:space="preserve">
<style type="text/css">
	.st0{fill:#00508C;}
	.st1{fill-rule:evenodd;clip-rule:evenodd;fill:#00508C;}
	.st2{fill:#006EFF;}
	.st3{fill:#006EFF;}
	.st4{fill-rule:evenodd;clip-rule:evenodd;fill:#E1E1EF;}
	.st5{fill-rule:evenodd;clip-rule:evenodd;fill:#006EFF;}
	.st6{fill-rule:evenodd;clip-rule:evenodd;fill:#00508C;}
	.st7{fill:#382E86;}
	.st8{fill-rule:evenodd;clip-rule:evenodd;fill:#006EFF;}
	.st9{fill:#00508C;}
</style>
<g>
	<g>
		<polygon class="st0" points="183.7,5 183.7,2.5 185.9,1.2 188,0 190.2,1.2 192.3,2.5 192.3,5 190.2,3.7 188,2.5 185.9,3.7 		"/>
	</g>
	<g>
		<path class="st0" d="M95.5,160H10.1c-2.8,0-5.3-1.1-7.1-3c-1.8-1.8-3-4.3-3-7.1C0,135.4,0,98,0,83.5v-5l2.2-1.2L4.3,76l2.2,1.2
			l2.2,1.2v5c0,14.5,0.1,51.9,0.1,66.4c0,0.4,0.2,0.8,0.4,1s0.6,0.4,1,0.4h85.4l-2.2,4.8L95.5,160z"/>
	</g>
	<g>
		<path class="st0" d="M96.8,160h85.4c2.8,0,5.3-1.1,7.1-3c1.8-1.8,3-4.3,3-7.1c0-14.5,0-110,0-124.5v-5l-2.2-1.2L188,18l-2.2,1.2
			l-2.2,1.2v5c0,14.5-0.1,109.9-0.1,124.5c0,0.4-0.2,0.8-0.4,1s-0.6,0.4-1,0.4H96.8l2.2,4.8L96.8,160z"/>
	</g>
	<g>
		<polygon class="st1" points="0.1,97.2 4.5,94.8 8.7,97.2 8.7,12.6 8.7,7.7 6.5,6.4 4.4,5.2 2.2,6.4 0.1,7.7 0.1,12.6 		"/>
	</g>
	<g>
		<polygon class="st2" points="37,162.4 36.4,162.1 43.5,147.3 46.7,147.3 46.7,148 43.9,148 		"/>
	</g>
	<g>
		<polygon class="st0" points="34,116.5 27.1,109.5 24.2,109.5 24.2,108.8 27.4,108.8 34.5,116 		"/>
	</g>
	<g>
		<polygon class="st0" points="27.5,109.4 27,108.9 34.1,101.8 37.3,101.8 37.3,102.5 34.4,102.5 		"/>
	</g>
	<g>
		<polygon class="st0" points="34,102.4 27.1,95.4 24.2,95.4 24.2,94.7 27.4,94.7 34.5,101.9 		"/>
	</g>
	<g>
		<path class="st0" d="M37.6,123.9h-0.7v-7.3h-2.5l-7,7.1h-3.5V91.9h13.8L37.6,123.9L37.6,123.9z M24.6,122.9h2.5l7-7.1h2.8V92.6
			H24.6V122.9z"/>
	</g>
	<g>
		<polygon class="st2" points="37.1,116.5 30.2,109.5 27.3,109.5 27.3,108.8 30.4,108.8 37.6,116 		"/>
	</g>
	<g>
		<polygon class="st2" points="30.5,109.4 30,108.9 37.2,101.8 40.4,101.8 40.4,102.5 37.5,102.5 		"/>
	</g>
	<g>
		<polygon class="st2" points="37.1,102.4 30.2,95.4 27.3,95.4 27.3,94.7 30.4,94.7 37.6,101.9 		"/>
	</g>
	<g>
		<path class="st2" d="M40.7,123.9H40v-7.3h-2.5l-7,7.1H27V91.9h13.8L40.7,123.9L40.7,123.9z M27.6,122.9h2.5l7-7.1H40V92.6H27.6
			V122.9z"/>
	</g>
	<g>
		<polygon class="st0" points="34,147.5 27.1,140.6 24.2,140.6 24.2,139.9 27.4,139.9 34.5,147 		"/>
	</g>
	<g>
		<polygon class="st0" points="27.5,140.5 27,140 34.1,132.8 37.3,132.8 37.3,133.5 34.4,133.5 		"/>
	</g>
	<g>
		<polygon class="st0" points="34,133.4 27.1,126.5 24.2,126.5 24.2,125.8 27.4,125.8 34.5,132.9 		"/>
	</g>
	<g>
		<path class="st0" d="M23.8,157.2v-34.3h13.8v32h-0.7v-7.3h-2.5l-7,7L23.8,157.2z M24.6,123.7v32.2L27,154l7.1-7.1h2.8v-23.3H24.6
			V123.7z"/>
	</g>
	<g>
		<polygon class="st2" points="37.1,147.5 30.2,140.6 27.3,140.6 27.3,139.9 30.4,139.9 37.6,147 		"/>
	</g>
	<g>
		<polygon class="st2" points="30.5,140.5 30,140 37.2,132.8 40.4,132.8 40.4,133.5 37.5,133.5 		"/>
	</g>
	<g>
		<polygon class="st2" points="37.1,133.4 30.2,126.5 27.3,126.5 27.3,125.8 30.4,125.8 37.6,132.9 		"/>
	</g>
	<g>
		<path class="st2" d="M40.7,155H40v-7.3h-2.5l-7,7.1H27v-31.7h13.8L40.7,155L40.7,155z M27.6,154h2.5l7-7.1H40v-23.3H27.6V154z"/>
	</g>
	<g>
		<polygon class="st0" points="27.9,158.3 27.1,157.5 24.2,157.5 24.2,156.8 27.4,156.8 28.4,157.8 		"/>
	</g>
	<g>
		<polygon class="st2" points="31,158.3 30.2,157.5 27.3,157.5 27.3,156.8 30.4,156.8 31.5,157.8 		"/>
	</g>
	<g>
		<polygon class="st0" points="50.2,116.5 43.2,109.5 40.4,109.5 40.4,108.8 43.5,108.8 50.7,116 		"/>
	</g>
	<g>
		<polygon class="st0" points="43.6,109.4 43.1,108.9 50.3,101.8 53.4,101.8 53.4,102.5 50.6,102.5 		"/>
	</g>
	<g>
		<polygon class="st0" points="50.2,102.4 43.2,95.4 40.4,95.4 40.4,94.7 43.5,94.7 50.7,101.9 		"/>
	</g>
	<g>
		<path class="st0" d="M53.8,123.9h-0.7v-7.3h-2.5l-7,7.1H40V91.9h13.8V123.9z M40.7,122.9h2.5l7-7.1H53V92.6H40.7V122.9z"/>
	</g>
	<g>
		<polygon class="st2" points="53.2,116.5 46.3,109.5 43.4,109.5 43.4,108.8 46.6,108.8 53.7,116 		"/>
	</g>
	<g>
		<polygon class="st2" points="46.7,109.4 46.2,108.9 53.4,101.8 56.5,101.8 56.5,102.5 53.6,102.5 		"/>
	</g>
	<g>
		<polygon class="st2" points="53.2,102.4 46.3,95.4 43.4,95.4 43.4,94.7 46.6,94.7 53.7,101.9 		"/>
	</g>
	<g>
		<path class="st2" d="M56.9,123.9h-0.7v-7.3h-2.5l-7,7.1h-3.5V91.9H57L56.9,123.9L56.9,123.9z M43.8,122.9h2.5l7-7.1h2.8V92.6H43.8
			V122.9z"/>
	</g>
	<g>
		<polygon class="st0" points="50.2,147.5 43.2,140.6 40.4,140.6 40.4,139.9 43.5,139.9 50.7,147 		"/>
	</g>
	<g>
		<polygon class="st0" points="43.6,140.5 43.1,140 50.3,132.8 53.4,132.8 53.4,133.5 50.6,133.5 		"/>
	</g>
	<g>
		<polygon class="st0" points="50.2,133.4 43.2,126.5 40.4,126.5 40.4,125.8 43.5,125.8 50.7,132.9 		"/>
	</g>
	<g>
		<path class="st0" d="M53.8,155h-0.7v-7.3h-2.5l-7,7.1H40v-31.7h13.8V155z M40.7,154h2.5l7-7.1H53v-23.3H40.7V154z"/>
	</g>
	<g>
		<polygon class="st2" points="53.2,147.5 46.3,140.6 43.4,140.6 43.4,139.9 46.6,139.9 53.7,147 		"/>
	</g>
	<g>
		<polygon class="st2" points="46.7,140.5 46.2,140 53.4,132.8 56.5,132.8 56.5,133.5 53.6,133.5 		"/>
	</g>
	<g>
		<polygon class="st2" points="53.2,133.4 46.3,126.5 43.4,126.5 43.4,125.8 46.6,125.8 53.7,132.9 		"/>
	</g>
	<g>
		<path class="st2" d="M56.9,155h-0.7v-7.3h-2.5l-7,7.1h-3.5v-31.7H57L56.9,155L56.9,155z M43.8,154h2.5l7-7.1h2.8v-23.3H43.8V154z"
			/>
	</g>
	<g>
		<polygon class="st0" points="44.1,158.3 43.2,157.5 40.4,157.5 40.4,156.8 43.5,156.8 44.6,157.8 		"/>
	</g>
	<g>
		<polygon class="st0" points="53.8,158.1 53.1,158.1 53.1,154.7 40.7,154.7 40.7,158.1 40,158.1 40,154 53.8,154 		"/>
	</g>
	<g>
		<polygon class="st2" points="47.2,158.3 46.3,157.5 43.4,157.5 43.4,156.8 46.6,156.8 47.7,157.8 		"/>
	</g>
	<g>
		<polygon class="st2" points="56.9,158.1 56.2,158.1 56.2,154.7 43.8,154.7 43.8,158.1 43.1,158.1 43.1,154 56.9,154 		"/>
	</g>
	<g>
		<polygon class="st0" points="66.3,116.5 59.4,109.5 56.5,109.5 56.5,108.8 59.7,108.8 66.8,116 		"/>
	</g>
	<g>
		<polygon class="st0" points="59.8,109.4 59.3,108.9 66.4,101.8 69.6,101.8 69.6,102.5 66.7,102.5 		"/>
	</g>
	<g>
		<polygon class="st0" points="66.3,102.4 59.4,95.4 56.5,95.4 56.5,94.7 59.7,94.7 66.8,101.9 		"/>
	</g>
	<g>
		<path class="st0" d="M70,123.9h-0.7v-7.3h-2.5l-7,7.1h-3.5V91.9H70V123.9z M56.9,122.9h2.5l7-7.1h2.8V92.6H56.9V122.9z"/>
	</g>
	<g>
		<polygon class="st2" points="69.4,116.5 62.5,109.5 59.6,109.5 59.6,108.8 62.8,108.8 69.9,116 		"/>
	</g>
	<g>
		<polygon class="st2" points="62.9,109.4 62.4,108.9 69.5,101.8 72.7,101.8 72.7,102.5 69.8,102.5 		"/>
	</g>
	<g>
		<polygon class="st2" points="69.4,102.4 62.5,95.4 59.6,95.4 59.6,94.7 62.8,94.7 69.9,101.9 		"/>
	</g>
	<g>
		<path class="st2" d="M73,123.9h-0.7v-7.3h-2.5l-7,7.1h-3.5V91.9H73V123.9z M60,122.9h2.5l7-7.1h2.8V92.6H60V122.9z"/>
	</g>
	<g>
		<polygon class="st0" points="66.3,147.5 59.4,140.6 56.5,140.6 56.5,139.9 59.7,139.9 66.8,147 		"/>
	</g>
	<g>
		<polygon class="st0" points="59.8,140.5 59.3,140 66.4,132.8 69.6,132.8 69.6,133.5 66.7,133.5 		"/>
	</g>
	<g>
		<polygon class="st0" points="66.3,133.4 59.4,126.5 56.5,126.5 56.5,125.8 59.7,125.8 66.8,132.9 		"/>
	</g>
	<g>
		<path class="st0" d="M70,155h-0.7v-7.3h-2.5l-7,7.1h-3.5v-31.7H70V155z M56.9,154h2.5l7-7.1h2.8v-23.3H56.9V154z"/>
	</g>
	<g>
		<polygon class="st2" points="69.4,147.5 62.5,140.6 59.6,140.6 59.6,139.9 62.8,139.9 69.9,147 		"/>
	</g>
	<g>
		<polygon class="st2" points="62.9,140.5 62.4,140 69.5,132.8 72.7,132.8 72.7,133.5 69.8,133.5 		"/>
	</g>
	<g>
		<polygon class="st2" points="69.4,133.4 62.5,126.5 59.6,126.5 59.6,125.8 62.8,125.8 69.9,132.9 		"/>
	</g>
	<g>
		<path class="st2" d="M73,155h-0.7v-7.3h-2.5l-7,7.1h-3.5v-31.7H73V155z M60,154h2.5l7-7.1h2.8v-23.3H60V154z"/>
	</g>
	<g>
		<polygon class="st0" points="60.2,158.3 59.4,157.5 56.5,157.5 56.5,156.8 59.7,156.8 60.7,157.8 		"/>
	</g>
	<g>
		<polygon class="st0" points="70,158.1 69.2,158.1 69.2,154.7 56.9,154.7 56.9,158.1 56.2,158.1 56.2,154 70,154 		"/>
	</g>
	<g>
		<polygon class="st2" points="63.3,158.3 62.5,157.5 59.6,157.5 59.6,156.8 62.8,156.8 63.8,157.8 		"/>
	</g>
	<g>
		<polygon class="st2" points="73,158.1 72.3,158.1 72.3,154.7 60,154.7 60,158.1 59.2,158.1 59.2,154 73,154 		"/>
	</g>
	<g>
		<path class="st3" d="M111.5,165.6v-43.9c0-3.9-3.2-7.1-7.1-7.1H91v-1.4h13.4c4.7,0,8.6,3.8,8.6,8.6v43.9h-1.5V165.6z"/>
	</g>
	<g>
		<path class="st3" d="M117.3,165.6v-43.9c0-3.9-3.2-7.1-7.1-7.1H96.8v-1.4h13.4c4.7,0,8.6,3.8,8.6,8.6v43.9h-1.5V165.6z"/>
	</g>
	<g>
		<path class="st3" d="M123.1,165.6v-43.9c0-3.9-3.2-7.1-7.1-7.1h-13.4v-1.4H116c4.7,0,8.6,3.8,8.6,8.6v43.9h-1.5V165.6z"/>
	</g>
	<g>
		<path class="st3" d="M128.9,165.6v-43.9c0-3.9-3.2-7.1-7.1-7.1h-13.4v-1.4h13.4c4.7,0,8.6,3.8,8.6,8.6v43.9h-1.5V165.6z"/>
	</g>
	<g>
		<path class="st3" d="M140.5,165.6v-43.9c0-3.9-3.2-7.1-7.1-7.1H120v-1.4h13.4c4.7,0,8.6,3.8,8.6,8.6v43.9h-1.5V165.6z"/>
	</g>
	<g>
		<path class="st3" d="M134.7,165.6v-43.9c0-3.9-3.2-7.1-7.1-7.1h-13.4v-1.4h13.4c4.7,0,8.6,3.8,8.6,8.6v43.9h-1.5V165.6z"/>
	</g>
	<g>
		<path class="st3" d="M146.3,165.6v-43.9c0-3.9-3.2-7.1-7.1-7.1h-13.4v-1.4h13.4c4.7,0,8.6,3.8,8.6,8.6v43.9h-1.5V165.6z"/>
	</g>
	<g>
		<path class="st4" d="M66.3,37.1c0,4.6-3.7,8.3-8.3,8.3c-0.1,0-0.1,0-0.2,0c0,0.4-0.1,0.7-0.2,1.1v0.1c0.8-0.2,1.6-0.2,2.4,0.1
			c2.3,0.8,3.6,3.3,2.8,5.6s-3.3,3.6-5.6,2.8C57,55,56.9,55,56.7,54.9c-0.4,0.9-1.1,1.7-2.1,2.1c-0.1,0.1-0.3,0.1-0.4,0.2
			c0.5,0.5,0.9,1.2,0.9,2c0,1.5-1.2,2.8-2.8,2.8c-1.3,0-2.4-0.9-2.7-2.1h-0.1c-1.5,0-2.8-1.2-2.8-2.8c0-1.2,0.7-2.2,1.7-2.6
			c-0.7-1.9,0-4,1.7-5.1c-2.2-1.2-3.3-3.8-2.5-6.2c0.5-1.4,1.4-2.4,2.6-3c-0.4-0.9-0.6-2-0.6-3c0-4.6,3.7-8.3,8.3-8.3
			C62.6,28.9,66.3,32.6,66.3,37.1"/>
	</g>
	<g>
		<rect x="48.9" y="63.2" class="st5" width="6.8" height="63.3"/>
	</g>
	<g>
		<rect x="48.9" y="68.6" class="st6" width="6.8" height="5.4"/>
	</g>
	<g>
		<rect x="48.9" y="79.3" class="st6" width="6.8" height="5.4"/>
	</g>
	<g>
		<path class="st7" d="M53.9,75.9L53.9,75.9L53.9,75.9h1.6h0.2v0.2v3.2c0,0.1-0.1,0.2-0.2,0.2c-0.1,0-0.2-0.1-0.2-0.2v-3h-1.2v3
			c0,0.1-0.1,0.2-0.2,0.2c-0.1,0-0.2-0.1-0.2-0.2v-3h-1.2v3c0,0.1-0.1,0.2-0.2,0.2c-0.1,0-0.2-0.1-0.2-0.2v-3h-1.2v3
			c0,0.1-0.1,0.2-0.2,0.2c-0.1,0-0.2-0.1-0.2-0.2v-3h-1.2v3c0,0.1-0.1,0.2-0.2,0.2c-0.1,0-0.2-0.1-0.2-0.2v-3.2v-0.2h0.2h1.6l0,0
			l0,0h1.6l0,0l0,0H53.9z"/>
	</g>
	<g>
		<rect x="48.9" y="60.9" class="st6" width="6.8" height="2.4"/>
	</g>
	<g>
		<rect x="47" y="108.8" class="st8" width="10.7" height="19.8"/>
	</g>
	<g>
		<polygon class="st6" points="47,108.8 57.7,108.8 55.8,99.8 48.8,99.8 		"/>
	</g>
	<g>
		<path class="st4" d="M92,29.1c0,6-4.9,10.9-11,10.9c-0.1,0-0.2,0-0.2,0c-0.1,0.5-0.2,1-0.3,1.5l-0.1,0.2c1-0.2,2.1-0.2,3.2,0.1
			c3.1,1,4.7,4.3,3.7,7.4c-1,3.1-4.3,4.7-7.4,3.7c-0.2-0.1-0.5-0.2-0.7-0.3c-0.5,1.2-1.5,2.2-2.7,2.8c-0.2,0.1-0.3,0.2-0.5,0.2
			c0.7,0.7,1.2,1.6,1.2,2.7c0,2-1.7,3.7-3.7,3.7c-1.7,0-3.2-1.2-3.6-2.8h-0.1c-2,0-3.7-1.7-3.7-3.7c0-1.5,0.9-2.9,2.3-3.4
			c-0.9-2.5,0-5.3,2.2-6.8c-2.9-1.6-4.3-5-3.3-8.2c0.6-1.8,1.9-3.2,3.5-4c-0.5-1.2-0.8-2.6-0.8-4c0-6,4.9-10.9,10.9-10.9
			C87.1,18.1,92,23,92,29.1"/>
	</g>
	<g>
		<rect x="68.3" y="63.2" class="st5" width="6.8" height="63.3"/>
	</g>
	<g>
		<rect x="68.3" y="68.6" class="st6" width="6.8" height="5.4"/>
	</g>
	<g>
		<rect x="68.3" y="79.3" class="st6" width="6.8" height="5.4"/>
	</g>
	<g>
		<path class="st7" d="M73.3,75.9L73.3,75.9L73.3,75.9h1.6h0.2v0.2v3.2c0,0.1-0.1,0.2-0.2,0.2s-0.2-0.1-0.2-0.2v-3h-1.2v3
			c0,0.1-0.1,0.2-0.2,0.2s-0.2-0.1-0.2-0.2v-3h-1.2v3c0,0.1-0.1,0.2-0.2,0.2s-0.2-0.1-0.2-0.2v-3h-1.2v3c0,0.1-0.1,0.2-0.2,0.2
			s-0.2-0.1-0.2-0.2v-3h-1.2v3c0,0.1-0.1,0.2-0.2,0.2s-0.2-0.1-0.2-0.2v-3.2v-0.2h0.2h1.6l0,0l0,0h1.6l0,0l0,0H73.3z"/>
	</g>
	<g>
		<rect x="68.3" y="60.9" class="st6" width="6.8" height="2.4"/>
	</g>
	<g>
		<rect x="66.4" y="108.8" class="st8" width="10.7" height="19.8"/>
	</g>
	<g>
		<polygon class="st6" points="66.3,108.8 77,108.8 75.2,99.8 68.2,99.8 		"/>
	</g>
	<g>
		<path class="st4" d="M105.3,37.1c0,4.6-3.7,8.3-8.3,8.3c-0.1,0-0.1,0-0.2,0c0,0.4-0.1,0.7-0.2,1.1v0.1c0.8-0.2,1.6-0.2,2.4,0.1
			c2.3,0.8,3.6,3.3,2.8,5.6c-0.8,2.3-3.3,3.6-5.6,2.8C96,55,95.9,55,95.7,54.9c-0.4,0.9-1.1,1.7-2.1,2.1c-0.1,0.1-0.3,0.1-0.4,0.2
			c0.5,0.5,0.9,1.2,0.9,2c0,1.5-1.2,2.8-2.8,2.8c-1.3,0-2.4-0.9-2.7-2.1h-0.1c-1.5,0-2.8-1.2-2.8-2.8c0-1.2,0.7-2.2,1.7-2.6
			c-0.7-1.9,0-4,1.7-5.1c-2.2-1.2-3.3-3.8-2.5-6.2c0.5-1.4,1.4-2.4,2.6-3c-0.4-0.9-0.6-2-0.6-3c0-4.6,3.7-8.3,8.3-8.3
			C101.6,28.9,105.3,32.6,105.3,37.1"/>
	</g>
	<g>
		<rect x="87.9" y="63.2" class="st5" width="6.8" height="63.3"/>
	</g>
	<g>
		<rect x="87.9" y="68.6" class="st6" width="6.8" height="5.4"/>
	</g>
	<g>
		<rect x="87.9" y="79.3" class="st6" width="6.8" height="5.4"/>
	</g>
	<g>
		<path class="st7" d="M92.9,75.9L92.9,75.9L92.9,75.9h1.6h0.2v0.2v3.2c0,0.1-0.1,0.2-0.2,0.2s-0.2-0.1-0.2-0.2v-3h-1.2v3
			c0,0.1-0.1,0.2-0.2,0.2s-0.2-0.1-0.2-0.2v-3h-1.2v3c0,0.1-0.1,0.2-0.2,0.2s-0.2-0.1-0.2-0.2v-3H90v3c0,0.1-0.1,0.2-0.2,0.2
			s-0.2-0.1-0.2-0.2v-3h-1.2v3c0,0.1-0.1,0.2-0.2,0.2S88,79.4,88,79.3v-3.2v-0.2h0.2h1.6l0,0l0,0h1.6l0,0l0,0
			C91.4,75.9,92.9,75.9,92.9,75.9z"/>
	</g>
	<g>
		<rect x="87.9" y="60.9" class="st6" width="6.8" height="2.4"/>
	</g>
	<g>
		<rect x="86" y="108.8" class="st8" width="10.7" height="19.8"/>
	</g>
	<g>
		<polygon class="st6" points="86,108.8 96.7,108.8 94.9,99.8 87.9,99.8 		"/>
	</g>
	<g>
		<polygon class="st1" points="51.6,165.6 105.9,165.6 105.9,119.3 79.4,119.3 51.6,119.3 		"/>
	</g>
	<g>
		<rect x="166.1" y="143.4" class="st8" width="3.1" height="4.3"/>
	</g>
	<g>
		<rect x="159.9" y="143.4" class="st8" width="3.1" height="4.3"/>
	</g>
	<g>
		<rect x="153.6" y="143.4" class="st8" width="3.1" height="4.3"/>
	</g>
	<g>
		<polygon class="st5" points="105.9,165.6 148.4,165.6 148.4,146.5 127.7,146.5 105.9,146.5 		"/>
	</g>
	<g>
		<rect x="27.2" y="146.5" class="st8" width="18.2" height="19.1"/>
	</g>
	<g>
		<rect x="16.4" y="146.5" class="st8" width="25.7" height="19.1"/>
	</g>
	<g>
		<rect x="42.1" y="119.3" class="st6" width="10.2" height="46.4"/>
	</g>
	<g>
		<rect x="46" y="122.6" class="st1" width="2.4" height="2.4"/>
	</g>
	<g>
		<rect x="46" y="126.1" class="st1" width="2.4" height="2.4"/>
	</g>
	<g>
		<rect x="46" y="129.7" class="st1" width="2.4" height="2.4"/>
	</g>
	<g>
		<polygon class="st0" points="8.7,7.5 8.7,9.9 8.7,31 0,31 0,9.9 0,7.5 0,7.5 0.1,7.5 0.1,7.5 2.2,6.2 4.4,5 6.5,6.2 		"/>
	</g>
	<g>
		<polygon class="st0" points="183.7,7.5 183.7,9.9 183.7,31 192.3,31 192.3,9.9 192.3,7.5 192.3,7.5 192.3,7.5 192.3,7.5 
			190.1,6.2 188,5 185.8,6.2 		"/>
	</g>
	<g>
		<polygon class="st1" points="0.1,5 0.1,2.5 2.2,1.2 4.4,0 6.5,1.2 8.7,2.5 8.7,5 6.5,3.7 4.4,2.5 2.2,3.7 		"/>
	</g>
	<g>
		<rect x="148.4" y="146.5" class="st8" width="26" height="19.1"/>
	</g>
</g>
<g>
	<g>
		<path class="st9" d="M68.8,172.2v0.9h-2.1v4.1h-1.1v-5H68.8z"/>
		<path class="st9" d="M72.6,177.2l-0.4-1.2h-1.8l-0.4,1.2h-1.1l1.8-5H72l1.8,5H72.6z M72,175.1c-0.3-1.1-0.5-1.7-0.6-1.8
			s-0.1-0.3-0.1-0.3c-0.1,0.3-0.3,1-0.6,2.2H72z"/>
		<path class="st9" d="M77.8,173.4c0,0.3-0.1,0.6-0.3,0.8c-0.2,0.2-0.5,0.3-0.9,0.4v0c0.5,0,0.8,0.2,1.1,0.4
			c0.2,0.2,0.4,0.5,0.4,0.8c0,0.5-0.2,0.8-0.6,1.1c-0.4,0.3-0.9,0.4-1.5,0.4c-0.7,0-1.3-0.1-1.8-0.3v-0.9c0.2,0.1,0.5,0.2,0.8,0.2
			c0.3,0.1,0.6,0.1,0.8,0.1c0.8,0,1.3-0.2,1.3-0.7c0-0.2-0.1-0.4-0.4-0.5c-0.3-0.1-0.7-0.2-1.2-0.2h-0.5v-0.8h0.4
			c0.5,0,0.9,0,1.2-0.2c0.2-0.1,0.4-0.3,0.4-0.5c0-0.2-0.1-0.3-0.2-0.4c-0.2-0.1-0.4-0.2-0.7-0.2c-0.5,0-0.9,0.1-1.4,0.4l-0.5-0.7
			c0.3-0.2,0.6-0.3,0.9-0.4s0.7-0.1,1.1-0.1c0.5,0,1,0.1,1.3,0.3S77.8,173,77.8,173.4z"/>
		<path class="st9" d="M83.5,174.7c0,0.8-0.2,1.5-0.6,1.9c-0.4,0.4-1,0.7-1.8,0.7s-1.4-0.2-1.8-0.7c-0.4-0.4-0.6-1.1-0.6-1.9
			s0.2-1.5,0.6-1.9c0.4-0.4,1-0.7,1.8-0.7s1.4,0.2,1.8,0.7S83.5,173.9,83.5,174.7z M79.8,174.7c0,0.6,0.1,1,0.3,1.3
			c0.2,0.3,0.5,0.4,0.9,0.4c0.8,0,1.3-0.6,1.3-1.7s-0.4-1.7-1.3-1.7c-0.4,0-0.7,0.1-1,0.4C79.9,173.7,79.8,174.1,79.8,174.7z"/>
		<path class="st9" d="M86.4,177.2h-1.1v-4.1H84v-0.9h3.8v0.9h-1.4V177.2z"/>
		<path class="st9" d="M92.5,172.2l-1.5,3.5c-0.2,0.4-0.4,0.8-0.5,1c-0.2,0.2-0.4,0.3-0.6,0.4c-0.2,0.1-0.5,0.1-0.8,0.1
			c-0.3,0-0.5,0-0.8-0.1v-0.9c0.2,0.1,0.4,0.1,0.7,0.1c0.2,0,0.3,0,0.5-0.1c0.1-0.1,0.2-0.2,0.3-0.5l-1.7-3.6H89l1.2,2.8h0l0.1-0.2
			l1-2.6H92.5z"/>
		<path class="st9" d="M96.6,173.8c0,0.5-0.2,0.9-0.5,1.2c-0.3,0.3-0.8,0.4-1.4,0.4h-0.5v1.8h-1.1v-5h1.6c0.6,0,1.1,0.1,1.4,0.4
			C96.4,172.9,96.6,173.2,96.6,173.8z M94.2,174.6h0.3c0.3,0,0.6-0.1,0.7-0.2c0.2-0.1,0.2-0.3,0.2-0.6c0-0.2-0.1-0.4-0.2-0.6
			c-0.1-0.1-0.3-0.2-0.6-0.2h-0.5V174.6z"/>
		<path class="st9" d="M98.6,174.1H99c0.7,0,1.2,0.1,1.5,0.4c0.4,0.3,0.5,0.6,0.5,1.1c0,1-0.7,1.6-2.1,1.6h-1.5v-5h3.2v0.9h-2.1
			V174.1z M98.6,176.3h0.4c0.4,0,0.6-0.1,0.8-0.2c0.2-0.1,0.3-0.3,0.3-0.5c0-0.2-0.1-0.4-0.3-0.5c-0.2-0.1-0.5-0.2-0.9-0.2h-0.3
			V176.3z"/>
		<path class="st9" d="M102,172.2h1v2.4l0,0.6l0,0.7h0l2.3-3.8h1.3v5h-0.9v-2.4c0-0.3,0-0.8,0.1-1.4h0l-2.3,3.8H102V172.2z"/>
		<path class="st9" d="M111.8,177.2h-1.1V175h-2v2.2h-1.1v-5h1.1v2h2v-2h1.1V177.2z"/>
		<path class="st9" d="M117.2,177.2h-1.1V175h-2v2.2h-1.1v-5h1.1v2h2v-2h1.1V177.2z"/>
		<path class="st9" d="M121.5,177.2l-0.4-1.2h-1.8l-0.4,1.2h-1.1l1.8-5h1.3l1.8,5H121.5z M120.9,175.1c-0.3-1.1-0.5-1.7-0.6-1.8
			s-0.1-0.3-0.1-0.3c-0.1,0.3-0.3,1-0.6,2.2H120.9z"/>
		<path class="st9" d="M124.9,175.3l-1.2,1.9h-1.2l1.4-2.2c-0.3-0.1-0.5-0.3-0.6-0.5s-0.2-0.5-0.2-0.8c0-0.5,0.2-0.8,0.5-1.1
			c0.3-0.2,0.8-0.4,1.4-0.4h1.6v5h-1.1v-1.9H124.9z M125.6,173.1h-0.5c-0.3,0-0.5,0-0.6,0.1c-0.2,0.1-0.2,0.3-0.2,0.5
			c0,0.2,0.1,0.4,0.2,0.5c0.1,0.1,0.4,0.2,0.7,0.2h0.5V173.1z"/>
		<path class="st9" d="M64.5,181.4c-0.2,0-0.4,0-0.7,0.1c-0.2,0.1-0.4,0.1-0.6,0.2l-0.3-0.9c0.5-0.2,1.1-0.4,1.7-0.4
			c0.7,0,1.3,0.2,1.7,0.7s0.6,1.1,0.6,1.9c0,0.8-0.2,1.5-0.6,1.9c-0.4,0.4-1,0.7-1.8,0.7c-0.5,0-1-0.1-1.5-0.3v-0.9
			c0.6,0.2,1,0.3,1.4,0.3c0.4,0,0.8-0.1,1-0.3c0.2-0.2,0.4-0.5,0.4-1h-2.2v-0.9h2.2c0-0.4-0.1-0.7-0.3-0.9
			C65.2,181.5,64.9,181.4,64.5,181.4z"/>
		<path class="st9" d="M71.8,185.6h-1.1v-4.1h-1.2l-0.1,0.5c-0.1,1.2-0.3,2-0.4,2.5c-0.1,0.5-0.3,0.8-0.5,1
			c-0.2,0.2-0.5,0.3-0.8,0.3c-0.2,0-0.4,0-0.5-0.1v-0.9c0.1,0,0.3,0.1,0.4,0.1c0.1,0,0.2-0.1,0.3-0.2c0.1-0.1,0.1-0.3,0.2-0.6
			c0.1-0.3,0.1-0.8,0.2-1.5c0.1-0.7,0.2-1.3,0.3-1.9h3.2V185.6z"/>
		<path class="st9" d="M76,185.6h-2.9v-5H76v0.9h-1.8v1.1h1.7v0.9h-1.7v1.3H76V185.6z"/>
		<path class="st9" d="M81.1,185.6h-1.2l-1.8-2.5v2.5H77v-5h1.1v2.4l1.8-2.4H81l-1.8,2.4L81.1,185.6z"/>
		<path class="st9" d="M83.7,185.6h-1.1v-4.1h-1.4v-0.9H85v0.9h-1.4V185.6z"/>
		<path class="st9" d="M89.2,182.2c0,0.5-0.2,0.9-0.5,1.2c-0.3,0.3-0.8,0.4-1.4,0.4h-0.5v1.8h-1.1v-5h1.6c0.6,0,1.1,0.1,1.4,0.4
			C89.1,181.3,89.2,181.6,89.2,182.2z M86.8,183h0.3c0.3,0,0.6-0.1,0.7-0.2s0.2-0.3,0.2-0.6c0-0.2-0.1-0.4-0.2-0.6
			c-0.1-0.1-0.3-0.2-0.6-0.2h-0.5V183z"/>
		<path class="st9" d="M94.7,183.1c0,0.8-0.2,1.5-0.6,1.9c-0.4,0.4-1,0.7-1.8,0.7c-0.8,0-1.4-0.2-1.8-0.7c-0.4-0.4-0.6-1.1-0.6-1.9
			s0.2-1.5,0.6-1.9c0.4-0.4,1-0.7,1.8-0.7s1.4,0.2,1.8,0.7C94.5,181.6,94.7,182.3,94.7,183.1z M91.1,183.1c0,0.6,0.1,1,0.3,1.3
			c0.2,0.3,0.5,0.4,0.9,0.4c0.8,0,1.3-0.6,1.3-1.7s-0.4-1.7-1.3-1.7c-0.4,0-0.7,0.1-1,0.4C91.2,182.1,91.1,182.5,91.1,183.1z"/>
		<path class="st9" d="M97.9,181.4c-0.4,0-0.7,0.2-0.9,0.5c-0.2,0.3-0.3,0.7-0.3,1.3c0,1.1,0.4,1.7,1.3,1.7c0.4,0,0.8-0.1,1.3-0.3
			v0.9c-0.4,0.2-0.9,0.3-1.4,0.3c-0.7,0-1.3-0.2-1.7-0.7c-0.4-0.4-0.6-1.1-0.6-1.9c0-0.5,0.1-1,0.3-1.4c0.2-0.4,0.5-0.7,0.8-0.9
			c0.4-0.2,0.8-0.3,1.2-0.3c0.5,0,1,0.1,1.5,0.4l-0.3,0.9c-0.2-0.1-0.4-0.2-0.6-0.2C98.2,181.4,98,181.4,97.9,181.4z"/>
		<path class="st9" d="M102.1,185.6h-1.1v-4.1h-1.4v-0.9h3.8v0.9h-1.4V185.6z"/>
		<path class="st9" d="M107.3,185.6l-0.4-1.2h-1.8l-0.4,1.2h-1.1l1.8-5h1.3l1.8,5H107.3z M106.7,183.5c-0.3-1.1-0.5-1.7-0.6-1.8
			s-0.1-0.3-0.1-0.3c-0.1,0.3-0.3,1-0.6,2.2H106.7z"/>
		<path class="st9" d="M113.2,185.6h-1.1v-2.2h-2v2.2h-1.1v-5h1.1v2h2v-2h1.1V185.6z"/>
		<path class="st9" d="M118.4,184.8h0.7v2.3h-1v-1.5h-3.7v-5h1.1v4.1h1.8v-4.1h1.1V184.8z"/>
		<path class="st9" d="M119.9,180.6h1v2.4l0,0.6l0,0.7h0l2.3-3.8h1.3v5h-0.9v-2.4c0-0.3,0-0.8,0.1-1.4h0l-2.3,3.8h-1.3V180.6z"/>
		<path class="st9" d="M127.3,183.7l-1.2,1.9H125l1.4-2.2c-0.3-0.1-0.5-0.3-0.6-0.5s-0.2-0.5-0.2-0.8c0-0.5,0.2-0.8,0.5-1.1
			c0.3-0.2,0.8-0.4,1.4-0.4h1.6v5H128v-1.9H127.3z M128,181.5h-0.5c-0.3,0-0.5,0-0.6,0.1c-0.2,0.1-0.2,0.3-0.2,0.5
			c0,0.2,0.1,0.4,0.2,0.5c0.1,0.1,0.4,0.2,0.7,0.2h0.5V181.5z"/>
	</g>
</g>
</svg>
