<?xml version="1.0" encoding="utf-8"?>
<!-- Generator: Adobe Illustrator 24.0.1, SVG Export Plug-In . SVG Version: 6.00 Build 0)  -->
<svg version="1.1" id="Layer_1" xmlns="http://www.w3.org/2000/svg" xmlns:xlink="http://www.w3.org/1999/xlink" x="0px" y="0px"
	 viewBox="0 0 164.2 119.8" style="enable-background:new 0 0 164.2 119.8;" xml:space="preserve">
<style type="text/css">
	.st0{fill-rule:evenodd;clip-rule:evenodd;fill:#8A86BB;}
	.st1{fill-rule:evenodd;clip-rule:evenodd;fill:#696C6D;}
	.st2{fill-rule:evenodd;clip-rule:evenodd;fill:#00508C;}
	.st3{fill-rule:evenodd;clip-rule:evenodd;fill:#3C494F;}
	.st4{fill-rule:evenodd;clip-rule:evenodd;fill:#006EFF;}
	.st5{fill-rule:evenodd;clip-rule:evenodd;fill:#00508C;}
	.st6{fill-rule:evenodd;clip-rule:evenodd;fill:#006EFF;}
	.st7{fill-rule:evenodd;clip-rule:evenodd;fill:#8A86BB;}
	.st8{fill-rule:evenodd;clip-rule:evenodd;fill:#A6A5D1;}
	.st9{fill-rule:evenodd;clip-rule:evenodd;fill:#5B9AAD;}
	.st10{fill-rule:evenodd;clip-rule:evenodd;fill:#F5A071;}
	.st11{fill-rule:evenodd;clip-rule:evenodd;fill:#1F5676;}
	.st12{fill-rule:evenodd;clip-rule:evenodd;fill:#232021;}
	.st13{fill-rule:evenodd;clip-rule:evenodd;fill:#0041CD;}
	.st14{fill:#00508C;}
</style>
<g>
	<polygon class="st0" points="84.6,35.1 79.2,35.1 79.2,39.5 84.6,44.2 	"/>
</g>
<g>
	<rect x="94.6" y="35.1" class="st0" width="2.5" height="10.9"/>
</g>
<g>
	<rect x="75.9" y="46.8" class="st0" width="22.9" height="1.2"/>
</g>
<g>
	<rect x="74.1" y="39.4" class="st1" width="5.9" height="11.7"/>
</g>
<g>
	<polygon class="st2" points="95.2,32.2 114.1,47.5 35.1,47.5 16.1,32.2 	"/>
</g>
<g>
	<path class="st0" d="M88.5,48.4L70.4,33.7c-0.2-0.1-0.2-0.4-0.1-0.6c0.1-0.2,0.4-0.2,0.6-0.1l18.2,14.7c0.2,0.1,0.2,0.4,0.1,0.6
		C89,48.5,88.7,48.5,88.5,48.4"/>
</g>
<g>
	<path class="st0" d="M92.5,48.4L74.3,33.7c-0.2-0.1-0.2-0.4-0.1-0.6c0.1-0.2,0.4-0.2,0.6-0.1L93,47.7c0.2,0.1,0.2,0.4,0.1,0.6
		C92.9,48.5,92.6,48.5,92.5,48.4"/>
</g>
<g>
	<path class="st0" d="M96.4,48.4L78.2,33.7c-0.2-0.1-0.2-0.4-0.1-0.6c0.1-0.2,0.4-0.2,0.6-0.1l18.2,14.7c0.2,0.1,0.2,0.4,0.1,0.6
		C96.8,48.5,96.6,48.5,96.4,48.4"/>
</g>
<g>
	<path class="st0" d="M100.3,48.4L82.1,33.7c-0.2-0.1-0.2-0.4-0.1-0.6c0.1-0.2,0.4-0.2,0.6-0.1l18.2,14.8c0.2,0.1,0.2,0.4,0.1,0.6
		C100.8,48.5,100.5,48.5,100.3,48.4"/>
</g>
<g>
	<path class="st0" d="M104.3,48.4L86.1,33.7c-0.2-0.1-0.2-0.4-0.1-0.6c0.1-0.2,0.4-0.2,0.6-0.1l18.2,14.8c0.2,0.1,0.2,0.4,0.1,0.6
		C104.7,48.5,104.4,48.5,104.3,48.4"/>
</g>
<g>
	<path class="st0" d="M108.2,48.4L90,33.7c-0.2-0.1-0.2-0.4-0.1-0.6c0.1-0.2,0.4-0.2,0.6-0.1l18.2,14.7c0.2,0.1,0.2,0.4,0.1,0.6
		C108.6,48.5,108.4,48.5,108.2,48.4"/>
</g>
<g>
	<path class="st0" d="M112.1,48.4L93.9,33.7c-0.2-0.1-0.2-0.4-0.1-0.6c0.1-0.2,0.4-0.2,0.6-0.1l18.2,14.7c0.2,0.1,0.2,0.4,0.1,0.6
		S112.3,48.5,112.1,48.4"/>
</g>
<g>
	<path class="st0" d="M64.9,48.4L46.7,33.7c-0.2-0.1-0.2-0.4-0.1-0.6c0.1-0.2,0.4-0.2,0.6-0.1l18.2,14.7c0.2,0.1,0.2,0.4,0.1,0.6
		C65.3,48.5,65.1,48.5,64.9,48.4"/>
</g>
<g>
	<path class="st0" d="M64.9,45.2L50.6,33.7c-0.2-0.1-0.2-0.4-0.1-0.6c0.1-0.2,0.4-0.2,0.6-0.1l14.2,11.5c0.2,0.1,0.2,0.4,0.1,0.6
		S65,45.3,64.9,45.2"/>
</g>
<g>
	<path class="st0" d="M67.6,44.2l-13-10.5c-0.2-0.1-0.2-0.4-0.1-0.6c0.1-0.2,0.4-0.2,0.6-0.1l13,10.5c0.2,0.1,0.2,0.4,0.1,0.6
		C68,44.3,67.7,44.4,67.6,44.2"/>
</g>
<g>
	<path class="st0" d="M69.4,42.5l-10.9-8.8c-0.2-0.1-0.2-0.4-0.1-0.6c0.1-0.2,0.4-0.2,0.6-0.1l10.9,8.8c0.2,0.1,0.2,0.4,0.1,0.6
		C69.8,42.6,69.5,42.6,69.4,42.5"/>
</g>
<g>
	<path class="st0" d="M69.4,39.3l-7-5.6c-0.2-0.1-0.2-0.4-0.1-0.6c0.1-0.2,0.4-0.2,0.6-0.1l7,5.6c0.2,0.1,0.2,0.4,0.1,0.6
		C69.8,39.4,69.5,39.4,69.4,39.3"/>
</g>
<g>
	<path class="st3" d="M70.5,37l-4.2-3.4c-0.2-0.1-0.2-0.4-0.1-0.6c0.1-0.2,0.4-0.2,0.6-0.1l4.2,3.4c0.2,0.1,0.2,0.4,0.1,0.6
		C70.9,37.1,70.7,37.2,70.5,37"/>
</g>
<g>
	<path class="st0" d="M40.7,48.4L22.5,33.7c-0.2-0.1-0.2-0.4-0.1-0.6c0.1-0.2,0.4-0.2,0.6-0.1l18.2,14.7c0.2,0.1,0.2,0.4,0.1,0.6
		C41.1,48.5,40.9,48.5,40.7,48.4"/>
</g>
<g>
	<path class="st0" d="M40.7,45.2L26.5,33.7c-0.2-0.1-0.2-0.4-0.1-0.6c0.1-0.2,0.4-0.2,0.6-0.1l14.2,11.5c0.2,0.1,0.2,0.4,0.1,0.6
		C41.1,45.3,40.9,45.3,40.7,45.2"/>
</g>
<g>
	<path class="st0" d="M43.4,44.2l-13-10.5c-0.2-0.1-0.2-0.4-0.1-0.6c0.1-0.2,0.4-0.2,0.6-0.1l13,10.5c0.2,0.1,0.2,0.4,0.1,0.6
		C43.8,44.3,43.6,44.4,43.4,44.2"/>
</g>
<g>
	<path class="st0" d="M45.2,42.5l-10.9-8.8c-0.2-0.1-0.2-0.4-0.1-0.6c0.1-0.2,0.4-0.2,0.6-0.1l10.9,8.8c0.2,0.1,0.2,0.4,0.1,0.6
		C45.6,42.6,45.4,42.6,45.2,42.5"/>
</g>
<g>
	<path class="st0" d="M45.2,39.3l-7-5.6c-0.2-0.1-0.2-0.4-0.1-0.6c0.1-0.2,0.4-0.2,0.6-0.1l7,5.6c0.2,0.1,0.2,0.4,0.1,0.6
		C45.6,39.4,45.4,39.4,45.2,39.3"/>
</g>
<g>
	<path class="st0" d="M46.3,37l-4.2-3.4c-0.2-0.1-0.2-0.4-0.1-0.6c0.1-0.2,0.4-0.2,0.6-0.1l4.2,3.4c0.2,0.1,0.2,0.4,0.1,0.6
		C46.7,37.1,46.5,37.2,46.3,37"/>
</g>
<g>
	<rect x="82.9" y="47.5" class="st4" width="31.2" height="72.3"/>
</g>
<g>
	<polygon class="st5" points="67.1,32.2 86,47.5 82.9,47.5 63.9,32.2 	"/>
</g>
<g>
	<polygon class="st5" points="43.2,32.2 62.1,47.5 59,47.5 40,32.2 	"/>
</g>
<g>
	<polygon class="st5" points="19.3,32.2 38.2,47.5 35.1,47.5 16.1,32.2 	"/>
</g>
<g>
	<polygon class="st6" points="63.9,32.2 59,47.5 40,32.2 35.1,47.5 16.1,32.2 16.1,121.5 82.9,121.5 82.9,47.5 	"/>
</g>
<g>
	<rect x="16.1" y="50.8" class="st7" width="66.7" height="2.4"/>
</g>
<g>
	<rect x="82.9" y="50.8" class="st0" width="31.2" height="2.4"/>
</g>
<g>
	<rect x="88.2" y="77.5" class="st8" width="20.7" height="42.3"/>
</g>
<g>
	<rect x="88.2" y="77.5" class="st5" width="20.7" height="2.1"/>
</g>
<g>
	<polygon class="st0" points="109,77.5 107.1,79.6 107.1,119.8 109,119.8 	"/>
</g>
<g>
	<polygon class="st2" points="101.9,111.6 101.9,112.3 88.2,112.3 88.1,112.3 88.1,111.6 85.7,111.6 85.7,112.3 72,112.3 72,111.6 
		69.7,111.6 69.7,113.2 69.7,113.2 70.4,113.8 103.5,113.8 104.3,113.2 104.3,113.2 104.3,111.6 	"/>
</g>
<g>
	<path class="st5" d="M99.2,111.7v2.4l-1.5,0.9c-0.2,0.1-0.2,0.3-0.1,0.5s0.3,0.2,0.5,0.1l2.4-1.4v-2.5H99.2z"/>
</g>
<g>
	<path class="st5" d="M90.5,111.7v2.4L89,115c-0.2,0.1-0.2,0.3-0.1,0.5s0.3,0.2,0.5,0.1l2.4-1.4v-2.5H90.5z"/>
</g>
<g>
	<path class="st5" d="M81.9,111.7v2.4l-1.5,0.9c-0.2,0.1-0.2,0.3-0.1,0.5s0.3,0.2,0.5,0.1l2.4-1.4v-2.5H81.9z"/>
</g>
<g>
	<path class="st5" d="M137.4,112.2c0-0.3-0.2-0.5-0.5-0.5h-4.5c-0.3,0-0.5,0.2-0.5,0.5H137.4z"/>
</g>
<g>
	<path class="st2" d="M130.6,110.6c-0.2,0.1-0.4,0.3-0.4,0.5h7.2v-0.4c0-0.3-0.2-0.5-0.5-0.5h-3.8
		C133,110.2,131.2,110.5,130.6,110.6"/>
</g>
<g>
	<path class="st2" d="M133.1,111.1c0,0.3,0.2,0.5,0.5,0.5h1.6c0.3,0,0.5-0.2,0.5-0.5H133.1z"/>
</g>
<g>
	<rect x="122.8" y="113" class="st2" width="1.7" height="0.8"/>
</g>
<g>
	<rect x="125.5" y="112.2" class="st2" width="24.7" height="4.4"/>
</g>
<g>
	<polygon class="st2" points="162.8,113.9 158.2,113.9 158.2,113.1 163.5,113.1 	"/>
</g>
<g>
	<polygon class="st2" points="158.8,116.3 154.4,116.5 150.1,116.5 150.1,113.1 148.9,112.1 148.9,110.8 158.8,110.8 	"/>
</g>
<g>
	<path class="st0" d="M143.1,112.2h-9c-0.6,0-1,0.5-1,1v3.2c0,0.6,0.5,1,1,1h9c0.6,0,1-0.5,1-1v-3.2
		C144.1,112.6,143.7,112.2,143.1,112.2"/>
</g>
<g>
	<rect x="134.4" y="111.9" class="st5" width="0.5" height="5.7"/>
</g>
<g>
	<rect x="138.3" y="111.9" class="st5" width="0.5" height="5.7"/>
</g>
<g>
	<rect x="142.3" y="111.9" class="st5" width="0.5" height="5.7"/>
</g>
<g>
	<path class="st5" d="M122.8,112.1L122.8,112.1v1.7l0,0c0.3,0,0.5-0.2,0.5-0.5v-0.7C123.3,112.3,123.1,112.1,122.8,112.1"/>
</g>
<g>
	<path class="st0" d="M116.4,117.4L116.4,117.4h3.1l0,0c0-0.4-0.3-0.7-0.7-0.7h-1.7C116.7,116.8,116.4,117.1,116.4,117.4"/>
</g>
<g>
	<path class="st5" d="M156.3,119.3c-1.8,1-4.1,0.4-5.1-1.4s-0.4-4.1,1.4-5.1c1.8-1,4.1-0.4,5.1,1.4
		C158.7,115.9,158.1,118.3,156.3,119.3"/>
</g>
<g>
	<path class="st2" d="M154.4,114.1c-0.3,0-0.7,0.1-1,0.3c-0.9,0.5-1.3,1.7-0.7,2.7c0.4,0.6,1,1,1.7,1c0.3,0,0.7-0.1,1-0.3
		c0.9-0.5,1.3-1.7,0.7-2.7C155.8,114.4,155.1,114.1,154.4,114.1 M154.4,119c-1,0-2-0.5-2.5-1.5c-0.8-1.4-0.3-3.2,1.1-4
		c0.5-0.3,1-0.4,1.5-0.4c1,0,2,0.5,2.5,1.5c0.8,1.4,0.3,3.2-1.1,4C155.4,118.8,154.9,119,154.4,119z"/>
</g>
<g>
	<path class="st5" d="M156.1,115.1c-0.5-0.9-1.7-1.2-2.6-0.7c-0.9,0.5-1.2,1.7-0.7,2.6s1.7,1.2,2.6,0.7
		C156.3,117.1,156.6,116,156.1,115.1"/>
</g>
<g>
	<path class="st0" d="M155.4,115.5c-0.3-0.5-1-0.7-1.5-0.4c-0.5,0.3-0.7,1-0.4,1.5s1,0.7,1.5,0.4C155.5,116.7,155.7,116,155.4,115.5
		"/>
</g>
<g>
	<path class="st2" d="M153.8,114.9c0.3-0.2,0.5-0.5,0.4-0.7c-0.2,0-0.5,0.1-0.7,0.2s-0.4,0.3-0.6,0.5
		C153.1,115.1,153.5,115.1,153.8,114.9"/>
</g>
<g>
	<path class="st2" d="M155.1,117.2c-0.3,0.2-0.5,0.5-0.4,0.7c0.2,0,0.5-0.1,0.7-0.2s0.4-0.3,0.6-0.5
		C155.7,117,155.4,117,155.1,117.2"/>
</g>
<g>
	<path class="st2" d="M155.6,114.5c-0.2,0.2-0.2,0.5,0,0.9c0.2,0.3,0.5,0.5,0.7,0.4c0-0.2-0.1-0.5-0.2-0.7
		C155.9,114.9,155.7,114.7,155.6,114.5"/>
</g>
<g>
	<path class="st2" d="M153.3,116.7c-0.2-0.3-0.5-0.5-0.7-0.4c0,0.2,0.1,0.5,0.2,0.7c0.1,0.2,0.3,0.4,0.5,0.6
		C153.5,117.3,153.5,117,153.3,116.7"/>
</g>
<g>
	<path class="st0" d="M155.6,118c-1.1,0.6-2.4,0.3-3.1-0.8c-0.6-1.1-0.3-2.4,0.8-3.1c1.1-0.6,2.4-0.3,3.1,0.8
		C157,116,156.6,117.4,155.6,118 M153.5,114.4c-0.9,0.5-1.2,1.6-0.7,2.5s1.6,1.2,2.5,0.7s1.2-1.6,0.7-2.5S154.4,113.9,153.5,114.4z"
		/>
</g>
<g>
	<path class="st5" d="M128.8,112.4c-2-0.5-4.1,0.7-4.6,2.7s0.7,4.1,2.7,4.6s4.1-0.7,4.6-2.7S130.8,112.9,128.8,112.4"/>
</g>
<g>
	<path class="st2" d="M127.8,114.1c-0.9,0-1.6,0.6-1.9,1.4c-0.3,1,0.3,2.1,1.4,2.4c0.2,0,0.3,0.1,0.5,0.1c0.9,0,1.6-0.6,1.9-1.4
		c0.3-1-0.3-2.1-1.4-2.4C128.1,114.1,128,114.1,127.8,114.1 M127.8,119c-0.3,0-0.5,0-0.8-0.1c-1.6-0.4-2.5-2-2.1-3.6
		c0.3-1.3,1.5-2.2,2.8-2.2c0.3,0,0.5,0,0.8,0.1c1.6,0.4,2.5,2,2.1,3.6C130.3,118.1,129.1,119,127.8,119z"/>
</g>
<g>
	<path class="st5" d="M127.8,117.9c-0.2,0-0.3,0-0.5-0.1c-1-0.3-1.6-1.3-1.3-2.3c0.2-0.8,1-1.4,1.8-1.4c0.2,0,0.3,0,0.5,0.1
		c1,0.3,1.6,1.3,1.3,2.3C129.4,117.4,128.6,117.9,127.8,117.9"/>
</g>
<g>
	<path class="st0" d="M128.1,115c-0.6-0.2-1.2,0.2-1.4,0.8c-0.2,0.6,0.2,1.2,0.8,1.4c0.6,0.2,1.2-0.2,1.4-0.8
		C129,115.7,128.7,115.1,128.1,115"/>
</g>
<g>
	<path class="st2" d="M127.5,114.2c0,0.3,0.3,0.5,0.6,0.6s0.7,0,0.8-0.2c-0.2-0.2-0.4-0.3-0.7-0.3
		C128,114.2,127.8,114.1,127.5,114.2"/>
</g>
<g>
	<path class="st2" d="M127.5,117.3c-0.3-0.1-0.7,0-0.8,0.2c0.2,0.2,0.4,0.3,0.7,0.3c0.3,0.1,0.5,0.1,0.8,0
		C128,117.6,127.8,117.4,127.5,117.3"/>
</g>
<g>
	<path class="st2" d="M129.6,115.8c-0.3,0-0.5,0.3-0.6,0.6c-0.1,0.3,0,0.7,0.2,0.8c0.2-0.2,0.3-0.4,0.3-0.7
		C129.7,116.3,129.7,116,129.6,115.8"/>
</g>
<g>
	<path class="st2" d="M126.3,114.9c-0.2,0.2-0.3,0.4-0.3,0.7c-0.1,0.3-0.1,0.5,0,0.8c0.3,0,0.5-0.3,0.6-0.6
		C126.6,115.4,126.5,115,126.3,114.9"/>
</g>
<g>
	<path class="st0" d="M128.4,113.9c-1.2-0.3-2.4,0.4-2.7,1.6s0.4,2.4,1.6,2.7c1.2,0.3,2.4-0.4,2.7-1.6
		C130.3,115.4,129.6,114.2,128.4,113.9 M127.3,117.8c-1-0.3-1.6-1.3-1.3-2.3s1.3-1.6,2.3-1.3c1,0.3,1.6,1.3,1.3,2.3
		S128.3,118.1,127.3,117.8z"/>
</g>
<g>
	<path class="st5" d="M162.8,113.9h-4.1v3.6h4.1c0.4,0,0.7-0.3,0.7-0.7v-2.1C163.5,114.2,163.2,113.9,162.8,113.9"/>
</g>
<g>
	<path class="st5" d="M163.5,110.2v-2.9l-1.3-8l0.8-0.5l-0.4-2.7c-0.1-0.8-0.8-1.5-1.6-1.5l-8.5-0.4l-4.6-1.2
		c-0.8-0.2-1.4,0.3-1.4,1v16.6h7.9c1.7,0,3.1,1.1,4.1,2.3h5l0,0l0,0c0.3,0,0.5-0.2,0.5-0.5v-1.9C164,110.4,163.8,110.2,163.5,110.2"
		/>
</g>
<g>
	<path class="st4" d="M160.7,104.5l-0.6-3.8c-0.1-0.6-0.6-1-1.2-1h-2.7c-0.6,0-1.1,0.5-1.1,1.1v2.9c0,0.6,0.5,1.1,1.1,1.2l3.5,0.5
		c0.3,0,0.6,0,0.8-0.2C160.6,105.1,160.7,104.8,160.7,104.5"/>
</g>
<g>
	<polygon class="st9" points="162.5,100.6 162.4,99.9 162.4,99.9 	"/>
</g>
<g>
	<path class="st10" d="M156.3,104.9h-0.1c-0.6-0.1-1.1-0.6-1.1-1.2c0,0.6,0.5,1.1,1.1,1.2H156.3L156.3,104.9z"/>
</g>
<g>
	<path class="st10" d="M157.9,105.2l-0.9-0.1L157.9,105.2z"/>
</g>
<g>
	<path class="st10" d="M159.8,105.5c-0.1,0-0.1,0-0.2,0l-1.3-0.2l0,0l1.3,0.2C159.7,105.5,159.8,105.5,159.8,105.5
		c0.2,0,0.4-0.1,0.6-0.2c0.2-0.1,0.2-0.4,0.2-0.6c0,0.2-0.1,0.4-0.2,0.6C160.3,105.4,160.1,105.5,159.8,105.5"/>
</g>
<g>
	<path class="st0" d="M161.6,115.1h-2c-0.1-0.4-0.2-0.8-0.4-1.2h2.9v0.8C162,114.9,161.8,115.1,161.6,115.1"/>
</g>
<g>
	<path class="st0" d="M161.6,117h-2l0,0v-1c0-0.1,0-0.3,0-0.4h2c0.2,0,0.4,0.2,0.4,0.4v0.5C162,116.8,161.8,117,161.6,117"/>
</g>
<g>
	<path class="st0" d="M162,116.6h-3.2c0,0.2,0.2,0.4,0.4,0.4h2.3C161.8,117,162,116.8,162,116.6"/>
</g>
<g>
	<rect x="148.9" y="110.8" class="st2" width="5.3" height="0.8"/>
</g>
<g>
	<polygon class="st0" points="160.9,99.9 163.3,99.9 163.1,98.8 160.7,98.8 	"/>
</g>
<g>
	<path class="st0" d="M163,116.4h0.5v-1.7H163c-0.3,0-0.5,0.2-0.5,0.5v0.7C162.5,116.2,162.8,116.4,163,116.4"/>
</g>
<g>
	<path class="st0" d="M159.6,117.5h-1V116c0-2.3-1.9-4.2-4.2-4.2s-4.2,1.9-4.2,4.2v1.5h-1V116c0-2.9,2.3-5.2,5.2-5.2
		s5.2,2.3,5.2,5.2V117.5z"/>
</g>
<g>
	<path class="st5" d="M159.2,117v-1c0-2.6-2.1-4.7-4.7-4.7c-2.6,0-4.7,2.1-4.7,4.7v1h-0.5v0.5h0.9V116c0-2.3,1.9-4.2,4.2-4.2
		s4.2,1.9,4.2,4.2v1.5h1V117H159.2z"/>
</g>
<g>
	<path class="st5" d="M148.8,116c0-1.5,0.6-2.8,1.5-3.8h-4.6c-0.6,0-1,0.5-1,1v3.2c0,0.6,0.5,1,1,1h3.1V116z"/>
</g>
<g>
	<path class="st0" d="M148.4,113.2c-0.1-0.2-0.3-0.3-0.6-0.3h-1.7c-0.4,0-0.7,0.3-0.7,0.7v2.4c0,0.4,0.3,0.7,0.7,0.7h1.3
		c0.4,0,0.7-0.3,0.7-0.7l0,0c0-0.7,0.1-1.5,0.4-2.2C148.5,113.6,148.5,113.4,148.4,113.2"/>
</g>
<g>
	<path class="st11" d="M164,112.7C164,112.6,164,112.6,164,112.7C164,112.6,164,112.6,164,112.7 M163.9,112.9L163.9,112.9
		L163.9,112.9z M163.5,113.1L163.5,113.1L163.5,113.1L163.5,113.1L163.5,113.1L163.5,113.1z"/>
</g>
<g>
	<path class="st0" d="M150.3,99.3c-0.5,0-0.9,0.4-0.9,0.9v8.5v1.6h4.9v-11H150.3z M154.7,99.3v11c1.7,0.1,3.3,0.9,4.3,2.3h2.6v-5.3
		l-1.3-8.1L154.7,99.3L154.7,99.3z M163.5,113.1L163.5,113.1L163.5,113.1h-4.7c-0.9-1.4-2.4-2.3-4.2-2.3l0,0l0,0l0,0l0,0l0,0l0,0
		l0,0l0,0l0,0l0,0l0,0l0,0l0,0l0,0l0,0l0,0l0,0l0,0l0,0l0,0H149v-2.1v-8.5c0-0.8,0.6-1.4,1.4-1.4c5.3,0-0.7,0,10.4,0l0.2,1.1l0,0
		l1.2,7.4v5.3h2l0,0c0,0,0,0.1-0.1,0.2l0,0l0,0C163.8,113.1,163.6,113.1,163.5,113.1L163.5,113.1L163.5,113.1z"/>
</g>
<g>
	<path class="st12" d="M154.3,110.8c-0.6,0-3,0-4.9,0H149l0,0H154.3z"/>
</g>
<g>
	<path class="st12" d="M154.4,110.8L154.4,110.8L154.4,110.8 M154.5,110.8C154.5,110.8,154.4,110.8,154.5,110.8
		C154.4,110.8,154.5,110.8,154.5,110.8L154.5,110.8z M154.5,110.8L154.5,110.8L154.5,110.8z M154.5,110.8L154.5,110.8L154.5,110.8
		L154.5,110.8z M154.5,110.8L154.5,110.8L154.5,110.8z M154.5,110.8L154.5,110.8L154.5,110.8z M154.5,110.8L154.5,110.8L154.5,110.8
		L154.5,110.8z M154.5,110.8L154.5,110.8L154.5,110.8z M154.5,110.8L154.5,110.8L154.5,110.8z M154.6,110.8
		C154.6,110.8,154.5,110.8,154.6,110.8C154.5,110.8,154.6,110.8,154.6,110.8z M158.8,113.1L158.8,113.1c-0.9-1.4-2.4-2.3-4.2-2.3
		C156.3,110.8,157.9,111.7,158.8,113.1L158.8,113.1z"/>
</g>
<g>
	<path class="st4" d="M152.7,104.4c-0.1,0-0.1,0-0.2,0l-1.7-0.3c-0.6-0.1-1.1-0.6-1.1-1.2v-2.1c0-0.6,0.5-1.1,1.1-1.1h1.9
		c0.6,0,1,0.4,1,1v2.7c0,0.3-0.1,0.5-0.4,0.7C153.2,104.3,152.9,104.4,152.7,104.4"/>
</g>
<g>
	<path class="st0" d="M156.4,108.8c0.1,0,0.2,0.1,0.2,0.2v0.7c0,0.1-0.1,0.2-0.2,0.2h-1c-0.1,0-0.2-0.1-0.2-0.2V109
		c0-0.1,0.1-0.2,0.2-0.2H156.4z"/>
</g>
<g>
	<rect x="155.1" y="109.4" class="st0" width="1.4" height="0.5"/>
</g>
<g>
	<path class="st0" d="M157.1,108.8c0.1,0,0.2,0.1,0.2,0.2s-0.1,0.2-0.2,0.2c-0.1,0-0.2-0.1-0.2-0.2S156.9,108.8,157.1,108.8"/>
</g>
<g>
	<path class="st0" d="M162.6,113.1c0.3,0,0.5-0.2,0.5-0.5v-1.9c0-0.3-0.2-0.5-0.5-0.5V113.1z"/>
</g>
<g>
	<path class="st0" d="M124,116c0-2.1,1.7-3.8,3.8-3.8l0,0l0,0c2.1,0,3.8,1.7,3.8,3.8v1.4h0.9V116c0-2.6-2.1-4.7-4.7-4.7l0,0
		c-2.6,0-4.7,2.1-4.7,4.7v1.4h0.9V116z"/>
</g>
<g>
	<path class="st2" d="M124,116c0-2.1,1.7-3.8,3.8-3.8l0,0l0,0c2.1,0,3.8,1.7,3.8,3.8v1h0.5v-1c0-2.3-1.9-4.2-4.2-4.2l0,0
		c-2.3,0-4.2,1.9-4.2,4.2v1h0.5v-1H124z"/>
</g>
<g>
	<path class="st5" d="M99.3,115.1c0.5,2-0.7,4.1-2.7,4.6S92.5,119,92,117s0.7-4.1,2.7-4.6C96.6,111.9,98.7,113.1,99.3,115.1"/>
</g>
<g>
	<path class="st2" d="M95.6,114.5c-0.1,0-0.3,0-0.4,0.1c-0.8,0.2-1.3,1.1-1.1,1.9c0.2,0.7,0.8,1.2,1.5,1.2c0.1,0,0.3,0,0.4-0.1
		c0.8-0.2,1.3-1.1,1.1-1.9C96.9,114.9,96.3,114.5,95.6,114.5 M95.6,118.6c-1.2,0-2.2-0.8-2.5-1.9c-0.4-1.4,0.5-2.8,1.8-3.2
		c0.2-0.1,0.5-0.1,0.7-0.1c1.1,0,2.2,0.8,2.5,1.9c0.4,1.4-0.5,2.8-1.8,3.2C96.1,118.6,95.8,118.6,95.6,118.6z"/>
</g>
<g>
	<path class="st0" d="M97.7,115.5c0.3,1.2-0.4,2.4-1.5,2.7c-1.2,0.3-2.4-0.4-2.7-1.5c-0.3-1.2,0.4-2.4,1.5-2.7
		C96.2,113.6,97.4,114.3,97.7,115.5 M94.3,116.4c0.2,0.7,0.9,1.1,1.6,0.9s1.1-0.9,0.9-1.6s-0.9-1.1-1.6-0.9
		C94.6,115,94.2,115.7,94.3,116.4z"/>
</g>
<g>
	<path class="st5" d="M95.2,114.4c-0.9,0.2-1.4,1.2-1.2,2.1c0.2,0.9,1.2,1.4,2.1,1.2c0.9-0.2,1.4-1.2,1.2-2.1
		C97,114.7,96.1,114.2,95.2,114.4"/>
</g>
<g>
	<path class="st0" d="M95.3,115c-0.6,0.2-0.9,0.8-0.8,1.4c0.2,0.6,0.8,0.9,1.4,0.8c0.6-0.2,0.9-0.8,0.8-1.4
		C96.5,115.2,95.9,114.8,95.3,115"/>
</g>
<g>
	<path class="st2" d="M94.5,116.3c-0.1-0.3-0.3-0.5-0.5-0.5c0,0.2,0,0.4,0,0.7c0.1,0.2,0.2,0.4,0.3,0.6
		C94.5,116.9,94.6,116.6,94.5,116.3"/>
</g>
<g>
	<path class="st2" d="M96.7,115.7c0.1,0.3,0.3,0.5,0.5,0.5c0-0.2,0-0.4,0-0.7c-0.1-0.2-0.2-0.4-0.3-0.6
		C96.7,115.1,96.7,115.4,96.7,115.7"/>
</g>
<g>
	<path class="st2" d="M94.6,114.7c0.1,0.2,0.4,0.3,0.7,0.2c0.3-0.1,0.5-0.3,0.5-0.5c-0.2,0-0.4,0-0.7,0
		C95,114.5,94.8,114.6,94.6,114.7"/>
</g>
<g>
	<path class="st2" d="M95.9,117.2c-0.3,0.1-0.5,0.3-0.5,0.5c0.2,0,0.4,0,0.7,0c0.2-0.1,0.4-0.2,0.6-0.3
		C96.5,117.2,96.2,117.1,95.9,117.2"/>
</g>
<g>
	<path class="st5" d="M80.2,119.3c-1.8,1-4.1,0.4-5.1-1.4s-0.4-4.1,1.4-5.1s4.1-0.4,5.1,1.4C82.6,116,82,118.3,80.2,119.3"/>
</g>
<g>
	<path class="st2" d="M78.3,114.5c-0.3,0-0.5,0.1-0.8,0.2c-0.7,0.4-1,1.4-0.6,2.1c0.3,0.5,0.8,0.8,1.4,0.8c0.3,0,0.5-0.1,0.8-0.2
		c0.7-0.4,1-1.4,0.6-2.1C79.4,114.8,78.9,114.5,78.3,114.5 M78.3,118.6c-0.9,0-1.8-0.5-2.3-1.3c-0.7-1.2-0.3-2.8,1-3.6
		c0.4-0.2,0.9-0.3,1.3-0.3c0.9,0,1.8,0.5,2.3,1.3c0.7,1.2,0.3,2.8-1,3.6C79.2,118.5,78.8,118.6,78.3,118.6z"/>
</g>
<g>
	<path class="st0" d="M79.4,117.9c-1,0.6-2.4,0.2-3-0.8s-0.2-2.4,0.8-3s2.4-0.2,3,0.8C80.8,116,80.5,117.3,79.4,117.9 M77.7,114.9
		c-0.6,0.4-0.8,1.2-0.5,1.8c0.4,0.6,1.2,0.8,1.8,0.5c0.6-0.4,0.8-1.2,0.5-1.8C79.1,114.8,78.3,114.5,77.7,114.9z"/>
</g>
<g>
	<path class="st5" d="M79.8,115.2c-0.5-0.8-1.5-1.1-2.3-0.6s-1.1,1.5-0.6,2.3s1.5,1.1,2.3,0.6C80,117,80.2,116,79.8,115.2"/>
</g>
<g>
	<path class="st0" d="M79.3,115.5c-0.3-0.5-1-0.7-1.5-0.4c-0.5,0.3-0.7,1-0.4,1.5c0.3,0.5,1,0.7,1.5,0.4
		C79.4,116.7,79.6,116,79.3,115.5"/>
</g>
<g>
	<path class="st2" d="M77.7,115c0.3-0.2,0.4-0.4,0.4-0.7c-0.2,0-0.4,0.1-0.6,0.2s-0.4,0.3-0.5,0.5C77.2,115.2,77.5,115.2,77.7,115"
		/>
</g>
<g>
	<path class="st2" d="M78.9,117c-0.3,0.2-0.4,0.4-0.4,0.7c0.2,0,0.4-0.1,0.6-0.2s0.4-0.3,0.5-0.5C79.5,116.9,79.2,116.9,78.9,117"/>
</g>
<g>
	<path class="st2" d="M79.3,114.7c-0.1,0.2-0.2,0.5,0,0.8s0.4,0.4,0.7,0.4c0-0.2-0.1-0.4-0.2-0.6C79.7,115,79.5,114.8,79.3,114.7"/>
</g>
<g>
	<path class="st2" d="M77.3,116.6c-0.2-0.3-0.4-0.4-0.7-0.4c0,0.2,0.1,0.4,0.2,0.6s0.3,0.4,0.5,0.5
		C77.5,117.2,77.5,116.9,77.3,116.6"/>
</g>
<g>
	<path class="st5" d="M86,119.7c-2-0.5-3.2-2.6-2.7-4.6s2.6-3.2,4.6-2.7s3.2,2.6,2.7,4.6C90.1,119,88,120.2,86,119.7"/>
</g>
<g>
	<path class="st2" d="M87,114.5c-0.7,0-1.3,0.5-1.5,1.2c-0.2,0.8,0.3,1.7,1.1,1.9c0.1,0,0.3,0.1,0.4,0.1c0.7,0,1.3-0.5,1.5-1.2
		c0.2-0.8-0.3-1.7-1.1-1.9C87.2,114.5,87.1,114.5,87,114.5 M87,118.6c-0.2,0-0.4,0-0.7-0.1c-1.4-0.4-2.2-1.8-1.8-3.2
		c0.3-1.2,1.4-1.9,2.5-1.9c0.2,0,0.4,0,0.7,0.1c1.4,0.4,2.2,1.8,1.8,3.2C89.2,117.9,88.1,118.6,87,118.6L87,118.6z"/>
</g>
<g>
	<path class="st0" d="M86.4,118.2c-1.2-0.3-1.9-1.5-1.5-2.7c0.3-1.2,1.5-1.9,2.7-1.5c1.2,0.3,1.9,1.5,1.5,2.7
		C88.8,117.8,87.6,118.5,86.4,118.2 M87.3,114.8c-0.7-0.2-1.4,0.2-1.6,0.9c-0.2,0.7,0.2,1.4,0.9,1.6c0.7,0.2,1.4-0.2,1.6-0.9
		S88,115,87.3,114.8z"/>
</g>
<g>
	<path class="st5" d="M88.6,116.5c0.2-0.9-0.3-1.8-1.2-2.1c-0.9-0.2-1.8,0.3-2.1,1.2c-0.2,0.9,0.3,1.8,1.2,2.1
		C87.4,117.9,88.3,117.4,88.6,116.5"/>
</g>
<g>
	<path class="st0" d="M88,116.3c0.2-0.6-0.2-1.2-0.8-1.4c-0.6-0.2-1.2,0.2-1.4,0.8c-0.2,0.6,0.2,1.2,0.8,1.4
		C87.3,117.3,87.9,116.9,88,116.3"/>
</g>
<g>
	<path class="st2" d="M87.3,114.9c0.3,0.1,0.6,0,0.7-0.2c-0.2-0.1-0.4-0.2-0.6-0.3c-0.2-0.1-0.5-0.1-0.7,0
		C86.7,114.6,87,114.8,87.3,114.9"/>
</g>
<g>
	<path class="st2" d="M86.7,117.2c-0.3-0.1-0.6,0-0.7,0.2c0.2,0.1,0.4,0.2,0.6,0.3c0.2,0.1,0.5,0.1,0.7,0
		C87.2,117.5,87,117.2,86.7,117.2"/>
</g>
<g>
	<path class="st2" d="M88.6,115.8c-0.2,0-0.5,0.2-0.5,0.5c-0.1,0.3,0,0.6,0.2,0.7c0.1-0.2,0.2-0.4,0.3-0.6
		C88.6,116.2,88.7,116,88.6,115.8"/>
</g>
<g>
	<path class="st2" d="M85.8,115.7c0.1-0.3,0-0.6-0.2-0.7c-0.1,0.2-0.2,0.4-0.3,0.6c-0.1,0.2-0.1,0.5,0,0.7
		C85.5,116.3,85.8,116,85.8,115.7"/>
</g>
<g>
	<polygon class="st2" points="67,111.9 119.2,111.9 123,108.8 67,108.8 	"/>
</g>
<g>
	<path class="st0" d="M66.6,113.4L66.6,113.4v-2.1l0,0c-0.3,0-0.5,0.2-0.5,0.5v1.1C66.1,113.1,66.4,113.4,66.6,113.4"/>
</g>
<g>
	<path class="st0" d="M64.4,108.7L64.4,108.7v-1.2l0,0c-0.3,0-0.5,0.2-0.5,0.5v0.2C63.9,108.5,64.2,108.7,64.4,108.7"/>
</g>
<g>
	<path class="st0" d="M143.1,91c0-0.2-0.2-0.3-0.3-0.3c-0.2,0-0.3,0.2-0.3,0.3v0.3h0.7L143.1,91L143.1,91z"/>
</g>
<g>
	<path class="st0" d="M143.1,91.1h-0.7c-0.1,0.1-0.2,0.3-0.2,0.5v0.6h1.2v-0.6C143.3,91.4,143.2,91.2,143.1,91.1"/>
</g>
<g>
	<path class="st0" d="M66.1,91c0-0.2-0.2-0.3-0.3-0.3s-0.3,0.2-0.3,0.3v0.3h0.7L66.1,91L66.1,91z"/>
</g>
<g>
	<path class="st0" d="M66.1,91.1h-0.7c-0.1,0.1-0.2,0.3-0.2,0.5v0.6h1.2v-0.6C66.3,91.4,66.2,91.2,66.1,91.1"/>
</g>
<g>
	<rect x="66.6" y="110.5" class="st2" width="0.7" height="3.2"/>
</g>
<g>
	<path class="st2" d="M143.4,91.4H64.5v19.2h80.3V92.8C144.7,92,144.1,91.4,143.4,91.4"/>
</g>
<g>
	<rect x="139.3" y="91.9" class="st5" width="0.5" height="16.7"/>
</g>
<g>
	<rect x="134.4" y="91.9" class="st5" width="0.5" height="16.7"/>
</g>
<g>
	<rect x="129.4" y="91.9" class="st5" width="0.5" height="16.7"/>
</g>
<g>
	<rect x="124.4" y="91.9" class="st5" width="0.5" height="16.7"/>
</g>
<g>
	<rect x="119.5" y="91.9" class="st5" width="0.5" height="16.7"/>
</g>
<g>
	<rect x="114.5" y="91.9" class="st5" width="0.5" height="16.7"/>
</g>
<g>
	<rect x="109.6" y="91.9" class="st5" width="0.5" height="16.7"/>
</g>
<g>
	<rect x="104.6" y="91.9" class="st5" width="0.5" height="16.7"/>
</g>
<g>
	<rect x="99.6" y="91.9" class="st5" width="0.5" height="16.7"/>
</g>
<g>
	<rect x="94.7" y="91.9" class="st5" width="0.5" height="16.7"/>
</g>
<g>
	<rect x="89.7" y="91.9" class="st5" width="0.5" height="16.7"/>
</g>
<g>
	<rect x="84.8" y="91.9" class="st5" width="0.5" height="16.7"/>
</g>
<g>
	<rect x="79.8" y="91.9" class="st5" width="0.5" height="16.7"/>
</g>
<g>
	<rect x="74.8" y="91.9" class="st5" width="0.5" height="16.7"/>
</g>
<g>
	<rect x="69.9" y="91.9" class="st5" width="0.5" height="16.7"/>
</g>
<g>
	<path class="st5" d="M143.4,91.9c0.5,0,0.9,0.4,0.9,0.9v15.8h-79V91.9H143.4z M143.4,91.4H64.5v19.2h80.3V92.8
		C144.7,92,144.1,91.4,143.4,91.4z"/>
</g>
<g>
	<path class="st0" d="M118.5,114.5v1.6c0,0.4-0.3,0.6-0.6,0.6c-0.4,0-0.6-0.3-0.6-0.6v-1.6H118.5z"/>
</g>
<g>
	<path class="st0" d="M118.2,116.2c0-0.1-0.1-0.3-0.3-0.3c-0.1,0-0.3,0.1-0.3,0.3c0,0.1,0.1,0.3,0.3,0.3
		C118,116.4,118.2,116.3,118.2,116.2"/>
</g>
<g>
	<rect x="117.3" y="110.6" class="st0" width="1.3" height="4.9"/>
</g>
<g>
	<rect x="103.5" y="110.6" class="st0" width="0.9" height="4.9"/>
</g>
<g>
	<rect x="103.5" y="110.6" class="st0" width="0.9" height="0.8"/>
</g>
<g>
	<rect x="103.5" y="113" class="st0" width="0.9" height="0.6"/>
</g>
<g>
	<rect x="114.6" y="110.6" class="st0" width="0.9" height="4.9"/>
</g>
<g>
	<rect x="114.6" y="110.6" class="st0" width="0.9" height="0.8"/>
</g>
<g>
	<rect x="114.6" y="113" class="st0" width="0.9" height="0.6"/>
</g>
<g>
	<path class="st0" d="M73.9,116.4v-0.3c0-1.5,0.8-2.9,2.1-3.7c0.6-0.4,1.4-0.6,2.1-0.6c0,0,17.2,0,17.3,0c1.9,0,3.6,1.3,4.1,3.1
		c0.1,0.4,0.1,0.7,0.1,1.1v0.3h0.5V116c0-0.4-0.1-0.8-0.2-1.2c-0.6-2.1-2.4-3.5-4.6-3.5H78c-0.8,0-1.7,0.2-2.4,0.6
		c-1.5,0.8-2.4,2.4-2.4,4.1v0.3L73.9,116.4L73.9,116.4z"/>
</g>
<g>
	<path class="st0" d="M116.9,113.2v2.2h-14.7v-2.2H116.9z M117.9,112.2h-16.8v4.2h16.8C117.9,116.4,117.9,112.2,117.9,112.2z"/>
</g>
<g>
	<rect x="26.2" y="65.5" class="st4" width="6" height="5.9"/>
</g>
<g>
	<rect x="34.9" y="65.5" class="st4" width="6" height="5.9"/>
</g>
<g>
	<rect x="43.5" y="65.5" class="st4" width="6" height="5.9"/>
</g>
<g>
	<rect y="1.5" class="st13" width="8.7" height="20.3"/>
</g>
<g>
	<path class="st14" d="M19.7,3.1c-0.5,0-0.9,0.2-1.2,0.6s-0.4,0.9-0.4,1.6c0,1.4,0.5,2.1,1.6,2.1c0.5,0,1-0.1,1.6-0.3v1.1
		c-0.5,0.2-1.1,0.3-1.8,0.3c-0.9,0-1.6-0.3-2.1-0.9s-0.7-1.4-0.7-2.4c0-0.7,0.1-1.3,0.4-1.8c0.2-0.5,0.6-0.9,1-1.2
		c0.5-0.3,1-0.4,1.6-0.4c0.6,0,1.3,0.2,1.9,0.5l-0.4,1.1c-0.2-0.1-0.5-0.2-0.7-0.3S19.9,3.1,19.7,3.1z"/>
	<path class="st14" d="M27.9,8.5h-1.5l-2.3-3.3v3.3h-1.4V2.1h1.4v3.1l2.3-3.1h1.4l-2.3,3.1L27.9,8.5z"/>
	<path class="st14" d="M33.8,8.5h-1.4V3.2h-1.6v0.6c-0.2,1.5-0.3,2.5-0.5,3.2S30,8,29.7,8.3s-0.6,0.4-1.1,0.4c-0.2,0-0.5,0-0.7-0.1
		V7.4c0.2,0.1,0.3,0.1,0.5,0.1s0.3-0.1,0.4-0.2s0.2-0.4,0.3-0.8s0.2-1,0.3-1.9s0.2-1.7,0.3-2.5h4.1V8.5z"/>
	<path class="st14" d="M39.4,8.5L38.9,7h-2.3l-0.5,1.5h-1.5L36.9,2h1.7l2.2,6.5H39.4z M38.6,5.8c-0.4-1.4-0.7-2.2-0.7-2.4
		c-0.1-0.1-0.1-0.2-0.2-0.3c-0.1,0.4-0.4,1.3-0.8,2.8L38.6,5.8L38.6,5.8z"/>
	<path class="st14" d="M40.9,7.4h0.5c0.4-0.8,0.8-1.7,1-2.5c0.2-0.9,0.4-1.8,0.5-2.8h3.7v5.3h0.9v3h-1.3V8.5h-4v1.9h-1.3
		C40.9,10.4,40.9,7.4,40.9,7.4z M44,3.2c-0.1,0.7-0.3,1.4-0.5,2.1c-0.2,0.8-0.5,1.4-0.7,2h2.5V3.2H44z"/>
	<path class="st14" d="M54.9,2.1v1.1h-2.7v5.3h-1.4V2.1H54.9z"/>
	<path class="st14" d="M61.7,5.3c0,1.1-0.3,1.9-0.8,2.5s-1.3,0.9-2.3,0.9s-1.7-0.3-2.3-0.9c-0.5-0.6-0.8-1.4-0.8-2.5
		s0.3-1.9,0.8-2.4C56.9,2.3,57.7,2,58.7,2s1.7,0.3,2.3,0.9C61.5,3.4,61.7,4.2,61.7,5.3z M57,5.3c0,0.7,0.1,1.3,0.4,1.6
		s0.7,0.5,1.2,0.5c1.1,0,1.6-0.7,1.6-2.2c0-1.4-0.5-2.2-1.6-2.2c-0.5,0-1,0.2-1.2,0.5C57.2,4,57,4.6,57,5.3z"/>
	<path class="st14" d="M65.5,8.5h-1.4V3.2h-1.7V2.1h4.8v1.1h-1.7C65.5,3.2,65.5,8.5,65.5,8.5z"/>
	<path class="st14" d="M74.1,5.3c0,1.1-0.3,1.9-0.8,2.5S72,8.7,71,8.7s-1.7-0.3-2.3-0.9s-0.8-1.4-0.8-2.5s0.3-1.9,0.8-2.4
		S70.1,2,71.1,2s1.7,0.3,2.3,0.9C73.8,3.4,74.1,4.2,74.1,5.3z M69.4,5.3c0,0.7,0.1,1.3,0.4,1.6s0.7,0.5,1.2,0.5
		c1.1,0,1.6-0.7,1.6-2.2C72.6,3.8,72.1,3,71,3c-0.5,0-1,0.2-1.2,0.5C69.5,4,69.4,4.6,69.4,5.3z"/>
	<path class="st14" d="M75.4,2.1h2c0.9,0,1.6,0.1,2,0.4S80,3.2,80,3.7c0,0.4-0.1,0.7-0.3,0.9C79.5,4.8,79.3,5,79,5l0,0
		c0.4,0.1,0.7,0.3,0.9,0.5c0.2,0.2,0.3,0.6,0.3,1c0,0.6-0.2,1-0.6,1.4c-0.4,0.3-1,0.5-1.7,0.5h-2.4V2.1H75.4z M76.8,4.6h0.8
		c0.4,0,0.6-0.1,0.8-0.2c0.2-0.1,0.2-0.3,0.2-0.6c0-0.2-0.1-0.4-0.3-0.5c-0.2-0.1-0.5-0.2-0.9-0.2h-0.6V4.6z M76.8,5.7v1.7h0.9
		c0.4,0,0.7-0.1,0.8-0.2c0.2-0.2,0.3-0.4,0.3-0.7c0-0.5-0.4-0.8-1.1-0.8H76.8z"/>
	<path class="st14" d="M87.3,5.3c0,1.1-0.3,1.9-0.8,2.5s-1.3,0.9-2.3,0.9s-1.7-0.3-2.3-0.9s-0.8-1.4-0.8-2.5s0.3-1.9,0.8-2.4
		S83.3,2,84.3,2s1.7,0.3,2.3,0.9C87,3.4,87.3,4.2,87.3,5.3z M82.6,5.3c0,0.7,0.1,1.3,0.4,1.6s0.7,0.5,1.2,0.5c1.1,0,1.6-0.7,1.6-2.2
		c0-1.4-0.5-2.2-1.6-2.2c-0.5,0-1,0.2-1.2,0.5C82.8,4,82.6,4.6,82.6,5.3z"/>
	<path class="st14" d="M88.6,2.1h1.2v3.1V6v1l0,0l3-4.9h1.6v6.4h-1.2V5.4c0-0.4,0-1,0.1-1.8l0,0l-3,4.9h-1.6L88.6,2.1L88.6,2.1z
		 M93.7,0c-0.1,0.5-0.3,0.9-0.6,1.2c-0.4,0.3-0.9,0.4-1.5,0.4c-0.7,0-1.2-0.1-1.5-0.4C89.6,1,89.4,0.6,89.4,0h1.2
		c0,0.3,0.1,0.5,0.2,0.6s0.4,0.2,0.7,0.2c0.3,0,0.5-0.1,0.7-0.2s0.2-0.3,0.3-0.6H93.7z"/>
	<path class="st14" d="M22,21.5h-1.4v-5.3h-2.4v5.3h-1.4v-6.4h5.1L22,21.5L22,21.5z"/>
	<path class="st14" d="M28.1,17.1c0,0.7-0.2,1.2-0.6,1.6s-1,0.5-1.8,0.5h-0.6v2.3h-1.4v-6.4h2.1c0.8,0,1.4,0.2,1.8,0.5
		C27.9,15.9,28.1,16.4,28.1,17.1z M25,18.1h0.4c0.4,0,0.7-0.1,0.9-0.2s0.3-0.4,0.3-0.7c0-0.3-0.1-0.6-0.3-0.7s-0.4-0.2-0.8-0.2h-0.6
		L25,18.1L25,18.1z"/>
	<path class="st14" d="M35.1,18.3c0,1.1-0.3,1.9-0.8,2.5S33,21.7,32,21.7s-1.7-0.3-2.3-0.9s-0.8-1.4-0.8-2.5s0.3-1.9,0.8-2.4
		s1.3-0.8,2.3-0.8s1.7,0.3,2.3,0.9C34.9,16.4,35.1,17.2,35.1,18.3z M30.5,18.3c0,0.7,0.1,1.3,0.4,1.6s0.7,0.5,1.2,0.5
		c1.1,0,1.6-0.7,1.6-2.2c0-1.4-0.5-2.2-1.6-2.2c-0.5,0-1,0.2-1.2,0.5C30.6,17,30.5,17.6,30.5,18.3z"/>
	<path class="st14" d="M35.7,20.4h0.5c0.4-0.8,0.8-1.7,1-2.5s0.4-1.8,0.5-2.7h3.7v5.3h0.9v3H41v-1.9h-4v1.9h-1.3
		C35.7,23.5,35.7,20.4,35.7,20.4z M38.8,16.2c-0.1,0.7-0.3,1.4-0.5,2.1c-0.2,0.8-0.5,1.4-0.7,2h2.5v-4.2L38.8,16.2L38.8,16.2z"/>
	<path class="st14" d="M48.4,15.1l-2,4.5c-0.2,0.6-0.5,1-0.7,1.2s-0.5,0.4-0.8,0.6c-0.3,0.1-0.7,0.2-1.1,0.2c-0.4,0-0.7,0-1-0.1
		v-1.2c0.3,0.1,0.6,0.2,1,0.2c0.2,0,0.4-0.1,0.6-0.2c0.1-0.1,0.3-0.3,0.4-0.6l-2.2-4.6H44l1.6,3.6l0,0l0.1-0.2l1.3-3.4H48.4z"/>
	<path class="st14" d="M54.5,21.5H53l-2.3-3.3v3.3h-1.4v-6.4h1.4v3.1l2.3-3.1h1.4l-2.3,3.1L54.5,21.5z"/>
	<path class="st14" d="M60.3,20.4h1v3H60v-1.9h-4.7v-6.4h1.4v5.3h2.4v-5.3h1.4v5.3H60.3z"/>
	<path class="st14" d="M62.3,15.1h1.2v3.1V19v0.9l0,0l3-4.9h1.6v6.4h-1.2v-3.1c0-0.4,0-1,0.1-1.8l0,0l-3,4.9h-1.6L62.3,15.1
		L62.3,15.1z"/>
	<path class="st14" d="M69.7,15.1h1.2v3.1V19v0.9l0,0l3-4.9h1.6v6.4h-1.2v-3.1c0-0.4,0-1,0.1-1.8l0,0l-3,4.9h-1.6L69.7,15.1
		L69.7,15.1z"/>
</g>
</svg>
