<svg width="162" height="179" viewBox="0 0 162 179" fill="none" xmlns="http://www.w3.org/2000/svg">
<g clip-path="url(#clip0)">
<path d="M89.5 44.7H80.9V46.0999H89.5V44.7Z" fill="#382E86"/>
<path d="M71 59.5H69.6V179.2H71V59.5Z" fill="#A6A5D1"/>
<path d="M92.3 59.5H90.9V179.2H92.3V59.5Z" fill="#A6A5D1"/>
<path d="M48.6 59.5H47.2V179.2H48.6V59.5Z" fill="#A6A5D1"/>
<path d="M113.6 59.5H112.2V179.2H113.6V59.5Z" fill="#A6A5D1"/>
<path d="M79.6 59.5H78.2V179.2H79.6V59.5Z" fill="#A6A5D1"/>
<path d="M100.9 59.5H99.5V179.2H100.9V59.5Z" fill="#A6A5D1"/>
<path d="M58.3 59.5H56.9V179.2H58.3V59.5Z" fill="#A6A5D1"/>
<path d="M123.3 59.5H121.9V179.2H123.3V59.5Z" fill="#A6A5D1"/>
<path d="M88.3 46.1H82.2V53.4H88.3V46.1Z" fill="#D7D5E8"/>
<path d="M89.5 50.7H80.9V179.2H89.5V50.7Z" fill="#A6A5D1"/>
<path d="M89.5 59.5H80.9V64.9H89.5V59.5Z" fill="#382E86"/>
<path d="M91.5 91.3H79V118.8H91.5V91.3Z" fill="#D7D5E8"/>
<path d="M91.5 91.3H79V105H91.5V91.3Z" fill="#5E519C"/>
<path d="M91.5 135.5H79V149H91.5V135.5Z" fill="#5E519C"/>
<path d="M89.5 52.7H80.9V54.0999H89.5V52.7Z" fill="#382E86"/>
<path d="M87.2 48.8H89.2H89.5V49.1V53.1C89.5 53.3 89.4 53.4001 89.2 53.4001C89 53.4001 88.9 53.3 88.9 53.1V49.3H87.4V53.1C87.4 53.3 87.3 53.4001 87.1 53.4001C86.9 53.4001 86.8 53.3 86.8 53.1V49.3H85.3V53.1C85.3 53.3 85.2 53.4001 85 53.4001C84.8 53.4001 84.7 53.3 84.7 53.1V49.3H83.2V53.1C83.2 53.3 83.1 53.4001 82.9 53.4001C82.7 53.4001 82.6 53.3 82.6 53.1V49.3H81.1V53.1C81.1 53.3 81 53.4001 80.8 53.4001C80.6 53.4001 80.5 53.3 80.5 53.1V49.1V48.8H80.8H82.8H84.8H87.2Z" fill="#382E86"/>
<path d="M120.3 179.8H118.8V88.2C118.8 86.7 117.6 85.5 116.1 85.5H110.9V84H116.1C118.4 84 120.3 85.9 120.3 88.2V179.8Z" fill="#5E519C"/>
<path d="M51.6 179.8H50.1V88.2C50.1 85.9 52 84 54.3 84H59.5V85.5H54.3C52.8 85.5 51.6 86.7 51.6 88.2V179.8Z" fill="#5E519C"/>
<path d="M113.3 81.3H110.9V88.1H113.3V81.3Z" fill="#382E86"/>
<path d="M59.6 81.3H57.2V88.1H59.6V81.3Z" fill="#382E86"/>
<path d="M67 46.1H60.9V53.4H67V46.1Z" fill="#D7D5E8"/>
<path d="M68.2 50.7H59.6V179.2H68.2V50.7Z" fill="#A6A5D1"/>
<path d="M68.2 59.5H59.6V64.9H68.2V59.5Z" fill="#382E86"/>
<path d="M70.2 91.3H57.7V118.8H70.2V91.3Z" fill="#D7D5E8"/>
<path d="M70.2 91.3H57.7V105H70.2V91.3Z" fill="#5E519C"/>
<path d="M70.2 135.5H57.7V163H70.2V135.5Z" fill="#D7D5E8"/>
<path d="M70.2 135.5H57.7V149H70.2V135.5Z" fill="#5E519C"/>
<path d="M68.2 44.7H59.6V46.0999H68.2V44.7Z" fill="#382E86"/>
<path d="M68.2 52.7H59.6V54.0999H68.2V52.7Z" fill="#382E86"/>
<path d="M65.9 48.8H67.9H68.2V49.1V53.1C68.2 53.3 68.1 53.4001 67.9 53.4001C67.7 53.4001 67.6 53.3 67.6 53.1V49.3H66.1V53.1C66.1 53.3 66 53.4001 65.8 53.4001C65.6 53.4001 65.5 53.3 65.5 53.1V49.3H64V53.1C64 53.3 63.9 53.4001 63.7 53.4001C63.5 53.4001 63.4 53.3 63.4 53.1V49.3H61.9V53.1C61.9 53.3 61.8 53.4001 61.6 53.4001C61.4 53.4001 61.3 53.3 61.3 53.1V49.3H59.8V53.1C59.8 53.3 59.7 53.4001 59.5 53.4001C59.3 53.4001 59.2 53.3 59.2 53.1V49.1V48.8H59.5H61.5H63.5H65.9Z" fill="#382E86"/>
<path d="M109.6 46.1H103.5V53.4H109.6V46.1Z" fill="#D7D5E8"/>
<path d="M110.8 50.7H102.2V179.2H110.8V50.7Z" fill="#A6A5D1"/>
<path d="M110.8 59.5H102.2V64.9H110.8V59.5Z" fill="#382E86"/>
<path d="M112.8 91.3H100.3V118.8H112.8V91.3Z" fill="#D7D5E8"/>
<path d="M112.8 91.3H100.3V105H112.8V91.3Z" fill="#5E519C"/>
<path d="M112.8 135.5H100.3V163H112.8V135.5Z" fill="#D7D5E8"/>
<path d="M112.8 135.5H100.3V149H112.8V135.5Z" fill="#5E519C"/>
<path d="M110.8 44.7H102.2V46.0999H110.8V44.7Z" fill="#382E86"/>
<path d="M110.8 52.7H102.2V54.0999H110.8V52.7Z" fill="#382E86"/>
<path d="M108.5 48.8H110.5H110.8V49.1V53.1C110.8 53.3 110.7 53.4001 110.5 53.4001C110.3 53.4001 110.2 53.3 110.2 53.1V49.3H108.8V53.1C108.8 53.3 108.7 53.4001 108.5 53.4001C108.3 53.4001 108.2 53.3 108.2 53.1V49.3H106.8V53.1C106.8 53.3 106.7 53.4001 106.5 53.4001C106.3 53.4001 106.2 53.3 106.2 53.1V49.3H104.8V53.1C104.8 53.3 104.7 53.4001 104.5 53.4001C104.3 53.4001 104.2 53.3 104.2 53.1V49.3H102.8V53.1C102.8 53.3 102.7 53.4001 102.5 53.4001C102.3 53.4001 102.2 53.3 102.2 53.1V49.1V48.8H102.5H104.5H106.5H108.5Z" fill="#382E86"/>
<path d="M115.9 118.3H115.3V109.7H97.8V118.3H97.2V109.2H115.9V118.3Z" fill="#382E86"/>
<path d="M115.4 118.2L106.5 109.8L97.6 118.2L97.2 117.8L106.3 109.3C106.4 109.2 106.6 109.2 106.7 109.3L115.8 117.8L115.4 118.2Z" fill="#382E86"/>
<path d="M115.9 127.1H115.3V118.5H97.8V127.1H97.2V118H115.9V127.1Z" fill="#382E86"/>
<path d="M115.4 127L106.5 118.6L97.6 127L97.2 126.6L106.3 118.1C106.4 118 106.6 118 106.7 118.1L115.8 126.6L115.4 127Z" fill="#382E86"/>
<path d="M115.9 135.9H115.3V127.4H97.8V135.9H97.2V126.8H115.9V135.9Z" fill="#382E86"/>
<path d="M115.4 135.8L106.5 127.4L97.6 135.8L97.2 135.4L106.3 126.9C106.4 126.8 106.6 126.8 106.7 126.9L115.8 135.4L115.4 135.8Z" fill="#382E86"/>
<path d="M115.9 144.8H115.3V136.2H97.8V144.8H97.2V135.6H115.9V144.8Z" fill="#382E86"/>
<path d="M115.4 144.7L106.5 136.3L97.6 144.7L97.2 144.3L106.3 135.8C106.4 135.7 106.6 135.7 106.7 135.8L115.8 144.3L115.4 144.7Z" fill="#382E86"/>
<path d="M115.9 153.6H115.3V145H97.8V153.6H97.2V144.5H115.9V153.6Z" fill="#382E86"/>
<path d="M115.4 153.5L106.5 145.1L97.6 153.5L97.2 153.1L106.3 144.6C106.4 144.5 106.6 144.5 106.7 144.6L115.8 153.1L115.4 153.5Z" fill="#382E86"/>
<path d="M115.9 162.4H115.3V153.9H97.8V162.4H97.2V153.3H115.9V162.4Z" fill="#382E86"/>
<path d="M115.4 162.3L106.5 153.9L97.6 162.3L97.2 161.9L106.3 153.4C106.4 153.3 106.6 153.3 106.7 153.4L115.8 161.9L115.4 162.3Z" fill="#382E86"/>
<path d="M115.9 171.2H115.3V162.7H97.8V171.2H97.2V162.1H115.9V171.2Z" fill="#382E86"/>
<path d="M115.4 171.2L106.5 162.8L97.6 171.2L97.2 170.8L106.3 162.3C106.4 162.2 106.6 162.2 106.7 162.3L115.8 170.8L115.4 171.2Z" fill="#382E86"/>
<path d="M115.9 180.1H115.3V171.5H97.8V180.1H97.2V171H115.9V180.1Z" fill="#382E86"/>
<path d="M115.4 180L106.5 171.6L97.6 180L97.2 179.6L106.3 171.1C106.4 171 106.6 171 106.7 171.1L115.8 179.6L115.4 180Z" fill="#382E86"/>
<path d="M73.3 118.3H72.7V109.7H55.2V118.3H54.6V109.2H73.3V118.3Z" fill="#382E86"/>
<path d="M55.1 118.2L54.7 117.8L63.8 109.3C63.9 109.2 64.1 109.2 64.2 109.3L73.3 117.8L72.9 118.2L64 109.8L55.1 118.2Z" fill="#382E86"/>
<path d="M73.3 127.1H72.7V118.5H55.2V127.1H54.6V118H73.3V127.1Z" fill="#382E86"/>
<path d="M55.1 127L54.7 126.6L63.8 118.1C63.9 118 64.1 118 64.2 118.1L73.3 126.6L72.9 127L64 118.6L55.1 127Z" fill="#382E86"/>
<path d="M73.3 135.9H72.7V127.4H55.2V135.9H54.6V126.8H73.3V135.9Z" fill="#382E86"/>
<path d="M55.1 135.8L54.7 135.4L63.8 126.9C63.9 126.8 64.1 126.8 64.2 126.9L73.3 135.4L72.9 135.8L64 127.4L55.1 135.8Z" fill="#382E86"/>
<path d="M73.3 144.8H72.7V136.2H55.2V144.8H54.6V135.6H73.3V144.8Z" fill="#382E86"/>
<path d="M55.1 144.7L54.7 144.3L63.8 135.8C63.9 135.7 64.1 135.7 64.2 135.8L73.3 144.3L72.9 144.7L64 136.3L55.1 144.7Z" fill="#382E86"/>
<path d="M73.3 153.6H72.7V145H55.2V153.6H54.6V144.5H73.3V153.6Z" fill="#382E86"/>
<path d="M55.1 153.5L54.7 153.1L63.8 144.6C63.9 144.5 64.1 144.5 64.2 144.6L73.3 153.1L72.9 153.5L64 145.1L55.1 153.5Z" fill="#382E86"/>
<path d="M73.3 162.4H72.7V153.9H55.2V162.4H54.6V153.3H73.3V162.4Z" fill="#382E86"/>
<path d="M55.1 162.3L54.7 161.9L63.8 153.4C63.9 153.3 64.1 153.3 64.2 153.4L73.3 161.9L72.9 162.3L64 153.9L55.1 162.3Z" fill="#382E86"/>
<path d="M73.3 171.2H72.7V162.7H55.2V171.2H54.6V162.1H73.3V171.2Z" fill="#382E86"/>
<path d="M55.1 171.2L54.7 170.8L63.8 162.3C63.9 162.2 64.1 162.2 64.2 162.3L73.3 170.8L72.9 171.2L64 162.8L55.1 171.2Z" fill="#382E86"/>
<path d="M73.3 180.1H72.7V171.5H55.2V180.1H54.6V171H73.3V180.1Z" fill="#382E86"/>
<path d="M55.1 180L54.7 179.6L63.8 171.1C63.9 171 64.1 171 64.2 171.1L73.3 179.6L72.9 180L64 171.6L55.1 180Z" fill="#382E86"/>
<path d="M124.9 118.3H124.4V109.7H106.8V118.3H106.3V109.2H124.9V118.3Z" fill="#A6A5D1"/>
<path d="M106.7 118.2L106.3 117.8L115.4 109.3C115.5 109.2 115.7 109.2 115.8 109.3L124.9 117.8L124.5 118.2L115.6 109.8L106.7 118.2Z" fill="#A6A5D1"/>
<path d="M124.9 127.1H124.4V118.5H106.8V127.1H106.3V118H124.9V127.1Z" fill="#A6A5D1"/>
<path d="M106.7 127L106.3 126.6L115.4 118.1C115.5 118 115.7 118 115.8 118.1L124.9 126.6L124.5 127L115.6 118.6L106.7 127Z" fill="#A6A5D1"/>
<path d="M124.9 135.9H124.4V127.4H106.8V135.9H106.3V126.8H124.9V135.9Z" fill="#A6A5D1"/>
<path d="M106.7 135.8L106.3 135.4L115.4 126.9C115.5 126.8 115.7 126.8 115.8 126.9L124.9 135.4L124.5 135.8L115.6 127.4L106.7 135.8Z" fill="#A6A5D1"/>
<path d="M124.9 144.8H124.4V136.2H106.8V144.8H106.3V135.6H124.9V144.8Z" fill="#A6A5D1"/>
<path d="M106.7 144.7L106.3 144.3L115.4 135.8C115.5 135.7 115.7 135.7 115.8 135.8L124.9 144.3L124.5 144.7L115.6 136.3L106.7 144.7Z" fill="#A6A5D1"/>
<path d="M124.9 153.6H124.4V145H106.8V153.6H106.3V144.5H124.9V153.6Z" fill="#A6A5D1"/>
<path d="M106.7 153.5L106.3 153.1L115.4 144.6C115.5 144.5 115.7 144.5 115.8 144.6L124.9 153.1L124.5 153.5L115.6 145.1L106.7 153.5Z" fill="#A6A5D1"/>
<path d="M124.9 162.4H124.4V153.9H106.8V162.4H106.3V153.3H124.9V162.4Z" fill="#A6A5D1"/>
<path d="M106.7 162.3L106.3 161.9L115.4 153.4C115.5 153.3 115.7 153.3 115.8 153.4L124.9 161.9L124.5 162.3L115.6 153.9L106.7 162.3Z" fill="#A6A5D1"/>
<path d="M124.9 171.2H124.4V162.7H106.8V171.2H106.3V162.1H124.9V171.2Z" fill="#A6A5D1"/>
<path d="M106.7 171.2L106.3 170.8L115.4 162.3C115.5 162.2 115.7 162.2 115.8 162.3L124.9 170.8L124.5 171.2L115.6 162.8L106.7 171.2Z" fill="#A6A5D1"/>
<path d="M124.9 180.1H124.4V171.5H106.8V180.1H106.3V171H124.9V180.1Z" fill="#A6A5D1"/>
<path d="M106.7 180L106.3 179.6L115.4 171.1C115.5 171 115.7 171 115.8 171.1L124.9 179.6L124.5 180L115.6 171.6L106.7 180Z" fill="#A6A5D1"/>
<path d="M64.2 118.3H63.6V109.7H46.1V118.3H45.5V109.2H64.2V118.3Z" fill="#A6A5D1"/>
<path d="M63.7 118.2L54.8 109.8L45.9 118.2L45.5 117.8L54.6 109.3C54.7 109.2 54.9 109.2 55 109.3L64.1 117.8L63.7 118.2Z" fill="#A6A5D1"/>
<path d="M64.2 127.1H63.6V118.5H46.1V127.1H45.5V118H64.2V127.1Z" fill="#A6A5D1"/>
<path d="M63.7 127L54.8 118.6L45.9 127L45.5 126.6L54.6 118.1C54.7 118 54.9 118 55 118.1L64.1 126.6L63.7 127Z" fill="#A6A5D1"/>
<path d="M64.2 135.9H63.6V127.4H46.1V135.9H45.5V126.8H64.2V135.9Z" fill="#A6A5D1"/>
<path d="M63.7 135.8L54.8 127.4L45.9 135.8L45.5 135.4L54.6 126.9C54.7 126.8 54.9 126.8 55 126.9L64.1 135.4L63.7 135.8Z" fill="#A6A5D1"/>
<path d="M64.2 144.8H63.6V136.2H46.1V144.8H45.5V135.6H64.2V144.8Z" fill="#A6A5D1"/>
<path d="M63.7 144.7L54.8 136.3L45.9 144.7L45.5 144.3L54.6 135.8C54.7 135.7 54.9 135.7 55 135.8L64.1 144.3L63.7 144.7Z" fill="#A6A5D1"/>
<path d="M64.2 153.6H63.6V145H46.1V153.6H45.5V144.5H64.2V153.6Z" fill="#A6A5D1"/>
<path d="M63.7 153.5L54.8 145.1L45.9 153.5L45.5 153.1L54.6 144.6C54.7 144.5 54.9 144.5 55 144.6L64.1 153.1L63.7 153.5Z" fill="#A6A5D1"/>
<path d="M64.2 162.4H63.6V153.9H46.1V162.4H45.5V153.3H64.2V162.4Z" fill="#A6A5D1"/>
<path d="M63.7 162.3L54.8 153.9L45.9 162.3L45.5 161.9L54.6 153.4C54.7 153.3 54.9 153.3 55 153.4L64.1 161.9L63.7 162.3Z" fill="#A6A5D1"/>
<path d="M64.2 171.2H63.6V162.7H46.1V171.2H45.5V162.1H64.2V171.2Z" fill="#A6A5D1"/>
<path d="M63.7 171.2L54.8 162.8L45.9 171.2L45.5 170.8L54.6 162.3C54.7 162.2 54.9 162.2 55 162.3L64.1 170.8L63.7 171.2Z" fill="#A6A5D1"/>
<path d="M64.2 180.1H63.6V171.5H46.1V180.1H45.5V171H64.2V180.1Z" fill="#A6A5D1"/>
<path d="M63.7 180L54.8 171.6L45.9 180L45.5 179.6L54.6 171.1C54.7 171 54.9 171 55 171.1L64.1 179.6L63.7 180Z" fill="#A6A5D1"/>
<path d="M28.4 74.3H27.8V65.2H37.2V65.7H28.4V74.3Z" fill="#A6A5D1"/>
<path d="M37.0119 65.3025L27.9194 73.88L28.3311 74.3164L37.4236 65.7389L37.0119 65.3025Z" fill="#A6A5D1"/>
<path d="M28.4 83.1H27.8V74H37.2V74.6H28.4V83.1Z" fill="#A6A5D1"/>
<path d="M37.0171 74.0916L27.9246 82.6691L28.3363 83.1055L37.4288 74.528L37.0171 74.0916Z" fill="#A6A5D1"/>
<path d="M28.4 92H27.8V82.8H37.2V83.4H28.4V92Z" fill="#A6A5D1"/>
<path d="M37.022 82.8811L27.9295 91.4586L28.3412 91.8951L37.4337 83.3176L37.022 82.8811Z" fill="#A6A5D1"/>
<path d="M28.4 100.8H27.8V91.7H37.2V92.2H28.4V100.8Z" fill="#A6A5D1"/>
<path d="M37.0103 91.8062L27.9178 100.384L28.3295 100.82L37.422 92.2426L37.0103 91.8062Z" fill="#A6A5D1"/>
<path d="M28.4 109.6H27.8V100.5H37.2V101.1H28.4V109.6Z" fill="#A6A5D1"/>
<path d="M37.0154 100.595L27.9229 109.173L28.3346 109.609L37.4271 101.032L37.0154 100.595Z" fill="#A6A5D1"/>
<path d="M28.4 118.4H27.8V109.3H37.2V109.9H28.4V118.4Z" fill="#A6A5D1"/>
<path d="M37.0205 109.385L27.928 117.962L28.3397 118.398L37.4322 109.821L37.0205 109.385Z" fill="#A6A5D1"/>
<path d="M28.4 127.3H27.8V118.2H37.2V118.7H28.4V127.3Z" fill="#A6A5D1"/>
<path d="M36.9567 118.101L27.8642 126.679L28.2759 127.115L37.3684 118.538L36.9567 118.101Z" fill="#A6A5D1"/>
<path d="M28.4 136.1H27.8V127H37.2V127.6H28.4V136.1Z" fill="#A6A5D1"/>
<path d="M37.0137 127.099L27.9212 135.676L28.3329 136.113L37.4254 127.535L37.0137 127.099Z" fill="#A6A5D1"/>
<path d="M37.5 74.3H36.9V65.7H28.1V65.2H37.5V74.3Z" fill="#A6A5D1"/>
<path d="M28.3424 65.1704L27.9305 65.6067L37.0205 74.1867L37.4324 73.7504L28.3424 65.1704Z" fill="#A6A5D1"/>
<path d="M37.5 83.1H36.9V74.6H28.1V74H37.5V83.1Z" fill="#A6A5D1"/>
<path d="M28.3487 73.9577L27.9369 74.394L37.0269 82.974L37.4387 82.5377L28.3487 73.9577Z" fill="#A6A5D1"/>
<path d="M37.5 92H36.9V83.4H28.1V82.8H37.5V92Z" fill="#A6A5D1"/>
<path d="M28.3625 82.8147L27.9507 83.251L37.0407 91.831L37.4525 91.3947L28.3625 82.8147Z" fill="#A6A5D1"/>
<path d="M37.5 100.8H36.9V92.2H28.1V91.7H37.5V100.8Z" fill="#A6A5D1"/>
<path d="M28.3401 91.6727L27.9282 92.109L37.0182 100.689L37.4301 100.253L28.3401 91.6727Z" fill="#A6A5D1"/>
<path d="M37.5 109.6H36.9V101.1H28.1V100.5H37.5V109.6Z" fill="#A6A5D1"/>
<path d="M28.3459 100.46L27.934 100.897L37.024 109.477L37.4359 109.04L28.3459 100.46Z" fill="#A6A5D1"/>
<path d="M37.5 118.4H36.9V109.9H28.1V109.3H37.5V118.4Z" fill="#A6A5D1"/>
<path d="M28.3635 109.328L27.9516 109.765L37.0416 118.346L37.4535 117.909L28.3635 109.328Z" fill="#A6A5D1"/>
<path d="M37.5 127.3H36.9V118.7H28.1V118.2H37.5V127.3Z" fill="#A6A5D1"/>
<path d="M28.339 118.179L27.9271 118.615L37.0171 127.195L37.429 126.759L28.339 118.179Z" fill="#A6A5D1"/>
<path d="M37.5 136.1H36.9V127.6H28.1V127H37.5V136.1Z" fill="#A6A5D1"/>
<path d="M28.344 126.963L27.9321 127.399L37.0221 135.979L37.434 135.543L28.344 126.963Z" fill="#A6A5D1"/>
<path d="M28.4 144.9H27.8V135.8H37.2V136.4H28.4V144.9Z" fill="#A6A5D1"/>
<path d="M37.0186 135.888L27.9261 144.466L28.3378 144.902L37.4303 136.325L37.0186 135.888Z" fill="#A6A5D1"/>
<path d="M28.4 153.8H27.8V144.7H37.2V145.2H28.4V153.8Z" fill="#A6A5D1"/>
<path d="M36.9552 144.605L27.8627 153.182L28.2744 153.619L37.3669 145.041L36.9552 144.605Z" fill="#A6A5D1"/>
<path d="M28.4 162.6H27.8V153.5H37.2V154H28.4V162.6Z" fill="#A6A5D1"/>
<path d="M37.0118 153.603L27.9193 162.181L28.331 162.617L37.4235 154.04L37.0118 153.603Z" fill="#A6A5D1"/>
<path d="M28.4 171.4H27.8V162.3H37.2V162.9H28.4V171.4Z" fill="#A6A5D1"/>
<path d="M37.0171 162.392L27.9246 170.969L28.3363 171.406L37.4288 162.828L37.0171 162.392Z" fill="#A6A5D1"/>
<path d="M28.4 180.3H27.8V171.1H37.2V171.7H28.4V180.3Z" fill="#A6A5D1"/>
<path d="M37.0221 171.181L27.9296 179.759L28.3414 180.195L37.4339 171.618L37.0221 171.181Z" fill="#A6A5D1"/>
<path d="M37.5 144.9H36.9V136.4H28.1V135.8H37.5V144.9Z" fill="#A6A5D1"/>
<path d="M28.3594 135.822L27.9476 136.259L37.0376 144.839L37.4494 144.402L28.3594 135.822Z" fill="#A6A5D1"/>
<path d="M37.5 153.8H36.9V145.2H28.1V144.7H37.5V153.8Z" fill="#A6A5D1"/>
<path d="M28.4126 144.766L28.0007 145.202L37.0907 153.783L37.5026 153.347L28.4126 144.766Z" fill="#A6A5D1"/>
<path d="M37.5 162.6H36.9V154H28.1V153.5H37.5V162.6Z" fill="#A6A5D1"/>
<path d="M28.3424 153.469L27.9306 153.905L37.0206 162.485L37.4324 162.049L28.3424 153.469Z" fill="#A6A5D1"/>
<path d="M37.5 171.4H36.9V162.9H28.1V162.3H37.5V171.4Z" fill="#A6A5D1"/>
<path d="M28.347 162.251L27.9352 162.688L37.0252 171.268L37.437 170.831L28.347 162.251Z" fill="#A6A5D1"/>
<path d="M37.5 180.3H36.9V171.7H28.1V171.1H37.5V180.3Z" fill="#A6A5D1"/>
<path d="M28.3629 171.112L27.9511 171.549L37.0411 180.129L37.4529 179.692L28.3629 171.112Z" fill="#A6A5D1"/>
<path d="M133.6 74.3H133V65.2H142.3V65.7H133.6V74.3Z" fill="#A6A5D1"/>
<path d="M142.226 65.3089L133.133 73.8864L133.545 74.3228L142.638 65.7453L142.226 65.3089Z" fill="#A6A5D1"/>
<path d="M133.6 83.1H133V74H142.3V74.6H133.6V83.1Z" fill="#A6A5D1"/>
<path d="M142.162 74.0252L133.07 82.6027L133.482 83.0391L142.574 74.4616L142.162 74.0252Z" fill="#A6A5D1"/>
<path d="M133.6 92H133V82.8H142.3V83.4H133.6V92Z" fill="#A6A5D1"/>
<path d="M142.167 82.8147L133.075 91.3922L133.487 91.8287L142.579 83.2512L142.167 82.8147Z" fill="#A6A5D1"/>
<path d="M133.6 100.8H133V91.7H142.3V92.2H133.6V100.8Z" fill="#A6A5D1"/>
<path d="M142.224 91.8124L133.132 100.39L133.543 100.826L142.636 92.2488L142.224 91.8124Z" fill="#A6A5D1"/>
<path d="M133.6 109.6H133V100.5H142.3V101.1H133.6V109.6Z" fill="#A6A5D1"/>
<path d="M142.229 100.602L133.137 109.179L133.548 109.616L142.641 101.038L142.229 100.602Z" fill="#A6A5D1"/>
<path d="M133.6 118.4H133V109.3H142.3V109.9H133.6V118.4Z" fill="#A6A5D1"/>
<path d="M142.166 109.318L133.073 117.896L133.485 118.332L142.577 109.755L142.166 109.318Z" fill="#A6A5D1"/>
<path d="M133.6 127.3H133V118.2H142.3V118.7H133.6V127.3Z" fill="#A6A5D1"/>
<path d="M142.171 118.108L133.078 126.685L133.49 127.121L142.582 118.544L142.171 118.108Z" fill="#A6A5D1"/>
<path d="M133.6 136.1H133V127H142.3V127.6H133.6V136.1Z" fill="#A6A5D1"/>
<path d="M142.228 127.105L133.135 135.683L133.547 136.119L142.639 127.542L142.228 127.105Z" fill="#A6A5D1"/>
<path d="M142.6 74.3H142.1V65.7H133.3V65.2H142.6V74.3Z" fill="#A6A5D1"/>
<path d="M133.483 65.2281L133.071 65.6644L142.161 74.2444L142.573 73.8081L133.483 65.2281Z" fill="#A6A5D1"/>
<path d="M142.6 83.1H142.1V74.6H133.3V74H142.6V83.1Z" fill="#A6A5D1"/>
<path d="M133.42 73.9467L133.008 74.3831L142.098 82.9631L142.51 82.5267L133.42 73.9467Z" fill="#A6A5D1"/>
<path d="M142.6 92H142.1V83.4H133.3V82.8H142.6V92Z" fill="#A6A5D1"/>
<path d="M133.476 82.9469L133.064 83.3832L142.154 91.9632L142.566 91.5269L133.476 82.9469Z" fill="#A6A5D1"/>
<path d="M142.6 100.8H142.1V92.2H133.3V91.7H142.6V100.8Z" fill="#A6A5D1"/>
<path d="M133.479 91.7307L133.067 92.167L142.157 100.747L142.569 100.311L133.479 91.7307Z" fill="#A6A5D1"/>
<path d="M142.6 109.6H142.1V101.1H133.3V100.5H142.6V109.6Z" fill="#A6A5D1"/>
<path d="M133.487 100.518L133.075 100.954L142.165 109.534L142.577 109.098L133.487 100.518Z" fill="#A6A5D1"/>
<path d="M142.6 118.4H142.1V109.9H133.3V109.3H142.6V118.4Z" fill="#A6A5D1"/>
<path d="M133.557 109.347L133.145 109.784L142.235 118.365L142.647 117.929L133.557 109.347Z" fill="#A6A5D1"/>
<path d="M142.6 127.3H142.1V118.7H133.3V118.2H142.6V127.3Z" fill="#A6A5D1"/>
<path d="M133.48 118.237L133.068 118.673L142.158 127.253L142.57 126.817L133.48 118.237Z" fill="#A6A5D1"/>
<path d="M142.6 136.1H142.1V127.6H133.3V127H142.6V136.1Z" fill="#A6A5D1"/>
<path d="M133.484 127.021L133.072 127.457L142.162 136.037L142.574 135.601L133.484 127.021Z" fill="#A6A5D1"/>
<path d="M133.6 144.9H133V135.8H142.3V136.4H133.6V144.9Z" fill="#A6A5D1"/>
<path d="M142.164 135.822L133.072 144.4L133.483 144.836L142.576 136.258L142.164 135.822Z" fill="#A6A5D1"/>
<path d="M133.6 153.8H133V144.7H142.3V145.2H133.6V153.8Z" fill="#A6A5D1"/>
<path d="M142.169 144.611L133.077 153.188L133.488 153.625L142.581 145.047L142.169 144.611Z" fill="#A6A5D1"/>
<path d="M133.6 162.6H133V153.5H142.3V154H133.6V162.6Z" fill="#A6A5D1"/>
<path d="M142.226 153.61L133.133 162.187L133.545 162.624L142.637 154.046L142.226 153.61Z" fill="#A6A5D1"/>
<path d="M133.6 171.4H133V162.3H142.3V162.9H133.6V171.4Z" fill="#A6A5D1"/>
<path d="M142.162 162.325L133.07 170.903L133.482 171.339L142.574 162.762L142.162 162.325Z" fill="#A6A5D1"/>
<path d="M133.6 180.3H133V171.1H142.3V171.7H133.6V180.3Z" fill="#A6A5D1"/>
<path d="M142.168 171.115L133.075 179.692L133.487 180.129L142.579 171.551L142.168 171.115Z" fill="#A6A5D1"/>
<path d="M142.6 144.9H142.1V136.4H133.3V135.8H142.6V144.9Z" fill="#A6A5D1"/>
<path d="M133.543 135.841L133.132 136.277L142.222 144.857L142.633 144.421L133.543 135.841Z" fill="#A6A5D1"/>
<path d="M142.6 153.8H142.1V145.2H133.3V144.7H142.6V153.8Z" fill="#A6A5D1"/>
<path d="M133.491 144.756L133.079 145.192L142.169 153.773L142.581 153.337L133.491 144.756Z" fill="#A6A5D1"/>
<path d="M142.6 162.6H142.1V154H133.3V153.5H142.6V162.6Z" fill="#A6A5D1"/>
<path d="M133.483 153.527L133.071 153.963L142.161 162.543L142.573 162.107L133.483 153.527Z" fill="#A6A5D1"/>
<path d="M142.6 171.4H142.1V162.9H133.3V162.3H142.6V171.4Z" fill="#A6A5D1"/>
<path d="M133.486 162.309L133.074 162.745L142.164 171.325L142.576 170.889L133.486 162.309Z" fill="#A6A5D1"/>
<path d="M142.6 180.3H142.1V171.7H133.3V171.1H142.6V180.3Z" fill="#A6A5D1"/>
<path d="M133.477 171.244L133.065 171.681L142.155 180.261L142.567 179.824L133.477 171.244Z" fill="#A6A5D1"/>
<path d="M92 113.8H91.3V77.9C91.3 77.1 91 76.4 90.5 75.9C90 75.4 89.3 75.1 88.5 75.1C86.9 75.1 85.7 76.4 85.7 77.9V88.2H85V77.9C85 75.9 86.6 74.4 88.5 74.4C89.4 74.4 90.3 74.8 91 75.4C91.7 76.1 92 77 92 77.9V113.8Z" fill="#5E519C"/>
<path d="M79.2 113.8H78.5V77.9C78.5 77 78.9 76.1 79.5 75.4C80.2 74.7 81.1 74.4 82 74.4C83.9 74.4 85.5 76 85.5 77.9V88.2H84.8V77.9C84.8 76.3 83.5 75.1 82 75.1C81.2 75.1 80.5 75.4 80 75.9C79.5 76.4 79.2 77.1 79.2 77.9V113.8Z" fill="#5E519C"/>
<path d="M98.3 95.6H72.1V154.7H98.3V95.6Z" fill="#382E86"/>
<path d="M44.6 46.1H38.5V53.4H44.6V46.1Z" fill="#D7D5E8"/>
<path d="M45.8 50.7H37.2V179.2H45.8V50.7Z" fill="#A6A5D1"/>
<path d="M45.8 59.5H37.2V64.9H45.8V59.5Z" fill="#382E86"/>
<path d="M47.7 91.3H35.2V118.8H47.7V91.3Z" fill="#D7D5E8"/>
<path d="M47.7 91.3H35.2V105H47.7V91.3Z" fill="#5E519C"/>
<path d="M47.7 135.5H35.2V163H47.7V135.5Z" fill="#D7D5E8"/>
<path d="M47.7 135.5H35.2V149H47.7V135.5Z" fill="#5E519C"/>
<path d="M45.8 44.7H37.2V46.0999H45.8V44.7Z" fill="#382E86"/>
<path d="M45.8 52.7H37.2V54.0999H45.8V52.7Z" fill="#382E86"/>
<path d="M43.5 48.8H45.5H45.8V49.1V53.1C45.8 53.3 45.7 53.4001 45.5 53.4001C45.3 53.4001 45.2 53.3 45.2 53.1V49.3H43.8V53.1C43.8 53.3 43.7 53.4001 43.5 53.4001C43.3 53.4001 43.2 53.3 43.2 53.1V49.3H41.8V53.1C41.8 53.3 41.7 53.4001 41.5 53.4001C41.3 53.4001 41.2 53.3 41.2 53.1V49.3H39.8V53.1C39.8 53.3 39.7 53.4001 39.5 53.4001C39.3 53.4001 39.2 53.3 39.2 53.1V49.3H37.7V53.1C37.7 53.3 37.6 53.4001 37.4 53.4001C37.2 53.4001 37.1 53.3 37.1 53.1V49.1V48.8H37.4H39.4H41.4H43.5Z" fill="#382E86"/>
<path d="M132 46.1H125.9V53.4H132V46.1Z" fill="#D7D5E8"/>
<path d="M133.2 50.7H124.6V179.2H133.2V50.7Z" fill="#A6A5D1"/>
<path d="M133.2 59.5H124.6V64.9H133.2V59.5Z" fill="#382E86"/>
<path d="M135.2 91.3H122.7V118.8H135.2V91.3Z" fill="#D7D5E8"/>
<path d="M135.2 91.3H122.7V105H135.2V91.3Z" fill="#5E519C"/>
<path d="M135.2 135.5H122.7V163H135.2V135.5Z" fill="#D7D5E8"/>
<path d="M135.2 135.5H122.7V149H135.2V135.5Z" fill="#5E519C"/>
<path d="M133.2 44.7H124.6V46.0999H133.2V44.7Z" fill="#382E86"/>
<path d="M133.2 52.7H124.6V54.0999H133.2V52.7Z" fill="#382E86"/>
<path d="M131 48.8H133H133.3V49.1V53.1C133.3 53.3 133.2 53.4001 133 53.4001C132.8 53.4001 132.7 53.3 132.7 53.1V49.3H131.2V53.1C131.2 53.3 131.1 53.4001 130.9 53.4001C130.7 53.4001 130.6 53.3 130.6 53.1V49.3H129.1V53.1C129.1 53.3 129 53.4001 128.8 53.4001C128.6 53.4001 128.5 53.3 128.5 53.1V49.3H127V53.1C127 53.3 126.9 53.4001 126.7 53.4001C126.5 53.4001 126.4 53.3 126.4 53.1V49.3H124.9V53.1C124.9 53.3 124.8 53.4001 124.6 53.4001C124.4 53.4001 124.3 53.3 124.3 53.1V49.1V48.8H124.6H126.6H128.6H131Z" fill="#382E86"/>
<path d="M85.2 172.4H44.9C42.6 172.4 40.7 170.5 40.7 168.2V163H42.2V168.2C42.2 169.7 43.4 170.9 44.9 170.9H85.2V172.4V172.4Z" fill="#5E519C"/>
<path d="M125.5 172.4H85.2V170.9H125.5C127 170.9 128.2 169.7 128.2 168.2V163H129.7V168.2C129.7 170.5 127.8 172.4 125.5 172.4Z" fill="#5E519C"/>
<path d="M28.1 147.6H16.1V179.8H28.1V147.6Z" fill="#A6A5D1"/>
<path d="M154.3 147.6H142.3V179.8H154.3V147.6Z" fill="#A6A5D1"/>
<path d="M19.4 175.4C19.3 175.4 19.2 175.3 19.2 175.2V140.8C19.2 140.7 19.3 140.6 19.4 140.6C19.5 140.6 19.6 140.7 19.6 140.8V175.2C19.6 175.3 19.5 175.4 19.4 175.4Z" fill="#5E519C"/>
<path d="M22.1 175.4C22 175.4 21.9 175.3 21.9 175.2V140.8C21.9 140.7 22 140.6 22.1 140.6C22.2 140.6 22.3 140.7 22.3 140.8V175.2C22.4 175.3 22.3 175.4 22.1 175.4Z" fill="#5E519C"/>
<path d="M24.9 175.4C24.8 175.4 24.7 175.3 24.7 175.2V140.8C24.7 140.7 24.8 140.6 24.9 140.6C25 140.6 25.1 140.7 25.1 140.8V175.2C25.1 175.3 25 175.4 24.9 175.4Z" fill="#5E519C"/>
<path d="M145.6 175.4C145.5 175.4 145.4 175.3 145.4 175.2V140.8C145.4 140.7 145.5 140.6 145.6 140.6C145.7 140.6 145.8 140.7 145.8 140.8V175.2C145.8 175.3 145.7 175.4 145.6 175.4Z" fill="#5E519C"/>
<path d="M148.3 175.4C148.2 175.4 148.1 175.3 148.1 175.2V140.8C148.1 140.7 148.2 140.6 148.3 140.6C148.4 140.6 148.5 140.7 148.5 140.8V175.2C148.6 175.3 148.5 175.4 148.3 175.4Z" fill="#5E519C"/>
<path d="M151.1 175.4C151 175.4 150.9 175.3 150.9 175.2V140.8C150.9 140.7 151 140.6 151.1 140.6C151.2 140.6 151.3 140.7 151.3 140.8V175.2C151.3 175.3 151.2 175.4 151.1 175.4Z" fill="#5E519C"/>
<path fill-rule="evenodd" clip-rule="evenodd" d="M72.1 154.7H98.3C85.1 167.9 85.3 167.9 72.1 154.7Z" fill="#5E519C"/>
<path d="M85.9 179.2H84.5V124.9C84.5 123.6 83.4 122.5 82.1 122.5H72.4C70.3 122.5 68.6 120.8 68.6 118.7V90.7C68.6 89.8 69 88.9 69.6 88.2C70.3 87.5 71.2 87.2 72.1 87.2C74 87.2 75.6 88.8 75.6 90.7V95.2H74.2V90.7C74.2 89.5 73.3 88.6 72.1 88.6C71.5 88.6 71 88.8 70.6 89.2C70.2 89.6 70 90.1 70 90.7V118.8C70 120.1 71.1 121.2 72.4 121.2H82.1C84.2 121.2 85.9 122.9 85.9 125V179.2Z" fill="#A6A5D1"/>
<path d="M85.9 172.4H84.5V125C84.5 122.9 86.2 121.2 88.3 121.2H98C99.3 121.2 100.4 120.1 100.4 118.8V90.7C100.4 90.1 100.2 89.6 99.8 89.2C99.4 88.8 98.9 88.6 98.3 88.6C97.1 88.6 96.2 89.5 96.2 90.7V95.2H94.8V90.7C94.8 88.8 96.4 87.2 98.3 87.2C99.2 87.2 100.1 87.6 100.8 88.2C101.5 88.8 101.8 89.8 101.8 90.7V118.8C101.8 120.9 100.1 122.6 98 122.6H88.3C87 122.6 85.9 123.7 85.9 125V172.4Z" fill="#A6A5D1"/>
<path fill-rule="evenodd" clip-rule="evenodd" d="M72.1 95.6H98.3L85.2 89.7L72.1 95.6Z" fill="#5E519C"/>
<path d="M88.6 88.2H82.1V91.3H88.6V88.2Z" fill="#382E86"/>
<path d="M80.9 108.7H72.2V110.1H80.9V108.7Z" fill="#A6A5D1"/>
<path d="M78.5 104.8H80.5H80.8V105.1V109.2C80.8 109.4 80.7 109.5 80.5 109.5C80.3 109.5 80.2 109.4 80.2 109.2V105.4H78.8V109.2C78.8 109.4 78.7 109.5 78.5 109.5C78.3 109.5 78.2 109.4 78.2 109.2V105.4H76.8V109.2C76.8 109.4 76.7 109.5 76.5 109.5C76.3 109.5 76.2 109.4 76.2 109.2V105.4H74.8V109.2C74.8 109.4 74.7 109.5 74.5 109.5C74.3 109.5 74.2 109.4 74.2 109.2V105.4H72.7V109.2C72.7 109.4 72.6 109.5 72.4 109.5C72.2 109.5 72.1 109.4 72.1 109.2V105.1V104.8H72.4H74.4H76.4H78.5Z" fill="#A6A5D1"/>
<path d="M89.6 108.7H80.9V110.1H89.6V108.7Z" fill="#A6A5D1"/>
<path d="M87.3 104.8H89.3H89.6V105.1V109.2C89.6 109.4 89.5 109.5 89.3 109.5C89.1 109.5 89 109.4 89 109.2V105.4H87.5V109.2C87.5 109.4 87.4 109.5 87.2 109.5C87 109.5 86.9 109.4 86.9 109.2V105.4H85.4V109.2C85.4 109.4 85.3 109.5 85.1 109.5C84.9 109.5 84.8 109.4 84.8 109.2V105.4H83.3V109.2C83.3 109.4 83.2 109.5 83 109.5C82.8 109.5 82.7 109.4 82.7 109.2V105.4H81.2V109.2C81.2 109.4 81.1 109.5 80.9 109.5C80.7 109.5 80.6 109.4 80.6 109.2V105.1V104.8H80.9H82.9H84.9H87.3Z" fill="#A6A5D1"/>
<path d="M98.3 108.7H89.6V110.1H98.3V108.7Z" fill="#A6A5D1"/>
<path d="M96 104.8H98H98.3V105.1V109.2C98.3 109.4 98.2 109.5 98 109.5C97.8 109.5 97.7 109.4 97.7 109.2V105.4H96.2V109.2C96.2 109.4 96.1 109.5 95.9 109.5C95.7 109.5 95.6 109.4 95.6 109.2V105.4H94.1V109.2C94.1 109.4 94 109.5 93.8 109.5C93.6 109.5 93.5 109.4 93.5 109.2V105.4H92V109.2C92 109.4 91.9 109.5 91.7 109.5C91.5 109.5 91.4 109.4 91.4 109.2V105.4H89.9V109.2C89.9 109.4 89.8 109.5 89.6 109.5C89.4 109.5 89.3 109.4 89.3 109.2V105.1V104.8H89.6H91.6H93.6H96Z" fill="#A6A5D1"/>
<path d="M8.7 12.9H0V33.2H8.7V12.9Z" fill="#E1171D"/>
<path d="M17.7622 17.6226V20H16.6504V13.6016H19.0981C19.813 13.6016 20.3799 13.7876 20.7988 14.1597C21.2207 14.5317 21.4316 15.0239 21.4316 15.6362C21.4316 16.2632 21.2251 16.751 20.812 17.0996C20.4019 17.4482 19.8262 17.6226 19.085 17.6226H17.7622ZM17.7622 16.7305H19.0981C19.4937 16.7305 19.7954 16.6382 20.0034 16.4536C20.2114 16.2661 20.3154 15.9966 20.3154 15.645C20.3154 15.2993 20.21 15.0239 19.999 14.8188C19.7881 14.6108 19.498 14.5039 19.1289 14.498H17.7622V16.7305ZM24.7583 17.5347H23.519V20H22.4072V13.6016H24.6572C25.3955 13.6016 25.9653 13.7671 26.3667 14.0981C26.7681 14.4292 26.9688 14.9082 26.9688 15.5352C26.9688 15.9629 26.8647 16.3218 26.6567 16.6118C26.4517 16.8989 26.1646 17.1201 25.7954 17.2754L27.2324 19.9429V20H26.0415L24.7583 17.5347ZM23.519 16.6426H24.6616C25.0366 16.6426 25.3296 16.5488 25.5405 16.3613C25.7515 16.1709 25.8569 15.9116 25.8569 15.5835C25.8569 15.2407 25.7588 14.9756 25.5625 14.7881C25.3691 14.6006 25.0791 14.5039 24.6924 14.498H23.519V16.6426ZM33.1299 16.9678C33.1299 17.5947 33.0215 18.1455 32.8047 18.6201C32.5879 19.0918 32.2773 19.4551 31.873 19.71C31.4717 19.9619 31.0088 20.0879 30.4844 20.0879C29.9658 20.0879 29.5029 19.9619 29.0957 19.71C28.6914 19.4551 28.3779 19.0933 28.1553 18.6245C27.9355 18.1558 27.8242 17.6152 27.8213 17.0029V16.6426C27.8213 16.0186 27.9312 15.4678 28.1509 14.9902C28.3735 14.5127 28.6855 14.1479 29.0869 13.896C29.4912 13.6411 29.9541 13.5137 30.4756 13.5137C30.9971 13.5137 31.4585 13.6396 31.8599 13.8916C32.2642 14.1406 32.5762 14.501 32.7959 14.9727C33.0156 15.4414 33.127 15.9878 33.1299 16.6118V16.9678ZM32.0181 16.6338C32.0181 15.9248 31.8833 15.3813 31.6138 15.0034C31.3472 14.6255 30.9678 14.4365 30.4756 14.4365C29.9951 14.4365 29.6187 14.6255 29.3462 15.0034C29.0767 15.3784 28.939 15.9102 28.9331 16.5986V16.9678C28.9331 17.6709 29.0693 18.2144 29.3418 18.5981C29.6172 18.9819 29.998 19.1738 30.4844 19.1738C30.9766 19.1738 31.3545 18.9863 31.6182 18.6113C31.8848 18.2363 32.0181 17.6885 32.0181 16.9678V16.6338ZM35.3491 17.6226V20H34.2373V13.6016H36.6851C37.3999 13.6016 37.9668 13.7876 38.3857 14.1597C38.8076 14.5317 39.0186 15.0239 39.0186 15.6362C39.0186 16.2632 38.812 16.751 38.3989 17.0996C37.9888 17.4482 37.4131 17.6226 36.6719 17.6226H35.3491ZM35.3491 16.7305H36.6851C37.0806 16.7305 37.3823 16.6382 37.5903 16.4536C37.7983 16.2661 37.9023 15.9966 37.9023 15.645C37.9023 15.2993 37.7969 15.0239 37.5859 14.8188C37.375 14.6108 37.085 14.5039 36.7158 14.498H35.3491V16.7305ZM42.0815 16.6338L43.5537 13.6016H44.7842L42.6396 17.6445V20H41.5234V17.6445L39.3745 13.6016H40.6094L42.0815 16.6338ZM46.5903 19.1123H49.4951V20H45.4785V13.6016H46.5903V19.1123ZM54.0874 17.1436H51.4595V19.1123H54.5312V20H50.3477V13.6016H54.5005V14.498H51.4595V16.2646H54.0874V17.1436ZM60.5122 20H59.4004L56.5483 15.4604V20H55.4365V13.6016H56.5483L59.4092 18.1587V13.6016H60.5122V20ZM65.5659 17.1436H62.938V19.1123H66.0098V20H61.8262V13.6016H65.979V14.498H62.938V16.2646H65.5659V17.1436ZM70.2681 17.6226V20H69.1562V13.6016H71.604C72.3188 13.6016 72.8857 13.7876 73.3047 14.1597C73.7266 14.5317 73.9375 15.0239 73.9375 15.6362C73.9375 16.2632 73.731 16.751 73.3179 17.0996C72.9077 17.4482 72.332 17.6226 71.5908 17.6226H70.2681ZM70.2681 16.7305H71.604C71.9995 16.7305 72.3013 16.6382 72.5093 16.4536C72.7173 16.2661 72.8213 15.9966 72.8213 15.645C72.8213 15.2993 72.7158 15.0239 72.5049 14.8188C72.2939 14.6108 72.0039 14.5039 71.6348 14.498H70.2681V16.7305ZM80.0195 16.9678C80.0195 17.5947 79.9111 18.1455 79.6943 18.6201C79.4775 19.0918 79.167 19.4551 78.7627 19.71C78.3613 19.9619 77.8984 20.0879 77.374 20.0879C76.8555 20.0879 76.3926 19.9619 75.9854 19.71C75.5811 19.4551 75.2676 19.0933 75.0449 18.6245C74.8252 18.1558 74.7139 17.6152 74.7109 17.0029V16.6426C74.7109 16.0186 74.8208 15.4678 75.0405 14.9902C75.2632 14.5127 75.5752 14.1479 75.9766 13.896C76.3809 13.6411 76.8438 13.5137 77.3652 13.5137C77.8867 13.5137 78.3481 13.6396 78.7495 13.8916C79.1538 14.1406 79.4658 14.501 79.6855 14.9727C79.9053 15.4414 80.0166 15.9878 80.0195 16.6118V16.9678ZM78.9077 16.6338C78.9077 15.9248 78.7729 15.3813 78.5034 15.0034C78.2368 14.6255 77.8574 14.4365 77.3652 14.4365C76.8848 14.4365 76.5083 14.6255 76.2358 15.0034C75.9663 15.3784 75.8286 15.9102 75.8228 16.5986V16.9678C75.8228 17.6709 75.959 18.2144 76.2314 18.5981C76.5068 18.9819 76.8877 19.1738 77.374 19.1738C77.8662 19.1738 78.2441 18.9863 78.5078 18.6113C78.7744 18.2363 78.9077 17.6885 78.9077 16.9678V16.6338ZM82.2388 19.1123H85.1436V20H81.127V13.6016H82.2388V19.1123ZM86.853 16.6338L88.3252 13.6016H89.5557L87.4111 17.6445V20H86.2949V17.6445L84.146 13.6016H85.3809L86.853 16.6338ZM91.6914 13.6016L93.5371 18.5059L95.3784 13.6016H96.8154V20H95.708V17.8906L95.8179 15.0693L93.9282 20H93.1328L91.2476 15.0737L91.3574 17.8906V20H90.25V13.6016H91.6914ZM101.874 17.1436H99.2456V19.1123H102.317V20H98.1338V13.6016H102.287V14.498H99.2456V16.2646H101.874V17.1436ZM105.574 17.5347H104.334V20H103.223V13.6016H105.473C106.211 13.6016 106.781 13.7671 107.182 14.0981C107.583 14.4292 107.784 14.9082 107.784 15.5352C107.784 15.9629 107.68 16.3218 107.472 16.6118C107.267 16.8989 106.98 17.1201 106.611 17.2754L108.048 19.9429V20H106.857L105.574 17.5347ZM104.334 16.6426H105.477C105.852 16.6426 106.145 16.5488 106.356 16.3613C106.567 16.1709 106.672 15.9116 106.672 15.5835C106.672 15.2407 106.574 14.9756 106.378 14.7881C106.185 14.6006 105.895 14.5039 105.508 14.498H104.334V16.6426ZM110.012 20H108.905V13.6016H110.012V20ZM112.425 19.1123H115.844V20H111.08V19.2793L114.389 14.498H111.102V13.6016H115.738V14.3047L112.425 19.1123ZM120.445 18.5103H117.966L117.448 20H116.292L118.709 13.6016H119.707L122.128 20H120.968L120.445 18.5103ZM118.278 17.6138H120.133L119.206 14.9595L118.278 17.6138ZM126.953 14.498H124.958V20H123.855V14.498H121.877V13.6016H126.953V14.498ZM128.97 20H127.863V13.6016H128.97V20ZM135.443 16.9678C135.443 17.5947 135.335 18.1455 135.118 18.6201C134.901 19.0918 134.591 19.4551 134.187 19.71C133.785 19.9619 133.322 20.0879 132.798 20.0879C132.279 20.0879 131.816 19.9619 131.409 19.71C131.005 19.4551 130.691 19.0933 130.469 18.6245C130.249 18.1558 130.138 17.6152 130.135 17.0029V16.6426C130.135 16.0186 130.245 15.4678 130.464 14.9902C130.687 14.5127 130.999 14.1479 131.4 13.896C131.805 13.6411 132.268 13.5137 132.789 13.5137C133.311 13.5137 133.772 13.6396 134.173 13.8916C134.578 14.1406 134.89 14.501 135.109 14.9727C135.329 15.4414 135.44 15.9878 135.443 16.6118V16.9678ZM134.332 16.6338C134.332 15.9248 134.197 15.3813 133.927 15.0034C133.661 14.6255 133.281 14.4365 132.789 14.4365C132.309 14.4365 131.932 14.6255 131.66 15.0034C131.39 15.3784 131.252 15.9102 131.247 16.5986V16.9678C131.247 17.6709 131.383 18.2144 131.655 18.5981C131.931 18.9819 132.312 19.1738 132.798 19.1738C133.29 19.1738 133.668 18.9863 133.932 18.6113C134.198 18.2363 134.332 17.6885 134.332 16.9678V16.6338ZM141.626 20H140.515L137.663 15.4604V20H136.551V13.6016H137.663L140.523 18.1587V13.6016H141.626V20ZM21.3306 24.6016V28.8774C21.3306 29.5571 21.1123 30.0962 20.6758 30.4946C20.2422 30.8901 19.6636 31.0879 18.9399 31.0879C18.2075 31.0879 17.626 30.8931 17.1953 30.5034C16.7646 30.1108 16.5493 29.5674 16.5493 28.873V24.6016H17.6567V28.8818C17.6567 29.3096 17.7651 29.6362 17.9819 29.8618C18.1987 30.0874 18.5181 30.2002 18.9399 30.2002C19.7954 30.2002 20.2231 29.749 20.2231 28.8467V24.6016H21.3306ZM27.5972 31H26.4854L23.6333 26.4604V31H22.5215V24.6016H23.6333L26.4941 29.1587V24.6016H27.5972V31ZM30.0845 31H28.9771V24.6016H30.0845V31ZM35.9424 25.498H33.9473V31H32.8442V25.498H30.8667V24.6016H35.9424V25.498Z" fill="#3D2777"/>
</g>
<defs>
<clipPath id="clip0">
<rect width="161.5" height="179" fill="white"/>
</clipPath>
</defs>
</svg>
