<svg width="165" height="120" viewBox="0 0 165 120" fill="none" xmlns="http://www.w3.org/2000/svg">
<g clip-path="url(#clip0)">
<path fill-rule="evenodd" clip-rule="evenodd" d="M84.6 35.1H79.2V39.5L84.6 44.2V35.1Z" fill="#006EFF"/>
<path d="M97.1 35.1H94.6V46H97.1V35.1Z" fill="#006EFF"/>
<path d="M98.8 46.8H75.9V48H98.8V46.8Z" fill="#006EFF"/>
<path d="M80 39.4H74.1V51.1H80V39.4Z" fill="#696C6D"/>
<path fill-rule="evenodd" clip-rule="evenodd" d="M95.2 32.2L114.1 47.5H35.1L16.1 32.2H95.2Z" fill="#00508C"/>
<path fill-rule="evenodd" clip-rule="evenodd" d="M88.5 48.4L70.4 33.7C70.2 33.6 70.2 33.3 70.3 33.1C70.4 32.9 70.7 32.9 70.9 33L89.1 47.7C89.3 47.8 89.3 48.1 89.2 48.3C89 48.5 88.7 48.5 88.5 48.4Z" fill="#006EFF"/>
<path fill-rule="evenodd" clip-rule="evenodd" d="M92.5 48.4L74.3 33.7C74.1 33.6 74.1 33.3 74.2 33.1C74.3 32.9 74.6 32.9 74.8 33L93 47.7C93.2 47.8 93.2 48.1 93.1 48.3C92.9 48.5 92.6 48.5 92.5 48.4Z" fill="#006EFF"/>
<path fill-rule="evenodd" clip-rule="evenodd" d="M96.4 48.4L78.2 33.7C78 33.6 78 33.3 78.1 33.1C78.2 32.9 78.5 32.9 78.7 33L96.9 47.7C97.1 47.8 97.1 48.1 97 48.3C96.8 48.5 96.6 48.5 96.4 48.4Z" fill="#006EFF"/>
<path fill-rule="evenodd" clip-rule="evenodd" d="M100.3 48.4L82.1 33.7C81.9 33.6 81.9 33.3 82 33.1C82.1 32.9 82.4 32.9 82.6 33L100.8 47.8C101 47.9 101 48.2 100.9 48.4C100.8 48.5 100.5 48.5 100.3 48.4Z" fill="#006EFF"/>
<path fill-rule="evenodd" clip-rule="evenodd" d="M104.3 48.4L86.1 33.7C85.9 33.6 85.9 33.3 86 33.1C86.1 32.9 86.4 32.9 86.6 33L104.8 47.8C105 47.9 105 48.2 104.9 48.4C104.7 48.5 104.4 48.5 104.3 48.4Z" fill="#006EFF"/>
<path fill-rule="evenodd" clip-rule="evenodd" d="M108.2 48.4L90 33.7C89.8 33.6 89.8 33.3 89.9 33.1C90 32.9 90.3 32.9 90.5 33L108.7 47.7C108.9 47.8 108.9 48.1 108.8 48.3C108.6 48.5 108.4 48.5 108.2 48.4Z" fill="#006EFF"/>
<path fill-rule="evenodd" clip-rule="evenodd" d="M112.1 48.4L93.9 33.7C93.7 33.6 93.7 33.3 93.8 33.1C93.9 32.9 94.2 32.9 94.4 33L112.6 47.7C112.8 47.8 112.8 48.1 112.7 48.3C112.6 48.5 112.3 48.5 112.1 48.4Z" fill="#006EFF"/>
<path fill-rule="evenodd" clip-rule="evenodd" d="M64.9 48.4L46.7 33.7C46.5 33.6 46.5 33.3 46.6 33.1C46.7 32.9 47 32.9 47.2 33L65.4 47.7C65.6 47.8 65.6 48.1 65.5 48.3C65.3 48.5 65.1 48.5 64.9 48.4Z" fill="#006EFF"/>
<path fill-rule="evenodd" clip-rule="evenodd" d="M64.9 45.2L50.6 33.7C50.4 33.6 50.4 33.3 50.5 33.1C50.6 32.9 50.9 32.9 51.1 33L65.3 44.5C65.5 44.6 65.5 44.9 65.4 45.1C65.3 45.3 65 45.3 64.9 45.2Z" fill="#006EFF"/>
<path fill-rule="evenodd" clip-rule="evenodd" d="M67.6 44.2L54.6 33.7C54.4 33.6 54.4 33.3 54.5 33.1C54.6 32.9 54.9 32.9 55.1 33L68.1 43.5C68.3 43.6 68.3 43.9 68.2 44.1C68 44.3 67.7 44.4 67.6 44.2Z" fill="#006EFF"/>
<path fill-rule="evenodd" clip-rule="evenodd" d="M69.4 42.5L58.5 33.7C58.3 33.6 58.3 33.3 58.4 33.1C58.5 32.9 58.8 32.9 59 33L69.9 41.8C70.1 41.9 70.1 42.2 70 42.4C69.8 42.6 69.5 42.6 69.4 42.5Z" fill="#006EFF"/>
<path fill-rule="evenodd" clip-rule="evenodd" d="M69.4 39.3L62.4 33.7C62.2 33.6 62.2 33.3 62.3 33.1C62.4 32.9 62.7 32.9 62.9 33L69.9 38.6C70.1 38.7 70.1 39 70 39.2C69.8 39.4 69.5 39.4 69.4 39.3Z" fill="#006EFF"/>
<path fill-rule="evenodd" clip-rule="evenodd" d="M70.5 37L66.3 33.6C66.1 33.5 66.1 33.2 66.2 33C66.3 32.8 66.6 32.8 66.8 32.9L71 36.3C71.2 36.4 71.2 36.7 71.1 36.9C70.9 37.1 70.7 37.2 70.5 37Z" fill="#3C494F"/>
<path fill-rule="evenodd" clip-rule="evenodd" d="M40.7 48.4L22.5 33.7C22.3 33.6 22.3 33.3 22.4 33.1C22.5 32.9 22.8 32.9 23 33L41.2 47.7C41.4 47.8 41.4 48.1 41.3 48.3C41.1 48.5 40.9 48.5 40.7 48.4Z" fill="#006EFF"/>
<path fill-rule="evenodd" clip-rule="evenodd" d="M40.7 45.2L26.5 33.7C26.3 33.6 26.3 33.3 26.4 33.1C26.5 32.9 26.8 32.9 27 33L41.2 44.5C41.4 44.6 41.4 44.9 41.3 45.1C41.1 45.3 40.9 45.3 40.7 45.2Z" fill="#006EFF"/>
<path fill-rule="evenodd" clip-rule="evenodd" d="M43.4 44.2L30.4 33.7C30.2 33.6 30.2 33.3 30.3 33.1C30.4 32.9 30.7 32.9 30.9 33L43.9 43.5C44.1 43.6 44.1 43.9 44 44.1C43.8 44.3 43.6 44.4 43.4 44.2Z" fill="#006EFF"/>
<path fill-rule="evenodd" clip-rule="evenodd" d="M45.2 42.5L34.3 33.7C34.1 33.6 34.1 33.3 34.2 33.1C34.3 32.9 34.6 32.9 34.8 33L45.7 41.8C45.9 41.9 45.9 42.2 45.8 42.4C45.6 42.6 45.4 42.6 45.2 42.5Z" fill="#006EFF"/>
<path fill-rule="evenodd" clip-rule="evenodd" d="M45.2 39.3L38.2 33.7C38 33.6 38 33.3 38.1 33.1C38.2 32.9 38.5 32.9 38.7 33L45.7 38.6C45.9 38.7 45.9 39 45.8 39.2C45.6 39.4 45.4 39.4 45.2 39.3Z" fill="#006EFF"/>
<path fill-rule="evenodd" clip-rule="evenodd" d="M46.3 37L42.1 33.6C41.9 33.5 41.9 33.2 42 33C42.1 32.8 42.4 32.8 42.6 32.9L46.8 36.3C47 36.4 47 36.7 46.9 36.9C46.7 37.1 46.5 37.2 46.3 37Z" fill="#006EFF"/>
<path d="M114.1 47.5H82.9V119.8H114.1V47.5Z" fill="#006EFF"/>
<path fill-rule="evenodd" clip-rule="evenodd" d="M67.1 32.2L86 47.5H82.9L63.9 32.2H67.1Z" fill="#00508C"/>
<path fill-rule="evenodd" clip-rule="evenodd" d="M43.2 32.2L62.1 47.5H59L40 32.2H43.2Z" fill="#00508C"/>
<path fill-rule="evenodd" clip-rule="evenodd" d="M19.3 32.2L38.2 47.5H35.1L16.1 32.2H19.3Z" fill="#00508C"/>
<path fill-rule="evenodd" clip-rule="evenodd" d="M63.9 32.2L59 47.5L40 32.2L35.1 47.5L16.1 32.2V121.5H82.9V47.5L63.9 32.2Z" fill="#006EFF"/>
<path d="M82.8 50.8H16.1V53.2001H82.8V50.8Z" fill="#8A86BB"/>
<path d="M114.1 50.8H82.9V53.2001H114.1V50.8Z" fill="#006EFF"/>
<path d="M108.9 77.5H88.2V119.8H108.9V77.5Z" fill="#8680B4"/>
<path d="M108.9 77.5H88.2V79.6H108.9V77.5Z" fill="#00508C"/>
<path fill-rule="evenodd" clip-rule="evenodd" d="M109 77.5L107.1 79.6V119.8H109V77.5Z" fill="#006EFF"/>
<path fill-rule="evenodd" clip-rule="evenodd" d="M101.9 111.6V112.3H88.2H88.1V111.6H85.7V112.3H72V111.6H69.7V113.2L70.4 113.8H103.5L104.3 113.2V111.6H101.9Z" fill="#00508C"/>
<path fill-rule="evenodd" clip-rule="evenodd" d="M99.2 111.7V114.1L97.7 115C97.5 115.1 97.5 115.3 97.6 115.5C97.7 115.7 97.9 115.7 98.1 115.6L100.5 114.2V111.7H99.2Z" fill="#00508C"/>
<path fill-rule="evenodd" clip-rule="evenodd" d="M90.5 111.7V114.1L89 115C88.8 115.1 88.8 115.3 88.9 115.5C89 115.7 89.2 115.7 89.4 115.6L91.8 114.2V111.7H90.5V111.7Z" fill="#00508C"/>
<path fill-rule="evenodd" clip-rule="evenodd" d="M81.9 111.7V114.1L80.4 115C80.2 115.1 80.2 115.3 80.3 115.5C80.4 115.7 80.6 115.7 80.8 115.6L83.2 114.2V111.7H81.9Z" fill="#00508C"/>
<path fill-rule="evenodd" clip-rule="evenodd" d="M137.4 112.2C137.4 111.9 137.2 111.7 136.9 111.7H132.4C132.1 111.7 131.9 111.9 131.9 112.2H137.4Z" fill="#00508C"/>
<path fill-rule="evenodd" clip-rule="evenodd" d="M130.6 110.6C130.4 110.7 130.2 110.9 130.2 111.1H137.4V110.7C137.4 110.4 137.2 110.2 136.9 110.2H133.1C133 110.2 131.2 110.5 130.6 110.6Z" fill="#00508C"/>
<path fill-rule="evenodd" clip-rule="evenodd" d="M133.1 111.1C133.1 111.4 133.3 111.6 133.6 111.6H135.2C135.5 111.6 135.7 111.4 135.7 111.1H133.1Z" fill="#00508C"/>
<path d="M124.5 113H122.8V113.8H124.5V113Z" fill="#00508C"/>
<path d="M150.2 112.2H125.5V116.6H150.2V112.2Z" fill="#00508C"/>
<path fill-rule="evenodd" clip-rule="evenodd" d="M162.8 113.9H158.2V113.1H163.5L162.8 113.9Z" fill="#00508C"/>
<path fill-rule="evenodd" clip-rule="evenodd" d="M158.8 116.3L154.4 116.5H150.1V113.1L148.9 112.1V110.8H158.8V116.3Z" fill="#00508C"/>
<path fill-rule="evenodd" clip-rule="evenodd" d="M143.1 112.2H134.1C133.5 112.2 133.1 112.7 133.1 113.2V116.4C133.1 117 133.6 117.4 134.1 117.4H143.1C143.7 117.4 144.1 116.9 144.1 116.4V113.2C144.1 112.6 143.7 112.2 143.1 112.2Z" fill="#006EFF"/>
<path d="M134.9 111.9H134.4V117.6H134.9V111.9Z" fill="#00508C"/>
<path d="M138.8 111.9H138.3V117.6H138.8V111.9Z" fill="#00508C"/>
<path d="M142.8 111.9H142.3V117.6H142.8V111.9Z" fill="#00508C"/>
<path fill-rule="evenodd" clip-rule="evenodd" d="M122.8 112.1V113.8C123.1 113.8 123.3 113.6 123.3 113.3V112.6C123.3 112.3 123.1 112.1 122.8 112.1Z" fill="#00508C"/>
<path fill-rule="evenodd" clip-rule="evenodd" d="M116.4 117.4H119.5C119.5 117 119.2 116.7 118.8 116.7H117.1C116.7 116.8 116.4 117.1 116.4 117.4Z" fill="#006EFF"/>
<path fill-rule="evenodd" clip-rule="evenodd" d="M156.3 119.3C154.5 120.3 152.2 119.7 151.2 117.9C150.2 116.1 150.8 113.8 152.6 112.8C154.4 111.8 156.7 112.4 157.7 114.2C158.7 115.9 158.1 118.3 156.3 119.3Z" fill="#00508C"/>
<path fill-rule="evenodd" clip-rule="evenodd" d="M154.4 114.1C154.1 114.1 153.7 114.2 153.4 114.4C152.5 114.9 152.1 116.1 152.7 117.1C153.1 117.7 153.7 118.1 154.4 118.1C154.7 118.1 155.1 118 155.4 117.8C156.3 117.3 156.7 116.1 156.1 115.1C155.8 114.4 155.1 114.1 154.4 114.1ZM154.4 119C153.4 119 152.4 118.5 151.9 117.5C151.1 116.1 151.6 114.3 153 113.5C153.5 113.2 154 113.1 154.5 113.1C155.5 113.1 156.5 113.6 157 114.6C157.8 116 157.3 117.8 155.9 118.6C155.4 118.8 154.9 119 154.4 119Z" fill="#00508C"/>
<path fill-rule="evenodd" clip-rule="evenodd" d="M156.1 115.1C155.6 114.2 154.4 113.9 153.5 114.4C152.6 114.9 152.3 116.1 152.8 117C153.3 117.9 154.5 118.2 155.4 117.7C156.3 117.1 156.6 116 156.1 115.1Z" fill="#00508C"/>
<path fill-rule="evenodd" clip-rule="evenodd" d="M155.4 115.5C155.1 115 154.4 114.8 153.9 115.1C153.4 115.4 153.2 116.1 153.5 116.6C153.8 117.1 154.5 117.3 155 117C155.5 116.7 155.7 116 155.4 115.5Z" fill="#006EFF"/>
<path fill-rule="evenodd" clip-rule="evenodd" d="M153.8 114.9C154.1 114.7 154.3 114.4 154.2 114.2C154 114.2 153.7 114.3 153.5 114.4C153.3 114.5 153.1 114.7 152.9 114.9C153.1 115.1 153.5 115.1 153.8 114.9Z" fill="#00508C"/>
<path fill-rule="evenodd" clip-rule="evenodd" d="M155.1 117.2C154.8 117.4 154.6 117.7 154.7 117.9C154.9 117.9 155.2 117.8 155.4 117.7C155.6 117.6 155.8 117.4 156 117.2C155.7 117 155.4 117 155.1 117.2Z" fill="#00508C"/>
<path fill-rule="evenodd" clip-rule="evenodd" d="M155.6 114.5C155.4 114.7 155.4 115 155.6 115.4C155.8 115.7 156.1 115.9 156.3 115.8C156.3 115.6 156.2 115.3 156.1 115.1C155.9 114.9 155.7 114.7 155.6 114.5Z" fill="#00508C"/>
<path fill-rule="evenodd" clip-rule="evenodd" d="M153.3 116.7C153.1 116.4 152.8 116.2 152.6 116.3C152.6 116.5 152.7 116.8 152.8 117C152.9 117.2 153.1 117.4 153.3 117.6C153.5 117.3 153.5 117 153.3 116.7Z" fill="#00508C"/>
<path fill-rule="evenodd" clip-rule="evenodd" d="M155.6 118C154.5 118.6 153.2 118.3 152.5 117.2C151.9 116.1 152.2 114.8 153.3 114.1C154.4 113.5 155.7 113.8 156.4 114.9C157 116 156.6 117.4 155.6 118ZM153.5 114.4C152.6 114.9 152.3 116 152.8 116.9C153.3 117.8 154.4 118.1 155.3 117.6C156.2 117.1 156.5 116 156 115.1C155.5 114.2 154.4 113.9 153.5 114.4Z" fill="#006EFF"/>
<path fill-rule="evenodd" clip-rule="evenodd" d="M128.8 112.4C126.8 111.9 124.7 113.1 124.2 115.1C123.7 117.1 124.9 119.2 126.9 119.7C128.9 120.2 131 119 131.5 117C132 115 130.8 112.9 128.8 112.4Z" fill="#00508C"/>
<path fill-rule="evenodd" clip-rule="evenodd" d="M127.8 114.1C126.9 114.1 126.2 114.7 125.9 115.5C125.6 116.5 126.2 117.6 127.3 117.9C127.5 117.9 127.6 118 127.8 118C128.7 118 129.4 117.4 129.7 116.6C130 115.6 129.4 114.5 128.3 114.2C128.1 114.1 128 114.1 127.8 114.1ZM127.8 119C127.5 119 127.3 119 127 118.9C125.4 118.5 124.5 116.9 124.9 115.3C125.2 114 126.4 113.1 127.7 113.1C128 113.1 128.2 113.1 128.5 113.2C130.1 113.6 131 115.2 130.6 116.8C130.3 118.1 129.1 119 127.8 119Z" fill="#00508C"/>
<path fill-rule="evenodd" clip-rule="evenodd" d="M127.8 117.9C127.6 117.9 127.5 117.9 127.3 117.8C126.3 117.5 125.7 116.5 126 115.5C126.2 114.7 127 114.1 127.8 114.1C128 114.1 128.1 114.1 128.3 114.2C129.3 114.5 129.9 115.5 129.6 116.5C129.4 117.4 128.6 117.9 127.8 117.9Z" fill="#00508C"/>
<path fill-rule="evenodd" clip-rule="evenodd" d="M128.1 115C127.5 114.8 126.9 115.2 126.7 115.8C126.5 116.4 126.9 117 127.5 117.2C128.1 117.4 128.7 117 128.9 116.4C129 115.7 128.7 115.1 128.1 115Z" fill="#006EFF"/>
<path fill-rule="evenodd" clip-rule="evenodd" d="M127.5 114.2C127.5 114.5 127.8 114.7 128.1 114.8C128.4 114.9 128.8 114.8 128.9 114.6C128.7 114.4 128.5 114.3 128.2 114.3C128 114.2 127.8 114.1 127.5 114.2Z" fill="#00508C"/>
<path fill-rule="evenodd" clip-rule="evenodd" d="M127.5 117.3C127.2 117.2 126.8 117.3 126.7 117.5C126.9 117.7 127.1 117.8 127.4 117.8C127.7 117.9 127.9 117.9 128.2 117.8C128 117.6 127.8 117.4 127.5 117.3Z" fill="#00508C"/>
<path fill-rule="evenodd" clip-rule="evenodd" d="M129.6 115.8C129.3 115.8 129.1 116.1 129 116.4C128.9 116.7 129 117.1 129.2 117.2C129.4 117 129.5 116.8 129.5 116.5C129.7 116.3 129.7 116 129.6 115.8Z" fill="#00508C"/>
<path fill-rule="evenodd" clip-rule="evenodd" d="M126.3 114.9C126.1 115.1 126 115.3 126 115.6C125.9 115.9 125.9 116.1 126 116.4C126.3 116.4 126.5 116.1 126.6 115.8C126.6 115.4 126.5 115 126.3 114.9Z" fill="#00508C"/>
<path fill-rule="evenodd" clip-rule="evenodd" d="M128.4 113.9C127.2 113.6 126 114.3 125.7 115.5C125.4 116.7 126.1 117.9 127.3 118.2C128.5 118.5 129.7 117.8 130 116.6C130.3 115.4 129.6 114.2 128.4 113.9ZM127.3 117.8C126.3 117.5 125.7 116.5 126 115.5C126.3 114.5 127.3 113.9 128.3 114.2C129.3 114.5 129.9 115.5 129.6 116.5C129.3 117.5 128.3 118.1 127.3 117.8Z" fill="#006EFF"/>
<path fill-rule="evenodd" clip-rule="evenodd" d="M162.8 113.9H158.7V117.5H162.8C163.2 117.5 163.5 117.2 163.5 116.8V114.7C163.5 114.2 163.2 113.9 162.8 113.9Z" fill="#00508C"/>
<path fill-rule="evenodd" clip-rule="evenodd" d="M163.5 110.2V107.3L162.2 99.3L163 98.8L162.6 96.1C162.5 95.3 161.8 94.6 161 94.6L152.5 94.2L147.9 93C147.1 92.8 146.5 93.3 146.5 94V110.6H154.4C156.1 110.6 157.5 111.7 158.5 112.9H163.5C163.8 112.9 164 112.7 164 112.4V110.5C164 110.4 163.8 110.2 163.5 110.2Z" fill="#00508C"/>
<path fill-rule="evenodd" clip-rule="evenodd" d="M160.7 104.5L160.1 100.7C160 100.1 159.5 99.7 158.9 99.7H156.2C155.6 99.7 155.1 100.2 155.1 100.8V103.7C155.1 104.3 155.6 104.8 156.2 104.9L159.7 105.4C160 105.4 160.3 105.4 160.5 105.2C160.6 105.1 160.7 104.8 160.7 104.5Z" fill="#006EFF"/>
<path fill-rule="evenodd" clip-rule="evenodd" d="M162.5 100.6L162.4 99.9L162.5 100.6Z" fill="#5B9AAD"/>
<path fill-rule="evenodd" clip-rule="evenodd" d="M156.3 104.9H156.2C155.6 104.8 155.1 104.3 155.1 103.7C155.1 104.3 155.6 104.8 156.2 104.9H156.3Z" fill="#F5A071"/>
<path fill-rule="evenodd" clip-rule="evenodd" d="M157.9 105.2L157 105.1L157.9 105.2Z" fill="#F5A071"/>
<path fill-rule="evenodd" clip-rule="evenodd" d="M159.8 105.5C159.7 105.5 159.7 105.5 159.6 105.5L158.3 105.3L159.6 105.5C159.7 105.5 159.8 105.5 159.8 105.5C160 105.5 160.2 105.4 160.4 105.3C160.6 105.2 160.6 104.9 160.6 104.7C160.6 104.9 160.5 105.1 160.4 105.3C160.3 105.4 160.1 105.5 159.8 105.5Z" fill="#F5A071"/>
<path fill-rule="evenodd" clip-rule="evenodd" d="M161.6 115.1H159.6C159.5 114.7 159.4 114.3 159.2 113.9H162.1V114.7C162 114.9 161.8 115.1 161.6 115.1Z" fill="#006EFF"/>
<path fill-rule="evenodd" clip-rule="evenodd" d="M161.6 117H159.6V116C159.6 115.9 159.6 115.7 159.6 115.6H161.6C161.8 115.6 162 115.8 162 116V116.5C162 116.8 161.8 117 161.6 117Z" fill="#006EFF"/>
<path fill-rule="evenodd" clip-rule="evenodd" d="M162 116.6H158.8C158.8 116.8 159 117 159.2 117H161.5C161.8 117 162 116.8 162 116.6Z" fill="#006EFF"/>
<path d="M154.2 110.8H148.9V111.6H154.2V110.8Z" fill="#00508C"/>
<path fill-rule="evenodd" clip-rule="evenodd" d="M160.9 99.9H163.3L163.1 98.8H160.7L160.9 99.9Z" fill="#006EFF"/>
<path fill-rule="evenodd" clip-rule="evenodd" d="M163 116.4H163.5V114.7H163C162.7 114.7 162.5 114.9 162.5 115.2V115.9C162.5 116.2 162.8 116.4 163 116.4Z" fill="#006EFF"/>
<path fill-rule="evenodd" clip-rule="evenodd" d="M159.6 117.5H158.6V116C158.6 113.7 156.7 111.8 154.4 111.8C152.1 111.8 150.2 113.7 150.2 116V117.5H149.2V116C149.2 113.1 151.5 110.8 154.4 110.8C157.3 110.8 159.6 113.1 159.6 116V117.5Z" fill="#006EFF"/>
<path fill-rule="evenodd" clip-rule="evenodd" d="M159.2 117V116C159.2 113.4 157.1 111.3 154.5 111.3C151.9 111.3 149.8 113.4 149.8 116V117H149.3V117.5H150.2V116C150.2 113.7 152.1 111.8 154.4 111.8C156.7 111.8 158.6 113.7 158.6 116V117.5H159.6V117H159.2Z" fill="#00508C"/>
<path fill-rule="evenodd" clip-rule="evenodd" d="M148.8 116C148.8 114.5 149.4 113.2 150.3 112.2H145.7C145.1 112.2 144.7 112.7 144.7 113.2V116.4C144.7 117 145.2 117.4 145.7 117.4H148.8V116Z" fill="#00508C"/>
<path fill-rule="evenodd" clip-rule="evenodd" d="M148.4 113.2C148.3 113 148.1 112.9 147.8 112.9H146.1C145.7 112.9 145.4 113.2 145.4 113.6V116C145.4 116.4 145.7 116.7 146.1 116.7H147.4C147.8 116.7 148.1 116.4 148.1 116C148.1 115.3 148.2 114.5 148.5 113.8C148.5 113.6 148.5 113.4 148.4 113.2Z" fill="#006EFF"/>
<path fill-rule="evenodd" clip-rule="evenodd" d="M150.3 99.3C149.8 99.3 149.4 99.7 149.4 100.2V108.7V110.3H154.3V99.3H150.3ZM154.7 99.3V110.3C156.4 110.4 158 111.2 159 112.6H161.6V107.3L160.3 99.2L154.7 99.3ZM163.5 113.1H158.8C157.9 111.7 156.4 110.8 154.6 110.8H149V108.7V100.2C149 99.4 149.6 98.8 150.4 98.8C155.7 98.8 149.7 98.8 160.8 98.8L161 99.9L162.2 107.3V112.6H164.2C164.2 112.6 164.2 112.7 164.1 112.8C163.8 113.1 163.6 113.1 163.5 113.1Z" fill="#006EFF"/>
<path fill-rule="evenodd" clip-rule="evenodd" d="M154.5 110.8C154.5 110.8 154.4 110.8 154.5 110.8C154.4 110.8 154.5 110.8 154.5 110.8ZM154.6 110.8C154.6 110.8 154.5 110.8 154.6 110.8C154.5 110.8 154.6 110.8 154.6 110.8ZM158.8 113.1C157.9 111.7 156.4 110.8 154.6 110.8C156.3 110.8 157.9 111.7 158.8 113.1Z" fill="#232021"/>
<path fill-rule="evenodd" clip-rule="evenodd" d="M152.7 104.4C152.6 104.4 152.6 104.4 152.5 104.4L150.8 104.1C150.2 104 149.7 103.5 149.7 102.9V100.8C149.7 100.2 150.2 99.7 150.8 99.7H152.7C153.3 99.7 153.7 100.1 153.7 100.7V103.4C153.7 103.7 153.6 103.9 153.3 104.1C153.2 104.3 152.9 104.4 152.7 104.4Z" fill="#006EFF"/>
<path fill-rule="evenodd" clip-rule="evenodd" d="M156.4 108.8C156.5 108.8 156.6 108.9 156.6 109V109.7C156.6 109.8 156.5 109.9 156.4 109.9H155.4C155.3 109.9 155.2 109.8 155.2 109.7V109C155.2 108.9 155.3 108.8 155.4 108.8H156.4Z" fill="#006EFF"/>
<path d="M156.5 109.4H155.1V109.9H156.5V109.4Z" fill="#006EFF"/>
<path fill-rule="evenodd" clip-rule="evenodd" d="M157.1 108.8C157.2 108.8 157.3 108.9 157.3 109C157.3 109.1 157.2 109.2 157.1 109.2C157 109.2 156.9 109.1 156.9 109C156.9 108.9 156.9 108.8 157.1 108.8Z" fill="#006EFF"/>
<path fill-rule="evenodd" clip-rule="evenodd" d="M162.6 113.1C162.9 113.1 163.1 112.9 163.1 112.6V110.7C163.1 110.4 162.9 110.2 162.6 110.2V113.1Z" fill="#006EFF"/>
<path fill-rule="evenodd" clip-rule="evenodd" d="M124 116C124 113.9 125.7 112.2 127.8 112.2C129.9 112.2 131.6 113.9 131.6 116V117.4H132.5V116C132.5 113.4 130.4 111.3 127.8 111.3C125.2 111.3 123.1 113.4 123.1 116V117.4H124V116Z" fill="#006EFF"/>
<path fill-rule="evenodd" clip-rule="evenodd" d="M124 116C124 113.9 125.7 112.2 127.8 112.2C129.9 112.2 131.6 113.9 131.6 116V117H132.1V116C132.1 113.7 130.2 111.8 127.9 111.8C125.6 111.8 123.7 113.7 123.7 116V117H124.2V116H124Z" fill="#00508C"/>
<path fill-rule="evenodd" clip-rule="evenodd" d="M99.3 115.1C99.8 117.1 98.6 119.2 96.6 119.7C94.6 120.2 92.5 119 92 117C91.5 115 92.7 112.9 94.7 112.4C96.6 111.9 98.7 113.1 99.3 115.1Z" fill="#00508C"/>
<path fill-rule="evenodd" clip-rule="evenodd" d="M95.6 114.5C95.5 114.5 95.3 114.5 95.2 114.6C94.4 114.8 93.9 115.7 94.1 116.5C94.3 117.2 94.9 117.7 95.6 117.7C95.7 117.7 95.9 117.7 96 117.6C96.8 117.4 97.3 116.5 97.1 115.7C96.9 114.9 96.3 114.5 95.6 114.5ZM95.6 118.6C94.4 118.6 93.4 117.8 93.1 116.7C92.7 115.3 93.6 113.9 94.9 113.5C95.1 113.4 95.4 113.4 95.6 113.4C96.7 113.4 97.8 114.2 98.1 115.3C98.5 116.7 97.6 118.1 96.3 118.5C96.1 118.6 95.8 118.6 95.6 118.6Z" fill="#00508C"/>
<path fill-rule="evenodd" clip-rule="evenodd" d="M97.7 115.5C98 116.7 97.3 117.9 96.2 118.2C95 118.5 93.8 117.8 93.5 116.7C93.2 115.5 93.9 114.3 95 114C96.2 113.6 97.4 114.3 97.7 115.5ZM94.3 116.4C94.5 117.1 95.2 117.5 95.9 117.3C96.6 117.1 97 116.4 96.8 115.7C96.6 115 95.9 114.6 95.2 114.8C94.6 115 94.2 115.7 94.3 116.4Z" fill="#006EFF"/>
<path fill-rule="evenodd" clip-rule="evenodd" d="M95.2 114.4C94.3 114.6 93.8 115.6 94 116.5C94.2 117.4 95.2 117.9 96.1 117.7C97 117.5 97.5 116.5 97.3 115.6C97 114.7 96.1 114.2 95.2 114.4Z" fill="#00508C"/>
<path fill-rule="evenodd" clip-rule="evenodd" d="M95.3 115C94.7 115.2 94.4 115.8 94.5 116.4C94.7 117 95.3 117.3 95.9 117.2C96.5 117 96.8 116.4 96.7 115.8C96.5 115.2 95.9 114.8 95.3 115Z" fill="#006EFF"/>
<path fill-rule="evenodd" clip-rule="evenodd" d="M94.5 116.3C94.4 116 94.2 115.8 94 115.8C94 116 94 116.2 94 116.5C94.1 116.7 94.2 116.9 94.3 117.1C94.5 116.9 94.6 116.6 94.5 116.3Z" fill="#00508C"/>
<path fill-rule="evenodd" clip-rule="evenodd" d="M96.7 115.7C96.8 116 97 116.2 97.2 116.2C97.2 116 97.2 115.8 97.2 115.5C97.1 115.3 97 115.1 96.9 114.9C96.7 115.1 96.7 115.4 96.7 115.7Z" fill="#00508C"/>
<path fill-rule="evenodd" clip-rule="evenodd" d="M94.6 114.7C94.7 114.9 95 115 95.3 114.9C95.6 114.8 95.8 114.6 95.8 114.4C95.6 114.4 95.4 114.4 95.1 114.4C95 114.5 94.8 114.6 94.6 114.7Z" fill="#00508C"/>
<path fill-rule="evenodd" clip-rule="evenodd" d="M95.9 117.2C95.6 117.3 95.4 117.5 95.4 117.7C95.6 117.7 95.8 117.7 96.1 117.7C96.3 117.6 96.5 117.5 96.7 117.4C96.5 117.2 96.2 117.1 95.9 117.2Z" fill="#00508C"/>
<path fill-rule="evenodd" clip-rule="evenodd" d="M80.2 119.3C78.4 120.3 76.1 119.7 75.1 117.9C74.1 116.1 74.7 113.8 76.5 112.8C78.3 111.8 80.6 112.4 81.6 114.2C82.6 116 82 118.3 80.2 119.3Z" fill="#00508C"/>
<path fill-rule="evenodd" clip-rule="evenodd" d="M78.3 114.5C78 114.5 77.8 114.6 77.5 114.7C76.8 115.1 76.5 116.1 76.9 116.8C77.2 117.3 77.7 117.6 78.3 117.6C78.6 117.6 78.8 117.5 79.1 117.4C79.8 117 80.1 116 79.7 115.3C79.4 114.8 78.9 114.5 78.3 114.5ZM78.3 118.6C77.4 118.6 76.5 118.1 76 117.3C75.3 116.1 75.7 114.5 77 113.7C77.4 113.5 77.9 113.4 78.3 113.4C79.2 113.4 80.1 113.9 80.6 114.7C81.3 115.9 80.9 117.5 79.6 118.3C79.2 118.5 78.8 118.6 78.3 118.6Z" fill="#00508C"/>
<path fill-rule="evenodd" clip-rule="evenodd" d="M79.4 117.9C78.4 118.5 77 118.1 76.4 117.1C75.8 116.1 76.2 114.7 77.2 114.1C78.2 113.5 79.6 113.9 80.2 114.9C80.8 116 80.5 117.3 79.4 117.9ZM77.7 114.9C77.1 115.3 76.9 116.1 77.2 116.7C77.6 117.3 78.4 117.5 79 117.2C79.6 116.8 79.8 116 79.5 115.4C79.1 114.8 78.3 114.5 77.7 114.9Z" fill="#006EFF"/>
<path fill-rule="evenodd" clip-rule="evenodd" d="M79.8 115.2C79.3 114.4 78.3 114.1 77.5 114.6C76.7 115.1 76.4 116.1 76.9 116.9C77.4 117.7 78.4 118 79.2 117.5C80 117 80.2 116 79.8 115.2Z" fill="#00508C"/>
<path fill-rule="evenodd" clip-rule="evenodd" d="M79.3 115.5C79 115 78.3 114.8 77.8 115.1C77.3 115.4 77.1 116.1 77.4 116.6C77.7 117.1 78.4 117.3 78.9 117C79.4 116.7 79.6 116 79.3 115.5Z" fill="#006EFF"/>
<path fill-rule="evenodd" clip-rule="evenodd" d="M77.7 115C78 114.8 78.1 114.6 78.1 114.3C77.9 114.3 77.7 114.4 77.5 114.5C77.3 114.6 77.1 114.8 77 115C77.2 115.2 77.5 115.2 77.7 115Z" fill="#00508C"/>
<path fill-rule="evenodd" clip-rule="evenodd" d="M78.9 117C78.6 117.2 78.5 117.4 78.5 117.7C78.7 117.7 78.9 117.6 79.1 117.5C79.3 117.4 79.5 117.2 79.6 117C79.5 116.9 79.2 116.9 78.9 117Z" fill="#00508C"/>
<path fill-rule="evenodd" clip-rule="evenodd" d="M79.3 114.7C79.2 114.9 79.1 115.2 79.3 115.5C79.5 115.8 79.7 115.9 80 115.9C80 115.7 79.9 115.5 79.8 115.3C79.7 115 79.5 114.8 79.3 114.7Z" fill="#00508C"/>
<path fill-rule="evenodd" clip-rule="evenodd" d="M77.3 116.6C77.1 116.3 76.9 116.2 76.6 116.2C76.6 116.4 76.7 116.6 76.8 116.8C76.9 117 77.1 117.2 77.3 117.3C77.5 117.2 77.5 116.9 77.3 116.6Z" fill="#00508C"/>
<path fill-rule="evenodd" clip-rule="evenodd" d="M86 119.7C84 119.2 82.8 117.1 83.3 115.1C83.8 113.1 85.9 111.9 87.9 112.4C89.9 112.9 91.1 115 90.6 117C90.1 119 88 120.2 86 119.7Z" fill="#00508C"/>
<path fill-rule="evenodd" clip-rule="evenodd" d="M87 114.5C86.3 114.5 85.7 115 85.5 115.7C85.3 116.5 85.8 117.4 86.6 117.6C86.7 117.6 86.9 117.7 87 117.7C87.7 117.7 88.3 117.2 88.5 116.5C88.7 115.7 88.2 114.8 87.4 114.6C87.2 114.5 87.1 114.5 87 114.5ZM87 118.6C86.8 118.6 86.6 118.6 86.3 118.5C84.9 118.1 84.1 116.7 84.5 115.3C84.8 114.1 85.9 113.4 87 113.4C87.2 113.4 87.4 113.4 87.7 113.5C89.1 113.9 89.9 115.3 89.5 116.7C89.2 117.9 88.1 118.6 87 118.6Z" fill="#00508C"/>
<path fill-rule="evenodd" clip-rule="evenodd" d="M86.4 118.2C85.2 117.9 84.5 116.7 84.9 115.5C85.2 114.3 86.4 113.6 87.6 114C88.8 114.3 89.5 115.5 89.1 116.7C88.8 117.8 87.6 118.5 86.4 118.2ZM87.3 114.8C86.6 114.6 85.9 115 85.7 115.7C85.5 116.4 85.9 117.1 86.6 117.3C87.3 117.5 88 117.1 88.2 116.4C88.4 115.7 88 115 87.3 114.8Z" fill="#006EFF"/>
<path fill-rule="evenodd" clip-rule="evenodd" d="M88.6 116.5C88.8 115.6 88.3 114.7 87.4 114.4C86.5 114.2 85.6 114.7 85.3 115.6C85.1 116.5 85.6 117.4 86.5 117.7C87.4 117.9 88.3 117.4 88.6 116.5Z" fill="#00508C"/>
<path fill-rule="evenodd" clip-rule="evenodd" d="M88 116.3C88.2 115.7 87.8 115.1 87.2 114.9C86.6 114.7 86 115.1 85.8 115.7C85.6 116.3 86 116.9 86.6 117.1C87.3 117.3 87.9 116.9 88 116.3Z" fill="#006EFF"/>
<path fill-rule="evenodd" clip-rule="evenodd" d="M87.3 114.9C87.6 115 87.9 114.9 88 114.7C87.8 114.6 87.6 114.5 87.4 114.4C87.2 114.3 86.9 114.3 86.7 114.4C86.7 114.6 87 114.8 87.3 114.9Z" fill="#00508C"/>
<path fill-rule="evenodd" clip-rule="evenodd" d="M86.7 117.2C86.4 117.1 86.1 117.2 86 117.4C86.2 117.5 86.4 117.6 86.6 117.7C86.8 117.8 87.1 117.8 87.3 117.7C87.2 117.5 87 117.2 86.7 117.2Z" fill="#00508C"/>
<path fill-rule="evenodd" clip-rule="evenodd" d="M88.6 115.8C88.4 115.8 88.1 116 88.1 116.3C88 116.6 88.1 116.9 88.3 117C88.4 116.8 88.5 116.6 88.6 116.4C88.6 116.2 88.7 116 88.6 115.8Z" fill="#00508C"/>
<path fill-rule="evenodd" clip-rule="evenodd" d="M85.8 115.7C85.9 115.4 85.8 115.1 85.6 115C85.5 115.2 85.4 115.4 85.3 115.6C85.2 115.8 85.2 116.1 85.3 116.3C85.5 116.3 85.8 116 85.8 115.7Z" fill="#00508C"/>
<path fill-rule="evenodd" clip-rule="evenodd" d="M67 111.9H119.2L123 108.8H67V111.9Z" fill="#00508C"/>
<path fill-rule="evenodd" clip-rule="evenodd" d="M66.6 113.4V111.3C66.3 111.3 66.1 111.5 66.1 111.8V112.9C66.1 113.1 66.4 113.4 66.6 113.4Z" fill="#006EFF"/>
<path fill-rule="evenodd" clip-rule="evenodd" d="M64.4 108.7V107.5C64.1 107.5 63.9 107.7 63.9 108V108.2C63.9 108.5 64.2 108.7 64.4 108.7Z" fill="#006EFF"/>
<path fill-rule="evenodd" clip-rule="evenodd" d="M143.1 91C143.1 90.8 142.9 90.7 142.8 90.7C142.6 90.7 142.5 90.9 142.5 91V91.3H143.2L143.1 91Z" fill="#006EFF"/>
<path fill-rule="evenodd" clip-rule="evenodd" d="M143.1 91.1H142.4C142.3 91.2 142.2 91.4 142.2 91.6V92.2H143.4V91.6C143.3 91.4 143.2 91.2 143.1 91.1Z" fill="#006EFF"/>
<path fill-rule="evenodd" clip-rule="evenodd" d="M66.1 91C66.1 90.8 65.9 90.7 65.8 90.7C65.7 90.7 65.5 90.9 65.5 91V91.3H66.2L66.1 91Z" fill="#006EFF"/>
<path fill-rule="evenodd" clip-rule="evenodd" d="M66.1 91.1H65.4C65.3 91.2 65.2 91.4 65.2 91.6V92.2H66.4V91.6C66.3 91.4 66.2 91.2 66.1 91.1Z" fill="#006EFF"/>
<path d="M67.3 110.5H66.6V113.7H67.3V110.5Z" fill="#00508C"/>
<path fill-rule="evenodd" clip-rule="evenodd" d="M143.4 91.4H64.5V110.6H144.8V92.8C144.7 92 144.1 91.4 143.4 91.4Z" fill="#00508C"/>
<path d="M139.8 91.9H139.3V108.6H139.8V91.9Z" fill="#00508C"/>
<path d="M134.9 91.9H134.4V108.6H134.9V91.9Z" fill="#00508C"/>
<path d="M129.9 91.9H129.4V108.6H129.9V91.9Z" fill="#00508C"/>
<path d="M124.9 91.9H124.4V108.6H124.9V91.9Z" fill="#00508C"/>
<path d="M120 91.9H119.5V108.6H120V91.9Z" fill="#00508C"/>
<path d="M115 91.9H114.5V108.6H115V91.9Z" fill="#00508C"/>
<path d="M110.1 91.9H109.6V108.6H110.1V91.9Z" fill="#00508C"/>
<path d="M105.1 91.9H104.6V108.6H105.1V91.9Z" fill="#00508C"/>
<path d="M100.1 91.9H99.6V108.6H100.1V91.9Z" fill="#00508C"/>
<path d="M95.2 91.9H94.7V108.6H95.2V91.9Z" fill="#00508C"/>
<path d="M90.2 91.9H89.7V108.6H90.2V91.9Z" fill="#00508C"/>
<path d="M85.3 91.9H84.8V108.6H85.3V91.9Z" fill="#00508C"/>
<path d="M80.3 91.9H79.8V108.6H80.3V91.9Z" fill="#00508C"/>
<path d="M75.3 91.9H74.8V108.6H75.3V91.9Z" fill="#00508C"/>
<path d="M70.4 91.9H69.9V108.6H70.4V91.9Z" fill="#00508C"/>
<path fill-rule="evenodd" clip-rule="evenodd" d="M143.4 91.9C143.9 91.9 144.3 92.3 144.3 92.8V108.6H65.3V91.9H143.4ZM143.4 91.4H64.5V110.6H144.8V92.8C144.7 92 144.1 91.4 143.4 91.4Z" fill="#00508C"/>
<path fill-rule="evenodd" clip-rule="evenodd" d="M118.5 114.5V116.1C118.5 116.5 118.2 116.7 117.9 116.7C117.5 116.7 117.3 116.4 117.3 116.1V114.5H118.5Z" fill="#006EFF"/>
<path fill-rule="evenodd" clip-rule="evenodd" d="M118.2 116.2C118.2 116.1 118.1 115.9 117.9 115.9C117.8 115.9 117.6 116 117.6 116.2C117.6 116.3 117.7 116.5 117.9 116.5C118 116.4 118.2 116.3 118.2 116.2Z" fill="#006EFF"/>
<path d="M118.6 110.6H117.3V115.5H118.6V110.6Z" fill="#006EFF"/>
<path d="M104.4 110.6H103.5V115.5H104.4V110.6Z" fill="#006EFF"/>
<path d="M104.4 110.6H103.5V111.4H104.4V110.6Z" fill="#006EFF"/>
<path d="M104.4 113H103.5V113.6H104.4V113Z" fill="#006EFF"/>
<path d="M115.5 110.6H114.6V115.5H115.5V110.6Z" fill="#006EFF"/>
<path d="M115.5 110.6H114.6V111.4H115.5V110.6Z" fill="#006EFF"/>
<path d="M115.5 113H114.6V113.6H115.5V113Z" fill="#006EFF"/>
<path fill-rule="evenodd" clip-rule="evenodd" d="M73.9 116.4V116.1C73.9 114.6 74.7 113.2 76 112.4C76.6 112 77.4 111.8 78.1 111.8C78.1 111.8 95.3 111.8 95.4 111.8C97.3 111.8 99 113.1 99.5 114.9C99.6 115.3 99.6 115.6 99.6 116V116.3H100.1V116C100.1 115.6 100 115.2 99.9 114.8C99.3 112.7 97.5 111.3 95.3 111.3H78C77.2 111.3 76.3 111.5 75.6 111.9C74.1 112.7 73.2 114.3 73.2 116V116.3L73.9 116.4Z" fill="#006EFF"/>
<path fill-rule="evenodd" clip-rule="evenodd" d="M116.9 113.2V115.4H102.2V113.2H116.9ZM117.9 112.2H101.1V116.4H117.9V112.2Z" fill="#006EFF"/>
<path d="M32.2 65.5H26.2V71.4H32.2V65.5Z" fill="#006EFF"/>
<path d="M40.9 65.5H34.9V71.4H40.9V65.5Z" fill="#006EFF"/>
<path d="M49.5 65.5H43.5V71.4H49.5V65.5Z" fill="#006EFF"/>
<path d="M8.7 1.5H0V21.8H8.7V1.5Z" fill="#0041CD"/>
<path d="M17.7622 6.62256V9H16.6504V2.60156H19.0981C19.813 2.60156 20.3799 2.7876 20.7988 3.15967C21.2207 3.53174 21.4316 4.02393 21.4316 4.63623C21.4316 5.26318 21.2251 5.75098 20.812 6.09961C20.4019 6.44824 19.8262 6.62256 19.085 6.62256H17.7622ZM17.7622 5.73047H19.0981C19.4937 5.73047 19.7954 5.63818 20.0034 5.45361C20.2114 5.26611 20.3154 4.99658 20.3154 4.64502C20.3154 4.29932 20.21 4.02393 19.999 3.81885C19.7881 3.61084 19.498 3.50391 19.1289 3.49805H17.7622V5.73047ZM24.7583 6.53467H23.519V9H22.4072V2.60156H24.6572C25.3955 2.60156 25.9653 2.76709 26.3667 3.09814C26.7681 3.4292 26.9688 3.9082 26.9688 4.53516C26.9688 4.96289 26.8647 5.32178 26.6567 5.61182C26.4517 5.89893 26.1646 6.12012 25.7954 6.27539L27.2324 8.94287V9H26.0415L24.7583 6.53467ZM23.519 5.64258H24.6616C25.0366 5.64258 25.3296 5.54883 25.5405 5.36133C25.7515 5.1709 25.8569 4.91162 25.8569 4.5835C25.8569 4.24072 25.7588 3.97559 25.5625 3.78809C25.3691 3.60059 25.0791 3.50391 24.6924 3.49805H23.519V5.64258ZM33.1299 5.96777C33.1299 6.59473 33.0215 7.14551 32.8047 7.62012C32.5879 8.0918 32.2773 8.45508 31.873 8.70996C31.4717 8.96191 31.0088 9.08789 30.4844 9.08789C29.9658 9.08789 29.5029 8.96191 29.0957 8.70996C28.6914 8.45508 28.3779 8.09326 28.1553 7.62451C27.9355 7.15576 27.8242 6.61523 27.8213 6.00293V5.64258C27.8213 5.01855 27.9312 4.46777 28.1509 3.99023C28.3735 3.5127 28.6855 3.14795 29.0869 2.896C29.4912 2.64111 29.9541 2.51367 30.4756 2.51367C30.9971 2.51367 31.4585 2.63965 31.8599 2.8916C32.2642 3.14063 32.5762 3.50098 32.7959 3.97266C33.0156 4.44141 33.127 4.98779 33.1299 5.61182V5.96777ZM32.0181 5.63379C32.0181 4.9248 31.8833 4.38135 31.6138 4.00342C31.3472 3.62549 30.9678 3.43652 30.4756 3.43652C29.9951 3.43652 29.6187 3.62549 29.3462 4.00342C29.0767 4.37842 28.939 4.91016 28.9331 5.59863V5.96777C28.9331 6.6709 29.0693 7.21436 29.3418 7.59814C29.6172 7.98193 29.998 8.17383 30.4844 8.17383C30.9766 8.17383 31.3545 7.98633 31.6182 7.61133C31.8848 7.23633 32.0181 6.68848 32.0181 5.96777V5.63379ZM34.2373 9V2.60156H36.127C36.6924 2.60156 37.1934 2.72754 37.6299 2.97949C38.0693 3.23145 38.4092 3.58887 38.6494 4.05176C38.8896 4.51465 39.0098 5.04492 39.0098 5.64258V5.96338C39.0098 6.56982 38.8882 7.10303 38.645 7.56299C38.4048 8.02295 38.0605 8.37744 37.6123 8.62646C37.167 8.87549 36.6558 9 36.0786 9H34.2373ZM35.3491 3.49805V8.1123H36.0742C36.6572 8.1123 37.104 7.93066 37.4146 7.56738C37.728 7.20117 37.8877 6.67676 37.8936 5.99414V5.63818C37.8936 4.94385 37.7427 4.41357 37.4409 4.04736C37.1392 3.68115 36.7012 3.49805 36.127 3.49805H35.3491ZM44.7974 2.60156V6.87744C44.7974 7.55713 44.5791 8.09619 44.1426 8.49463C43.709 8.89014 43.1304 9.08789 42.4067 9.08789C41.6743 9.08789 41.0928 8.89307 40.6621 8.50342C40.2314 8.11084 40.0161 7.56738 40.0161 6.87305V2.60156H41.1235V6.88184C41.1235 7.30957 41.2319 7.63623 41.4487 7.86182C41.6655 8.0874 41.9849 8.2002 42.4067 8.2002C43.2622 8.2002 43.6899 7.74902 43.6899 6.84668V2.60156H44.7974ZM50.8706 6.91699C50.8062 7.59961 50.5542 8.13281 50.1147 8.5166C49.6753 8.89746 49.0908 9.08789 48.3613 9.08789C47.8516 9.08789 47.4019 8.96777 47.0122 8.72754C46.6255 8.48438 46.3267 8.14014 46.1157 7.69482C45.9048 7.24951 45.7949 6.73242 45.7861 6.14355V5.5459C45.7861 4.94238 45.8931 4.41064 46.1069 3.95068C46.3208 3.49072 46.627 3.13623 47.0254 2.88721C47.4268 2.63818 47.8896 2.51367 48.4141 2.51367C49.1201 2.51367 49.6885 2.70557 50.1191 3.08936C50.5498 3.47314 50.8003 4.01514 50.8706 4.71533H49.7632C49.7104 4.25537 49.5757 3.92432 49.3589 3.72217C49.145 3.51709 48.8301 3.41455 48.4141 3.41455C47.9307 3.41455 47.5586 3.5918 47.2979 3.94629C47.04 4.29785 46.9082 4.81494 46.9023 5.49756V6.06445C46.9023 6.75586 47.0254 7.2832 47.2715 7.64648C47.5205 8.00977 47.8838 8.19141 48.3613 8.19141C48.7979 8.19141 49.126 8.09326 49.3457 7.89697C49.5654 7.70068 49.7046 7.37402 49.7632 6.91699H50.8706ZM56.3594 3.49805H54.3643V9H53.2612V3.49805H51.2837V2.60156H56.3594V3.49805ZM58.3765 9H57.269V2.60156H58.3765V9ZM64.8496 5.96777C64.8496 6.59473 64.7412 7.14551 64.5244 7.62012C64.3076 8.0918 63.9971 8.45508 63.5928 8.70996C63.1914 8.96191 62.7285 9.08789 62.2041 9.08789C61.6855 9.08789 61.2227 8.96191 60.8154 8.70996C60.4111 8.45508 60.0977 8.09326 59.875 7.62451C59.6553 7.15576 59.5439 6.61523 59.541 6.00293V5.64258C59.541 5.01855 59.6509 4.46777 59.8706 3.99023C60.0933 3.5127 60.4053 3.14795 60.8066 2.896C61.2109 2.64111 61.6738 2.51367 62.1953 2.51367C62.7168 2.51367 63.1782 2.63965 63.5796 2.8916C63.9839 3.14063 64.2959 3.50098 64.5156 3.97266C64.7354 4.44141 64.8467 4.98779 64.8496 5.61182V5.96777ZM63.7378 5.63379C63.7378 4.9248 63.603 4.38135 63.3335 4.00342C63.0669 3.62549 62.6875 3.43652 62.1953 3.43652C61.7148 3.43652 61.3384 3.62549 61.0659 4.00342C60.7964 4.37842 60.6587 4.91016 60.6528 5.59863V5.96777C60.6528 6.6709 60.7891 7.21436 61.0615 7.59814C61.3369 7.98193 61.7178 8.17383 62.2041 8.17383C62.6963 8.17383 63.0742 7.98633 63.3379 7.61133C63.6045 7.23633 63.7378 6.68848 63.7378 5.96777V5.63379ZM71.0327 9H69.9209L67.0688 4.46045V9H65.957V2.60156H67.0688L69.9297 7.15869V2.60156H71.0327V9ZM16.6504 20V13.6016H18.54C19.1055 13.6016 19.6064 13.7275 20.043 13.9795C20.4824 14.2314 20.8223 14.5889 21.0625 15.0518C21.3027 15.5146 21.4229 16.0449 21.4229 16.6426V16.9634C21.4229 17.5698 21.3013 18.103 21.0581 18.563C20.8179 19.0229 20.4736 19.3774 20.0254 19.6265C19.5801 19.8755 19.0688 20 18.4917 20H16.6504ZM17.7622 14.498V19.1123H18.4873C19.0703 19.1123 19.5171 18.9307 19.8276 18.5674C20.1411 18.2012 20.3008 17.6768 20.3066 16.9941V16.6382C20.3066 15.9438 20.1558 15.4136 19.854 15.0474C19.5522 14.6812 19.1143 14.498 18.54 14.498H17.7622ZM23.7036 20H22.5962V13.6016H23.7036V20ZM28.4146 18.3521C28.4146 18.0708 28.3149 17.854 28.1157 17.7017C27.9194 17.5493 27.5635 17.3955 27.0479 17.2402C26.5322 17.085 26.1221 16.9121 25.8174 16.7217C25.2344 16.3555 24.9429 15.8779 24.9429 15.2891C24.9429 14.7734 25.1523 14.3486 25.5713 14.0146C25.9932 13.6807 26.5396 13.5137 27.2104 13.5137C27.6558 13.5137 28.0527 13.5957 28.4014 13.7598C28.75 13.9238 29.0239 14.1582 29.2231 14.4629C29.4224 14.7646 29.522 15.1001 29.522 15.4692H28.4146C28.4146 15.1353 28.3091 14.8745 28.0981 14.687C27.8901 14.4966 27.5913 14.4014 27.2017 14.4014C26.8384 14.4014 26.5557 14.479 26.3535 14.6343C26.1543 14.7896 26.0547 15.0063 26.0547 15.2847C26.0547 15.519 26.1631 15.7153 26.3799 15.8735C26.5967 16.0288 26.9541 16.1812 27.4521 16.3306C27.9502 16.4771 28.3501 16.6455 28.6519 16.8359C28.9536 17.0234 29.1748 17.2402 29.3154 17.4863C29.4561 17.7295 29.5264 18.0151 29.5264 18.3433C29.5264 18.8765 29.3213 19.3013 28.9111 19.6177C28.5039 19.9312 27.9502 20.0879 27.25 20.0879C26.7871 20.0879 26.3608 20.0029 25.9712 19.833C25.5845 19.6602 25.2827 19.4229 25.0659 19.1211C24.8521 18.8193 24.7451 18.4678 24.7451 18.0664H25.8569C25.8569 18.4297 25.9771 18.7109 26.2173 18.9102C26.4575 19.1094 26.8018 19.209 27.25 19.209C27.6367 19.209 27.9268 19.1313 28.1201 18.9761C28.3164 18.8179 28.4146 18.6099 28.4146 18.3521ZM35.125 14.498H33.1299V20H32.0269V14.498H30.0493V13.6016H35.125V14.498ZM38.3198 17.5347H37.0806V20H35.9688V13.6016H38.2188C38.957 13.6016 39.5269 13.7671 39.9282 14.0981C40.3296 14.4292 40.5303 14.9082 40.5303 15.5352C40.5303 15.9629 40.4263 16.3218 40.2183 16.6118C40.0132 16.8989 39.7261 17.1201 39.3569 17.2754L40.7939 19.9429V20H39.603L38.3198 17.5347ZM37.0806 16.6426H38.2231C38.5981 16.6426 38.8911 16.5488 39.1021 16.3613C39.313 16.1709 39.4185 15.9116 39.4185 15.5835C39.4185 15.2407 39.3203 14.9756 39.124 14.7881C38.9307 14.6006 38.6406 14.5039 38.2539 14.498H37.0806V16.6426ZM42.7583 20H41.6509V13.6016H42.7583V20ZM44.125 20V13.6016H46.3179C47.0415 13.6016 47.5923 13.7466 47.9702 14.0366C48.3481 14.3267 48.5371 14.7588 48.5371 15.333C48.5371 15.626 48.458 15.8896 48.2998 16.124C48.1416 16.3584 47.9102 16.54 47.6055 16.6689C47.9512 16.7627 48.2178 16.9399 48.4053 17.2007C48.5957 17.4585 48.6909 17.769 48.6909 18.1323C48.6909 18.7329 48.4976 19.1943 48.1108 19.5166C47.7271 19.8389 47.1763 20 46.4585 20H44.125ZM45.2368 17.1128V19.1123H46.4717C46.8203 19.1123 47.0928 19.0259 47.2891 18.853C47.4854 18.6802 47.5835 18.4399 47.5835 18.1323C47.5835 17.4673 47.2437 17.1274 46.564 17.1128H45.2368ZM45.2368 16.2954H46.3267C46.6724 16.2954 46.9419 16.2178 47.1353 16.0625C47.3315 15.9043 47.4297 15.6816 47.4297 15.3945C47.4297 15.0781 47.3389 14.8496 47.1572 14.709C46.9785 14.5684 46.6987 14.498 46.3179 14.498H45.2368V16.2954ZM54.4829 13.6016V17.8774C54.4829 18.5571 54.2646 19.0962 53.8281 19.4946C53.3945 19.8901 52.8159 20.0879 52.0923 20.0879C51.3599 20.0879 50.7783 19.8931 50.3477 19.5034C49.917 19.1108 49.7017 18.5674 49.7017 17.873V13.6016H50.8091V17.8818C50.8091 18.3096 50.9175 18.6362 51.1343 18.8618C51.3511 19.0874 51.6704 19.2002 52.0923 19.2002C52.9478 19.2002 53.3755 18.749 53.3755 17.8467V13.6016H54.4829ZM60.2969 14.498H58.3018V20H57.1987V14.498H55.2212V13.6016H60.2969V14.498ZM62.314 20H61.2065V13.6016H62.314V20ZM68.7871 16.9678C68.7871 17.5947 68.6787 18.1455 68.4619 18.6201C68.2451 19.0918 67.9346 19.4551 67.5303 19.71C67.1289 19.9619 66.666 20.0879 66.1416 20.0879C65.623 20.0879 65.1602 19.9619 64.7529 19.71C64.3486 19.4551 64.0352 19.0933 63.8125 18.6245C63.5928 18.1558 63.4814 17.6152 63.4785 17.0029V16.6426C63.4785 16.0186 63.5884 15.4678 63.8081 14.9902C64.0308 14.5127 64.3428 14.1479 64.7441 13.896C65.1484 13.6411 65.6113 13.5137 66.1328 13.5137C66.6543 13.5137 67.1157 13.6396 67.5171 13.8916C67.9214 14.1406 68.2334 14.501 68.4531 14.9727C68.6729 15.4414 68.7842 15.9878 68.7871 16.6118V16.9678ZM67.6753 16.6338C67.6753 15.9248 67.5405 15.3813 67.271 15.0034C67.0044 14.6255 66.625 14.4365 66.1328 14.4365C65.6523 14.4365 65.2759 14.6255 65.0034 15.0034C64.7339 15.3784 64.5962 15.9102 64.5903 16.5986V16.9678C64.5903 17.6709 64.7266 18.2144 64.999 18.5981C65.2744 18.9819 65.6553 19.1738 66.1416 19.1738C66.6338 19.1738 67.0117 18.9863 67.2754 18.6113C67.542 18.2363 67.6753 17.6885 67.6753 16.9678V16.6338ZM74.9702 20H73.8584L71.0063 15.4604V20H69.8945V13.6016H71.0063L73.8672 18.1587V13.6016H74.9702V20Z" fill="#00508C"/>
</g>
<defs>
<clipPath id="clip0">
<rect width="164.2" height="119.8" fill="white"/>
</clipPath>
</defs>
</svg>
