<?xml version="1.0" encoding="utf-8"?>
<!-- Generator: Adobe Illustrator 23.1.0, SVG Export Plug-In . SVG Version: 6.00 Build 0)  -->
<svg version="1.1" xmlns="http://www.w3.org/2000/svg" xmlns:xlink="http://www.w3.org/1999/xlink" x="0px" y="0px"
	 viewBox="0 0 200.2 38" style="enable-background:new 0 0 200.2 38;" xml:space="preserve">
<style type="text/css">
	.st0{fill:#838280;}
	.st1{fill-rule:evenodd;clip-rule:evenodd;fill:#29166F;}
	.st2{fill-rule:evenodd;clip-rule:evenodd;fill:#DB241E;}
</style>
<g id="Capa_1">
	<g>
		<g>
			<path class="st0" d="M125.6,10.2H117l-6.6,7.4v-7.4h-6.6v19.8h6.5v-5.1l2.5-2.4l5.2,7.5h8.5l-8.6-12.3L125.6,10.2z M144.4,10.2
				h-13.5v19.8h7.1v-7h5.3c2.2,0,4.9,0,6.8-1.3c2.4-1.6,2.5-4.2,2.5-5.2c0-1.7-0.4-2.7-0.7-3.3C150.4,10.3,147.5,10.2,144.4,10.2z
				 M144.1,18.4c-0.4,0.1-0.8,0.1-1.6,0.1h-4.6v-3.9h5.2c0.8,0,1.7,0.1,2.2,0.9c0.1,0.2,0.3,0.5,0.3,1
				C145.5,17.5,145,18.2,144.1,18.4z M157.8,29.9h7.1V10.2h-7.1V29.9z M168,19.7h3.5V9.8H168V19.7z M180,12.2
				c-1.5,0-2.4,0.5-3.2,1.1v-0.9h-3.3v7.4h3.3v-3.5c0-0.6,0.2-1.9,1.7-1.9c0.9,0,1.7,0.4,1.7,1.9v3.6h3.3v-4.2
				C183.5,13.8,183.2,12.2,180,12.2z M190.6,18c-1.4,0-2.2-0.9-2.2-2.1c0-1.2,0.9-2,2.1-2c0.7,0,1.6,0.3,1.8,1.1l3.3-0.3
				c-0.1-0.4-0.4-1.1-1.4-1.8c-1-0.7-2.4-1-3.7-1c-5.1,0-5.7,2.9-5.7,4.1c0,2.5,2.1,3.9,5.4,3.9c3.2,0,5-1.1,5.5-3l-3.3-0.1
				C192.2,18,190.9,18,190.6,18z M197,17.1v2.6h3.2v-2.6H197z"/>
		</g>
	</g>
</g>
<g id="Layer_2">
	<polygon class="st1" points="47,0 0,19 0,27 47,8 94,27 94,19 	"/>
</g>
<g id="Layer_3">
	<path class="st2" d="M94,30L47,11v8l47,19V30z"/>
</g>
</svg>
