<svg width="59" height="65" viewBox="0 0 59 65" fill="none" xmlns="http://www.w3.org/2000/svg">
    <g clip-path="url(#clip0_46_587)">
        <g clip-path="url(#clip1_46_587)">
            <path d="M18.4373 54.5537L24.533 64.4775H17.8817C17.6396 64.5028 17.3957 64.4531 17.1801 64.3345C16.9644 64.2159 16.7864 64.0336 16.6678 63.8101L11.2304 54.9864L15.8848 46.6229C16.1363 46.1695 16.4404 46.0107 17.0484 46.0107H23.1726L18.4373 54.5537ZM9.00604 46.0107H3.41773V63.306C3.41715 63.4601 3.44556 63.6127 3.5013 63.7551C3.55704 63.8975 3.63902 64.0268 3.74252 64.1357C3.84601 64.2446 3.96897 64.3309 4.1043 64.3896C4.23963 64.4482 4.38466 64.4781 4.53102 64.4775H10.1193V47.1822C10.1165 46.8724 9.99827 46.5762 9.79011 46.3572C9.58194 46.1381 9.30042 46.0137 9.00604 46.0107ZM54.4999 46.0107H48.9116V63.306C48.909 63.4589 48.9354 63.6108 48.9891 63.7528C49.0429 63.8948 49.1231 64.0241 49.2249 64.1332C49.3267 64.2422 49.4481 64.3288 49.5821 64.3879C49.7161 64.4471 49.8599 64.4775 50.0052 64.4775H55.5935V47.1822C55.5962 47.0291 55.5697 46.8771 55.5158 46.7349C55.4619 46.5928 55.3815 46.4633 55.2795 46.3543C55.1775 46.2452 55.0558 46.1586 54.9215 46.0996C54.7873 46.0406 54.6432 46.0104 54.4977 46.0107H54.4999ZM46.3285 52.6619C46.3285 56.839 44.0035 59.2877 39.2485 59.2877H33.0937V64.4775H27.4901C27.3448 64.4775 27.201 64.4471 27.067 64.3879C26.933 64.3288 26.8116 64.2422 26.7098 64.1332C26.608 64.0241 26.5278 63.8948 26.474 63.7528C26.4203 63.6108 26.3939 63.4589 26.3965 63.306V46.0107H39.242C44.0035 46.0107 46.3285 48.4595 46.3285 52.6619ZM39.6532 52.6366C39.6532 51.8104 39.1479 51.1982 38.1374 51.1982H33.0784V54.1003H38.1309C39.1479 54.1003 39.6532 53.4881 39.6532 52.6366Z" fill="white"/>
        </g>
        <g clip-path="url(#clip2_46_587)">
            <path d="M29.5001 7.99793L0.696781 22.2231V16.8953C0.695852 16.275 0.863064 15.6673 1.1788 15.1435C1.49454 14.6197 1.9457 14.2015 2.47935 13.9379L29.5001 0.5896V7.99793Z" fill="#82C8FA"/>
            <path d="M29.5001 7.99793L0.696781 22.2231V16.8953C0.695852 16.275 0.863064 15.6673 1.1788 15.1435C1.49454 14.6197 1.9457 14.2015 2.47935 13.9379L29.5001 0.5896V7.99793Z" fill="url(#paint0_linear_46_587)"/>
            <path d="M29.5 7.99793L58.3033 22.2231V16.8953C58.3042 16.275 58.137 15.6673 57.8213 15.1435C57.5056 14.6197 57.0544 14.2015 56.5207 13.9379L29.5 0.5896V7.99793Z" fill="#82C8FA"/>
            <path d="M31.2826 23.4267L58.3033 36.7751V31.4357C58.303 30.8166 58.1352 30.2104 57.8195 29.6879C57.5039 29.1655 57.0534 28.7483 56.5207 28.4853L29.5 15.137V20.474C29.5004 21.0934 29.6682 21.6999 29.9839 22.2227C30.2995 22.7455 30.7499 23.1631 31.2826 23.4267Z" fill="#82C8FA"/>
        </g>
    </g>
    <defs>
        <linearGradient id="paint0_linear_46_587" x1="-2.90336" y1="16.8032" x2="101.823" y2="-11.5264" gradientUnits="userSpaceOnUse">
            <stop stop-color="#82C8FA" stop-opacity="0"/>
            <stop offset="0.31" stop-color="#0078FA"/>
        </linearGradient>
        <clipPath id="clip0_46_587">
            <rect width="57.6066" height="63.8879" fill="white" transform="translate(0.696777 0.5896)"/>
        </clipPath>
        <clipPath id="clip1_46_587">
            <rect width="52.167" height="18.4644" fill="white" transform="translate(3.41772 46.0107)"/>
        </clipPath>
        <clipPath id="clip2_46_587">
            <rect width="57.6066" height="36.1901" fill="white" transform="translate(0.696777 0.5896)"/>
        </clipPath>
    </defs>
</svg>
