<svg width="164" height="51" viewBox="0 0 164 51" fill="none" xmlns="http://www.w3.org/2000/svg">
    <g clip-path="url(#clip0_46_747)">
        <g clip-path="url(#clip1_46_747)">
            <path d="M40.3246 10.4457L0.928716 30.3057V22.8674C0.927445 22.0014 1.15615 21.153 1.588 20.4217C2.01985 19.6904 2.63693 19.1065 3.36684 18.7386L40.3246 0.102783V10.4457Z" fill="#82C8FA"/>
            <path d="M40.3246 10.4457L0.928716 30.3057V22.8674C0.927445 22.0014 1.15615 21.153 1.588 20.4217C2.01985 19.6904 2.63693 19.1065 3.36684 18.7386L40.3246 0.102783V10.4457Z" fill="url(#paint0_linear_46_747)"/>
            <path d="M40.3247 10.4457L79.7206 30.3057V22.8674C79.7219 22.0014 79.4931 21.153 79.0613 20.4217C78.6294 19.6904 78.0124 19.1065 77.2825 18.7386L40.3247 0.102783V10.4457Z" fill="#82C8FA"/>
            <path d="M42.7628 31.9861L79.7206 50.6219V43.1676C79.7202 42.3032 79.4906 41.4569 79.0589 40.7275C78.6271 39.998 78.011 39.4157 77.2825 39.0484L40.3247 20.4126V27.8637C40.3253 28.7285 40.5548 29.5752 40.9865 30.3051C41.4182 31.035 42.0343 31.618 42.7628 31.9861Z" fill="#82C8FA"/>
        </g>
        <g clip-path="url(#clip2_46_747)">
            <path d="M112.266 34.5566L120.603 48.4114H111.506C111.175 48.4466 110.841 48.3773 110.546 48.2117C110.251 48.0462 110.008 47.7917 109.846 47.4796L102.409 35.1606L108.775 23.4843C109.119 22.8513 109.534 22.6296 110.366 22.6296H118.742L112.266 34.5566ZM99.3661 22.6296H91.7227V46.7759C91.7219 46.9909 91.7607 47.204 91.837 47.4028C91.9132 47.6016 92.0253 47.7822 92.1669 47.9342C92.3084 48.0863 92.4766 48.2067 92.6617 48.2886C92.8468 48.3705 93.0452 48.4122 93.2454 48.4114H100.889V24.2651C100.885 23.8326 100.723 23.4191 100.439 23.1133C100.154 22.8075 99.7687 22.6338 99.3661 22.6296V22.6296ZM161.591 22.6296H153.947V46.7759C153.944 46.9893 153.98 47.2013 154.053 47.3996C154.127 47.5979 154.236 47.7784 154.376 47.9306C154.515 48.0829 154.681 48.2038 154.864 48.2864C155.047 48.3689 155.244 48.4114 155.443 48.4114H163.086V24.2651C163.09 24.0514 163.054 23.8391 162.98 23.6407C162.906 23.4422 162.796 23.2615 162.657 23.1092C162.517 22.9569 162.351 22.8361 162.167 22.7537C161.984 22.6714 161.787 22.6292 161.588 22.6296H161.591ZM150.414 31.9154C150.414 37.7472 147.234 41.1659 140.73 41.1659H132.312V48.4114H124.648C124.449 48.4114 124.252 48.3689 124.069 48.2864C123.886 48.2038 123.72 48.0829 123.58 47.9306C123.441 47.7784 123.332 47.5979 123.258 47.3996C123.184 47.2013 123.148 46.9893 123.152 46.7759V22.6296H140.721C147.234 22.6296 150.414 26.0484 150.414 31.9154ZM141.284 31.8801C141.284 30.7266 140.593 29.8719 139.211 29.8719H132.291V33.9236H139.202C140.593 33.9236 141.284 33.0689 141.284 31.8801Z" fill="white"/>
        </g>
    </g>
    <defs>
        <linearGradient id="paint0_linear_46_747" x1="-3.99539" y1="22.7389" x2="139.639" y2="-15.3263" gradientUnits="userSpaceOnUse">
            <stop stop-color="#82C8FA" stop-opacity="0"/>
            <stop offset="0.31" stop-color="#0078FA"/>
        </linearGradient>
        <clipPath id="clip0_46_747">
            <rect width="162.146" height="50.5256" fill="white" transform="translate(0.928711 0.102783)"/>
        </clipPath>
        <clipPath id="clip1_46_747">
            <rect width="78.7918" height="50.5256" fill="white" transform="translate(0.928711 0.102783)"/>
        </clipPath>
        <clipPath id="clip2_46_747">
            <rect width="71.3517" height="25.7785" fill="white" transform="translate(91.7227 22.6296)"/>
        </clipPath>
    </defs>
</svg>
