<?xml version="1.0" encoding="utf-8"?>
<!-- Generator: Adobe Illustrator 23.0.6, SVG Export Plug-In . SVG Version: 6.00 Build 0)  -->
<svg version="1.1" id="Calque_1" xmlns="http://www.w3.org/2000/svg" xmlns:xlink="http://www.w3.org/1999/xlink" x="0px" y="0px"
	 viewBox="0 0 28 25.6" style="enable-background:new 0 0 28 25.6;" xml:space="preserve">
<style type="text/css">
	.st0{fill:#FFFFFF;}
</style>
<g>
	<g>
		<g>
			<path class="st0" d="M8.1,21l-4.2-6.1H2.1C1,14.9,0,14,0,12.8V2.1C0,1,0.9,0,2.1,0h15.7c1.2,0,2.1,0.9,2.1,2.1V6
				c0,0.3-0.3,0.6-0.6,0.6S18.7,6.3,18.7,6V2.1c0-0.4-0.4-0.8-0.8-0.8H2c-0.4,0-0.8,0.4-0.8,0.8v10.8c0,0.4,0.4,0.8,0.8,0.8h2.5
				L6.8,17v-3.3h5.1c0.3,0,0.6,0.3,0.6,0.6s-0.3,0.6-0.6,0.6H8.1C8.1,14.9,8.1,21,8.1,21z"/>
		</g>
		<g>
			<g>
				<path class="st0" d="M16.2,4.8H3.7c-0.3,0-0.6-0.3-0.6-0.6s0.3-0.6,0.6-0.6h12.4c0.3,0,0.6,0.3,0.6,0.6S16.5,4.8,16.2,4.8z"/>
			</g>
			<g>
				<path class="st0" d="M8.6,11.2H3.7c-0.3,0-0.6-0.3-0.6-0.6S3.4,10,3.7,10h4.9c0.3,0,0.6,0.3,0.6,0.6S9,11.2,8.6,11.2z"/>
			</g>
			<g>
				<path class="st0" d="M13.4,8H3.8C3.5,8,3.2,7.7,3.2,7.4s0.3-0.6,0.6-0.6h9.6c0.3,0,0.6,0.3,0.6,0.6S13.7,8,13.4,8z"/>
			</g>
		</g>
		<g>
			<path class="st0" d="M17,14.1c-0.5,0-0.8,0-0.8,0c-0.3,0-0.6-0.4-0.5-0.7s0.4-0.6,0.7-0.5c0.1,0,3.3,0.4,4.3-2l0.5-1.2l0.6,1.2
				c0.3,0.6,1.4,2,2.6,2c0.3,0,0.6,0.3,0.6,0.6s-0.3,0.6-0.6,0.6c-1.4,0-2.4-1-3.1-1.8C20.1,13.8,18.1,14.1,17,14.1z"/>
		</g>
		<g>
			<g>
				<g>
					<path class="st0" d="M11,25.6c-0.3,0-0.5-0.2-0.6-0.5s0.1-0.7,0.5-0.8c3.8-1,4.8-1.7,4.9-1.9c0-0.4,0-1.5,0-2.1
						c0-0.3,0.3-0.6,0.6-0.6l0,0c0.3,0,0.6,0.3,0.6,0.6c0,0.6,0,1.9,0,2.2c0.1,1-1.9,2-5.9,3C11.1,25.6,11,25.6,11,25.6z M15.8,22.8
						L15.8,22.8L15.8,22.8z"/>
				</g>
			</g>
			<g>
				<g>
					<path class="st0" d="M27.5,25.6c-0.1,0-0.1,0-0.2,0c-4-1-5.9-2-5.9-3c0-0.2,0-1.5,0-2.2c0-0.3,0.3-0.6,0.6-0.6l0,0
						c0.3,0,0.6,0.3,0.6,0.6c0,0.6,0,1.7,0,2.1c0.2,0.2,1.1,0.9,4.9,1.9c0.3,0.1,0.5,0.4,0.5,0.8C28.1,25.5,27.8,25.6,27.5,25.6z"/>
				</g>
				<g>
					<path class="st0" d="M17.5,21.4h-0.1c-0.9-0.2-1.4-0.6-1.4-0.7c-1.5-1.1-2.3-4.4-2.5-6.1c-0.3-2.5,0.1-4.3,1.1-5.5
						c1-1.1,2.5-1.7,4.6-1.8c2.1,0,3.7,0.6,4.7,1.8c1.1,1.2,1.4,3,1.1,5.5c-0.2,1.8-1,5.1-2.6,6.2c0,0-0.5,0.4-1.4,0.6
						c-0.3,0.1-0.7-0.1-0.8-0.5c-0.1-0.3,0.1-0.7,0.5-0.8c0.6-0.1,0.9-0.4,0.9-0.4c1-0.7,1.8-3.3,2.1-5.3c0.3-2.1,0-3.6-0.8-4.5
						c-0.7-0.9-2-1.3-3.7-1.3s-3,0.5-3.7,1.3c-0.8,0.9-1.1,2.4-0.8,4.5c0.2,2,1,4.6,2,5.3c0,0,0.3,0.3,0.9,0.4
						c0.3,0.1,0.5,0.4,0.5,0.8C18.1,21.2,17.8,21.4,17.5,21.4z"/>
				</g>
			</g>
		</g>
	</g>
</g>
</svg>
