<?xml version="1.0" encoding="utf-8"?>
<!-- Generator: Adobe Illustrator 23.0.6, SVG Export Plug-In . SVG Version: 6.00 Build 0)  -->
<svg version="1.1" id="Calque_1" xmlns="http://www.w3.org/2000/svg" xmlns:xlink="http://www.w3.org/1999/xlink" x="0px" y="0px"
	 viewBox="0 0 51.3 51.3" style="enable-background:new 0 0 51.3 51.3;" xml:space="preserve">
<style type="text/css">
	.st0{fill:#FFFFFF;}
</style>
<g>
	<path class="st0" d="M25.6,51.3C11.5,51.3,0,39.8,0,25.6S11.5,0,25.6,0s25.6,11.5,25.6,25.6S39.8,51.3,25.6,51.3z M25.6,1.3
		C12.2,1.3,1.3,12.2,1.3,25.6S12.2,50,25.6,50S50,39.1,50,25.6S39.1,1.3,25.6,1.3z"/>
</g>
<g>
	<g>
		<g>
			<path class="st0" d="M29.5,21.2c0.8,0,1.5,0.7,1.5,1.5c0,0.8-0.7,1.5-1.5,1.5c-0.8,0-1.5-0.7-1.5-1.5
				C28,21.9,28.6,21.2,29.5,21.2 M29.5,20.2c-1.4,0-2.6,1.2-2.6,2.6c0,1.4,1.2,2.6,2.6,2.6c1.4,0,2.6-1.2,2.6-2.6
				C32,21.3,30.9,20.2,29.5,20.2L29.5,20.2z"/>
		</g>
	</g>
	<g>
		<path class="st0" d="M13.1,34.4c-0.2,0-0.3-0.1-0.4-0.2c-0.3-0.2-0.3-0.6,0-0.9l8.9-9.5l9,9.5c0.2,0.3,0.2,0.6,0,0.9
			c-0.3,0.2-0.6,0.2-0.9,0l-8.1-8.5l-8,8.5C13.5,34.4,13.3,34.4,13.1,34.4z"/>
	</g>
	<g>
		<path class="st0" d="M12.4,37.7V16.8l26.4,0l0,20.9L12.4,37.7z M13.7,18.1v18.4l23.9,0l0-18.4L13.7,18.1z"/>
	</g>
	<g>
		<path class="st0" d="M38.2,34c-0.2,0-0.3-0.1-0.5-0.2l-5.3-5.7L30,30.8c-0.2,0.3-0.6,0.3-0.9,0c-0.3-0.2-0.3-0.6,0-0.9l3.3-3.6
			l6.2,6.7c0.2,0.3,0.2,0.6,0,0.9C38.5,34,38.3,34,38.2,34z"/>
	</g>
</g>
</svg>
