<?xml version="1.0" encoding="utf-8"?>
<!-- Generator: Adobe Illustrator 23.0.6, SVG Export Plug-In . SVG Version: 6.00 Build 0)  -->
<svg version="1.1" id="Calque_1" xmlns="http://www.w3.org/2000/svg" xmlns:xlink="http://www.w3.org/1999/xlink" x="0px" y="0px"
	 viewBox="0 0 51.3 51.3" style="enable-background:new 0 0 51.3 51.3;" xml:space="preserve">
<style type="text/css">
	.st0{fill:#FFFFFF;}
</style>
<g>
	<g>
		<path class="st0" d="M25.6,51.3C11.5,51.3,0,39.8,0,25.6S11.5,0,25.6,0s25.6,11.5,25.6,25.6S39.8,51.3,25.6,51.3z M25.6,1.3
			C12.2,1.3,1.3,12.2,1.3,25.6S12.2,50,25.6,50S50,39.1,50,25.6S39.1,1.3,25.6,1.3z"/>
	</g>
	<g>
		<g>
			<g>
				<g>
					<g>
						<g>
							<path class="st0" d="M36.4,25.6h-2.7c-0.3,0-0.6-0.3-0.6-0.6s0.3-0.6,0.6-0.6h2.7c0.3,0,0.6,0.3,0.6,0.6S36.8,25.6,36.4,25.6
								z"/>
						</g>
						<g>
							<path class="st0" d="M17.5,19c-0.1,0-0.3,0-0.4-0.1c-0.3-0.2-0.3-0.6-0.1-0.9c1.7-2.1,4-3.6,6.7-4.2c0.3-0.1,0.7,0.1,0.7,0.5
								c0.1,0.3-0.1,0.7-0.5,0.7c-2.4,0.5-4.5,1.8-5.9,3.7C17.9,19,17.7,19,17.5,19z"/>
						</g>
					</g>
					<g>
						<path class="st0" d="M26.1,26.9L22,23.1c-0.3-0.2-0.3-0.6,0-0.9c0.2-0.3,0.6-0.3,0.9,0l3.2,3l5.7-5.7c0.2-0.2,0.6-0.2,0.9,0
							s0.2,0.6,0,0.9L26.1,26.9z"/>
					</g>
				</g>
			</g>
		</g>
		<g>
			<path class="st0" d="M32.9,34c-0.2,0-0.4-0.1-0.5-0.2c-0.2-0.3-0.2-0.7,0.1-0.9c2.4-1.9,3.7-4.8,3.7-7.9c0-5.4-4.2-9.8-9.5-10.1
				v2.3c0,0.3-0.3,0.6-0.6,0.6s-0.6-0.3-0.6-0.6v-3.6H26c6.3,0,11.4,5.1,11.4,11.4c0,3.4-1.5,6.7-4.2,8.8C33.1,33.9,33,34,32.9,34z"
				/>
		</g>
		<g>
			<g>
				<path class="st0" d="M30.6,39.8c-0.1,0-0.2,0-0.3-0.1l-4.5-3c-0.3-0.2-0.4-0.6-0.2-0.9c0.2-0.3,0.6-0.4,0.9-0.2l4.5,3
					c0.3,0.2,0.4,0.6,0.2,0.9C31,39.7,30.8,39.8,30.6,39.8z"/>
			</g>
			<g>
				<path class="st0" d="M28.7,41c-0.2,0-0.4,0-0.4,0c-3.3-0.5-7-2.7-11-6.7c-0.1-0.1-0.2-0.2-0.2-0.2l-0.2-0.2
					c-4-3.9-6.3-7.7-6.8-11.1c0,0-0.3-1.2,1.1-2.4c0,0,0.1-0.1,0.3-0.3l0.5-0.5l3.4,5.1c0.2,0.3,0.1,0.7-0.2,0.9
					c-0.3,0.2-0.7,0.1-0.9-0.2l-2.6-3.9c-0.6,0.6-0.5,1-0.5,1.1c0.4,3.1,2.7,6.8,6.5,10.5l0.2,0.2c0,0,0.1,0.1,0.3,0.3
					c4.7,4.7,8.2,6.1,10.3,6.4c0.1,0,0.6,0.1,1.3-0.7l0.4-0.5c0.8-1.1,1.3-1.8,1.5-2.1l0,0c0,0,0-0.2-0.3-0.4l-3.9-2.6
					c-0.1-0.1-0.5-0.4-1-0.1L23.8,35l-0.3-0.3c-0.1-0.1-2.4-1.9-3.8-3.4c-1.4-1.3-3.3-3.6-3.4-3.7l-0.3-0.3l1.5-2.7
					c0.3-0.5,0-0.9,0-0.9l-2.7-4c-0.2-0.3-0.4-0.3-0.4-0.3c-0.1,0-0.3,0.1-1,0.6c-0.3,0.2-0.7,0.2-0.9-0.1c-0.2-0.3-0.2-0.7,0.1-0.9
					c0.9-0.7,1.4-0.8,1.6-0.9c0.4-0.1,1.1,0,1.6,0.8l2.6,3.9c0.3,0.3,0.7,1.2,0.1,2.3l-1.1,2c0.6,0.7,1.9,2.3,3,3.3
					c1,1.1,2.6,2.5,3.3,3l2-1.1c1.1-0.6,2-0.2,2.4,0.2l3.9,2.6c0.8,0.5,0.9,1.3,0.8,1.6c0,0.3-0.3,0.7-1.7,2.6l-0.5,0.6
					C30,40.9,29.2,41,28.7,41z"/>
			</g>
		</g>
	</g>
</g>
</svg>
