<?xml version="1.0" encoding="utf-8"?>
<!-- Generator: Adobe Illustrator 23.0.6, SVG Export Plug-In . SVG Version: 6.00 Build 0)  -->
<svg version="1.1" id="Calque_1" xmlns="http://www.w3.org/2000/svg" xmlns:xlink="http://www.w3.org/1999/xlink" x="0px" y="0px"
	 viewBox="0 0 51.3 51.3" style="enable-background:new 0 0 51.3 51.3;" xml:space="preserve">
<style type="text/css">
	.st0{fill:#FFFFFF;}
</style>
<g>
	<g>
		<path class="st0" d="M25.6,51.3C11.5,51.3,0,39.8,0,25.6S11.5,0,25.6,0s25.6,11.5,25.6,25.6S39.8,51.3,25.6,51.3z M25.6,1.3
			C12.2,1.3,1.3,12.2,1.3,25.6S12.2,50,25.6,50S50,39.1,50,25.6S39.1,1.3,25.6,1.3z"/>
	</g>
	<g>
		<g>
			<path class="st0" d="M35.4,37.5H15.8c-1.1,0-1.9-0.9-1.9-1.9V18c0-1,0.9-1.9,1.9-1.9h3.5c0.3,0,0.6,0.3,0.6,0.6s-0.3,0.6-0.6,0.6
				h-3.5c-0.4,0-0.7,0.3-0.7,0.7v17.6c0,0.4,0.3,0.7,0.7,0.7h19.6c0.4,0,0.7-0.3,0.7-0.7V18c0-0.4-0.3-0.7-0.7-0.7h-2.4
				c-0.3,0-0.6-0.3-0.6-0.6s0.3-0.6,0.6-0.6h2.4c1,0,1.9,0.9,1.9,1.9v17.6C37.3,36.6,36.5,37.5,35.4,37.5z"/>
		</g>
		<g>
			<path class="st0" d="M30.5,17.3h-3.1c-0.3,0-0.6-0.3-0.6-0.6s0.3-0.6,0.6-0.6h3.1c0.3,0,0.6,0.3,0.6,0.6S30.9,17.3,30.5,17.3z"/>
		</g>
		<g>
			<path class="st0" d="M24.9,17.3h-3.1c-0.3,0-0.6-0.3-0.6-0.6s0.3-0.6,0.6-0.6h3.1c0.3,0,0.6,0.3,0.6,0.6S25.3,17.3,24.9,17.3z"/>
		</g>
		<g>
			<path class="st0" d="M36.7,23.4H14.6c-0.3,0-0.6-0.3-0.6-0.6s0.3-0.6,0.6-0.6h22.1c0.3,0,0.6,0.3,0.6,0.6S37,23.4,36.7,23.4z"/>
		</g>
		<g>
			<path class="st0" d="M19.4,20c-0.3,0-0.6-0.3-0.6-0.6v-5c0-0.3,0.3-0.6,0.6-0.6s0.6,0.3,0.6,0.6v5C20.1,19.7,19.8,20,19.4,20z"/>
		</g>
		<g>
			<path class="st0" d="M30.6,20c-0.3,0-0.6-0.3-0.6-0.6v-5c0-0.3,0.3-0.6,0.6-0.6s0.6,0.3,0.6,0.6v5C31.3,19.7,31,20,30.6,20z"/>
		</g>
		<g>
			<path class="st0" d="M25,20c-0.3,0-0.6-0.3-0.6-0.6v-5c0-0.3,0.3-0.6,0.6-0.6s0.6,0.3,0.6,0.6v5C25.7,19.7,25.4,20,25,20z"/>
		</g>
		<g>
			<g>
				<g>
					<g>
						<rect x="21.4" y="28.9" class="st0" width="1.6" height="1.6"/>
					</g>
				</g>
				<g>
					<g>
						<rect x="18" y="28.9" class="st0" width="1.6" height="1.6"/>
					</g>
				</g>
				<g>
					<g>
						<rect x="24.8" y="28.9" class="st0" width="1.6" height="1.6"/>
					</g>
				</g>
				<g>
					<g>
						<rect x="28.2" y="28.9" class="st0" width="1.6" height="1.6"/>
					</g>
				</g>
				<g>
					<g>
						<rect x="31.6" y="28.9" class="st0" width="1.6" height="1.6"/>
					</g>
				</g>
			</g>
			<g>
				<g>
					<g>
						<rect x="21.4" y="25.5" class="st0" width="1.6" height="1.6"/>
					</g>
				</g>
				<g>
					<g>
						<rect x="24.8" y="25.5" class="st0" width="1.6" height="1.6"/>
					</g>
				</g>
				<g>
					<g>
						<rect x="28.2" y="25.5" class="st0" width="1.6" height="1.6"/>
					</g>
				</g>
				<g>
					<g>
						<rect x="31.6" y="25.5" class="st0" width="1.6" height="1.6"/>
					</g>
				</g>
			</g>
			<g>
				<g>
					<g>
						<rect x="21.4" y="32.3" class="st0" width="1.6" height="1.6"/>
					</g>
				</g>
				<g>
					<g>
						<rect x="18" y="32.3" class="st0" width="1.6" height="1.6"/>
					</g>
				</g>
				<g>
					<g>
						<rect x="24.8" y="32.3" class="st0" width="1.6" height="1.6"/>
					</g>
				</g>
				<g>
					<g>
						<rect x="28.2" y="32.3" class="st0" width="1.6" height="1.6"/>
					</g>
				</g>
			</g>
		</g>
	</g>
</g>
</svg>
