<?xml version="1.0" encoding="utf-8"?>
<!-- Generator: Adobe Illustrator 23.0.6, SVG Export Plug-In . SVG Version: 6.00 Build 0)  -->
<svg version="1.1" id="Calque_1" xmlns="http://www.w3.org/2000/svg" xmlns:xlink="http://www.w3.org/1999/xlink" x="0px" y="0px"
	 viewBox="0 0 51.3 51.3" style="enable-background:new 0 0 51.3 51.3;" xml:space="preserve">
<style type="text/css">
	.st0{fill:#FFFFFF;}
</style>
<g>
	<g>
		<path class="st0" d="M25.6,51.3C11.5,51.3,0,39.8,0,25.6S11.5,0,25.6,0s25.6,11.5,25.6,25.6S39.8,51.3,25.6,51.3z M25.6,1.3
			C12.2,1.3,1.3,12.2,1.3,25.6S12.2,50,25.6,50S50,39.1,50,25.6S39.1,1.3,25.6,1.3z"/>
	</g>
	<g>
		<g>
			<path class="st0" d="M30.4,26.1h-9.5c-0.3,0-0.6-0.3-0.6-0.6s0.3-0.6,0.6-0.6h9.5c0.3,0,0.6,0.3,0.6,0.6S30.7,26.1,30.4,26.1z"/>
		</g>
		<g>
			<path class="st0" d="M30.4,29.5h-9.5c-0.3,0-0.6-0.3-0.6-0.6s0.3-0.6,0.6-0.6h9.5c0.3,0,0.6,0.3,0.6,0.6S30.7,29.5,30.4,29.5z"/>
		</g>
		<g>
			<path class="st0" d="M30.4,32.8h-9.5c-0.3,0-0.6-0.3-0.6-0.6s0.3-0.6,0.6-0.6h9.5c0.3,0,0.6,0.3,0.6,0.6S30.7,32.8,30.4,32.8z"/>
		</g>
		<g>
			<g>
				<path class="st0" d="M34.7,37.5H16.5V18.5l4.8-4.8h13.5V37.5z M17.8,36.3h15.7V15H21.8l-4,4V36.3z"/>
			</g>
		</g>
		<g>
			<path class="st0" d="M22.9,20.1h-3.6c-0.3,0-0.6-0.3-0.6-0.6s0.3-0.6,0.6-0.6h2.4v-2.4c0-0.3,0.3-0.6,0.6-0.6s0.6,0.3,0.6,0.6
				V20.1z"/>
		</g>
	</g>
</g>
</svg>
