<?xml version="1.0" encoding="utf-8"?>
<!-- Generator: Adobe Illustrator 23.0.6, SVG Export Plug-In . SVG Version: 6.00 Build 0)  -->
<svg version="1.1" id="Calque_1" xmlns="http://www.w3.org/2000/svg" xmlns:xlink="http://www.w3.org/1999/xlink" x="0px" y="0px"
	 viewBox="0 0 51.3 51.3" style="enable-background:new 0 0 51.3 51.3;" xml:space="preserve">
<style type="text/css">
	.st0{fill:#FFFFFF;}
</style>
<g>
	<path class="st0" d="M25.6,51.3C11.5,51.3,0,39.8,0,25.6S11.5,0,25.6,0s25.6,11.5,25.6,25.6S39.8,51.3,25.6,51.3z M25.6,1.3
		C12.2,1.3,1.3,12.2,1.3,25.6S12.2,50,25.6,50S50,39.1,50,25.6S39.1,1.3,25.6,1.3z"/>
</g>
<g>
	<g>
		<g>
			<g>
				<path class="st0" d="M38.9,36.8c-0.3,0-0.6-0.3-0.6-0.6v-6.4c0-2.3-0.6-4.1-1.8-5.3c-1.7-1.7-4.1-1.8-4.8-1.8
					c-0.8,0-3.2,0.1-4.9,1.8c-1.2,1.2-1.8,3-1.8,5.3v6.4c0,0.3-0.3,0.6-0.6,0.6s-0.6-0.3-0.6-0.6v-6.4c0-2.6,0.7-4.7,2.2-6.1
					c2.1-2,4.9-2.1,5.7-2.2c0.9,0,3.7,0.1,5.8,2.1c1.5,1.4,2.2,3.5,2.2,6.2v6.4C39.5,36.5,39.2,36.8,38.9,36.8z"/>
			</g>
			<g>
				<path class="st0" d="M36.6,29.2h-4.8l-1-1.7l-0.9,1.7h-3.3c-0.3,0-0.6-0.3-0.6-0.6s0.3-0.6,0.6-0.6h2.5l1.6-3.1l1.8,3.1h4.1
					c0.3,0,0.6,0.3,0.6,0.6S36.9,29.2,36.6,29.2z"/>
			</g>
			<g>
				<g>
					<g>
						<path class="st0" d="M39.9,40.5c-0.1,0-0.1,0-0.2,0c-4.1-1-6.1-2-6-3c0-0.2,0-1.9,0-2.6c0-0.3,0.3-0.6,0.6-0.6
							c0.4,0,0.6,0.3,0.6,0.6c0,0.6,0,2,0,2.5c0.2,0.2,1.1,0.9,5.1,1.9c0.3,0.1,0.5,0.4,0.5,0.8C40.4,40.3,40.2,40.5,39.9,40.5z"/>
					</g>
				</g>
				<g>
					<g>
						<path class="st0" d="M23.2,40.5c-0.3,0-0.5-0.2-0.6-0.5c-0.1-0.3,0.1-0.7,0.5-0.8c4-1,4.9-1.7,5.1-1.9v-2.5
							c0-0.3,0.3-0.6,0.6-0.6c0,0,0,0,0,0c0.3,0,0.6,0.3,0.6,0.6v2.6c0.1,1-1.9,2-6,3C23.3,40.5,23.2,40.5,23.2,40.5z M28.1,37.5
							L28.1,37.5L28.1,37.5z"/>
					</g>
				</g>
			</g>
			<g>
				<g>
					<path class="st0" d="M33,36.8c-0.2,0-0.5-0.1-0.6-0.4c-0.1-0.3,0-0.7,0.3-0.8c0.1-0.1,0.3-0.2,0.3-0.2c1.2-0.9,2-3.1,2-5.2
						c0,0,0-0.7-0.1-1.4C34.8,28.4,35,28,35.4,28c0.3-0.1,0.7,0.1,0.7,0.5c0.2,0.9,0.2,1.7,0.1,1.7c0,2.5-1,5.1-2.5,6.2
						c0,0-0.3,0.2-0.5,0.3C33.1,36.7,33,36.8,33,36.8z"/>
				</g>
				<g>
					<path class="st0" d="M30.1,36.8c-0.1,0-0.2,0-0.2,0c-0.2-0.1-0.5-0.3-0.5-0.3c-1.5-1.1-2.6-3.7-2.6-6.3l0,0c0,0,0-0.8,0.2-1.7
						c0.1-0.3,0.4-0.6,0.7-0.5c0.3,0.1,0.6,0.4,0.5,0.7C28,29.5,28,30.1,28,30.1c0,2.2,0.9,4.4,2.1,5.3c0,0,0,0,0,0
						c0,0,0.1,0.1,0.3,0.1c0.3,0.1,0.5,0.5,0.3,0.8C30.6,36.6,30.3,36.8,30.1,36.8z M30.1,35.4L30.1,35.4L30.1,35.4z"/>
				</g>
			</g>
		</g>
		<g>
			<path class="st0" d="M19.5,35.6l-4.3-6.3h-1.9c-1.2,0-2.1-1-2.1-2.1V15.8c0-1.2,1-2.1,2.1-2.1h16.6c1.2,0,2.2,1,2.2,2.1v4.1
				c0,0.3-0.3,0.6-0.6,0.6s-0.6-0.3-0.6-0.6v-4.1c0-0.5-0.4-0.9-0.9-0.9H13.3c-0.5,0-0.9,0.4-0.9,0.9v11.4c0,0.5,0.4,0.9,0.9,0.9
				h2.6l2.4,3.5v-3.5H22c0.3,0,0.6,0.3,0.6,0.6s-0.3,0.6-0.6,0.6h-2.4V35.6z"/>
		</g>
		<g>
			<g>
				<path class="st0" d="M28.1,18.7H15c-0.3,0-0.6-0.3-0.6-0.6s0.3-0.6,0.6-0.6h13.1c0.3,0,0.6,0.3,0.6,0.6S28.5,18.7,28.1,18.7z"/>
			</g>
			<g>
				<path class="st0" d="M20.2,25.4H15c-0.3,0-0.6-0.3-0.6-0.6s0.3-0.6,0.6-0.6h5.1c0.3,0,0.6,0.3,0.6,0.6S20.5,25.4,20.2,25.4z"/>
			</g>
			<g>
				<path class="st0" d="M25.2,22H15c-0.3,0-0.6-0.3-0.6-0.6s0.3-0.6,0.6-0.6h10.1c0.3,0,0.6,0.3,0.6,0.6S25.5,22,25.2,22z"/>
			</g>
		</g>
	</g>
</g>
</svg>
