<?xml version="1.0" encoding="utf-8"?>
<!-- Generator: Adobe Illustrator 23.0.6, SVG Export Plug-In . SVG Version: 6.00 Build 0)  -->
<svg version="1.1" id="Layer_1" xmlns="http://www.w3.org/2000/svg" xmlns:xlink="http://www.w3.org/1999/xlink" x="0px" y="0px"
	 viewBox="0 0 375.6 401.8" style="enable-background:new 0 0 375.6 401.8;" xml:space="preserve">
<g id="_1">
	<path d="M33.4,293.3c-5.7,0-10.9-3.2-13.4-8.3C-16.4,212.7-2.2,125.2,55.1,68.1c73.2-73.2,192.3-73.2,265.4,0
		c5.8,6,5.6,15.5-0.4,21.2c-5.8,5.6-15,5.6-20.8,0c-61.5-61.5-161.5-61.5-223,0c-48.1,48-60,121.5-29.5,182.2
		c3.7,7.4,0.7,16.4-6.7,20.1C38,292.7,35.7,293.2,33.4,293.3L33.4,293.3z"/>
	<path d="M187.8,388.4c-49.8,0.1-97.5-19.7-132.7-54.9c-5.9-5.9-5.9-15.4,0-21.2s15.4-5.9,21.2,0c61.5,61.5,161.5,61.5,223,0
		c48.1-48,60-121.5,29.5-182.2c-3.7-7.4-0.7-16.4,6.7-20.1c7.4-3.7,16.4-0.7,20.1,6.7c46.5,92.6,9,205.4-83.6,251.8
		C245.9,381.6,217,388.5,187.8,388.4z"/>
	<path d="M246,100.1c-8.3,0-15-6.8-14.9-15.1c0-7.7,5.8-14.1,13.5-14.8l47.4-4.7l-9.5-47.7c-1.5-8.1,3.8-16,12-17.5
		c8-1.5,15.7,3.7,17.4,11.6l12.7,63.9c1.6,8.1-3.7,16-11.8,17.6c-0.5,0.1-1,0.2-1.4,0.2l-63.9,6.4C247,100.1,246.5,100.1,246,100.1z
		"/>
	<path d="M78.4,401.8c-7.2,0-13.3-5.1-14.7-12.1L51,325.9c-1.6-8.1,3.7-16,11.8-17.6c0.5-0.1,1-0.2,1.5-0.2l63.9-6.4
		c8.2-0.8,15.6,5.2,16.4,13.4c0.8,8.2-5.2,15.6-13.4,16.4l-47.4,4.7l9.5,47.7c1.6,8.1-3.7,16-11.8,17.6
		C80.4,401.7,79.4,401.8,78.4,401.8z"/>
</g>
</svg>
