<?xml version="1.0" encoding="utf-8"?>
<!-- Generator: Adobe Illustrator 23.0.6, SVG Export Plug-In . SVG Version: 6.00 Build 0)  -->
<svg version="1.1" id="Layer_1" xmlns="http://www.w3.org/2000/svg" xmlns:xlink="http://www.w3.org/1999/xlink" x="0px" y="0px"
	 viewBox="0 0 20 20" style="enable-background:new 0 0 20 20;" xml:space="preserve">
<style type="text/css">
	.st0{fill-rule:evenodd;clip-rule:evenodd;fill:#ECE9F1;}
</style>
<title></title>
<desc></desc>
<g id="Page-1">
	<g id="Core" transform="translate(-128.000000, -86.000000)">
		<g id="check-circle-outline" transform="translate(128.000000, 86.000000)">
			<path id="Shape" class="st0" d="M5.9,8.1L4.5,9.5L9,14L19,4l-1.4-1.4L9,11.2L5.9,8.1L5.9,8.1z M18,10c0,4.4-3.6,8-8,8s-8-3.6-8-8
				s3.6-8,8-8c0.8,0,1.5,0.1,2.2,0.3l1.6-1.6C12.6,0.3,11.3,0,10,0C4.5,0,0,4.5,0,10s4.5,10,10,10s10-4.5,10-10H18L18,10z"/>
		</g>
	</g>
</g>
</svg>
