<?xml version="1.0" encoding="utf-8"?>
<!-- Generator: Adobe Illustrator 23.1.0, SVG Export Plug-In . SVG Version: 6.00 Build 0)  -->
<svg version="1.1" id="Layer_1" xmlns="http://www.w3.org/2000/svg" xmlns:xlink="http://www.w3.org/1999/xlink" x="0px" y="0px"
	 viewBox="0 0 90 90" style="enable-background:new 0 0 90 90;" xml:space="preserve">
<style type="text/css">
	.st0{fill:#fff;}
	.st1{fill:#0041CD;}
</style>
<g>
	<circle class="st0" cx="45" cy="45" r="45"/>
	<g id="Youtube_1_">
		<path class="st1" d="M63.8,32.4c-1.6-1.7-3.4-1.7-4.2-1.8C53.8,30.2,45,30.2,45,30.2h0c0,0-8.8,0-14.6,0.4
			c-0.8,0.1-2.6,0.1-4.2,1.8c-1.3,1.3-1.7,4.2-1.7,4.2s-0.4,3.4-0.4,6.8v3.2c0,3.4,0.4,6.8,0.4,6.8s0.4,2.9,1.7,4.2
			c1.6,1.7,3.7,1.6,4.6,1.8c3.3,0.3,14.2,0.4,14.2,0.4s8.8,0,14.6-0.4c0.8-0.1,2.6-0.1,4.2-1.8c1.3-1.3,1.7-4.2,1.7-4.2
			s0.4-3.4,0.4-6.8v-3.2c0-3.4-0.4-6.8-0.4-6.8S65.1,33.7,63.8,32.4z M40.7,50.5l0-11.8L52,44.6L40.7,50.5z"/>
	</g>
</g>
</svg>
